<svg viewBox="0 0 1000 1000" xmlns="http://www.w3.org/2000/svg"><path d="m0 0h1000v1000h-1000z" fill="none"/><path d="m168.02 519.5c63.42-64.37 30.66-205.86 60.37-292.49 40-116.63 252.44-206.53 471.47-79.57 183.42 106.33 247.11 345.66 166.98 442.4-23.98 28.95-53.83 36.65-93.02 66.93-36.46 28.17-40.57 35.35-43.19 40.25-25.93 48.37 28.61 90.82 17.63 132.31-17.34 65.55-190.77 100.52-335.8 78.33-39.11-5.98-237.3-40.77-310.19-185.31-5.64-11.19-67.01-83.26-24.96-149.33 34.08-53.54 73.82-36.37 90.73-53.54z" fill="#caddff"/><path d="m629.53 539.12-132.5.83c-.86 0-1.14.8-1.14 1.56v112.73c0 10.79-75.28 38.83-76.01 37.41l-.09 11.93c0 2.22 1.95 4.19 4.44 4.19h112.78c5.15 0 10.25-1.15 14.91-3.11l61.08-25.72c11-4.63 17.93-14.57 17.93-25.42v-112.84c0-.77-.54-1.56-1.4-1.56z" fill="#99b9ff"/><path d="m482.48 533.39v112.75c0 11.11-7.15 21.24-18.39 26.04l-41.2 17.59c-2.69 1.15-1.77 4.76 1.21 4.76h113.21c5.09 0 10.12-1.01 14.72-2.94l45.65-19.22c11.32-4.77 18.55-14.93 18.55-26.11v-112.86c0-.46-.42-.84-.94-.84h-131.87c-.52 0-.94.37-.94.84z" fill="#fff"/><path d="m537.3 696.02h-113.21c-2.1 0-3.84-1.34-4.23-3.26-.38-1.84.6-3.6 2.43-4.38l41.2-17.59c10.62-4.53 17.48-14.21 17.48-24.66v-112.75c0-1.29 1.09-2.34 2.44-2.34h131.87c1.34 0 2.44 1.05 2.44 2.34v112.86c0 11.72-7.64 22.51-19.46 27.49l-45.65 19.22c-4.76 2-10.05 3.06-15.3 3.06zm-53.32-161.97v112.09c0 11.65-7.58 22.41-19.3 27.42l-41.2 17.59c-.7.3-.72.77-.67 1.02.08.4.47.86 1.29.86h113.21c4.86 0 9.75-.98 14.14-2.83l45.65-19.22c10.71-4.51 17.63-14.21 17.63-24.72v-112.2h-130.74z"/><path d="m235.59 596.44 571.09 1.28c5 0 9.98-3.76 10.62-8.72l45.62-355.79c1.11-8.66-5.6-17.27-14.21-17.06l-564.46 2.98-48.65 377.3z" fill="#5479f7"/><path d="m826.28 217.41c9.83 0 18.7 9.96 17.44 19.73l-45.05 351.77c-.64 4.97-5.96 9.17-10.95 9.17l-560.98-.91c-5.99 0-9.99-4.97-9.23-10.93l46.66-358.29c.64-4.97 3.92-10.54 8.92-10.54z" fill="#99b9ff"/><path d="m228.12 599.85c-3.28 0-6.41-1.42-8.58-3.88-2.18-2.48-3.18-5.77-2.76-9.05l11.41-87.9c.11-.82.86-1.4 1.68-1.29s1.4.86 1.29 1.68l-11.41 87.9c-.31 2.42.43 4.85 2.04 6.68 1.6 1.82 3.91 2.86 6.33 2.86l560.6-1.01c4.22 0 8.25-3.62 8.8-7.92l45.26-351.71c.55-4.24-.76-8.51-3.58-11.71-2.81-3.19-6.85-5.02-11.09-5.02h-98.46c-.83 0-1.5-.67-1.5-1.5s.67-1.5 1.5-1.5h98.46c5.11 0 9.97 2.2 13.35 6.04 3.39 3.85 4.96 8.98 4.3 14.08l-45.26 351.71c-.75 5.81-6.03 10.53-11.78 10.53z"/><path d="m320.87 284.13c.34-2.63 2.57-4.6 5.22-4.6h461.83c5.2 0 9.22 4.58 8.55 9.75l-36.63 274.63c-.34 2.63-2.57 4.6-5.22 4.6h-466.27c-2.87 0-5.09-2.53-4.71-5.38l37.24-279z" fill="#fff"/><path d="m787.91 279.53c5.2 0 9.22 4.58 8.55 9.75l-3.97 23.06-476.09-.08 4.45-28.13c.34-2.63 2.57-4.6 5.22-4.6h461.83z" fill="#5479f7"/><path d="m298.16 455.94c-.07 0-.13 0-.2-.01-.82-.11-1.4-.86-1.29-1.69l22.71-170.31c.43-3.36 3.31-5.9 6.7-5.9l376.51-.17c.83 0 1.5.67 1.5 1.5s-.67 1.5-1.5 1.5l-376.51.17c-1.88 0-3.49 1.41-3.73 3.29l-22.71 170.32c-.1.75-.74 1.3-1.48 1.3z"/><path d="m621.04 570.01h-177.43c-.83 0-1.5-.67-1.5-1.5s.67-1.5 1.5-1.5h177.43c.83 0 1.5.67 1.5 1.5s-.67 1.5-1.5 1.5z"/><path d="m763.68 536.26c-.07 0-.14 0-.21-.01-.82-.11-1.39-.87-1.28-1.69l5.86-42.6c.11-.82.88-1.39 1.69-1.28.82.11 1.39.87 1.28 1.69l-5.86 42.6c-.1.75-.75 1.3-1.48 1.3z"/><path d="m785.49 372.37c-.07 0-.13 0-.2-.01-.82-.11-1.4-.87-1.29-1.69l10.98-81.59c.26-2.03-.37-4.09-1.72-5.63s-3.3-2.42-5.34-2.42h-42.04c-.83 0-1.5-.67-1.5-1.5s.67-1.5 1.5-1.5h42.04c2.9 0 5.67 1.25 7.59 3.44 1.93 2.19 2.82 5.11 2.45 8.01l-10.98 81.6c-.1.75-.75 1.3-1.48 1.3z"/><path d="m443.18 489.81 83.83-125.94c3.93-5.91 12.73-5.54 16.16.67l69.51 125.94c3.48 6.31-1.08 14.03-8.28 14.03h-153.34c-7.55 0-12.06-8.42-7.88-14.7z" fill="#5479f7"/><path d="m528.36 462.95-9.82-.2c-1.31-.21-2.21-1.42-2.05-2.74l8.16-65.01c.17-1.4 1.45-2.37 2.83-2.16l14.47.3c1.38.22 2.3 1.55 2.02 2.93l-12.81 64.91c-.26 1.31-1.49 2.18-2.8 1.97z" fill="#fff"/><path d="m514.36 477.78c2.22-3.93 6.91-5.3 10.49-3.07s4.67 7.23 2.45 11.16-6.91 5.3-10.49 3.07c-3.57-2.23-4.67-7.23-2.45-11.16z" fill="#fff"/><path d="m305.57 208.15c.38-2.99 2.92-5.23 5.93-5.23h149.26c5.91 0 10.48 5.21 9.72 11.09l-15.56 114.8c-.38 2.99-2.92 5.23-5.93 5.23h-154.31c-3.27 0-5.79-2.88-5.36-6.12z" fill="#fff"/><path d="m303.38 225.86c-.07 0-.14 0-.2-.01-.82-.11-1.4-.87-1.28-1.69l2.2-16.21c.48-3.72 3.67-6.53 7.41-6.53h128.84c.83 0 1.5.67 1.5 1.5s-.67 1.5-1.5 1.5h-128.84c-2.24 0-4.15 1.68-4.44 3.92l-2.2 16.22c-.1.75-.75 1.3-1.48 1.3z"/><path d="m294.69 335.54c-2 0-3.89-.86-5.2-2.36s-1.91-3.49-1.65-5.46l11.27-83.06c.11-.82.87-1.4 1.69-1.29s1.4.87 1.28 1.69l-11.27 83.06c-.15 1.11.19 2.24.93 3.08s1.81 1.33 2.94 1.33l19.9-.08c.83 0 1.5.67 1.5 1.49 0 .83-.67 1.5-1.49 1.51l-19.91.08z"/><path d="m448.99 335.54-121.4-.08c-.83 0-1.5-.67-1.5-1.5s.67-1.5 1.5-1.5l121.4.08c2.24 0 4.15-1.68 4.44-3.92l14.08-103.85c.11-.82.87-1.4 1.69-1.29s1.4.87 1.28 1.69l-14.08 103.84c-.48 3.72-3.67 6.53-7.42 6.53z"/><path d="m387.49 237.68h-67.92c-1.93 0-3.5-1.57-3.5-3.5s1.57-3.5 3.5-3.5h67.92c1.93 0 3.5 1.57 3.5 3.5s-1.57 3.5-3.5 3.5z" fill="#caddff"/><path d="m355.97 223.83h-34.09c-1.93 0-3.5-1.57-3.5-3.5s1.57-3.5 3.5-3.5h34.09c1.93 0 3.5 1.57 3.5 3.5s-1.57 3.5-3.5 3.5z" fill="#99b9ff"/><path d="m901.1 465.26c.35-2.68-1.74-5.06-4.44-5.06h-239.67c-1.37 0-2.53 1.02-2.71 2.39l-19.32 144.79c-.2 1.48.95 2.79 2.44 2.79h241.97c1.37 0 2.53-1.02 2.71-2.39l19.01-142.52z" fill="#caddff"/><path d="m896.66 460.2c2.7 0 4.78 4.58 4.44 9.74l-3.66 22.84-247.47.34 4.32-28.33c.18-2.63 1.33-4.59 2.71-4.59h239.67z" fill="#5479f7"/><path d="m637.17 591.25-2.21 16.79c-.2 1.48.95 2.38 2.44 2.38h241.97c1.37 0 2.53-.61 2.71-1.97l2.26-17.19h-247.18z" fill="#99b9ff"/><g fill="#fff"><path d="m874.82 517.09h-153.69c-1.93 0-3.5-1.57-3.5-3.5s1.57-3.5 3.5-3.5h153.69c1.93 0 3.5 1.57 3.5 3.5s-1.57 3.5-3.5 3.5z"/><path d="m862.5 536.27h-149.58c-1.93 0-3.5-1.57-3.5-3.5s1.57-3.5 3.5-3.5h149.58c1.93 0 3.5 1.57 3.5 3.5s-1.57 3.5-3.5 3.5z"/><path d="m858.4 553.67h-34.02c-1.93 0-3.5-1.57-3.5-3.5s1.57-3.5 3.5-3.5h34.02c1.93 0 3.5 1.57 3.5 3.5s-1.57 3.5-3.5 3.5z"/><path d="m852.53 571.96h-185.36c-1.93 0-3.5-1.57-3.5-3.5s1.57-3.5 3.5-3.5h185.36c1.93 0 3.5 1.57 3.5 3.5s-1.57 3.5-3.5 3.5z"/></g><path d="m858.42 611.84-221.01-.18c-1.14 0-2.23-.49-2.98-1.35s-1.1-2-.95-3.14l19.32-144.79c.27-2.1 2.07-3.69 4.19-3.69h239.67c1.71 0 3.35.74 4.48 2.03 1.14 1.29 1.66 3.01 1.44 4.72l-15.75 119.53c-.11.82-.86 1.4-1.68 1.29s-1.4-.86-1.29-1.68l15.75-119.53c.11-.85-.15-1.71-.72-2.36s-1.36-1.01-2.23-1.01h-239.67c-.62 0-1.14.46-1.22 1.08l-19.32 144.8c-.05.38.12.64.23.76s.35.33.73.33l221.01.18c.83 0 1.5.67 1.5 1.5s-.67 1.5-1.5 1.5z"/><circle cx="378.12" cy="283.89" fill="#5479f7" r="30.87" transform="matrix(.97325912 -.22971002 .22971002 .97325912 -55.11 94.47)"/><path d="m373.48 263.47h7.53v40.85h-7.53z" fill="#fff" transform="matrix(.70710678 -.70710678 .70710678 .70710678 -90.25 349.9)"/><path d="m373.48 263.47h7.53v40.85h-7.53z" fill="#fff" transform="matrix(-.70710678 -.70710678 .70710678 -.70710678 443.25 751.39)"/><path d="m770.49 762.36c-4.24-27.35-32.38-48.49-66.46-48.49s-62.22 21.13-66.46 48.49z" fill="#fff"/><path d="m770.49 763.86h-132.92c-.44 0-.85-.19-1.14-.52-.28-.33-.41-.77-.34-1.21 4.4-28.37 33.61-49.76 67.94-49.76s63.54 21.39 67.94 49.76c.07.43-.06.87-.34 1.21-.29.33-.7.52-1.14.52zm-131.14-3h129.35c-5.08-26.05-32.52-45.49-64.68-45.49s-59.6 19.43-64.68 45.49z"/><path d="m278.44 783.48s19.5-2.44 35.18 5.88c9.61 5.1 43.22 1.95 32.66 20.88-2.27 4.08-3.59 6.83-8.29 10.19-2.57 1.84-9.31 5.35-12.89 6.17-17.44 3.99-32.56 4.18-48.02-10.77-2.98-2.88-6.85-4.67-11-5.04-2.66-.23-153.86 25.11-181.09.69-30.96-27.77 26.21-111.63 26.21-111.63l70.88 34.28s-22.06 33.33-22.39 37.2c-.25 2.97 118.76 12.15 118.76 12.15z" fill="#fff"/><path d="m307.7 830.39c-11.09 0-21.35-3.49-31.67-13.48-2.74-2.65-6.32-4.29-10.09-4.62-.38.02-3.48.45-7.39 1-99.73 13.99-158.46 13.76-174.56-.69-31.57-28.32 23.61-110.13 25.97-113.6l.73-1.07 73.59 35.59-.95 1.43c-9.64 14.57-19.99 31.1-21.86 35.6 8.91 2.43 73.67 8.07 116.94 11.41 2.02-.23 20.56-2.09 35.91 6.06 2.6 1.38 7.39 2.15 12.46 2.97 9.04 1.45 19.29 3.1 22.22 9.15 1.43 2.95.95 6.59-1.41 10.82l-.45.81c-2.03 3.66-3.62 6.54-8.28 9.87-2.77 1.98-9.63 5.55-13.43 6.42-6.2 1.42-12.08 2.33-17.73 2.33zm-41.66-21.09h.15c4.45.39 8.68 2.33 11.91 5.45 14.67 14.18 28.73 14.49 46.65 10.38 3.29-.75 9.83-4.13 12.35-5.93 4.11-2.94 5.42-5.3 7.4-8.89l.45-.82c1.88-3.38 2.32-6.01 1.33-8.05-2.25-4.64-11.68-6.16-19.99-7.49-5.32-.86-10.35-1.67-13.39-3.28-15.08-8-34.1-5.74-34.29-5.71l-.15.02h-.15c-.29-.03-29.37-2.28-58.4-4.88-59.32-5.31-60.59-6.8-61.35-7.7-.29-.34-.43-.77-.4-1.21.32-3.77 16.49-28.58 21.69-36.46l-68.16-32.96c-6.45 9.81-53.51 83.68-25.73 108.6 10.6 9.51 49.06 17.21 172.15-.05 5.82-.82 7.34-1.02 7.92-1.02z"/><path d="m648.6 763.75c2.73-1.4 8.68.99 11.02.48 8.54-1.88 19.83-15.49 27.1-25.43 5.78-7.91 14.81-12.93 24.63-13.59 2.32-.16 4.84-.2 7.57-.24 6.24-.09 9.42-2.29 10.92-5.09 2.95-5.5-1.33-12.14-7.61-12.41-13.72-.59-42.12-1.2-51.83 3.26-6.39 2.93-14.43 11.57-20.97 19.59-6.42 7.89-16.25 10.72-26.15 13.25-16.14 4.13-78.4-3.23-78.4-3.23s-27.37-40.4-60.81-76.89l-57.77 67.33s67.95 71.4 98.61 79.06c20.85 5.21 68.63-17.81 123.71-46.1z" fill="#fff"/><path d="m531.67 812.09c-2.62 0-5.01-.26-7.15-.79-30.72-7.68-96.54-76.55-99.33-79.48-.53-.56-.55-1.43-.05-2.01l57.77-67.33c.28-.33.68-.52 1.11-.52.42 0 .84.17 1.13.49 30.99 33.81 57.09 71.43 60.56 76.49 6.79.78 62.38 6.97 77.18 3.19 10.36-2.65 19.41-5.44 25.36-12.74 8.74-10.74 15.98-17.48 21.5-20.01 9.8-4.5 37.11-4.06 52.52-3.39 3.64.16 6.88 2.14 8.69 5.31 1.69 2.97 1.76 6.36.18 9.31-2.05 3.82-6.16 5.8-12.22 5.88-2.63.04-5.18.08-7.49.24-9.38.63-17.95 5.36-23.52 12.98-7.89 10.79-19.15 24.06-27.99 26.01-1.26.28-2.92-.02-4.85-.37-2.07-.37-4.65-.83-5.81-.24-49.98 25.68-93.64 47.01-117.61 47.01zm-103.36-81.36c8.28 8.58 68.99 70.67 96.94 77.66 20.6 5.15 69.77-18.81 122.66-45.98 2.06-1.06 5.06-.52 7.71-.04 1.41.25 3 .54 3.68.39 6.18-1.36 15.49-10.19 26.21-24.85 6.09-8.34 15.48-13.51 25.74-14.2 2.39-.16 4.98-.21 7.65-.24 4.89-.07 8.12-1.51 9.62-4.3 1.08-2.01 1.03-4.35-.14-6.4-1.29-2.26-3.61-3.68-6.21-3.79-12.19-.52-41.57-1.27-51.14 3.12-5.03 2.31-12.1 8.94-20.43 19.18-6.52 8.01-16.06 10.97-26.94 13.76-16.23 4.15-76.39-2.89-78.95-3.19-.43-.05-.82-.29-1.07-.65-.27-.4-27.06-39.8-59.54-75.47l-55.78 65.01z"/><path d="m214.78 556.25c60.73-19.52 164.65-9.68 196.17 13.62 40.95 30.27 81.39 85.48 96.57 105.76 4.22 5.64 3.6 10.21.43 16.51-13.63 27.08-57.06 76.9-74.28 64.29-17.14-12.55-26.27-22.41-25.04-10.02 3.26 32.85 10.44 162.35 10.44 162.35s-196.05 12.68-244.97-14.09c-5.86-3.21-9.03-9.81-7.89-16.43 5.74-33.35 38.91-103.8 25.49-146.2-1.52-4.79-9.11 17.78-21.49 31.46l-67.93-52.93c-5.13-4.09-2.93-8.07-.48-14.18 12.02-30.07 47.44-119.06 112.98-140.12z" fill="#fff"/><path d="m318.97 913.33c-56.26 0-120.1-3.41-145.59-17.36-6.42-3.52-9.9-10.75-8.65-18 1.71-9.94 5.74-22.83 10.4-37.75 10.73-34.36 24.04-76.99 15.55-106.39-.99 1.49-2.45 4.21-3.78 6.68-3.78 7.03-8.95 16.65-15.58 23.98-.53.58-1.41.66-2.03.18l-67.93-52.93c-5.62-4.48-3.72-9.14-1.52-14.54.18-.45.37-.91.56-1.38l.09-.22c11.82-29.57 47.77-119.54 113.83-140.77 28.45-9.14 68.4-12.54 109.62-9.31 39.62 3.1 72.48 11.75 87.91 23.16 39.45 29.17 78.3 81.19 94.89 103.4l1.99 2.66c4.82 6.44 3.79 11.69.57 18.08-11.76 23.36-44.11 61.61-64.71 66.56-4.71 1.13-8.68.55-11.8-1.74-3.39-2.48-6.48-4.87-9.21-6.97-5.28-4.08-11.84-9.15-13.14-8.43 0 0-.67.47-.31 4.02 3.23 32.51 10.38 161.12 10.45 162.41.05.82-.58 1.53-1.4 1.58-3.83.25-48.86 3.08-100.2 3.08zm-127.89-183.47c.07 0 .14 0 .22.01.5.05 1.4.33 1.83 1.7 9.6 30.34-4.12 74.25-15.14 109.54-4.63 14.82-8.63 27.62-10.3 37.36-1.03 5.99 1.84 11.96 7.13 14.86 45.75 25.04 224.46 15.09 242.66 14-.81-14.51-7.32-130.24-10.36-160.79-.26-2.61-.28-5.76 1.85-6.94 3.02-1.67 7.78 2 16.43 8.68 2.71 2.09 5.79 4.47 9.14 6.93 2.38 1.74 5.51 2.16 9.33 1.24 19.48-4.69 51.49-42.66 62.73-64.99 3.27-6.5 3.2-10.27-.3-14.93l-1.99-2.66c-16.51-22.11-55.17-73.88-94.27-102.78-14.99-11.08-47.28-19.53-86.36-22.58-40.84-3.19-80.38.15-108.46 9.18l-.46-1.43.46 1.43c-64.71 20.8-100.28 109.79-111.96 139.03l-.09.22c-.19.48-.38.95-.57 1.4-2.31 5.68-3.1 8.1.6 11.05l66.8 52.05c5.95-6.92 10.72-15.78 14.24-22.34 3.77-7.02 5.04-9.23 6.83-9.23z"/><path d="m392.51 438.67c5.15 1.76 7.54 12.46 8.35 17.88 2.68 17.87-6.56 59.78-19.4 62.52-12.65 2.7-11.58-3.06-21.21 2.34-7.69 4.31-8.71 12.2-12.2 29.25-.22 1.08 21.9 7.37 22.29 8.41.88 2.35-12.79 31.27-55.38 25.86-40.35-5.13-45.96-32.71-46.12-34.65-.09-1.16 30.45-3.29 30.99-4.41 7.07-14.61 12.32-40.05 12.32-40.05s26.2-85.71 80.35-67.15z" fill="#fff"/><path d="m325.13 587.1c-3.24 0-6.69-.21-10.35-.68-43.08-5.47-47.4-35.71-47.42-36.02-.14-1.82 1.73-2.06 6.25-2.66 3-.39 7.03-.82 10.93-1.24 5.27-.56 12.34-1.31 14.19-1.78 6.79-14.35 11.91-38.96 11.96-39.21l.03-.14c.62-2.04 15.6-50.04 46.68-65.9 11.23-5.73 23.21-6.49 35.6-2.24 6.17 2.12 8.6 14.05 9.35 19.08 2.66 17.74-6.3 61.16-20.57 64.21-6.04 1.29-9.14.73-11.62.29-2.74-.49-4.39-.79-9.17 1.89-6.49 3.64-7.8 10.14-10.68 24.38-.19.94-.39 1.91-.59 2.91 1.87.85 7.1 2.58 10.71 3.78 10.28 3.4 10.93 3.73 11.32 4.76.73 1.95-1.94 6.88-4.82 10.53-4.57 5.79-17.17 18.02-41.8 18.02zm-54.56-35.86c1.3 5.2 9.01 27.68 44.58 32.2 23.09 2.93 36.98-4.43 44.56-11.12 6.01-5.3 8.57-10.62 9.08-12.45-1.62-.71-5.99-2.15-9.3-3.25-12.55-4.15-13.27-4.5-12.9-6.28.27-1.34.53-2.63.78-3.86 2.97-14.71 4.47-22.09 12.15-26.4 5.44-3.05 7.79-2.83 11.17-2.23 2.34.42 5 .9 10.46-.27 11.66-2.49 20.9-43.06 18.23-60.83-1.03-6.89-3.58-15.39-7.36-16.69-11.59-3.97-22.78-3.28-33.26 2.07-29.45 15.02-44.53 62.03-45.16 64.04-.38 1.8-5.47 25.97-12.42 40.33-.53 1.1-.63 1.29-16.34 2.96-5.07.54-11.74 1.25-14.28 1.75z"/><path d="m368.07 476.73c-.07 0-.14 0-.21-.01-8.03-1.1-13.39-12.05-13.93-21.99-.44-8.09 2.35-13.68 7.46-14.96 8.65-2.16 15.66 11.04 15.95 11.6.38.73.1 1.64-.63 2.02s-1.64.1-2.02-.63c-1.7-3.25-7.29-11.4-12.56-10.08-5.35 1.34-5.33 9.44-5.2 11.89.47 8.58 5.14 18.33 11.34 19.18.82.11 1.39.87 1.28 1.69-.1.75-.75 1.3-1.48 1.3z"/><path d="m412.21 421.47c2.28 12.54-10.3 15.4-20.28 23.21-10.31 8.07-9.92 7.8-14.55 10.19-3.08 1.59-4.28-10.38-12.65-12.05-6.24-1.25-7.81 4.03-9.17 5.55-5.46 6.13 50.38 128.83 22.02 203.82-18.09 47.84-64.55 69.07-167.82 59.55-86.43-7.97-109.3-95.53-93.99-127.65 39.74-83.35 122.75-6.83 142.31-131.11 13.71-87.12 95.14-125.93 144.92-55.22 5.03 7.14 7.76 15.74 9.21 23.7z"/><path d="m750.3 205.76c-.39 0-.78-.15-1.07-.45-67.53-68.97-156.49-107.39-244.14-105.42-.82.02-1.51-.64-1.53-1.47s.64-1.51 1.47-1.53c44.82-1.01 89.27 7.97 132.13 26.69 42.03 18.36 80.46 45.15 114.22 79.63.58.59.57 1.54-.02 2.12-.29.29-.67.43-1.05.43z"/><path d="m713.16 198.3c-.35 0-.71-.12-.99-.38-76.98-68-173.57-94.39-265.01-72.4-.8.19-1.62-.3-1.81-1.11s.3-1.62 1.11-1.81c92.4-22.22 189.97 4.41 267.69 73.07.62.55.68 1.5.13 2.12-.3.34-.71.51-1.12.51z"/><path d="m724 218.35c-1.31 0-2.64-.33-3.87-1.03-1.82-1.04-3.13-2.72-3.68-4.74s-.29-4.13.75-5.95c2.14-3.76 6.93-5.07 10.69-2.93s5.07 6.93 2.93 10.69c-1.44 2.53-4.1 3.96-6.82 3.96zm-2.38-3.63c2.32 1.32 5.28.51 6.6-1.81s.51-5.28-1.81-6.6-5.28-.51-6.6 1.81c-.64 1.12-.8 2.43-.46 3.67.34 1.25 1.15 2.28 2.27 2.92z"/><path d="m741.49 231.2c-.36 0-.72-.13-.99-.38l-9.47-8.36c-.42-.37-.6-.94-.47-1.48s.55-.96 1.09-1.1l12.43-3.19c.5-.13 1.04.01 1.41.37s.54.89.43 1.39c-1.23 5.85-2.98 11.62-2.99 11.68-.15.49-.53.87-1.03 1.01-.13.04-.27.06-.41.06zm-6.35-9.11 5.57 4.92c.47-1.69 1.13-4.15 1.75-6.8z"/><path d="m529.29 859.85s-.07 0-.1 0c-7.67-.52-15.42-1.37-23.03-2.53-.82-.12-1.38-.89-1.26-1.71s.89-1.38 1.71-1.26c7.52 1.15 15.19 1.99 22.78 2.5.83.06 1.45.77 1.4 1.6-.05.79-.71 1.4-1.5 1.4z"/><path d="m547.67 860.47c-6.16 0-12.32-.21-18.48-.62-.83-.06-1.45-.77-1.4-1.6.06-.83.77-1.45 1.6-1.4 27.11 1.82 54.4-.42 81.1-6.68 16.7-3.91 33.05-9.38 48.6-16.25.76-.34 1.64 0 1.98.77.34.76 0 1.64-.77 1.98-15.72 6.95-32.25 12.47-49.13 16.42-20.94 4.9-42.23 7.37-63.52 7.37z"/><path d="m501.52 882.21c-.07 0-.14 0-.21-.02-3.96-.56-7.97-1.21-11.92-1.94-.81-.15-1.35-.93-1.2-1.75.15-.81.93-1.36 1.75-1.2 3.9.72 7.87 1.37 11.8 1.92.82.12 1.39.88 1.27 1.7-.11.75-.75 1.29-1.48 1.29z"/><path d="m542.18 885.08c-13.63 0-27.27-.96-40.87-2.89-.82-.12-1.39-.88-1.27-1.7s.88-1.39 1.7-1.27c35.51 5.03 71.31 3.42 106.4-4.8 20.06-4.7 39.6-11.52 58.07-20.29.75-.36 1.64-.04 2 .71.35.75.04 1.64-.71 2-18.67 8.85-38.41 15.75-58.68 20.5-22.02 5.16-44.31 7.74-66.64 7.74z"/><path d="m610.85 821.48c-3.59 0-7-2.13-8.46-5.65-1.92-4.66.3-10.01 4.96-11.93 4.65-1.92 10.01.3 11.93 4.96.93 2.26.93 4.74 0 6.99-.94 2.25-2.69 4.01-4.95 4.94-1.14.47-2.32.69-3.48.69zm-.02-15.27c-.78 0-1.57.15-2.33.46-3.13 1.29-4.62 4.89-3.33 8.01 1.29 3.13 4.89 4.62 8.01 3.33 1.52-.63 2.7-1.8 3.32-3.32.63-1.51.63-3.18 0-4.7-.98-2.36-3.27-3.79-5.68-3.79z"/><path d="m506.03 913.12c-.08 0-.16 0-.24-.02l-22.38-3.64c-.53-.09-.98-.46-1.17-.96-.19-.51-.08-1.08.27-1.49l14.08-16.47c.34-.4.86-.59 1.38-.51s.95.43 1.15.91l8.3 20.1c.21.5.13 1.08-.21 1.5-.29.36-.72.57-1.18.57zm-19.51-6.19 17.1 2.78-6.34-15.36-10.75 12.58z"/></svg>