<?xml version="1.0" encoding="UTF-8"?>
<svg width="587px" height="289px" viewBox="0 0 587 289" version="1.1" xmlns="http://www.w3.org/2000/svg" xmlns:xlink="http://www.w3.org/1999/xlink">
    <title>ErrorPage404-02</title>
    <g id="404-PAGE" stroke="none" stroke-width="1" fill="none" fill-rule="evenodd">
        <g id="Concept-B---Dashboard" transform="translate(-468.000000, -348.000000)">
            <g id="ErrorPage404-02" transform="translate(468.000000, 348.000000)">
                <path d="M423.7875,267.869241 L135.8015,267.869241 C120.6915,242.689241 112.0095,213.211241 112.0095,181.705241 C112.0095,89.0402408 187.1295,13.9292408 279.7865,13.9292408 C372.4515,13.9292408 447.5705,89.0402408 447.5705,181.705241 C447.5705,213.211241 438.8895,242.689241 423.7875,267.869241 M255.1655,204.586241 C257.1605,205.784241 259.3435,206.699241 261.6605,207.278241 L261.6605,210.846241 C261.6605,212.031241 262.6215,212.990241 263.8055,212.990241 L271.1535,212.990241 C272.3385,212.990241 273.2985,212.031241 273.2985,210.846241 L273.2985,207.278241 C275.6145,206.699241 277.7995,205.784241 279.7935,204.586241 L282.3175,207.111241 C282.7365,207.529241 283.2845,207.738241 283.8335,207.738241 C284.3825,207.738241 284.9315,207.529241 285.3495,207.111241 L290.5465,201.914241 C291.3835,201.077241 291.3835,199.719241 290.5465,198.882241 L288.0215,196.358241 C289.2205,194.363241 290.1355,192.180241 290.7135,189.863241 L294.2815,189.863241 C295.4665,189.863241 296.4265,188.902241 296.4265,187.718241 L296.4265,180.370241 C296.4265,179.186241 295.4665,178.225241 294.2815,178.225241 L290.7135,178.225241 C290.1355,175.908241 289.2205,173.725241 288.0215,171.730241 L290.5465,169.206241 C291.3835,168.369241 291.3835,167.011241 290.5465,166.174241 L285.3495,160.978241 C284.9315,160.559241 284.3825,160.350241 283.8335,160.350241 C283.2845,160.350241 282.7365,160.559241 282.3175,160.978241 L279.7935,163.502241 C277.7995,162.303241 275.6145,161.388241 273.2985,160.810241 L273.2985,157.241241 C273.2985,156.057241 272.3385,155.097241 271.1535,155.097241 L263.8055,155.097241 C262.6215,155.097241 261.6605,156.057241 261.6605,157.241241 L261.6605,160.810241 C259.3435,161.388241 257.1605,162.303241 255.1655,163.501241 L252.6415,160.978241 C252.2235,160.559241 251.6745,160.350241 251.1255,160.350241 C250.5765,160.350241 250.0275,160.559241 249.6095,160.978241 L244.4135,166.174241 C243.5755,167.011241 243.5755,168.369241 244.4135,169.206241 L246.9365,171.730241 C245.7385,173.725241 244.8235,175.908241 244.2455,178.225241 L240.6775,178.225241 C239.4935,178.225241 238.5325,179.186241 238.5325,180.370241 L238.5325,187.718241 C238.5325,188.902241 239.4935,189.863241 240.6775,189.863241 L244.2455,189.863241 C244.8235,192.180241 245.7385,194.363241 246.9365,196.358241 L244.4135,198.882241 C243.5755,199.719241 243.5755,201.077241 244.4135,201.914241 L249.6095,207.111241 C250.0275,207.529241 250.5765,207.738241 251.1255,207.738241 C251.6745,207.738241 252.2235,207.529241 252.6415,207.111241 L255.1655,204.586241 M339.8305,155.097241 C337.7705,155.097241 335.9585,155.579241 334.3935,156.541241 C332.8275,157.504241 331.3275,158.990241 329.8965,160.994241 L312.1765,188.431241 C311.6395,189.233241 310.9455,190.337241 310.0955,191.740241 C309.2445,193.144241 308.8205,194.407241 308.8205,195.529241 C308.8205,198.339241 311.4155,199.741241 316.6065,199.741241 L339.0245,199.741241 L339.0245,206.481241 C339.0245,210.734241 340.7235,212.859241 344.1265,212.859241 C348.1535,212.859241 350.1675,210.894241 350.1675,206.962241 L350.1675,199.741241 L352.7175,199.741241 C354.4165,199.741241 355.7145,199.281241 356.6105,198.358241 C357.5045,197.437241 357.9525,196.293241 357.9525,194.928241 C357.9525,193.646241 357.5045,192.522241 356.6105,191.559241 C355.7145,190.596241 354.4165,190.115241 352.7175,190.115241 L350.1675,190.115241 L350.1675,166.047241 C350.1675,162.118241 349.2705,159.309241 347.4815,157.624241 C345.6905,155.940241 343.1395,155.097241 339.8305,155.097241 M215.8255,155.097241 C213.7665,155.097241 211.9545,155.579241 210.3895,156.541241 C208.8225,157.504241 207.3235,158.990241 205.8925,160.994241 L188.1725,188.431241 C187.6355,189.233241 186.9415,190.337241 186.0925,191.740241 C185.2405,193.144241 184.8165,194.407241 184.8165,195.529241 C184.8165,198.339241 187.4105,199.741241 192.6025,199.741241 L215.0205,199.741241 L215.0205,206.481241 C215.0205,210.734241 216.7195,212.859241 220.1215,212.859241 C224.1495,212.859241 226.1625,210.894241 226.1625,206.962241 L226.1625,199.741241 L228.7135,199.741241 C230.4125,199.741241 231.7105,199.281241 232.6065,198.358241 C233.4995,197.437241 233.9485,196.293241 233.9485,194.928241 C233.9485,193.646241 233.4995,192.522241 232.6065,191.559241 C231.7105,190.596241 230.4125,190.115241 228.7135,190.115241 L226.1625,190.115241 L226.1625,166.047241 C226.1625,162.118241 225.2665,159.309241 223.4775,157.624241 C221.6865,155.940241 219.1355,155.097241 215.8255,155.097241 M267.4795,198.539241 C259.4735,198.539241 252.9845,192.049241 252.9845,184.044241 C252.9845,176.038241 259.4735,169.549241 267.4795,169.549241 C275.4855,169.549241 281.9745,176.038241 281.9745,184.044241 C281.9745,192.049241 275.4855,198.539241 267.4795,198.539241 M339.0245,190.115241 L323.4525,190.115241 L339.0245,165.326241 L339.0245,190.115241 M215.0205,190.115241 L199.4485,190.115241 L215.0205,165.326241 L215.0205,190.115241" id="Fill-8" fill="#CDE0FC"></path>
                <path d="M192.8805,60.8012408 L101.7385,60.8012408 C98.1105,60.8012408 95.1695,57.8612408 95.1695,54.2332408 C95.1695,50.6052408 98.1105,47.6642408 101.7385,47.6642408 L192.8805,47.6642408 C196.5085,47.6642408 199.4485,50.6052408 199.4485,54.2332408 C199.4485,57.8612408 196.5085,60.8012408 192.8805,60.8012408" id="Fill-9" fill="#FFFFFE"></path>
                <path d="M395.4335,39.6942408 L304.2915,39.6942408 C300.6645,39.6942408 297.7225,36.7542408 297.7225,33.1262408 C297.7225,29.4982408 300.6645,26.5572408 304.2915,26.5572408 L395.4335,26.5572408 C399.0605,26.5572408 402.0025,29.4982408 402.0025,33.1262408 C402.0025,36.7542408 399.0605,39.6942408 395.4335,39.6942408" id="Fill-10" fill="#FFFFFE"></path>
                <path d="M476.5265,136.113241 L385.3855,136.113241 C381.7575,136.113241 378.8165,133.172241 378.8165,129.545241 L378.8165,129.544241 C378.8165,125.917241 381.7575,122.976241 385.3855,122.976241 L476.5265,122.976241 C480.1545,122.976241 483.0955,125.917241 483.0955,129.544241 L483.0955,129.545241 C483.0955,133.172241 480.1545,136.113241 476.5265,136.113241" id="Fill-11" fill="#FFFFFE"></path>
                <path d="M514.6315,157.019241 L423.4895,157.019241 C419.8615,157.019241 416.9215,154.078241 416.9215,150.451241 C416.9215,146.823241 419.8615,143.883241 423.4895,143.883241 L514.6315,143.883241 C518.2595,143.883241 521.1995,146.823241 521.1995,150.451241 C521.1995,154.078241 518.2595,157.019241 514.6315,157.019241" id="Fill-12" fill="#FFFFFE"></path>
                <path d="M198.9845,122.277241 L107.8425,122.277241 C104.2155,122.277241 101.2745,119.336241 101.2745,115.708241 C101.2745,112.081241 104.2155,109.140241 107.8425,109.140241 L198.9845,109.140241 C202.6125,109.140241 205.5535,112.081241 205.5535,115.708241 C205.5535,119.336241 202.6125,122.277241 198.9845,122.277241" id="Fill-13" fill="#FFFFFE"></path>
                <path d="M426.7615,266.869241 L418.8165,266.869241 C418.2645,266.869241 417.8165,267.317241 417.8165,267.869241 C417.8165,268.422241 418.2645,268.869241 418.8165,268.869241 L426.7615,268.869241 C427.3135,268.869241 427.7615,268.422241 427.7615,267.869241 C427.7615,267.317241 427.3135,266.869241 426.7615,266.869241 Z M410.8715,266.869241 L402.9275,266.869241 C402.3745,266.869241 401.9275,267.317241 401.9275,267.869241 C401.9275,268.422241 402.3745,268.869241 402.9275,268.869241 L410.8715,268.869241 C411.4245,268.869241 411.8715,268.422241 411.8715,267.869241 C411.8715,267.317241 411.4245,266.869241 410.8715,266.869241 Z M394.9825,266.869241 L387.0385,266.869241 C386.4855,266.869241 386.0385,267.317241 386.0385,267.869241 C386.0385,268.422241 386.4855,268.869241 387.0385,268.869241 L394.9825,268.869241 C395.5345,268.869241 395.9825,268.422241 395.9825,267.869241 C395.9825,267.317241 395.5345,266.869241 394.9825,266.869241 Z M379.0935,266.869241 L371.1485,266.869241 C370.5965,266.869241 370.1485,267.317241 370.1485,267.869241 C370.1485,268.422241 370.5965,268.869241 371.1485,268.869241 L379.0935,268.869241 C379.6455,268.869241 380.0935,268.422241 380.0935,267.869241 C380.0935,267.317241 379.6455,266.869241 379.0935,266.869241 Z M363.2045,266.869241 L355.2595,266.869241 C354.7075,266.869241 354.2595,267.317241 354.2595,267.869241 C354.2595,268.422241 354.7075,268.869241 355.2595,268.869241 L363.2045,268.869241 C363.7565,268.869241 364.2045,268.422241 364.2045,267.869241 C364.2045,267.317241 363.7565,266.869241 363.2045,266.869241 Z M347.3155,266.869241 L339.3705,266.869241 C338.8185,266.869241 338.3705,267.317241 338.3705,267.869241 C338.3705,268.422241 338.8185,268.869241 339.3705,268.869241 L347.3155,268.869241 C347.8675,268.869241 348.3155,268.422241 348.3155,267.869241 C348.3155,267.317241 347.8675,266.869241 347.3155,266.869241 Z M331.4265,266.869241 L323.4815,266.869241 C322.9295,266.869241 322.4815,267.317241 322.4815,267.869241 C322.4815,268.422241 322.9295,268.869241 323.4815,268.869241 L331.4265,268.869241 C331.9785,268.869241 332.4265,268.422241 332.4265,267.869241 C332.4265,267.317241 331.9785,266.869241 331.4265,266.869241 Z M315.5365,266.869241 L307.5925,266.869241 C307.0395,266.869241 306.5925,267.317241 306.5925,267.869241 C306.5925,268.422241 307.0395,268.869241 307.5925,268.869241 L315.5365,268.869241 C316.0895,268.869241 316.5365,268.422241 316.5365,267.869241 C316.5365,267.317241 316.0895,266.869241 315.5365,266.869241 Z M299.6475,266.869241 L291.7035,266.869241 C291.1505,266.869241 290.7035,267.317241 290.7035,267.869241 C290.7035,268.422241 291.1505,268.869241 291.7035,268.869241 L299.6475,268.869241 C300.1995,268.869241 300.6475,268.422241 300.6475,267.869241 C300.6475,267.317241 300.1995,266.869241 299.6475,266.869241 Z M283.7585,266.869241 L275.8135,266.869241 C275.2615,266.869241 274.8135,267.317241 274.8135,267.869241 C274.8135,268.422241 275.2615,268.869241 275.8135,268.869241 L283.7585,268.869241 C284.3105,268.869241 284.7585,268.422241 284.7585,267.869241 C284.7585,267.317241 284.3105,266.869241 283.7585,266.869241 Z M267.8695,266.869241 L259.9245,266.869241 C259.3725,266.869241 258.9245,267.317241 258.9245,267.869241 C258.9245,268.422241 259.3725,268.869241 259.9245,268.869241 L267.8695,268.869241 C268.4215,268.869241 268.8695,268.422241 268.8695,267.869241 C268.8695,267.317241 268.4215,266.869241 267.8695,266.869241 Z M251.9805,266.869241 L244.0355,266.869241 C243.4835,266.869241 243.0355,267.317241 243.0355,267.869241 C243.0355,268.422241 243.4835,268.869241 244.0355,268.869241 L251.9805,268.869241 C252.5325,268.869241 252.9805,268.422241 252.9805,267.869241 C252.9805,267.317241 252.5325,266.869241 251.9805,266.869241 Z M236.0915,266.869241 L228.1465,266.869241 C227.5945,266.869241 227.1465,267.317241 227.1465,267.869241 C227.1465,268.422241 227.5945,268.869241 228.1465,268.869241 L236.0915,268.869241 C236.6435,268.869241 237.0915,268.422241 237.0915,267.869241 C237.0915,267.317241 236.6435,266.869241 236.0915,266.869241 Z M220.2015,266.869241 L212.2575,266.869241 C211.7045,266.869241 211.2575,267.317241 211.2575,267.869241 C211.2575,268.422241 211.7045,268.869241 212.2575,268.869241 L220.2015,268.869241 C220.7545,268.869241 221.2015,268.422241 221.2015,267.869241 C221.2015,267.317241 220.7545,266.869241 220.2015,266.869241 Z M204.3125,266.869241 L196.3685,266.869241 C195.8155,266.869241 195.3685,267.317241 195.3685,267.869241 C195.3685,268.422241 195.8155,268.869241 196.3685,268.869241 L204.3125,268.869241 C204.8645,268.869241 205.3125,268.422241 205.3125,267.869241 C205.3125,267.317241 204.8645,266.869241 204.3125,266.869241 Z M188.4235,266.869241 L180.4785,266.869241 C179.9265,266.869241 179.4785,267.317241 179.4785,267.869241 C179.4785,268.422241 179.9265,268.869241 180.4785,268.869241 L188.4235,268.869241 C188.9755,268.869241 189.4235,268.422241 189.4235,267.869241 C189.4235,267.317241 188.9755,266.869241 188.4235,266.869241 Z M172.5345,266.869241 L164.5895,266.869241 C164.0375,266.869241 163.5895,267.317241 163.5895,267.869241 C163.5895,268.422241 164.0375,268.869241 164.5895,268.869241 L172.5345,268.869241 C173.0865,268.869241 173.5345,268.422241 173.5345,267.869241 C173.5345,267.317241 173.0865,266.869241 172.5345,266.869241 Z M156.6455,266.869241 L148.7005,266.869241 C148.1485,266.869241 147.7005,267.317241 147.7005,267.869241 C147.7005,268.422241 148.1485,268.869241 148.7005,268.869241 L156.6455,268.869241 C157.1975,268.869241 157.6455,268.422241 157.6455,267.869241 C157.6455,267.317241 157.1975,266.869241 156.6455,266.869241 Z M140.7565,266.869241 L132.8115,266.869241 C132.2595,266.869241 131.8115,267.317241 131.8115,267.869241 C131.8115,268.422241 132.2595,268.869241 132.8115,268.869241 L140.7565,268.869241 C141.3085,268.869241 141.7565,268.422241 141.7565,267.869241 C141.7565,267.317241 141.3085,266.869241 140.7565,266.869241 L140.7565,266.869241 Z" id="Fill-15" fill="#6C8CB2"></path>
                <path d="M84.4655,59.2512408 L75.4695,68.2462408 C75.0795,68.6372408 75.0795,69.2702408 75.4695,69.6602408 C75.8605,70.0512408 76.4935,70.0512408 76.8845,69.6602408 L85.8795,60.6652408 C86.2705,60.2742408 86.2705,59.6412408 85.8795,59.2512408 C85.4895,58.8602408 84.8565,58.8602408 84.4655,59.2512408" id="Fill-18" fill="#6C8CB2"></path>
                <path d="M75.4695,60.6652408 L84.4655,69.6602408 C84.8565,70.0512408 85.4895,70.0512408 85.8795,69.6602408 C86.2705,69.2702408 86.2705,68.6372408 85.8795,68.2462408 L76.8845,59.2512408 C76.4935,58.8602408 75.8605,58.8602408 75.4695,59.2512408 C75.0795,59.6412408 75.0795,60.2742408 75.4695,60.6652408" id="Fill-19" fill="#6C8CB2"></path>
                <path d="M9.2885,242.823241 L0.2925,251.818241 C-0.0975,252.209241 -0.0975,252.842241 0.2925,253.233241 C0.6835,253.623241 1.3165,253.623241 1.7065,253.233241 L10.7025,244.238241 C11.0935,243.847241 11.0935,243.214241 10.7025,242.823241 C10.3125,242.433241 9.6785,242.433241 9.2885,242.823241" id="Fill-20" fill="#6C8CB2"></path>
                <path d="M0.2925,244.238241 L9.2885,253.233241 C9.6785,253.623241 10.3125,253.623241 10.7025,253.233241 C11.0935,252.842241 11.0935,252.209241 10.7025,251.818241 L1.7065,242.823241 C1.3165,242.433241 0.6835,242.433241 0.2925,242.823241 C-0.0975,243.214241 -0.0975,243.847241 0.2925,244.238241" id="Fill-21" fill="#6C8CB2"></path>
                <path d="M243.6775,37.4662408 L234.6815,46.4612408 C234.2915,46.8522408 234.2915,47.4852408 234.6815,47.8752408 C235.0725,48.2662408 235.7055,48.2662408 236.0965,47.8752408 L245.0915,38.8802408 C245.4825,38.4902408 245.4825,37.8572408 245.0915,37.4662408 C244.7015,37.0752408 244.0675,37.0752408 243.6775,37.4662408" id="Fill-22" fill="#6C8CB2"></path>
                <path d="M234.6815,38.8802408 L243.6775,47.8752408 C244.0675,48.2662408 244.7015,48.2662408 245.0915,47.8752408 C245.4825,47.4852408 245.4825,46.8522408 245.0915,46.4612408 L236.0965,37.4662408 C235.7055,37.0752408 235.0725,37.0752408 234.6815,37.4662408 C234.2915,37.8572408 234.2915,38.4902408 234.6815,38.8802408" id="Fill-23" fill="#6C8CB2"></path>
                <path d="M516.9875,213.514241 L507.9915,222.509241 C507.6005,222.899241 507.6005,223.533241 507.9915,223.923241 C508.3815,224.314241 509.0145,224.314241 509.4055,223.923241 L518.4015,214.928241 C518.7925,214.538241 518.7925,213.904241 518.4015,213.514241 C518.0115,213.123241 517.3785,213.123241 516.9875,213.514241" id="Fill-24" fill="#6C8CB2"></path>
                <path d="M507.9915,214.928241 L516.9875,223.923241 C517.3785,224.314241 518.0115,224.314241 518.4015,223.923241 C518.7925,223.533241 518.7925,222.899241 518.4015,222.509241 L509.4055,213.514241 C509.0145,213.123241 508.3815,213.123241 507.9915,213.514241 C507.6005,213.904241 507.6005,214.538241 507.9915,214.928241" id="Fill-25" fill="#6C8CB2"></path>
                <path d="M505.7115,59.2512408 L496.7155,68.2462408 C496.3255,68.6372408 496.3255,69.2702408 496.7165,69.6602408 C497.1065,70.0512408 497.7395,70.0512408 498.1305,69.6602408 L507.1255,60.6652408 C507.5155,60.2742408 507.5155,59.6412408 507.1255,59.2512408 C506.7345,58.8602408 506.1015,58.8602408 505.7115,59.2512408" id="Fill-26" fill="#6C8CB2"></path>
                <path d="M496.7155,60.6652408 L505.7115,69.6602408 C506.1015,70.0512408 506.7345,70.0512408 507.1255,69.6602408 C507.5155,69.2702408 507.5155,68.6372408 507.1255,68.2462408 L498.1305,59.2512408 C497.7395,58.8602408 497.1065,58.8602408 496.7165,59.2512408 C496.3255,59.6412408 496.3255,60.2742408 496.7155,60.6652408" id="Fill-27" fill="#6C8CB2"></path>
                <path d="M422.4965,4.3752408 L413.5015,13.3702408 C413.1105,13.7602408 413.1105,14.3932408 413.5015,14.7842408 C413.8915,15.1752408 414.5245,15.1752408 414.9155,14.7842408 L423.9105,5.7892408 C424.3015,5.3982408 424.3015,4.7652408 423.9105,4.3752408 C423.5195,3.9842408 422.8865,3.9842408 422.4965,4.3752408" id="Fill-28" fill="#6C8CB2"></path>
                <path d="M413.5015,5.7892408 L422.4965,14.7842408 C422.8865,15.1752408 423.5195,15.1752408 423.9105,14.7842408 C424.3015,14.3932408 424.3015,13.7602408 423.9105,13.3702408 L414.9155,4.3752408 C414.5245,3.9842408 413.8915,3.9842408 413.5015,4.3752408 C413.1105,4.7652408 413.1105,5.3982408 413.5015,5.7892408" id="Fill-29" fill="#6C8CB2"></path>
                <path d="M46.0625,128.629241 L45.0625,128.629241 C45.0615,129.917241 44.5435,131.074241 43.6995,131.919241 C42.8545,132.763241 41.6975,133.282241 40.4085,133.282241 C39.1205,133.282241 37.9645,132.763241 37.1185,131.919241 C36.2755,131.074241 35.7565,129.917241 35.7565,128.629241 C35.7565,127.341241 36.2755,126.184241 37.1185,125.339241 C37.9645,124.496241 39.1205,123.977241 40.4085,123.976241 C41.6975,123.977241 42.8545,124.496241 43.6995,125.339241 C44.5435,126.184241 45.0615,127.341241 45.0625,128.629241 L47.0625,128.629241 C47.0615,124.954241 44.0845,121.977241 40.4085,121.976241 C36.7345,121.977241 33.7565,124.954241 33.7565,128.629241 C33.7565,132.304241 36.7345,135.282241 40.4085,135.282241 C44.0845,135.282241 47.0615,132.304241 47.0625,128.629241 L46.0625,128.629241" id="Fill-30" fill="#6C8CB2"></path>
                <path d="M71.7575,202.958241 L71.0975,203.709241 C72.1455,204.632241 72.6775,205.912241 72.6795,207.207241 C72.6785,208.301241 72.2995,209.390241 71.5215,210.277241 C70.5995,211.325241 69.3195,211.857241 68.0235,211.859241 C66.9295,211.858241 65.8405,211.479241 64.9535,210.700241 C63.9055,209.778241 63.3735,208.499241 63.3724961,207.203241 C63.3735,206.109241 63.7515,205.020241 64.5305,204.133241 C65.4525,203.085241 66.7325,202.553241 68.0285,202.552237 C69.1215,202.553241 70.2115,202.931241 71.0975,203.709241 L72.4175,202.207241 C71.1565,201.099241 69.5845,200.551241 68.0285,200.552237 C66.1845,200.550241 64.3415,201.318241 63.0275,202.813241 C61.9195,204.074241 61.3715,205.646241 61.3724961,207.203241 C61.3705,209.046241 62.1385,210.890241 63.6335,212.203241 C64.8945,213.311241 66.4665,213.859242 68.0235,213.859242 C69.8665,213.860241 71.7105,213.092241 73.0235,211.597241 C74.1315,210.336241 74.6805,208.764241 74.6795014,207.207241 C74.6805,205.364241 73.9125,203.520241 72.4175,202.207241 L71.7575,202.958241" id="Fill-31" fill="#6C8CB2"></path>
                <path d="M585.6375,253.681241 L584.6375,253.681241 C584.6375,254.969241 584.1185,256.126241 583.2755,256.971241 C582.4305,257.815241 581.2735,258.334241 579.9855,258.334241 C578.6965,258.334241 577.5405,257.815241 576.6945,256.971241 C575.8515,256.126241 575.3325,254.969241 575.3325,253.681241 C575.3325,252.393241 575.8515,251.236241 576.6945,250.391241 C577.5405,249.547241 578.6965,249.028241 579.9855,249.028241 C581.2735,249.028241 582.4305,249.547241 583.2755,250.390241 C584.1185,251.236241 584.6375,252.393241 584.6375,253.681241 L586.6375,253.681241 C586.6375,250.006241 583.6605,247.028241 579.9855,247.028241 C576.3095,247.028241 573.3325,250.006241 573.3325,253.681241 C573.3325,257.355241 576.3095,260.334241 579.9855,260.334241 C583.6605,260.334241 586.6375,257.355241 586.6375,253.681241 L585.6375,253.681241" id="Fill-32" fill="#6C8CB2"></path>
                <path d="M363.6055,57.9302408 L362.6055,57.9302408 C362.6055,59.2192408 362.0865,60.3762408 361.2435,61.2212408 C360.3975,62.0642408 359.2415,62.5832408 357.9525,62.5842408 C356.6645,62.5832408 355.5075,62.0642408 354.6625,61.2212408 C353.8195,60.3762408 353.3005,59.2192408 353.3005,57.9302408 C353.3005,56.6422408 353.8195,55.4852408 354.6625,54.6402408 C355.5075,53.7962408 356.6645,53.2782408 357.9525,53.2772408 C359.2415,53.2782408 360.3975,53.7962408 361.2435,54.6402408 C362.0865,55.4852408 362.6055,56.6422408 362.6055,57.9302408 L364.6055,57.9302408 C364.6055,54.2562408 361.6285,51.2782408 357.9525,51.2772408 C354.2775,51.2782408 351.3005,54.2562408 351.3005,57.9302408 C351.3005,61.6052408 354.2775,64.5832408 357.9525,64.5842408 C361.6285,64.5832408 364.6055,61.6052408 364.6055,57.9302408 L363.6055,57.9302408" id="Fill-33" fill="#6C8CB2"></path>
                <path d="M498.7985,152.018241 L497.7985,152.018241 C497.7975,153.306241 497.2785,154.463241 496.4355,155.308241 C495.5895,156.151241 494.4325,156.670241 493.1445,156.671241 C491.8565,156.670241 490.6995,156.151241 489.8545,155.308241 C489.0105,154.463241 488.4915,153.306241 488.4915,152.018241 C488.4915,150.730241 489.0105,149.573241 489.8545,148.727241 C490.6995,147.884241 491.8565,147.365241 493.1445,147.364241 C494.4325,147.365241 495.5895,147.884241 496.4355,148.727241 C497.2785,149.573241 497.7975,150.730241 497.7985,152.018241 L499.7985,152.018241 C499.7975,148.343241 496.8195,145.365241 493.1445,145.364241 C489.4705,145.365241 486.4925,148.343241 486.4915,152.018241 C486.4925,155.693241 489.4705,158.670241 493.1445,158.671241 C496.8195,158.670241 499.7975,155.693241 499.7985,152.018241 L498.7985,152.018241" id="Fill-35" fill="#6C8CB2"></path>
                <polyline id="Fill-40" fill="#6C8CB2" points="218.9255 191.478241 219.9255 191.478241 219.9255 163.216241 201.5445 192.478241 219.9255 192.478241 219.9255 191.478241 218.9255 191.478241 218.9255 190.478241 205.1625 190.478241 217.9255 170.160241 217.9255 191.478241 218.9255 191.478241 218.9255 190.478241 218.9255 191.478241"></polyline>
                <path d="M271.3845,199.769241 L271.3845,198.769241 C267.6545,198.768241 264.2875,197.260241 261.8425,194.816241 C259.3985,192.371241 257.8895,189.004241 257.8895,185.274241 C257.8895,181.544241 259.3985,178.177241 261.8425,175.731241 C264.2875,173.287241 267.6545,171.779241 271.3845,171.779241 C275.1145,171.779241 278.4815,173.287241 280.9275,175.731241 C283.3715,178.177241 284.8795,181.544241 284.8805,185.274241 C284.8795,189.004241 283.3715,192.371241 280.9275,194.816241 C278.4815,197.260241 275.1145,198.768241 271.3845,198.769241 L271.3845,200.769241 C279.9425,200.768241 286.8795,193.832241 286.8805,185.274241 C286.8795,176.716241 279.9425,169.779241 271.3845,169.779241 C262.8265,169.779241 255.8905,176.716241 255.8895,185.274241 C255.8905,193.832241 262.8265,200.768241 271.3845,200.769241 L271.3845,199.769241" id="Fill-41" fill="#6C8CB2"></path>
                <path d="M342.8335,191.478241 L343.8335,191.478241 L343.8335,163.216241 L325.4525,192.478241 L343.8335,192.478241 L343.8335,191.478241 L342.8335,191.478241 L342.8335,190.478241 L329.0705,190.478241 L341.8335,170.160241 L341.8335,191.478241 L342.8335,191.478241 L342.8335,190.478241 L342.8335,191.478241 Z M396.8115,213.221241 L360.0495,213.221241 C358.8575,213.222241 357.9425,213.102241 357.2725,212.896241 C356.7685,212.742241 356.4045,212.545241 356.1245,212.318241 C355.7115,211.975241 355.4445,211.550241 355.2505,210.895241 C355.0595,210.245241 354.9745,209.380241 354.9755,208.324241 L354.9755,202.104241 L356.5265,202.104241 C357.4655,202.104241 358.3295,201.977241 359.1085,201.701241 C359.8875,201.425241 360.5795,200.993241 361.1375,200.416241 C362.2105,199.322241 362.7715,197.873241 362.7615,196.290241 C362.7695,194.773241 362.2015,193.360241 361.1525,192.241241 C360.5965,191.642241 359.9035,191.189241 359.1215,190.901241 C358.3385,190.611241 357.4695,190.478241 356.5265,190.478241 L354.9755,190.478241 L354.9755,167.410241 C354.9755,165.369241 354.7445,163.586241 354.2565,162.053241 C353.7695,160.522241 353.0145,159.235241 351.9765,158.259241 C350.9685,157.309241 349.7455,156.602241 348.3475,156.142241 C346.9495,155.680241 345.3785,155.460241 343.6385,155.460241 C341.4255,155.458241 339.4105,155.984241 337.6785,157.052241 C335.9635,158.107241 334.3785,159.693241 332.8915,161.775241 L332.8775,161.794241 L315.1455,189.250241 L315.9855,189.793241 L315.1545,189.237241 C314.6035,190.060241 313.9035,191.174241 313.0495,192.584241 C312.1405,194.087241 311.6325,195.513241 311.6295,196.892241 C311.6275,197.746241 311.8325,198.563241 312.2645,199.260241 C312.9135,200.313241 314.0045,201.025241 315.3615,201.463241 C316.7275,201.904241 318.4005,202.102241 320.4155,202.104241 L341.8335,202.104241 L341.8335,207.843241 C341.8345,208.886241 341.7975,209.762241 341.6625,210.440241 C341.5615,210.951241 341.4125,211.342241 341.2065,211.652241 C340.8975,212.109241 340.4555,212.467241 339.5415,212.763241 C338.6335,213.052241 337.2815,213.223241 335.3945,213.221241 C330.4865,213.221241 321.9945,213.221241 314.7285,213.221241 C311.0965,213.221241 307.7705,213.221241 305.3525,213.221241 C302.9345,213.221241 301.4285,213.221241 301.4255,213.221241 L279.7525,213.221241 C279.3365,213.221241 279.0325,213.169241 278.8275,213.102241 C278.5175,212.993241 278.4305,212.893241 278.3455,212.764241 C278.2655,212.632241 278.2025,212.405241 278.2035,212.076241 L278.2035,208.508241 L277.2035,208.508241 L277.4455,209.478241 C279.8605,208.875241 282.1355,207.922241 284.2135,206.674241 L283.6985,205.817241 L282.9915,206.524241 L285.5155,209.047241 C286.1265,209.659241 286.9375,209.970241 287.7385,209.968241 C288.5405,209.970241 289.3505,209.659241 289.9625,209.047241 L295.1585,203.851241 C295.7705,203.240241 296.0805,202.429241 296.0795,201.628241 C296.0805,200.827241 295.7705,200.016241 295.1585,199.405241 L292.6335,196.881241 L291.9275,197.588241 L292.7845,198.103241 C294.0325,196.024241 294.9865,193.749241 295.5885,191.334241 L294.6185,191.092241 L294.6185,192.092241 L298.1865,192.092241 C299.9235,192.091241 301.3305,190.685241 301.3315,188.948241 L301.3315,181.600241 C301.3305,179.863241 299.9235,178.456241 298.1865,178.455241 L294.6185,178.455241 L294.6185,179.455241 L295.5885,179.213241 C294.9865,176.799241 294.0325,174.523241 292.7845,172.445241 L291.9275,172.960241 L292.6345,173.667241 L295.1585,171.143241 C295.7705,170.531241 296.0805,169.721241 296.0795,168.920241 C296.0805,168.118241 295.7705,167.308241 295.1585,166.697241 L289.9625,161.500241 C289.3505,160.888241 288.5395,160.578241 287.7385,160.579241 C286.9375,160.578241 286.1265,160.888241 285.5155,161.500241 L282.9915,164.024241 L283.6985,164.731241 L284.2135,163.874241 C282.1355,162.625241 279.8605,161.672241 277.4455,161.070241 L277.2035,162.040241 L278.2035,162.040241 L278.2035,158.471241 C278.2025,156.735241 276.7965,155.328241 275.0585,155.327241 L267.7105,155.327241 C265.9735,155.328241 264.5665,156.735241 264.5665,158.471241 L264.5665,162.040241 L265.5665,162.040241 L265.3235,161.070241 C262.9095,161.672241 260.6345,162.626241 258.5555,163.874241 L259.0705,164.731241 L259.7775,164.024241 L257.2535,161.500241 C256.6425,160.888241 255.8315,160.578241 255.0305,160.579241 C254.2295,160.578241 253.4185,160.888241 252.8075,161.500241 L247.6115,166.696241 C246.9985,167.308241 246.6885,168.118241 246.6905,168.920241 C246.6885,169.721241 246.9985,170.532241 247.6115,171.143241 L250.1345,173.667241 L250.8425,172.960241 L249.9845,172.445241 C248.7365,174.523241 247.7835,176.799241 247.1805,179.213241 L248.1505,179.455241 L248.1505,178.455241 L244.5825,178.455241 C242.8455,178.456241 241.4385,179.863241 241.4385,181.600241 L241.4385,188.948241 C241.4385,190.685241 242.8455,192.091241 244.5825,192.092241 L248.1505,192.092241 L248.1505,191.092241 L247.1805,191.334241 C247.7835,193.749241 248.7365,196.024241 249.9845,198.103241 L250.8425,197.588241 L250.1355,196.881241 L247.6115,199.404241 C246.9985,200.016241 246.6885,200.827241 246.6905,201.628241 C246.6885,202.429241 246.9995,203.240241 247.6115,203.851241 L252.8075,209.047241 C253.4185,209.659241 254.2295,209.970241 255.0305,209.968241 C255.8325,209.970241 256.6425,209.659241 257.2535,209.047241 L259.7775,206.524241 L259.0705,205.817241 L258.5555,206.674241 C260.6345,207.922241 262.9095,208.875241 265.3235,209.478241 L265.5665,208.508241 L264.5665,208.508241 L264.5665,212.076241 C264.5615,212.327241 264.5125,212.431241 264.4365,212.539241 C264.3285,212.694241 264.0305,212.895241 263.4955,213.027241 C262.9705,213.162241 262.2605,213.222241 261.4875,213.221241 L236.1415,213.221241 C234.9505,213.222241 234.0345,213.102241 233.3645,212.896241 C232.8605,212.742241 232.4965,212.545241 232.2165,212.318241 C231.8035,211.975241 231.5365,211.550241 231.3415,210.895241 C231.1515,210.245241 231.0665,209.380241 231.0675,208.324241 L231.0675,202.104241 L232.6185,202.104241 C233.5575,202.104241 234.4215,201.977241 235.2005,201.701241 C235.9795,201.425241 236.6715,200.993241 237.2295,200.416241 C238.3035,199.322241 238.8625,197.873241 238.8535,196.290241 C238.8615,194.773241 238.2945,193.360241 237.2445,192.241241 L237.2435,192.240241 C236.6885,191.642241 235.9965,191.189241 235.2135,190.901241 C234.4305,190.611241 233.5615,190.478241 232.6185,190.478241 L231.0675,190.478241 L231.0675,167.410241 C231.0675,165.369241 230.8375,163.586241 230.3495,162.053241 C229.8625,160.522241 229.1065,159.235241 228.0685,158.259241 C227.0605,157.309241 225.8375,156.602241 224.4395,156.142241 C223.0415,155.680241 221.4705,155.460241 219.7315,155.460241 C217.5175,155.458241 215.5025,155.984241 213.7705,157.052241 C212.0555,158.107241 210.4705,159.693241 208.9835,161.775241 L208.9705,161.794241 L191.2375,189.250241 L192.0775,189.793241 L191.2465,189.237241 C190.6955,190.060241 189.9965,191.174241 189.1425,192.584241 C188.2325,194.087241 187.7245,195.513241 187.7215,196.892241 C187.7195,197.746241 187.9255,198.563241 188.3565,199.260241 C189.0065,200.313241 190.0965,201.025241 191.4545,201.463241 C192.8195,201.904241 194.4935,202.102241 196.5075,202.104241 L217.9255,202.104241 L217.9255,207.843241 C217.9265,208.886241 217.8895,209.762241 217.7545,210.440241 C217.6535,210.951241 217.5045,211.342241 217.2995,211.652241 C216.9895,212.109241 216.5475,212.467241 215.6335,212.763241 C214.7265,213.052241 213.3745,213.223241 211.4875,213.221241 C206.5785,213.221241 194.3985,213.221241 183.4455,213.221241 C177.9695,213.221241 172.7995,213.221241 168.9985,213.221241 C165.1985,213.221241 162.7735,213.221241 162.7665,213.221241 L162.7665,215.221241 C162.7735,215.221241 165.1985,215.221241 168.9985,215.221241 C180.4005,215.221241 204.1245,215.221241 211.4875,215.221241 C213.2665,215.220241 214.6705,215.087241 215.8175,214.790241 C216.6765,214.567241 217.3995,214.245241 217.9895,213.796241 C218.8825,213.126241 219.3995,212.173241 219.6415,211.168241 C219.8895,210.155241 219.9235,209.062241 219.9255,207.843241 L219.9255,200.104241 L196.5075,200.104241 C194.0015,200.109241 192.1915,199.748241 191.1435,199.172241 C190.6165,198.885241 190.2795,198.566241 190.0595,198.211241 C189.8425,197.854241 189.7245,197.442241 189.7215,196.892241 C189.7185,196.026241 190.0595,194.925241 190.8525,193.620241 C191.6975,192.225241 192.3855,191.131241 192.9095,190.349241 L192.9135,190.343241 L210.6375,162.899241 L209.7975,162.356241 L210.6105,162.937241 C211.9865,161.010241 213.4005,159.626241 214.8185,158.756241 C216.2155,157.898241 217.8255,157.462241 219.7315,157.460241 C221.3015,157.460241 222.6605,157.660241 223.8125,158.041241 C224.9665,158.423241 225.9145,158.979241 226.6985,159.715241 C227.4485,160.423241 228.0355,161.383241 228.4435,162.660241 C228.8505,163.935241 229.0685,165.521241 229.0675,167.410241 L229.0675,192.478241 L232.6185,192.478241 C233.3745,192.478241 234.0045,192.585241 234.5185,192.776241 C235.0345,192.968241 235.4385,193.238241 235.7795,193.602241 L235.7785,193.601241 C236.5165,194.408241 236.8455,195.243241 236.8535,196.290241 C236.8445,197.438241 236.5075,198.276241 235.7935,199.024241 C235.4555,199.371241 235.0505,199.630241 234.5315,199.816241 C234.0135,200.000241 233.3785,200.104241 232.6185,200.104241 L229.0675,200.104241 L229.0675,208.324241 C229.0685,209.351241 229.1335,210.283241 229.3375,211.137241 C229.4915,211.777241 229.7265,212.377241 230.0835,212.911241 C230.6165,213.716241 231.4285,214.330241 232.4365,214.693241 C233.4475,215.062241 234.6555,215.220241 236.1415,215.221241 L261.4875,215.221241 C262.6485,215.216241 263.7665,215.126241 264.7435,214.714241 C265.2295,214.505241 265.6925,214.197241 266.0375,213.738241 C266.3845,213.282241 266.5705,212.688241 266.5665,212.076241 L266.5665,207.727241 L265.8085,207.538241 C263.5885,206.983241 261.4965,206.107241 259.5855,204.959241 L258.9155,204.557241 L255.8395,207.633241 C255.6135,207.859241 255.3265,207.967241 255.0305,207.968241 C254.7345,207.967241 254.4475,207.859241 254.2215,207.633241 L249.0255,202.437241 C248.7995,202.211241 248.6915,201.924241 248.6905,201.628241 C248.6915,201.332241 248.7995,201.045241 249.0255,200.818241 L252.1015,197.743241 L251.6995,197.073241 C250.5515,195.162241 249.6755,193.070241 249.1205,190.850241 L248.9315,190.092241 L244.5825,190.092241 C243.9505,190.091241 243.4395,189.579241 243.4385,188.948241 L243.4385,181.600241 C243.4395,180.968241 243.9505,180.456241 244.5825,180.455241 L248.9315,180.455241 L249.1205,179.698241 C249.6755,177.477241 250.5515,175.386241 251.6995,173.475241 L252.1015,172.805241 L249.0255,169.729241 C248.7995,169.503241 248.6915,169.216241 248.6905,168.920241 C248.6915,168.624241 248.7995,168.337241 249.0255,168.111241 L254.2215,162.914241 C254.4475,162.689241 254.7345,162.580241 255.0305,162.579241 C255.3265,162.580241 255.6135,162.689241 255.8395,162.914241 L258.9155,165.991241 L259.5855,165.588241 C261.4975,164.440241 263.5885,163.564241 265.8085,163.010241 L266.5665,162.821241 L266.5665,158.471241 C266.5675,157.840241 267.0785,157.328241 267.7105,157.327241 L275.0585,157.327241 C275.6905,157.328241 276.2025,157.840241 276.2035,158.471241 L276.2035,162.821241 L276.9615,163.010241 C279.1815,163.564241 281.2725,164.440241 283.1835,165.588241 L283.8535,165.991241 L286.9295,162.914241 C287.1555,162.689241 287.4425,162.580241 287.7385,162.579241 C288.0345,162.580241 288.3215,162.689241 288.5485,162.915241 L293.7445,168.111241 C293.9695,168.336241 294.0775,168.623241 294.0795,168.920241 C294.0775,169.216241 293.9695,169.503241 293.7445,169.729241 L290.6675,172.805241 L291.0695,173.475241 C292.2175,175.386241 293.0945,177.477241 293.6485,179.697241 L293.8375,180.455241 L298.1865,180.455241 C298.8185,180.456241 299.3305,180.968241 299.3315,181.600241 L299.3315,188.948241 C299.3305,189.579241 298.8185,190.091241 298.1865,190.092241 L293.8375,190.092241 L293.6485,190.850241 C293.0945,193.070241 292.2175,195.162241 291.0695,197.073241 L290.6675,197.743241 L293.7445,200.819241 C293.9695,201.045241 294.0775,201.332241 294.0795,201.628241 C294.0775,201.924241 293.9695,202.211241 293.7445,202.437241 L288.5485,207.633241 C288.3215,207.859241 288.0345,207.967241 287.7385,207.968241 C287.4425,207.967241 287.1565,207.859241 286.9305,207.633241 L283.8525,204.557241 L283.1835,204.959241 C281.2735,206.107241 279.1815,206.983241 276.9605,207.538241 L276.2035,207.727241 L276.2035,212.076241 C276.2035,212.451241 276.2465,212.837241 276.3715,213.221241 C276.5525,213.797241 276.9615,214.366241 277.5625,214.714241 C278.1625,215.068241 278.8905,215.220241 279.7525,215.221241 L301.4255,215.221241 C301.4285,215.221241 302.9345,215.221241 305.3525,215.221241 C312.6055,215.221241 328.0325,215.221241 335.3945,215.221241 C337.1745,215.220241 338.5775,215.087241 339.7255,214.790241 C340.5845,214.567241 341.3065,214.245241 341.8965,213.796241 C342.7905,213.126241 343.3065,212.173241 343.5485,211.168241 C343.7975,210.155241 343.8315,209.062241 343.8335,207.843241 L343.8335,200.104241 L320.4155,200.104241 C317.9085,200.109241 316.0985,199.748241 315.0515,199.172241 C314.5235,198.885241 314.1865,198.565241 313.9675,198.211241 C313.7495,197.854241 313.6315,197.442241 313.6295,196.892241 C313.6265,196.027241 313.9675,194.926241 314.7605,193.620241 C315.6045,192.225241 316.2935,191.131241 316.8165,190.349241 L316.8205,190.343241 L334.5455,162.899241 L333.7055,162.356241 L334.5195,162.937241 C335.8935,161.010241 337.3085,159.626241 338.7265,158.755241 C340.1235,157.898241 341.7335,157.462241 343.6385,157.460241 C345.2095,157.460241 346.5685,157.660241 347.7205,158.041241 C348.8745,158.423241 349.8225,158.979241 350.6065,159.715241 C351.3565,160.422241 351.9435,161.383241 352.3515,162.660241 C352.7585,163.935241 352.9765,165.521241 352.9755,167.410241 L352.9755,192.478241 L356.5265,192.478241 C357.2825,192.478241 357.9115,192.585241 358.4265,192.776241 C358.9415,192.968241 359.3465,193.238241 359.6865,193.602241 C360.4235,194.408241 360.7545,195.243241 360.7625,196.290241 C360.7525,197.438241 360.4145,198.276241 359.7015,199.024241 C359.3635,199.371241 358.9585,199.630241 358.4395,199.816241 C357.9205,200.000241 357.2865,200.104241 356.5265,200.104241 L352.9755,200.104241 L352.9755,208.324241 C352.9765,209.351241 353.0415,210.283241 353.2455,211.137241 C353.3995,211.777241 353.6345,212.377241 353.9915,212.911241 C354.5245,213.716241 355.3355,214.330241 356.3445,214.693241 C357.3555,215.062241 358.5635,215.220241 360.0495,215.221241 L396.8115,215.221241 L396.8115,213.221241 L396.8115,213.221241 Z" id="Fill-43" fill="#6C8CB2"></path>
                <path d="M418.7055,267.867241 L418.7055,266.867241 L141.8725,266.867241 L141.8725,93.2572408 C141.8735,90.0672408 143.1635,87.1882408 145.2535,85.0962408 C147.3445,83.0062408 150.2235,81.7172408 153.4135,81.7162408 L406.1645,81.7162408 C409.3545,81.7172408 412.2335,83.0062408 414.3255,85.0962408 C416.4155,87.1882408 417.7045,90.0672408 417.7055,93.2572408 L417.7055,267.867241 L418.7055,267.867241 L418.7055,266.867241 L418.7055,267.867241 L419.7055,267.867241 L419.7055,93.2572408 C419.7055,85.7782408 413.6435,79.7162408 406.1645,79.7162408 L153.4135,79.7162408 C145.9345,79.7162408 139.8725,85.7782408 139.8725,93.2572408 L139.8725,268.867241 L419.7055,268.867241 L419.7055,267.867241 L418.7055,267.867241" id="Fill-44" fill="#6C8CB2"></path>
                <polyline id="Fill-45" fill="#6C8CB2" points="406.1645 255.998241 406.1645 254.998241 154.4135 254.998241 154.4135 93.3922408 405.1645 93.3922408 405.1645 255.998241 406.1645 255.998241 406.1645 254.998241 406.1645 255.998241 407.1645 255.998241 407.1645 91.3922408 152.4135 91.3922408 152.4135 256.998241 407.1645 256.998241 407.1645 255.998241 406.1645 255.998241"></polyline>
                <polyline id="Fill-46" fill="#6C8CB2" points="452.5645 280.024241 452.5645 279.024241 108.0135 279.024241 108.0135 268.867241 451.5645 268.867241 451.5645 280.024241 452.5645 280.024241 452.5645 279.024241 452.5645 280.024241 453.5645 280.024241 453.5645 266.867241 106.0135 266.867241 106.0135 281.024241 453.5645 281.024241 453.5645 280.024241 452.5645 280.024241"></polyline>
                <path d="M437.2525,287.816241 L437.2525,286.816241 L122.3255,286.816241 C119.1075,286.816241 115.9805,285.742241 113.4405,283.763241 L109.9245,281.024241 L449.6535,281.024241 L446.1375,283.763241 C443.5985,285.741241 440.4705,286.816241 437.2525,286.816241 L437.2525,288.816241 C440.9165,288.816241 444.4765,287.593241 447.3665,285.341241 L453.1795,280.813241 C453.5155,280.551241 453.6485,280.101241 453.5105,279.699241 C453.3725,279.296241 452.9905,279.024241 452.5645,279.024241 L107.0135,279.024241 C106.5885,279.024241 106.2065,279.296241 106.0685,279.699241 C105.9295,280.101241 106.0635,280.551241 106.3995,280.812241 L112.2115,285.341241 C115.1025,287.593241 118.6615,288.816241 122.3255,288.816241 L437.2525,288.816241 L437.2525,287.816241" id="Fill-47" fill="#6C8CB2"></path>
            </g>
        </g>
    </g>
</svg>