<svg xmlns="http://www.w3.org/2000/svg" style="display: none;">
    <symbol id="usa-da-qa-icon">
        <g fill="none" fill-rule="evenodd">
            <path stroke="#597785" stroke-width="2" d="M43.906 20.07l46.416.068v46.35l-11.14-11.14H43.906z" stroke-linecap="round" stroke-linejoin="round" />
            <text fill="#597785" font-family="SourceSansPro-Bold, Source Sans Pro" font-size="22" font-weight="bold">
                <tspan x="61" y="45">A</tspan>
            </text>
            <path fill="#FFF" d="M56.602 0H3.612C1.62 0 0 1.62 0 3.613v56.6l14.45-14.45h42.152c1.994 0 3.612-1.62 3.612-3.613V3.613C60.214 1.62 58.596 0 56.602 0z" />
            <path fill="#335565" d="M0 0v56.45l13.548-13.547H56.45V0" />
            <text fill="#FFF" font-family="SourceSansPro-Bold, Source Sans Pro" font-size="24" font-weight="bold">
                <tspan x="20" y="26">Q</tspan>
            </text>
        </g>
    </symbol>
    <symbol id="usa-da-contact-icon">
        <g fill="none" fill-rule="evenodd">
            <g fill="none" fill-rule="evenodd">
                <path fill="#335565" d="M58.167 25.65L27.667 4v33.385h61V4" />
                <path fill="#597785" d="M58.167 22l30.5-22h-61" />
                <path fill="#597785" d="M.667 20H24v2H.667zm5.185 6H24v2H5.852zm5.185 6H24v2H11.037z" opacity=".706" />
            </g>
        </g>
    </symbol>
    <symbol id="usa-da-download-icon">
        <defs>
            <path id="a" d="M9.316 8.528v5.242H.576v9.32h8.74v5.242s10.26-9.586 10.26-9.902L9.316 8.528z" />
        </defs>
        <g fill="none" fill-rule="evenodd">
            <path fill="#79818F" d="M39.84 76.217h1.434V60.372h-3.277V76.21H22.56v3.276h15.845v-.007h.276l2.595-3.264H39.84zm-34.6 0H3.804V60.372H7.08V76.21h15.44v3.276H6.673v-.007h-.277l-2.592-3.264H5.24z" />
            <g transform="rotate(90 -6.803 48.076)">
                <use fill="#597785" xlink:href="#a" />
                <path stroke="#79818F" d="M9.816 9.706L18.9 18.47l-.11.116c-.26.27-.635.646-1.118 1.12-.857.84-2.03 1.968-3.44 3.31l-.13.12c-1.12 1.066-2.323 2.2-3.525 3.33l-.76.713v-4.59h-8.74v-8.32h8.74V9.705z" />
            </g>
            <g fill="#335565">
                <path d="M22.484 22.212V.182H.174v52.873h44.62V22.213h-22.31zm13.385 20.93c0 .32-.106.585-.315.79-.21.207-.476.31-.802.31h-24.54c-.325 0-.593-.103-.802-.31-.21-.205-.313-.47-.313-.79v-2.204c0-.322.105-.586.314-.792.21-.206.478-.31.803-.31h24.54c.326 0 .593.104.802.31.21.206.313.47.313.792v2.203zm0-8.813c0 .32-.106.583-.315.79-.21.206-.476.31-.802.31h-24.54c-.325 0-.593-.104-.802-.31-.21-.207-.313-.47-.313-.79v-2.205c0-.32.105-.585.314-.792.21-.206.478-.31.803-.31h24.54c.326 0 .593.104.802.31.21.207.313.47.313.792v2.203z" />
                <path d="M30.915.284h-3.97v17.522H44.69V14.39" />
            </g>
        </g>
    </symbol>
    <symbol id="usa-da-whats-next-icon">
        <g fill="none">
            <path fill="#335565" d="M74 49.795V55H0v-5.205h20.135c-2.41-3.47-3.786-7.635-3.786-11.973C16.35 26.37 25.64 17 37 17c11.358 0 20.65 9.37 20.65 20.822 0 4.338-1.376 8.502-3.785 11.973H74zM21.512 37.822c0-8.59 6.97-15.617 15.488-15.617 8.52 0 15.488 7.028 15.488 15.617 0 4.685-2.065 9.023-5.593 11.973h-19.79c-3.528-2.95-5.593-7.288-5.593-11.973z" />
            <path fill="#597785" d="M15 59h44.744v4H15zm10 8h24.093v4H25zM34.42.602h5.162v13.156H34.42zm26.07 34.136h13.166v5.16H60.49zm-60.232 0h13.165v5.16H.258zM51.836 18.9l9.31-9.308 3.647 3.648-9.31 9.31zm-42.59-5.715l3.65-3.65 9.303 9.3-3.65 3.652z" />
        </g>
    </symbol>
</svg>
