<?xml version="1.0" encoding="UTF-8"?><svg id="Layer_2" xmlns="http://www.w3.org/2000/svg" viewBox="0 0 2698.65 1870.03"><defs><style>.cls-1{fill:#34a37e;}.cls-1,.cls-2,.cls-3,.cls-4,.cls-5,.cls-6,.cls-7,.cls-8,.cls-9,.cls-10,.cls-11,.cls-12{stroke-width:0px;}.cls-2{fill:#ff580a;}.cls-3{fill:#9355dc;}.cls-4{fill:#edf5ff;}.cls-5{fill:#e7f6f8;}.cls-6{fill:#6b5947;}.cls-7{fill:#000;}.cls-8{fill:#222fbf;}.cls-9{fill:#c7a97b;}.cls-10{fill:#f1e5cd;}.cls-11{fill:#ffbc78;}.cls-12{fill:#0050d8;}</style></defs><g id="Layer_1-2"><g id="Illustration"><g id="Field_trip"><g id="Map"><polygon class="cls-4" points="1629.49 1354.33 1203.79 1292.03 1203.79 64.53 1629.49 2.23 1629.49 1354.33"/><polygon class="cls-4" points="1203.79 1292.03 714.89 1354.33 714.89 2.23 1203.79 64.53 1203.79 1292.03"/><polygon class="cls-4" points="2044.09 1244.73 1629.49 1354.33 1629.49 2.23 2044.09 111.83 2044.09 1244.73"/><g id="color"><polygon class="cls-1" points="1629.49 639.23 1203.79 642.83 1203.79 561.43 1629.49 549.63 1629.49 639.23"/><polygon class="cls-1" points="1526.59 76.63 1526.59 1265.33 1434.19 1253.33 1434.19 88.93 1526.59 76.63"/><polygon class="cls-1" points="2000.89 644.83 1629.49 639.23 1629.49 549.63 2000.89 568.33 2000.89 644.83"/><polygon class="cls-1" points="2000.89 1072.93 1629.49 1139.93 1629.49 1050.33 2000.89 996.33 2000.89 1072.93"/><polygon class="cls-1" points="1203.79 642.83 780.99 639.63 780.99 551.23 1203.79 561.43 1203.79 642.83"/><polygon class="cls-1" points="892.29 85.93 892.29 1258.03 816.69 1266.63 816.69 77.13 892.29 85.93"/><polygon class="cls-1" points="1203.79 1095.93 780.99 1122.63 780.99 1034.13 1203.79 1014.63 1203.79 1095.93"/><polygon class="cls-1" points="1941.39 139.43 1941.39 1206.83 1882.59 1220.73 1882.59 125.23 1941.39 139.43"/></g><path class="cls-7" d="M1629.49,1282.53h-.3l-425.8-55.5c-1.2-.2-2.1-1.3-1.9-2.5s1.2-2.1,2.5-1.9l425.8,55.5c1.2.2,2.1,1.3,1.9,2.5-.1,1.1-1.1,1.9-2.2,1.9h0Z"/><path class="cls-7" d="M1203.79,123.33c-1.1,0-2-.8-2.2-1.9-.2-1.2.7-2.3,1.9-2.5l425.8-56.6c1.2-.2,2.3.7,2.5,1.9.2,1.2-.7,2.3-1.9,2.5l-425.8,56.6c-.1-.1-.2,0-.3,0Z"/><path class="cls-7" d="M1203.79,66.73c-1.1,0-2-.8-2.2-1.9-.2-1.2.7-2.3,1.9-2.5L1629.29.03c1.2-.2,2.3.7,2.5,1.9.2,1.2-.7,2.3-1.9,2.5l-425.8,62.3h-.3Z"/><path class="cls-7" d="M1629.49,1356.53h-.3l-425.8-62.3c-1.2-.2-2-1.3-1.9-2.5.2-1.2,1.3-2,2.5-1.9l425.8,62.3c1.2.2,2,1.3,1.9,2.5-.2,1.1-1.1,1.9-2.2,1.9Z"/><path class="cls-7" d="M1629.49,1356.53c-.5,0-.9-.2-1.3-.5-.5-.4-.9-1.1-.9-1.7V2.23c0-.7.3-1.3.9-1.7.5-.4,1.2-.6,1.9-.4l414.5,109.6c1,.3,1.6,1.1,1.6,2.1v1132.9c0,1-.7,1.9-1.6,2.1l-414.5,109.6c-.2.1-.4.1-.6.1h0ZM1631.69,5.13v1346.4l410.2-108.4V113.53L1631.69,5.13Z"/><path class="cls-7" d="M1629.49,1282.53c-1,0-1.9-.7-2.1-1.7-.3-1.2.5-2.4,1.6-2.7l369.7-87V155.43l-369.7-88.7c-1.2-.3-1.9-1.5-1.6-2.7s1.5-1.9,2.7-1.6l371.4,89.1c1,.2,1.7,1.1,1.7,2.1v1039.3c0,1-.7,1.9-1.7,2.1l-371.4,87.4c-.2.1-.4.1-.6.1h0Z"/><path class="cls-7" d="M780.99,1275.03c-.5,0-1.1-.2-1.5-.6-.5-.4-.7-1-.7-1.6V72.23c0-.6.3-1.2.7-1.6s1.1-.6,1.7-.5l422.7,48.9c1.2.1,2.1,1.2,1.9,2.4-.2,1.2-1.2,2.1-2.4,1.9l-420.3-48.6v1195.7l420.3-47.7c1.2-.1,2.3.7,2.4,1.9.1,1.2-.7,2.3-1.9,2.4l-422.7,48s-.1,0-.2,0h0Z"/><path class="cls-7" d="M714.89,1356.53c-.5,0-1-.2-1.5-.6s-.8-1-.8-1.6V2.23c0-.6.3-1.2.8-1.6s1.1-.6,1.7-.5l488.8,62.3c1.1.1,1.9,1.1,1.9,2.2v1227.5c0,1.1-.8,2-1.9,2.2l-488.8,62.3c0-.1-.1-.1-.2-.1h0ZM717.09,4.73v1347.1l484.4-61.7V66.43L717.09,4.73h0Z"/></g><g id="Person_3"><polygon class="cls-11" points="1448.99 1670.03 836.09 1670.03 910.59 978.43 1266.89 968.23 1448.99 1670.03"/><path class="cls-7" d="M836.09,1672.23h612.9c.7,0,1.3-.3,1.7-.9.4-.5.6-1.2.4-1.9l-182.1-701.8c-.2-1-1.1-1.6-2.1-1.6h-.1l-356.3,10.1c-1.1,0-2,.9-2.1,2l-74.5,691.7c-.1.6.1,1.2.6,1.7.4.5.9.7,1.6.7h0ZM1446.09,1667.83h-607.6l74-687.3,352.6-10,181,697.3h0Z"/><polygon class="cls-9" points="903.19 616.93 857.19 467.83 945.69 424.73 1031.19 632.03 903.19 616.93"/><path class="cls-7" d="M1031.19,634.23c.7,0,1.3-.3,1.8-.9s.6-1.5.3-2.2l-85.4-207.3c-.2-.6-.7-1-1.2-1.2-.6-.2-1.2-.2-1.7.1l-88.6,43.1c-1,.5-1.5,1.6-1.1,2.6l46.1,149c.3.8,1,1.4,1.8,1.5l128,15.3c-.2,0-.1,0,0,0h0ZM944.59,427.73l83.1,201.7-122.8-14.6-45.1-145.9,84.8-41.2Z"/><path class="cls-7" d="M1163.09,563.03l-177.1-268.6c-44.1-66.8-118.8-108.4-200-111-1.1,0-2.1-.1-3.1-.1-35.9-1.1-57.1,39.1-35.5,67.1l99,128.8,97.8,258.5,179.1-1.1c38-.9,60.4-42.3,39.8-73.6h0Z"/><ellipse class="cls-7" cx="1062.79" cy="261.53" rx="65.7" ry="64.2"/><path class="cls-7" d="M913.29,381.53c.4,0,.9-.1,1.3-.4,54.1-39.6,51-91.1,50.9-91.6-.1-1.2-1.2-2.1-2.4-2-1.2.1-2.1,1.1-2,2.3,0,.5,2.9,49.7-49.1,87.8-1,.7-1.2,2.1-.5,3.1.5.5,1.1.8,1.8.8h0Z"/><path class="cls-9" d="M913.29,397.33s12-26.5,41.5-14.7c29.6,11.8,19.4,97.7-55.6,70.3,0,0-31.2,56.9-89.3,47.7-83.2-13.2-72.3-114.1-52.2-157.5,20.1-43.4,50.2-74.9,50.2-74.9l105.4,129.1h0Z"/><path class="cls-7" d="M822.39,503.73c45.6,0,72.5-39.6,77.8-48.2,38.8,13.4,60.9-3.4,68.7-23.8,8.1-21.2,1.9-45.1-13.3-51.2-24.9-10-38.3,5.9-42.7,12.9l-103.3-126.7c-.4-.5-1-.8-1.6-.8s-1.2.2-1.7.7c-.3.3-30.6,32.2-50.7,75.5-12.2,26.4-23.8,83-2.9,122.2,11.4,21.4,30.5,34.3,56.7,38.4,4.6.7,8.9,1,13,1h0ZM899.19,450.63c-.8,0-1.5.4-1.9,1.1-.3.6-31.1,55.4-87,46.6-24.8-3.9-42.8-16.1-53.6-36.2-20.2-37.8-8.9-92.6,3-118.3,17-36.8,41.6-65.2,48.2-72.5l103.7,127.2c.5.6,1.2.9,2,.8s1.4-.6,1.7-1.3c.5-1,11.5-24.5,38.7-13.6,12.8,5.1,17.9,26.8,10.8,45.5-3.5,9.1-18.5,37.6-64.8,20.6-.3.2-.5.1-.8.1h0Z"/><path class="cls-7" d="M903.79,432.63c.5,0,.9-.2,1.4-.5,7.9-6.2,18.2-9.2,28.3-8.2,1.2.1,2.3-.8,2.4-2s-.8-2.3-2-2.4c-11.2-1.1-22.7,2.2-31.5,9.1-1,.8-1.1,2.1-.4,3.1.5.6,1.1.9,1.8.9h0Z"/><path class="cls-9" d="M187.69,276.73c-9.6,30.7,3.4,128.4,2.2,130.9-57.9-42.9-145.6-114.8-145.6-114.8,0,0-24.9,3.4-37.5-16.9s5.6-34.1,5.6-34.1c-8.1-23.9,9.4-27.2,9.4-27.2-8.2-19.5,15.3-30.1,15.3-30.1-30.9-11.3-39.1-28.9-26.2-34.3,13-5.4,72.2,14.8,137.5,55.5,15.1,9.4,32.8,19.1,50.9,28.3-3.4,14.3-7.2,28.6-11.6,42.7h0Z"/><path class="cls-7" d="M189.89,409.83c.2,0,.3,0,.5-.1.6-.1,1.2-.6,1.4-1.1.5-1.1.5-2.2-1-19-2.6-29.1-8.1-89.8-1.1-112.2h0c4.2-13.5,8.1-27.9,11.6-42.9.2-1-.2-2-1.1-2.5-19.9-10.1-36.9-19.5-50.8-28.2-64.5-40.2-125.3-61.6-139.5-55.7-4.8,2-7.4,5.6-7.3,10,.2,9.1,11.5,19.3,29.1,26.6-8,5.1-17.2,15.1-12.9,28.3-2.4,1-5.9,3-8.4,7.1-3.1,5.3-3.3,12.2-.7,20.8-4.1,3.8-16.4,17.4-4.9,36,11.9,19.2,33.8,18.5,38.7,18.1,8.5,7,90.4,74,145,114.3.5.3,1,.5,1.4.5h0ZM185.59,276.03c-7.2,23.3-2,82.2.9,113.9.5,5.2.9,10,1.1,13.2-57.2-42.6-141.1-111.4-141.9-112.1-.5-.4-1.1-.6-1.7-.5-1,.1-23.7,2.9-35.4-15.9-11.4-18.3,4.4-30.7,5.1-31.2.8-.6,1.1-1.6.8-2.5-2.7-7.9-2.7-14.1-.2-18.5,2.8-4.8,7.8-5.8,7.9-5.8.6-.1,1.2-.5,1.5-1.1s.4-1.3.1-1.9c-7.3-17.3,13.3-26.8,14.1-27.2s1.3-1.2,1.3-2.1-.6-1.7-1.4-2c-20.9-7.6-30.5-18-30.6-24.3-.1-2.6,1.5-4.6,4.6-5.9,11.6-4.9,68.9,13.8,135.5,55.3,13.6,8.5,30.3,17.8,49.6,27.6-3.5,14.4-7.3,28.1-11.3,41h0Z"/><path class="cls-7" d="M45.29,295.93c.6,0,1.1-.2,1.6-.6.9-.9.9-2.2,0-3.1-8.8-8.9-17.3-18.3-25-28-.8-1-2.1-1.1-3.1-.4-.9.8-1.1,2.1-.4,3.1,7.9,9.9,16.4,19.4,25.4,28.4.3.4.9.6,1.5.6h0Z"/><path class="cls-7" d="M39.69,249.23c.8,0,1.5-.4,1.9-1.1.6-1,.3-2.4-.8-3-8.8-5.3-19.6-7.1-29.6-5-1.2.2-1.9,1.4-1.7,2.6s1.4,1.9,2.6,1.7c9-1.9,18.6-.2,26.5,4.5.3.2.7.3,1.1.3h0Z"/><path class="cls-7" d="M55.59,226.53c.7,0,1.4-.3,1.8-1,.7-1,.4-2.4-.6-3.1-10.2-6.8-22.6-10.2-34.8-9.8-1.2,0-2.2,1.1-2.1,2.3,0,1.2,1.1,2.2,2.3,2.1,11.4-.4,22.8,2.9,32.2,9.1.4.3.8.4,1.2.4h0Z"/><path class="cls-7" d="M67.49,199.43c.8,0,1.5-.4,1.9-1.2.6-1.1.2-2.4-.9-3-10-5.4-20.6-9.5-31.6-12.2-1.2-.3-2.4.4-2.7,1.6s.4,2.4,1.6,2.7c10.7,2.7,21,6.7,30.6,11.8.4.3.7.3,1.1.3h0Z"/><path class="cls-12" d="M834.69,974.13c-10.9-41.5-25.1-96.5-43.9-169.4L208.79,443.53c-32.8-20.3-51.6-56.5-49.3-94.3l8.2-132.8,764.3,385.4,213.2,54.9,171,387c11.2,25.4-7.7,53.8-36,54l-278.7,2.1c-78.6.5-147.4-51.3-166.8-125.7h0Z"/><path class="cls-7" d="M857.19,846.73c.8,0,1.5-.4,1.9-1.1.6-1,.3-2.4-.8-3l-66.3-39.8c-1-.6-2.4-.3-3,.8-.6,1-.3,2.4.8,3l66.3,39.8c.3.2.7.3,1.1.3h0Z"/><path class="cls-2" d="M1015.89,657.83l-172.1-100.5,9.2-1.3c42.9-6,86.8,0,126.3,17.4l143.9,63.2-107.3,21.2h0Z"/><path class="cls-7" d="M1015.89,660.03h.4l107.4-21.2c.9-.2,1.7-1,1.8-1.9s-.4-1.9-1.3-2.2l-143.9-63.2c-40-17.6-84.1-23.7-127.5-17.6l-9.2,1.3c-.9.1-1.7.8-1.9,1.8-.2.9.2,1.8,1.1,2.3l172.1,100.5c.2.1.6.2,1,.2h0ZM1115.99,635.83l-99.7,19.7-165.9-96.9,2.9-.4c42.6-6,85.9,0,125.1,17.2l137.6,60.4h0Z"/><path class="cls-2" d="M1213.99,1059.53h142.2c38.8,0,65.7-37.8,52.3-73.4l-121-320.9c-16.2-43-58.1-71.5-104.9-71.5h-166.2c-22.8,0-38.5,22.2-30.7,43l135.6,359.6c14.4,37.9,51.4,63.1,92.7,63.2h0Z"/><path class="cls-7" d="M1213.99,1061.73h142.2c19.2,0,37.2-9.3,48-24.9,10.6-15.3,12.9-34.1,6.4-51.4l-121-320.9c-16.4-43.6-59.4-72.9-106.9-72.9h-166.2c-11.6,0-22.4,5.6-28.9,15-6.4,9.2-7.8,20.5-3.8,31l135.6,359.6c14.5,38.5,52.6,64.5,94.6,64.5h0ZM1182.69,595.93c45.7,0,87,28.2,102.8,70.1l121,320.9c6,16,3.9,33.3-5.9,47.4-10,14.4-26.6,23-44.4,23h-142.2c-40.2,0-76.6-24.8-90.6-61.7l-135.6-359.6c-3.4-9.1-2.2-18.9,3.3-26.9,5.7-8.2,15.1-13.1,25.3-13.1l166.3-.1h0Z"/><path class="cls-7" d="M1233.19,1028.13c.3,0,.5-.1.8-.1,1.1-.4,1.7-1.7,1.3-2.8l-151.8-402.6c-.4-1.1-1.7-1.7-2.8-1.3-1.1.4-1.7,1.7-1.3,2.8l151.8,402.6c.3.9,1.1,1.4,2,1.4h0Z"/><path class="cls-7" d="M1136.99,766.23h172.6c1.2,0,2.2-1,2.2-2.2s-1-2.2-2.2-2.2h-172.6c-1.2,0-2.2,1-2.2,2.2s1,2.2,2.2,2.2Z"/></g><g id="Person_1"><path class="cls-3" d="M1950.09,789.53h-300.7c-60,0-108.7,48.7-108.7,108.7v471.1c0,60,48.7,108.7,108.7,108.7h409.4v-579.8c0-60-48.7-108.7-108.7-108.7Z"/><path class="cls-7" d="M1649.39,1480.23h409.4c1.2,0,2.2-1,2.2-2.2v-579.8c0-61.2-49.8-110.9-110.9-110.9h-300.7c-61.2,0-110.9,49.8-110.9,110.9v471.1c-.1,61.1,49.7,110.9,110.9,110.9h0ZM2056.59,1475.83h-407.2c-58.7,0-106.5-47.8-106.5-106.5v-471.1c0-58.7,47.8-106.5,106.5-106.5h300.7c58.7,0,106.5,47.8,106.5,106.5v577.6h0Z"/><path class="cls-7" d="M1707.89,1446.63c1.2,0,2.2-1,2.2-2.2v-505c0-65.3-53.2-118.5-118.5-118.5-1.2,0-2.2,1-2.2,2.2s1,2.2,2.2,2.2c62.9,0,114.1,51.2,114.1,114.1v505c0,1.2,1,2.2,2.2,2.2h0Z"/><path class="cls-12" d="M2102.49,1532.83h-521s65.7-178.9,68.2-177.4-119.4-54.3-68.2-244.4c51.2-190.1,192.1-292.9,396.4-296.1l155,17.7c78.7,9,155.2,31.7,226,67.2h0l100-147.9s289.4,157.3,232.3,292.8-374.1,123.8-439.2,109.2l-149.5,378.9Z"/><path class="cls-7" d="M2485.59,1020.83c.6,0,1.2-.2,1.6-.7.8-.9.8-2.3-.1-3.1l-126.6-118.9c-.9-.8-2.3-.8-3.1.1-.8.9-.8,2.3.1,3.1l126.6,118.9c.4.4,1,.6,1.5.6h0Z"/><path class="cls-7" d="M1703.09,1373.83c24.9,0,49.7-9.4,68.4-27.8l113.7-111.4c.9-.9.9-2.2,0-3.1-.8-.9-2.2-.9-3.1,0l-113.7,111.4c-31.5,30.9-80.9,35.3-117.5,10.6-1-.7-2.4-.4-3.1.6s-.4,2.4.6,3c16.7,11.3,35.7,16.8,54.7,16.7h0Z"/><path class="cls-7" d="M1671.69,1163.43c.6,0,1.1-.2,1.5-.6l109.2-105.7c.9-.8.9-2.2.1-3.1s-2.2-.9-3.1,0l-109.2,105.7c-.9.8-.9,2.2-.1,3.1.4.3,1,.6,1.6.6Z"/><path class="cls-3" d="M1897.29,1079.63s3.5-192.3-67.7-257.7l51.3-6.7c17-2.2,33.5,6.3,41.6,21.4,19.4,36.4,50.1,115.3,52.3,252.3l-77.5-9.3h0Z"/><path class="cls-7" d="M1974.79,1091.23c.5,0,1.1-.2,1.5-.6.5-.4.7-1,.7-1.7-2.3-138.7-33.9-218.2-52.6-253.3-8.4-15.8-26-24.9-43.8-22.6l-51.3,6.7c-.9.1-1.6.7-1.8,1.5-.3.8,0,1.7.6,2.3,69.6,64,67,254.1,67,256,0,1.1.8,2.1,1.9,2.2l77.5,9.4c.1.1.2.1.3.1h0ZM1886.09,817.13c14.2,0,27.6,7.9,34.4,20.6,18.4,34.5,49.4,112.6,52.1,248.8l-73.1-8.9c.2-21.3-.4-189.1-65.1-254.1l46.8-6.1c1.6-.2,3.3-.3,4.9-.3h0Z"/><path class="cls-10" d="M1789.29,1045.73s60.2,136.9,94.4,174.2l53.6-43.2s93.2-34.4,46.6-68.4c0,0,35.5-28.8,1.6-47.3,0,0,20.3-30.6-10.4-37.2,0,0,16.4-33.9-30.7-33.9s-155.1,55.8-155.1,55.8h0Z"/><path class="cls-7" d="M1893.29,1003.13c.2,0,.5,0,.7-.1,21.6-7.2,38.6-10.9,50.4-10.9,10.3,0,18.2,1.7,23.5,5,1,.6,2.4.3,3-.7s.3-2.4-.7-3c-6-3.7-14.7-5.6-25.8-5.6-12.3,0-29.8,3.7-51.8,11.1-1.1.4-1.8,1.6-1.4,2.8.3.8,1.1,1.3,2.1,1.4h0Z"/><path class="cls-10" d="M2106.99,746.03l-32.8,86.9s19.7,22.8-24.4,28.2c-44.1,5.4-93.2-38.1-93.2-38.1l47.4-131.3,103,54.3h0Z"/><path class="cls-7" d="M2042.09,863.83c2.7,0,5.4-.1,8.1-.5,16.8-2.1,26.9-7,29.8-14.6,2.7-6.9-1.4-13.7-3.2-16.2l32.3-85.8c.4-1,0-2.2-1-2.7l-103-54.2c-.6-.3-1.2-.3-1.8-.1-.6.2-1.1.7-1.3,1.3l-47.4,131.3c-.3.8-.1,1.8.6,2.4,1.9,1.7,44.8,39.1,86.9,39.1h0ZM2104.29,747.03l-32.1,85.1c-.3.8-.1,1.6.4,2.2,0,.1,5.7,6.7,3.3,12.8-2.3,5.9-11.4,10-26.2,11.8-39,4.8-82.9-30.2-90.4-36.6l46-127.5,99,52.2h0Z"/><path class="cls-7" d="M2203.59,471.93c-18.3-44.7-71.1-72.3-118.3-61.8-47.2,10.5-83.2,57.9-80.8,106.2-6.9-26.5-40.4-42.1-65.2-30.4-24.8,11.7-33.9,47.5-17.9,69.6-10.9-5.5-24.9-2.5-34,5.6-9.2,8.1-13.8,20.4-14.5,32.6-1.9,34,25.4,64.3,57.3,76,31.9,11.8,67.2,8.8,100.8,3.4,27-4.3,54.1-10,78.5-22.3,31.2-15.6,55.9-47,77.4-73.9,23.2-28.8,30.9-70.4,16.7-105h0Z"/><path class="cls-10" d="M2144.89,542.93s98,149.3,13.5,207.8-147.3-36.2-147.3-36.2c0,0-46.4,13.4-71.3-30.2-28.8-50.4,28.5-79.4,54.7-43.8,0,0,31.4,26.7,32,6,.6-20.9,5.4-114.8,118.4-103.6h0Z"/><path class="cls-7" d="M2102.79,771.93c19.1,0,38.2-6.5,56.9-19.4,35.4-24.5,44.4-68.9,25.8-128.3-13.9-44.4-38.5-82.1-38.7-82.5-.4-.6-1-.9-1.6-1-37.4-3.7-66.8,3.7-87.5,21.9-20.8,18.3-32.3,47.2-33.3,83.8-.1,2.9-.8,4.8-2.3,5.4-4.8,2.2-18-6.2-25.9-12.8-14.2-19.1-36.7-19.8-50.7-10.7-13.5,8.8-23.6,29-7.5,57.1,22.8,40.1,63.7,33.5,72.2,31.6,5.3,7.6,33.8,45.2,76.4,53.4,5.4,1,10.8,1.5,16.2,1.5h0ZM2143.59,544.93c7.8,12.3,92,149.6,13.5,203.9-23,15.9-46.5,21.7-69.8,17.2-44.7-8.6-74.2-52.4-74.5-52.8-.5-.8-1.5-1.2-2.4-.9-1.8.5-45,12.4-68.8-29.2-14.5-25.5-5.8-43.6,6.1-51.3,12.7-8.2,32.2-7.5,44.9,9.8.1.1.2.3.4.4,2.2,1.8,21.4,17.8,30.8,13.7,3.1-1.4,4.8-4.5,4.9-9.3,1-35.3,12-63.1,31.8-80.6,19.6-17.2,47.6-24.2,83.1-20.9h0Z"/><path class="cls-7" d="M2006.29,695.43c.6,0,1.1-.2,1.5-.6.9-.8.9-2.2.1-3.1-10.2-10.6-24.6-17.2-39.3-18-1.2-.1-2.2.9-2.3,2.1s.9,2.2,2.1,2.3c13.6.7,26.9,6.8,36.4,16.6.3.5.9.7,1.5.7h0Z"/><path class="cls-8" d="M2210.69,666.93c78,0,141.5-63.5,141.5-141.5s-63.5-141.5-141.5-141.5-141.5,63.5-141.5,141.5,63.5,141.5,141.5,141.5ZM2210.69,388.43c75.6,0,137.1,61.5,137.1,137.1s-61.5,137.1-137.1,137.1-137.1-61.5-137.1-137.1c.1-75.7,61.6-137.1,137.1-137.1Z"/><path class="cls-8" d="M2345.39,863.33c.3,0,.6-.1.8-.2,1.1-.5,1.7-1.7,1.2-2.9l-84-205.9c-.5-1.1-1.7-1.7-2.9-1.2-1.1.5-1.7,1.7-1.2,2.9l84,205.9c.4.9,1.2,1.4,2.1,1.4h0Z"/><path class="cls-10" d="M2336.59,832.03s55.7,52,77.9,49.2c22.2-2.9,96.9-63.1,44.3-129.3-52.5-66.1-118.9-115.7-189.5-84.5-58.6,25.9-20.5,60.5-20.5,60.5,0,0-12.2,22.8,11.3,39.2,0,0-3.1,27.8,23.2,34.1,0,0,2,31.8,34.7,36.8,18.5,2.8,18.6-6,18.6-6h0Z"/><path class="cls-7" d="M2412.79,883.43c.7,0,1.4,0,2-.1,13-1.7,45.7-23,59.1-56.1,7.3-18.1,11-46.2-13.3-76.7-66.3-83.5-131-112.2-192.1-85.2-20.2,8.9-31.6,20-33.7,32.9-2.4,14.5,7.8,26.5,11.4,30.2-2.3,5.6-8.3,25,11.6,39.8-.2,5.7.5,28.4,23.5,34.8,1,6.8,6.7,32.7,36.4,37.3,8.5,1.3,14.6.4,18.2-2.6.7-.6,1.2-1.2,1.7-1.8,10.6,9.6,53.8,47.5,75.2,47.5h0ZM2313.49,659.93c46.2,0,94.3,31.2,143.6,93.3,18.4,23.2,22.7,47.6,12.6,72.4-12.3,30.2-42.9,51.7-55.5,53.4-17.2,2.2-60.8-34.3-76.1-48.6-.6-.6-1.6-.8-2.4-.4-.8.3-1.3,1.1-1.3,1.9,0,.1-.2,1.3-1.5,2.4-1.8,1.4-5.8,2.8-14.5,1.5-30.5-4.7-32.8-33.6-32.9-34.8-.1-1-.8-1.8-1.7-2-24-5.7-21.7-30.7-21.5-31.7.1-.8-.3-1.6-.9-2-21.6-15.1-11-35.5-10.6-36.3.5-.9.3-2-.5-2.7-.1-.1-13.6-12.6-11.2-27.4,1.8-11.3,12.3-21.2,31.1-29.5,14.3-6.3,28.7-9.5,43.3-9.5h0Z"/><path class="cls-7" d="M2250.39,727.63c.8,0,1.5-.4,1.9-1.1,11.6-20.4,35.9-32.9,59.3-30.5,1.2.1,2.3-.8,2.4-2s-.8-2.3-2-2.4c-25-2.6-51.1,10.8-63.5,32.7-.6,1.1-.2,2.4.8,3,.4.2.7.3,1.1.3h0Z"/><path class="cls-7" d="M2261.39,767.33c.7,0,1.5-.4,1.9-1.1,14.1-23.2,41.8-38,68.9-36.6,1.2.1,2.2-.9,2.3-2.1.1-1.2-.9-2.2-2.1-2.3-28.7-1.4-58,14.2-72.9,38.8-.6,1-.3,2.4.7,3,.4.2.8.3,1.2.3h0Z"/><path class="cls-7" d="M2284.49,803.43c1,0,1.9-.7,2.1-1.7,2.5-11.2,11.3-21.6,23.3-27.6,9.9-5,22.1-7.4,37.2-7.4,1.2,0,2.2-1,2.2-2.2s-1-2.1-2.2-2.2c-15.8,0-28.6,2.6-39.2,7.9-13.2,6.6-22.8,18.1-25.7,30.6-.3,1.2.5,2.4,1.7,2.6.3,0,.5,0,.6,0h0Z"/><path class="cls-7" d="M2336.19,834.23c.2,0,.5,0,.8-.1,1.1-.4,1.7-1.7,1.3-2.8l-11.8-32c-.4-1.1-1.7-1.7-2.8-1.3s-1.7,1.7-1.3,2.8l11.8,32c.2.8,1.1,1.4,2,1.4h0Z"/></g><g id="Person_2"><path class="cls-1" d="M1157.79,1100.13c-96.1,0-174,77.9-174,174v360.4c0,67.8,55,122.8,122.8,122.8h381.1v-657.2h-329.9Z"/><path class="cls-7" d="M1487.69,1759.53h-381.1c-68.9,0-125-56.1-125-125v-360.4c0-97.2,79.1-176.2,176.2-176.2h329.9c1.2,0,2.2,1,2.2,2.2v657.2c0,1.3-1,2.3-2.2,2.2h0ZM1157.79,1102.33c-94.7,0-171.8,77.1-171.8,171.8v360.4c0,66.5,54.1,120.6,120.6,120.6h378.9v-652.8h-327.7Z"/><path class="cls-7" d="M1025.99,1266.83c-1.2,0-2.2-1-2.2-2.2,0-68.9,56.1-125,125-125h225.5c1.2,0,2.2,1,2.2,2.2s-1,2.2-2.2,2.2h-225.5c-66.5,0-120.6,54.1-120.6,120.6,0,1.2-1,2.2-2.2,2.2h0Z"/><path class="cls-5" d="M1877.09,1414.53c-9.8-158.8-153.3-242.8-153.3-242.8,0,0-72.2-49.9-176.2-71.5v-28.3c0-22.7-13.8-43.2-34.9-51.4-38.2-15-76.6-12.1-105-5.7-26.4,5.9-44.7,29.9-43.3,56.8l1.5,28.6c-49.9,11.3-101.4,33.4-152.2,71l-13.4,517.3-55.3,179.3h638.1v-215.1c-.1,0,104.3-70.9,94-238.2h0Z"/><path class="cls-7" d="M1144.89,1870.03c-.2,0-.4,0-.7-.1-1.2-.4-1.8-1.6-1.4-2.8l55.2-179,13.4-517c0-.7.4-1.3.9-1.7,46.8-34.6,97.7-58.5,151.2-70.9l-1.4-26.8c-1.4-28.1,17.5-52.9,45-59.1,26.5-6,66.5-9.8,106.3,5.8,21.7,8.5,36.3,30,36.3,53.5v26.5c102.3,21.6,174.5,71,175.2,71.5.2.1,36.4,21.5,73.3,62.1,34.1,37.5,75.8,99.6,80.9,182.3,5.4,87-20.7,147.7-43.5,183.2-22.4,34.9-45.5,52.7-50.6,56.3v214c0,1.2-1,2.2-2.2,2.2s-2.2-1-2.2-2.2v-215.1c0-.7.4-1.4,1-1.8.3-.2,26.1-18,50.4-55.9,22.4-35,48-94.6,42.7-180.4-5-81.4-46.1-142.5-79.7-179.5-36.4-40.2-72.2-61.3-72.6-61.5-.9-.6-73.2-50-175.5-71.2-1-.2-1.8-1.1-1.8-2.2v-28.3c0-21.7-13.4-41.5-33.5-49.4-38.8-15.2-77.8-11.4-103.7-5.6-25.4,5.7-42.9,28.7-41.6,54.6l1.5,28.6c.1,1.1-.7,2-1.7,2.3-53.3,12.1-104,35.6-150.5,69.9l-13.4,516.2c0,.2,0,.4-.1.6l-55.3,179.3c-.1,1-1,1.6-1.9,1.6h0Z"/><path class="cls-1" d="M1255.79,1100.13s74,40.9,89.9,155.5h73.8c-15.9-114.6-89.9-155.5-89.9-155.5h-73.8Z"/><path class="cls-7" d="M1419.49,1257.83h-73.8c-1.1,0-2-.8-2.2-1.9-15.5-112.2-88-153.5-88.8-153.9-.9-.5-1.3-1.5-1.1-2.5.2-1,1.1-1.6,2.1-1.6h73.8c.4,0,.7.1,1.1.3.8.4,75.2,42.8,91,157.1.1.6-.1,1.3-.5,1.8s-1,.8-1.6.7h0ZM1347.59,1253.43h69.4c-15.5-105.5-81.7-147.4-87.9-151.1h-65.9c18.2,13,70.9,57.8,84.4,151.1h0Z"/><rect class="cls-12" x="1329.69" y="1244.63" width="407.2" height="580.3"/><path class="cls-5" d="M1783.09,1649.73s-110.6,134.9-345.5,74.2c-188.2-48.6,0-11.7,0-11.7l38.1-221.9,311.4-81.8-4,241.2h0Z"/><path class="cls-6" d="M1703.19,1391.33s-28.1-8.2-63,13.2c-34.9,21.5-97.6,55.8-97.6,55.8l55.9,121.8,138.6-63.9v18s44.2-31.5,17.4-57.1c0,0,19-26.4-4.9-38.2,0,0,21-18.2-2.4-32.4-.2,0,12-40.2-44-17.2h0Z"/><path class="cls-7" d="M1598.39,1584.33c-.3,0-.5-.1-.8-.1-.6-.2-1-.6-1.2-1.1l-55.9-121.8c-.5-1.1-.1-2.3.9-2.9.6-.3,63-34.6,97.5-55.8,32.6-20,59.1-14.9,64-13.7,20.6-8.3,34.7-9.2,42-2.5,6.9,6.3,5.4,17,4.4,21.1,6.6,4.4,10.2,9.5,10.7,15.4.6,7.6-4.2,14.2-7.2,17.5,5.3,3.3,8.7,7.6,10,13,2.6,10.4-3.4,21.5-5.9,25.5,5.8,6.1,8.5,13,8,20.6-1.4,20.3-25.8,37.9-26.9,38.7-.7.5-1.6.5-2.3.2-.7-.3-1.2-1.1-1.2-2v-14.6l-135.4,62.4c-.1.1-.4.1-.7.1h0ZM1545.39,1461.33l54.1,118,136.6-62.9c.7-.3,1.5-.3,2.1.1s1,1.1,1,1.9v13.5c6.6-5.5,20.6-18.7,21.6-32.7.5-6.7-2.2-12.9-7.9-18.4-.8-.8-.9-2-.3-2.9.1-.1,8.9-12.7,6.2-23.5-1.2-4.9-4.7-8.8-10.3-11.5-.7-.3-1.1-1-1.2-1.7s.2-1.5.7-1.9c.1-.1,8.6-7.6,7.9-16-.4-4.8-3.8-9.1-10-12.9-.9-.5-1.2-1.6-1-2.5,0-.1,3.6-12.4-2.8-18.2-4.2-3.8-14.1-6.2-38.1,3.6-.5.2-1,.2-1.4.1-.3-.1-27.7-7.6-61.3,13-31.3,19.2-85.4,49.1-95.9,54.9h0Z"/><path class="cls-7" d="M1653.99,1417.53c-.8,0-1.6-.4-2-1.2-.5-1.1-.1-2.4,1-2.9l49.2-24.1c1.1-.5,2.4-.1,2.9,1s.1,2.4-1,2.9l-49.2,24.1c-.2.2-.6.2-.9.2Z"/><path class="cls-5" d="M1559.19,1466.13c19.6,27.4,43,66.8,51.3,108.1,4.5,22.3-2.1,45.4-17.1,62.5-50.3,57.4-189.9,191.6-352.6,133.6-162.9-58.1-213.4-190.3-176.2-348.1,31.5-133.5,148.9-251.1,148.9-251.1l135.1,350.8,140.4-72.6c24.4-12.5,54.3-5.4,70.2,16.8h0Z"/><path class="cls-7" d="M1322.39,1786.93c-26.5,0-54.1-4.4-82.3-14.4-79.3-28.3-134.6-74.7-164.4-137.8-28-59.4-32.5-131-13.2-212.8,31.2-132.6,148.3-250.9,149.5-252.1.9-.9,2.2-.9,3.1,0s.9,2.2,0,3.1c-1.2,1.2-117.4,118.7-148.3,250-39.7,168.4,22.4,291.1,174.8,345.5,27.7,9.9,54.8,14.2,80.8,14.2,124.8,0,226.6-98.3,269.4-147.1,14.7-16.7,20.9-39.4,16.6-60.6-8.4-41.6-32.3-81.3-51-107.3-.7-1-.5-2.4.5-3.1s2.4-.5,3.1.5c18.9,26.3,43.2,66.6,51.7,109,4.6,22.6-2,46.7-17.6,64.4-43.2,49.2-146.1,148.4-272.7,148.5h0Z"/><path class="cls-7" d="M1249.09,1570.13c-.8,0-1.6-.5-2-1.3-.5-1.1,0-2.4,1.1-2.9l99.5-45.9c1.1-.5,2.4,0,2.9,1.1s0,2.4-1.1,2.9l-99.5,45.9c-.2.1-.5.2-.9.2h0Z"/><path class="cls-6" d="M1404.09,929.43l-1.7,118.9s31.5,48.4,114.8,8l3.3-96.8c.1.1-49.7-62.7-116.4-30.1h0Z"/><path class="cls-7" d="M1456.99,1074.53c-39.5,0-56.1-24.6-56.4-25-.2-.4-.4-.8-.4-1.2l1.7-118.9c0-.8.5-1.6,1.2-1.9,67.4-33.1,118.6,30.2,119.1,30.8.3.4.5.9.5,1.4l-3.3,96.8c0,.8-.5,1.5-1.2,1.9-24.6,11.9-44.9,16.1-61.2,16.1h0ZM1404.69,1047.73c3.8,5.3,34.6,43.5,110.4,7.3l3.2-94.6c-5.3-6.3-51.9-58.1-112-29.6l-1.6,116.9h0Z"/><path class="cls-7" d="M1405.39,679.23c-23.7-3.4-45.7-50.3-31.6-85.1,7.1-17.4,26.2-39.3,49.4-36.7,19.2,2.2,32.7,20.3,37.2,35.2,11.7,39-28,90.5-55,86.6h0Z"/><path class="cls-7" d="M1320.99,803.33c14.6-34.6-26.4-93-76.1-116.1-43.8-20.3-114.1-22.5-139.1,18.7-18.5,30.5-5.8,74.4,15.7,99.7,51.8,61,179.7,44.7,199.5-2.3Z"/><path class="cls-7" d="M1624.89,839.83c18.8-4.1,34.2-19.8,39.3-38.3,5.2-18.5.5-39.2-10.9-54.6s-29.1-25.8-48-29.6c-17.5-3.6-36-1.9-53.1-7.4-12.5-4-23.5-11.5-35.7-16.2-22.4-8.6-47.7-7.2-70.6,0-37.4,11.7-69.7,38.7-87.8,73.4s-21.8,76.6-10.1,114c7.2,22.8,20.5,44.4,40.7,57.1,20.1,12.6,45,15.2,68.8,14.2,32.3-1.3,65.3-8.8,92.4-26.9,11.3-7.5,24.2-17.5,30.4-30,4.5-9.2,4.7-20.2,7.3-30.1,5.7-21.1,18.5-21.5,37.3-25.6h0Z"/><path class="cls-6" d="M1443.29,939.33s10.8,92.2,89,84.8c78.1-7.4,84.1-91.4,65.4-175.6l-105-3.3s4,48.2-21.3,52.6c-6.3,1.1-16.5.3-18.3-7.1-5.9-24.1-41.3-44.1-57.3-10.9-20.8,43,23.5,62,47.5,59.5h0Z"/><path class="cls-7" d="M1523.59,1026.83c-65.1,0-79.9-71.8-82.1-85.1-15.7.9-36.9-6.4-47-20.8-5.7-8.1-10.4-21.9-.7-42,8.6-17.9,21.7-19.3,28.7-18.6,14.6,1.6,29,14.7,32.8,29.9,1.4,5.8,10.2,6.4,15.8,5.5,23-4,19.5-49.8,19.5-50.3-.1-.6.2-1.2.6-1.7s1-.7,1.7-.7l105,3.3c1,0,1.9.7,2.1,1.7,10.4,46.7,17,110.3-10.5,148.1-12.8,17.7-32,27.8-56.8,30.2-3.2.3-6.2.5-9.1.5h0ZM1443.29,937.13c1.1,0,2.1.8,2.2,1.9,0,.2,2.8,23,15,44.5,16.1,28.5,40.2,41.4,71.6,38.4,23.6-2.2,41.6-11.8,53.7-28.4,26.2-36.1,20.1-97.3,10.1-142.9l-100.9-3.1c.5,10.2.6,48.4-23.2,52.5-8.6,1.5-18.8-.6-20.8-8.8-3.2-13.3-16.2-25.2-28.9-26.6-7.1-.8-17.2,1.4-24.3,16.1-7.1,14.6-6.9,27.2.3,37.5,9.7,13.7,30.5,20.4,45,18.8.1.1.2.1.2.1h0Z"/><path class="cls-7" d="M1442.79,922.13c-.9,0-1.7-.5-2-1.3-3.9-9.3-11.9-16.8-21.4-20.1-1.2-.4-1.8-1.6-1.4-2.8.4-1.1,1.7-1.8,2.8-1.4,10.7,3.7,19.7,12.1,24,22.5.5,1.1-.1,2.4-1.2,2.9-.3.1-.6.2-.8.2Z"/></g></g></g></g></svg>