<svg xmlns="http://www.w3.org/2000/svg" style="display: none;">
    <symbol id="usa-da-building-mag" viewBox="0 0 82 67">
        <path fill="#5B616B" fill-rule="evenodd" d="M-.185 14.67h40.46v50.12H-.185V14.67zm3.678 3.608v42.904h33.103V18.278H3.493zm3.678 3.608h3.68v3.61H7.17v-3.61zm7.36 0h3.68v3.61h-3.68v-3.61zm7.36 0h3.68v3.61h-3.68v-3.61zm7.36 0h3.68v3.61h-3.68v-3.61zM7.17 29.104h3.68v3.61H7.17v-3.61zm7.357 0h3.678v3.61h-3.678v-3.61zm7.356 0h3.68v3.61h-3.68v-3.61zm7.357 0h3.678v3.61H29.24v-3.61zM7.17 36.32h3.68v3.61H7.17v-3.61zm7.357 0h3.678v3.61h-3.678v-3.61zm7.356 0h3.68v3.61h-3.68v-3.61zm7.357 0h3.678v3.61H29.24v-3.61zM7.17 43.54h3.68v3.607H7.17V43.54zm7.357 0h3.678v3.607h-3.678V43.54zm7.356 0h3.68v3.607h-3.68V43.54zm7.357 0h3.678v3.607H29.24V43.54zM7.17 50.755h3.68v3.61H7.17v-3.61zm22.07 0h3.678v3.61H29.24v-3.61zm-14.713 3.61h11.035v6.816H14.527v-6.81z" />
        <g fill="none" fill-rule="evenodd" transform="translate(20 -1)">
            <ellipse cx="24.135" cy="24.391" fill="#D6D7D9" rx="19.258" ry="18.895" />
            <path fill="#7E9BA7" d="M39.987 24.346c0-4.276-1.453-7.84-4.48-10.81C32.48 10.566 28.85 9.14 24.49 9.14c-4.237 0-7.87 1.428-10.896 4.397-3.027 2.97-4.6 6.534-4.6 10.81 0 4.158 1.573 7.722 4.6 10.69 3.027 2.97 6.66 4.515 10.896 4.515 4.36 0 7.99-1.543 11.018-4.513 3.026-2.97 4.48-6.54 4.48-10.69zm13.84 34.945L38.703 44.44c-4.146 2.873-8.78 4.31-13.9 4.31-3.293 0-6.464-.598-9.512-1.916-3.05-1.317-5.61-2.994-7.8-5.15-2.19-2.155-3.9-4.67-5.24-7.665-1.22-3-1.95-6.11-1.95-9.35 0-3.36.73-6.47 1.95-9.34 1.34-3 3.05-5.63 5.25-7.79 2.19-2.16 4.75-3.83 7.8-5.15C18.34 1.2 21.51.6 24.8.6c3.416 0 6.587.6 9.635 1.8 2.927 1.318 5.61 2.995 7.805 5.15 2.195 2.156 3.903 4.79 5.244 7.785 1.22 2.874 1.95 5.988 1.95 9.342 0 5.03-1.462 9.58-4.39 13.65l15.062 14.79-6.28 6.16z" />
            <path fill="#5B616B" d="M23.562 32.93v-1.89c-.565-.062-1.16-.216-1.78-.462-.624-.245-1.16-.57-1.61-.973l1.233-1.87c.488.365.953.64 1.396.822.45.182.9.274 1.36.274.54 0 .94-.1 1.19-.32.25-.21.38-.54.38-.98 0-.33-.12-.6-.37-.83-.25-.22-.563-.44-.942-.65-.38-.2-.786-.41-1.222-.62-.435-.2-.842-.45-1.22-.74-.38-.29-.693-.63-.944-1.02-.25-.39-.376-.87-.376-1.434 0-.93.26-1.703.78-2.313.52-.61 1.235-1.007 2.146-1.18v-1.95h1.87v1.91c.613.085 1.153.27 1.62.545.46.278.88.61 1.25 1l-1.43 1.59c-.346-.315-.68-.55-1-.708-.322-.16-.69-.237-1.1-.237-.46 0-.814.097-1.06.286-.243.186-.365.495-.365.923 0 .3.125.557.376.765.25.206.565.404.94.593.38.19.79.38 1.22.583.44.205.85.45 1.228.74.38.29.694.64.945 1.05.25.408.376.915.376 1.52 0 .907-.25 1.685-.75 2.33-.5.65-1.25 1.08-2.252 1.298v1.968h-1.88z" />
        </g>
    </symbol>
    <symbol id="usa-da-treemap-mag" viewBox="0 0 82 67">
        <g fill="none" fill-rule="evenodd">
            <path fill="#5B616B" d="M0 23.582h45.93v41.01H0v-41.01zm18.47 0h2.497v41.01H18.47v-41.01zm0 20.505H0v2.77h18.47v-2.77zm18.473 7.204H20.967v2.78h15.976V51.3zm0-27.7h2.496V64.6h-2.5V23.59zm8.987 31.03h-6.49v2.77h6.49v-2.77zm0-10.53v-2.77h-6.49v2.77h6.49z" />
            <g transform="translate(21.25)">
                <ellipse cx="24.057" cy="23.612" fill="#D6D7D9" rx="19.258" ry="18.895" />
                <path fill="#7F9BA7" d="M39.694 23.74c0-4.275-1.453-7.84-4.48-10.81-3.026-2.968-6.658-4.394-11.017-4.394-4.237 0-7.87 1.426-10.896 4.395-3.02 2.97-4.6 6.54-4.6 10.81 0 4.16 1.58 7.73 4.6 10.7 3.03 2.97 6.66 4.52 10.9 4.52 4.36 0 7.99-1.54 11.02-4.51 3.03-2.97 4.48-6.532 4.48-10.69zm13.84 34.946L38.41 43.834c-4.145 2.874-8.78 4.312-13.9 4.312-3.292 0-6.463-.6-9.51-1.917-3.05-1.32-5.61-3-7.806-5.15C5 38.92 3.292 36.41 1.95 33.41.733 30.42 0 27.306 0 24.072c0-3.353.732-6.47 1.95-9.34C3.293 11.74 5 9.102 7.195 6.947 9.39 4.79 11.95 3.114 15 1.797 18.046.6 21.217 0 24.51 0c3.414 0 6.585.6 9.633 1.796 2.927 1.318 5.61 2.995 7.804 5.15 2.195 2.156 3.903 4.79 5.244 7.785 1.22 2.88 1.96 5.99 1.96 9.35 0 5.03-1.46 9.58-4.39 13.66l15.06 14.79-6.28 6.17z" />
            </g>
            <path fill="#5B616B" d="M44.52 32.326v-1.89c-.566-.063-1.16-.217-1.782-.463-.623-.245-1.16-.57-1.608-.973l1.232-1.87c.488.365.953.64 1.396.82.443.184.896.275 1.358.275.54 0 .934-.107 1.184-.32.25-.215.376-.542.376-.983 0-.328-.125-.605-.376-.832-.25-.226-.565-.444-.943-.652-.38-.207-.787-.415-1.223-.623-.437-.208-.844-.457-1.223-.746-.37-.29-.69-.63-.94-1.03-.25-.39-.37-.87-.37-1.44 0-.93.26-1.71.78-2.32.52-.61 1.24-1.006 2.15-1.18v-1.94h1.87v1.91c.62.084 1.16.27 1.62.544.46.277.88.61 1.25 1l-1.42 1.59c-.342-.316-.68-.55-1-.71-.32-.157-.684-.235-1.095-.235-.46 0-.814.1-1.06.29-.242.19-.364.5-.364.927 0 .302.125.557.376.765.25.21.567.405.945.594.38.19.787.385 1.223.586.437.204.844.45 1.223.74.38.29.693.64.944 1.05.25.407.37.914.37 1.52 0 .906-.25 1.684-.75 2.332-.5.65-1.25 1.08-2.25 1.295v1.97h-1.87z" />
        </g>
    </symbol>
    <symbol id="usa-da-api-plug" viewBox="-3 -1 107 45">
        <g fill="none" fill-rule="evenodd" transform="rotate(-180 52 21)">
            <path fill="#5B616B" d="M59.562 8.463v25.105c6.955 0 12.594-5.62 12.594-12.553 0-6.932-5.64-12.552-12.594-12.552z" />
            <path fill="#5B616B" d="M64.224 26.854h-14.11V23.45h14.11zm0-8.424h-14.11v-3.405h14.11z" />
            <path stroke="#5B616B" stroke-width="6" d="M103.485 21.476H66.34" stroke-linecap="square" />
            <rect width="40.632" height="41.539" fill="#7F9BA7" transform="rotate(-180 20.316 20.77)" rx="8" />
        </g>
    </symbol>
    <symbol id="usa-da-learn-question" viewBox="0 0 82 70">
        <g fill="none" fill-rule="evenodd" transform="translate(5 5)">
            <ellipse cx="28.357" cy="29.607" fill="#5B616B" stroke="#7F9BA7" stroke-width="10" rx="28.114" ry="29.5" />
            <path fill="#D6D7D9" d="M28.357 56.214C14.353 56.214 3 44.302 3 29.607 3 14.912 14.353 3 28.357 3c14.005 0 25.358 11.912 25.358 26.607 0 14.695-11.353 26.607-25.358 26.607zM15.68 19.737l6.134 4.72s4.368-6.926 8.18-3.862c4.206 3.35.054 4.94-2.864 6.866-3.407 2.03-3.942 3.913-4.09 9.014 3.01.008 5.777 0 8.59 0 .997-6.162 9.052-5.797 8.997-13.303-.056-7.575-6.507-11.697-13.497-11.586-6.71.115-11.45 8.154-11.45 8.154zm7.36 19.31v8.584h8.59v-8.58h-8.59z" />
        </g>
    </symbol>
</svg>