<svg xmlns="http://www.w3.org/2000/svg" style="display: none;">
    <symbol id="usa-da-building-mag" viewBox="0 0 82 67">
        <g fill="none" fill-rule="evenodd">
            <path d="M.087 15.064h40.46v50.12H.086v-50.12zm3.678 3.61v42.902h33.103V18.673H3.765zm3.678 3.607h3.678v3.61H7.444v-3.61zm7.356 0h3.677v3.61H14.8v-3.61zm7.355 0h3.68v3.61h-3.68v-3.61zm7.357 0h3.678v3.61h-3.678v-3.61zM7.442 29.5h3.68v3.607H7.44V29.5zm7.357 0h3.677v3.607H14.8V29.5zm7.355 0h3.68v3.607h-3.68V29.5zm7.357 0h3.678v3.607h-3.678V29.5zm-22.07 7.216h3.68v3.61H7.44v-3.61zm7.357 0h3.677v3.61H14.8v-3.61zm7.355 0h3.68v3.61h-3.68v-3.61zm7.357 0h3.678v3.61h-3.678v-3.61zm-22.07 7.218h3.68v3.608H7.44v-3.608zm7.357 0h3.677v3.608H14.8v-3.608zm7.355 0h3.68v3.608h-3.68v-3.608zm7.357 0h3.678v3.608h-3.678v-3.608zM7.442 51.15h3.68v3.61H7.44v-3.61zm22.07 0h3.678v3.61h-3.678v-3.61zM14.8 54.76h11.034v6.816H14.8V54.76z" fill="#757575" />
            <ellipse fill="#f1f1f1" cx="44.407" cy="23.786" rx="19.258" ry="18.895" />
            <path d="M60.26 23.74c0-4.275-1.454-7.84-4.48-10.81-3.027-2.968-6.66-4.394-11.018-4.394-4.237 0-7.87 1.426-10.896 4.395-3.027 2.97-4.6 6.535-4.6 10.81 0 4.16 1.573 7.723 4.6 10.692 3.027 2.97 6.66 4.514 10.896 4.514 4.36 0 7.99-1.544 11.018-4.514 3.026-2.97 4.48-6.533 4.48-10.69zm13.838 34.946L58.976 43.834c-4.146 2.874-8.78 4.312-13.9 4.312-3.293 0-6.464-.6-9.512-1.917-3.05-1.318-5.61-2.995-7.804-5.15-2.195-2.156-3.903-4.67-5.244-7.666-1.22-2.994-1.95-6.108-1.95-9.34 0-3.355.73-6.47 1.95-9.343 1.34-2.993 3.05-5.628 5.244-7.784 2.194-2.155 4.755-3.832 7.804-5.15C38.612.6 41.784 0 45.074 0c3.415 0 6.586.6 9.634 1.796 2.927 1.318 5.61 2.995 7.805 5.15 2.194 2.156 3.902 4.79 5.243 7.785 1.22 2.875 1.95 5.99 1.95 9.343 0 5.03-1.462 9.58-4.39 13.653L80.38 52.518l-6.28 6.168z" fill="#0071bc" />
            <path d="M43.834 32.326v-1.89c-.565-.063-1.16-.217-1.78-.463-.624-.245-1.16-.57-1.61-.973l1.233-1.87c.488.365.953.64 1.396.82.443.184.896.275 1.358.275.54 0 .935-.107 1.185-.32.25-.215.376-.542.376-.983 0-.328-.124-.605-.375-.832-.25-.226-.564-.444-.943-.652-.38-.207-.787-.415-1.223-.623-.438-.208-.845-.457-1.224-.746-.38-.29-.693-.63-.944-1.022-.25-.39-.375-.87-.375-1.436 0-.932.26-1.704.78-2.315.52-.61 1.236-1.004 2.147-1.18V16.17h1.868v1.91c.616.087 1.156.27 1.618.547.462.277.88.61 1.252 1l-1.426 1.588c-.346-.315-.68-.55-1-.708-.322-.158-.688-.236-1.1-.236-.46 0-.814.095-1.058.284-.244.19-.366.498-.366.926 0 .302.125.557.376.765.25.208.565.406.943.595.38.19.788.385 1.224.586.437.202.844.447 1.223.737.38.29.693.64.944 1.05.25.408.376.915.376 1.52 0 .907-.25 1.685-.75 2.333-.5.65-1.252 1.08-2.254 1.295v1.966h-1.868z" fill="#757575" />
        </g>
    </symbol>
    <symbol id="usa-da-treemap-mag" viewBox="0 0 82 66">
        <g fill="none" fill-rule="evenodd">
            <path d="M0 23.582h45.93v41.01H0v-41.01zm18.47 0h2.497v41.01H18.47v-41.01zm0 20.505H0v2.77h18.47v-2.77zm18.473 7.204H20.967v2.772h15.976v-2.77zm0-27.708h2.496v41.01h-2.497v-41.01zm8.986 31.034h-6.49v2.77h6.49v-2.77zm0-10.53v-2.77h-6.49v2.77h6.49z" fill="#757575" />
            <g transform="translate(21.25)">
                <ellipse fill="#f1f1f1" cx="24.057" cy="23.612" rx="19.258" ry="18.895" />
                <path d="M39.694 23.74c0-4.275-1.453-7.84-4.48-10.81-3.026-2.968-6.658-4.394-11.017-4.394-4.237 0-7.87 1.426-10.896 4.395-3.026 2.97-4.6 6.535-4.6 10.81 0 4.16 1.574 7.723 4.6 10.692 3.028 2.97 6.66 4.514 10.897 4.514 4.36 0 7.99-1.544 11.018-4.514 3.026-2.97 4.48-6.533 4.48-10.69zm13.84 34.946L38.41 43.834c-4.145 2.874-8.78 4.312-13.9 4.312-3.292 0-6.463-.6-9.51-1.917-3.05-1.318-5.61-2.995-7.806-5.15C5 38.923 3.292 36.41 1.95 33.413.733 30.42 0 27.306 0 24.074c0-3.355.732-6.47 1.95-9.343C3.293 11.738 5 9.103 7.195 6.947 9.39 4.79 11.95 3.114 15 1.796 18.046.6 21.217 0 24.51 0c3.414 0 6.585.6 9.633 1.796 2.927 1.318 5.61 2.995 7.804 5.15 2.195 2.156 3.903 4.79 5.244 7.785 1.22 2.875 1.952 5.99 1.952 9.343 0 5.03-1.463 9.58-4.39 13.653l15.06 14.792-6.28 6.168z" fill="#0071bc" />
            </g>
            <path d="M44.52 32.326v-1.89c-.566-.063-1.16-.217-1.782-.463-.623-.245-1.16-.57-1.608-.973l1.232-1.87c.488.365.953.64 1.396.82.443.184.896.275 1.358.275.54 0 .934-.107 1.184-.32.25-.215.376-.542.376-.983 0-.328-.125-.605-.376-.832-.25-.226-.565-.444-.943-.652-.38-.207-.787-.415-1.223-.623-.437-.208-.844-.457-1.223-.746-.378-.29-.692-.63-.943-1.022-.25-.39-.375-.87-.375-1.436 0-.932.26-1.704.78-2.315.52-.61 1.235-1.004 2.147-1.18V16.17h1.867v1.91c.616.087 1.155.27 1.618.547.462.277.88.61 1.25 1l-1.424 1.588c-.345-.315-.68-.55-1-.708-.32-.158-.687-.236-1.098-.236-.462 0-.815.095-1.06.284-.243.19-.365.498-.365.926 0 .302.125.557.376.765.25.208.565.406.943.595.38.19.787.385 1.223.586.436.202.843.447 1.222.737.38.29.693.64.944 1.05.25.408.375.915.375 1.52 0 .907-.25 1.685-.75 2.333-.5.65-1.252 1.08-2.253 1.295v1.966H44.52z" fill="#757575" />
        </g>
    </symbol>
    <symbol id="usa-da-api-plug" viewBox="-3 -1 107 45">
        <g fill="none" fill-rule="evenodd" transform="translate(0 5) rotate(-180 52 21)">
            <path d="M59.562 8.463v25.105c6.955 0 12.594-5.62 12.594-12.553 0-6.932-5.64-12.552-12.594-12.552z" fill="#757575" />
            <g fill="#757575">
                <path d="M64.224 26.854h-14.11V23.45h14.11zM64.224 18.43h-14.11v-3.405h14.11z" />
            </g>
            <path d="M103.485 21.476H66.34" stroke="#757575" stroke-width="6" stroke-linecap="square" />
            <rect fill="#0071bc" transform="rotate(-180 20.316 20.77)" width="40.632" height="41.539" rx="8" />
        </g>
    </symbol>
    <symbol id="usa-da-learn-question" viewBox="0 0 82 70">
        <g fill="none" fill-rule="evenodd" transform="translate(12 8)">
            <ellipse stroke="#0071bc" stroke-width="10" fill="#757575" cx="28.357" cy="29.607" rx="28.114" ry="29.5" />
            <path d="M28.357 56.214C14.353 56.214 3 44.302 3 29.607 3 14.912 14.353 3 28.357 3c14.005 0 25.358 11.912 25.358 26.607 0 14.695-11.353 26.607-25.358 26.607zM15.68 19.737l6.134 4.72s4.368-6.926 8.18-3.862c4.206 3.35.054 4.94-2.864 6.866-3.407 2.03-3.942 3.912-4.09 9.013 3.01.008 5.777 0 8.59 0 .997-6.162 9.052-5.797 8.997-13.303-.056-7.576-6.507-11.698-13.497-11.587-6.71.115-11.45 8.154-11.45 8.154zm7.36 19.31v8.584h8.59V39.05h-8.59z" fill="#f1f1f1" />
        </g>
    </symbol>
</svg>
