<svg xmlns="http://www.w3.org/2000/svg" style="display: none;">
    <symbol id="usa-da-building-mag" viewBox="0 0 366 300">
        <g id="icons-profiles">
            <g>
                <path d="M0,69 L186,69 L186,300 L0,300 L0,69 Z M16.9090909,85.632 L16.9090909,283.368 L169.090909,283.368 L169.090909,85.632 L16.9090909,85.632 Z M33.8181818,102.264 L50.7272727,102.264 L50.7272727,118.896 L33.8181818,118.896 L33.8181818,102.264 Z M67.6363636,102.264 L84.5454545,102.264 L84.5454545,118.896 L67.6363636,118.896 L67.6363636,102.264 Z M101.454545,102.264 L118.363636,102.264 L118.363636,118.896 L101.454545,118.896 L101.454545,102.264 Z M135.272727,102.264 L152.181818,102.264 L152.181818,118.896 L135.272727,118.896 L135.272727,102.264 Z M33.8181818,135.528 L50.7272727,135.528 L50.7272727,152.16 L33.8181818,152.16 L33.8181818,135.528 Z M67.6363636,135.528 L84.5454545,135.528 L84.5454545,152.16 L67.6363636,152.16 L67.6363636,135.528 Z M101.454545,135.528 L118.363636,135.528 L118.363636,152.16 L101.454545,152.16 L101.454545,135.528 Z M135.272727,135.528 L152.181818,135.528 L152.181818,152.16 L135.272727,152.16 L135.272727,135.528 Z M33.8181818,168.792 L50.7272727,168.792 L50.7272727,185.424 L33.8181818,185.424 L33.8181818,168.792 Z M67.6363636,168.792 L84.5454545,168.792 L84.5454545,185.424 L67.6363636,185.424 L67.6363636,168.792 Z M101.454545,168.792 L118.363636,168.792 L118.363636,185.424 L101.454545,185.424 L101.454545,168.792 Z M135.272727,168.792 L152.181818,168.792 L152.181818,185.424 L135.272727,185.424 L135.272727,168.792 Z M33.8181818,202.056 L50.7272727,202.056 L50.7272727,218.688 L33.8181818,218.688 L33.8181818,202.056 Z M67.6363636,202.056 L84.5454545,202.056 L84.5454545,218.688 L67.6363636,218.688 L67.6363636,202.056 Z M101.454545,202.056 L118.363636,202.056 L118.363636,218.688 L101.454545,218.688 L101.454545,202.056 Z M135.272727,202.056 L152.181818,202.056 L152.181818,218.688 L135.272727,218.688 L135.272727,202.056 Z M33.8181818,235.32 L50.7272727,235.32 L50.7272727,251.952 L33.8181818,251.952 L33.8181818,235.32 Z M135.272727,235.32 L152.181818,235.32 L152.181818,251.952 L135.272727,251.952 L135.272727,235.32 Z M67.6363636,251.952 L118.363636,251.952 L118.363636,283.368 L67.6363636,283.368 L67.6363636,251.952 Z" id="Combined-Shape-Copy-4" fill="#FFFFFF" fill-rule="nonzero"></path>
                <ellipse id="Oval-3" fill="#FFFFFF" fill-rule="nonzero" cx="202.5" cy="105" rx="88.5" ry="87"></ellipse>
                <g id="Shape-Copy-12" transform="translate(93.000000, 0.000000)">
                    <g id="path-1-link" fill="#0071BC">
                        <path d="M181.172727,109.227273 C181.172727,89.5525568 174.541619,73.1569602 160.726811,59.4939631 C146.912003,45.8309659 130.334233,39.2727273 110.440909,39.2727273 C91.100178,39.2727273 74.522408,45.8309659 60.707599,59.4939631 C46.892791,73.1569602 39.709091,89.5525568 39.709091,109.227273 C39.709091,128.355469 46.892791,144.751065 60.707599,158.414063 C74.522408,172.07706 91.100178,179.181818 110.440909,179.181818 C130.334233,179.181818 146.912003,172.07706 160.726811,158.414063 C174.541619,144.751065 181.172727,128.355469 181.172727,109.227273 Z M244.337061,270 L175.317005,201.668753 C156.3939,214.892934 135.244547,221.505024 111.868946,221.505024 C96.841774,221.505024 82.371164,218.749986 68.457116,212.688903 C54.543068,206.627821 42.855268,198.913715 32.837153,188.99558 C22.819039,179.077445 15.027172,167.506287 8.904991,153.731099 C3.3393715,139.955911 0,125.629715 0,110.752512 C0,95.3243013 3.3393715,80.9981057 8.904991,67.7739252 C15.027172,53.9987372 22.819039,41.8765717 32.837153,31.9584363 C42.855268,22.0403009 54.543068,14.3261956 68.457116,8.26511283 C82.371164,2.75503761 96.841774,0 111.868946,0 C127.45268,0 141.92329,2.75503761 155.837338,8.26511283 C169.194824,14.3261956 181.439186,22.0403009 191.457301,31.9584363 C201.475415,41.8765717 209.267282,53.9987372 215.389463,67.7739252 C220.955083,80.9981057 224.294454,95.3243013 224.294454,110.752512 C224.294454,133.894828 217.615711,154.833114 204.258225,173.567369 L273,241.623113 L244.337061,270 Z" id="path-1"></path>
                    </g>
                    <path d="M181.172727,109.227273 C181.172727,89.5525568 174.541619,73.1569602 160.726811,59.4939631 C146.912003,45.8309659 130.334233,39.2727273 110.440909,39.2727273 C91.100178,39.2727273 74.522408,45.8309659 60.707599,59.4939631 C46.892791,73.1569602 39.709091,89.5525568 39.709091,109.227273 C39.709091,128.355469 46.892791,144.751065 60.707599,158.414063 C74.522408,172.07706 91.100178,179.181818 110.440909,179.181818 C130.334233,179.181818 146.912003,172.07706 160.726811,158.414063 C174.541619,144.751065 181.172727,128.355469 181.172727,109.227273 Z M244.337061,270 L175.317005,201.668753 C156.3939,214.892934 135.244547,221.505024 111.868946,221.505024 C96.841774,221.505024 82.371164,218.749986 68.457116,212.688903 C54.543068,206.627821 42.855268,198.913715 32.837153,188.99558 C22.819039,179.077445 15.027172,167.506287 8.904991,153.731099 C3.3393715,139.955911 0,125.629715 0,110.752512 C0,95.3243013 3.3393715,80.9981057 8.904991,67.7739252 C15.027172,53.9987372 22.819039,41.8765717 32.837153,31.9584363 C42.855268,22.0403009 54.543068,14.3261956 68.457116,8.26511283 C82.371164,2.75503761 96.841774,0 111.868946,0 C127.45268,0 141.92329,2.75503761 155.837338,8.26511283 C169.194824,14.3261956 181.439186,22.0403009 191.457301,31.9584363 C201.475415,41.8765717 209.267282,53.9987372 215.389463,67.7739252 C220.955083,80.9981057 224.294454,95.3243013 224.294454,110.752512 C224.294454,133.894828 217.615711,154.833114 204.258225,173.567369 L273,241.623113 L244.337061,270 Z" id="Shape"></path>
                </g>
                <path d="M199,147 L199,138.22807 C196.33332,137.935671 193.530318,137.219304 190.590909,136.078947 C187.6515,134.938591 185.121223,133.432758 183,131.561404 L188.818182,122.877193 C191.121224,124.573108 193.318171,125.845025 195.409091,126.692982 C197.50001,127.54094 199.636353,127.964912 201.818182,127.964912 C204.363649,127.964912 206.227267,127.467841 207.409091,126.473684 C208.590915,125.479527 209.181818,123.959075 209.181818,121.912281 C209.181818,120.391805 208.590915,119.105268 207.409091,118.052632 C206.227267,116.999995 204.742433,115.991233 202.954545,115.026316 C201.166658,114.061399 199.242435,113.096496 197.181818,112.131579 C195.121202,111.166662 193.196979,110.011703 191.409091,108.666667 C189.621203,107.321631 188.13637,105.742699 186.954545,103.929825 C185.772721,102.11695 185.181818,99.89475 185.181818,97.2631579 C185.181818,92.9356509 186.409079,89.3538154 188.863636,86.5175439 C191.318194,83.6812724 194.696948,81.8538053 199,81.0350877 L199,72 L207.818182,72 L207.818182,80.8596491 C210.727287,81.2690079 213.272716,82.1169526 215.454545,83.4035088 C217.636375,84.6900649 219.606052,86.239757 221.363636,88.0526316 L214.636364,95.4210526 C212.999992,93.959057 211.42425,92.8625768 209.909091,92.1315789 C208.393932,91.4005811 206.666676,91.0350877 204.727273,91.0350877 C202.545444,91.0350877 200.878794,91.4736798 199.727273,92.3508772 C198.575752,93.2280746 198,94.6608088 198,96.6491228 C198,98.0526386 198.590903,99.2368373 199.772727,100.201754 C200.954551,101.166671 202.439385,102.087715 204.227273,102.964912 C206.01516,103.84211 207.939384,104.748533 210,105.684211 C212.060616,106.619888 213.98484,107.760227 215.772727,109.105263 C217.560615,110.450299 219.045449,112.07309 220.227273,113.973684 C221.409097,115.874279 222,118.228056 222,121.035088 C222,125.245635 220.818194,128.85671 218.454545,131.868421 C216.090897,134.880132 212.545478,136.883036 207.818182,137.877193 L207.818182,147 L199,147 Z" id="$" fill="#5B616B" fill-rule="nonzero"></path>
            </g>
        </g>
    </symbol>
    <symbol id="usa-da-treemap-mag" viewBox="0 0 82 66">
        <g fill="none" fill-rule="evenodd">
            <path d="M0 23.582h45.93v41.01H0v-41.01zm18.47 0h2.497v41.01H18.47v-41.01zm0 20.505H0v2.77h18.47v-2.77zm18.473 7.204H20.967v2.772h15.976v-2.77zm0-27.708h2.496v41.01h-2.497v-41.01zm8.986 31.034h-6.49v2.77h6.49v-2.77zm0-10.53v-2.77h-6.49v2.77h6.49z" fill="#757575" />
            <g transform="translate(21.25)">
                <ellipse fill="#f1f1f1" cx="24.057" cy="23.612" rx="19.258" ry="18.895" />
                <path d="M39.694 23.74c0-4.275-1.453-7.84-4.48-10.81-3.026-2.968-6.658-4.394-11.017-4.394-4.237 0-7.87 1.426-10.896 4.395-3.026 2.97-4.6 6.535-4.6 10.81 0 4.16 1.574 7.723 4.6 10.692 3.028 2.97 6.66 4.514 10.897 4.514 4.36 0 7.99-1.544 11.018-4.514 3.026-2.97 4.48-6.533 4.48-10.69zm13.84 34.946L38.41 43.834c-4.145 2.874-8.78 4.312-13.9 4.312-3.292 0-6.463-.6-9.51-1.917-3.05-1.318-5.61-2.995-7.806-5.15C5 38.923 3.292 36.41 1.95 33.413.733 30.42 0 27.306 0 24.074c0-3.355.732-6.47 1.95-9.343C3.293 11.738 5 9.103 7.195 6.947 9.39 4.79 11.95 3.114 15 1.796 18.046.6 21.217 0 24.51 0c3.414 0 6.585.6 9.633 1.796 2.927 1.318 5.61 2.995 7.804 5.15 2.195 2.156 3.903 4.79 5.244 7.785 1.22 2.875 1.952 5.99 1.952 9.343 0 5.03-1.463 9.58-4.39 13.653l15.06 14.792-6.28 6.168z" fill="#0071bc" />
            </g>
            <path d="M44.52 32.326v-1.89c-.566-.063-1.16-.217-1.782-.463-.623-.245-1.16-.57-1.608-.973l1.232-1.87c.488.365.953.64 1.396.82.443.184.896.275 1.358.275.54 0 .934-.107 1.184-.32.25-.215.376-.542.376-.983 0-.328-.125-.605-.376-.832-.25-.226-.565-.444-.943-.652-.38-.207-.787-.415-1.223-.623-.437-.208-.844-.457-1.223-.746-.378-.29-.692-.63-.943-1.022-.25-.39-.375-.87-.375-1.436 0-.932.26-1.704.78-2.315.52-.61 1.235-1.004 2.147-1.18V16.17h1.867v1.91c.616.087 1.155.27 1.618.547.462.277.88.61 1.25 1l-1.424 1.588c-.345-.315-.68-.55-1-.708-.32-.158-.687-.236-1.098-.236-.462 0-.815.095-1.06.284-.243.19-.365.498-.365.926 0 .302.125.557.376.765.25.208.565.406.943.595.38.19.787.385 1.223.586.436.202.843.447 1.222.737.38.29.693.64.944 1.05.25.408.375.915.375 1.52 0 .907-.25 1.685-.75 2.333-.5.65-1.252 1.08-2.253 1.295v1.966H44.52z" fill="#757575" />
        </g>
    </symbol>
    <symbol id="usa-da-api-plug" viewBox="-3 -1 107 45">
        <g fill="none" fill-rule="evenodd" transform="translate(0 5) rotate(-180 52 21)">
            <path d="M59.562 8.463v25.105c6.955 0 12.594-5.62 12.594-12.553 0-6.932-5.64-12.552-12.594-12.552z" fill="#757575" />
            <g fill="#757575">
                <path d="M64.224 26.854h-14.11V23.45h14.11zM64.224 18.43h-14.11v-3.405h14.11z" />
            </g>
            <path d="M103.485 21.476H66.34" stroke="#757575" stroke-width="6" stroke-linecap="square" />
            <rect fill="#0071bc" transform="rotate(-180 20.316 20.77)" width="40.632" height="41.539" rx="8" />
        </g>
    </symbol>
    <symbol id="usa-da-learn-question" viewBox="0 0 82 70">
        <g fill="none" fill-rule="evenodd" transform="translate(12 8)">
            <ellipse stroke="#0071bc" stroke-width="10" fill="#757575" cx="28.357" cy="29.607" rx="28.114" ry="29.5" />
            <path d="M28.357 56.214C14.353 56.214 3 44.302 3 29.607 3 14.912 14.353 3 28.357 3c14.005 0 25.358 11.912 25.358 26.607 0 14.695-11.353 26.607-25.358 26.607zM15.68 19.737l6.134 4.72s4.368-6.926 8.18-3.862c4.206 3.35.054 4.94-2.864 6.866-3.407 2.03-3.942 3.912-4.09 9.013 3.01.008 5.777 0 8.59 0 .997-6.162 9.052-5.797 8.997-13.303-.056-7.576-6.507-11.698-13.497-11.587-6.71.115-11.45 8.154-11.45 8.154zm7.36 19.31v8.584h8.59V39.05h-8.59z" fill="#f1f1f1" />
        </g>
    </symbol>
    <symbol id="usa-da-explorer" viewBox="0 0 258 348">
        <g id="icons-explorer">
            <g>
                <path d="M0,0 L255,0 L255,227.692003 L0,227.692003 L0,0 Z M102.554348,0 L102.554348,227.692003 L116.413043,227.692003 L116.413043,0 L102.554348,0 Z M102.554348,113.846002 L0,113.846002 L0,129.230597 L102.554348,129.230597 L102.554348,113.846002 Z M205.108696,153.845948 L116.413043,153.845948 L116.413043,169.230543 L205.108696,169.230543 L205.108696,153.845948 Z M205.108696,0 L205.108696,227.692003 L218.967391,227.692003 L218.967391,0 L205.108696,0 Z M255,172.307462 L218.967391,172.307462 L218.967391,187.692057 L255,187.692057 L255,172.307462 Z M255,113.846002 L255,98.4614069 L218.967391,98.4614069 L218.967391,113.846002 L255,113.846002 Z" id="Combined-Shape-Copy-14" fill="#FFFFFF" fill-rule="nonzero"></path>
                <g id="Combined-Shape" transform="translate(63.000000, 168.000000)">
                    <g id="path-1-link" fill="#0071BC">
                        <polygon id="path-1" points="52.990954 95.954769 0 95.954769 97.5 180 195 95.954769 142.615665 95.954769 142.615665 0 52.990954 0"></polygon>
                    </g>
                    <polygon id="Shape" stroke="#FFFFFF" stroke-width="9" points="12.112617 100.454769 97.5 174.058895 182.887383 100.454769 138.115665 100.454769 138.115665 4.5 57.490954 4.5 57.490954 100.454769"></polygon>
                </g>
            </g>
        </g>
    </symbol>
    <symbol id="usa-da-award-search" viewBox="0 0 366 231">
        <g id="icons-award_search" fill-rule="nonzero">
            <g>
                <path d="M92.1969105,231 L357,231 C361.970563,231 366,226.970563 366,222 L366,53.7209302 L92.1969105,53.7209302 L92.1969105,231 Z M81.4527245,231 L9,231 L9,231 C4.02943725,231 6.08718376e-16,226.970563 0,222 L0,53.7209302 L81.4527245,53.7209302 L81.4527245,231 Z M366,42.9767442 L366,9 C366,4.02943725 361.970563,-9.13077564e-16 357,0 L9,0 L9,0 C4.02943725,9.13077564e-16 -6.08718376e-16,4.02943725 0,9 L0,9 L0,42.9767442 L366,42.9767442 Z" id="Combined-Shape" fill="#FFFFFF"></path>
                <g id="Group-17" transform="translate(124.000000, 67.000000)" fill="#0071BC">
                    <g id="Group-14" transform="translate(0.336009, 0.720784)">
                        <rect id="Rectangle-33" x="-2.84217094e-14" y="17.9378698" width="37.9459268" height="49.329142" rx="9"></rect>
                        <rect id="Rectangle-33-Copy" x="55.8028335" y="-3.12638804e-13" width="37.9459268" height="69.5092456" rx="9"></rect>
                        <rect id="Rectangle-33-Copy-2" x="111.605667" y="33.6335059" width="37.9459268" height="35.8757396" rx="9"></rect>
                        <rect id="Rectangle-33-Copy-3" x="165.176387" y="11.2111686" width="37.9459268" height="56.0558432" rx="9"></rect>
                        <path d="M203.122314,89.6893491 L203.122314,89.6893491 L203.122314,89.6893491 C203.122314,92.1660521 201.11455,94.1738166 198.637847,94.1738166 L4.48446746,94.1738166 L4.48446746,94.1738166 C2.00776447,94.1738166 -1.39075461e-14,92.1660521 -1.42108547e-14,89.6893491 L-1.42108547e-14,89.6893491 L-1.42108547e-14,89.6893491 C-1.45141634e-14,87.2126461 2.00776447,85.2048817 4.48446746,85.2048817 L198.637847,85.2048817 L198.637847,85.2048817 C201.11455,85.2048817 203.122314,87.2126461 203.122314,89.6893491 Z" id="Rectangle-33-Copy-5"></path>
                        <path d="M102.677214,109.869453 L102.677214,109.869453 L102.677214,109.869453 C102.677214,112.346156 100.669449,114.35392 98.1927462,114.35392 L4.48446746,114.35392 L4.48446746,114.35392 C2.00776447,114.35392 -8.79017421e-15,112.346156 -7.99360578e-15,109.869453 L-7.623356e-15,109.869453 L-7.99360578e-15,109.869453 C-3.89740613e-15,107.39275 2.00776447,105.384985 4.48446746,105.384985 L98.1927462,105.384985 L98.1927462,105.384985 C100.669449,105.384985 102.677214,107.39275 102.677214,109.869453 Z" id="Rectangle-33-Copy-6"></path>
                        <path d="M75.8918536,132.29179 L75.8918536,132.29179 L75.8918536,132.29179 C75.8918536,134.768493 73.8840891,136.776257 71.4073861,136.776257 L4.48446746,136.776257 L4.48446746,136.776257 C2.00776447,136.776257 -1.39075461e-14,134.768493 -1.42108547e-14,132.29179 L-1.42108547e-14,132.29179 L-1.42108547e-14,132.29179 C-1.45141634e-14,129.815087 2.00776447,127.807322 4.48446746,127.807322 L71.4073861,127.807322 L71.4073861,127.807322 C73.8840891,127.807322 75.8918536,129.815087 75.8918536,132.29179 Z" id="Rectangle-33-Copy-7"></path>
                    </g>
                </g>
            </g>
        </g>
    </symbol>
</svg>
