<svg xmlns="http://www.w3.org/2000/svg" style="display: none;">
    <symbol id="usa-da-icon-lock" viewBox="0 0 512 512">
        <path d="M163 233.6h181.7v-68.4c0-24.7-8.7-46-27.5-63.3C300 84 278.8 74 254 74s-46 10-63.4 27.5c-18.8 17.7-27.6 39-27.6 63.5v68.4zM454 506H59V233.6h36.7v-68.4c-1-43.5 15.2-82 45-113.3 32-31 69-46 113.2-46 42 0 79 15 109 46 32 31 48 69.4 50 113v68.3h41V506z" />
    </symbol>
    <symbol id="usa-da-icon-unlock" viewBox="0 0 512 512">
        <path d="M506 181.4v77.2c0 3-4 18.4-29.6 18.4s-28.2-15.4-29.5-18.4v-77.2c1-24-6-41.8-23-54.6-14-16.6-32-25-55-27.3-19 2.3-38 10.7-54.6 27.3-13 12.8-20 30.7-18 54.6V236H351v231.7H6V236h231.8v-54.6c-.7-39.7 12-71.2 36.4-95.5 28-29 59.5-41 95.4-41 38.7 0 70.2 12 95.5 41 28 24 41 55 41 95z" />
    </symbol>
    <symbol id="usa-da-icon-user" viewBox="0 0 512 512">
        <path d="M397 374c72.7 24.8 109 46.5 109 64v56H6v-56c0-17.5 36.3-39.2 109-64 33-12.4 56-25 67.3-37.3 12.5-12.4 18.7-29 18.7-49.7 0-8.2-4-16.5-12.4-25.8-7.3-10.4-12.5-22.8-16.6-39.3-1-4.5-2-7.6-5.2-9.7-2-2-4.2-3-7.3-4-2-1-4-4.2-7.2-9.4-2-5-4.2-12.4-4.2-22.8 0-5.2 0-10.3 2.4-13.4 2-4.4 3-6.4 5.2-6.4l2-2c-3-17.7-5-33.2-6.2-46.7-2-19.7 5.2-39.4 21.8-60 15.7-19.7 43.7-30 83-30s67.5 10.3 84 30c16.7 20.6 23 40.3 21 60l-6.4 46.5c6.3 2 9.4 10.3 9.4 21.7 0 10.3-2.2 17.5-4.3 22.7-3 5.3-5 8.4-7.3 9.4-3 1-5.2 2-7.3 4-3 2.3-4 5.4-5.2 9.5-3 17.6-8.3 30-16.6 39.4-8.3 9.2-12.4 17.5-12.4 25.7 0 20.7 6.2 37.3 18.6 49.7C342 349 365 361.7 397 374" />
    </symbol>
    <symbol id="usa-da-icon-cloud-upload" viewBox="0 0 512 512">
        <path d="M484 277.5c-13.6-18.3-32.7-30-55.6-35.6 7.3-11 11-23 11-35.7 0-18.3-6.5-34.7-19.3-47.5-13.6-12.8-29-19.2-47.3-19.2-16.4 0-31 5.5-43 15.5-10.8-24.5-27.3-44.6-49.2-60.2C257.8 80.3 233.2 73 205.8 73c-36.5 0-68.4 12.8-94 38.3-26.5 26.5-39.2 57.5-39.2 95v11c-20 10-36.5 23.6-48.4 42.8C11.5 279.4 6 300.4 6 323c0 32 11 59.4 33.8 82.3C62.6 428 90 440 122.8 440h283.8c27.4 0 51-10 70.3-29.2 20-20 29-43.8 29-71.2 0-22.8-7.3-43.8-22-62zm-216-6.8v105h-60.4v-105H139l99-105 98.7 105H268z" />
    </symbol>
    <symbol id="usa-da-icon-cloud-download" viewBox="0 0 512 512">
        <path d="M506 339.6c0 27.4-9 51-29.2 71.2-19.2 19.2-43 29.2-70.3 29.2H122.8c-33 0-60.2-12-83-34.7C17 382.5 6 355 6 323c0-22.7 5.5-43.7 18.2-62.8 12-19.2 28.3-33 48.4-43v-11c0-37.3 12.8-68.4 39.2-95C137.4 86 169.3 73 205.8 73c27.4 0 52 7.3 74.8 22 22 15.4 38.4 35.5 49.3 60.2 11.6-10 26.2-15.6 42.6-15.6 18.2 0 33.7 6.4 47.4 19.2 13 12.8 19.3 29.2 19.3 47.5 0 12.8-3.7 24.6-11 35.6 23 5.2 42 17 55.7 35.3 14.7 18.3 22 39.3 22 62zm-268 44L336.5 279H139l99 105zM207.5 279H268V174h-60.4v105z" />
    </symbol>
    <symbol id="usa-da-icon-angle-down" viewBox="0 0 512 512">
        <path d="M77.2 143L255 303.7l179.7-160.2 71.3-.4-250.5 225.4L6 143.7" />
    </symbol>
    <symbol id="usa-da-icon-angle-left" viewBox="0 0 512 512">
        <path d="M368.5 77.2L208 255l160.2 179.7.4 71.3-225.2-250.5L368 6" />
    </symbol>
    <symbol id="usa-da-icon-angle-right" viewBox="0 0 512 512">
        <path d="M143.5 434.8L304 257 143.8 77.3 143.4 6l225.2 250.5L144 506" />
    </symbol>
    <symbol id="usa-da-icon-angle-up" viewBox="0 0 512 512">
        <path d="M434.8 368.5L257 208 77.3 368.2l-71.3.4 250.5-225.2L506 368" />
    </symbol>
    <symbol id="usa-da-icon-angle-down-circle" viewBox="0 0 60 60">
        <path d="M19.987 24.004l9.96 8.55 10.058-8.53L44 24 29.972 36 16 24.037" />
        <path d="M30 60C13.43 60 0 46.57 0 30S13.43 0 30 0s30 13.43 30 30-13.43 30-30 30zm0-1.2c15.906 0 28.8-12.894 28.8-28.8S45.906 1.2 30 1.2 1.2 14.094 1.2 30 14.094 58.8 30 58.8z" />
    </symbol>
    <symbol id="usa-da-icon-angle-left-circle" viewBox="0 0 60 60">
        <path d="M34.996 19.987l-8.55 9.96 8.53 10.058L35 44 23 29.972 34.963 16" />
        <path d="M30 60C13.43 60 0 46.57 0 30S13.43 0 30 0s30 13.43 30 30-13.43 30-30 30zm0-1.2c15.906 0 28.8-12.894 28.8-28.8S45.906 1.2 30 1.2 1.2 14.094 1.2 30 14.094 58.8 30 58.8z" />
    </symbol>
    <symbol id="usa-da-icon-angle-right-circle" viewBox="0 0 60 60">
        <path d="M26.004 19.987l8.55 9.96-8.53 10.058L26 44l12-14.028L26.037 16" />
        <path d="M30 60C13.43 60 0 46.57 0 30S13.43 0 30 0s30 13.43 30 30-13.43 30-30 30zm0-1.2c15.906 0 28.8-12.894 28.8-28.8S45.906 1.2 30 1.2 1.2 14.094 1.2 30 14.094 58.8 30 58.8z" />
    </symbol>
    <symbol id="usa-da-icon-angle-up-circle" viewBox="0 0 60 60">
        <path d="M19.987 35.996l9.96-8.55 10.058 8.53L44 36 29.972 24 16 35.963" />
        <path d="M30 60C13.43 60 0 46.57 0 30S13.43 0 30 0s30 13.43 30 30-13.43 30-30 30zm0-1.2c15.906 0 28.8-12.894 28.8-28.8S45.906 1.2 30 1.2 1.2 14.094 1.2 30 14.094 58.8 30 58.8z" />
    </symbol>
    <symbol id="usa-da-icon-check" viewBox="0 0 512 512">
        <path d="M506 139L198.3 447 6 254.6l74-74 118.3 118.2L432 65" />
    </symbol>
    <symbol id="usa-da-icon-globe" viewBox="0 0 512 512">
        <path d="M256 6C118 6 6 118 6 256s112 250 250 250 250-112 250-250S394 6 256 6zm36.3 391c0-1.4-2.5-2.7-4-4-5-3.8-7.5-5-8-8-1 .3-1-1-4-4 .6.4-.7-.8 0-4-3.3-2-4.6-3.3-4-4-.6-3-2-3 0-4-5.7 2.2-12.2 1-20.3-4-2.3-.2-4.8-2.8-8-8-4.6-4-7.2-5.2-12.2-4-.2-1.2-1.5 0-4 0-2.6 1.4-4 1.4-4 0-2.4 1.4-5 0-8 0-1-1.2-3.5-2.5-8.2-4-1.8-2.3-4.4-3.6-4-4l-8-4h-4c-2.6-2-4-3.3-4-4-2.4-3-3.7-4.4-4-4-1-4.3-1-6.8-4-12.2 1.8-3.7.5-6.3 0-8-2-3.5-4.7-6-8.2-8.2-1.7-1.8-4.3-3-8-4 3.7 1 3.7-1.6 0-4-.2-4-2.8-6.6-4-8l-4-4c-2.4-3.7-5-5-8.2-8.2.6-.7-.7-3.3-4-4 .7-4.4-.6-7 0-8-.6-1.6-2-3-4-4-3-.2-3-1.5-4 0 1-.2 1 2.4 0 4 2.3 3.5 2.3 4.8 4 8-.4-.5 2.2 3.3 4 8 8.5 11 11 18.6 12 24.3-2.2-.5-3.5-.5-4 0-.8-1.8-.8-3 0-4-2-3-2-4.2-4-4 .7-2.8-.6-4-4-4-3-4-4.3-5.2-4-8 1-2.4-.3-5-4-8.2-2.7-3.3-4-6-4-8-1.3-.5-2.6-4.4-4-8.2-1-4-2.4-6.5-4-8-1-1.2-2.3-2.5-4-4-.8-1-2-2.3-4-4-3.2-1-4.5-2-4-4-1.8 2-3 .6-4 0-8-11-10.7-17.5-8-16.2-2.7-1-5.3-2-8-8-1.2-6-2.5-10 0-12h-4c1.5-3 1.5-5 0-12 1.5-2 2.8-8 4-12 0-3 1.4-5 4-4-2.7-1-4-2-4-4-2.5-4-2.5-7 0-8 3.6 2 5 4 4.2 4 3.7-1 5-3 3.8-8 0 1-2.7-1-8-8-9-5-15.4-7-16.2-8 2-2 2-4 0-8-3 2-4.3 4-4 4-.3-2-1.6-3 0-4-1.6-4-1.6-4-4-4-.2-1-1.4-3-4-4 22-35 51.7-62 88.7-80 .4-1 3-2 8-4 .2 3 2.8 3 4 4 1.3 2 4 3 4 4 3.7 2 5 3 8.2 4-2-1-4-4-4-8 0 1 3-2 8-4 5 1 9 1 12 0-3-1-5-5-8-8l-4 4c-1-3-6-3-12 0-3 1-3 2-4 0-4 4-6 5-9 4 0 2-1 2-4 0 13-4 25-9 36-12 0-1 1 0 4 0 1 4 2 4 4 4-2 1-2 1 0 4-3 1-3 4 0 4 0 3 1 3 4 4 1 1 3 1 8 0 2-1 3-1 4 0h4c7 1 10 0 9-3l-1-1 1 1c1 2 2 4 3 7 1 2 1 4 4 4-1 0 1-1 0-4-2-2-2-3 0-4-1-1 1-2 4-4-1 1 1 1 4 0 3-2 2-4 0-4-2-3-3-3-4-4h-4c-3-1-4-1-4-4h-4c1-3 2-4 4-8h8c2 0 5 2 8 4 4 3 6 5 0 8 3 1 6 1 8 4 5 1 7 2 5 4 3-3 5-4 7-3 1 0 2 1 4 4-1 3 1 5 0 4 3 4 5 4 8 4 1-2 3-5 4-8 3-2 4-3 4-4 3-4 7-6 8-4 2 1 3 1 4 4 2 3 2 6 0 4 1 3 2 6 4 8-2 4-5 6-9 4h-4c-4-2-5-2-8-4 0 0-1 2-4 4-1 0-2 3-4 4-1 4-2 7-4 8-3 4-10 5-16.8 4-2 0-2 0-4 4-.7 0-.7 1-4 0l-.4 5h.5c0 .8-.5 1-.6.7-3 4-4 6.3-3.7 7.4-2 2.3-2 4 0 8-2 1-3 3.4-4 4 3.4 1 6 2 8 8 1 .3 1 3 0 4 7-2 15-2 20.2 0 9 4 14 7 16 12 .4-4 4.3-4 12-4 0 2.5 2.6 6.4 4 12 1.2 5 2.5 7.4 4 8 3.6 4.6 6.2 6 8 4 2-1 3.4-1 4-4 3.2.7 3.2-.6 4 0-3.4-3-4.7-6-4-8-2-3-2-5.6 0-8 .6 0 2-1.4 4-4 4.4-1 7-4 8.2-4 0-5-1-7.5-4-8-3.5-3.4-6-4.7-8-8 2-.7 3-2 4-4 3-.5 3-3 4-4-1 0-1-3-4-4 .4-3 .4-5 0-4 .4-2.6.4-4 0-4 3-2.5 7-2.5 12 0h16c-.5 3 1 3 4 4 2 1.3 3 2.5 4 4 3 0 4.3 1 4 4 .3 0 1.6 1 0 4 3 2 1.7 3 .4 4 .8 0 3 1 4 0 5 2 5 3.3 0 4 2.6 1 2.6 1 4 0 1 1 2.5-.7 4 0 2.3-2 2.3-3 4-4 1 1 2 1 4 0 2-2 2-3 4-4 3-1.7 3-1.7 4 0 1.7 1 1.7 2 4 4 0 2 1.5 3.3 4 4 0 2 1.4 3 4 4-1.4 2-1.4 3 0 8 0 1.5 1 3 4 4-.2 1.4 2.3 2.6 4 4h4c.7-1.4 2-1.4 4 0 3 0 3-1.4 4 0-1 1 .4 4 0 8 3 0 5.6 1 8 0v8c-1 2-2.4 3.3-8 4-1 .5-2.2.5-4 0-.7 1.8-2 3-4 4-3 4-4.4 5.5-4 8-4.3-6.3-10.7-7.6-20-4-9 .3-15 1.6-16 4-5.6 1.5-8 2.7-12 4 1 0 1 1.3 0 4 0 0-1.3 1-.4 3.7l4-4s1-1 0-4h4c6-2.3 11-4 16-4 4 3 5.3 5.6 0 8h-4c-1 1 2 1 4 4 4 4 4 6.6 0 8.6-1 4.8-5 6-8 4l-8 8c-.7-1-2-1-4 0-3 1.8-5.7 3-4 4-3 0-3 1.7-4 4 1 2.8 1 4 0 4 0 1 0 1-4 0 1.2 2-1 4-4 4-5 1-7.7 2-8 4 .3 2 .3 5 0 4-3 4.8-6 4.8-8.7 0-1.7 2-3 3-4 4v4c0 4 0 5-3 7 1 0 2 0 3 1 3 2.8 4 2.8 4 4-1.4 1-2.7 2.7-4 4 1.3 2-1 6-7.7 12l-.2.5h.6c-.6 0-2.3.7-4.4.4-1 3-2 3-4 4-2 0-3.5 1.5-4 0-2 4-3 5.4-4 8-2 2.6-2 5 0 8-.6.8 2 2 8 4v12c-2 1.6-.8 3 0 4-.8 1.4-.8 4 0 4-.8 3.8-2 5-4 4 1 1-.6 1-4 0-.5-.2-3-6.6-4-16-3-2.2-4-5-8-8.2v4c-2.7-2-2.7-2-4 0v-4c-2.5-.3-2.5-1.6-4 0-1-3-3.7-3-4-4-4.8-.2-7-.2-8 0-5 3-8.8 2.6-11-2-.5.8-.8 1.4-1.5 2 2.8 2.4 2.8 3.7 4 4-2.6 3.5-5.2 3.5-8 0-2.4-.3-6.2-1.6-12.2 0-4 1-8 1-8 0-1 1-1 1 0 4-1 .8-2.5.8-4 0-1 3.4-2.3 4.7-4 4-1 3-2 4.5-4 4 2 5.7 3 8 4 12-1 0-2 4-4 8.4.6 3 .6 7 0 8 .6 4 2 9 4 16 3 3.3 5.6 7 8 8 3 2 5 3 8.5 4 5-1 8.8-1 8 0 3-2 4.7-3 4-4l4-4c-1-3 .5-4 0-4 1.8-5 5.6-8 8-8h8c1 3 2 3 4 4-3 2-3 4-4 4 0 2-1.4 5-4 8v4c-1.2 1-1.2 3 0 8-2 2.3-2.4 5-3.2 4 1 1 4 1 7.8-.4-.3-1-.3-2 0-4 1 4.6 3.6 4.6 4 4 4.7 1.8 6 .5 8-4 .7 3 2 4.6 4 8 3 3 4 5.6 4 8.5v4c3 2.6 3 4 4 4-2.4 1-4 2-4 4-2.2-2-3.5-2-4 0 .5 2 1.8 3.6 0 4l4 4c4 9.7 10.7 12 16 8 2 8 1 12-4 12.6-1.3.6-3-.7-4-4-3-2-4-4-4.2-6-1 1.4-2 2-4 2zm8 88.8v-8c0 .3 1.4-2.2 4-4 1.2-4.5 1.2-7 0-8.2-2.7-1.5-4-5.3-4-12 1.4-2.2 5.2-7.3 12.2-12.2 4.5-5.3 5.8-10.3 4-16-.8-5.8-.8-9.6-4-16.2 2-6 2-10 0-12 .7.8 2 .8 4 4 3-2 4.3-.7 4 0 1.6-.7 1.6-2 4-4-1.2-1.7 0-3 0-4l4-4c1.2 0 2.4-1.3 4 0-.3-1.3-.3-2.5 4-4-.5-1 .8-2.3 4-4 4.4-.8 5.7.4 4 0 3 3 3 5.5 0 8 3 0 3-2.4 4-4 1.4-1 2.7-2.2 4-4 1.2 1.8 2.5 1.8 4 4 1-1 2.3.3 4 0 .8 1.6 2 3 4 4 3.2 0 8.3 2.6 12 8 1.4-2.8 1.4-2.8 4-4 1.2 0 1.2-1.3 4 0 1-1.3 2.3-1.3 4 0h4c2 1.3 2 1.3 4 4 3 1 4.3 2.3 4 4 4 .8 5.3 2 8.2 0-.3 3.4 1 4.6 0 4 2.3 3 2.3 4.4 4 4-.5 3 2 3 8 4-.8 1.4 1.8 1.4 4 4 1.6-1.3 3-1.3 4 0-35 36.8-77.2 59.7-128.3 68.6z" />
    </symbol>
    <symbol id="usa-da-icon-trash" viewBox="0 0 512 512">
        <path d="M351.7 73.8L320 6H192.8L161 73.8H17v42.4h42.4V506h394V116.2H496V73.8H351.6zM215.4 31.4h82L316 73.8H196.8l18.6-42.4zM411 463.6H101.8V116.2H411v347.4z" />
        <path d="M233 179.7h46.7V400H233zm89 0h46.7V400H322zm-178 0h46.7V400H144z" />
    </symbol>
    <symbol id="usa-da-icon-close" viewBox="0 0 512 512">
        <path d="M256 212L50 6 6 50l206 206L6 462l44 44 206-206 206 206 44-44-206-206L506 50 462 6" />
    </symbol>
    <symbol id="usa-da-icon-check-circle" viewBox="0 0 512 512">
        <path d="M256 506c138 0 250-112 250-250S394 6 256 6 6 118 6 256s112 250 250 250zm157.3-322.6L219.7 377l-121-121 48.4-48.4 73 76.6L365 135l48.3 48.4z" />
    </symbol>
    <symbol id="usa-da-icon-close-circle" viewBox="0 0 512 512">
        <path d="M256 6C118 6 6 118 6 256s112 250 250 250 250-112 250-250S394 6 256 6zm119.8 335.5l-34.3 34.3-85.5-85.6-85.5 85.6-34.3-34.3 85.6-85.5-85.6-85.5 34.3-34.3 85.5 85.6 85.5-85.6 34.3 34.3-85.6 85.5 85.6 85.5z" />
    </symbol>
    <symbol id="usa-da-icon-exclamation-circle" viewBox="0 0 512 512">
        <path d="M256 506c138 0 250-112 250-250S394 6 256 6 6 118 6 256s112 250 250 250zm-40.3-161.3h80.6v80.7h-80.6v-80.7zm-8-258h96.7l-8 225.8h-80.7l-8-226z" />
    </symbol>
    <symbol id="usa-da-icon-exclamation-triangle" viewBox="0 0 512 512">
        <path d="M502.7 491.8l-240-480c-4-8-10.3-8-14.3 0l-240 480c-3.8 7.8 0 14.2 9 14.2h476.3c9 0 13-6.4 9-14.2zM282 438c0 .6-.3 1-1 1h-51.4c-.6 0-1-.4-1-1v-47h-.3c0-.5.4-1 1-1H281c.7 0 1 .5 1 1v47zm2-74.7h-57l-7-178.5h71l-7 178.5z" />
    </symbol>
    <symbol id="usa-da-icon-question-circle" viewBox="0 0 512 512">
        <path d="M256 506c138 0 250-112 250-250S394 6 256 6 6 118 6 256s112 250 250 250zM131 163.3s46.8-75.6 113-76.7c68.8-1 132.4 37.7 133 109 .5 70.4-79 67-88.7 125h-84.7c1.4-48 6.7-65.7 40.3-84.8 28.5-18 69.4-33 28-64.5-37.6-28.8-80.7 36.3-80.7 36.3L131 163.3zm72.6 181.4h84.7v80.7h-84.7v-80.7z" />
    </symbol>
    <symbol id="usa-da-icon-pause-circle" viewBox="0 0 512 512">
        <path d="M256 506c138 0 250-112 250-250S394 6 256 6 6 118 6 256s112 250 250 250zm20.2-338.7h80.6v177.4h-80.6V167.3zm-121 0h80.6v177.4h-80.6V167.3z" />
    </symbol>
    <symbol id="usa-da-icon-info-circle" viewBox="0 0 512 512">
        <path d="M256 6C118 6 6 118 6 256s112 250 250 250 250-112 250-250S394 6 256 6zm-40.3 76.6h84.7V151h-84.7V82.7zm121 346.8H175.3V361h32.3v-97h-32.3v-68.4h121V361h40.3v68.4z" />
    </symbol>
    <symbol id="usa-da-icon-file" viewBox="0 0 512 512">
        <path d="M469.4 147s-.4 359 0 359H42V6h286.3c7.6 0 141 136 141 141zm-145-104.7v113H433l-108.7-113zM433 469.7V183.4H292c-.4 1.4 0-141 0-141H78.3v427.3H433z" />
    </symbol>
    <symbol id="usa-da-icon-calendar" viewBox="0 0 512 512">
        <path d="M418.6 79.8V6H308v73.8H201.4V6H90.8v73.8H17V506h475.4V79.8h-73.8zm-73.7-37h36.8v102.6h-37V43zm-217.3 0h37v102.6h-37V43zM144 465H58v-82h86v82zm0-98.3H58v-82h86v82zm0-98.4H58v-82h86v82zM246.5 465h-86v-82h86v82zm0-98.3h-86v-82h86v82zm0-98.4h-86v-82h86v82zM349 465h-86v-82h86v82zm0-98.3h-86v-82h86v82zm0-98.4h-86v-82h86v82zM451.4 465h-86v-82h86v82zm0-98.3h-86v-82h86v82zm0-98.4h-86v-82h86v82z" />
    </symbol>
    <symbol id="usa-da-icon-cog" viewBox="0 0 512 512">
        <path d="M506 303.8v-95.2l-67.3-11.8c-3-9.5-7-18.8-11.6-28l40-55.8-68-67-55.3 39c-9-4.8-18.4-8.6-28-11.7L303.7 6h-95l-12 67.2c-9.5 3-18.8 7-28 11.6L113 45.5 45.4 113l39.3 55.7c-4.7 9-8.5 18.4-11.6 28L6 208.3v95.2l67.2 11.8c3 9.5 7 18.8 11.6 28L45.5 399l67.4 67.5 55-39.3c9 4.7 18 8.5 28 11.6l12 67.2h95l11.5-67.2c10-3 19-7 28-11.6l56 39.3L466 399l-39.4-55c4.8-9 8.6-18 11.7-28l67.3-12zm-252.2 29.5c-44 0-79.6-35.6-79.6-79.6 0-44 35.5-79.5 79.5-79.5s79.6 35.5 79.6 79.5-35.5 79.6-79.5 79.6z" />
    </symbol>
    <symbol id="usa-da-icon-building" viewBox="0 0 512 512">
        <path d="M346 366h36v36h-36zm-72-216h36v36h-36zm-72-72h36v36h-36zm72 216h36v36h-36zm0-216h36v36h-36zm72 72h36v36h-36zm0-72h36v36h-36zm0 144h36v36h-36zm0 72h36v36h-36zm-72-72h36v36h-36zM130 366h36v36h-36zm0-72h36v36h-36zm72-144h36v36h-36zm-72 72h36v36h-36z" />
        <path d="M58 6v500h396V6H58zm360 464H310v-68H202v68H94V42h324v428z" />
        <path d="M202 222h36v36h-36zm-72-72h36v36h-36zm72 144h36v36h-36zM130 78h36v36h-36z" />
    </symbol>
    <symbol id="usa-da-icon-search" viewBox="0 0 512 512">
        <path d="M337.8 208.3c0-36.5-12-66.8-37.4-92-25.3-25.4-55.7-37.6-92-37.6-35.5 0-66 12.2-91.2 37.5-25.3 25.3-38.5 55.6-38.5 92 0 35.5 13.2 66 38.5 91.2 25.3 25.3 55.7 38.4 91 38.4 36.5 0 67-13 92.2-38.4 25.3-25.3 37.4-55.7 37.4-91zM453.5 506L327 379.5c-34.6 24.4-73.3 36.7-116 36.7-27.6 0-54-5-79.6-16.3-25.5-12-47-26-65.3-44-18-19-32-40-43-66-11-25-17-52-17-79 0-29 6-55 16.8-80C33.8 106 48 83.2 66 65c18.6-18.3 40-32.6 65.5-44 25.5-9.8 52-15 79.5-15 28.4 0 55 5 80.4 15.3 24.5 11.2 47 25.5 65.3 44 18.3 18.2 32.6 40.7 43.8 66.2 10.2 24.5 16.3 51 16.3 79.6 0 43-12.2 82-36.7 117l126 126-52 53z" />
    </symbol>
    <symbol id="usa-da-icon-map-marker" viewBox="0 0 512 512">
        <path d="M172.8 172.7c0-23 8-43.4 24-59.4 17.3-16 36.8-24 59.7-24 23 0 42.4 8 59.7 24 16 16 24 36.5 24 59.4 0 22.8-8 42.2-24 59.3-17.3 16-36.8 24-59.7 24-23 0-42.4-8-59.7-24-16-17-24-36.5-24-59.3zm-83.8 0c0 24 3.4 43.3 10.3 58.2 0 0 149.2 275 157.2 275s157.2-275 157.2-275c7-15 10.3-34.6 10.3-58.5C424 126 408 87 374.7 54 342.5 22 302.4 6 256.5 6c-46 0-86 16-118.2 48C105 87 89 126 89 172.6z" />
    </symbol>
    <symbol id="usa-da-icon-table" viewBox="0 0 512 512">
        <path d="M6 61h500v117H6V61zm339 117h15.8l-.2 261.8h-16L345 178zm-339 .2h16V452H6V178.2zm484 0h16V452h-16V178zM22 439.8h468v12H22v-12z" />
    </symbol>
    <symbol id="usa-da-icon-table-open" viewBox="0 0 512 512">
        <path d="M362.8 373H28v16h321l13.8-16zm65.2-56.5V125h-16v191.4l8.2-9.4 7.8 9.5zM44 125h368v59H44v-59zm-16-16h400v16H28v-16zm0 16h16v248H28V125z" />
        <path fill-opacity=".4" d="M44 213h369v34H44zm0 63h369v34H44zm348.4 63H44v34h318.8l29.6-34z" />
        <path fill-opacity=".6" d="M298 184h16.8v189H298z" />
        <path fill="#000" d="M484 404l-132-.6 67.6-77.4" />
    </symbol>
    <symbol id="usa-da-icon-table-closed" viewBox="0 0 512 512">
        <path d="M361.5 364H29v16h345.7l-13.2-16zm67.5-41.6V116h-16v206.4h16zM45 116h368v59H45v-59zm-16-16h400v16H29v-16zm0 16h16v248H29V116z" />
        <path fill-opacity=".4" d="M45 204h369v34H45zm0 63h369v34H45zm288.6 63H45v34h316.5l-28-34z" />
        <path fill-opacity=".6" d="M299 175h16.8v189H299z" />
        <path fill="#000" d="M352 334l132 .6-67.6 77.4" />
    </symbol>
    <symbol id="usa-da-icon-more-options" viewBox="0 0 512 512">
        <ellipse cx="59.2" cy="256" rx="53.2" ry="53" />
        <ellipse cx="256" cy="256" rx="53.2" ry="53" />
        <ellipse cx="452.8" cy="256" rx="53.2" ry="53" />
    </symbol>
    <symbol id="usa-da-icon-tree" viewBox="0 0 512 512">
        <path d="M234.2 326.7V354zM6 283.3h201v174H6zM6 55h201v201H6zm500 174V55h-70.8v402.2H506v-70.7h-70.7v-27.2H506V256h-70.7v-27m-201 125h174v103.2h-174zm0-299h174v271.7h-174z" />
    </symbol>
    <symbol id="usa-da-icon-bar" viewBox="0 0 512 512">
        <path d="M6 226h97.826v233.696H6V226zM140 57h97.826v402.174H140V57zm134 98h97.826v304.348H274V155zm134 136h97.826v168.478H408V291z" />
    </symbol>
    <symbol id="usa-da-icon-pie" viewBox="0 0 512 512">
        <path d="M70.8 89C116.4 38 182.5 6 256 6v125c-36.7 0-69.7 16-92.5 41.3L70.8 89zm-9.4 11C27.4 142.7 7 197 7 256h124.5c0-27 8.5-52 23-72.3l-93-83.7zm213.8 405.3c122.3-9.4 220-107.4 229-230.2h-125c-8.3 54-50.6 96.4-104 104.7v125.8zm-19.2.7C125 506 17.4 404.2 7.7 275H133c9 60 60.7 106 123 106v125zM275.2 6.7c96.3 7.4 177.3 69.8 211.8 156 11.6 28.7 18 60.2 18 93.2H380.5c0-62.8-45.7-114.5-105.3-123.7V6.7z" />
    </symbol>
    <symbol id="usa-da-icon-line" viewBox="0 0 512 512">
        <path d="M35 403.6V52H.6v409h512v-34H59.3L186 279.8l52.5 90.6 237-239.5 34.7 34.5V74.2l-91.8-.6 33.7 33.7-207 208.3-54.4-93.6L35 403.6" />
    </symbol>
    <symbol id="usa-da-icon-filter" viewBox="0 0 512 512">
        <path d="M42 6h427.3v72.7H42zm0 91h427.3L300.6 287.7v176.7l-90 37V287.8" />
    </symbol>
    <symbol id="usa-da-icon-info" viewBox="0 0 512 512">
        <path d="M199.5 6h119v101.2h-119V6zm113.2 397.7v-237H140V269h48.6v134.7H140V506h232V403.7h-59.3z" />
    </symbol>
    <symbol id="usa-da-icon-arrow-down" viewBox="0 0 512 512">
        <path d="M6 81h500L256 431.6" />
    </symbol>
    <symbol id="usa-da-icon-arrow-up" viewBox="0 0 512 512">
        <path d="M256 81l250 350.6H6" />
    </symbol>
    <symbol id="usa-da-icon-guide" viewBox="0 0 512 512">
        <path d="M462.75 36.3l-95.38 373.36-317.2-.02-19.25-30.36h317.13L442.4.6 96.94 0 0 379.08l39.32 60.8 350.5.12L485 69.83 462.75 36.3zM146.57 68.92h190.5l-10.1 38.27H136.5l10.07-38.3zm-19.14 71.34h190.5l-10.1 38.27h-190.5l10.1-38.27z" />
    </symbol>
    <symbol id="usa-da-flag-logo" viewBox="0 0 145 78">
        <rect width="143" height="6" y="60" fill="#AAA" rx=".25" />
        <rect width="121" height="6" y="72" fill="#AAA" rx=".25" />
        <rect width="6" height="42" fill="#ECECEC" rx=".25" />
        <rect width="6" height="29" x="12" y="13" fill="#ECECEC" rx=".25" />
        <rect width="6" height="38" x="24" y="4" fill="#ECECEC" rx=".25" />
        <rect width="6" height="35" x="36" y="7" fill="#ECECEC" rx=".25" />
        <rect width="6" height="42" x="48" fill="#ECECEC" rx=".25" />
        <rect width="53" height="6" x="60" fill="#AAA" rx=".25" />
        <rect width="85" height="6" x="60" y="12" fill="#AAA" rx=".25" />
        <rect width="75" height="6" x="60" y="24" fill="#AAA" rx=".25" />
        <rect width="63" height="6" x="60" y="36" fill="#AAA" rx=".25" />
        <rect width="133" height="6" y="48" fill="#AAA" rx=".25" />
    </symbol>
    <symbol id="usa-da-hand-drawn-arrow" viewBox="0 0 28 100">
        <g fill="none" fill-rule="evenodd" transform="translate(12 8)">
            <path d="M5.566.213c-.553.247-.77.947-.5 1.29.238.303.48.614.772.856.596.49 1.217.95 1.848 1.4 4.32 3.05 7.71 7.01 10.834 11.21 2.33 3.13 3.897 6.68 4.96 10.43.554 1.95 1.02 3.93 1.39 5.92.646 3.45.444 6.94.043 10.39-.527 4.53-1.897 8.842-3.59 13.07-1.802 4.493-4.17 8.69-6.775 12.724-2.29 3.55-4.757 7-7.51 10.22-.43.51-.786 1.08-1.15 1.64-.16.246.047.864.357 1.005.242.107.553.172.804.12.26-.055.52-.236.72-.428.41-.4.81-.824 1.17-1.276 3.15-4.007 6.28-8.025 8.86-12.44 1.21-2.08 2.43-4.16 3.51-6.307.95-1.89 1.79-3.84 2.55-5.82 1.58-4.154 2.8-8.423 3.28-12.863.6-5.63.08-11.174-1.62-16.61-.78-2.5-1.83-4.887-2.88-7.28-.827-1.89-2.187-3.426-3.397-5.045C15.94 8 12.06 4.105 7.483.945 7.09.675 6.69.395 6.25.215c-.232-.1-.545-.002-.686 0zm4.725 84.272c1.11-.744 2.21-1.494 3.32-2.232 1.04-.686 2.08-1.355 3.11-2.043 4.16-2.775 7.91-5.972 10.57-10.286.25-.4.46-.832.65-1.263.13-.29-.09-.81-.39-.98-.35-.19-.74-.27-1.06-.01-.29.24-.56.53-.75.84-2.56 4.15-6.14 7.27-10.13 9.93-3.485 2.33-6.963 4.69-10.9 6.24-.35.14-.72.25-1.09.3-.13.02-.407-.17-.415-.28-.032-.47-.004-.942.03-1.412.524-7.042 1.38-14.065 1.207-21.152-.036-1.44-.125-2.864-.65-4.225-.102-.26-.23-.524-.397-.746-.26-.344-.668-.42-1.027-.265-.226.095-.435.363-.527.603-.094.25-.113.577-.042.836.744 2.723.547 5.503.483 8.266-.09 3.82-.38 7.63-.784 11.437-.26 2.46-.344 4.946-.68 7.41-.085.553-.04 1.13-.015 1.7.02.443.567.83 1.04.772.28-.04.586-.038.84-.15 2.53-1.103 5.18-1.93 7.62-3.28z" fill="#D7DCE4" fill-rule="evenodd" />
        </g>
    </symbol>
</svg>