<svg xmlns="http://www.w3.org/2000/svg" style="display: none;">
    <symbol id="usa-da-icon-unlock" viewBox="0 0 512 512">
        <path d="m494 133l0 73c0 5-2 9-6 13-3 3-8 5-13 5l-18 0c-5 0-9-2-13-5-3-4-5-8-5-13l0-73c0-21-7-38-22-52-14-14-31-22-51-22-20 0-38 8-52 22-14 14-21 31-21 52l0 54 27 0c8 0 14 3 19 8 6 6 8 12 8 20l0 164c0 8-2 15-8 20-5 5-11 8-19 8l-274 0c-8 0-14-3-20-8-5-5-8-12-8-20l0-164c0-8 3-14 8-20 6-5 12-8 20-8l192 0 0-54c0-36 12-66 37-91 25-25 55-37 91-37 35 0 65 12 90 37 25 25 38 55 38 91z" />
    </symbol>
    <symbol id="usa-da-icon-user" viewBox="0 0 512 512">
        <path d="m392 338c70 24 105 45 105 62 0 0 0 54 0 54 0 0-241 0-241 0 0 0-241 0-241 0 0 0 0-54 0-54 0-17 35-38 105-62 32-12 54-24 65-36 12-12 18-28 18-48 0-8-4-16-12-25-7-10-12-22-16-38-1-4-2-7-5-9-2-2-4-3-7-4-2-1-4-4-7-9-2-5-4-12-4-22 0-5 0-10 2-13 2-4 3-6 5-6 0 0 2-2 2-2-3-17-5-32-6-45-2-19 5-38 21-58 15-19 42-29 80-29 38 0 65 10 81 29 16 20 22 39 20 58 0 0-6 45-6 45 6 2 9 10 9 21 0 10-2 17-4 22-3 5-5 8-7 9-3 1-5 2-7 4-3 2-4 5-5 9-3 17-8 29-16 38-8 9-12 17-12 25 0 20 6 36 18 48 12 12 34 24 65 36" />
    </symbol>
    <symbol id="usa-da-icon-cloud-upload" viewBox="0 0 512 512">
        <path d="m347 247c0-3 0-5-2-7l-101-100c-1-2-4-3-6-3-3 0-5 1-7 3l-100 100c-2 2-3 5-3 7 0 3 1 5 3 6 1 2 3 3 6 3l64 0 0 101c0 2 1 4 3 6 2 2 4 3 6 3l55 0c3 0 5-1 7-3 1-2 2-4 2-6l0-101 64 0c3 0 5-1 7-3 2-2 2-4 2-6z m183 82c0 30-10 56-32 78-21 21-47 32-77 32l-311 0c-36 0-66-13-91-38-25-25-37-55-37-90 0-25 6-48 20-69 13-21 31-36 53-47 0-6 0-10 0-12 0-41 14-75 43-104 28-28 63-42 103-42 30 0 57 8 82 24 24 17 42 39 54 66 13-11 29-17 47-17 20 0 37 7 52 21 14 14 21 32 21 52 0 14-4 27-12 39 25 6 46 19 61 39 16 20 24 43 24 68z" />
    </symbol>
    <symbol id="usa-da-icon-cloud-download" viewBox="0 0 512 512">
        <path d="m347 265c0-3 0-5-2-6-2-2-4-3-7-3l-64 0 0-101c0-2-1-4-2-6-2-2-4-3-7-3l-55 0c-2 0-4 1-6 3-2 2-3 4-3 6l0 101-64 0c-2 0-4 1-6 3-2 2-3 4-3 6 0 3 1 5 3 7l100 100c2 2 4 3 7 3 2 0 5-1 6-3l101-100c1-2 2-5 2-7z m183 64c0 30-10 56-32 78-21 21-47 32-77 32l-311 0c-36 0-66-13-91-38-25-25-37-55-37-90 0-25 6-48 20-69 13-21 31-36 53-47 0-6 0-10 0-12 0-41 14-75 43-104 28-28 63-42 103-42 30 0 57 8 82 24 24 17 42 39 54 66 13-11 29-17 47-17 20 0 37 7 52 21 14 14 21 32 21 52 0 14-4 27-12 39 25 6 46 19 61 39 16 20 24 43 24 68z" />
    </symbol>
    <symbol id="usa-da-icon-lock" viewBox="0 0 512 512">
        <path d="m183 187l146 0 0-54c0-21-7-38-21-52-15-14-32-22-52-22-20 0-37 8-52 22-14 14-21 31-21 52z m238 28l0 164c0 8-3 15-8 20-6 5-12 8-20 8l-274 0c-8 0-14-3-20-8-5-5-8-12-8-20l0-164c0-8 3-14 8-20 6-5 12-8 20-8l9 0 0-54c0-35 13-66 38-91 25-25 55-37 90-37 35 0 65 12 90 37 25 25 38 56 38 91l0 54 9 0c8 0 14 3 20 8 5 6 8 12 8 20z" />
    </symbol>
    <symbol id="usa-da-icon-angle-down" viewBox="0 0 512 512">
        <path d="m399 210c0 3-1 5-3 7l-133 133c-2 2-5 3-7 3-2 0-5-1-7-3l-133-133c-2-2-3-4-3-7 0-2 1-4 3-6l15-15c1-1 4-2 6-2 3 0 5 1 7 2l112 113 112-113c2-1 4-2 7-2 2 0 5 1 6 2l15 15c2 2 3 4 3 6z" />
    </symbol>
    <symbol id="usa-da-icon-angle-left" viewBox="0 0 512 512">
        <path d="m344 155c0 3-1 5-3 7l-112 112 112 113c2 1 3 4 3 6 0 3-1 5-3 7l-14 14c-2 2-5 3-7 3-2 0-5-1-7-3l-133-133c-2-2-3-4-3-7 0-2 1-4 3-6l133-133c2-2 5-3 7-3 2 0 5 1 7 3l14 14c2 2 3 4 3 6z" />
    </symbol>
    <symbol id="usa-da-icon-angle-right" viewBox="0 0 512 512">
        <path d="m335 274c0 3-1 5-3 7l-133 133c-2 2-5 3-7 3-2 0-5-1-7-3l-14-14c-2-2-3-4-3-7 0-2 1-5 3-6l112-113-112-112c-2-2-3-4-3-7 0-2 1-4 3-6l14-14c2-2 5-3 7-3 2 0 5 1 7 3l133 133c2 2 3 4 3 6z" />
    </symbol>
    <symbol id="usa-da-icon-angle-up" viewBox="0 0 512 512">
        <path d="m399 338c0 3-1 5-3 7l-15 14c-1 2-4 3-6 3-3 0-5-1-7-3l-112-112-112 112c-2 2-4 3-7 3-2 0-5-1-6-3l-15-14c-2-2-3-4-3-7 0-2 1-4 3-6l133-133c2-2 5-3 7-3 2 0 5 1 7 3l133 133c2 2 3 4 3 6z" />
    </symbol>
    <symbol id="usa-da-icon-check-circle" viewBox="0 0 512 512">
        <path d="m403 210c0-6-1-10-5-13l-26-26c-3-4-8-6-13-6-5 0-9 2-12 6l-117 116-65-64c-3-4-7-6-12-6-5 0-10 2-13 6l-26 25c-4 4-5 8-5 13 0 6 1 10 5 13l103 104c4 3 8 5 13 5 5 0 10-2 13-5l155-155c4-4 5-8 5-13z m72 46c0 40-9 77-29 110-20 34-46 60-80 80-33 20-70 29-110 29-40 0-77-9-110-29-34-20-60-46-80-80-20-33-29-70-29-110 0-40 9-77 29-110 20-34 46-60 80-80 33-20 70-29 110-29 40 0 77 9 110 29 34 20 60 46 80 80 20 33 29 70 29 110z" />
    </symbol>
    <symbol id="usa-da-icon-check" viewBox="0 0 512 512">
        <path d="m477 162c0 7-2 14-8 19l-206 207-39 39c-6 5-12 8-20 8-7 0-14-3-19-8l-142-142c-6-6-8-12-8-20 0-7 2-14 8-19l38-39c6-5 12-8 20-8 7 0 14 3 19 8l84 84 188-188c5-5 12-8 19-8 8 0 14 3 20 8l38 39c6 6 8 12 8 20z" />
    </symbol>
    <symbol id="usa-da-icon-globe" viewBox="0 0 512 512">
        <path d="m256 37c40 0 77 9 110 29 34 20 60 46 80 80 20 33 29 70 29 110 0 40-9 77-29 110-20 34-46 60-80 80-33 20-70 29-110 29-40 0-77-9-110-29-34-20-60-46-80-80-20-33-29-70-29-110 0-40 9-77 29-110 20-34 46-60 80-80 33-20 70-29 110-29z m78 148c0 1-1 2-2 3-2 2-3 3-4 3 0 0 1-1 1-2 0-1 1-2 1-3 1-1 1-2 1-2 2-1 4-2 7-4 2-1 7-2 15-3 6-2 11-1 14 3 0-1 1-2 3-4 2-2 3-3 4-3 1-1 2-1 4-2 3 0 4-1 5-2l0-6c-2 0-4-1-5-2-1-2-2-4-2-6 0 0 0 1-1 2 0-1-1-2-2-2-1 0-2 0-3 0-1 1-2 1-3 0-1 0-3-1-4-2-1-1-2-2-2-4-1-3-1-4-1-5-1-1-2-2-3-3-1-1-2-2-3-3 0 0 0-1 0-1-1-1-1-2-1-2-1-1-1-1-1-2-1 0-1 0-2 0-1 0-1 0-2 1-1 1-1 2-2 3-1 1-1 1-1 1-1 0-2 0-2 0-1 0-1 0-1 0-1 0-1 1-2 1 0 0-1 1-1 1-1 0-2 1-3 1-1 0-1 0-2 0 3-1 3-2 0-3-2 0-4-1-5-1 2 0 3-1 2-3 0-2-1-3-2-4l1 0c0-1-1-2-2-2-2-1-3-2-5-3-2-1-3-1-4-2-1-1-5-1-10-2-5-1-8-1-9 0-1 1-1 2-1 3 0 0 0 2 1 4 1 1 1 3 1 3 0 1 0 3-2 4-1 1-2 2-2 3 0 2 2 3 4 5 3 1 4 3 3 6 0 1-2 3-4 4-3 2-4 3-5 4-1 1-1 3 0 5 0 2 1 4 3 5 0 0 0 1 0 1 0 0 0 1-1 1 0 1-1 1-1 1-1 1-2 1-2 1l-1 1c-2 1-4 0-6-2-2-2-3-4-4-7-1-5-3-8-4-9-5-1-8-1-9 1-1-3-5-5-11-8-5-2-11-2-17-1 1 0 1-2 0-4-1-3-3-4-5-4 0-1 1-3 1-5 0-2 0-3 0-4 1-2 2-4 3-6 1 0 1-1 2-3 2-1 2-2 3-3 1-2 1-2 2-2 6 1 11 0 14-3 1-1 2-3 3-5 1-2 2-4 3-5 2-1 3-2 4-2 1 1 2 1 4 2 2 1 3 1 4 1 3 1 5 0 5-3 0-2-1-4-2-5 2 0 2-2 1-5-1-2-2-2-3-3-2-1-5 0-7 2-2 0-2 1 0 2 0 0-1 1-3 3-1 2-3 4-4 5-2 1-3 1-5-2 0 0-1-1-1-3-1-3-2-4-3-4-2 0-3 1-5 4 1-2 0-3-3-4-3-2-5-2-7-3 4-2 3-4-2-7-1-1-3-2-6-2-2 0-4 0-5 1-1 2-2 3-2 4 0 1 0 1 1 2 1 1 2 1 3 2 1 0 2 0 4 1 1 0 2 0 2 1 3 1 4 3 2 4 0 0-1 0-2 1-1 0-2 0-3 1-1 0-2 1-2 1-1 1-1 2 0 4 1 2 0 3-1 4-1-1-1-3-2-5-1-2-2-4-2-5 1 2-1 3-7 2l-3 0c-1 0-2 0-5 0-2 1-4 1-6 1-1-1-2-1-3-3-1-1-1-3 0-5 0-1 0-1 1-1-1-1-2-1-3-3-2-1-3-2-3-2-9 3-18 7-27 12 1 0 2 0 3-1 1 0 2-1 4-2 2 0 2-1 3-1 6-3 10-3 12-2l1-2c3 3 5 6 6 8-1-1-4-1-9-1-3 1-5 3-6 4 1 2 2 4 2 5-1-1-2-2-4-3-1-1-3-2-4-3-1-1-3-1-4-2-3 0-5 1-6 1-28 15-51 36-68 63 2 1 3 2 4 2 1 1 1 1 1 3 0 2 1 3 1 3 0 1 1 0 3-1 2 2 2 4 1 6 0 0 5 2 13 7 3 4 5 6 6 6 0 3-1 4-3 6 0-1-1-2-3-3-1-1-2-2-2-1-1 1-1 3 0 5 1 3 2 4 3 4-1 0-2 1-3 4 0 3-1 7-1 10 0 4 0 6 0 7l1 0c-1 3 0 6 1 10 2 5 4 6 6 6-2 0 0 5 6 12 1 2 2 3 2 3 1 0 2 1 4 2 2 1 3 2 4 3 1 1 2 2 3 3 1 1 2 3 3 6 1 3 2 6 4 7-1 1 0 3 3 6 2 2 3 4 3 6-1 0-1 0-1 0 0 1-1 1-1 1 1 1 2 2 5 4 2 1 3 2 4 3 0 1 0 2 1 3 0 2 0 3 0 3 1 1 2 1 3 1 0-4-2-10-7-18-3-4-5-7-5-8-1-1-1-2-2-4 0-2 0-4-1-5 1 0 1 1 2 1 1 0 1 0 2 1 1 0 2 1 2 1 1 0 1 1 1 1-1 1 0 3 1 5 1 2 2 4 3 5 1 2 3 3 5 6 2 2 3 3 3 3 1 1 3 3 4 6 2 2 2 4 0 4 2 0 4 1 6 3 2 1 4 3 5 5 1 2 2 4 2 8 1 3 1 5 2 7 0 1 1 2 2 3 1 2 2 3 4 3l4 2 4 2c1 1 3 2 5 3 3 2 5 3 6 4 2 0 4 1 5 1 1 0 2 0 4-1 2 0 3-1 4-1 3 0 5 1 8 4 3 4 5 6 6 6 7 4 12 5 16 4-1 0 0 0 0 2 0 1 1 2 2 4 1 2 2 3 3 4 1 1 1 2 1 3 1 1 3 2 6 4 2 2 4 3 5 4 1 0 2-1 2-2-1 1 0 3 2 5 2 3 3 4 5 3 3 0 4-3 4-9-6 3-11 1-14-5 0 0 0-1-1-2 0 0-1-1-1-2 0-1-1-2-1-2 0-1 0-2 0-3 0 0 1 0 2 0 1 0 2-1 3-1 0-1 0-2-1-4-1-2-1-3-1-4 0-1-1-3-3-5-2-3-3-4-4-5-1 2-2 3-4 3-2-1-4-1-5-3 0 0 0 1 0 2-1 0-1 1-1 1-2 0-4 0-4 0 0 0 0-2 1-5 0-3 0-5 1-6 0-1 0-2 1-4 1-1 2-3 2-4 1-1 1-2 2-3 0-2-1-2-2-3-1-1-2-1-5-1-3 0-6 2-7 6 0 0-1 1-1 3 0 1-1 2-1 3-1 1-2 2-3 2-1 1-4 1-7 1-3 0-5-1-7-2-2-1-4-4-6-8-2-4-3-8-3-11 0-1 0-4 1-7 0-3 1-6 1-7 0-2-1-4-2-7 1-1 2-2 3-3 1-1 2-2 3-3 0 0 0 0 1 0 0-1 1-1 1 0 1 0 1 0 1-1 1 0 1-1 1-2 0 0 0 0-1 0-1-1-1-1-1-1 1 0 4 0 8-1 4-1 7 0 8 1 3 2 5 2 6-1 0 0 0-1-1-3 0-1 0-2 0-3 1 5 4 6 9 2 0 1 2 1 4 2 2 0 4 0 5 1 1 0 1 1 2 2 1 0 1 1 2 1 0 0 0 0 1 0 1-1 1-1 2-2 2 3 3 5 4 7 2 7 4 12 5 12 2 1 3 1 3 1 1 0 2-1 2-3 0-1 0-3 0-4 0-1-1-2-1-3l0-3 0-5 0-2c-3-1-5-2-6-4 0-1 0-3 1-5 1-2 2-3 4-5 0 0 1-1 2-1 2-1 3-1 5-2 1-1 3-2 3-2 4-4 6-7 5-10 1 0 2-1 3-3 0 0-1 0-2-1 0 0-1-1-2-1 0-1-1-1-1-1 2-1 2-2 1-4 1-1 1-2 2-3 0-2 1-3 2-3 2 2 4 2 6 0 1-1 1-3 0-4 1-2 3-3 6-3 3-1 5-2 5-3 2 0 2 0 3-1 0 0 0-1 0-3 0-2 0-3 1-3 0-1 2-2 4-3 2-1 3-1 4-1l5-4c0 0 0-1 0-1 3 1 6 0 8-3 2-2 2-4-1-6 0-1 0-2-1-2-1-1-3-1-4-2 0 0 1 0 3 0 1 0 2 0 3 0 3-2 2-4-2-5-3-1-7 0-12 3z m-46 251c39-7 72-25 100-54-1-1-2-1-4-1-1-1-3-1-3-1-4-2-6-2-7-3 0-1 0-2-1-3 0-1-1-2-2-3-1 0-2-1-4-2-1-1-2-2-3-2 0-1-1-1-2-2-1-1-1-1-2-1 0-1-1-1-2-2-1 0-2 0-2 0-1 0-2 0-3 0l-1 0c-1 0-1 1-2 1 0 0-1 1-1 1-1 0-1 0-1 1 0 0 0 0 0 0-4-3-8-5-11-6-1 0-2-1-3-1-1-1-2-2-3-2-1-1-2-1-3-1-1 0-2 1-3 2-1 1-1 3-2 4 0 2 0 4 0 4-1-1-1-2 0-5 1-2 1-4 0-5 0-1-1-2-3-1-1 0-2 0-3 1-1 0-2 1-3 2-2 1-2 2-3 2 0 0-1 1-2 2-2 1-2 1-3 2 0 1-1 2-1 3-1 2-1 3-2 3 0 0-1-1-3-1-2-1-3-1-3-2 1 2 1 5 1 10 1 5 1 8 2 11 1 6 0 10-4 14-5 4-8 8-8 11-1 4 0 7 3 7 0 2 0 4-2 6-1 3-2 5-2 6 0 2 0 3 1 5z" />
    </symbol>
    <symbol id="usa-da-icon-share-square-o" viewBox="0 0 512 512">
        <path d="m421 283l0 74c0 22-8 42-25 58-16 16-35 24-58 24l-237 0c-23 0-42-8-59-24-16-16-24-36-24-58l0-238c0-23 8-42 24-58 17-16 36-24 59-24l72 0c3 0 5 0 7 2 2 2 3 4 3 7 0 5-3 8-8 9-15 5-27 11-38 17-2 1-3 1-4 1l-32 0c-13 0-24 5-33 14-9 9-13 19-13 32l0 238c0 12 4 23 13 32 9 9 20 13 33 13l237 0c13 0 24-4 33-13 9-9 13-20 13-32l0-62c0-3 2-6 5-8 5-2 11-6 16-10 3-3 6-4 10-3 4 2 6 5 6 9z m67-142l-109 110c-4 3-8 5-13 5-3 0-5 0-7-1-8-4-12-9-12-17l0-55-45 0c-62 0-104 12-125 37-23 26-30 71-22 135 1 5-1 8-5 10-2 1-3 1-4 1-3 0-5-2-7-4-2-3-4-6-6-9-2-3-6-10-11-19-6-10-11-20-15-29-4-9-7-20-11-32-3-13-5-25-5-35 0-10 1-18 1-26 1-8 2-17 4-26 2-9 5-18 8-25 4-8 8-16 14-23 5-8 12-15 19-22 8-6 17-12 27-17 11-6 23-10 36-14 13-4 28-7 46-9 17-2 36-3 56-3l45 0 0-55c0-8 4-13 12-17 2-1 4-1 7-1 5 0 9 2 13 5l109 110c4 4 6 8 6 13 0 5-2 9-6 13z" />
    </symbol>
    <symbol id="usa-da-icon-trash-o" viewBox="0 0 512 512">
        <path d="m201 210l0 165c0 3-1 5-2 6-2 2-4 3-7 3l-18 0c-3 0-5-1-7-3-2-1-2-3-2-6l0-165c0-2 0-5 2-6 2-2 4-3 7-3l18 0c3 0 5 1 7 3 1 1 2 4 2 6z m73 0l0 165c0 3-1 5-2 6-2 2-4 3-7 3l-18 0c-3 0-5-1-7-3-1-1-2-3-2-6l0-165c0-2 1-5 2-6 2-2 4-3 7-3l18 0c3 0 5 1 7 3 1 1 2 4 2 6z m73 0l0 165c0 3 0 5-2 6-2 2-4 3-7 3l-18 0c-3 0-5-1-7-3-1-1-2-3-2-6l0-165c0-2 1-5 2-6 2-2 4-3 7-3l18 0c3 0 5 1 7 3 2 1 2 4 2 6z m37 207l0-271-256 0 0 271c0 4 1 8 2 12 1 3 3 6 4 7 2 2 3 3 3 3l238 0c0 0 1-1 3-3 1-1 3-4 4-7 1-4 2-8 2-12z m-192-307l128 0-14-34c-1-1-3-2-5-3l-90 0c-2 1-4 2-5 3z m265 9l0 18c0 3-1 5-2 7-2 1-4 2-7 2l-27 0 0 271c0 16-5 30-14 41-9 12-20 17-32 17l-238 0c-12 0-23-5-32-16-9-11-14-25-14-41l0-272-27 0c-3 0-5-1-7-2-1-2-2-4-2-7l0-18c0-3 1-5 2-7 2-1 4-2 7-2l88 0 20-48c3-7 8-13 16-18 7-5 15-7 22-7l92 0c7 0 15 2 22 7 8 5 13 11 16 18l20 48 88 0c3 0 5 1 7 2 1 2 2 4 2 7z" />
    </symbol>
    <symbol id="usa-da-icon-times" viewBox="0 0 512 512">
        <path d="m426 378c0 7-3 14-8 19l-39 39c-5 5-12 8-20 8-7 0-14-3-19-8l-84-84-84 84c-5 5-12 8-19 8-8 0-15-3-20-8l-39-39c-5-5-8-12-8-19 0-8 3-14 8-20l84-84-84-84c-5-5-8-12-8-19 0-8 3-14 8-20l39-38c5-6 12-8 20-8 7 0 14 2 19 8l84 84 84-84c5-6 12-8 19-8 8 0 15 2 20 8l39 38c5 6 8 12 8 20 0 7-3 14-8 19l-84 84 84 84c5 6 8 12 8 20z" />
    </symbol>
    <symbol id="usa-da-icon-times-circle" viewBox="0 0 512 512">
        <path d="m365 321c0-5-2-10-6-13l-51-52 51-52c4-3 6-8 6-13 0-5-2-9-6-13l-25-25c-4-4-8-6-13-6-5 0-10 2-13 6l-52 51-52-51c-3-4-8-6-13-6-5 0-9 2-13 6l-25 25c-4 4-6 8-6 13 0 5 2 10 6 13l51 52-51 52c-4 3-6 8-6 13 0 5 2 9 6 13l25 25c4 4 8 6 13 6 5 0 10-2 13-6l52-51 52 51c3 4 8 6 13 6 5 0 9-2 13-6l25-25c4-4 6-8 6-13z m110-65c0 40-9 77-29 110-20 34-46 60-80 80-33 20-70 29-110 29-40 0-77-9-110-29-34-20-60-46-80-80-20-33-29-70-29-110 0-40 9-77 29-110 20-34 46-60 80-80 33-20 70-29 110-29 40 0 77 9 110 29 34 20 60 46 80 80 20 33 29 70 29 110z" />
    </symbol>
    <symbol id="usa-da-icon-exclamation-circle" viewBox="0 0 512 512">
        <path d="m256 37c40 0 77 9 110 29 34 20 60 46 80 80 20 33 29 70 29 110 0 40-9 77-29 110-20 34-46 60-80 80-33 20-70 29-110 29-40 0-77-9-110-29-34-20-60-46-80-80-20-33-29-70-29-110 0-40 9-77 29-110 20-34 46-60 80-80 33-20 70-29 110-29z m37 356l0-54c0-3-1-5-3-7-2-2-4-3-6-3l-55 0c-3 0-5 1-7 3-2 2-3 4-3 7l0 54c0 2 1 5 3 6 2 2 4 3 7 3l55 0c2 0 4-1 6-2 2-2 3-4 3-7z m-1-98l5-178c0-2-1-4-3-5-2-2-4-2-7-2l-62 0c-3 0-5 0-7 2-2 1-3 3-3 5l5 178c0 1 1 3 3 5 1 1 4 2 6 2l53 0c3 0 5-1 7-2 2-2 3-4 3-5z" />
    </symbol>
    <symbol id="usa-da-icon-exclamation-triangle" viewBox="0 0 512 512">
        <path d="m293 393l0-54c0-3-1-5-3-7-2-2-4-3-7-3l-54 0c-3 0-5 1-7 3-2 2-3 4-3 7l0 54c0 3 1 5 3 7 2 1 4 2 7 2l54 0c3 0 5-1 7-2 2-2 3-4 3-7z m-1-107l5-131c0-2-1-4-3-6-2-2-4-3-7-3l-62 0c-3 0-5 1-7 3-2 2-3 4-3 6l5 131c0 2 1 3 3 5 1 1 4 2 6 2l53 0c3 0 5-1 7-2 2-2 3-3 3-5z m-4-267l219 402c7 12 7 24 0 36-3 6-8 10-13 14-6 3-12 4-19 4l-438 0c-7 0-13-1-19-4-5-4-10-8-13-14-7-12-7-24 0-36l219-402c3-6 8-10 13-14 6-3 12-5 19-5 7 0 13 2 19 5 5 4 10 8 13 14z" />
    </symbol>
    <symbol id="usa-da-icon-question-circle" viewBox="0 0 512 512">
        <path d="m293 393l0-55c0-2-1-5-3-6-2-2-4-3-7-3l-54 0c-3 0-5 1-7 3-2 1-3 4-3 6l0 55c0 3 1 5 3 7 2 1 4 2 7 2l54 0c3 0 5-1 7-2 2-2 3-4 3-7z m73-192c0-17-6-32-16-46-11-15-24-26-40-34-16-7-32-11-48-11-47 0-82 20-106 61-3 4-2 8 2 12l38 28c1 1 3 2 5 2 3 0 6-1 7-4 10-13 19-21 25-26 6-4 15-7 24-7 10 0 18 3 25 8 7 5 11 10 11 17 0 7-2 13-6 17-4 4-10 9-20 13-12 5-23 13-33 25-10 11-15 23-15 35l0 11c0 2 1 5 3 6 2 2 4 3 7 3l54 0c3 0 5-1 7-3 2-1 3-4 3-6 0-4 2-9 6-14 4-6 9-11 15-15 6-3 11-6 14-8 4-2 8-5 13-10 6-4 10-9 13-13 3-5 6-11 8-18 3-7 4-14 4-23z m109 55c0 40-9 77-29 110-20 34-46 60-80 80-33 20-70 29-110 29-40 0-77-9-110-29-34-20-60-46-80-80-20-33-29-70-29-110 0-40 9-77 29-110 20-34 46-60 80-80 33-20 70-29 110-29 40 0 77 9 110 29 34 20 60 46 80 80 20 33 29 70 29 110z" />
    </symbol>
    <symbol id="usa-da-icon-pause" viewBox="0 0 512 512">
        <path d="m232 162l-61 0c-2 0-4 0-5 2-4 2-4 3-4 7l0 170c0 2 0 4 2 5 2 2 3 2 5 2l63 0c2 0 4 0 5-2 2-1 2-3 2-5l0-170c0-2 0-4-2-5 0-4-3-4-5-4z m116 2c-2-2-3-2-5-2l-63 0c-2 0-4 0-5 2-2 2-4 3-4 7l0 170c0 2 0 4 2 5 2 2 3 2 5 2l63 0c2 0 4 0 5-2 2-1 2-3 2-5l0-170c2-4 2-5 0-7z m-92-164c-142 0-256 114-256 256 0 142 114 256 256 256 142 0 256-114 256-256 0-142-114-256-256-256z m0 480c-123 0-224-101-224-224 0-123 101-224 224-224 123 0 224 101 224 224 0 123-101 224-224 224z" />
    </symbol>
    <symbol id="usa-da-icon-pencil" viewBox="0 0 512 512">
        <path d="m46 372l94 94-140 46z m38-34l256-256 88 89-256 256z m291-292l40-41c5-3 8-5 13-5 5 0 11 2 14 5l63 63c5 5 7 11 7 16 0 5-2 10-5 13l-41 40z" />
    </symbol>
    <symbol id="usa-da-icon-tools" viewBox="0 0 512 512">
        <path d="m507 84l-46-46c-7-7-17-7-22 0-4 3-6 8-6 13-3 0-6 2-10 4l-118 119c2 10-1 21-6 31l13 13-25 26-86-87c11-34 2-73-25-101-28-27-67-36-101-27l58 58-15 58-57 15-58-58c-8 35 0 74 26 101 29 29 68 38 104 26l84 85-80 80-6-5-22 19-37 60 10 10 60-38 18-22-5-5 81-80 136 138c10 10 22 14 34 14 12 0 24-5 34-14 19-19 19-49 0-70l-136-138 25-26 12 10c9-6 21-8 31-8l116-118 2-2c2-3 3-6 3-10 5 0 10 0 14-5 7-5 7-15 0-20z m-96 339c11 0 19 9 19 19 0 10-8 19-19 19-10 0-18-9-18-19 0-10 8-19 18-19z m-66-244l-7-8 87-89 7 8z m29 29l-7-8 87-89 7 8z" />
    </symbol>
    <symbol id="usa-da-icon-info-circle" viewBox="0 0 512 512">
        <path d="m329 393l0-46c0-2-1-4-2-6-2-2-4-3-7-3l-27 0 0-146c0-3-1-5-3-7-2-1-4-2-7-2l-91 0c-3 0-5 1-7 2-1 2-2 4-2 7l0 46c0 2 1 5 2 6 2 2 4 3 7 3l27 0 0 91-27 0c-3 0-5 1-7 3-1 2-2 4-2 6l0 46c0 3 1 5 2 7 2 1 4 2 7 2l128 0c3 0 5-1 7-2 1-2 2-4 2-7z m-36-256l0-46c0-2-1-4-3-6-2-2-4-3-7-3l-54 0c-3 0-5 1-7 3-2 2-3 4-3 6l0 46c0 3 1 5 3 7 2 1 4 2 7 2l54 0c3 0 5-1 7-2 2-2 3-4 3-7z m182 119c0 40-9 77-29 110-20 34-46 60-80 80-33 20-70 29-110 29-40 0-77-9-110-29-34-20-60-46-80-80-20-33-29-70-29-110 0-40 9-77 29-110 20-34 46-60 80-80 33-20 70-29 110-29 40 0 77 9 110 29 34 20 60 46 80 80 20 33 29 70 29 110z" />
    </symbol>
    <symbol id="usa-da-icon-file-o" viewBox="0 0 512 512">
        <path d="m456 109c5 5 10 12 14 21 4 9 5 18 5 25l0 330c0 7-2 14-8 19-5 5-11 8-19 8l-384 0c-8 0-14-3-19-8-6-5-8-12-8-19l0-458c0-7 2-14 8-19 5-5 11-8 19-8l256 0c8 0 16 2 25 6 9 4 17 8 22 13z m-127-70l0 107 108 0c-2-5-4-9-7-11l-89-90c-2-2-6-4-12-6z m110 436l0-292-119 0c-8 0-14-3-19-8-6-5-8-12-8-20l0-118-220 0 0 438z" />
    </symbol>
    <symbol id="usa-da-icon-calendar" viewBox="0 0 512 512">
        <path d="m55 475l82 0 0-82-82 0z m100 0l92 0 0-82-92 0z m-100-100l82 0 0-92-82 0z m100 0l92 0 0-92-92 0z m-100-110l82 0 0-82-82 0z m210 210l92 0 0-82-92 0z m-110-210l92 0 0-82-92 0z m220 210l82 0 0-82-82 0z m-110-100l92 0 0-92-92 0z m-100-247l0-82c0-3-1-5-3-7-2-2-4-2-7-2l-18 0c-2 0-4 0-6 2-2 2-3 4-3 7l0 82c0 2 1 5 3 6 2 2 4 3 6 3l18 0c3 0 5-1 7-3 2-1 3-4 3-6z m210 247l82 0 0-92-82 0z m-110-110l92 0 0-82-92 0z m110 0l82 0 0-82-82 0z m9-137l0-82c0-3-1-5-3-7-2-2-4-2-6-2l-18 0c-3 0-5 0-7 2-2 2-3 4-3 7l0 82c0 2 1 5 3 6 2 2 4 3 7 3l18 0c2 0 4-1 6-3 2-1 3-4 3-6z m110-18l0 365c0 10-4 19-11 26-7 7-16 11-26 11l-402 0c-10 0-19-4-26-11-7-7-11-16-11-26l0-365c0-10 4-19 11-26 7-7 16-11 26-11l36 0 0-27c0-13 5-24 14-33 9-9 20-13 32-13l18 0c13 0 24 4 33 13 9 9 13 20 13 33l0 27 110 0 0-27c0-13 4-24 13-33 9-9 20-13 33-13l18 0c12 0 23 4 32 13 9 9 14 20 14 33l0 27 36 0c10 0 19 4 26 11 7 7 11 16 11 26z" />
    </symbol>
    <symbol id="usa-da-icon-tachometer" viewBox="0 0 512 512">
        <path d="m110 329c0-10-4-19-11-26-7-7-16-10-26-10-10 0-19 3-26 10-7 7-10 16-10 26 0 10 3 19 10 26 7 7 16 11 26 11 10 0 19-4 26-11 7-7 11-16 11-26z m55-128c0-10-4-19-11-26-7-7-16-10-26-10-10 0-19 3-26 10-7 7-11 16-11 26 0 10 4 19 11 26 7 7 16 11 26 11 10 0 19-4 26-11 7-7 11-16 11-26z m122 138l29-110c1-5 0-9-2-13-3-5-7-8-11-9-5-1-10-1-14 2-5 3-7 6-9 11l-29 109c-11 1-21 6-30 13-9 7-15 17-18 28-4 15-2 29 6 42 7 13 18 21 33 25 15 4 29 2 42-6 13-7 21-18 25-33 3-11 3-23-2-33-4-11-11-20-20-26z m188-10c0-10-3-19-10-26-7-7-16-10-26-10-10 0-19 3-26 10-7 7-11 16-11 26 0 10 4 19 11 26 7 7 16 11 26 11 10 0 19-4 26-11 7-7 10-16 10-26z m-182-183c0-10-4-18-11-26-7-7-16-10-26-10-10 0-19 3-26 10-7 8-11 16-11 26 0 10 4 19 11 26 7 7 16 11 26 11 10 0 19-4 26-11 7-7 11-16 11-26z m128 55c0-10-4-19-11-26-7-7-16-10-26-10-10 0-19 3-26 10-7 7-11 16-11 26 0 10 4 19 11 26 7 7 16 11 26 11 10 0 19-4 26-11 7-7 11-16 11-26z m91 128c0 50-13 96-40 138-4 6-9 8-16 8l-400 0c-7 0-12-2-16-8-27-42-40-88-40-138 0-35 7-68 20-99 14-32 32-59 55-82 23-23 50-41 82-55 31-13 64-20 99-20 35 0 68 7 99 20 32 14 59 32 82 55 23 23 41 50 55 82 13 31 20 64 20 99z" />
    </symbol>
    <symbol id="usa-da-icon-cog" viewBox="0 0 512 512">
        <path d="m329 256c0-20-7-37-21-52-15-14-32-21-52-21-20 0-37 7-52 21-14 15-21 32-21 52 0 20 7 37 21 52 15 14 32 21 52 21 20 0 37-7 52-21 14-15 21-32 21-52z m146-31l0 63c0 3 0 5-2 7-1 2-3 3-6 4l-52 8c-4 10-8 19-12 26 7 9 17 22 31 39 2 2 3 5 3 7 0 3-1 5-3 7-5 7-14 17-28 31-14 13-23 20-27 20-2 0-5-1-7-3l-40-31c-8 5-17 8-26 11-3 26-6 44-8 53-1 6-5 8-10 8l-64 0c-2 0-5 0-7-2-2-2-3-4-3-6l-8-53c-9-3-18-6-26-10l-40 30c-2 2-4 3-7 3-3 0-5-1-7-3-24-22-40-38-47-48-2-2-2-4-2-7 0-2 0-4 2-6 3-4 8-11 14-19 7-9 12-16 16-21-5-9-9-19-12-28l-52-8c-3 0-5-1-6-3-2-2-2-4-2-7l0-63c0-3 0-5 2-7 1-2 3-3 5-4l53-8c3-8 7-17 12-26-8-11-18-24-31-39-2-3-3-5-3-7 0-2 1-4 3-7 5-7 14-17 28-30 14-14 23-21 27-21 2 0 5 1 7 3l40 31c8-5 17-8 26-11 3-26 6-44 8-53 1-6 5-8 10-8l64 0c2 0 5 0 7 2 2 2 3 4 3 6l8 53c9 3 18 6 26 10l40-30c2-2 4-3 7-3 3 0 5 1 7 3 25 23 41 39 47 49 2 1 2 3 2 6 0 2 0 4-2 6-3 4-8 11-14 19-7 9-12 16-16 21 5 9 9 18 12 28l52 8c3 0 5 1 6 3 2 2 2 4 2 7z" />
    </symbol>
    <symbol id="usa-da-icon-building-o" viewBox="0 0 512 512">
        <path d="m165 375l0 18c0 3-1 5-3 7-2 1-4 2-7 2l-18 0c-2 0-4-1-6-2-2-2-3-4-3-7l0-18c0-3 1-5 3-7 2-1 4-2 6-2l18 0c3 0 5 1 7 2 2 2 3 4 3 7z m0-73l0 18c0 2-1 5-3 6-2 2-4 3-7 3l-18 0c-2 0-4-1-6-3-2-1-3-4-3-6l0-18c0-3 1-5 3-7 2-2 4-2 6-2l18 0c3 0 5 0 7 2 2 2 3 4 3 7z m73 0l0 18c0 2-1 5-3 6-2 2-4 3-6 3l-19 0c-2 0-4-1-6-3-2-1-3-4-3-6l0-18c0-3 1-5 3-7 2-2 4-2 6-2l19 0c2 0 4 0 6 2 2 2 3 4 3 7z m-73-73l0 18c0 2-1 4-3 6-2 2-4 3-7 3l-18 0c-2 0-4-1-6-3-2-2-3-4-3-6l0-18c0-3 1-5 3-7 2-2 4-3 6-3l18 0c3 0 5 1 7 3 2 2 3 4 3 7z m219 146l0 18c0 3-1 5-3 7-2 1-4 2-6 2l-18 0c-3 0-5-1-7-2-2-2-3-4-3-7l0-18c0-3 1-5 3-7 2-1 4-2 7-2l18 0c2 0 4 1 6 2 2 2 3 4 3 7z m-73-73l0 18c0 2-1 5-3 6-2 2-4 3-6 3l-19 0c-2 0-4-1-6-3-2-1-3-4-3-6l0-18c0-3 1-5 3-7 2-2 4-2 6-2l19 0c2 0 4 0 6 2 2 2 3 4 3 7z m-73-73l0 18c0 2-1 4-3 6-2 2-4 3-6 3l-19 0c-2 0-4-1-6-3-2-2-3-4-3-6l0-18c0-3 1-5 3-7 2-2 4-3 6-3l19 0c2 0 4 1 6 3 2 2 3 4 3 7z m-73-74l0 19c0 2-1 4-3 6-2 2-4 3-7 3l-18 0c-2 0-4-1-6-3-2-2-3-4-3-6l0-19c0-2 1-4 3-6 2-2 4-3 6-3l18 0c3 0 5 1 7 3 2 2 3 4 3 6z m219 147l0 18c0 2-1 5-3 6-2 2-4 3-6 3l-18 0c-3 0-5-1-7-3-2-1-3-4-3-6l0-18c0-3 1-5 3-7 2-2 4-2 7-2l18 0c2 0 4 0 6 2 2 2 3 4 3 7z m-73-73l0 18c0 2-1 4-3 6-2 2-4 3-6 3l-19 0c-2 0-4-1-6-3-2-2-3-4-3-6l0-18c0-3 1-5 3-7 2-2 4-3 6-3l19 0c2 0 4 1 6 3 2 2 3 4 3 7z m-73-74l0 19c0 2-1 4-3 6-2 2-4 3-6 3l-19 0c-2 0-4-1-6-3-2-2-3-4-3-6l0-19c0-2 1-4 3-6 2-2 4-3 6-3l19 0c2 0 4 1 6 3 2 2 3 4 3 6z m-73-73l0 19c0 2-1 4-3 6-2 2-4 3-7 3l-18 0c-2 0-4-1-6-3-2-2-3-4-3-6l0-19c0-2 1-4 3-6 2-2 4-3 6-3l18 0c3 0 5 1 7 3 2 2 3 4 3 6z m219 147l0 18c0 2-1 4-3 6-2 2-4 3-6 3l-18 0c-3 0-5-1-7-3-2-2-3-4-3-6l0-18c0-3 1-5 3-7 2-2 4-3 7-3l18 0c2 0 4 1 6 3 2 2 3 4 3 7z m-73-74l0 19c0 2-1 4-3 6-2 2-4 3-6 3l-19 0c-2 0-4-1-6-3-2-2-3-4-3-6l0-19c0-2 1-4 3-6 2-2 4-3 6-3l19 0c2 0 4 1 6 3 2 2 3 4 3 6z m-73-73l0 19c0 2-1 4-3 6-2 2-4 3-6 3l-19 0c-2 0-4-1-6-3-2-2-3-4-3-6l0-19c0-2 1-4 3-6 2-2 4-3 6-3l19 0c2 0 4 1 6 3 2 2 3 4 3 6z m146 73l0 19c0 2-1 4-3 6-2 2-4 3-6 3l-18 0c-3 0-5-1-7-3-2-2-3-4-3-6l0-19c0-2 1-4 3-6 2-2 4-3 7-3l18 0c2 0 4 1 6 3 2 2 3 4 3 6z m-73-73l0 19c0 2-1 4-3 6-2 2-4 3-6 3l-19 0c-2 0-4-1-6-3-2-2-3-4-3-6l0-19c0-2 1-4 3-6 2-2 4-3 6-3l19 0c2 0 4 1 6 3 2 2 3 4 3 6z m73 0l0 19c0 2-1 4-3 6-2 2-4 3-6 3l-18 0c-3 0-5-1-7-3-2-2-3-4-3-6l0-19c0-2 1-4 3-6 2-2 4-3 7-3l18 0c2 0 4 1 6 3 2 2 3 4 3 6z m-73 393l110 0 0-438-330 0 0 438 110 0 0-64c0-2 1-4 3-6 2-2 4-3 6-3l92 0c2 0 4 1 6 3 2 2 3 4 3 6z m146-457l0 476c0 5-2 9-5 13-4 3-8 5-13 5l-366 0c-5 0-9-2-13-5-3-4-5-8-5-13l0-476c0-5 2-9 5-13 4-3 8-5 13-5l366 0c5 0 9 2 13 5 3 4 5 8 5 13z" />
    </symbol>
    <symbol id="usa-da-icon-search" viewBox="0 0 512 512">
        <path d="m347 238c0-36-12-66-37-91-25-25-55-37-91-37-35 0-65 12-90 37-25 25-38 55-38 91 0 35 13 65 38 90 25 25 55 38 90 38 36 0 66-13 91-38 25-25 37-55 37-90z m147 237c0 10-4 19-11 26-7 7-16 11-26 11-10 0-19-4-26-11l-98-98c-34 24-72 36-114 36-27 0-53-5-78-16-25-11-46-25-64-43-18-18-32-39-43-64-10-25-16-51-16-78 0-28 6-54 16-78 11-25 25-47 43-65 18-18 39-32 64-43 25-10 51-15 78-15 28 0 54 5 79 15 24 11 46 25 64 43 18 18 32 40 43 65 10 24 16 50 16 78 0 42-12 80-36 114l98 98c7 7 11 15 11 25z" />
    </symbol>
    <symbol id="usa-da-icon-eye" viewBox="0 0 512 512">
        <path d="m475 274c-29-45-65-78-108-101 11 20 17 42 17 65 0 35-13 65-38 90-25 25-55 38-90 38-35 0-65-13-90-38-25-25-38-55-38-90 0-23 6-45 17-65-43 23-79 56-108 101 25 39 57 70 95 94 38 23 79 34 124 34 45 0 86-11 124-34 38-24 70-55 95-94z m-205-109c0-4-2-7-4-10-3-3-6-4-10-4-24 0-44 8-61 25-17 17-26 38-26 62 0 4 1 7 4 9 3 3 6 4 10 4 4 0 7-1 10-4 2-2 4-5 4-9 0-17 5-31 17-42 12-12 26-18 42-18 4 0 7-1 10-4 2-2 4-6 4-9z m242 109c0 7-2 13-6 20-26 44-62 79-107 105-45 27-93 40-143 40-50 0-98-13-143-40-45-26-81-61-107-105-4-7-6-13-6-20 0-6 2-13 6-19 26-44 62-79 107-106 45-26 93-39 143-39 50 0 98 13 143 39 45 27 81 62 107 106 4 6 6 13 6 19z" />
    </symbol>
    <symbol id="usa-da-icon-floppy-o" viewBox="0 0 512 512">
        <path d="m146 439l220 0 0-110-220 0z m256 0l37 0 0-256c0-3-1-6-3-11-2-5-4-8-6-10l-80-80c-2-2-5-4-10-6-4-2-8-3-11-3l0 119c0 8-3 14-8 19-5 6-12 8-19 8l-165 0c-7 0-14-2-19-8-6-5-8-11-8-19l0-119-37 0 0 366 37 0 0-119c0-8 2-14 8-19 5-6 12-8 19-8l238 0c7 0 14 2 19 8 6 5 8 11 8 19z m-109-265l0-92c0-2-1-4-3-6-2-2-4-3-7-3l-54 0c-3 0-5 1-7 3-2 2-3 4-3 6l0 92c0 2 1 4 3 6 2 2 4 3 7 3l54 0c3 0 5-1 7-3 2-2 3-4 3-6z m182 9l0 265c0 8-2 14-8 19-5 6-11 8-19 8l-384 0c-8 0-14-2-19-8-6-5-8-11-8-19l0-384c0-8 2-14 8-19 5-6 11-8 19-8l265 0c8 0 16 1 25 5 9 4 17 9 22 14l80 80c5 5 10 13 14 22 4 9 5 17 5 25z" />
    </symbol>
    <symbol id="usa-da-icon-large-file-icon" viewBox="0 0 512 512">
        <path d="m68 487l0-471-5-6 0 482m5-476l294 0 4-6-303 0m404 477l-399 0-5 5 409 0m-5-352l0 347 5 5 0-358m-111 6l106 0 5-6-106 0m-4-118l-1 124 5-6 0-124m101 124l-101-118 0-6 106 124z" />
    </symbol>
    <symbol id="usa-da-icon-bell-o" viewBox="0 0 512 512">
        <path d="m261 485c0-3-2-5-5-5-11 0-21-4-29-12-8-8-12-18-12-29 0-3-2-5-5-5-3 0-4 2-4 5 0 14 5 26 14 35 10 10 22 15 36 15 3 0 5-1 5-4z m-191-83l372 0c-51-57-76-136-76-237 0-10-3-20-7-30-5-11-11-21-20-30-8-9-20-17-35-23-14-6-30-9-48-9-18 0-34 3-48 9-15 6-27 14-35 23-9 9-15 19-20 30-4 10-7 20-7 30 0 101-25 180-76 237z m424 0c0 10-4 19-11 26-7 7-16 11-26 11l-128 0c0 20-7 37-21 52-15 14-32 21-52 21-20 0-37-7-52-21-14-15-21-32-21-52l-128 0c-10 0-19-4-26-11-7-7-11-16-11-26 10-8 18-16 26-25 8-9 16-20 25-34 8-14 15-29 21-45 6-16 10-36 14-59 4-23 6-48 6-74 0-29 11-56 33-81 22-25 52-40 88-45-2-4-2-8-2-12 0-7 2-14 8-19 5-5 11-8 19-8 8 0 14 3 19 8 6 5 8 12 8 19 0 4 0 8-2 12 36 5 66 20 88 45 22 25 33 52 33 81 0 26 2 51 6 74 4 23 8 43 14 59 6 16 13 31 21 45 9 14 17 25 25 34 8 9 16 17 26 25z" />
    </symbol>
</svg>