<svg xmlns="http://www.w3.org/2000/svg" style="display: none;">
    <symbol id="usa-da-icon-lock" viewBox="0 0 512 512">
        <path d="M163 233.6h181.7v-68.4c0-24.7-8.7-46-27.5-63.3C300 84 278.8 74 254 74s-46 10-63.4 27.5c-18.8 17.7-27.6 39-27.6 63.5v68.4zM454 506H59V233.6h36.7v-68.4c-1-43.5 15.2-82 45-113.3 32-31 69-46 113.2-46 42 0 79 15 109 46 32 31 48 69.4 50 113v68.3h41V506z" />
    </symbol>
    <symbol id="usa-da-icon-unlock" viewBox="0 0 512 512">
        <path d="M506 181.4v77.2c0 3-4 18.4-29.6 18.4s-28.2-15.4-29.5-18.4v-77.2c1-24-6-41.8-23-54.6-14-16.6-32-25-55-27.3-19 2.3-38 10.7-54.6 27.3-13 12.8-20 30.7-18 54.6V236H351v231.7H6V236h231.8v-54.6c-.7-39.7 12-71.2 36.4-95.5 28-29 59.5-41 95.4-41 38.7 0 70.2 12 95.5 41 28 24 41 55 41 95z" />
    </symbol>
    <symbol id="usa-da-icon-user" viewBox="0 0 512 512">
        <path d="M397 374c72.7 24.8 109 46.5 109 64v56H6v-56c0-17.5 36.3-39.2 109-64 33-12.4 56-25 67.3-37.3 12.5-12.4 18.7-29 18.7-49.7 0-8.2-4-16.5-12.4-25.8-7.3-10.4-12.5-22.8-16.6-39.3-1-4.5-2-7.6-5.2-9.7-2-2-4.2-3-7.3-4-2-1-4-4.2-7.2-9.4-2-5-4.2-12.4-4.2-22.8 0-5.2 0-10.3 2.4-13.4 2-4.4 3-6.4 5.2-6.4l2-2c-3-17.7-5-33.2-6.2-46.7-2-19.7 5.2-39.4 21.8-60 15.7-19.7 43.7-30 83-30s67.5 10.3 84 30c16.7 20.6 23 40.3 21 60l-6.4 46.5c6.3 2 9.4 10.3 9.4 21.7 0 10.3-2.2 17.5-4.3 22.7-3 5.3-5 8.4-7.3 9.4-3 1-5.2 2-7.3 4-3 2.3-4 5.4-5.2 9.5-3 17.6-8.3 30-16.6 39.4-8.3 9.2-12.4 17.5-12.4 25.7 0 20.7 6.2 37.3 18.6 49.7C342 349 365 361.7 397 374" />
    </symbol>
    <symbol id="usa-da-icon-cloud-upload" viewBox="0 0 512 512">
        <path d="M484 277.5c-13.6-18.3-32.7-30-55.6-35.6 7.3-11 11-23 11-35.7 0-18.3-6.5-34.7-19.3-47.5-13.6-12.8-29-19.2-47.3-19.2-16.4 0-31 5.5-43 15.5-10.8-24.5-27.3-44.6-49.2-60.2C257.8 80.3 233.2 73 205.8 73c-36.5 0-68.4 12.8-94 38.3-26.5 26.5-39.2 57.5-39.2 95v11c-20 10-36.5 23.6-48.4 42.8C11.5 279.4 6 300.4 6 323c0 32 11 59.4 33.8 82.3C62.6 428 90 440 122.8 440h283.8c27.4 0 51-10 70.3-29.2 20-20 29-43.8 29-71.2 0-22.8-7.3-43.8-22-62zm-216-6.8v105h-60.4v-105H139l99-105 98.7 105H268z" />
    </symbol>
    <symbol id="usa-da-icon-cloud-download" viewBox="0 0 512 512">
        <path d="M506 339.6c0 27.4-9 51-29.2 71.2-19.2 19.2-43 29.2-70.3 29.2H122.8c-33 0-60.2-12-83-34.7C17 382.5 6 355 6 323c0-22.7 5.5-43.7 18.2-62.8 12-19.2 28.3-33 48.4-43v-11c0-37.3 12.8-68.4 39.2-95C137.4 86 169.3 73 205.8 73c27.4 0 52 7.3 74.8 22 22 15.4 38.4 35.5 49.3 60.2 11.6-10 26.2-15.6 42.6-15.6 18.2 0 33.7 6.4 47.4 19.2 13 12.8 19.3 29.2 19.3 47.5 0 12.8-3.7 24.6-11 35.6 23 5.2 42 17 55.7 35.3 14.7 18.3 22 39.3 22 62zm-268 44L336.5 279H139l99 105zM207.5 279H268V174h-60.4v105z" />
    </symbol>
    <symbol id="usa-da-icon-angle-down" viewBox="0 0 512 512">
        <path d="M77.2 143L255 303.7l179.7-160.2 71.3-.4-250.5 225.4L6 143.7" />
    </symbol>
    <symbol id="usa-da-icon-angle-left" viewBox="0 0 512 512">
        <path d="M368.5 77.2L208 255l160.2 179.7.4 71.3-225.2-250.5L368 6" />
    </symbol>
    <symbol id="usa-da-icon-angle-right" viewBox="0 0 512 512">
        <path d="M143.5 434.8L304 257 143.8 77.3 143.4 6l225.2 250.5L144 506" />
    </symbol>
    <symbol id="usa-da-icon-angle-up" viewBox="0 0 512 512">
        <path d="M434.8 368.5L257 208 77.3 368.2l-71.3.4 250.5-225.2L506 368" />
    </symbol>
    <symbol id="usa-da-icon-angle-down-circle" viewBox="0 0 60 60">
        <path d="M19.987 24.004l9.96 8.55 10.058-8.53L44 24 29.972 36 16 24.037" />
        <path d="M30 60C13.43 60 0 46.57 0 30S13.43 0 30 0s30 13.43 30 30-13.43 30-30 30zm0-1.2c15.906 0 28.8-12.894 28.8-28.8S45.906 1.2 30 1.2 1.2 14.094 1.2 30 14.094 58.8 30 58.8z" />
    </symbol>
    <symbol id="usa-da-icon-angle-left-circle" viewBox="0 0 60 60">
        <path d="M34.996 19.987l-8.55 9.96 8.53 10.058L35 44 23 29.972 34.963 16" />
        <path d="M30 60C13.43 60 0 46.57 0 30S13.43 0 30 0s30 13.43 30 30-13.43 30-30 30zm0-1.2c15.906 0 28.8-12.894 28.8-28.8S45.906 1.2 30 1.2 1.2 14.094 1.2 30 14.094 58.8 30 58.8z" />
    </symbol>
    <symbol id="usa-da-icon-angle-right-circle" viewBox="0 0 60 60">
        <path d="M26.004 19.987l8.55 9.96-8.53 10.058L26 44l12-14.028L26.037 16" />
        <path d="M30 60C13.43 60 0 46.57 0 30S13.43 0 30 0s30 13.43 30 30-13.43 30-30 30zm0-1.2c15.906 0 28.8-12.894 28.8-28.8S45.906 1.2 30 1.2 1.2 14.094 1.2 30 14.094 58.8 30 58.8z" />
    </symbol>
    <symbol id="usa-da-icon-angle-up-circle" viewBox="0 0 60 60">
        <path d="M19.987 35.996l9.96-8.55 10.058 8.53L44 36 29.972 24 16 35.963" />
        <path d="M30 60C13.43 60 0 46.57 0 30S13.43 0 30 0s30 13.43 30 30-13.43 30-30 30zm0-1.2c15.906 0 28.8-12.894 28.8-28.8S45.906 1.2 30 1.2 1.2 14.094 1.2 30 14.094 58.8 30 58.8z" />
    </symbol>
    <symbol id="usa-da-icon-check" viewBox="0 0 512 512">
        <path d="M506 139L198.3 447 6 254.6l74-74 118.3 118.2L432 65" />
    </symbol>
    <symbol id="usa-da-icon-globe" viewBox="0 0 512 512">
        <path d="M256 6C118 6 6 118 6 256s112 250 250 250 250-112 250-250S394 6 256 6zm36.3 391c0-1.4-2.5-2.7-4-4-5-3.8-7.5-5-8-8-1 .3-1-1-4-4 .6.4-.7-.8 0-4-3.3-2-4.6-3.3-4-4-.6-3-2-3 0-4-5.7 2.2-12.2 1-20.3-4-2.3-.2-4.8-2.8-8-8-4.6-4-7.2-5.2-12.2-4-.2-1.2-1.5 0-4 0-2.6 1.4-4 1.4-4 0-2.4 1.4-5 0-8 0-1-1.2-3.5-2.5-8.2-4-1.8-2.3-4.4-3.6-4-4l-8-4h-4c-2.6-2-4-3.3-4-4-2.4-3-3.7-4.4-4-4-1-4.3-1-6.8-4-12.2 1.8-3.7.5-6.3 0-8-2-3.5-4.7-6-8.2-8.2-1.7-1.8-4.3-3-8-4 3.7 1 3.7-1.6 0-4-.2-4-2.8-6.6-4-8l-4-4c-2.4-3.7-5-5-8.2-8.2.6-.7-.7-3.3-4-4 .7-4.4-.6-7 0-8-.6-1.6-2-3-4-4-3-.2-3-1.5-4 0 1-.2 1 2.4 0 4 2.3 3.5 2.3 4.8 4 8-.4-.5 2.2 3.3 4 8 8.5 11 11 18.6 12 24.3-2.2-.5-3.5-.5-4 0-.8-1.8-.8-3 0-4-2-3-2-4.2-4-4 .7-2.8-.6-4-4-4-3-4-4.3-5.2-4-8 1-2.4-.3-5-4-8.2-2.7-3.3-4-6-4-8-1.3-.5-2.6-4.4-4-8.2-1-4-2.4-6.5-4-8-1-1.2-2.3-2.5-4-4-.8-1-2-2.3-4-4-3.2-1-4.5-2-4-4-1.8 2-3 .6-4 0-8-11-10.7-17.5-8-16.2-2.7-1-5.3-2-8-8-1.2-6-2.5-10 0-12h-4c1.5-3 1.5-5 0-12 1.5-2 2.8-8 4-12 0-3 1.4-5 4-4-2.7-1-4-2-4-4-2.5-4-2.5-7 0-8 3.6 2 5 4 4.2 4 3.7-1 5-3 3.8-8 0 1-2.7-1-8-8-9-5-15.4-7-16.2-8 2-2 2-4 0-8-3 2-4.3 4-4 4-.3-2-1.6-3 0-4-1.6-4-1.6-4-4-4-.2-1-1.4-3-4-4 22-35 51.7-62 88.7-80 .4-1 3-2 8-4 .2 3 2.8 3 4 4 1.3 2 4 3 4 4 3.7 2 5 3 8.2 4-2-1-4-4-4-8 0 1 3-2 8-4 5 1 9 1 12 0-3-1-5-5-8-8l-4 4c-1-3-6-3-12 0-3 1-3 2-4 0-4 4-6 5-9 4 0 2-1 2-4 0 13-4 25-9 36-12 0-1 1 0 4 0 1 4 2 4 4 4-2 1-2 1 0 4-3 1-3 4 0 4 0 3 1 3 4 4 1 1 3 1 8 0 2-1 3-1 4 0h4c7 1 10 0 9-3l-1-1 1 1c1 2 2 4 3 7 1 2 1 4 4 4-1 0 1-1 0-4-2-2-2-3 0-4-1-1 1-2 4-4-1 1 1 1 4 0 3-2 2-4 0-4-2-3-3-3-4-4h-4c-3-1-4-1-4-4h-4c1-3 2-4 4-8h8c2 0 5 2 8 4 4 3 6 5 0 8 3 1 6 1 8 4 5 1 7 2 5 4 3-3 5-4 7-3 1 0 2 1 4 4-1 3 1 5 0 4 3 4 5 4 8 4 1-2 3-5 4-8 3-2 4-3 4-4 3-4 7-6 8-4 2 1 3 1 4 4 2 3 2 6 0 4 1 3 2 6 4 8-2 4-5 6-9 4h-4c-4-2-5-2-8-4 0 0-1 2-4 4-1 0-2 3-4 4-1 4-2 7-4 8-3 4-10 5-16.8 4-2 0-2 0-4 4-.7 0-.7 1-4 0l-.4 5h.5c0 .8-.5 1-.6.7-3 4-4 6.3-3.7 7.4-2 2.3-2 4 0 8-2 1-3 3.4-4 4 3.4 1 6 2 8 8 1 .3 1 3 0 4 7-2 15-2 20.2 0 9 4 14 7 16 12 .4-4 4.3-4 12-4 0 2.5 2.6 6.4 4 12 1.2 5 2.5 7.4 4 8 3.6 4.6 6.2 6 8 4 2-1 3.4-1 4-4 3.2.7 3.2-.6 4 0-3.4-3-4.7-6-4-8-2-3-2-5.6 0-8 .6 0 2-1.4 4-4 4.4-1 7-4 8.2-4 0-5-1-7.5-4-8-3.5-3.4-6-4.7-8-8 2-.7 3-2 4-4 3-.5 3-3 4-4-1 0-1-3-4-4 .4-3 .4-5 0-4 .4-2.6.4-4 0-4 3-2.5 7-2.5 12 0h16c-.5 3 1 3 4 4 2 1.3 3 2.5 4 4 3 0 4.3 1 4 4 .3 0 1.6 1 0 4 3 2 1.7 3 .4 4 .8 0 3 1 4 0 5 2 5 3.3 0 4 2.6 1 2.6 1 4 0 1 1 2.5-.7 4 0 2.3-2 2.3-3 4-4 1 1 2 1 4 0 2-2 2-3 4-4 3-1.7 3-1.7 4 0 1.7 1 1.7 2 4 4 0 2 1.5 3.3 4 4 0 2 1.4 3 4 4-1.4 2-1.4 3 0 8 0 1.5 1 3 4 4-.2 1.4 2.3 2.6 4 4h4c.7-1.4 2-1.4 4 0 3 0 3-1.4 4 0-1 1 .4 4 0 8 3 0 5.6 1 8 0v8c-1 2-2.4 3.3-8 4-1 .5-2.2.5-4 0-.7 1.8-2 3-4 4-3 4-4.4 5.5-4 8-4.3-6.3-10.7-7.6-20-4-9 .3-15 1.6-16 4-5.6 1.5-8 2.7-12 4 1 0 1 1.3 0 4 0 0-1.3 1-.4 3.7l4-4s1-1 0-4h4c6-2.3 11-4 16-4 4 3 5.3 5.6 0 8h-4c-1 1 2 1 4 4 4 4 4 6.6 0 8.6-1 4.8-5 6-8 4l-8 8c-.7-1-2-1-4 0-3 1.8-5.7 3-4 4-3 0-3 1.7-4 4 1 2.8 1 4 0 4 0 1 0 1-4 0 1.2 2-1 4-4 4-5 1-7.7 2-8 4 .3 2 .3 5 0 4-3 4.8-6 4.8-8.7 0-1.7 2-3 3-4 4v4c0 4 0 5-3 7 1 0 2 0 3 1 3 2.8 4 2.8 4 4-1.4 1-2.7 2.7-4 4 1.3 2-1 6-7.7 12l-.2.5h.6c-.6 0-2.3.7-4.4.4-1 3-2 3-4 4-2 0-3.5 1.5-4 0-2 4-3 5.4-4 8-2 2.6-2 5 0 8-.6.8 2 2 8 4v12c-2 1.6-.8 3 0 4-.8 1.4-.8 4 0 4-.8 3.8-2 5-4 4 1 1-.6 1-4 0-.5-.2-3-6.6-4-16-3-2.2-4-5-8-8.2v4c-2.7-2-2.7-2-4 0v-4c-2.5-.3-2.5-1.6-4 0-1-3-3.7-3-4-4-4.8-.2-7-.2-8 0-5 3-8.8 2.6-11-2-.5.8-.8 1.4-1.5 2 2.8 2.4 2.8 3.7 4 4-2.6 3.5-5.2 3.5-8 0-2.4-.3-6.2-1.6-12.2 0-4 1-8 1-8 0-1 1-1 1 0 4-1 .8-2.5.8-4 0-1 3.4-2.3 4.7-4 4-1 3-2 4.5-4 4 2 5.7 3 8 4 12-1 0-2 4-4 8.4.6 3 .6 7 0 8 .6 4 2 9 4 16 3 3.3 5.6 7 8 8 3 2 5 3 8.5 4 5-1 8.8-1 8 0 3-2 4.7-3 4-4l4-4c-1-3 .5-4 0-4 1.8-5 5.6-8 8-8h8c1 3 2 3 4 4-3 2-3 4-4 4 0 2-1.4 5-4 8v4c-1.2 1-1.2 3 0 8-2 2.3-2.4 5-3.2 4 1 1 4 1 7.8-.4-.3-1-.3-2 0-4 1 4.6 3.6 4.6 4 4 4.7 1.8 6 .5 8-4 .7 3 2 4.6 4 8 3 3 4 5.6 4 8.5v4c3 2.6 3 4 4 4-2.4 1-4 2-4 4-2.2-2-3.5-2-4 0 .5 2 1.8 3.6 0 4l4 4c4 9.7 10.7 12 16 8 2 8 1 12-4 12.6-1.3.6-3-.7-4-4-3-2-4-4-4.2-6-1 1.4-2 2-4 2zm8 88.8v-8c0 .3 1.4-2.2 4-4 1.2-4.5 1.2-7 0-8.2-2.7-1.5-4-5.3-4-12 1.4-2.2 5.2-7.3 12.2-12.2 4.5-5.3 5.8-10.3 4-16-.8-5.8-.8-9.6-4-16.2 2-6 2-10 0-12 .7.8 2 .8 4 4 3-2 4.3-.7 4 0 1.6-.7 1.6-2 4-4-1.2-1.7 0-3 0-4l4-4c1.2 0 2.4-1.3 4 0-.3-1.3-.3-2.5 4-4-.5-1 .8-2.3 4-4 4.4-.8 5.7.4 4 0 3 3 3 5.5 0 8 3 0 3-2.4 4-4 1.4-1 2.7-2.2 4-4 1.2 1.8 2.5 1.8 4 4 1-1 2.3.3 4 0 .8 1.6 2 3 4 4 3.2 0 8.3 2.6 12 8 1.4-2.8 1.4-2.8 4-4 1.2 0 1.2-1.3 4 0 1-1.3 2.3-1.3 4 0h4c2 1.3 2 1.3 4 4 3 1 4.3 2.3 4 4 4 .8 5.3 2 8.2 0-.3 3.4 1 4.6 0 4 2.3 3 2.3 4.4 4 4-.5 3 2 3 8 4-.8 1.4 1.8 1.4 4 4 1.6-1.3 3-1.3 4 0-35 36.8-77.2 59.7-128.3 68.6z" />
    </symbol>
    <symbol id="usa-da-icon-trash" viewBox="0 0 512 512">
        <path d="M351.7 73.8L320 6H192.8L161 73.8H17v42.4h42.4V506h394V116.2H496V73.8H351.6zM215.4 31.4h82L316 73.8H196.8l18.6-42.4zM411 463.6H101.8V116.2H411v347.4z" />
        <path d="M233 179.7h46.7V400H233zm89 0h46.7V400H322zm-178 0h46.7V400H144z" />
    </symbol>
    <symbol id="usa-da-icon-close" viewBox="0 0 512 512">
        <path d="M256 212L50 6 6 50l206 206L6 462l44 44 206-206 206 206 44-44-206-206L506 50 462 6" />
    </symbol>
    <symbol id="usa-da-icon-check-circle" viewBox="0 0 512 512">
        <path d="M256 506c138 0 250-112 250-250S394 6 256 6 6 118 6 256s112 250 250 250zm157.3-322.6L219.7 377l-121-121 48.4-48.4 73 76.6L365 135l48.3 48.4z" />
    </symbol>
    <symbol id="usa-da-icon-close-circle" viewBox="0 0 512 512">
        <path d="M256 6C118 6 6 118 6 256s112 250 250 250 250-112 250-250S394 6 256 6zm119.8 335.5l-34.3 34.3-85.5-85.6-85.5 85.6-34.3-34.3 85.6-85.5-85.6-85.5 34.3-34.3 85.5 85.6 85.5-85.6 34.3 34.3-85.6 85.5 85.6 85.5z" />
    </symbol>
    <symbol id="usa-da-icon-exclamation-circle" viewBox="0 0 512 512">
        <path d="M256 506c138 0 250-112 250-250S394 6 256 6 6 118 6 256s112 250 250 250zm-40.3-161.3h80.6v80.7h-80.6v-80.7zm-8-258h96.7l-8 225.8h-80.7l-8-226z" />
    </symbol>
    <symbol id="usa-da-icon-exclamation-triangle" viewBox="0 0 512 512">
        <path d="M502.7 491.8l-240-480c-4-8-10.3-8-14.3 0l-240 480c-3.8 7.8 0 14.2 9 14.2h476.3c9 0 13-6.4 9-14.2zM282 438c0 .6-.3 1-1 1h-51.4c-.6 0-1-.4-1-1v-47h-.3c0-.5.4-1 1-1H281c.7 0 1 .5 1 1v47zm2-74.7h-57l-7-178.5h71l-7 178.5z" />
    </symbol>
    <symbol id="usa-da-icon-question-circle" viewBox="0 0 512 512">
        <path d="M256 506c138 0 250-112 250-250S394 6 256 6 6 118 6 256s112 250 250 250zM131 163.3s46.8-75.6 113-76.7c68.8-1 132.4 37.7 133 109 .5 70.4-79 67-88.7 125h-84.7c1.4-48 6.7-65.7 40.3-84.8 28.5-18 69.4-33 28-64.5-37.6-28.8-80.7 36.3-80.7 36.3L131 163.3zm72.6 181.4h84.7v80.7h-84.7v-80.7z" />
    </symbol>
    <symbol id="usa-da-icon-pause-circle" viewBox="0 0 512 512">
        <path d="M256 506c138 0 250-112 250-250S394 6 256 6 6 118 6 256s112 250 250 250zm20.2-338.7h80.6v177.4h-80.6V167.3zm-121 0h80.6v177.4h-80.6V167.3z" />
    </symbol>
    <symbol id="usa-da-icon-info-circle" viewBox="0 0 512 512">
        <path d="M256 6C118 6 6 118 6 256s112 250 250 250 250-112 250-250S394 6 256 6zm-40.3 76.6h84.7V151h-84.7V82.7zm121 346.8H175.3V361h32.3v-97h-32.3v-68.4h121V361h40.3v68.4z" />
    </symbol>
    <symbol id="usa-da-icon-file" viewBox="0 0 512 512">
        <path d="M469.4 147s-.4 359 0 359H42V6h286.3c7.6 0 141 136 141 141zm-145-104.7v113H433l-108.7-113zM433 469.7V183.4H292c-.4 1.4 0-141 0-141H78.3v427.3H433z" />
    </symbol>
    <symbol id="usa-da-icon-calendar" viewBox="0 0 512 512">
        <path d="M418.6 79.8V6H308v73.8H201.4V6H90.8v73.8H17V506h475.4V79.8h-73.8zm-73.7-37h36.8v102.6h-37V43zm-217.3 0h37v102.6h-37V43zM144 465H58v-82h86v82zm0-98.3H58v-82h86v82zm0-98.4H58v-82h86v82zM246.5 465h-86v-82h86v82zm0-98.3h-86v-82h86v82zm0-98.4h-86v-82h86v82zM349 465h-86v-82h86v82zm0-98.3h-86v-82h86v82zm0-98.4h-86v-82h86v82zM451.4 465h-86v-82h86v82zm0-98.3h-86v-82h86v82zm0-98.4h-86v-82h86v82z" />
    </symbol>
    <symbol id="usa-da-icon-cog" viewBox="0 0 512 512">
        <path d="M506 303.8v-95.2l-67.3-11.8c-3-9.5-7-18.8-11.6-28l40-55.8-68-67-55.3 39c-9-4.8-18.4-8.6-28-11.7L303.7 6h-95l-12 67.2c-9.5 3-18.8 7-28 11.6L113 45.5 45.4 113l39.3 55.7c-4.7 9-8.5 18.4-11.6 28L6 208.3v95.2l67.2 11.8c3 9.5 7 18.8 11.6 28L45.5 399l67.4 67.5 55-39.3c9 4.7 18 8.5 28 11.6l12 67.2h95l11.5-67.2c10-3 19-7 28-11.6l56 39.3L466 399l-39.4-55c4.8-9 8.6-18 11.7-28l67.3-12zm-252.2 29.5c-44 0-79.6-35.6-79.6-79.6 0-44 35.5-79.5 79.5-79.5s79.6 35.5 79.6 79.5-35.5 79.6-79.5 79.6z" />
    </symbol>
    <symbol id="usa-da-icon-building" viewBox="0 0 512 512">
        <path d="M346 366h36v36h-36zm-72-216h36v36h-36zm-72-72h36v36h-36zm72 216h36v36h-36zm0-216h36v36h-36zm72 72h36v36h-36zm0-72h36v36h-36zm0 144h36v36h-36zm0 72h36v36h-36zm-72-72h36v36h-36zM130 366h36v36h-36zm0-72h36v36h-36zm72-144h36v36h-36zm-72 72h36v36h-36z" />
        <path d="M58 6v500h396V6H58zm360 464H310v-68H202v68H94V42h324v428z" />
        <path d="M202 222h36v36h-36zm-72-72h36v36h-36zm72 144h36v36h-36zM130 78h36v36h-36z" />
    </symbol>
    <symbol id="usa-da-icon-search" viewBox="0 0 512 512">
        <path d="M337.8 208.3c0-36.5-12-66.8-37.4-92-25.3-25.4-55.7-37.6-92-37.6-35.5 0-66 12.2-91.2 37.5-25.3 25.3-38.5 55.6-38.5 92 0 35.5 13.2 66 38.5 91.2 25.3 25.3 55.7 38.4 91 38.4 36.5 0 67-13 92.2-38.4 25.3-25.3 37.4-55.7 37.4-91zM453.5 506L327 379.5c-34.6 24.4-73.3 36.7-116 36.7-27.6 0-54-5-79.6-16.3-25.5-12-47-26-65.3-44-18-19-32-40-43-66-11-25-17-52-17-79 0-29 6-55 16.8-80C33.8 106 48 83.2 66 65c18.6-18.3 40-32.6 65.5-44 25.5-9.8 52-15 79.5-15 28.4 0 55 5 80.4 15.3 24.5 11.2 47 25.5 65.3 44 18.3 18.2 32.6 40.7 43.8 66.2 10.2 24.5 16.3 51 16.3 79.6 0 43-12.2 82-36.7 117l126 126-52 53z" />
    </symbol>
    <symbol id="usa-da-icon-map-marker" viewBox="0 0 512 512">
        <path d="M172.8 172.7c0-23 8-43.4 24-59.4 17.3-16 36.8-24 59.7-24 23 0 42.4 8 59.7 24 16 16 24 36.5 24 59.4 0 22.8-8 42.2-24 59.3-17.3 16-36.8 24-59.7 24-23 0-42.4-8-59.7-24-16-17-24-36.5-24-59.3zm-83.8 0c0 24 3.4 43.3 10.3 58.2 0 0 149.2 275 157.2 275s157.2-275 157.2-275c7-15 10.3-34.6 10.3-58.5C424 126 408 87 374.7 54 342.5 22 302.4 6 256.5 6c-46 0-86 16-118.2 48C105 87 89 126 89 172.6z" />
    </symbol>
    <symbol id="usa-da-icon-table" viewBox="0 0 512 512">
        <path d="M6 61h500v117H6V61zm339 117h15.8l-.2 261.8h-16L345 178zm-339 .2h16V452H6V178.2zm484 0h16V452h-16V178zM22 439.8h468v12H22v-12z" />
    </symbol>
    <symbol id="usa-da-icon-table-open" viewBox="0 0 512 512">
        <path d="M362.8 373H28v16h321l13.8-16zm65.2-56.5V125h-16v191.4l8.2-9.4 7.8 9.5zM44 125h368v59H44v-59zm-16-16h400v16H28v-16zm0 16h16v248H28V125z" />
        <path fill-opacity=".4" d="M44 213h369v34H44zm0 63h369v34H44zm348.4 63H44v34h318.8l29.6-34z" />
        <path fill-opacity=".6" d="M298 184h16.8v189H298z" />
        <path fill="#000" d="M484 404l-132-.6 67.6-77.4" />
    </symbol>
    <symbol id="usa-da-icon-table-closed" viewBox="0 0 512 512">
        <path d="M361.5 364H29v16h345.7l-13.2-16zm67.5-41.6V116h-16v206.4h16zM45 116h368v59H45v-59zm-16-16h400v16H29v-16zm0 16h16v248H29V116z" />
        <path fill-opacity=".4" d="M45 204h369v34H45zm0 63h369v34H45zm288.6 63H45v34h316.5l-28-34z" />
        <path fill-opacity=".6" d="M299 175h16.8v189H299z" />
        <path fill="#000" d="M352 334l132 .6-67.6 77.4" />
    </symbol>
    <symbol id="usa-da-icon-more-options" viewBox="0 0 512 512">
        <ellipse cx="59.2" cy="256" rx="53.2" ry="53" />
        <ellipse cx="256" cy="256" rx="53.2" ry="53" />
        <ellipse cx="452.8" cy="256" rx="53.2" ry="53" />
    </symbol>
    <symbol id="usa-da-icon-tree" viewBox="0 0 512 512">
        <path d="M234.2 326.7V354zM6 283.3h201v174H6zM6 55h201v201H6zm500 174V55h-70.8v402.2H506v-70.7h-70.7v-27.2H506V256h-70.7v-27m-201 125h174v103.2h-174zm0-299h174v271.7h-174z" />
    </symbol>
    <symbol id="usa-da-icon-bar" viewBox="0 0 512 512">
        <path d="M6 226h97.826v233.696H6V226zM140 57h97.826v402.174H140V57zm134 98h97.826v304.348H274V155zm134 136h97.826v168.478H408V291z" />
    </symbol>
    <symbol id="usa-da-icon-pie" viewBox="0 0 512 512">
        <path d="M70.8 89C116.4 38 182.5 6 256 6v125c-36.7 0-69.7 16-92.5 41.3L70.8 89zm-9.4 11C27.4 142.7 7 197 7 256h124.5c0-27 8.5-52 23-72.3l-93-83.7zm213.8 405.3c122.3-9.4 220-107.4 229-230.2h-125c-8.3 54-50.6 96.4-104 104.7v125.8zm-19.2.7C125 506 17.4 404.2 7.7 275H133c9 60 60.7 106 123 106v125zM275.2 6.7c96.3 7.4 177.3 69.8 211.8 156 11.6 28.7 18 60.2 18 93.2H380.5c0-62.8-45.7-114.5-105.3-123.7V6.7z" />
    </symbol>
    <symbol id="usa-da-icon-line" viewBox="0 0 512 512">
        <path d="M35 403.6V52H.6v409h512v-34H59.3L186 279.8l52.5 90.6 237-239.5 34.7 34.5V74.2l-91.8-.6 33.7 33.7-207 208.3-54.4-93.6L35 403.6" />
    </symbol>
    <symbol id="usa-da-icon-filter" viewBox="0 0 512 512">
        <path d="M42 6h427.3v72.7H42zm0 91h427.3L300.6 287.7v176.7l-90 37V287.8" />
    </symbol>
    <symbol id="usa-da-icon-add-filter" viewBox="0 0 512 512">
        <path d="M111.808 111.14V0h37.27v111.14h111.807v37.045H149.077v111.14h-37.27v-111.14H0V111.14h111.808zm74.602-59.845H484.5v56.994H298.154V74.132l-111.757-.04.013-22.798zm111.744 71.243H484.5L337.385 297.306v161.896L258.923 493V297.306l-72.577-86.31v-25.862l111.808.214v-62.81z" />
    </symbol>
    <symbol id="usa-da-icon-info" viewBox="0 0 512 512">
        <path d="M199.5 6h119v101.2h-119V6zm113.2 397.7v-237H140V269h48.6v134.7H140V506h232V403.7h-59.3z" />
    </symbol>
    <symbol id="usa-da-icon-arrow-down" viewBox="0 0 512 512">
        <path d="M6 81h500L256 431.6" />
    </symbol>
    <symbol id="usa-da-icon-arrow-up" viewBox="0 0 512 512">
        <path d="M256 81l250 350.6H6" />
    </symbol>
    <symbol id="usa-da-icon-guide" viewBox="0 0 512 512">
        <path d="M462.75 36.3l-95.38 373.36-317.2-.02-19.25-30.36h317.13L442.4.6 96.94 0 0 379.08l39.32 60.8 350.5.12L485 69.83 462.75 36.3zM146.57 68.92h190.5l-10.1 38.27H136.5l10.07-38.3zm-19.14 71.34h190.5l-10.1 38.27h-190.5l10.1-38.27z" />
    </symbol>
    <symbol id="usa-da-flag-logo" viewBox="0 0 145 78">
        <rect width="143" height="6" y="60" fill="#AAA" rx=".25" />
        <rect width="121" height="6" y="72" fill="#AAA" rx=".25" />
        <rect width="6" height="42" fill="#ECECEC" rx=".25" />
        <rect width="6" height="29" x="12" y="13" fill="#ECECEC" rx=".25" />
        <rect width="6" height="38" x="24" y="4" fill="#ECECEC" rx=".25" />
        <rect width="6" height="35" x="36" y="7" fill="#ECECEC" rx=".25" />
        <rect width="6" height="42" x="48" fill="#ECECEC" rx=".25" />
        <rect width="53" height="6" x="60" fill="#AAA" rx=".25" />
        <rect width="85" height="6" x="60" y="12" fill="#AAA" rx=".25" />
        <rect width="75" height="6" x="60" y="24" fill="#AAA" rx=".25" />
        <rect width="63" height="6" x="60" y="36" fill="#AAA" rx=".25" />
        <rect width="133" height="6" y="48" fill="#AAA" rx=".25" />
    </symbol>
    <symbol id="usa-da-icon-sort" viewBox="0 0 8 13">
        <path d="M1.5 3C.672 3 0 2.328 0 1.5S.672 0 1.5 0 3 .672 3 1.5 2.328 3 1.5 3zm5 0C5.672 3 5 2.328 5 1.5S5.672 0 6.5 0 8 .672 8 1.5 7.328 3 6.5 3zm-5 5C.672 8 0 7.328 0 6.5S.672 5 1.5 5 3 5.672 3 6.5 2.328 8 1.5 8zm5 0C5.672 8 5 7.328 5 6.5S5.672 5 6.5 5 8 5.672 8 6.5 7.328 8 6.5 8zm-5 5C.672 13 0 12.328 0 11.5S.672 10 1.5 10s1.5.672 1.5 1.5S2.328 13 1.5 13zm5 0c-.828 0-1.5-.672-1.5-1.5S5.672 10 6.5 10s1.5.672 1.5 1.5S7.328 13 6.5 13z" />
    </symbol>
    <symbol id="usa-da-hand-drawn-arrow" viewBox="0 0 28 100">
        <g fill="none" fill-rule="evenodd" transform="translate(12 8)">
            <path d="M5.566.213c-.553.247-.77.947-.5 1.29.238.303.48.614.772.856.596.49 1.217.95 1.848 1.4 4.32 3.05 7.71 7.01 10.834 11.21 2.33 3.13 3.897 6.68 4.96 10.43.554 1.95 1.02 3.93 1.39 5.92.646 3.45.444 6.94.043 10.39-.527 4.53-1.897 8.842-3.59 13.07-1.802 4.493-4.17 8.69-6.775 12.724-2.29 3.55-4.757 7-7.51 10.22-.43.51-.786 1.08-1.15 1.64-.16.246.047.864.357 1.005.242.107.553.172.804.12.26-.055.52-.236.72-.428.41-.4.81-.824 1.17-1.276 3.15-4.007 6.28-8.025 8.86-12.44 1.21-2.08 2.43-4.16 3.51-6.307.95-1.89 1.79-3.84 2.55-5.82 1.58-4.154 2.8-8.423 3.28-12.863.6-5.63.08-11.174-1.62-16.61-.78-2.5-1.83-4.887-2.88-7.28-.827-1.89-2.187-3.426-3.397-5.045C15.94 8 12.06 4.105 7.483.945 7.09.675 6.69.395 6.25.215c-.232-.1-.545-.002-.686 0zm4.725 84.272c1.11-.744 2.21-1.494 3.32-2.232 1.04-.686 2.08-1.355 3.11-2.043 4.16-2.775 7.91-5.972 10.57-10.286.25-.4.46-.832.65-1.263.13-.29-.09-.81-.39-.98-.35-.19-.74-.27-1.06-.01-.29.24-.56.53-.75.84-2.56 4.15-6.14 7.27-10.13 9.93-3.485 2.33-6.963 4.69-10.9 6.24-.35.14-.72.25-1.09.3-.13.02-.407-.17-.415-.28-.032-.47-.004-.942.03-1.412.524-7.042 1.38-14.065 1.207-21.152-.036-1.44-.125-2.864-.65-4.225-.102-.26-.23-.524-.397-.746-.26-.344-.668-.42-1.027-.265-.226.095-.435.363-.527.603-.094.25-.113.577-.042.836.744 2.723.547 5.503.483 8.266-.09 3.82-.38 7.63-.784 11.437-.26 2.46-.344 4.946-.68 7.41-.085.553-.04 1.13-.015 1.7.02.443.567.83 1.04.772.28-.04.586-.038.84-.15 2.53-1.103 5.18-1.93 7.62-3.28z" fill="#D7DCE4" fill-rule="evenodd" />
        </g>
    </symbol>
    <symbol id="usa-da-refresh" viewBox="0 0 448 384">
        <path d="M352 288l96-111.9h-64.7c-2.3-27.9-10.5-54-23.5-77.3-27.4-49.2-75.8-85.1-133-95.6-.7-.1-1.5-.3-2.2-.4-.5-.1-.9-.2-1.4-.2C213.1.9 202.6 0 192 0h-.4C100.7.2 24.6 63.6 4.9 148.6v.1c-.3 1.1-.5 2.2-.7 3.3l-.3 1.4c-.1.7-.3 1.4-.4 2.1-.2.9-.3 1.7-.5 2.6-.1.4-.1.7-.2 1.1l-.6 3.6v.2c-1 6.3-1.6 12.7-1.9 19.1v.8c-.1 1.4-.1 2.7-.2 4.1 0 1.6-.1 3.3-.1 5 0 1.7 0 3.3.1 5 0 1.4.1 2.7.2 4.1v.9c.3 6.5 1 12.9 1.9 19.1v.2l.6 3.6c.1.4.1.7.2 1.1.2.9.3 1.8.5 2.6.1.7.3 1.4.4 2.1.1.5.2 1 .3 1.4.2 1.1.5 2.2.7 3.2v.1C24.6 320.4 101 383.8 192 384c42.9-.1 83.1-14.2 116.9-40.7l7.5-5.9-43.2-46.2-6.2 4.6c-22.1 16.3-47.5 24.2-75 24.2-70.6 0-128-57-128-128S121.4 64 192 64c66.4 0 122.8 46.6 129.5 112H248l104 112z" />
    </symbol>
    <symbol id="usa-da-home" viewBox="0 0 54 49">
        <path d="M27.2711832,9.95638865 L45.3465153,28.5706347 L45.3470899,28.5706347 L45.3470899,28.5712142 L45.3470899,49 L34.3321471,49 L34.3321471,35.8479187 C34.3321471,32.4523937 31.1550581,29.6746584 27.2711832,29.6746584 C23.3873082,29.6746584 20.2107939,32.4523937 20.2107939,35.8479187 L20.2107939,49 L9.19585103,49 L9.19585103,28.5712142 L9.19585103,28.5706347 L9.19585103,28.5706347 L27.2711832,9.95638865 Z M0.828195048,29.2927415 L0.828195048,29.2927415 C1.93836613,30.4263218 3.76336788,30.4303786 4.87928519,29.3078096 L27.0867293,6.95900765 L49.1223612,29.1327885 C50.240577,30.2582552 52.0632802,30.2518803 53.1728767,29.1177204 C54.2830478,27.9835606 54.2732792,26.1325098 53.1579365,25.0105203 L29.1444532,0.845439952 C28.6548747,0.353410473 28.0285359,0.0781289619 27.3861077,0.0195954195 C26.5488824,-0.0789263844 25.6766051,0.194036966 25.0353262,0.839065012 L0.843135239,25.1849618 C-0.275080566,26.3104286 -0.281976039,28.1585817 0.828195048,29.2927415 L0.828195048,29.2927415 Z" />
    </symbol>
    <symbol id="usa-da-agency" viewBox="0 0 58 58">
        <path d="M2.43515306,15.4937577 L2.43515306,12.0187412 C2.43344897,11.3682207 2.82539103,10.7779027 3.43375327,10.5170256 L27.698375,0.140472277 C28.1278072,-0.0468240925 28.6185868,-0.0468240925 29.048019,0.140472277 L52.5884,10.5036473 C53.1882417,10.7661967 53.5733674,11.3514979 53.5716633,11.9970014 L53.5716633,15.4870686 C53.5716633,16.3901047 52.8252693,17.1225673 51.9050575,17.1225673 L4.10175887,17.1225673 C3.18325117,17.1225673 2.43856126,16.3934492 2.43515306,15.4937577 L2.43515306,15.4937577 Z M9.09305581,19.8433815 C8.52218368,19.8433815 8.05866959,20.2982441 8.05866959,20.8584609 L8.05866959,42.2938615 C8.05866959,42.5631001 8.16773173,42.8223049 8.36199866,43.0129458 C8.5562656,43.2019145 8.82040046,43.308941 9.09305581,43.308941 L12.5625951,43.308941 C12.8437709,43.3189747 13.1164263,43.2169651 13.3175096,43.0246518 C13.520297,42.8340109 13.6327673,42.5697892 13.6327673,42.2938615 L13.6327673,20.8718392 C13.6378796,20.5942393 13.5254093,20.326673 13.3226219,20.1326875 C13.1215386,19.9370297 12.845475,19.8333477 12.5625951,19.8433815 L9.09305581,19.8433815 Z M26.2618222,19.8433815 C25.6892459,19.8433815 25.2274359,20.2982441 25.2274359,20.8584609 L25.2274359,42.2938615 C25.2274359,42.5631001 25.3364981,42.8223049 25.530765,43.0129458 C25.725032,43.2019145 25.9874627,43.308941 26.2618222,43.308941 L29.7313615,43.308941 C30.0057209,43.308941 30.2681517,43.2019145 30.4624186,43.0129458 C30.6566855,42.8223049 30.7657477,42.5631001 30.7657477,42.2938615 L30.7657477,20.8718392 C30.7691559,20.6009284 30.6617978,20.3400513 30.4709391,20.1477381 C30.2766721,19.9537526 30.0142414,19.8450538 29.7381778,19.8433815 L26.2618222,19.8433815 Z M43.4288844,19.8433815 C43.1477086,19.83502 42.8750533,19.9403742 42.6739699,20.1343598 C42.4728866,20.3300176 42.3621204,20.5959115 42.3672327,20.8718392 L42.3672327,42.2938615 C42.3672327,42.5631001 42.4762948,42.8223049 42.6688576,43.0129458 C42.8631246,43.2019145 43.1255554,43.308941 43.4016189,43.308941 L46.8694541,43.308941 C47.1438135,43.308941 47.4079484,43.2019145 47.6005112,43.0129458 C47.7964823,42.8223049 47.9055444,42.5631001 47.9055444,42.2938615 L47.9055444,20.8718392 C47.9123608,20.3199839 47.4692958,19.8617767 46.9069442,19.8433815 L43.4288844,19.8433815 Z M3.0452194,50.6536343 L52.9547806,50.6536343 C53.2921916,50.6536343 53.5648469,50.3860681 53.5648469,50.0549549 L53.5648469,46.630107 C53.5648469,46.2989937 53.2921916,46.0297552 52.9547806,46.0297552 L3.0452194,46.0297552 C2.70780841,46.0297552 2.43515306,46.2989937 2.43515306,46.630107 L2.43515306,50.0482657 C2.43344897,50.2088055 2.49650052,50.3626561 2.61067494,50.4763717 C2.72484937,50.5900874 2.88162619,50.6536343 3.0452194,50.6536343 L3.0452194,50.6536343 Z M55.3899337,53.38281 L0.610066338,53.38281 C0.272655347,53.38281 0,53.6503763 0,53.9814895 L0,57.4013205 C0,57.7307615 0.272655347,58 0.610066338,58 L55.3899337,58 C55.7256406,58 56,57.7307615 56,57.4013205 L56,53.9814895 C56,53.6503763 55.7256406,53.38281 55.3899337,53.38281 L55.3899337,53.38281 Z"></path>
    </symbol>
    <symbol id="usa-da-award" viewBox="0 0 52 31">
        <g id="Page-1">
            <g id="Group-3">
                <path d="M43.8693053,0.55392381 L2.24214737,0.441257143 C1.03251579,0.441257143 0.0479894737,1.41687619 0.0479894737,2.62897143 L-0.000247368421,23.0922095 C-0.000247368421,24.3030667 0.975621053,25.2873524 2.17783158,25.2873524 L43.8124105,25.3925905 C45.0146211,25.4012571 45.9979105,24.4231619 45.9979105,23.2135429 L46.0461474,2.7416381 C46.0548053,1.53820952 45.0789368,0.55392381 43.8693053,0.55392381 L43.8693053,0.55392381 Z M40.6028053,17.8364952 C37.7160158,18.3292571 36.1909895,19.8954476 35.6838842,22.7777333 L10.3298579,22.7046857 C10.0231211,19.9598286 8.08004211,18.1274476 5.42701579,17.780781 L5.45051579,7.94782857 C8.03180526,7.65687619 9.95880526,6.22811429 10.3545947,3.06354286 L35.7160421,3.13659048 C36.4494895,6.4064 37.6665421,7.61725714 40.6263053,8.02087619 L40.6028053,17.8364952 Z" id="Fill-1"></path>
            </g>
            <path d="M23.023692,5.00001114 C18.6036229,4.99272241 15.0158098,8.56420024 15.0000152,12.9763116 C14.9915103,17.3957117 18.5635288,20.9841966 22.9835979,20.9999889 C27.403667,21.0072776 30.992695,17.4357998 30.9999848,13.0163996 C31.0084897,8.60428825 27.4364712,5.00729987 23.023692,5.00001114 M25.9627099,15.5103602 C25.8290629,16.5004127 25.1948474,17.078652 24.2751134,17.3726308 C24.0539884,17.4430885 23.8243587,17.4758878 23.5619247,17.5305533 L23.5619247,18.6785283 L22.6045265,18.6785283 L22.6045265,17.5463455 C20.7030949,17.1260287 19.8793438,16.2465219 20.0214955,14.7899907 L21.6847925,14.7899907 C21.7005872,14.8932477 21.7163818,14.9952899 21.7248866,15.0912582 C21.79657,15.7156594 22.2157354,16.1286875 22.8341563,16.1675607 C22.9605134,16.1833529 23.0795807,16.1833529 23.198648,16.1760642 C23.721086,16.160272 24.0612783,15.9221734 24.1961402,15.4945679 C24.3553016,14.9952899 24.2204396,14.4571387 23.808564,14.1874556 C23.4914563,13.9821564 23.1269646,13.8473149 22.7867724,13.6808889 C22.2558295,13.4112059 21.6775027,13.2059066 21.2024485,12.8657659 C19.8161652,11.8672098 20.0142057,9.67330203 21.5426408,8.90434098 C21.8913378,8.73062625 22.2874188,8.651665 22.7077992,8.50953476 L22.7077992,7.31296821 L23.6579075,7.31296821 L23.6579075,8.57270376 C24.4901635,8.72333752 25.1948474,9.04768601 25.6298075,9.79235129 C25.867942,10.1883723 25.9942991,10.7666116 25.9469152,11.2330903 L24.2666086,11.2330903 C24.2277295,11.0119988 24.20343,10.8054848 24.1402515,10.6086891 C23.9823051,10.1252033 23.6020188,9.88710478 23.0625711,9.8956083 C22.540133,9.91018576 22.2388199,10.1009075 22.1051729,10.528513 C21.9302169,11.0435833 22.0407794,11.5817346 22.4453652,11.8356253 C22.7855574,12.0652203 23.1743485,12.2158541 23.5388402,12.3980724 C24.0138944,12.6276674 24.5047431,12.8171743 24.948208,13.0953609 C25.8521474,13.6493044 26.089067,14.5203077 25.9627099,15.5103602" id="Fill-4"></path>
            <g id="Group-8" transform="translate(6.000000, 9.000000)">
                <path d="M42.1964632,21.0001222 L0.190831579,21.0001222 L0.190831579,18.4065667 L42.1964632,18.4065667 C42.6874895,18.4065667 43.0869895,18.0117889 43.0869895,17.5265667 L43.0869895,0.212566667 L45.7115684,0.212566667 L45.7115684,17.5265667 C45.7115684,19.4417889 44.1345947,21.0001222 42.1964632,21.0001222" id="Fill-6"></path>
            </g>
        </g>
    </symbol>
    <symbol id="usa-da-budget-function" viewBox="0 0 53 53">
        <path d="M49.6994951,53 L43.078435,53 L9.94166897,53 L3.31028422,53 C1.48036028,53 0,51.5199265 0,49.6898656 L0,3.31013439 C0,1.48007346 1.48036028,0 3.31028422,0 L6.62106009,0 L43.0681104,0 L49.6891705,0 C51.5195861,0 52.9999463,1.48007346 52.9999463,3.31013439 L52.9999463,49.6795429 C53.010271,51.5199265 51.5294191,53 49.6994951,53 L49.6994951,53 Z M46.3788863,6.63009989 L39.7573345,6.63009989 L13.2524448,6.63009989 L6.63138475,6.63009989 L6.63138475,46.3802228 L13.2524448,46.3802228 L39.7573345,46.3802228 L46.3788863,46.3802228 L46.3788863,6.63009989 Z M26.5048897,39.7398002 L39.7573345,39.7398002 L39.7573345,33.120023 L26.5048897,33.120023 L26.5048897,39.7398002 Z M26.5048897,29.8098886 L39.7573345,29.8098886 L39.7573345,23.1901114 L26.5048897,23.1901114 L26.5048897,29.8098886 Z M26.5048897,19.8696543 L39.7573345,19.8696543 L39.7573345,13.2498771 L26.5048897,13.2498771 L26.5048897,19.8696543 Z M13.2524448,39.7398002 L19.8735049,39.7398002 L19.8735049,33.120023 L13.2524448,33.120023 L13.2524448,39.7398002 Z M13.2524448,29.8098886 L19.8735049,29.8098886 L19.8735049,23.1901114 L13.2524448,23.1901114 L13.2524448,29.8098886 Z M13.2524448,19.8696543 L19.8735049,19.8696543 L19.8735049,13.2498771 L13.2524448,13.2498771 L13.2524448,19.8696543 Z"></path>
    </symbol>
    <symbol id="usa-da-federal-account" viewBox="0 0 61 51">
        <path d="M51.84,23.7H7.71v-6.3H51.84ZM47.11,37.88h-6.3V34.73h6.3Zm-9.46,0h-6.3V34.73h6.3Zm-9.46,0h-6.3V34.73h6.3Zm-9.46,0h-6.3V34.73h6.3Zm29.95-26.8H10.86a6.3,6.3,0,0,0-6.3,6.3V42.61a6.3,6.3,0,0,0,6.3,6.3H48.69a6.3,6.3,0,0,0,6.3-6.3V17.39A6.3,6.3,0,0,0,48.69,11.09Z"/>
    </symbol>
    <symbol id="usa-da-object-class" viewBox="0 0 50 50">
        <polygon id="Fill-1" points="0 14 14 14 14 0 0 0"></polygon>
        <polygon id="Fill-2" points="18 14 32 14 32 0 18 0"></polygon>
        <polygon id="Fill-3" points="36 14 50 14 50 0 36 0"></polygon>
        <polygon id="Fill-4" points="0 32 14 32 14 18 0 18"></polygon>
        <polygon id="Fill-5" points="18 32 32 32 32 18 18 18"></polygon>
        <polygon id="Fill-6" points="36 32 50 32 50 18 36 18"></polygon>
        <polygon id="Fill-7" points="0 50 14 50 14 36 0 36"></polygon>
        <polygon id="Fill-8" points="18 50 32 50 32 36 18 36"></polygon>
        <polygon id="Fill-9" points="36 50 50 50 50 36 36 36"></polygon>
    </symbol>
    <symbol id="usa-da-program-activity" viewBox="0 0 83 96">
        <polygon points="43.06 13.27 16.36 39.8 43.06 39.8 43.06 13.27"/><path d="M56.52,54.66H29.77V50.33H56.52Zm0,9.89H29.77V60.22H56.52ZM44.4,13.27V30.54H56.52v4.34H44.4v5.56H56.52v4.34H29.77V41.14H16.44V81.82H69.85V13.27Z"/>
    </symbol>
    <symbol id="usa-da-recipient" viewBox="0 0 58 56">
        <circle cx="30" cy="16" r="14"/>
        <path d="M2,52.12V58H58V52.12A9.4,9.4,0,0,0,53.52,44,51,51,0,0,0,6.76,44,9.4,9.4,0,0,0,2,52.12Z"/>
    </symbol>
    <symbol id="usa-da-circle-arrow-left" viewBox="0 0 71 70">
        <g id="no-circle-arrow-left">
            <path d="M59.047636,37.9166667 L59.047636,32.0833333 C59.047636,30.4882813 57.726021,29.1666667 56.130969,29.1666667 L33.253365,29.1666667 L41.866646,20.5533854 C42.413521,20.0065104 42.732532,19.2773438 42.732532,18.5026042 C42.732532,17.7278646 42.413521,16.9986979 41.866646,16.4518229 L37.719511,12.3046875 C37.172636,11.7578125 36.443469,11.484375 35.66873,11.484375 C34.89399,11.484375 34.164823,11.7578125 33.617948,12.3046875 L12.973417,32.9492188 C12.426542,33.4960938 12.153105,34.2252604 12.153105,35 C12.153105,35.7747396 12.426542,36.5039063 12.973417,37.0507813 L33.617948,57.6953125 C34.164823,58.2421875 34.89399,58.515625 35.66873,58.515625 C36.443469,58.515625 37.172636,58.2421875 37.719511,57.6953125 L41.866646,53.5481771 C42.413521,53.0013021 42.686959,52.2721354 42.686959,51.4973958 C42.686959,50.7226563 42.413521,49.9934896 41.866646,49.4466146 L33.253365,40.8333333 L56.130969,40.8333333 C57.726021,40.8333333 59.047636,39.5117188 59.047636,37.9166667 Z M70.714303,35 C70.714303,54.3229167 55.037219,70 35.714303,70 C16.391386,70 0.714303,54.3229167 0.714303,35 C0.714303,15.6770833 16.391386,0 35.714303,0 C55.037219,0 70.714303,15.6770833 70.714303,35 Z"></path>
        </g>
    </symbol>
    <symbol id="usa-da-circle-arrow-up" viewBox="0 0 71 70" >
        <g stroke="none" stroke-width="1" fill="none" fill-rule="evenodd" fill-opacity="0.3">
            <g transform="translate(-729.000000, -608.000000)" fill="#5B616B">
                <g transform="translate(87.000000, 354.000000)">
                    <g transform="translate(515.000000, 254.000000)">
                        <path d="M186.047636,37.9166667 L186.047636,32.0833333 C186.047636,30.4882813 184.726021,29.1666667 183.130969,29.1666667 L160.253365,29.1666667 L168.866646,20.5533854 C169.413521,20.0065104 169.732532,19.2773438 169.732532,18.5026042 C169.732532,17.7278646 169.413521,16.9986979 168.866646,16.4518229 L164.719511,12.3046875 C164.172636,11.7578125 163.443469,11.484375 162.66873,11.484375 C161.89399,11.484375 161.164823,11.7578125 160.617948,12.3046875 L139.973417,32.9492188 C139.426542,33.4960938 139.153105,34.2252604 139.153105,35 C139.153105,35.7747396 139.426542,36.5039063 139.973417,37.0507813 L160.617948,57.6953125 C161.164823,58.2421875 161.89399,58.515625 162.66873,58.515625 C163.443469,58.515625 164.172636,58.2421875 164.719511,57.6953125 L168.866646,53.5481771 C169.413521,53.0013021 169.686959,52.2721354 169.686959,51.4973958 C169.686959,50.7226563 169.413521,49.9934896 168.866646,49.4466146 L160.253365,40.8333333 L183.130969,40.8333333 C184.726021,40.8333333 186.047636,39.5117188 186.047636,37.9166667 Z M197.714303,35 C197.714303,54.3229167 182.037219,70 162.714303,70 C143.391386,70 127.714303,54.3229167 127.714303,35 C127.714303,15.6770833 143.391386,0 162.714303,0 C182.037219,0 197.714303,15.6770833 197.714303,35 Z" id="" transform="translate(162.714303, 35.000000) rotate(-270.000000) translate(-162.714303, -35.000000) "></path>
                    </g>
                </g>
            </g>
        </g>
    </symbol>
    <symbol id="usa-da-envelope" viewBox="0 0 65.64 55.27">
        <defs>
            <style>.cls-1,.cls-2{fill:none;}.cls-1{clip-rule:evenodd;}.cls-3{clip-path:url(#clip-path);}.cls-4{clip-path:url(#clip-path-2);}</style>
            <clipPath id="clip-path" transform="translate(-746.18 -7973.09)">
                <path class="cls-1" d="M803.18,7986.05c0,3-2.24,5.74-4.61,7.39-4.21,2.92-8.45,5.83-12.63,8.77-1.76,1.22-4.73,3.7-6.91,3.7H779c-2.18,0-5.15-2.48-6.91-3.7-4.18-2.94-8.42-5.85-12.6-8.77-1.92-1.3-4.64-4.34-4.64-6.8,0-2.65,1.43-4.91,4.32-4.91h39.72A4.35,4.35,0,0,1,803.18,7986.05Zm0,7.77v21.56a4.35,4.35,0,0,1-4.32,4.35H759.14a4.35,4.35,0,0,1-4.32-4.35v-21.56a15.68,15.68,0,0,0,2.72,2.36c4.48,3.07,9,6.14,13.42,9.37,2.26,1.68,5.07,3.75,8,3.75H779c2.94,0,5.75-2.07,8-3.75,4.4-3.2,8.94-6.3,13.44-9.37A16.32,16.32,0,0,0,803.18,7993.82Z"/>
            </clipPath>
            <clipPath id="clip-path-2" transform="translate(-746.18 -7973.09)">
                <rect class="cls-2" width="2625.45" height="8648.45"/>
            </clipPath>
        </defs>
        <g id="Layer_2" data-name="Layer 2">
            <g id="Layer_1-2" data-name="Layer 1">
                <g class="cls-3">
                    <g class="cls-4">
                        <rect width="65.64" height="55.27"/>
                    </g>
                </g>
            </g>
        </g>
    </symbol>
    <symbol id="usa-da-caret-right" viewBox="0 0 73.38 94.3">
        <defs>
            <style>.cls-5,.cls-6{fill:none;}.cls-5{clip-rule:evenodd;}.cls-7{clip-path:url(#clip-path-3);}.cls-8{clip-path:url(#clip-path-4);}</style>
            <clipPath id="clip-path-3" transform="translate(-445.86 -232.94)">
                <path class="cls-5" d="M496,280.09a3,3,0,0,1-.89,2.1l-20.92,20.92a3,3,0,0,1-2.1.89,3,3,0,0,1-3-3V259.17a3,3,0,0,1,3-3,3,3,0,0,1,2.1.88L495.11,278A3,3,0,0,1,496,280.09Z"/>
            </clipPath>
            <clipPath id="clip-path-4" transform="translate(-445.86 -232.94)">
                <rect class="cls-6" x="-4509.52" y="-21252.76" width="7065.83" height="23275.41"/>
            </clipPath>
        </defs>
        <g id="Layer_2" data-name="Layer 2">
            <g id="Layer_1-2" data-name="Layer 1">
                <g class="cls-7">
                    <g class="cls-8">
                        <rect width="73.38" height="94.3"/>
                    </g>
                </g>
            </g>
        </g>
    </symbol>
    <symbol id="usa-da-spreadsheet" viewBox="0 0 11 15">
        <g stroke="none" stroke-width="1" fill="none" fill-rule="evenodd">
            <g transform="translate(0.000000, -1.000000)" fill="#0071BC">
                <g>
                    <path d="M6.1249854,5.46877034 C6.1249854,5.65106171 6.18878719,5.80600898 6.31639119,5.93361298 C6.44399519,6.06121698 6.59894246,6.12501878 6.78123383,6.12501878 L10.499975,6.12501878 L10.499975,15.0937474 C10.499975,15.2760388 10.4361732,15.430986 10.3085692,15.55859 C10.1809652,15.686194 10.0260179,15.7499958 9.84372653,15.7499958 L0.656248435,15.7499958 C0.473957064,15.7499958 0.319009795,15.686194 0.191405794,15.55859 C0.0638017921,15.430986 0,15.2760388 0,15.0937474 L0,2.40627764 C0,2.22398627 0.0638017921,2.069039 0.191405794,1.941435 C0.319009795,1.813831 0.473957064,1.75002921 0.656248435,1.75002921 L6.1249854,1.75002921 L6.1249854,5.46877034 Z M7.76560649,8.36720093 L7.76560649,8.39454461 C7.83852312,8.26694061 7.84308012,8.14845145 7.77927833,8.03907671 C7.71547654,7.92970197 7.61977364,7.8750146 7.49216964,7.8750146 L6.53514067,7.8750146 C6.40753667,7.8750146 6.31639119,7.92970197 6.26170382,8.03907671 L5.24998748,9.92579096 C5.08592537,9.56120864 4.94009253,9.26954253 4.81248853,9.05079305 C4.64842642,8.75912694 4.45702062,8.4218883 4.23827115,8.03907671 C4.18358378,7.92970197 4.0924383,7.8750146 3.9648343,7.8750146 L3.00780533,7.8750146 C2.88020133,7.8750146 2.78449843,7.93425939 2.72069664,8.05274855 C2.65689485,8.17123772 2.66145185,8.28516988 2.73436848,8.39454461 L4.37498957,10.9375073 L2.73436848,13.5078137 C2.66145185,13.6171884 2.65689485,13.7265632 2.72069664,13.8359379 C2.78449843,13.9453126 2.88020133,14 3.00780533,14 L3.9648343,14 C4.0924383,14 4.18358378,13.9453126 4.23827115,13.8359379 L4.75780116,12.9335963 L5.24998748,11.9492236 L6.26170382,13.8359379 C6.31639119,13.9453126 6.40753667,14 6.53514067,14 L7.49216964,14 C7.61977364,14 7.71547654,13.9453126 7.77927833,13.8359379 C7.84308012,13.7265632 7.83852312,13.608074 7.76560649,13.48047 L6.1249854,10.9375073 L7.76560649,8.36720093 Z M10.499975,5.25002086 L6.99998331,5.25002086 L6.99998331,1.75002921 L7.16404542,1.75002921 C7.34633679,1.75002921 7.50128406,1.813831 7.62888806,1.941435 L10.3085692,4.62111611 C10.4361732,4.74872011 10.499975,4.90366738 10.499975,5.08595875 L10.499975,5.25002086 Z"></path>
                </g>
            </g>
        </g>
    </symbol>
    <symbol id="usa-da-dollar-sign" viewBox="0 0 12 23">
        <defs>
            <polygon id="path-1" points="0 -6.38888889e-05 11.5863158 -6.38888889e-05 11.5863158 22.5111222 0 22.5111222"></polygon>
        </defs>
        <g id="Symbols" stroke="none" stroke-width="1" fill="none" fill-rule="evenodd">
            <g id="section:-amounts" transform="translate(-1.000000, 0.000000)">
                <g id="header:-amounts">
                    <g transform="translate(1.000000, 0.000000)">
                        <g id="Icon:-Amounts">
                            <mask id="mask-2" fill="white">
                                <use xlink:href="#path-1"></use>
                            </mask>
                            <g id="Clip-2"></g>
                            <path d="M11.5865684,14.8859833 C11.5865684,16.1669556 11.1747789,17.2709556 10.3512,18.1960667 C9.52698947,19.1211778 8.45709474,19.6929833 7.14088421,19.9108444 L7.14088421,22.1092611 C7.14088421,22.2261778 7.10362105,22.32265 7.02909474,22.3980389 C6.95456842,22.4734278 6.8592,22.5111222 6.74362105,22.5111222 L5.06677895,22.5111222 C4.95941053,22.5111222 4.86593684,22.4715111 4.78762105,22.39165 C4.70867368,22.3124278 4.66951579,22.2178722 4.66951579,22.1092611 L4.66951579,19.9108444 C4.1232,19.8354556 3.59583158,19.7051222 3.08677895,19.5211222 C2.57709474,19.3371222 2.15709474,19.1505667 1.82551579,18.9620944 C1.49456842,18.7736222 1.18825263,18.5730111 0.9072,18.3596222 C0.625515789,18.1455944 0.432884211,17.9884278 0.329305263,17.8881222 C0.225726316,17.7878167 0.153094737,17.7124278 0.112042105,17.6619556 C-0.0288,17.4862611 -0.0370105263,17.3144 0.0874105263,17.1470111 L1.36635789,15.4514 C1.42446316,15.3677056 1.51983158,15.3172333 1.65246316,15.3006222 C1.77625263,15.2840111 1.87604211,15.3217056 1.94993684,15.4137056 L1.9752,15.4386222 C2.91056842,16.2679 3.91604211,16.79115 4.99288421,17.0090111 C5.29856842,17.0760944 5.60488421,17.1093167 5.91183158,17.1093167 C6.58193684,17.1093167 7.17183158,16.92915 7.68088421,16.5694556 C8.19056842,16.2091222 8.44446316,15.6980111 8.44446316,15.0367611 C8.44446316,14.8022889 8.38256842,14.5799556 8.25814737,14.3710389 C8.13435789,14.1614833 7.99541053,13.9857889 7.84256842,13.8433167 C7.68909474,13.7008444 7.4472,13.5436778 7.11625263,13.3724556 C6.78467368,13.2005944 6.51183158,13.0664278 6.29646316,12.9699556 C6.08109474,12.8741222 5.75014737,12.7380389 5.30298947,12.5617056 C4.98025263,12.4281778 4.72572632,12.3234 4.53941053,12.2480111 C4.35309474,12.1726222 4.09856842,12.0614556 3.77583158,11.91515 C3.45309474,11.7688444 3.19351579,11.6385111 2.99962105,11.5254278 C2.80509474,11.4123444 2.57141053,11.2641222 2.29793684,11.0794833 C2.02446316,10.8954833 1.80277895,10.7178722 1.63351579,10.5460111 C1.46362105,10.37415 1.28362105,10.1690667 1.09351579,9.93012222 C0.902778947,9.69181667 0.756252632,9.44903889 0.652673684,9.20178889 C0.548463158,8.95453889 0.461936842,8.67598333 0.391831579,8.36612222 C0.321094737,8.0569 0.285726316,7.72978889 0.285726316,7.38670556 C0.285726316,6.23095556 0.691831579,5.21767778 1.50341053,4.34623333 C2.31435789,3.47542778 3.36972632,2.91448333 4.66951579,2.6634 L4.66951579,0.402372222 C4.66951579,0.293122222 4.70867368,0.199205556 4.78762105,0.119344444 C4.86593684,0.0401222222 4.95941053,-0.000127777778 5.06677895,-0.000127777778 L6.74362105,-0.000127777778 C6.8592,-0.000127777778 6.95456842,0.0375666667 7.02909474,0.112955556 C7.10362105,0.188344444 7.14088421,0.284816667 7.14088421,0.402372222 L7.14088421,2.61292778 C7.61267368,2.6634 8.06993684,2.75987222 8.51330526,2.90170556 C8.95604211,3.04417778 9.31604211,3.18473333 9.59330526,3.32273333 C9.87056842,3.46073333 10.1339368,3.6179 10.3821474,3.79359444 C10.6303579,3.96992778 10.7920421,4.09131667 10.8665684,4.15776111 C10.9410947,4.22484444 11.0029895,4.28362222 11.0528842,4.33409444 C11.1930947,4.48487222 11.2139368,4.64395556 11.1147789,4.81134444 L10.1086737,6.64559444 C10.0423579,6.77081667 9.94762105,6.8379 9.8232,6.84620556 C9.70698947,6.87176111 9.5952,6.84237222 9.48783158,6.75803889 C9.4632,6.73312222 9.40256842,6.68328889 9.30783158,6.60726111 C9.21246316,6.53251111 9.05141053,6.42134444 8.82341053,6.2744 C8.59604211,6.12809444 8.35351579,5.99456667 8.09709474,5.87253889 C7.84004211,5.75178889 7.53246316,5.64253889 7.17183158,5.54606667 C6.81183158,5.44959444 6.45751579,5.40167778 6.11014737,5.40167778 C5.3232,5.40167778 4.68214737,5.58184444 4.18509474,5.94153889 C3.68867368,6.30187222 3.44046316,6.76698333 3.44046316,7.33623333 C3.44046316,7.55409444 3.4752,7.75470556 3.54593684,7.93934444 C3.61604211,8.12334444 3.73856842,8.29712222 3.91225263,8.46067778 C4.08593684,8.62359444 4.24951579,8.76223333 4.40235789,8.87531667 C4.55583158,8.9884 4.78762105,9.11809444 5.09835789,9.2644 C5.40846316,9.41134444 5.65856842,9.52378889 5.84930526,9.60365 C6.04004211,9.68351111 6.32930526,9.79851111 6.71835789,9.94928889 C7.15730526,10.1166778 7.49267368,10.2489278 7.72446316,10.3447611 C7.95625263,10.4412333 8.27077895,10.5875389 8.66804211,10.7843167 C9.06593684,10.9810944 9.37793684,11.1593444 9.60593684,11.3184278 C9.83393684,11.4775111 10.0903579,11.6870667 10.3758316,11.9464556 C10.6613053,12.2064833 10.8804632,12.4722611 11.0339368,12.7437889 C11.1874105,13.0165944 11.3175158,13.3366778 11.4255158,13.7053167 C11.5328842,14.0739556 11.5865684,14.4675111 11.5865684,14.8859833" id="Fill-1" fill="#555555" mask="url(#mask-2)"></path>
                        </g>
                    </g>
                </g>
            </g>
        </g>
    </symbol>
</svg>