<?xml version="1.0" encoding="UTF-8"?><svg id="Layer_2" xmlns="http://www.w3.org/2000/svg" viewBox="0 0 1203.41 1005.81"><defs><style>.cls-1{fill:#dfe1e2;}.cls-1,.cls-2,.cls-3,.cls-4,.cls-5,.cls-6,.cls-7,.cls-8,.cls-9,.cls-10,.cls-11,.cls-12,.cls-13,.cls-14,.cls-15,.cls-16{stroke-width:0px;}.cls-2{fill:#ccecf2;}.cls-3{fill:#71767a;}.cls-4{fill:#ff580a;}.cls-5{fill:#ad8b65;}.cls-6{fill:#222fbf;}.cls-7{fill:#5994f6;}.cls-17,.cls-18{stroke:#fff;stroke-miterlimit:10;stroke-width:1.44px;}.cls-17,.cls-14{fill:#fff;}.cls-8{fill:#81aefc;}.cls-9{fill:#000;}.cls-10{fill:#edeff0;}.cls-11{fill:#168092;}.cls-12{fill:#f1e5cd;}.cls-13{fill:#b8c8ff;}.cls-18{fill:#ffdfca;}.cls-15{fill:#fa9441;}.cls-16{fill:#0050d8;}</style></defs><g id="Illustration"><g id="Updated_graphic"><rect class="cls-1" x="17.54" y="18.61" width="1105.28" height="819.49" rx="46.37" ry="46.37"/><rect class="cls-10" x="1.67" y="18.61" width="1105.28" height="819.49" rx="32.13" ry="32.13"/><path class="cls-14" d="M84.39,69.41h938.36c12.52,0,22.69,10.17,22.69,22.69v622.05c0,12.52-10.17,22.69-22.69,22.69H84.39c-12.52,0-22.69-10.17-22.69-22.69V92.1c0-12.52,10.17-22.69,22.69-22.69Z"/><path class="cls-9" d="M2.16,254.47c-1.2,0-2.16-.97-2.16-2.16V65.08C0,38.26,21.77,16.44,48.53,16.44l191.33-1.32h.02c1.19,0,2.16.96,2.16,2.15,0,1.2-.95,2.17-2.15,2.18l-191.34,1.32c-24.39,0-44.21,19.87-44.21,44.3v187.22c0,1.2-.97,2.16-2.16,2.16Z"/><path class="cls-9" d="M48.53,840.26c-26.76,0-48.53-21.82-48.53-48.63v-336.85c0-1.2.97-2.16,2.16-2.16s2.16.97,2.16,2.16v336.85c0,24.43,19.83,44.3,44.2,44.3l15.37-.02h0c1.2,0,2.16.97,2.16,2.16,0,1.2-.97,2.17-2.16,2.17l-15.38.02Z"/><path class="cls-9" d="M368.5,840.61c-1.19,0-2.16-.97-2.16-2.16,0-1.2.96-2.17,2.16-2.17l548.37-1.35h0c1.19,0,2.16.97,2.16,2.16,0,1.2-.96,2.17-2.16,2.17l-548.37,1.35h0Z"/><path class="cls-9" d="M1109.26,762.12c-1.19,0-2.16-.97-2.16-2.16l-1.81-694.87c0-24.43-19.83-44.31-44.2-44.31l-147.34.13c-1.2,0-2.16-.97-2.17-2.16,0-1.2.97-2.17,2.16-2.17l147.34-.13c26.76,0,48.53,21.82,48.53,48.63l1.81,694.87c0,1.2-.96,2.17-2.16,2.17h0Z"/><path class="cls-9" d="M814.81,70.77h-310.53c-1.2,0-2.16-.97-2.16-2.16s.97-2.16,2.16-2.16h310.53c1.2,0,2.16.97,2.16,2.16s-.97,2.16-2.16,2.16Z"/><path class="cls-9" d="M888.97,738.01h0l-599.06-1.05c-1.2,0-2.16-.97-2.16-2.17,0-1.19.97-2.16,2.16-2.16h0l599.06,1.05c1.2,0,2.16.97,2.16,2.17,0,1.19-.97,2.16-2.16,2.16Z"/><path class="cls-9" d="M1044.81,602.06h0c-1.2,0-2.16-.97-2.16-2.17l.63-498.48c0-16.9-13.72-30.65-30.58-30.65l-90.99,1.48c-1.25.03-2.18-.93-2.2-2.13-.02-1.2.93-2.18,2.13-2.2l91.02-1.48c19.28,0,34.94,15.69,34.94,34.98l-.63,498.48c0,1.19-.97,2.16-2.16,2.16Z"/><polygon class="cls-2" points="975.24 412.89 938.4 412.89 939.12 154.73 975.96 154.73 975.24 412.89"/><polygon class="cls-2" points="911.68 463.61 874.71 463.61 875.3 259.96 912.27 259.96 911.68 463.61"/><polygon class="cls-2" points="848.21 361.79 811.08 361.79 811.5 181.47 848.64 181.47 848.21 361.79"/><polygon class="cls-2" points="784.47 397.51 747.49 397.51 748.07 126.64 785.05 126.64 784.47 397.51"/><polygon class="cls-2" points="720.85 406.74 683.7 406.74 684.11 168.35 721.26 168.35 720.85 406.74"/><polygon class="cls-2" points="657.48 430.05 620.43 430.05 620.94 232.1 657.99 232.1 657.48 430.05"/><polygon class="cls-2" points="593.94 466.48 556.72 466.48 557.06 312.14 594.28 312.14 593.94 466.48"/><polygon class="cls-2" points="515.96 400.92 478.66 400.92 478.91 202.57 516.22 202.57 515.96 400.92"/><polygon class="cls-11" points="979.11 351.7 935.04 351.7 935.24 292.44 979.31 292.44 979.11 351.7"/><polygon class="cls-11" points="915.43 376.84 871.36 376.84 871.55 327.43 915.62 327.43 915.43 376.84"/><polygon class="cls-11" points="851.79 346.29 807.73 346.29 807.92 296.89 851.99 296.89 851.79 346.29"/><polygon class="cls-11" points="788.12 335.57 744.05 335.57 744.25 267.25 788.31 267.25 788.12 335.57"/><polygon class="cls-11" points="724.41 325.63 680.35 325.63 680.54 277.86 724.61 277.86 724.41 325.63"/><polygon class="cls-11" points="661.14 304.47 617.08 304.47 617.27 257.75 661.34 257.75 661.14 304.47"/><polygon class="cls-11" points="597.44 320.91 553.37 320.91 553.57 279.75 597.63 279.75 597.44 320.91"/><polygon class="cls-11" points="519.37 296.89 475.31 296.89 475.5 235.92 519.57 235.92 519.37 296.89"/><path class="cls-18" d="M407.56,291.82c-.06,81.76-65.3,148.3-145.72,148.64-80.41.33-145.55-65.68-145.49-147.43s65.3-148.3,145.72-148.64c80.41-.33,145.55,65.68,145.49,147.43Z"/><path class="cls-15" d="M264.52,292.99l77.03,122.58c39.35-26.67,65.33-72.17,65.37-123.74.03-32.69-10.38-62.85-28.01-87.27l-114.39,88.44Z"/><path class="cls-4" d="M293.02,148.34l-28.5,144.65,114.39-88.44c-20.49-28.4-50.86-48.44-85.89-56.21Z"/><path class="cls-17" d="M306.33,292.24c-.02,24.91-19.9,45.19-44.4,45.29-24.5.1-44.35-20.01-44.33-44.93.02-24.91,19.9-45.19,44.4-45.29,24.5-.1,44.35,20.01,44.33,44.93Z"/><path class="cls-13" d="M759.37,601.06h-313.32c-5.59,0-10.12-6.57-10.12-14.66s4.53-14.65,10.12-14.65h313.32c5.59,0,10.12,6.57,10.12,14.66s-4.53,14.65-10.12,14.65Z"/><path class="cls-13" d="M708.2,658.79h-262.14c-5.59,0-10.12-6.57-10.12-14.66s4.53-14.65,10.12-14.65h262.14c5.59,0,10.12,6.57,10.12,14.66s-4.53,14.65-10.12,14.65Z"/><path class="cls-13" d="M764.43,542.03h-318.38c-5.59,0-10.12-6.57-10.12-14.66s4.53-14.65,10.12-14.65h318.38c5.59,0,10.12,6.57,10.12,14.66s-4.53,14.65-10.12,14.65Z"/><path class="cls-6" d="M703.14,542.03h-429.99c-5.59,0-10.12-6.57-10.12-14.66s4.53-14.65,10.12-14.65h429.99c5.59,0,10.12,6.57,10.12,14.66s-4.53,14.65-10.12,14.65Z"/><path class="cls-6" d="M537.46,601.06l-264.31.12c-5.59,0-10.12-6.57-10.12-14.66s4.53-14.65,10.12-14.65l264.31-.12c5.59,0,10.12,6.57,10.12,14.66s-4.53,14.65-10.12,14.65Z"/><path class="cls-6" d="M637.05,658.79h-363.9c-5.59,0-10.12-6.57-10.12-14.66s4.53-14.65,10.12-14.65h363.9c5.59,0,10.12,6.57,10.12,14.66s-4.53,14.65-10.12,14.65Z"/><path class="cls-3" d="M590.66,59.97c-77.25-77.2-202.49-77.2-279.73,0-77.25,77.2-77.25,202.36,0,279.56,77.25,77.2,202.49,77.2,279.73,0,77.25-77.2,77.25-202.36,0-279.56ZM578.16,327.04c-70.35,70.3-184.4,70.3-254.74,0-70.34-70.3-70.34-184.28,0-254.58,70.34-70.3,184.4-70.3,254.74,0,70.34,70.3,70.34,184.28,0,254.58Z"/><path class="cls-9" d="M450.79,399.5c-51.21,0-102.41-19.48-141.4-58.44-37.77-37.75-58.57-87.93-58.57-141.31s20.8-103.57,58.57-141.31c77.97-77.92,204.83-77.92,282.79,0,37.77,37.75,58.57,87.93,58.57,141.31s-20.8,103.57-58.57,141.31c-38.98,38.96-90.19,58.44-141.4,58.44ZM450.79,4.33c-50.1,0-100.2,19.06-138.34,57.17-36.95,36.93-57.3,86.02-57.3,138.25s20.35,101.32,57.3,138.25c76.28,76.23,200.39,76.23,276.67,0,36.95-36.93,57.3-86.03,57.3-138.25s-20.35-101.32-57.3-138.25c-38.14-38.12-88.24-57.17-138.34-57.17ZM450.79,381.85c-46.68,0-93.36-17.76-128.9-53.27-34.43-34.41-53.39-80.16-53.39-128.82s18.96-94.41,53.39-128.82C392.97-.11,508.62-.1,579.69,70.93c34.43,34.41,53.39,80.16,53.39,128.82s-18.96,94.41-53.39,128.82c-35.54,35.52-82.22,53.27-128.9,53.27ZM450.79,21.98c-45.57,0-91.15,17.34-125.84,52.01-33.61,33.59-52.12,78.25-52.12,125.76s18.51,92.17,52.12,125.76c69.39,69.35,182.29,69.35,251.68,0l1.53,1.53-1.53-1.53c33.61-33.59,52.12-78.25,52.12-125.76s-18.51-92.17-52.12-125.76c-34.69-34.67-80.27-52.01-125.84-52.01Z"/><path class="cls-3" d="M98.54,548.42l3.03,3.02c7.3,7.29,19.13,7.29,26.42,0l190.06-189.94-29.45-29.43-190.06,189.94c-7.3,7.29-7.3,19.11,0,26.4Z"/><path class="cls-9" d="M114.78,559.07c-5.34,0-10.68-2.03-14.74-6.09l-3.03-3.02c-3.94-3.94-6.11-9.17-6.11-14.73s2.17-10.8,6.11-14.73l190.06-189.94c.85-.85,2.22-.85,3.06,0l29.45,29.43c.41.41.63.96.63,1.53s-.23,1.13-.63,1.53l-190.06,189.94c-4.06,4.06-9.4,6.09-14.74,6.09ZM288.6,335.13l-188.53,188.41c-3.12,3.12-4.84,7.26-4.84,11.67s1.72,8.55,4.84,11.67l3.03,3.02c6.44,6.44,16.92,6.44,23.36,0l188.53-188.41-26.38-26.37Z"/><path class="cls-14" d="M206.12,461.27c-.55,0-1.11-.21-1.53-.63-.84-.85-.84-2.22,0-3.06l15.9-15.89c.85-.85,2.22-.85,3.06,0,.84.85.84,2.22,0,3.06l-15.9,15.89c-.42.42-.98.63-1.53.63Z"/><path class="cls-14" d="M114.78,548.1c-3.3,0-6.61-1.26-9.12-3.77-2.43-2.43-3.77-5.67-3.77-9.12s1.34-6.69,3.77-9.12l17.86-17.85c.85-.85,2.22-.84,3.06,0,.84.85.84,2.22,0,3.06l-17.86,17.85c-1.62,1.61-2.51,3.76-2.51,6.06s.89,4.44,2.51,6.06c3.34,3.34,8.78,3.34,12.12,0l62.74-62.7c.85-.85,2.22-.84,3.06,0,.84.85.84,2.22,0,3.06l-62.74,62.7c-2.52,2.51-5.82,3.77-9.12,3.77Z"/><path class="cls-3" d="M249.37,371.99l28.73,28.71c4.26,4.26,11.18,4.26,15.44,0l9.67-9.67c4.26-4.26,4.26-11.15,0-15.41l-28.73-28.71c-4.26-4.26-11.18-4.26-15.44,0l-9.67,9.67c-4.26,4.26-4.26,11.15,0,15.41Z"/><path class="cls-9" d="M285.82,406.05c-3.35,0-6.7-1.27-9.25-3.82l-28.73-28.71c-2.47-2.47-3.83-5.75-3.83-9.23s1.36-6.77,3.83-9.23l9.67-9.67c5.1-5.1,13.4-5.1,18.5,0l28.73,28.71c2.47,2.47,3.83,5.75,3.83,9.23s-1.36,6.77-3.83,9.23l-9.67,9.67c-2.55,2.55-5.9,3.82-9.25,3.82ZM250.9,370.46l28.73,28.71c3.41,3.41,8.97,3.41,12.38,0l9.67-9.67c1.65-1.65,2.56-3.84,2.56-6.17s-.91-4.52-2.56-6.17l-28.73-28.71c-3.41-3.41-8.97-3.41-12.38,0l-9.67,9.67c-1.65,1.65-2.56,3.84-2.56,6.17s.91,4.52,2.56,6.17Z"/><path class="cls-3" d="M218.12,403.22l28.73,28.71c4.26,4.26,11.18,4.26,15.44,0l9.67-9.67c4.26-4.26,4.26-11.15,0-15.41l-28.73-28.71c-4.26-4.26-11.18-4.26-15.44,0l-9.67,9.67c-4.26,4.26-4.26,11.15,0,15.41Z"/><path class="cls-9" d="M254.57,437.28c-3.35,0-6.7-1.27-9.25-3.82l-28.73-28.71c-2.47-2.47-3.83-5.75-3.83-9.23s1.36-6.77,3.83-9.23l9.67-9.67c5.1-5.1,13.4-5.1,18.5,0l28.73,28.71c2.47,2.47,3.83,5.75,3.83,9.23s-1.36,6.77-3.83,9.23l-9.67,9.67c-2.55,2.55-5.9,3.82-9.25,3.82ZM235.52,377.12c-2.24,0-4.48.85-6.19,2.56l-9.67,9.67c-1.65,1.65-2.56,3.84-2.56,6.17s.91,4.52,2.56,6.17l28.73,28.71c3.41,3.41,8.97,3.41,12.38,0l9.67-9.67c1.65-1.65,2.56-3.84,2.56-6.17s-.91-4.52-2.56-6.17l-28.73-28.71c-1.71-1.71-3.95-2.56-6.19-2.56Z"/><polygon class="cls-12" points="210.51 938.1 211.54 975.01 228.91 975.01 234.74 934.72 210.51 938.1"/><path class="cls-9" d="M228.91,977.17h-17.36c-1.17,0-2.13-.93-2.16-2.1l-1.03-36.91c-.03-1.1.77-2.05,1.86-2.2l24.23-3.38c.68-.09,1.35.14,1.83.62.48.48.7,1.16.61,1.84l-5.83,40.29c-.15,1.06-1.07,1.85-2.14,1.85ZM213.65,972.84h13.38l5.15-35.58-19.45,2.71.92,32.87Z"/><path class="cls-9" d="M300.12,1005.81h-90.08c-4.69,0-8.29-4.18-7.61-8.84,1.55-10.59,4.29-27.76,6.65-34.77,3.53-10.47,14.92,6.21,14.92,6.21l6.67-5.65s59.36,17.48,72.99,35.88c2.19,2.96.12,7.17-3.55,7.17Z"/><path class="cls-14" d="M294.65,1001.09h-84.14c-1.2,0-2.16-.97-2.16-2.16s.97-2.16,2.16-2.16h84.14c1.2,0,2.16.97,2.16,2.16s-.97,2.16-2.16,2.16Z"/><polygon class="cls-12" points="81.81 898.86 48.79 940.89 31.32 927.72 59.58 881.35 81.81 898.86"/><path class="cls-9" d="M48.79,943.06c-.45,0-.91-.14-1.3-.44l-17.47-13.17c-.89-.67-1.13-1.91-.55-2.86l28.26-46.37c.32-.53.86-.89,1.47-1,.6-.11,1.24.05,1.72.43l22.22,17.5c.94.74,1.1,2.1.36,3.04l-33.01,42.03c-.43.54-1.06.83-1.7.83ZM34.19,927.18l14.21,10.71,30.37-38.67-18.61-14.65-25.97,42.61Z"/><path class="cls-9" d="M83.69,1002.29c-15.13-7.1-54.06-26.99-76.06-52.96-1.98-2.34-2.03-5.76-.19-8.21,4.69-6.27,14.19-17.87,23.88-23.27,0,0,19.72,6.89,14.43,16.24l7.19-1.16s31.77,35.88,36.44,65.09c.51,3.2-2.78,5.65-5.69,4.28Z"/><path class="cls-14" d="M82.95,996.9c-.36,0-.72-.09-1.06-.28-.47-.26-46.87-26.36-71.4-52.61-.82-.87-.77-2.24.1-3.06.87-.82,2.24-.77,3.06.1,24.07,25.75,69.89,51.53,70.35,51.79,1.04.58,1.42,1.9.83,2.95-.4.71-1.13,1.11-1.89,1.11Z"/><path class="cls-16" d="M217.82,650.84s-50.67,146.56-138.84,260.05l-29.91-23.74s23.75-77.33,29.63-87.27c5.88-9.95,21.62-35.66,26.35-49.17,15.32-43.83,31.56-127.44,31.56-127.44l81.22,27.57Z"/><path class="cls-16" d="M289.54,626.52s-16.16,109.98-25.41,167.81c-9.25,57.83-29.13,151-29.13,151h-28.57s-9.41-63.27-11.67-98.34c-2.26-35.07,9.25-44.98,11.53-73.2,2.28-28.22-11.99-119.47-11.99-119.47l42.33-41.59,52.9,13.79Z"/><path class="cls-12" d="M240.53,469.34s17.51,21.3,33.67,15.56c12.21-4.33,18.28-7.29,21.3-9.19,1.6-1.01,1.59-3.32.02-4.38-2.54-1.71-5.93-5.07-6.7-11.02l18.66-28.3s10.53-3.81,11.87-6.36c.69-1.31-1.75-8.06-2.79-11.28-.33-1.04-.54-3.37,0-4.31l2.35-4.8c.47-.84.49-2.15-.37-2.59-8.98-4.57-8.68-8.64-12.82-13.37-4.75-5.42-17.87-8.58-23.11,6.53-1.52,4.38-3.35,7.43-2.81,13.81-1.97-.34-3.78.09-4.89,1.36-2.08,2.38-.96,6.79,2.51,9.85,1.45,1.28,6.1,3.58,6.88,3.78.84.21,1.79,3.1-2.78,7.7-36.07,36.29-40.99,37.01-40.99,37.01Z"/><path class="cls-9" d="M268.4,488.05c-15.09,0-28.88-16.54-29.54-17.34-.5-.6-.63-1.43-.35-2.15.25-.64.78-1.12,1.43-1.3.57-.25,7.44-3.65,40.05-36.46,2.14-2.15,2.74-3.7,2.84-4.43-1.89-.8-5.47-2.7-6.84-3.9-4.42-3.9-5.61-9.57-2.7-12.89,1.06-1.21,2.54-1.95,4.26-2.16,0-4.28,1.07-7.1,2.19-10.05.28-.73.56-1.47.83-2.25,3.02-8.72,8.3-11.46,12.19-12.21,6.01-1.17,11.78,1.75,14.59,4.96,1.41,1.61,2.32,3.1,3.2,4.55,1.78,2.92,3.33,5.45,8.97,8.32.82.42,1.42,1.15,1.7,2.07.34,1.11.18,2.42-.42,3.51l-2.3,4.7c-.17.44-.11,1.95.13,2.7.16.49.35,1.07.56,1.7,2.28,6.89,2.94,9.63,2.08,11.26-1.47,2.79-8.68,5.76-12.37,7.13l-17.81,27.01c.83,4.61,3.5,7.28,5.64,8.73,1.36.92,2.16,2.44,2.13,4.08-.03,1.61-.85,3.08-2.21,3.93-4.07,2.56-11.38,5.72-21.73,9.39-2.18.77-4.36,1.11-6.52,1.11ZM243.92,469.86c4.62,4.88,17.77,17.18,29.56,13,12.51-4.44,18.26-7.33,20.87-8.98.05-.03.18-.12.19-.34,0-.1-.03-.29-.22-.42-3-2.03-6.77-5.85-7.64-12.54-.07-.51.05-1.04.34-1.47l18.66-28.3c.26-.39.63-.69,1.07-.84,4.76-1.72,9.51-4.06,10.57-5.18-.07-1.49-1.57-6.03-2.24-8.03-.21-.64-.41-1.23-.57-1.74-.36-1.14-.83-4.24.16-6.03l2.3-4.71s0,0,0,0c-6.27-3.32-8.23-6.52-10.12-9.62-.82-1.35-1.6-2.62-2.76-3.95-2.08-2.38-6.36-4.37-10.5-3.57-3.98.78-7.07,4.02-8.93,9.38-.29.83-.58,1.61-.88,2.37-1.24,3.26-2.22,5.83-1.82,10.54.06.67-.2,1.32-.69,1.78-.49.45-1.18.65-1.83.54-1.28-.22-2.34.02-2.89.66-1.11,1.27-.44,4.38,2.31,6.8,1.1.97,5.2,3.05,6.02,3.31.98.24,1.79,1.1,2.12,2.29.33,1.19.61,4.44-3.94,9.02-24.13,24.28-34.62,32.96-39.14,36.01ZM240.21,467.2s0,0,0,0c0,0,0,0,0,0ZM240.21,467.2s0,0,0,0c0,0,0,0,0,0ZM240.22,467.19s0,0,0,0c0,0,0,0,0,0Z"/><path class="cls-9" d="M300.47,393.5s16.51-13.21,11.89-23.83c-.41-.93-1.64-3.86-4.48-5.15-5.83-2.65-13.37,3.74-15.06,5.16-14.64,12.26-24.39,13.46-30.6,19.88-2.25,2.33-4.77,6.64-4.46,15.26,1.2,6.14,3.72,9.39,5.8,11.22,4.27,3.76,7.96,2.67,10.99,6.63,3.4,4.44,1.27,9.12,3.64,10.51,1.83,1.08,5.85-.12,15.27-9.51-5.64-6.34-8.42-12.59-6.43-15.72.56-.89,2.16-2.4,3.83-2.39,2.22.01,3.68,2.39,3.68,2.39l5.93-14.44Z"/><path class="cls-12" d="M474.79,417l20.56-12.29c1.92-1.15,3.48-2.81,4.51-4.8l5.13-9.9c.76-1.46-1.02-2.92-2.29-1.88l-11.43,9.34c-1.61,1.32-3.5,2.24-5.52,2.72l-16.51,4.08-3.78-7.74c-1.12-2.28-3.47-3.68-6-3.56l4.28,18.69-5.04,17.52,12.76,4.12,3.33-16.31Z"/><path class="cls-9" d="M471.46,435.47c-.22,0-.45-.03-.67-.1l-12.76-4.12c-1.11-.36-1.74-1.54-1.42-2.66l4.88-16.98-4.16-18.15c-.14-.63,0-1.28.38-1.79.39-.51.98-.82,1.62-.85,3.4-.16,6.55,1.71,8.04,4.77l3.01,6.16,14.81-3.66c1.72-.4,3.32-1.19,4.67-2.29l11.43-9.34c1.36-1.11,3.27-1.11,4.63,0,1.37,1.11,1.76,2.99.95,4.56l-5.13,9.9c-1.22,2.35-3.06,4.31-5.33,5.66l-19.74,11.8-3.14,15.37c-.12.6-.5,1.13-1.03,1.44-.34.2-.71.3-1.09.3ZM461.37,427.77l8.46,2.73,2.84-13.94c.12-.6.49-1.11,1.01-1.43l20.56-12.29c1.57-.94,2.86-2.3,3.7-3.94l3.68-7.11-8.99,7.34c-1.85,1.51-4.07,2.6-6.4,3.15l-16.48,4.08c-.99.25-2.02-.23-2.47-1.15l-3.78-7.74c-.27-.56-.66-1.04-1.12-1.41l3.46,15.11c.08.36.07.73-.03,1.08l-4.46,15.5Z"/><path class="cls-12" d="M225.79,249.42s6.02-7.21,12.54-6.57c6.52.64,11.95.31,11.95.31,0,0-.34-5.31-3.92-5.11l-3.58.2-3.49-1.28,13.64-27.85-8.95,1.53c-1.81.31-3.43,1.29-4.55,2.75l-22.64,29.53,9.01,6.5Z"/><path class="cls-9" d="M225.79,251.58c-.44,0-.88-.13-1.26-.41l-9.01-6.5c-.47-.34-.79-.86-.88-1.44-.08-.58.07-1.17.42-1.63l22.64-29.53c1.45-1.9,3.55-3.16,5.9-3.56l8.95-1.53c.79-.14,1.61.19,2.1.84.49.65.57,1.52.21,2.25l-12.59,25.69.82.3,3.14-.17c3.91-.22,5.97,3.55,6.2,7.14.04.57-.16,1.14-.54,1.57-.38.43-.92.69-1.49.73-.23.01-5.68.34-12.29-.32-4.38-.43-9.18,4.04-10.66,5.8-.43.51-1.04.77-1.66.77ZM219.86,242.47l5.66,4.09c2.36-2.3,7.41-6.42,13.02-5.86,3.59.35,6.85.4,8.99.38-.25-.51-.6-.89-1.06-.87l-3.58.2c-.3.02-.59-.03-.87-.13l-3.49-1.28c-.57-.21-1.03-.66-1.26-1.23-.23-.57-.2-1.21.07-1.76l11.78-24.05-4.78.82c-1.27.22-2.41.9-3.19,1.93l-21.28,27.77Z"/><path class="cls-14" d="M324.45,541.61l-12.68,96.64s-33.08,5.14-66.81,2.3c0,0,42.82-101.8,79.5-98.94Z"/><path class="cls-9" d="M266.28,643.56c-6.94,0-14.22-.24-21.51-.85-.69-.06-1.31-.44-1.67-1.04-.36-.59-.41-1.32-.14-1.96,1.75-4.15,42.63-100.32,79.99-100.32.56,0,1.11.02,1.67.06.59.05,1.14.33,1.51.79.37.46.54,1.06.47,1.65l-12.68,96.64c-.13.95-.86,1.71-1.81,1.86-.26.04-20.79,3.17-45.81,3.17ZM248.15,638.63c27.87,1.96,54.93-1.36,61.68-2.28l12.15-92.6c-30.93,1.47-66.86,79.13-73.83,94.89Z"/><path class="cls-9" d="M458.71,429.19c7.08,5.02,7.44-1.48,14.52,3.54-13.59,54.17-47.82,105.33-71.4,113.6-40.58,14.25-65.74-7.56-94.79,12.77-32.75,22.92-14.2,60.04-51.03,96.02-33.04,32.27-78.09,31.84-87.14,31.75-9.22-.09-61.61-.59-75.95-31.75-5.05-10.97-3.59-21.83-2.54-29.62,1.95-14.5,8.68-25.2,33.66-56.4,18.22-22.76,20.73-24.54,26.29-31.96,12.09-16.12,25.91-41.92,30.83-83.26-8.21-15.61-24.54-51.88-21.17-99.59,4.6-65.21,42.79-106.74,53.86-117.98,5.92,4.37,11.84,8.74,17.76,13.11-6.6,11.28-25.55,46.99-19.79,94.66,5.61,46.38,31.15,75.41,39.29,84.41,11.15,12.32,54.27,55.99,119.24,52.16,49.5-2.92,78.39-41.92,88.37-51.45Z"/><path class="cls-14" d="M319.95,473.77s4.8-9.95,0-11.92c-4.8-1.98-58.1-28.8-66.68-40.61-8.58-11.81-48.84-7.09-57.17,0-8.32,7.09,3.31,36.36,21.88,48.03,18.57,11.67,58.04-10,101.96,4.5Z"/><path class="cls-9" d="M319.95,475.94c-.23,0-.45-.04-.68-.11-23.46-7.74-46.04-4.92-64.19-2.65-16.28,2.04-29.14,3.65-38.25-2.08-14.65-9.2-24.68-28.14-25.57-40.41-.36-5.04.82-8.88,3.43-11.1,6.41-5.46,27.65-9.04,42.88-7.23,8.65,1.03,14.52,3.59,17.44,7.61,8.18,11.25,61.16,37.99,65.75,39.88,1.41.58,2.44,1.65,3,3.1,1.64,4.28-1.51,11.01-1.87,11.77-.37.77-1.14,1.22-1.95,1.22ZM285.51,466.41c10.54,0,21.73,1.16,33.22,4.7.87-2.31,1.54-5.19,1-6.62-.15-.39-.35-.54-.6-.64-5.08-2.09-58.59-28.94-67.61-41.34-2.12-2.92-7.26-5-14.46-5.85-14.98-1.78-34.59,2-39.56,6.23-1.5,1.27-2.18,3.94-1.92,7.49.82,11.26,10.47,28.84,23.55,37.05,7.8,4.9,19.98,3.38,35.41,1.45,9.32-1.17,19.78-2.47,30.96-2.47Z"/><path class="cls-5" d="M870.67,872.62l-22.05,65.75s24.02-2.05,26.32-1.6c2.3.45,30.39-59.97,30.39-59.97l-34.66-4.19Z"/><path class="cls-9" d="M848.62,940.54c-.66,0-1.29-.3-1.7-.83-.45-.57-.58-1.34-.35-2.03l22.05-65.75c.33-.97,1.29-1.59,2.31-1.46l34.66,4.19c.69.08,1.3.49,1.63,1.1.34.61.36,1.34.07,1.97-.07.15-7.11,15.29-14.35,30.18-15.35,31.6-16.32,31.41-18.42,30.99-1.52-.22-14.29.66-25.72,1.63-.06,0-.12,0-.18,0ZM872.16,874.98l-20.44,60.96c6.73-.55,18.42-1.46,22.46-1.38,3.48-4.64,18.25-35.26,27.92-55.97l-29.94-3.62ZM875.35,934.65s0,0,0,0h0ZM875.26,934.63s.06,0,.09.02c-.03,0-.06-.01-.09-.02Z"/><path class="cls-7" d="M853.67,923.92s33.16-13.59,39.3,3.47c7.8,21.69,19.99,54.78,19.99,54.78,2.07,5.76-1.9,11.9-8.01,12.39-12.12.97-30.2,1.76-38.62-1.19-13.3-4.66-35.35-46.71-35.35-46.71l6.8-35.78s12.03-1.7,15.89,13.05Z"/><path class="cls-9" d="M885.43,997.6c-7.84,0-15.15-.56-19.81-2.19-13.7-4.8-34.26-43.37-36.55-47.75-.23-.43-.3-.93-.21-1.41l6.8-35.78c.17-.91.91-1.61,1.83-1.74.13-.02,12.66-1.6,17.58,12.35,5.9-2.12,22.09-7.14,32.26-2.61,3.74,1.66,6.32,4.42,7.68,8.19,7.71,21.43,19.87,54.43,19.99,54.76,1.22,3.4.8,7.07-1.15,10.09-1.95,3.02-5.13,4.92-8.72,5.21-6.08.49-13.07.89-19.69.89ZM833.25,946.31c6.34,11.96,23.75,41.49,33.8,45.01,6.15,2.15,19.55,2.54,37.73,1.08,2.24-.18,4.21-1.36,5.43-3.24,1.21-1.88,1.47-4.16.71-6.26-.12-.31-12.28-33.33-19.99-54.78-.96-2.65-2.71-4.52-5.36-5.7-10.66-4.74-30.88,3.42-31.08,3.5-.58.23-1.23.21-1.79-.07-.56-.28-.97-.78-1.13-1.39-2.59-9.88-9.04-11.36-11.99-11.49l-6.34,33.34Z"/><path class="cls-9" d="M904.47,982.4h-34.06c-1.2,0-2.16-.97-2.16-2.16s.97-2.16,2.16-2.16h34.06c1.2,0,2.16.97,2.16,2.16s-.97,2.16-2.16,2.16Z"/><polygon class="cls-5" points="808.15 888.77 815.64 954.92 845.78 946.65 843.46 887.06 808.15 888.77"/><path class="cls-9" d="M815.64,957.08c-.43,0-.85-.13-1.21-.37-.52-.35-.87-.92-.94-1.55l-7.49-66.14c-.07-.59.11-1.19.5-1.65.39-.46.95-.73,1.54-.76l35.31-1.71c.56-.03,1.14.18,1.57.57.43.39.68.93.7,1.51l2.32,59.59c.04,1.01-.62,1.91-1.59,2.17l-30.14,8.26c-.19.05-.38.08-.57.08ZM810.56,890.82l6.95,61.34,26.05-7.14-2.17-55.69-30.82,1.5Z"/><path class="cls-7" d="M812.8,1003.65h47.69c6.45,0,11.41-5.72,10.46-12.1-1.59-10.76-6.78-28.62-22.33-53.18-1.7-2.68-4.66-4.31-7.84-4.31h-14.51c-2.5,0-4.6,1.89-4.86,4.37l-1.1,10.46-6.31-8.33s-11.27,23.73-11.8,52.33c-.11,5.91,4.67,10.76,10.58,10.76Z"/><path class="cls-9" d="M860.49,1005.81h-47.69c-3.45,0-6.68-1.36-9.1-3.82-2.41-2.46-3.71-5.71-3.64-9.15.53-28.74,11.54-52.23,12.01-53.22.32-.68.98-1.15,1.73-1.22.74-.08,1.49.24,1.95.85l3.01,3.97.52-5.01c.38-3.6,3.39-6.31,7.01-6.31h14.5c3.94,0,7.56,1.99,9.67,5.32,15.8,24.95,21.03,43.15,22.64,54.02.54,3.66-.53,7.36-2.95,10.16-2.42,2.81-5.94,4.42-9.66,4.42ZM814.53,944.83c-3.01,7.45-9.76,26.46-10.15,48.09-.04,2.27.81,4.41,2.4,6.03,1.6,1.63,3.73,2.52,6.01,2.52h47.69c2.45,0,4.78-1.06,6.38-2.92,1.59-1.85,2.3-4.29,1.95-6.7-1.55-10.46-6.62-28.02-22.02-52.34-1.29-2.04-3.59-3.3-6.01-3.3h-14.5c-1.4,0-2.56,1.05-2.71,2.43l-1.1,10.46c-.09.88-.72,1.62-1.57,1.86-.86.24-1.77-.07-2.31-.78l-4.07-5.37Z"/><path class="cls-9" d="M866.34,994.42h-57.09c-1.2,0-2.16-.97-2.16-2.16s.97-2.16,2.16-2.16h57.09c1.2,0,2.16.97,2.16,2.16s-.97,2.16-2.16,2.16Z"/><path class="cls-9" d="M921.34,491.55c-1.25-3.05-3.78-5.39-6.92-6.37-17.44-5.47-78.24-19.87-140.83,20.24-2.95,1.89-4.84,5.07-5.09,8.56-2.26,31.78-10.7,197.95,41.9,394.69l35.43-2.52,7.22-336.39s52.48,123.32,9.81,319.59l36.85,6.8s53.93-70.87,63.59-179.16c8.54-95.8-32.39-202.17-41.95-225.44Z"/><path class="cls-14" d="M819.43,753.1s-.06,0-.09,0c-33.42-1.44-37.19-46.73-37.23-47.19-.09-1.19.8-2.23,2-2.32,1.18-.09,2.23.8,2.32,2,.03.42,3.52,41.91,33.09,43.19,1.2.05,2.12,1.06,2.07,2.26-.05,1.16-1.01,2.07-2.16,2.07Z"/><path class="cls-14" d="M856.13,602.76c-1.17,0-2.13-.93-2.16-2.1l-1.25-42.08c-.02-.73.32-1.42.92-1.84l22.09-15.52c.98-.69,2.33-.45,3.02.53.69.98.45,2.33-.53,3.02l-21.13,14.85,1.21,40.91c.04,1.19-.9,2.19-2.1,2.23-.02,0-.04,0-.07,0Z"/><path class="cls-5" d="M1080.98,464.38c.01-1.91-106.77-18.77-113.65-38.27-10.28-29.1-23.09-64.08-23.09-64.08l-26.66,16.83,17.17,83.72,146.24,1.8Z"/><path class="cls-9" d="M1080.98,466.54h-.03l-146.24-1.8c-1.02-.01-1.89-.73-2.09-1.73l-17.17-83.72c-.18-.88.2-1.78.97-2.27l26.66-16.83c.55-.35,1.24-.43,1.85-.22.62.21,1.11.69,1.33,1.3.13.35,12.94,35.33,23.1,64.11,4.79,13.56,68.56,27.14,95.79,32.94q17.99,3.83,17.98,6.06c0,.58-.24,1.13-.65,1.53-.4.4-.95.62-1.52.62ZM936.51,460.44l124.99,1.54c-47.45-10.17-91.39-21.47-96.22-35.14-8.58-24.28-19.04-52.99-22.16-61.54l-23.13,14.6,16.51,80.55Z"/><path class="cls-16" d="M776.45,272.07c25.46-8.3,64.25-14.26,110.62.5,16.91,5.38,29.04,20.26,31.12,37.87l37.77,217.36c1.87,15.8-19.26,31.16-34.15,36.8-15.55,5.89-39.06,11.46-72.35,11.46-35.69,0-61.63,2.07-76.1-4.27-12.01-5.26-30.1-17.98-30.71-31.07l2.62-223.42c-.94-20.36,11.78-38.91,31.17-45.24Z"/><path class="cls-16" d="M954.82,365.47s-30.15-83.47-63.97-91.49l17.19,118.27,46.77-26.78Z"/><path class="cls-16" d="M706.13,406.53s3.3-55.85,8.13-77.43c10.16-45.39,53.49-52.26,53.49-52.26l5.26,121.93-66.88,7.76Z"/><path class="cls-9" d="M810.15,289.8c-20.35,0-36.36-2.82-37.52-3.03-1.18-.21-1.96-1.34-1.74-2.52.21-1.18,1.35-1.96,2.51-1.75.5.09,49.93,8.79,85.7-4.46,1.12-.42,2.37.16,2.78,1.28.42,1.12-.16,2.37-1.28,2.78-16.15,5.98-34.62,7.69-50.46,7.69Z"/><path class="cls-5" d="M714.58,404.21s-3.25,42.59,13.63,71.19c20.16,34.15,121.88-11.84,121.88-11.84l11.83-6.69c8-4.53,17.54-5.5,26.29-2.68l19.11,6.16s-15.78-18.91-29.2-26.14c-6.29-3.39-14.45-.18-21.34,4.18-11.85,7.5-25.8,11.02-39.83,10.61l-40.46-1.2c-6.79-.2-12.36-5.46-12.95-12.22l-3.08-35.23-45.88,3.88Z"/><path class="cls-9" d="M759.04,490.14c-14.57,0-26.78-3.62-32.7-13.65-17.03-28.85-14.06-70.68-13.92-72.45.08-1.06.92-1.9,1.98-1.99l45.88-3.88c1.17-.1,2.23.78,2.34,1.97l3.08,35.23c.49,5.67,5.16,10.08,10.86,10.25l40.46,1.2c13.96.42,27.33-3.14,38.6-10.27,9.59-6.07,17.5-7.5,23.52-4.25,13.63,7.34,29.18,25.87,29.84,26.66.62.74.67,1.8.13,2.6-.54.8-1.54,1.15-2.46.85l-19.11-6.16c-8.15-2.63-17.1-1.72-24.56,2.5l-11.83,6.69c-.06.03-.11.06-.17.09-3.03,1.37-55.03,24.62-91.94,24.62ZM716.64,406.21c-.37,8.39-.94,43.73,13.43,68.09,5.03,8.51,15.7,11.65,28.69,11.65,35.34,0,87.83-23.2,90.35-24.33l11.74-6.64c8.5-4.81,18.72-5.85,28.02-2.85l11.5,3.71c-5.68-6.08-15.03-15.27-23.29-19.72-5.66-3.05-13.54.55-19.16,4.1-12.01,7.6-26.19,11.39-41.05,10.94l-40.46-1.2c-7.89-.23-14.36-6.34-15.04-14.2l-2.89-33.08-41.85,3.54Z"/><path class="cls-9" d="M808.38,192.27c-13.47-11.58-16.55-13.16-20.47-19.79-3.2-5.41-10.34-17.5-5.51-30.27,4.18-11.05,15.72-17.72,26.33-18.29,9.53-.51,16.49,3.99,20.17,6.37,1.61,1.04,15.79,10.49,18.59,25.94.76,4.19.19,6.12,2.1,8.75,4.31,5.91,12.1,2.9,17.5,7.8,6.78,6.17,3.64,19.3,3.38,20.32-3.54,14.01-18.68,23.29-31.03,22-7.13-.75-6.36-1.59-31.07-22.83Z"/><path class="cls-5" d="M845.51,261.55c-6.51-4.31-10.31-11.69-10.13-19.49l.74-32.38c.22-.2.44-.41.66-.61,0,0,12.98.86,14.87-5.74,1.89-6.61-7.29-7.87-7.29-7.87,0,0,8.67-18.23-13.76-18.02-6.02.06-8.17-9.92-18.05-12.15,0,0-4.89-.42-9.84,12.39l-10.85,16.04,5.42,2.97c-1.33,6.1-1.91,12.83-1.09,19.96.24,2.05,1.65,3.78,3.62,4.42,1.63.53,3.83,1.09,6.41,1.39l-1.75,21.67c-.76,9.49-5.74,18.13-13.54,23.59-7.53,5.28-14.48,9.01-14.48,9.01,0,0,39.98,5.46,85.95-5.02,0,0-8.88-4.85-16.9-10.16Z"/><path class="cls-9" d="M803.13,280.29c-16.27,0-26.77-1.39-26.97-1.41-.93-.13-1.67-.84-1.84-1.76-.17-.92.28-1.85,1.11-2.29.07-.04,6.93-3.73,14.26-8.88,7.31-5.13,11.91-13.14,12.63-22l1.58-19.65c-1.62-.28-3.22-.68-4.76-1.18-2.77-.89-4.77-3.34-5.1-6.23-.72-6.23-.45-12.64.8-19.08l-4.02-2.2c-.53-.29-.92-.8-1.06-1.39-.14-.59-.03-1.22.31-1.72l10.71-15.84c5.25-13.4,10.88-13.62,11.95-13.54.1,0,.2.02.29.05,5.92,1.34,9.34,5.1,12.08,8.12,2.24,2.47,3.7,3.98,5.45,3.98.14,0,.29,0,.43,0,7.6,0,12.77,2.07,15.38,6.16,2.72,4.26,1.79,9.48.87,12.5,1.88.61,4.32,1.79,5.73,3.95,1.13,1.74,1.4,3.83.76,6.05-1.92,6.72-11.46,7.38-15.48,7.36l-.7,30.83c-.16,7.14,3.26,13.73,9.16,17.63,7.85,5.2,16.65,10.02,16.74,10.06.79.43,1.23,1.31,1.11,2.2-.12.89-.79,1.61-1.66,1.81-22.6,5.16-43.91,6.47-59.75,6.47ZM783.37,275.23c12.46.97,41.02,2.04,73.02-4.44-3.32-1.92-7.83-4.62-12.08-7.43-7.15-4.73-11.3-12.71-11.1-21.34l.74-32.38c.01-.59.26-1.14.7-1.54l.64-.6c.44-.41,1.01-.62,1.62-.58,2.91.19,11.5-.17,12.65-4.18.38-1.34.05-2.06-.23-2.49-1.12-1.72-4.26-2.5-5.28-2.64-.68-.09-1.28-.51-1.61-1.12-.33-.61-.35-1.33-.05-1.96.03-.06,3.02-6.55.3-10.78-1.8-2.81-5.91-4.21-12.08-4.15-3.82,0-6.3-2.73-8.72-5.4-2.51-2.77-5.11-5.63-9.5-6.73-.7.18-4.02,1.54-7.67,10.98-.06.15-.14.3-.23.43l-9.52,14.08,3.33,1.83c.84.46,1.28,1.42,1.08,2.36-1.42,6.51-1.78,12.98-1.05,19.25.14,1.21.98,2.23,2.14,2.6,1.92.62,3.94,1.06,6,1.3,1.16.13,2,1.16,1.91,2.32l-1.75,21.67c-.82,10.14-6.09,19.32-14.46,25.19-3.21,2.25-6.3,4.22-8.81,5.74Z"/><path class="cls-14" d="M806.22,222.45s14.23.5,19.88-7.24l-19.88,7.24Z"/><path class="cls-9" d="M806.8,224.62c-.36,0-.59,0-.66,0-1.19-.04-2.13-1.04-2.09-2.24.04-1.19,1.05-2.13,2.24-2.09.15,0,13.16.36,18.06-6.35.7-.97,2.06-1.18,3.02-.47.97.71,1.18,2.06.47,3.02-5.59,7.65-18.01,8.13-21.04,8.13Z"/><path class="cls-9" d="M1104.68,455.95h-136.12l100.91-155.1c3.15-4.85,8.65-7.78,14.55-7.78h110.47c7.02,0,11.28,7.51,7.53,13.26l-97.34,149.62Z"/><path class="cls-8" d="M1133.72,347.45c-4.42,6.8-13.93,12.31-21.25,12.31s-9.65-5.51-5.23-12.31c4.42-6.8,13.93-12.31,21.25-12.31s9.65,5.51,5.23,12.31Z"/><path class="cls-9" d="M1091.1,468.9h-226.62c-7.77,0-14.07-6.29-14.07-14.06h254.75c0,7.77-6.3,14.06-14.07,14.06Z"/><path class="cls-14" d="M1097.6,458.25h-116.9c-1.2,0-2.16-.97-2.16-2.16s.97-2.16,2.16-2.16h116.9c1.2,0,2.16.97,2.16,2.16s-.97,2.16-2.16,2.16Z"/></g></g></svg>