<svg width="20" height="20" viewBox="0 0 20 20" fill="none" xmlns="http://www.w3.org/2000/svg">
<path d="M19.0602 0H0.936239C0.104254 0 -0.313691 1.01166 0.27612 1.60147L7.49837 8.82373V16.8741C7.49837 17.1787 7.6468 17.4678 7.89679 17.6435L11.0216 19.8309C11.6388 20.2606 12.4981 19.8231 12.4981 19.0614V8.82373L19.7203 1.59757C20.3102 1.01166 19.8922 0 19.0602 0Z" fill="white"/>
<path d="M15.1613 14.6613H14.6613V15.1613V16.5251H14.2276V15.1613V14.6613H13.7276H12.3638V14.2276H13.7276H14.2276V13.7276V12.3638H14.6613V13.7276V14.2276H15.1613H16.5251V14.6613H15.1613ZM14.4444 9.5C11.7131 9.5 9.5 11.7131 9.5 14.4444C9.5 17.1758 11.7131 19.3889 14.4444 19.3889C17.1758 19.3889 19.3889 17.1758 19.3889 14.4444C19.3889 11.7131 17.1758 9.5 14.4444 9.5Z" fill="white" stroke="#2378C3"/>
</svg>
