<svg height="349" width="609" xmlns="http://www.w3.org/2000/svg" xmlns:xlink="http://www.w3.org/1999/xlink">
  <defs>
    <mask id="b" fill="#fff">
      <rect fill-rule="evenodd" height="349" rx="5" width="609"/>
    </mask>
    <mask id="c" fill="#fff">
      <path d="M0 0h609v349H0z" fill-rule="evenodd"/>
    </mask>
    <mask id="d" fill="#fff">
      <use fill-rule="evenodd" xlink:href="#a"/>
    </mask>
    <ellipse id="a" cx="367" cy="337.5" rx="367" ry="337.5"/>
  </defs>
  <g fill="none" fill-rule="evenodd" mask="url(#b)">
    <g mask="url(#c)">
      <use fill="#e0d4e7" xlink:href="#a"/>
      <path d="M-62 279h871v83H-62z" fill="#e8e5de" mask="url(#d)"/>
    </g>
    <g mask="url(#c)">
      <g fill-rule="nonzero" transform="translate(128 111.66)">
        <path d="m147.0773 40.6371-.5198 2.3229c-1.8651 8.4151-3.1799 15.8523-5.2285 22.4133a.4484.4484 0 0 1-.8561 0c-.7236-1.8338-1.5492-4.503-1.7734-4.8698l-7.858 5.318c5.7075 9.6581 10.0187 14.8641 12.9234 12.8062a6.8962 6.8962 0 0 0 1.1007-2.119c4.2705-12.2255 4.566-23.0654 5.463-32.8152.0814-.8863.1426-1.8033.2241-2.6387a4.4656 4.4656 0 0 1-3.4754-.4177z" fill="#f9b485"/>
        <path d="M141.431 58.5983c-2.1098-5.0226-6.207-15.2206-6.207-15.2206l-7.6337 2.4145a6.4404 6.4404 0 0 0-3.8277 3.4544 6.4364 6.4364 0 0 0-.0656 5.1543l4.4437 10.6667a2.731 2.731 0 0 0 1.5737 1.5376 2.7324 2.7324 0 0 0 2.1973-.1214l8.2249-4.2484c1.3152-.6886 1.879-2.2728 1.2943-3.637z" fill="#ce7561"/>
        <path d="M147.714 34.9421c.2128.0054.4145.0856.5607.2232.1461.1376.2248.3212.2186.5104v3.6574c.013.3957-.3344.7271-.7793.7437-.2128-.0053-.4145-.0856-.5607-.2232s-.2248-.3212-.2187-.5103v-3.6575c-.0129-.3957.3344-.7271.7794-.7437z" fill="#f9b485"/>
        <path d="M153.6001 40.8715a3.208 3.208 0 0 0 .316-1.62 1.8337 1.8337 0 0 0-.5198-.8964 8.5505 8.5505 0 0 0-2.0384-1.62 2.4265 2.4265 0 0 0-2.5786-.0509 4.1463 4.1463 0 0 0-1.6918 2.5776c-.428 1.8542-.5606 2.5164 0 3.9834.6828 1.8338 2.0384 2.4757 3.985.6113a9.649 9.649 0 0 0 2.5276-2.985z" fill="#f9b485"/>
        <path d="m149.5233 37.6012 3.8118-3.5862a.6518.6518 0 0 0 0-.9169.632.632 0 0 0-.907 0l-3.7813 3.5861a.6518.6518 0 0 0 0 .917.6423.6423 0 0 0 .8765 0zM151.0827 38.5283l3.8118-3.5862a.6518.6518 0 0 0 0-.9169.632.632 0 0 0-.907 0l-3.822 3.5861a.662.662 0 0 0 0 .917.6422.6422 0 0 0 .9172 0zM151.837 40.4538l3.8219-3.5862a.6518.6518 0 0 0 0-.9169.632.632 0 0 0-.907 0l-3.822 3.5862a.662.662 0 0 0 0 .9169.632.632 0 0 0 .907 0zM151.9388 42.4608l3.8118-3.5862a.6518.6518 0 0 0 0-.9169.632.632 0 0 0-.907 0l-3.8118 3.5862a.645.645 0 0 0 .2469 1.09.6457.6457 0 0 0 .6296-.1426zM118.1322 188.7687c2.0995-11.8281 4.9533-23.4321 7.909-35.1278.163-.652.805-2.4756.958-3.0563l12.4953 1.3142c-2.5582 8.8227-14.2687 36.0752-17.9073 51.7238-.4076 1.7829-4.2194 1.8236-5.1978-.8558-.5606-1.518.3872-5.8376.6828-7.977.2956-2.1395.7135-4.0243 1.06-6.0211zM100.7447 151.5219l12.587.1222c-4.5863 34.7508-9.3867 50.817-9.825 51.5099-2.2931 3.5963-4.8105 4.0242-5.7278.3973-.4485-1.7625.3057-6.775.642-10.3407 1.4371-14.915 2.2627-28.1593 2.3238-41.6887z" fill="#f9b485"/>
        <path d="M116.3078 102.0903a43.9002 43.9002 0 0 0 17.9073-4.7373 2.9035 2.9035 0 0 0 1.6714-2.598c2.9557 10.5343 6.533 27.925 6.686 38.714a52.7378 52.7378 0 0 1-1.8448 13.937c-.265 1.0187-.5504 2.119-.8663 3.2193a34.9212 34.9212 0 0 1-.367 1.2735s-15.0126-1.3754-19.8334-.1732c-8.9282 2.2312-18.9163-.1732-18.9163-.1732a346.3538 346.3538 0 0 0-4.3825-54.5356c0-.1834.7032-.3872.6829-.5705h.1528c.018.0875.0454.173.0816.2547 2.8028 2.7914 6.3801 5.7561 19.0283 5.3893z" fill="#fff"/>
        <path d="M130.4338 2.8504c-1.0191-1.3958-3.4143-.9679-5.259-1.1003a12.704 12.704 0 0 1-1.855-.2038l-1.3555-.5196A4.1394 4.1394 0 0 0 118.3564.66c-.4077.0815-.7032-.1427-1.1925 0-4.8615 1.3346-12.689 5.6033-6.5738 19.0309-.0815.4584-.0713 1.4365-.3669 1.7421a13.1117 13.1117 0 0 1-1.967-.2954 15.0287 15.0287 0 0 0-7.3076.4686 9.2735 9.2735 0 0 0-5.4323 4.7272c-.7339 1.6097-.9479 3.5046-2.12 4.8087-1.6307 1.844-4.4233 1.8134-6.798 2.4043a11.955 11.955 0 0 0-6.961 4.9004c-2.966 4.4011-2.6806 10.575-.153 15.3429 2.5277 4.7679 6.9815 8.2623 11.8023 10.5852 2.2626 1.1003 5.208 1.1104 7.695.866 3.2715-.3159 5.524-1.6403 8.021-3.7696 2.6907-2.2922 5.4425-4.7475 6.7572-8.0586 1.6104-4.0751.7644-8.7615-.4688-13.02a22.4056 22.4056 0 0 1-1.1313-5.2468 6.1113 6.1113 0 0 1 1.7224-4.8698c1.223-1.1003 3.0576-1.5588 4.78-2.1904a2.0392 2.0392 0 0 0 .7033-.0713 11.2093 11.2093 0 0 0 7.3892-6.8666 17.9276 17.9276 0 0 1 1.4472-2.9443c.6115-1.0188 1.8855-3.3009 1.8957-5.2468 0-1.2938 1.2129-3.25 1.4473-4.5336a7.8523 7.8523 0 0 0-1.111-5.5727z" fill="#6c3416"/>
        <path d="M137.7618 97.9948a28.729 28.729 0 0 0-.6726-6.4693c-.102-.7437-1.5696-10.8704-2.3034-14.4464-2.3238-11.4002-2.3951-13.6313-.7848-30.095-.5503-.5195-1.1313-1.0187-1.7326-1.4975a19.111 19.111 0 0 0 3.1187-1.9663c-8.4593-13.3461-18.8143-12.2254-24.9702-9.9332a19.5408 19.5408 0 0 0-4.8616 2.496c-.316.214-.479.3465-.479.3465-2.497.6724-7.97 5.2875-8.6224 6.5406a12.205 12.205 0 0 0-.428.927 7.8825 7.8825 0 0 0 .2242 6.0313 4.2162 4.2162 0 0 1 .2956 2.0375c-.32 2.7382 1.471 5.2789 4.1583 5.8988h.0713c1.4065 4.2891 3.1595 8.3643 3.6691 12.9182a20.9787 20.9787 0 0 1-.102 5.094 22.6507 22.6507 0 0 1-.6726 2.5673c-1.9466 5.8886-5.096 10.1879-7.4095 17.024-.9173 2.7303-.4994 5.7764.2344 8.568.3058 1.202-1.3657 2.4348.8153 3.9222 2.9557 2.0376 9.2543-2.0375 18.0805-1.6096 5.3202.2343 11.629 2.7813 18.8246.4279 2.0152-.655 3.3992-2.5078 3.455-4.6253 0-1.5588.0816-3.1786.0816-4.1872z" fill="#ce7561"/>
        <path d="M116.1651 43.235a188.9393 188.9393 0 0 0-4.464-5.4199 2.638 2.638 0 0 1 .4178-3.8 7.7683 7.7683 0 0 1 5.6464-1.8033c2.2524.2852 6.0132 2.0376 4.8411 4.5132a63.2781 63.2781 0 0 1-3.3021 6.2553 1.8858 1.8858 0 0 1-3.1391.2547z" fill="#f9b485"/>
        <path d="M116.1651.008c6.7235-.2268 12.6308 4.4257 13.9834 11.013a10.1848 10.1848 0 0 1-2.05 8.431 10.1934 10.1934 0 0 1-7.8056 3.7945c-6.7235.2267-12.6308-4.4258-13.9834-11.0131a10.1848 10.1848 0 0 1 2.05-8.431A10.1934 10.1934 0 0 1 116.165.008z" fill="#6c3416"/>
        <path d="m125.0321 11.9074-9.1727-.1427a.7541.7541 0 0 1-.734-.764l.1225-4.88c.0111-.8136.674-1.4672 1.488-1.4671l8.4083.1324c1.8217.2218 3.1822 1.782 3.1534 3.6162-.0288 1.8342-1.4377 3.3509-3.2655 3.5154z" fill="#ffa27f"/>
        <path d="M111.5584 21.5145a9.83 9.83 0 0 0 1.7836 3.3315 6.6718 6.6718 0 0 0 2.0384-4.6457 3.3103 3.3103 0 0 1-.9377-2.6387c0-1.5587.7644-2.8118 1.651-2.7914a.632.632 0 0 1 .1937.0713l-5.9317-5.5117c-.744 2.7508-.6115 6.6425 1.2027 12.1847z" fill="#6c3416"/>
        <path d="M127.2234 5.377a8.3832 8.3832 0 0 1 3.0576 6.622l-.1325 6.7546c.0222 3.0331-1.606 5.8388-4.251 7.3253a8.3399 8.3399 0 0 1-8.4702-.176c-2.5809-1.5952-4.091-4.4661-3.9426-7.4957l.1324-6.5304z" fill="#f9b485"/>
        <path d="m114.3102 38.3856 4.831.0917c.6726 0 1.223-.6826 1.2434-1.5485l.3363-16.3006c.0937-.7646-.4244-1.47-1.1822-1.6097l-4.831-.1019c-.7637.1056-1.3104.791-1.2434 1.5588l-.3262 16.3005c-.0995.7627.4154 1.47 1.1721 1.6097z" fill="#f9b485"/>
        <path d="M122.4536 11.1229h-2.0384c-.2726.0534-.4757.3862-.4757.7794s.2031.726.4757.7794h2.0384c.2725-.0534.4756-.3862.4756-.7794s-.2031-.726-.4756-.7794zM129.8631 11.2146h-1.5798c-.2612.0595-.4472.395-.428.772 0 .4226.1834.7868.4179.7868h1.5695c.2344 0 .4179-.3351.428-.7576s-.1834-.8012-.4076-.8012z" fill="#6c3416"/>
        <path d="m126.9992 17.7246-.0612-.1833a1.0188 1.0188 0 0 1-.6727.8965l-.907.2852a.6728.6728 0 0 1-.7644-.3565v.112c-.1223.6215.3669 1.1615.8867 1.0188l.907-.275a1.1413 1.1413 0 0 0 .6116-1.4977z" fill="#fa694f"/>
        <path d="M122.4328 14.597c0 .5195-.3668.9372-.7991.9372s-.7599-.438-.7599-.9576.3668-.9373.7992-.9271c.4323.0102.773.4279.7598.9475z" fill="#02020c"/>
        <path d="m121.4955 13.7467 1.5594.0312-.9727.9664zM129.761 14.7192c0 .5196-.367.9271-.7992.9271s-.773-.4279-.76-.9475.367-.9372.7993-.9372.7598.438.7598.9576z" fill="#02020c"/>
        <path d="m128.7726 13.8588 1.5594.0311-.9727.9665z" fill="#02020c"/>
        <path d="M113.719 14.8822c-1.4405.1244-2.5153 1.3802-2.4154 2.822a2.4039 2.4039 0 0 0 .9715 2.4861 2.4061 2.4061 0 0 0 2.6694.0576 2.404 2.404 0 0 0 1.078-2.4418c.1561-1.4388-.8675-2.7382-2.3034-2.9239z" fill="#f9b485"/>
        <path d="M111.8234 8.7084c1.0192-1.9357 1.2842-4.4012 3.0575-5.6543a5.7705 5.7705 0 0 1 3.8016-.7743c1.583.1502 3.151.4296 4.6883.8354l3.3838.7845a.785.785 0 0 1 .3669.1528.8455.8455 0 0 1 .214.3872c.1936.5501.9478 1.8847.795 2.4552s-1.0192.6419-1.5084.6724a12.6802 12.6802 0 0 0-9.9168 5.2366c-1.0192 1.4976-1.5696 3.2805-2.6193 4.7577a8.2644 8.2644 0 0 1-2.548 2.3534l-.1325.0713-2.8028-6.9786a24.4517 24.4517 0 0 0 3.2207-4.2993z" fill="#6c3416"/>
        <path d="M69.7307 87.5319c14.0852-7.9771 18.3455-9.2302 24.6339-17.1258a39.9122 39.9122 0 0 0 .8561-4.177c2.5072 1.3142 4.6883 2.3635 6.7674 3.26-.907 3.5454-.8357 3.25-1.0191 3.902a16.6849 16.6849 0 0 1-1.5594 3.2194c-.846 1.2735-12.801 8.4355-25.7245 13.6925z" fill="#f9b485"/>
        <path d="M94.9251 47.086a6.3451 6.3451 0 0 1 .9377-3.5351 3.8428 3.8428 0 0 1 3.2818-1.6708c3.343 0 7.7255 3.3008 10.039 6.5406l.4077.5705-.1732.6724c-3.3634 13.1525-4.5966 17.9816-5.096 20.0599a1.6811 1.6811 0 0 1-.8865 1.1055c-.444.22-.9624.233-1.4169.0355-2.1912-.9372-3.9952-1.7727-7.5522-3.637a2.3226 2.3226 0 0 1-1.2332-2.3738c.7848-6.3369 1.6409-14.64 1.6918-17.7676z" fill="#ce7561"/>
        <path d="M73.8686 90.843a6.1153 6.1153 0 0 1-2.2626 1.518 14.4865 14.4865 0 0 1-3.343 1.192 3.7712 3.7712 0 0 1-3.0576-1.9358 2.4341 2.4341 0 0 1 0-2.771 4.953 4.953 0 0 1 2.2423-1.6913c1.8141-.815 4.0767-1.2327 5.8094-.1018a2.802 2.802 0 0 1 1.0192 1.1308 2.5563 2.5563 0 0 1-.4077 2.659z" fill="#f79654"/>
        <path d="M51.4463 166.0701c.5912 1.0188 1.488 2.1599 2.0384 3.2194a16.2951 16.2951 0 0 1 1.4778 6.612 12.516 12.516 0 0 1-.2446 3.0563c-.5197 2.3432-2.1199 4.992-1.5695 7.325a57.4818 57.4818 0 0 0 2.3237-8.8328 17.8933 17.8933 0 0 0-.7236-8.6597c-1.5186-4.014-4.9329-7.05-5.8807-11.2678-.0816-.3871-.6014-3.6472-1.2842-3.3518-.4383.2038-.1937 2.3228-.0816 2.6488a44.817 44.817 0 0 0 3.9443 9.2506zM59.284 155.8823a22.1348 22.1348 0 0 1 1.702 3.362c.4892 1.4976.4688 3.148 1.0192 4.6354.2038.6215.5096 1.2022.7134 1.8338.247.818.4175 1.657.5096 2.5063l.3975 2.9748a19.268 19.268 0 0 1 .2446 2.8628 16.7327 16.7327 0 0 1-.846 4.5336c-.5197 1.7523-1.121 3.4843-1.8039 5.1653a40.6235 40.6235 0 0 0-.6319-14.5483 80.2783 80.2783 0 0 0-4.5558-13.7536 5.9683 5.9683 0 0 1-.4994-1.6708 1.9148 1.9148 0 0 1 .5198-1.5893 1.4782 1.4782 0 0 1 2.2014.2954c.1156.5386.204 1.0826.265 1.63a8.5662 8.5662 0 0 0 .7644 1.7626z" fill="#5f555a"/>
        <path d="m54.6568 181.6168 5.1571.7845c-.3873 1.2836-4.5048 14.6603-6.533 20.2127l-3.455-.0917c1.1108-4.8698 4.678-20.1516 4.8309-20.9055z" fill="#f79654"/>
        <path d="m49.8258 202.5223 3.455.0917a13.792 13.792 0 0 1-1.1414 2.3636c-1.4269 2.3636-3.0576 1.9153-2.6295-1.0188.0203-.0917.1325-.6215.316-1.4365z" fill="#fbe9dc"/>
        <path d="m49.4589 204.2542 2.2728.2547 2.9964 1.2328c1.1925.4075.7848 1.6504-.5503 1.6708l-5.096.1019c-.2446 0-.428-.1427-.3873-.3057l.693-2.8628a.2445.2445 0 0 1 .0714-.0917z" fill="#6d72a0"/>
        <path d="M57.164 152.0414c1.0192 1.8644 2.0384 5.094 3.72 9.3016 4.352 10.6463 2.966 14.9252.3364 22.7698-1.1925 3.576-1.325 3.7797-2.3645 3.9224-3.394.4482-3.9749-1.0698-5.3202-1.3448-.8052-.1732-.632-1.0188.2955-3.6982.4893-1.3958.9479-3.0564 1.2129-3.9835 1.6817-6.2859-3.5876-14.7826-7.96-23.8905 0 0 8.1129-1.2735 10.08-3.0768z" fill="#6f6469"/>
        <path d="M38.0745 165.2857c.3363 1.1206.958 2.4756 1.1925 3.6268a16.0905 16.0905 0 0 1-.1427 6.7953 13.3833 13.3833 0 0 1-1.0192 2.924c-1.0906 2.1394-3.3328 4.289-3.3634 6.6934a54.5907 54.5907 0 0 0 4.4743-7.967 17.3132 17.3132 0 0 0 1.3963-8.568c-.5198-4.289-3.19-8.0993-3.0576-12.4291 0-.3973.2854-3.6982-.4586-3.576-.4994.0816-.7644 2.1904-.744 2.5368a45.4825 45.4825 0 0 0 1.7224 9.9638z" fill="#5f555a"/>
        <path d="m37.4528 181.2195 4.9533 2.0376c-.7033 1.1512-8.072 13.0506-11.4558 17.9102l-3.4143-1.0188c2.3034-4.3706 9.5805-18.2057 9.9168-18.929z" fill="#f79654"/>
        <path d="m27.4953 200.23 3.4143 1.0188a12.6851 12.6851 0 0 1-1.7123 2.0376c-2.0384 1.9255-3.5468 1.0188-2.3747-1.63z" fill="#fbe9dc"/>
        <path d="m26.7513 201.8193 2.2014.8253 2.6805 1.9662c1.0905.6928.367 1.793-.9682 1.4773l-5.096-1.2022c-.2446-.0611-.3975-.2547-.316-.4075l1.3963-2.5877s.0612-.051.102-.0714z" fill="#6d72a0"/>
        <path d="M47.1861 153.2029c.5707 2.0375 1.7734 3.1582 2.4563 7.702 1.7224 11.441-1.7225 17.4925-6.2579 24.4509-2.0384 3.1582-2.2524 3.3314-3.3124 3.199-3.4856-.4381-3.6996-2.0376-4.9634-2.6693-.7644-.377-.3975-1.1512 1.1924-3.5046.8256-1.2327 1.6817-2.6794 2.181-3.5556 3.0577-5.3078.418-14.0694-1.6816-23.3404a1.3851 1.3851 0 0 1 .2899-1.2124 1.3864 1.3864 0 0 1 1.1472-.489c2.6091.1427 7.2566.3159 8.9485-.5806z" fill="#6f6469"/>
        <path d="M4.8182 110.8111c-.0611-.0916-.1223-.1935-.2344-.2139-.1121-.0204-.367.1936-.367.3871.0147.1949.0666.385.153.5604a.6009.6009 0 0 1-.0816.5705 2.9755 2.9755 0 0 1-1.325-1.2531 2.669 2.669 0 0 0-.3363-.54 1.7024 1.7024 0 0 0-.9172-.3667 1.1623 1.1623 0 0 0-.846.0713 1.2634 1.2634 0 0 0-.3669.4279 2.7193 2.7193 0 0 0-.4688 1.956 2.333 2.333 0 0 0 .744 1.1003 9.2953 9.2953 0 0 0 2.5174 1.681c.401.2358.8852.2842 1.325.1325a2.1392 2.1392 0 0 0 1.0905-2.0376 8.5352 8.5352 0 0 0-.8867-2.4756zM70.6276 95.6822l.1528-.2242.0612-.1018a3.7172 3.7172 0 0 0 .2446-1.62 21.1926 21.1926 0 0 0-.1427-2.2718l-.214-.2241-.2344-.2547-.1122-.0917-.0815-.0713a3.5372 3.5372 0 0 0-1.0192-.4789.9378.9378 0 0 0-1.0192.3872 2.7396 2.7396 0 0 0-.3261 1.5485 5.53 5.53 0 0 0 .428 2.2006l.102.2343v.2445a34.9866 34.9866 0 0 1-6.6758 18.3993 31.3612 31.3612 0 0 1-3.3939 4.0752l5.8094 2.4858c3.8934-6.4897 6.1967-14.7928 6.4413-23.972z" fill="#f79654"/>
        <path d="M20.9419 120.1229a34.017 34.017 0 0 1-16.3071-7.2232l-1.4779 1.7625a47.5593 47.5593 0 0 0 18.7226 11.2066l1.1823-5.4709c-.7644-.0611-1.4575-.1732-2.12-.275z" fill="#f79654"/>
        <path d="m21.5024 126.4903 1.325-6.1127h.1223c1.0192.0713 2.13.0815 3.19.0509h.2243a52.5063 52.5063 0 0 0 5.208-1.2225c1.5288-.326 6.1152-1.6403 6.4923-1.7931a27.7315 27.7315 0 0 1 3.659-.8252 17.0578 17.0578 0 0 1 5.9418.3056l-.0611-.0611c.1119.0558.2277.1035.3465.1426h.1121c.7236.2649 2.0384.6826 3.2716 1.1003a6.4025 6.4025 0 0 0 6.1763-1.1818 1.152 1.152 0 0 1 1.0804-.1732l4.2704 1.5078a2.699 2.699 0 0 1 1.223 4.2076c-.3261.4177-.6523.815-1.0192 1.2022a40.943 40.943 0 0 1-3.0575 3.0563 6.8345 6.8345 0 0 0-2.2015 5.96 32.8 32.8 0 0 1 .214 2.3431 106.1864 106.1864 0 0 0 0 11.4003c.7033 7.6307 1.2333 7.2333.367 9.6275a2.455 2.455 0 0 1-.4689.8761 3.558 3.558 0 0 1-1.916.5196c-18.05 3.0564-20.2718.4789-20.2718.4789l-.1223-.4483a.0713.0713 0 0 1 0-.051l-.153-.5093v-.0714c-.5503-3.9936 2.3238-13.2951 1.3964-16.6571s-1.5798-5.3894-2.3951-9.3525c-.2752-1.2938-6.5738-1.732-7.8682-1.9153-1.804-.2547-3.506-.5196-4.0768-.6418-.7476-.231-1.1886-1.0012-1.009-1.7625z" fill="#2a328c"/>
        <ellipse cx="44.1387" cy="119.8478" fill="#f79654" rx="4.7596" ry="2.1496"/>
        <path d="M50.6921 96.538a7.266 7.266 0 0 1-1.59-1.355c-.3363-.489-.4382-1.1003-.7337-1.6199a1.2945 1.2945 0 0 0-1.5084-.7233c-.265.112-.4689.3463-.7339.4584-.7542.3056-1.4166-.4992-2.0383-.9373a2.5896 2.5896 0 0 0-2.5786-.1222c-.581.3056-1.1313.8558-1.7734.7335-.6421-.1223-.8969-.5909-1.4065-.54-.7542.0714-.8969 1.1615-1.5492 1.5588a3.0587 3.0587 0 0 1-1.5695.1426 2.6193 2.6193 0 0 0-2.3136 1.5791c-.1255.5117-.332 1-.6115 1.4467-.4485.5196-1.274.6317-1.641 1.2022-.7541 1.2021.6931 2.0376 1.2333 3.1684.6625 1.4467-.1733 3.5658 1.111 4.5336.2955.2343.7032.3668.856.7132.153.3463 0 .7742.0918 1.141.2242.6826 1.2332.7539 1.7632 1.192l.2446.326a.4379.4379 0 0 0 0 .0713c2.5684 3.3722 6.4107 5.0124 9.611 3.7288 2.66-1.0188 4.2398-3.8816 4.4335-7.2334h.1019a3.3823 3.3823 0 0 0 1.4574-2.1598c.4281-1.6301-.856-2.598-.693-4.0039.0611-.5297.5504-.9475.6727-1.467a1.8947 1.8947 0 0 0-.8358-1.8338z" fill="#52464c"/>
        <path d="m47.1555 100.7965-6.319 2.6794a.5404.5404 0 0 1-.7134-.2955l-1.4167-3.3925c-.2274-.5487.0264-1.1783.5708-1.4161l5.8297-2.4757a2.5795 2.5795 0 0 1 1.9765-.0017 2.578 2.578 0 0 1 1.397 1.3975v.1018c.553 1.3058-.0343 2.8143-1.3249 3.4028z" fill="#f79654"/>
        <path d="M39.8377 111.7994a7.0014 7.0014 0 0 0 2.2015 1.732 5.0004 5.0004 0 0 0 0-3.7492 2.476 2.476 0 0 1-1.4167-1.5078c-.4383-1.08-.2956-2.1497.3057-2.4044h.153l-5.6566-1.9458c.3058 2.0375 1.5492 4.6558 4.4131 7.8752z" fill="#52464c"/>
        <path d="M39.3485 106.6443c-.9194.5372-1.2702 1.6912-.8052 2.6489.3228 1.0183 1.3998 1.5928 2.4257 1.2938.9194-.5371 1.2702-1.6912.8052-2.6488-.3182-1.0221-1.3992-1.5987-2.4257-1.2939z" fill="#f79654"/>
        <path d="M46.5032 95.7739a6.9091 6.9091 0 0 1 4.4335 4.014l1.4677 5.257c1.437 3.5045-1.1823 8.1502-4.6781 7.702-4.882-.6011-5.5139.8252-6.951-2.6897l-2.0383-4.9716z" fill="#f79654"/>
        <path d="m45.9733 106.247-3.7303.3158c-.5096 0-.8765.6622-.8153 1.3856l.8357 12.2763c1.8855-.489 3.8831-1.8643 5.6973-1.2429l-.9479-11.5225c-.0611-.703-.53-1.253-1.0395-1.2123z" fill="#f79654"/>
        <path d="m44.6789 102.1808-1.2129.6492c-.1798.1007-.2618.3677-.1834.5972.0359.109.1047.1953.1909.2392a.2787.2787 0 0 0 .2677-.0055l1.2129-.6492c.1798-.1007.2618-.3677.1834-.5972-.0335-.1116-.102-.2003-.1892-.2446s-.1847-.0404-.2694.0109zM50.2946 99.7244l-1.2128.668c-.1559.1154-.2204.362-.1504.575.07.2131.2524.3258.4256.263l1.2128-.6679c.0857-.046.1533-.1344.1878-.2452a.5632.5632 0 0 0-.0043-.344c-.034-.1124-.1019-.2024-.1883-.2493a.2766.2766 0 0 0-.2704.0004z" fill="#52464c"/>
        <path d="M50.8822 102.3657c.2183.4085.1248.8434-.1871.9489s-.7485-.1318-.9513-.5404-.1091-.8434.2028-.962c.3118-.1186.7329.1054.9356.5535zM46.0125 104.6027c.2027.421.1091.842-.2028.9604-.3118.1184-.7329-.1316-.9356-.5526s-.1091-.8288.2027-.9473.733.1316.9357.5395z" fill="#02020c"/>
        <path d="m49.6831 104.7188-.0917-.0815a.6926.6926 0 0 1-.2344.7335l-.5606.4483a.52.52 0 0 1-.6115 0v.1426a.54.54 0 0 0 .8765.326l.5606-.4482a.713.713 0 0 0 .0611-1.1207z" fill="#fa694f"/>
        <path d="M46.2484 95.7739a10.0519 10.0519 0 0 0-7.0426 2.3228l2.0384.6826z" fill="#f79654"/>
        <path d="M49.5099 97.1288s-1.9263-.6927-5.096 1.4162c-3.1697 2.1088-.3465 5.644-3.8526 7.9057l-2.0383.377-2.232-7.213s4.7392-8.1503 12.1793-4.3299z" fill="#52464c"/>
        <path d="M48.4397 108.2387c.2718.6352.893.9153 1.437.648 0 0 1.2435-.4237.7747-1.458z" fill="#fff"/>
        <path d="m45.0336 104.3293.9824-.5456-.3742 1.0756zM49.8646 102.0981l.9824-.5455-.3742 1.0755z" fill="#02020c"/>
        <path d="m110.743 204.5293-2.8537-1.0188c-3.241 2.384-8.2555 1.4976-10.192-1.793v5.5422c-.1019.3463.2956.6825.8256.6825l10.9869.1427c2.8232.0102 3.7914-2.6183 1.2332-3.5556z" fill="#2a328c"/>
        <path d="m107.8893 203.48-7.3688-2.71a3.0583 3.0583 0 0 0-2.864.9067c1.9773 3.3009 6.9917 4.1872 10.2328 1.8033z" fill="#f9b485"/>
        <path d="m129.3025 204.784-2.8537-1.0188c-3.241 2.384-8.2555 1.4976-10.192-1.793v5.5422c-.0917.3463.3058.6825.8256.6825l10.9971.1427c2.8028.0407 3.7812-2.5368 1.223-3.5556z" fill="#2a328c"/>
        <path d="m126.4488 203.7652-7.3688-2.71a3.0583 3.0583 0 0 0-2.864.9068c1.9875 3.3008 6.9918 4.1872 10.2328 1.8032z" fill="#f9b485"/>
        <path d="M122.9122 20.9848c.0713.656.1223 1.3007 1.3555 1.5194 0 0 2.0384.3684 1.8957-1.151z" fill="#fff"/>
      </g>
      <path d="m248.8528 129.196 9.4295.0052c.467 3.4145.6027 5.4465.4072 6.096-.2932.9742-1.9772 2.4547-4.1502 3.1173-1.4486.4418-3.4486.573-6 .3938z" fill="#bde6f1"/>
      <path d="m172.3473 218.6201 7.7706-3.4409c1.0623 3.3968 1.5935 5.4461 1.5935 6.148 0 1.0528-1.401 2.9801-4.113 3.864-1.808.5893-3.453.4188-4.9348-.5117z" fill="#6a99d2"/>
      <g>
        <g fill-rule="nonzero" transform="translate(356.061 61)">
          <path d="m103.3863 189.0647 1.9433 5.6836c.8517 2.506 1.7033 5.024 2.771 7.4582 1.4754 3.3813 3.3587 6.6068 4.4382 10.156.7917 2.626 1.1996 5.3718 1.8593 8.0098 1.1276 4.0648 3.1308 7.8179 4.7982 11.7148a26.7772 26.7772 0 0 1 1.6914 13.1897c-.072.5276-.156.6595-.6838.5876s-.1919-.7195-.3358-1.0552a663.074 663.074 0 0 1-19.9964-53.6221 61.0602 61.0602 0 0 1-2.9869-12.1825 5.909 5.909 0 0 1 .12-2.554 2.3267 2.3267 0 0 1 1.7873-1.6547c2.399-.2878 1.8953 4.3526 2.1712 5.7555a66.6712 66.6712 0 0 0 2.423 8.5133zM71.4185 193.2495c.12 2.3261.6478 4.6163.9357 6.9425.6717 5.4318 0 10.9475.2639 16.4152.4438 9.4726 3.5986 18.9212 2.0152 28.25a32.4347 32.4347 0 0 1-.6598-4.0529c-2.519-20.444-5.038-40.96-4.99-61.5599a3.752 3.752 0 0 1 .6117-2.458c2.483-2.8539 2.591 4.7962 2.567 5.5995-.096 3.6332-.9236 7.2184-.7437 10.8636z" fill="#2a328c"/>
          <path d="M99.044 117.6125c.4318 2.9617 1.4274 5.8035 1.8233 8.7652.7797 5.7795-.7317 11.619-.6238 17.4464s1.8113 11.487 2.723 17.2545c.9116 5.7675.9116 11.9906-2.0872 16.9907-1.7993-25.676-3.5946-51.3479-5.386-77.0158-.1559-2.1583-.2998-5.6596 1.6674-7.1944 2.399-1.7866 2.399.3597 2.399 2.3981-.1558 7.0265-1.5593 14.3888-.5157 21.3553z" fill="#fff"/>
          <path d="M130.268 112.8762a40.7969 40.7969 0 0 1-6.5014-1.8945 60.3508 60.3508 0 0 0-6.3456-2.542c-2.543-.7674-5.6019-1.199-8.121-2.0624a15.1366 15.1366 0 0 1-7.581-6.427 36.6831 36.6831 0 0 1-3.8506-9.3766c-.3118-1.1152-.5877-2.3982.168-3.3334 1.0796-1.1991 3.1428-.4197 4.3063.7434 1.8953 1.8945 2.9989 4.4245 4.5343 6.6188 3.8505 5.5277 10.1601 8.7052 16.3498 11.2832 3.0828 1.283 6.2016 2.482 9.2125 3.945 1.6913.8153 7.4371 3.0935 7.4611 5.2039-3.1668-.4077-6.4655-1.427-9.6323-2.1584zM43.3732 96.8927a21.1866 21.1866 0 0 0-1.7033 2.614 22.8969 22.8969 0 0 1-.9717 2.3981 7.628 7.628 0 0 1-2.663 2.3981l5.7578-15.1441c.372-.9953 1.0676-2.3982 2.2912-2.2783.9836 2.9018-1.1156 7.638-2.711 10.0122z" fill="#fff"/>
          <path d="m11.2135 61.892 3.7305 4.7843-4.0064 2.8058-3.1428-4.7363zM115.6697 238.7899l4.2703 14.9163-6.0937 1.235-3.1428-2.9137.264-.6954-3.4307-10.8995z" fill="#c1775b"/>
          <path d="m111.2313 250.8165-8.3968 2.8657c-2.0392.7075-2.399 2.1464-1.6073 3.2255l19.3246-.4556-.7797-4.3047a1.5952 1.5952 0 0 0-1.5714-1.331z" fill="#948686"/>
          <path d="m120.5998 256.452.2159.7315c.132.4437-.4079.8753-1.1276.8753l-15.0183.1679a4.1393 4.1393 0 0 1-3.3947-1.319z" fill="#000543"/>
          <rect fill="#000543" height="1.3669" rx=".46" width="3.7546" x="114.9019" y="254.6175"/>
          <path d="m69.6552 238.718.4798 15.312-6.2616.5276-2.3511-3.2495.4318-.6595-.6597-11.2232z" fill="#c1775b"/>
          <path d="m61.9781 250.7205-8.3968 2.8658c-2.0392.6955-2.399 2.1463-1.6074 3.2135l19.3247-.4556-.7797-4.2927c-.1242-.77-.7911-1.335-1.5714-1.331z" fill="#948686"/>
          <path d="m71.3465 256.3442.216.7314c.132.4556-.4079.8753-1.1276.8873l-15.0183.1559a4.0673 4.0673 0 0 1-3.3947-1.319z" fill="#000543"/>
          <rect fill="#000543" height="1.3669" rx=".46" width="3.7546" x="65.6487" y="254.5216"/>
          <path d="M11.0575 53.079a.935.935 0 0 0-.9356.9473l-.12 4.7962a.935.935 0 0 0 .8757.9952c.5207-.0065.9412-.4268.9476-.9473l.12-4.7962c.0273-.519-.3688-.963-.8877-.9953z" fill="#c1775b"/>
          <path d="M3.0326 60.753a4.0994 4.0994 0 0 1-.3719-2.1584 2.326 2.326 0 0 1 .7078-1.199 10.9394 10.9394 0 0 1 2.7589-2.0864 3.1799 3.1799 0 0 1 3.4307 0 5.4795 5.4795 0 0 1 2.1712 3.4293c.5158 2.3982.6717 3.3334-.072 5.252-.9476 2.398-2.771 3.2254-5.278.7074-1.2835-1.259-2.735-2.3622-3.3467-3.945z" fill="#c1775b"/>
          <path d="M8.4905 56.5322 3.5844 51.7a.863.863 0 0 1 0-1.199.8398.8398 0 0 1 1.1995 0l4.9421 4.7962a.863.863 0 0 1 0 1.199.8518.8518 0 0 1-1.2355.036zM6.4033 57.7193l-4.9421-4.7962a.863.863 0 0 1 0-1.1991.852.852 0 0 1 1.1995 0l4.9421 4.7963a.863.863 0 0 1 0 1.199.852.852 0 0 1-1.1995 0zM5.3237 60.2374.3816 55.441a.863.863 0 0 1 0-1.199.8398.8398 0 0 1 1.1995 0l4.9422 4.7962a.851.851 0 0 1 0 1.199.8278.8278 0 0 1-1.1996 0zM5.1918 62.8873.2376 58.091a.875.875 0 0 1 0-1.199.852.852 0 0 1 1.1996 0l4.9421 4.7962a.863.863 0 0 1 0 1.199.852.852 0 0 1-1.1875 0z" fill="#c1775b"/>
          <path d="M71.1906 171.8102c-.4678 25.3602-.6957 46.9673 4.0425 71.2124a3.2845 3.2845 0 0 1-.6792 2.7744 3.2895 3.2895 0 0 1-2.5956 1.195l-11.3597-.2283c-1.3038-.0373-2.3944-1.0013-2.591-2.2903-5.266-34.3052-7.1972-52.7587-8.8526-72.6152zM99.5478 174.1963c0 6.6788 2.2192 13.4056 7.0293 25.9598 4.3664 11.391 9.5964 30.0485 14.0227 43.1662a3.2244 3.2244 0 0 1-.3237 3.2338 3.2273 3.2273 0 0 1-2.975 1.3107l-9.5244-.1799c-2.116-.0608-3.997-1.3629-4.7982-3.3214-4.7262-11.451-8.2289-19.185-13.7348-31.1037-7.2692-15.7317-11.6595-25.1803-12.4272-36.1038a86.6282 86.6282 0 0 1-.144-2.8777l-.096-2.506h22.9713z" fill="#2a328c"/>
          <path d="m30.73 102.1206.9477-17.3144-.9117-.3118 8.6847-25.7559a8.2268 8.2268 0 0 1 3.4307-3.717 1.74 1.74 0 0 1 1.4634-.12l10.436 3.981-14.3945 42.7345c-.5446 2.1904-2.2987 3.8738-4.5102 4.3287a4.8998 4.8998 0 0 1-.9237.084c-1.9193 0-3.5986-1.1992-5.026-3.4055z" fill="#fff"/>
          <path d="M85.2612 174.0764H48.0274v-41.4996h37.2338z" fill="#a5d1f5"/>
          <path d="M85.873 174.688H47.4876v-42.7227H85.873zm-37.1858-1.1991h35.9863v-40.3005H48.6872z" fill="#0959a7"/>
          <path d="m61.4623 44.6615.8517-.1678c.6837-.144 1.3675-.2638 2.0632-.3837a95.0053 95.0053 0 0 1 18.9288-.9593l-1.4874 94.1864H80.367l-27.1576-.6595 8.0249-91.9681z" fill="#a7d8d5"/>
          <path d="M39.1508 59.35c3.5627-12.6021 22.0836-14.6405 22.0836-14.6405l5.7818 51.4518L83.306 43.1507l1.8953.072c1.4634.0839 2.9029.1678 4.2943.2877 8.7567 1.199 16.9856 11.595 12.8471 26.6072l-4.1144 35.912a53.505 53.505 0 0 0-.228 9.4006l3.8746 59.4976c.192 2.2782-.4078 3.0096-2.675 3.0096l-48.3056.084c-3.0539-.0193-5.5322-2.4753-5.5778-5.5277l-1.6074-89.558z" fill="#fff"/>
          <path d="M51.0503 178.7048c-3.3799-.032-6.1193-2.749-6.1777-6.1272l-1.6073-91.7044a.5994.5994 0 0 1 .5877-.6235.576.576 0 0 1 .6118.5996l1.6194 91.7043c.0646 2.7027 2.2617 4.8671 4.966 4.8922a.5999.5999 0 0 1 .6118.5995.6354.6354 0 0 1-.6117.6595zM65.6487 89.2067a.5997.5997 0 0 1-.5758-.4436l-8.3248-28.9934a2.3137 2.3137 0 0 1 .8157-2.506l1.4395-1.0792.3478-.6355-.3478.4916-3.0349-2.0983c-.6876-.4961-.8713-1.4408-.4198-2.1583l4.7262-7.2784a.5878.5878 0 0 1 .8277-.1798.6114.6114 0 0 1 .1799.8393l-4.7262 7.2184a.3716.3716 0 0 0 .108.4916l3.0468 2.1703c.3384.2466.5424.6367.5518 1.0552 0 .4151-.1956.806-.5278 1.0552l-1.4395 1.0791a1.1988 1.1988 0 0 0-.3958 1.199l8.3248 28.9934a.5993.5993 0 0 1-.4078.7554z" fill="#d7e1fc"/>
          <rect fill="#d7e1fc" height="6.8347" rx="1.5" transform="rotate(180 50.4985 70.1416)" width="11.6116" x="44.6927" y="66.7243"/>
          <path d="M50.4745 66.9281a.5997.5997 0 0 1-.5998-.5995v-1.5948c0-.331.2686-.5995.5998-.5995s.5998.2684.5998.5995v1.5708a.5994.5994 0 0 1-.5998.6235z" fill="#0959a7"/>
          <path d="M69.991 88.1755a.552.552 0 0 1-.2758-.072.5996.5996 0 0 1-.252-.8153L83.378 60.5731a1.1028 1.1028 0 0 0-.144-1.199l-1.1995-1.355a1.3186 1.3186 0 0 1-.3-1.199 1.355 1.355 0 0 1 .7438-.9234l3.4187-1.4988a.3836.3836 0 0 0 .204-.4796l-3.3468-10.276a.6235.6235 0 0 1 .3839-.7794.6.6 0 0 1 .7557.3957l3.3347 10.264c.277.7937-.1047 1.6667-.8757 2.0024l-3.4187 1.4989v.1319l1.1996 1.3549a2.3974 2.3974 0 0 1 .3119 2.626l-13.9147 26.715a.6118.6118 0 0 1-.5398.3238z" fill="#d7e1fc"/>
          <path d="m83.9537 82.7198-1.1995-.4077c7.701-19.185-2.615-38.1662-2.723-38.37l1.0556-.5996c.156.2159 10.748 19.7366 2.867 39.3773z" fill="#6d72a0"/>
          <path d="M80.595 82.9836c.2528 1.6428 1.7855 2.773 3.4304 2.5296 1.6448-.2433 2.7842-1.769 2.55-3.4145-.234-1.6456-1.7538-2.7931-3.4014-2.5684a3.047 3.047 0 0 0-2.0055 1.1923 3.0447 3.0447 0 0 0-.5735 2.261z" fill="#6d72a0"/>
          <path d="M53.3534 77.5398h-8.9846a.6116.6116 0 0 1 0-1.199h8.9486c.2429-.0488.4912.0536.629.2594s.1378.4744 0 .6802-.3861.3082-.629.2594z" fill="#d7e1fc"/>
          <path d="M55.9564 91.2691v-1.199c1.4395 0 1.5954-1.5109 1.5954-2.1704V70.957a2.1462 2.1462 0 0 0-1.0736-1.8588c-.6643-.3834-1.4828-.3834-2.1472 0s-1.0736 1.092-1.0736 1.8588v16.9188c0 2.0024.6478 2.1703 1.2596 2.1703v1.199c-1.6314 0-2.4591-1.139-2.4591-3.3933V70.957c0-1.8476 1.4984-3.3454 3.3467-3.3454s3.3467 1.4978 3.3467 3.3454v16.9188c.012 2.0384-1.0915 3.3933-2.7949 3.3933z" fill="#6d72a0"/>
          <path d="M54.361 67.9953a47.1086 47.1086 0 0 1 6.1177-22.998l1.0196.6475a45.6462 45.6462 0 0 0-5.9257 22.3145z" fill="#6d72a0"/>
          <path d="M55.3446 90.5976a.6833.6833 0 0 0 .6718.6955.6956.6956 0 0 0 0-1.379.6836.6836 0 0 0-.6718.6835zM53.7852 90.6576c0 .3794.3042.689.6838.6954a.6956.6956 0 0 0 0-1.3789.6956.6956 0 0 0-.6838.6835z" fill="#452a51"/>
          <path d="M67.376 112.0968a2.0632 2.0632 0 0 1-1.9231-1.2563c-.327-.7699-.1564-1.6609.4318-2.2557s1.4774-.7757 2.2513-.458 1.2792 1.0713 1.2793 1.9077a2.0502 2.0502 0 0 1-.5923 1.4533 2.0516 2.0516 0 0 1-1.447.609zm0-2.9017a.8397.8397 0 0 0-.7842.5098c-.1338.3132-.065.6761.1743.9187a.8399.8399 0 0 0 1.4376-.5891.8272.8272 0 0 0-.8276-.8394zM67.46 122.2889c-.8376.0146-1.6009-.4785-1.9316-1.248s-.1632-1.6622.424-2.2595 1.4773-.7805 2.2527-.4635a2.0625 2.0625 0 0 1 1.2822 1.9086c.0066 1.1278-.8991 2.0492-2.0273 2.0624zm0-2.8898a.8397.8397 0 0 0-.7853.5126.8391.8391 0 0 0 .1797.9202c.2417.2416.6057.3126.9205.1797s.5177-.4435.5128-.7851a.8272.8272 0 0 0-.8277-.8513z" fill="#f9d1b7"/>
          <path d="m17.631 63.8585 15.942 21.895-.9717 16.3312a1.463 1.463 0 0 1-1.0436 1.319 1.68 1.68 0 0 1-.4078 0 1.4036 1.4036 0 0 1-1.1996-.6116L8.5265 72.8155c-1.0978-1.5087-.8297-3.6111.6118-4.7962l5.6498-4.4845a1.9558 1.9558 0 0 1 2.843.3237zM95.2534 77.408l8.2289 21.763a6.4885 6.4885 0 0 0 4.2224 3.9329l37.3538 16.2593c.144.396.4856.6874.8996.7674h.168a1.1994 1.1994 0 0 0 1.0915-.8753 1.2825 1.2825 0 0 0 0-.5636l5.422-5.9953v-.2878c.291-1.9452-.7482-3.8464-2.543-4.6524l-31.0442-13.921a8.083 8.083 0 0 1-4.3064-4.6405l-12.3313-34.1613-.8997.3358-.8996.3237.4798 1.343-4.9541 20.0243zm50.2969 42.099.3718-.6354a6.4135 6.4135 0 0 1-.2879.6954z" fill="#fff"/>
          <path d="m139.1327 127.4928-20.6921-7.734c-1.7963-.6883-2.7051-2.6923-2.0392-4.4964l12.1753-33.214a3.4418 3.4418 0 0 1 1.7933-1.9624 3.444 3.444 0 0 1 2.657-.1l20.6442 7.7339c1.801.6836 2.7158 2.689 2.0512 4.4965l-12.1754 33.214a3.4418 3.4418 0 0 1-1.7793 1.9462 3.444 3.444 0 0 1-2.635.1162z" fill="#6d72a0"/>
          <path d="M132.979 82.0004c-.437-.1656-.9225-.1484-1.3468.0479s-.7516.555-.9083.9952l-11.1197 30.3483c-.34.9105.1215 1.9243 1.0316 2.2663l19.4446 7.2903a1.74 1.74 0 0 0 1.3426-.058 1.7389 1.7389 0 0 0 .9005-.9972l11.0598-30.1684c.3725-.9966-.1317-2.1067-1.1276-2.4821z" fill="#fff"/>
          <path d="m141.3039 95.0102-9.1765-3.4413c-.276-.096-.3839-.4916-.24-.8753.144-.3837.4679-.5996.7438-.5036l9.1765 3.4413a.6474.6474 0 0 1 .2519.8753c-.132.3837-.5278.6115-.7557.5036zM146.8098 97.1086l-3.1668-1.1991a.7792.7792 0 0 1 .5158-1.379l3.1548 1.1991c.2759.096.3838.4916.2519.8753s-.4798.5636-.7557.5037zM136.7336 96.1493l9.1765 3.4293c.276.108.6118-.1199.7557-.4916a.6593.6593 0 0 0-.2519-.8753l-9.1765-3.4413c-.2759-.108-.6117.1199-.7557.5036a.6713.6713 0 0 0 .252.8753zM130.532 96.7368l13.9507 5.228a.744.744 0 0 0 .8011-.0578.7433.7433 0 0 0-.2853-1.3212l-13.9627-5.2279a.756.756 0 0 0-1.0076.4077.7671.7671 0 0 0 .5038.9712zM131.2037 94.087l3.1668 1.199c.276.0959.6118-.12.7557-.5036a.6713.6713 0 0 0-.2519-.8753l-3.1668-1.1991c-.2759-.096-.6117.1199-.7437.5036a.6593.6593 0 0 0 .24.8753zM135.702 110.0105l-9.1765-3.4293a.6713.6713 0 0 1-.2519-.8754c.144-.3837.4798-.6115.7557-.5036l9.1765 3.4294a.6713.6713 0 0 1 .252.8873c-.144.3717-.4799.5995-.7558.4916zM141.208 112.0729l-3.1669-1.1991c-.2759-.096-.3838-.4916-.2399-.8753a.6478.6478 0 0 1 .7557-.4916l3.1548 1.199a.6713.6713 0 0 1 .252.8753c-.144.3718-.4319.5996-.7558.4917zM131.1078 111.1496l9.2245 3.4413c.2758.108.6117-.12.7557-.5036a.6713.6713 0 0 0-.252-.8753l-9.1764-3.4413c-.276-.096-.6118.1199-.7558.5036-.1439.3837-.072.7794.204.8753zM124.9301 111.7491l13.9507 5.228a.7798.7798 0 0 0 1.0196-.4077.7913.7913 0 0 0-.5158-.9713l-13.9507-5.228a.756.756 0 0 0-1.0076.4078.7793.7793 0 0 0 .5038.9712zM125.6019 109.0992l3.1668 1.199c.2759.108.6117-.1199.7557-.5036a.6713.6713 0 0 0-.252-.8753l-3.1667-1.199c-.276-.108-.6118.1199-.7437.4916a.6713.6713 0 0 0 .2399.8873zM138.581 102.4684l-9.1886-3.4413c-.2759-.096-.3838-.4917-.2399-.8754.144-.3837.4678-.5995.7437-.5036l9.2365 3.4413c.3.1817.4054.5662.24.8754-.18.3837-.5159.6115-.7918.5036zM144.0748 104.5308l-3.1548-1.1991a.6593.6593 0 0 1-.2519-.8753c.144-.3837.4798-.6115.7557-.5036l3.1548 1.199a.6593.6593 0 0 1 .252.8753c-.144.3837-.4799.5996-.7558.5037zM133.9747 103.6075l9.1765 3.4293c.2759.108.6117-.12.7557-.4916a.6713.6713 0 0 0-.252-.8873l-9.1764-3.4293c-.276-.108-.6118.1199-.7557.5036a.6713.6713 0 0 0 .2519.8753zM127.5331 104.099l9.2005 3.4414c.276.096.6118-.1199.7437-.5036.132-.3837 0-.7794-.2399-.8753l-9.1765-3.4413a.7792.7792 0 0 0-.5158 1.379zM128.4808 101.545l3.1548 1.1991c.2759.096.6117-.1199.7557-.5036.144-.3837 0-.7793-.252-.8753l-3.1547-1.199c-.276-.108-.6238.1199-.7557.5036a.6474.6474 0 0 0 .2519.8753z" fill="#d7e1fc"/>
          <path d="m146.438 88.7151-8.5048-3.2255c-.6496-.2514-.976-.9785-.7318-1.6307a1.2 1.2 0 0 1 1.5954-.7434l8.5168 3.2015c.6625.2417 1.0035.9745.7617 1.6367-.2418.6622-.9749 1.0031-1.6374.7614z" fill="#91b4de"/>
          <path d="M150.3125 109.6867a.8032.8032 0 0 1-.4079-1.0432l1.0076-2.398a.7796.7796 0 0 1 1.0436-.4078c.396.1801.5768.6425.4079 1.0432l-1.0076 2.3981a.7916.7916 0 0 1-1.0436.4077z" fill="#c1775b"/>
          <path d="M150.1565 110.1424c-.6282-.2791-.9165-1.0102-.6477-1.6427l1.0436-2.3982c.3178-.5805 1.0281-.82 1.6328-.5506s.9015.9574.6823 1.5818l-1.0316 2.3981a1.1995 1.1995 0 0 1-1.1276.7555 1.2 1.2 0 0 1-.5518-.144zm1.1996-3.6692-1.0436 2.3982a.2877.2877 0 0 0 .1559.3717.276.276 0 0 0 .3719-.144l1.0316-2.398c0-.132 0-.2998-.204-.3957h-.108a.2759.2759 0 0 0-.1919.1678zM149.6167 117.5766a.9715.9715 0 0 1-1.3435.3957l-4.1384-2.2903c-.481-.2729-.6566-.8793-.3958-1.3669a.9955.9955 0 0 1 1.3914-.4197l4.1504 2.2903c.4735.2939.623.9134.336 1.3909z" fill="#c1775b"/>
          <path d="m148.0453 118.404-4.1144-2.3023a1.427 1.427 0 0 1-.7077-.8873c-.1117-.3752-.0694-.7795.1173-1.1236s.5027-.5999.8783-.711a1.428 1.428 0 0 1 1.1275.12l4.1385 2.2902c.7145.404.9711 1.3072.5757 2.0264a1.4034 1.4034 0 0 1-.8756.7074 1.6081 1.6081 0 0 1-.4199 0 1.428 1.428 0 0 1-.7197-.1199zm-3.5986-4.1009a.4438.4438 0 0 0-.3119.2518.5034.5034 0 0 0 0 .3957.5876.5876 0 0 0 .252.3118l4.1383 2.2902a.504.504 0 0 0 .3959 0 .5877.5877 0 0 0 .3119-.2518.5395.5395 0 0 0-.204-.7075l-4.1504-2.3022a.552.552 0 0 0-.2399-.06z" fill="#c1775b"/>
          <path d="M150.9242 115.778a.9955.9955 0 0 1-1.3555.4077l-5.6378-3.1296a1.019 1.019 0 0 1-.3839-1.367.9715.9715 0 0 1 1.3435-.3956l5.6499 3.1295c.475.2724.6455.874.3838 1.355z" fill="#c1775b"/>
          <path d="m149.3408 116.6053-5.6498-3.1295a1.475 1.475 0 0 1-.6958-.8873 1.4504 1.4504 0 0 1 .12-1.1991 1.4033 1.4033 0 0 1 .8757-.7074 1.452 1.452 0 0 1 1.1155.1199l5.6499 3.1295a1.487 1.487 0 0 1 .7077.8873c.1281.399.0847.8333-.12 1.199a1.4755 1.4755 0 0 1-1.2954.7675 1.512 1.512 0 0 1-.7078-.1799zm1.1996-1.0552a.5034.5034 0 0 0 0-.3956.5516.5516 0 0 0-.252-.3118l-5.6498-3.1296a.504.504 0 0 0-.3958 0 .5877.5877 0 0 0-.312.2518.5634.5634 0 0 0 0 .3957c.0332.1328.1201.2458.24.3118l5.6618 3.1296a.504.504 0 0 0 .6958-.2039zM152.8555 112.001c-.2684.4792-.8713.6552-1.3555.3956l-5.6498-3.1295c-.481-.273-.6567-.8794-.3959-1.367a.9835.9835 0 0 1 1.3555-.3957l5.6498 3.1296c.481.2729.6567.8794.3959 1.367z" fill="#c1775b"/>
          <path d="m151.272 112.8163-5.6498-3.1296a1.451 1.451 0 0 1-.7077-.8873 1.5582 1.5582 0 0 1 .12-1.199c.1917-.343.5104-.597.8876-.7075a1.452 1.452 0 0 1 1.1156.12l5.6498 3.1415c.712.3995.9732 1.295.5878 2.0144a1.4513 1.4513 0 0 1-.8876.7074 1.2 1.2 0 0 1-.4079 0 1.44 1.44 0 0 1-.7077-.06zm-5.3979-4.6884a.5034.5034 0 0 0 0 .3957.4557.4557 0 0 0 .24.3118l5.6498 3.1415a.564.564 0 0 0 .3958 0 .5276.5276 0 0 0 .108-.9592L146.582 107.9a.492.492 0 0 0-.252 0 .5279.5279 0 0 0-.4558.2278z" fill="#c1775b"/>
          <path d="M151.8599 113.8954c-.2684.4793-.8713.6553-1.3555.3957l-6.1777-3.4293a1.0073 1.0073 0 0 1-.3958-1.4029.9835.9835 0 0 1 1.3435-.4077l6.1896 3.4293a1.0313 1.0313 0 0 1 .3959 1.415z" fill="#c1775b"/>
          <path d="m150.2765 114.6628-6.1777-3.4173c-.7189-.3999-.9812-1.3041-.5878-2.0264a1.4753 1.4753 0 0 1 2.0033-.5875l6.1776 3.4293c.713.3993.9701 1.2988.5758 2.0144a1.4636 1.4636 0 0 1-1.2835.7794 1.3682 1.3682 0 0 1-.7077-.1919zm.9596-1.7626-6.1896-3.4173a.48.48 0 0 0-.3839 0 .5276.5276 0 0 0-.108.9592l6.1777 3.4294a.528.528 0 0 0 .7077-.2039.5514.5514 0 0 0-.2039-.7674z" fill="#c1775b"/>
          <path d="M56.1363 12.5986c.264-.3118.6238-.5156.8637-.8514.5158-.7434.264-1.7266.3359-2.614.072-.8872 1.0316-1.9544 1.6314-1.3789-.312-1.295-.5758-2.8657.3118-3.9329 1.6674-2.0264 5.0741.144 6.9214-1.6907.5518-.5395.8517-1.3669 1.4635-1.8225.8859-.5357 2.0286-.3588 2.711.4196a6.7385 6.7385 0 0 1 1.1035 1.6547l.228.12a2.568 2.568 0 0 0 1.7632-.072c1.4395-.3357 2.771.8034 3.5987 2.3382.3358.6475 1.4154-.2758 1.7993.3237.8637 1.427 2.687 2.0864 3.0588 3.7291a26.369 26.369 0 0 0 .204 2.7818c.3238.8993 1.2834 1.451 1.4034 2.3982.204 1.5588-1.1995 2.9976-1.1995 4.5204 0 .7195-.6718 1.391-.6838 1.6667a3.5963 3.5963 0 0 1-.5758 1.6547 40.2385 40.2385 0 0 1-1.1995 5.7196 10.5622 10.5622 0 0 1-1.9193 3.717l-1.1995 1.271a14.0834 14.0834 0 0 0 0-2.7937 8.4865 8.4865 0 0 0 .6957-3.0457c1.557-.2402 2.6285-1.6913 2.3991-3.2494.0458-1.5067-1.0792-2.7934-2.579-2.9497l-1.7154.5156c-5.9977-.7314-4.5462-7.1944-10.0281-7.9258a10.7998 10.7998 0 0 0-6.7415.8153 10.1766 10.1766 0 0 0-.9956 4.6764s-.7677-.6595-.7197-1.199H57c-1.0916-.8035-1.9312-3.5253-.8637-4.7963z" fill="#040707"/>
          <path d="M65.4688 13.1022c5.4819.7434 3.9945 7.1944 10.0282 7.9258l1.8593-.5156c1.4998.1563 2.6248 1.443 2.579 2.9497.2225 1.5564-.8457 3.0032-2.3991 3.2494a9.6973 9.6973 0 0 1-.7437 3.0457c-1.6725 3.6966-5.2569 6.1622-9.3085 6.403-5.314.2997-9.0205-3.5972-9.3204-9.1729l-.4559-8.1056v-.2878a10.1766 10.1766 0 0 1 .9957-4.6764 10.7998 10.7998 0 0 1 6.7654-.8153z" fill="#c1775b"/>
          <path d="m67.8319 46.2563-.7437-21.919c-.0478-.9715.6959-1.8005 1.6673-1.8585l6.8854-.24c.9693-.0131 1.7676.758 1.7873 1.7269l.7437 21.9069c-7.749 5.9114-10.304 1.367-10.34.3837z" fill="#c1775b"/>
          <path d="m66.2485 17.6226 2.1952-.1199a.5997.5997 0 1 1 0 1.1991l-2.1952.108a.588.588 0 0 1-.6118-.5636.5754.5754 0 0 1 .6118-.6236zM57.5638 17.9704l2.1952-.12a.588.588 0 0 1 .6117.5636.5754.5754 0 0 1-.5518.6115l-2.1951.12a.5997.5997 0 0 1-.6118-.5636.5876.5876 0 0 1 .5518-.6115z" fill="#040707"/>
          <path d="M59.1952 21.004c0 .5755.3598 1.0312.7317 1.0072.3719-.024.6478-.5036.6118-1.0791s-.3479-1.0312-.7198-1.0073c-.3718.024-.6477.5036-.6237 1.0792zM67.424 20.7402c0 .5756.36 1.0192.7318 1.0072s.6477-.5036.6117-1.0791c-.036-.5756-.3478-1.0312-.7197-1.0073-.3719.024-.6477.4917-.6238 1.0792z" fill="#02020c"/>
          <path d="m62.086 24.2055.072-.2038c.0888.4577.435.8225.8877.9352l1.1996.2638a.8638.8638 0 0 0 .9356-.4077v.108c.0834.3082-.0007.6375-.2215.8681s-.5464.3289-.858.259l-1.1996-.2638a1.1986 1.1986 0 0 1-.8157-1.5588z" fill="#8a3827"/>
          <path d="m67.544 27.9586-3.3227 1.0671a2.304 2.304 0 0 0 1.906.2278 2.3028 2.3028 0 0 0 1.4167-1.295z" fill="#fff"/>
          <path d="M78.172 42.0835s-3.5987 5.9954-7.2573 6.7268l1.9193 6.1272s7.809-3.2135 7.2812-11.7868z" fill="#ddf0ef"/>
          <path d="M67.76 42.9229s-.4799 4.4245 3.1547 5.8874l-2.8909 5.3958a13.8695 13.8695 0 0 1-3.2627-10.1441z" fill="#ddf0ef"/>
          <path d="M69.7272 55.1413a1.1992 1.1992 0 0 1-.4079-.4676l-.9596-1.7386c-.6957-1.1991 0-3.1656 1.1396-3.0696l2.267.1918c1.1157.096 1.5115 2.1223.6358 3.2135l-1.2715 1.5828a1.9432 1.9432 0 0 1-.3718.2877l1.2715 37.9384-5.11 5.4797-3.5027-5.9953z" fill="#000543"/>
          <path d="M34.0648 71.029a33.362 33.362 0 0 0-1.7754 4.4964 31.2365 31.2365 0 0 0-.7797 3.933c-.072.4316-.2399.9712-.6717 1.0072a1.0076 1.0076 0 0 1-.7557-.5037L18.9385 65.6931c-.7077-.9113-2.0512-1.8825-2.8429-1.0432-.7917.8394-.132 1.7626.3839 2.518a260.632 260.632 0 0 0 13.195 17.7702c.6237.7674 1.4154 1.5947 2.399 1.4628a2.555 2.555 0 0 0 1.5594-1.1271 19.7567 19.7567 0 0 0 2.687-5.9953c1.4235-4.4366 2.831-8.885 4.2224-13.3456.9956-3.1176 2.627-7.2543 1.7873-10.5278-2.1232.3358-3.0948 4.2927-3.8865 5.9953a2504.5001 2504.5001 0 0 1-4.3783 9.6285zM14.5362 82.2761c.6597.8274 1.4155 1.5708 2.0512 2.3982 1.3315 1.7386 2.1112 3.825 3.2748 5.6955.5997.9593 1.2955 1.8586 1.9912 2.7579l3.4187 4.4245c2.2671 2.9137 4.5103 6.2471 7.737 8.0217a131.2283 131.2283 0 0 0-21.028-34.3052c-.4198-.4916-.9596-1.0192-1.5953-.9592a2.4824 2.4824 0 0 0-1.8833 2.1943c.156.8633 1.6074 2.3022 2.0752 3.1055a47.143 47.143 0 0 0 3.9585 6.6668z" fill="#fff"/>
          <path d="M118.2607 109.6508h-.132c-14.6584-3.3095-17.4653-10.5758-17.5853-10.8755l-5.4459-10.3a.6234.6234 0 0 1 .2399-.8274.6.6 0 0 1 .8157.2518l5.4939 10.408c0 .1438 2.795 7.0384 16.7936 10.192a.6115.6115 0 0 1-.132 1.199z" fill="#d7e1fc"/>
          <path d="M100.8313 178.4891a.5772.5772 0 0 1-.3119-.084.6114.6114 0 0 1-.2039-.8394c2.399-4.0888 3.1188-9.5206 2.0032-16.583-.2998-1.9185-.6957-3.861-1.0795-5.7316a63.5267 63.5267 0 0 1-1.6914-11.6069 67.121 67.121 0 0 1 .4318-7.3143 44.132 44.132 0 0 0 .204-10.0601 43.4868 43.4868 0 0 0-.9237-4.4725c-.3359-1.391-.6837-2.8298-.8996-4.2807a62.9258 62.9258 0 0 1 0-14.173c.1799-2.398.3838-4.8801.4198-7.2662a.5874.5874 0 0 1 .1761-.432.5903.5903 0 0 1 .4357-.168c.335.0133.6.2887.5997.624 0 2.398-.2399 4.9161-.4318 7.3382a61.919 61.919 0 0 0-.012 13.8972c.204 1.3909.5518 2.8058.8877 4.1727.3358 1.367.7317 3.0336.9476 4.5924a45.8819 45.8819 0 0 1-.204 10.348 62.171 62.171 0 0 0-.4198 7.1943 61.6448 61.6448 0 0 0 1.6194 11.3791c.3839 1.8945.7917 3.849 1.0916 5.7915 1.1995 7.3622.4558 13.0578-2.1592 17.4104a.6243.6243 0 0 1-.4798.264zM123.9345 95.142a.648.648 0 0 1-.2519 0l-8.037-3.753c-1.5114-.8393-2.327-3.6571-2.9868-5.9234-.192-.6834-.3719-1.295-.5398-1.7386l-9.3324-24.8086c-5.41-15.2161-18.9048-15.1922-19.4686-15.1562a.6116.6116 0 0 1-.5638-.6115.5994.5994 0 0 1 .5878-.6235c.144 0 14.9223-.084 20.6201 15.9595l9.3325 24.7367c.1799.4676.3718 1.1151.5757 1.8346.5278 1.8345 1.3315 4.5924 2.3991 5.168l7.989 3.741a.6234.6234 0 0 1 .2999.8034.6118.6118 0 0 1-.6238.3717z" fill="#d7e1fc"/>
        </g>
        <path d="m427.647 83.747-13.8821.3583c.0872 3.2693.2426 5.2473.466 5.934.3352 1.0302 2.9613 6.833 5.4447 7.5338 1.6555.467 4.7898-.3915 9.4026-2.5759z" fill="#a7d8d5"/>
      </g>
    </g>
  </g>
</svg>
