<svg height="20" viewBox="0 0 216 146" width="20" xmlns="http://www.w3.org/2000/svg"><path d="m168.86 37.966-11.08-11.08c-1.52-1.52-3.367-2.28-5.54-2.28-2.172 0-4.02.76-5.54 2.28l-53.446 53.528-23.954-24.034c-1.52-1.522-3.367-2.282-5.54-2.282-2.172 0-4.02.76-5.54 2.28l-11.08 11.082c-1.52 1.522-2.28 3.37-2.28 5.542s.76 4.02 2.28 5.54l29.493 29.493 11.08 11.08c1.52 1.52 3.368 2.28 5.54 2.28 2.173 0 4.02-.76 5.54-2.28l11.082-11.08 58.985-58.985c1.52-1.52 2.283-3.37 2.283-5.54 0-2.174-.76-4.02-2.28-5.54z" fill="#fff"/></svg>