<svg width="390" height="303" viewBox="0 0 390 303" xmlns="http://www.w3.org/2000/svg" xmlns:xlink="http://www.w3.org/1999/xlink"><defs><path id="a" d="M0 .966h389.411v293.348H0z"/></defs><g fill="none" fill-rule="evenodd"><mask id="b" fill="#fff"><use xlink:href="#a"/></mask><path d="M328.253 258.167l-.4.316-.064.327.211.518-.078.317-.776.472-.894.321.546 1.005.637.203.285.945.312.348-.491.607-.018.476.073.386-.302.464-.116.697.565.235-.069.206-.45.151-.128.207.004.541.308.308.175.005-.138-.322.188-.193.307.175.826.129.648-.464.252.115.61-.051.698.638.504.064.074-.105.152-.275.554-.028.538.036.725-.353.583-.266.353-.042.794.405.679-.262.665.345 1.171-.423.601-.046 1.171.84.353-.487.606-.165.509.578.748.248.091-.321.4-.253.482.262.23.289 1.216-.619.463.234.363-.385.224-.065.423.207.945-.115.496-.189.418-.279.339-.11.082-.308-.119-.344.602-.179.279-1.024.661-.816.322-.124.343-.101.396-.179.486.11.294-.17.33-.262-.294-.371-.234-.445-.009-.391-.022-.43-.148-.226.257-.316.019-.344-.4.114-.27.294-.546-.083-.335-.344-.289.157-.116-.06-.348-.262v-.211l-.284-.129-.372.198-.322-.354-.615-.087-.39-.248-.331.138-.995-.248-.147.239-.344.023-.216-.165-1.303-.294-.202.133-.482.22-.216-.298-.518.064-.744-.234-.22.147-1.721-.363-.583.125-.293.284-1.006-.252-.518-.088-.335.101-.679-.165-.753.064-.354.115-.119.179-.481-.036-.712-.299-.606.092-.574-.082-.678.136-1.005-.119-.588-.311-1.092-.074-.734.101zm-218-2.126l-2.753-1.94-1.889-4.189-2.27-3.298-1.531-1.773-2.258-1.734-.234-1.545-.537-.741-.89-.337-1.189.704-.756 1.534-1.003 1.188h-.381l-2.949-2.433-1.249-2.237-.938-.839-2.94-.303-.957-.31v-41.282l-1.782-.889-3.097-1.519-3.828.745-5.583-.368-.74-.917-4.193-.966-4.528.402-2.445-1.645-3.654-.445-3.868-2.108-2.433.367-1.89 1.741h-2.737l-2.709.905-2.178 1.529-2.419.594-1.407 1.255-2.515 3.77-5.217 1.124-.784 1.528.304 1.168 2.221.939 2.939 2.05.723 1.66.923.396 3.398.319.709 2.467-1.059.307-.536-.411-2.332-.443-3.845.297-6.5 3.197-.776.651.512.605 2.081.978 1.326 2.916 1.493.797 2.548-.313 1.43-.361.877.357 1.904.205 2.674-1.408 1.379-.216.325.98-.77 1.001.487 1.184.22 2.157-.778.606-2.648.406-1.088 1.25-1.424.331-1.417-.859-.965.234-1.827 3.597-1.244 1.606-.288 1.832.549 1.809 1.05 1.262.476 2.728.729.479 1.202 1.906 2.053.252.678-.631 1.283-.463 1.042.919.528 1.225-.38 1.487.493 2.151 1.014.302.928-.621 1.702-.423 1.486.71.987 1.736.604-.338v-.605l-.359-1.073h.794l.799.736 1.925-.548.515.38-.844 1.15-.447 3.171-1.851 2.492-3.782 3.502-7.633 5.693-8.45 5.245-6.706 3.622-5.669 1.777-4.677 2.137-4.783.837L0 276.682l7.98-.469 1.806-1.092 2.991-.521 14.938-6.865 19.27-11.153 1.861-2.934 1.015-.498.901-1.919 3.655-3.29 2.707-3.1v-.625l-1.387-.264-.331-.385.3-.96 1.841-2.267 1.465-1.051 1.211-2.276 1.611-2.034 1.826-1.206.75.301.806.65-.472.587-1.607.333-2.123 4.77.49.827-.359.542-.223.883.816.344 1.558-.404 3.286-2.576 3.175-.391 1.348-.665 1.158-1.051 2.975-.236 3.088 1.186 4.809.474 3.644 1.182 5.079 3.574 1.724 1.685 1.618 1.024h3.345l1.048.606 2.193 2.182.237.845-.297.619-.537.221-1.497-.174-.907-.507-.894.26-.29 1.104.199 2.002 1.274 1.936.65 1.294.665.622.638-.137 1.63-2.237.654-.282.595.179.35 1.813.975 2.366.867.847 1.124.752.466.949.84.915 1.188-.277.529-.539.213-3.505.312-1.753-.517-.872zm-18.545 22.335l1.558-.625c.422-.169.712-.562.75-1.016l.065-.789c.034-.416-.15-.82-.487-1.067l-1.735-1.273a1.22 1.22 0 00-.324-.169l-1.661-.564-1.756-1.086a1.217 1.217 0 00-.183-.094 1.204 1.204 0 00-.957-.922l-2.515-.459a1.213 1.213 0 00-.654.064l-1.402-.421a1.2 1.2 0 00-1.278.393l-.605.744a1.2 1.2 0 00.479 1.868l1.333.545a.851.851 0 00-.011.09l-.041.498c-.015.181.012.364.077.534l.655 1.686c.223.571.838.883 1.428.726l1.325-.351c.287-.076.531-.253.691-.494l.817 1.265c.076.12.175.226.291.311l.945.706a1.222 1.222 0 00.867.229l2.029-.252c.103-.013.204-.039.299-.077zm11.061 8.867l-1.286-.996-.524-1.55a1.293 1.293 0 00-.087-.198l-.583-1.052a1.188 1.188 0 00-.338-.385l-1.34-.989a1.015 1.015 0 00-.112-.072l-4.395-2.54a1.2 1.2 0 00-1.276.049l-.71.485c-.316.217-.511.57-.523.954l-.026.834c-.009.274.075.541.24.76l.079.106-.455.566-.659.223c-.484.166-.811.62-.815 1.13l-.006 1.087c-.001.319.124.626.348.852l.555.561.341 1.754-.23.676a1.23 1.23 0 00-.064.366l-.031 1.881c-.005.358.149.699.421.932l1.407 1.204c.158.134.348.225.551.265l.741.145a1.203 1.203 0 001.108-.357l1.076-1.15.945-1.065.601-.286.081.039c.261.13.561.16.846.087l1.797-.479c.133-.037.259-.095.373-.173l1.73-1.195c.218-.151.38-.37.46-.622l.17-.53a1.203 1.203 0 00-.41-1.317zM79.504 268.74l-.876-.65-.561-1.355-.749-1.567a1.204 1.204 0 00-1.531-.598l-2.509 1.006a1.2 1.2 0 00-.643.61l-.355.765c-.163.35-.147.756.041 1.092l1.349 2.413c.221.396.648.635 1.098.613l1.009-.042a2.18 2.18 0 00.078-.005l.066.068c.202.207.472.333.759.356l.065.004 1.545.044c.38.011.741-.158.976-.456l.468-.588a1.198 1.198 0 00-.23-1.71zm-13.362-8.365a1.201 1.201 0 00-.956-1.066l-1.729-.352a1.187 1.187 0 00-.641.046l-1.724.61c-.339.12-.605.386-.728.725l-.542 1.504c-.038.103-.06.209-.068.314a1.106 1.106 0 00-.037-.18l-.097-.344a1.201 1.201 0 00-1.212-.871l-.966.046c-.39.018-.747.224-.956.553l-.913 1.432a1.203 1.203 0 00.915 1.843l.997.082c.397.032.784-.134 1.034-.445l.979-1.216c.154-.191.244-.421.262-.66.047.378.274.726.632.916l2.447 1.289c.193.103.413.15.631.136l.883-.051c.425-.026.805-.274.999-.654l.799-1.565c.104-.203.147-.431.126-.657l-.135-1.435zM371.84 72.213c0 3.55 1.382 8.878 1.382 8.878s4.343 4.535 2.96 6.707c-1.382 2.171-5.328 4.142-5.328 4.142l-7.103 3.55s-6.71 2.96-6.907 4.736c-.196 1.774-.196 9.667-.196 9.667l-2.761 4.338v11.074s-2.46 11.072-3.383 8.612c-.921-2.46-2.153-8.305-2.153-8.305l-3.692-.307v7.688l5.845 6.153s6.767 4.919 5.843 8.303c-.923 3.385-13.84 14.457-13.84 14.457s-8.92 8.921-8.92 11.073c0 2.152-8.305 10.149-8.305 10.149s-7.997 9.841-1.845 20.913c6.153 11.072 9.229 16.301 9.229 16.301l4.404 7.084s1.433 1.845 1.024 7.373c-.408 5.528-1.431 7.781-1.431 7.781s-2.865 4.3-5.938 1.432c-3.072-2.868-7.984-9.829-7.984-9.829l-8.602-10.853s-.411-4.505.204-7.165c.617-2.661-7.165-10.033-7.165-10.033s-5.12-3.277-10.852 2.048c-5.733 5.324-6.757-1.636-6.757-1.636s-2.252-3.893-9.009-2.869c-6.757 1.024-11.057 2.253-11.057 2.253s-12.078-1.229-12.694.204c-.616 1.431 1.436 2.252 1.436 2.252s4.501 1.024 2.661 3.684c-1.841 2.661-5.938 7.578-9.214 6.757-3.276-.82-11.261-4.505-11.261-4.505l-10.033-.819s-6.757-1.229-17.61 9.213c-10.85 10.441-12.694 8.597-12.694 11.465 0 2.864 1.433 7.985 1.433 9.008 0 1.025-.204 4.097-1.637 4.097-1.435 0-2.868-1.431-2.868-1.431l-5.528-1.025s-7.781-2.864-7.781-6.961c0-4.096-1.433-6.348-1.433-6.348s-5.732-6.141-5.732-6.757c0-.616-3.073-8.805-3.073-8.805s-8.6-8.189-13.309-3.685c-3.384 3.235-3.703 3.303-3.616 3.084-.569.859-3.002 3.758-7.441-1.036-5.117-5.528-4.093-3.888-4.709-7.78-.616-3.889-7.577-11.67-7.577-11.67s-4.708-3.889-9.213-4.504c-4.508-.612-8.193 1.024-8.396 3.072-.205 2.044-9.01.408-9.01.408s-15.969-3.892-22.522-8.601c-6.553-4.708-13.718-7.577-13.718-7.577l-4.912-4.096-12.286-2.253-1.432-3.887s-11.746-14.134-14.826-16.12c-1.791-.698-4.178-1.391-5.071-11.431-3.877-5.367-4.274-6.957-4.274-6.957v-6.265l-2.991-14.152s-3.323-6.969-2.849-9.659c.474-2.692-.046-7.443-.046-7.443s-.747-4.751 1.155-6.495c1.902-1.744 3.011-11.561 3.011-11.561s-.952-5.54.157-6.333c1.109-.793 4.435-6.496 4.435-6.496s6.496-16.79 6.496-18.214c0-1.424 1.574-21.841 1.574-21.841s1.744-2.376 3.169-.316c1.424 2.06 6.333 3.327 6.333 3.327s-4.119 12.035 0 10.61c4.119-1.428 3.011-9.028 3.011-9.028s-2.218-3.642-1.902-4.593c.315-.951.854-2.938.854-2.938S97.26 40.25 215.475 43.923c.732-2.938 1.371-2.442 1.371-2.442s2.056.779 2.056 1.487c0 .709.496 3.33.496 3.33l4.324 1.062h7.619l6.996 4.786 5.652-1.613 6.726 1.613s5.12-5.382 7.538-4.304c2.421 1.074 22.06 12.643 22.06 12.643v1.344h2.961v4.844h4.57v2.421s6.726-.27 7.265 1.613c.535 1.883 3.496 18.026 3.496 20.447 0 2.418-3.765 8.071-3.765 8.071s.804 4.573 3.765 4.034c2.957-.539 8.339-6.726 8.339-6.726s12.644-4.305 12.644-6.995c0-2.691-1.614-6.727-1.614-6.727s.539-2.96 6.457-2.96c5.921 0 7.535-.269 7.535-.269l4.842-9.957s2.961-5.382 12.378-7.265 13.079-2.371 14.299-4.377c1.225-2.009 2.707-7.943 3.231-12.833.523-4.888 7.418-8.904 7.418-8.904s5.853-4.016 6.811 4.627c.959 8.644 8.467 12.397 8.467 12.397l-7.496 7.497s-10.061 7.888-10.076 11.446z" fill="#00D1F0" mask="url(#b)"/><path fill="#0057B7" mask="url(#b)" d="M202.278 1.156v66.343h53.834V51.861h-35.636v-10.52h31.845v-14.5h-31.845V16.698h35.162V1.156h-53.36m-66.532-.19L122.95 39.541 111.388 1.155H91.959l22.177 66.819h16.018l13.363-38.196 13.269 38.196h16.017l22.178-66.819h-19.05l-11.563 38.386L151.574.966h-15.828"/><path fill="#0057B7" d="M158.966 301.863h18.386v-25.211h23.6v25.211h18.387V235.52h-18.387v24.831h-23.6V235.52h-18.386v66.343m72.597 0h18.387V235.52h-18.387zM288.144 303c16.113 0 26.822-8.056 26.822-21.608v-.19c0-12.416-9.478-17.345-24.642-20.662-9.287-2.085-11.563-3.412-11.563-6.444v-.19c0-2.464 2.181-4.265 6.635-4.265 5.876 0 12.511 2.179 18.576 6.54l9.194-12.986c-7.203-5.78-16.018-8.813-27.296-8.813-15.922 0-25.684 8.909-25.684 21.229v.191c0 13.552 10.899 17.533 25.02 20.756 9.099 2.18 11.279 3.601 11.279 6.445v.189c0 2.843-2.654 4.55-7.677 4.55-7.677 0-14.88-2.749-21.515-7.962l-10.236 12.227c8.246 7.297 19.335 10.993 31.087 10.993m-85.486-95.086c-10.142 0-17.06-8.341-17.06-17.913v-.189c0-9.572 6.73-17.723 16.869-17.723 10.142 0 16.967 8.244 16.967 17.912v.19c0 9.572-6.73 17.723-16.776 17.723zm-.191 16.586c20.473 0 35.827-15.448 35.827-34.499v-.189c0-19.05-15.164-34.31-35.636-34.31s-35.826 15.449-35.826 34.499v.19c0 19.05 15.165 34.309 35.635 34.309zm-80.18-51.464c11.09 0 18.387 6.255 18.387 16.87v.19c0 10.711-7.297 16.776-18.387 16.776h-7.488v-33.836h7.488zm-25.873 50.137h25.305c23.789 0 37.721-14.216 37.721-33.361v-.19c0-19.144-13.743-32.793-37.342-32.793H96.414v66.344zm144.059-76.415h18.198v-36.394l28.432 36.394h16.018V80.414h-18.197v35.068l-27.295-35.068h-17.156v66.344zm-51.179-26.253l7.488-18.766 7.392 18.766h-14.88zm-29.38 26.253h19.239l4.739-11.942h25.684l4.739 11.942h19.714L205.785 79.94h-17.723l-28.148 66.818zm-31.466 1.327c14.597 0 23.031-6.35 29.286-14.975l-13.837-9.856c-3.981 4.834-8.056 8.056-14.975 8.056-9.288 0-15.828-7.772-15.828-17.723v-.191c0-9.667 6.54-17.628 15.828-17.628 6.35 0 10.71 3.127 14.501 7.772l13.837-10.71c-5.876-8.056-14.596-13.742-28.148-13.742-20.093 0-34.879 15.164-34.879 34.499v.188c0 19.809 15.26 34.31 34.215 34.31zM92.812 235.52v16.111h19.808v50.232h18.387v-50.232h19.903V235.52H92.812"/></g></svg>
