<svg viewBox="0 0 610 397" xmlns="http://www.w3.org/2000/svg"><path d="m205.65 28.24 390.76-1.13a13.31 13.31 0 0 1 13.33 14.44l-27.35 305.57a13.34 13.34 0 0 1 -13.33 12.09l-481.34-.07c-7.85 0-14.1-7.37-13.4-15.13l27.35-303.68c.62-6.85 6.18-12.84 13.11-12.84z" fill="#555" fill-rule="evenodd"/><path d="m187 27.68h390.71a13.37 13.37 0 0 1 13.29 14.54l-27.18 305.23a13.37 13.37 0 0 1 -13.33 12.16h-481.35a13.36 13.36 0 0 1 -13.33-14.53l27.19-305.23a13.37 13.37 0 0 1 13.37-12.17z" fill="#e4e2e0" fill-rule="evenodd"/><path d="m589.05 78.06 2-35.7a13.35 13.35 0 0 0 -13.33-14.52h-481.35a13.36 13.36 0 0 0 -13.37 12.16l-2.9 41.79z" fill="#555" fill-rule="evenodd"/><path d="m346.62 360.76-277.48-.7a14.38 14.38 0 0 1 -14.33-15.63l27.19-305.23a14.3 14.3 0 0 1 14.37-13.08h90.63a1 1 0 0 1 1 1 1 1 0 0 1 -.95 1.05h-90.68a12.3 12.3 0 0 0 -12.37 11.21l-27.19 305.23a12.36 12.36 0 0 0 12.33 13.44l483.29 1a1 1 0 1 1 0 2" fill-rule="evenodd"/><path d="m578.79 180h-.09a1 1 0 0 1 -.91-1.09l12.21-137.34a12.36 12.36 0 0 0 -12.33-13.44h-390.67a1 1 0 0 1 -1.05-1 1 1 0 0 1 1-1.05h390.76a14.37 14.37 0 0 1 14.29 15.67l-12.21 137.36a1 1 0 0 1 -1 .92" fill-rule="evenodd"/><path d="m157.13 50.64h-60.13l.27-8.72h60.13zm115.53 15.36h-177.66l.8-8.72h177.65zm-95.84 174h-93.5l13.68-131.16h93.5zm361.52 118.91h-355.52l29.18-250.63h347z" fill="#fff" fill-rule="evenodd"/><path d="m206.71 279.1 8-31.34h-10.65l-3.8 31.34z" fill="#d0beda" fill-rule="evenodd"/><path d="m554.85 177.68 5.92-69.14h-351.38l-8.2 68.84z" fill="#f3eff6" fill-rule="evenodd"/><path d="m536 249.07-1.87 29.45-326.33-.75 5.76-28.7z" fill="#fff" fill-rule="evenodd"/><path d="m535.35 279.87-329.23-.76 6.3-31.38h325zm-326-3.44 323.44.75 1.7-26.77h-319.87z" fill="#d0beda"/><g fill-rule="evenodd"><path d="m343.08 277.34 2.42-26.93h-138.59l-3.32 26.77z" fill="#9266aa"/><path d="m280.54 277.35 2.57-26.94h-76.92l-3.07 26.77z" fill="#3b005b"/><path d="m559 183.09 5.76-57.38q-38.16-3.31-57.47 10t-24.11 47.4z" fill="#e0d4e7"/><path d="m271 219.28h-60.13l.46-4.71h60.11zm-9.42 105.72h-60.1l.46-4.71h60.11zm282.49-98.4h-333.41v-1.34h333.41zm-9.39 105.73h-333.41v-1.33h333.41z" fill="#555"/><path d="m17.41 351.75c-28.25-25.98-13.63-42.75-13.63-42.75s12.63-20.4 56.92 6.27 87.17 16.73 96.87 12.73 43.57-29.12 62.66-30.53c10.62-.79 23.34 7.18 12.19 28.72-23.07 44.54-85.72 49.62-85.72 49.62s-30.37 5.69-61.56.18c0 0-39.47 1.71-67.73-24.27" fill="#2d6878"/><path d="m90.74 357.07 10 5.58-5 10.36-8.29-5.29z" fill="#aa7a4a"/><path d="m88.65 367.28 6.68 4.27 4.1-8.48-8.1-4.52zm7.1 6.73a.93.93 0 0 1 -.54-.16l-8.29-5.29a1 1 0 0 1 -.42-1.14l3.28-10.65a1 1 0 0 1 1.25-.66l.2.08 10 5.59a1 1 0 0 1 .41 1.31l-5 10.35a1 1 0 0 1 -.9.57z"/><path d="m96.82 361.33a2.85 2.85 0 0 1 4.54.05l4.86 6.57-6.57 8.43-8.68-4c.59-3.74 3.63-8.22 5.85-11.07"/><path d="m95.81 368.33 2.65-2.68a2.94 2.94 0 0 1 3.61-.44l1.89 1.14.4-.88a2 2 0 0 1 2.51-1.08c6 2 26.15 8.92 32.88 13.89 7.95 5.88 2.3 19-11.57 17.62-11-1.06-26-13.28-31.77-18.31a2 2 0 0 1 .53-3.42l-1.46-2.1a2.91 2.91 0 0 1 .32-3.73" fill="#fff"/><path d="m95.81 368.33.71.7a1.92 1.92 0 0 0 -.21 2.45l1.47 2.11a1 1 0 0 1 -.25 1.4l-.16.09a1 1 0 0 0 -.64.81 1 1 0 0 0 .34.94c5.83 5.09 20.55 17 31.21 18.07 7.78.75 12.16-3.18 13.54-6.77a7.52 7.52 0 0 0 -2.67-9c-6.6-4.88-26.62-11.76-32.6-13.75a1.05 1.05 0 0 0 -1.28.55l-.4.88a1 1 0 0 1 -1.34.49l-.1-.05-1.88-1.14a1.91 1.91 0 0 0 -2.37.29l-2.66 2.6-.71-.71zm34.37 28.67c-.67 0-1.37 0-2.09-.1-11.25-1.08-26.37-13.34-32.35-18.56a3.06 3.06 0 0 1 -.18-4.42l-.9-1.29a3.94 3.94 0 0 1 .43-5l2.65-2.63a3.94 3.94 0 0 1 4.85-.6l.93.56a3.06 3.06 0 0 1 3.67-1.48c6 2 26.32 9 33.16 14a9.58 9.58 0 0 1 3.35 11.38c-1.5 3.9-5.91 8.15-13.52 8.15z"/><path d="m113.06 383.62a1 1 0 0 1 -1-1 1.12 1.12 0 0 1 .1-.43l4.49-9.42a1 1 0 0 1 1.82.86l-4.47 9.42a1 1 0 0 1 -.91.57m20.82-26.38a1 1 0 0 1 -.76-.34l-1.47-1.66a1 1 0 0 1 .09-1.41s0 0 0-.05l46.71-35.95a1 1 0 0 1 1.23 1.59l-45.86 35.3.76.86a1 1 0 0 1 -.08 1.41 1 1 0 0 1 -.67.25"/><path d="m135.49 359.14-20.34 7.29 3.22 11 24.55-6.68z" fill="#aa7a4a"/><path d="m116.38 367.05 2.68 9.18 22.28-6.06-6.27-9.81zm2 11.42a1 1 0 0 1 -1-.73l-3.21-11a1 1 0 0 1 .62-1.23l20.34-7.28a1 1 0 0 1 1.19.41l7.43 11.63a1 1 0 0 1 -.3 1.39 1 1 0 0 1 -.29.12l-24.54 6.68a1.26 1.26 0 0 1 -.25.01z"/><path d="m119.24 365.77a2.84 2.84 0 0 0 -4.48-.7l-5.88 5.69 5.08 9.39 9.23-2.51c0-3.78-2.23-8.7-4-11.87"/><path d="m119.08 372.84-2.17-3.08a3 3 0 0 0 -3.49-1l-2 .81-.26-.93a2.06 2.06 0 0 0 -2.3-1.48c-6.3 1-27.27 4.51-34.72 8.3-8.81 4.49-5.4 18.32 8.5 19.28 11 .76 27.85-8.83 34.37-12.84a2.05 2.05 0 0 0 0-3.46l1.8-1.83a2.92 2.92 0 0 0 .29-3.73" fill="#fff"/><path d="m109.14 368.11h-.14c-6.23 1-27.1 4.48-34.42 8.21a7.52 7.52 0 0 0 -4.13 8.48c.77 3.77 4.44 8.36 12.24 8.9 10.68.75 27.17-8.63 33.77-12.7a1 1 0 0 0 .49-.87 1 1 0 0 0 -.48-.89 1 1 0 0 1 -.45-.73 1 1 0 0 1 .27-.82l1.8-1.83a1.92 1.92 0 0 0 .19-2.45l-2.17-3.08a1.93 1.93 0 0 0 -2.29-.68l-2 .81a1 1 0 0 1 -1.31-.56v-.1l-.25-.93a1 1 0 0 0 -1-.77m-25.4 27.66c-.45 0-.89 0-1.33-.05-8.93-.62-13.16-6-14.07-10.5a9.57 9.57 0 0 1 5.18-10.67c7.58-3.86 28.72-7.41 35-8.4a3 3 0 0 1 3.36 2.06l1-.4a3.93 3.93 0 0 1 4.68 1.38l2.17 3.08a3.92 3.92 0 0 1 -.39 5l-1.11 1.13a3 3 0 0 1 .54 1.77 3 3 0 0 1 -1.45 2.55c-6.49 4-22.4 13-33.63 13"/><path d="m99.71 385.1a1 1 0 0 1 -1-.73l-2.88-10a1 1 0 0 1 .7-1.25 1 1 0 0 1 1.24.7l2.88 10a1 1 0 0 1 -.69 1.24.9.9 0 0 1 -.28 0m-16.32 7.73a.94.94 0 0 1 -.53-.16c-11.41-7.1-6.83-16.42-6.83-16.51a1 1 0 0 1 1.8.9c-.16.32-3.75 7.81 6.09 14a1 1 0 0 1 -.54 1.86m8-37.25a1 1 0 0 1 -1-1 1.5 1.5 0 0 1 0-.2l.59-2.87c-2.35-1.86-13.21-10.41-30.24-22.91-19.23-14.11-23.45-17-23.49-17a1 1 0 0 1 -.26-1.4 1 1 0 0 1 1.4-.26s4.26 2.92 23.54 17.06 30.67 23.26 30.78 23.35a1 1 0 0 1 .36 1l-.71 3.47a1 1 0 0 1 -1 .8"/><path d="m191.35 287.56c-1.45-6.48-10.72-30.39-17.71-48-5.58-14.06-19.08-24.2-35.13-26.24a186.81 186.81 0 0 0 -37.38-.84c-20.78 1.62-38.63 14.31-45.5 32.52-6.19 16.38-12.94 36.49-13.09 46.68-.16 10.85 6.41 21.22 13.59 29.27a54.77 54.77 0 0 0 35.87 17.77c19.92 1.84 51 3.68 65.11-.92 21.65-7.06 37.73-34.54 34.21-50.24"/><path d="m163.32 255.84h-94.11a7.72 7.72 0 0 0 -7.73 7.71v62.07a7.72 7.72 0 0 0 7.73 7.72h94.11a7.72 7.72 0 0 0 7.73-7.72v-62.07a7.72 7.72 0 0 0 -7.73-7.71" fill="#aeb0b5"/><path d="m69.21 256.85a6.73 6.73 0 0 0 -6.73 6.71v62.07a6.73 6.73 0 0 0 6.73 6.71h94.11a6.73 6.73 0 0 0 6.73-6.71v-62.07a6.73 6.73 0 0 0 -6.73-6.71zm94.11 77.49h-94.11a8.74 8.74 0 0 1 -8.74-8.71v-62.07a8.74 8.74 0 0 1 8.74-8.72h94.11a8.74 8.74 0 0 1 8.74 8.72v62.07a8.74 8.74 0 0 1 -8.74 8.71z"/><path d="m169.56 333.71h-108.19a4.87 4.87 0 0 0 -4.87 4.86 4.87 4.87 0 0 0 4.87 4.85h108.19a4.86 4.86 0 0 0 4.87-4.85 4.87 4.87 0 0 0 -4.87-4.86" fill="#aeb0b5"/><path d="m61.37 334.72a3.85 3.85 0 1 0 0 7.7h108.19a3.85 3.85 0 1 0 0-7.7zm108.19 9.71h-108.19a5.86 5.86 0 1 1 0-11.72h108.19a5.86 5.86 0 1 1 0 11.72z"/><path d="m124.59 212.94 1-14.33 1.3-.08c4 0 5.31-1.34 5.66-4.62a24.64 24.64 0 0 0 -.71-8.92 1.92 1.92 0 0 1 .08-1.23l.68-1.6a1.41 1.41 0 0 0 -.46-1.44l-.36-.29a14.58 14.58 0 0 1 -3.27-3.85c-.8-1.34-2.16-3.86-3.1-4.3-2.63-1.26-13.32-6.83-19.29 2.91-4.66 7.6 3 18.05 5.72 21.48.67.83-4.52 17.06-4.52 17.06l-6.7 1.62s5.17 9.16 20.88 5.37c11.18-2.7 9.41-6.85 9.41-6.85l-6.33-.93z" fill="#aa7a4a"/><path d="m102.35 216c1.92 2.18 7.4 6.56 18.92 3.77 6.13-1.47 7.94-3.32 8.47-4.29a2.13 2.13 0 0 0 .25-.7l-5.55-.82a1 1 0 0 1 -.86-1.06l1-14.33a1 1 0 0 1 .93-.93l1.36-.08c3.69 0 4.4-1.13 4.67-3.72a23.28 23.28 0 0 0 -.69-8.56 3 3 0 0 1 .13-1.88l.65-1.52a.37.37 0 0 0 -.14-.35l-.36-.3a15.54 15.54 0 0 1 -3.49-4.1c-.12-.19-.24-.4-.37-.63-.53-.9-1.77-3-2.3-3.28l-.29-.14c-3.07-1.48-12.41-6-17.71 2.67-4.19 6.84 2.55 16.49 5.64 20.32.38.47 1 1.25-4.34 18a1 1 0 0 1 -.72.67zm11.92 6.68c-10.52 0-14.32-6.48-14.51-6.81a1 1 0 0 1 -.05-.89 1 1 0 0 1 .69-.58l6.15-1.48c2.16-6.82 4.29-14.27 4.35-15.79-3.42-4.3-10.41-14.63-5.63-22.43 4.15-6.77 11-7.92 20.31-3.43l.28.13c1 .48 2 2.07 3.17 4.09l.36.61a13.33 13.33 0 0 0 3 3.58l.36.3a2.39 2.39 0 0 1 .8 2.47c0 .05 0 .09-.05.13l-.69 1.61a1 1 0 0 0 0 .58 25.41 25.41 0 0 1 .74 9.27c-.41 3.93-2.28 5.48-6.64 5.53h-.37l-.89 12.52 5.4.8a1 1 0 0 1 .78.6 3.35 3.35 0 0 1 -.25 2.78c-1.16 2.31-4.47 4.14-9.84 5.44a32.26 32.26 0 0 1 -7.48 1z"/><path d="m109.42 162.8c2.9-.62 6.23-.18 7.63-.69 2.27-.83 2.33-3.54 5.47-4.3 3.79-.92 5.38.7 6.86 2.95a5.59 5.59 0 0 1 .62 1.24c2.39 6.38-.62 9.5-2 10.51 0 0-8.54 4.4-10 5.66s-3 4-2 8a1.21 1.21 0 0 1 -.53 1.32 1.13 1.13 0 0 1 -1.53-.35c-1.11-1.6-3.54-4.71-5.27-4-2.16.92-1.49 7.4 3.3 8.15a3.12 3.12 0 0 1 2.51 3.26 3.15 3.15 0 0 1 -2.44 2.54 3.3 3.3 0 0 1 -2.47-.63c-3.12-2-11.92-10.42-13-18-1.32-9.1 8.92-14.87 12.77-15.7m17.26 36.6a11.38 11.38 0 0 1 -6.24-2.32.93.93 0 0 1 -.11-1.31.94.94 0 0 1 1.32-.11 9.45 9.45 0 0 0 5.09 1.88.93.93 0 0 1 0 1.86"/><path d="m114.1 192.48 10.5 7.38c8.94 3.87 10.43-6.76 8.77-19.51a61 61 0 0 1 -18.37 3.89c1.15 3 1.06 5.74-.92 8.24" fill="#caddff"/><path d="m125.09 199c2.16.92 3.8.92 5 0 2.58-1.94 3.45-8.19 2.42-17.24a61.56 61.56 0 0 1 -16.15 3.39 8.56 8.56 0 0 1 -.88 7.1l9.59 6.74zm2.89 2.7a9.59 9.59 0 0 1 -3.79-.9.81.81 0 0 1 -.18-.1l-10.49-7.38a1 1 0 0 1 -.25-1.39c1.62-2.05 1.88-4.42.77-7.26a1 1 0 0 1 .56-1.29 1.09 1.09 0 0 1 .3-.07 60.24 60.24 0 0 0 18.1-3.89 1 1 0 0 1 1.31.56 1.05 1.05 0 0 1 .06.24c1 7.52 1.24 17.15-3.05 20.37a5.37 5.37 0 0 1 -3.34 1.09z"/></g><ellipse cx="495.2" cy="31.93" fill="#ad8cbf" rx="20.02" ry="19.61" transform="matrix(.17364818 -.98480775 .98480775 .17364818 377.770295 514.069107)"/><path d="m502 48.9a17.85 17.85 0 0 1 -21.19-14.9 19.46 19.46 0 0 1 15-22.22 17.86 17.86 0 0 1 21.19 14.9 19.46 19.46 0 0 1 -15 22.22z" fill="#f9f6f9" fill-rule="evenodd"/><path d="m494 50.42a19.75 19.75 0 0 1 -12.25-9.55 21.22 21.22 0 0 1 7.12-28.31 19.25 19.25 0 0 1 18.7-.87 1.08 1.08 0 0 1 .5 1.45 1.07 1.07 0 0 1 -1.43.49 17.15 17.15 0 0 0 -16.65.78 19 19 0 0 0 -6.37 25.39 17.63 17.63 0 0 0 10.92 8.52 17 17 0 0 0 13.36-2 19 19 0 0 0 6.38-25.39 1.07 1.07 0 1 1 1.86-1.07 21.22 21.22 0 0 1 -7.14 28.3 19.62 19.62 0 0 1 -6.8 2.6 19.12 19.12 0 0 1 -8.21-.34z" fill-rule="evenodd"/><path d="m497.86 20a1.9 1.9 0 0 1 1.92 1.88v12.49a4.85 4.85 0 0 0 -2.56 4.26 2.58 2.58 0 0 0 .4 1.37h-8.7a1.9 1.9 0 0 1 -1.92-1.88v-3.12h5.75a.63.63 0 1 0 0-1.25h-5.75v-2.5h5.75a.63.63 0 1 0 0-1.25h-5.75v-8.12a1.9 1.9 0 0 1 1.92-1.88zm-4.79 2.5a.64.64 0 0 0 -.64.62v.94h-1a.64.64 0 0 0 -.64.63v.62a.64.64 0 0 0 .64.63h1v.94a.63.63 0 0 0 .64.62h.64a.64.64 0 0 0 .64-.62v-.94h1a.63.63 0 0 0 .63-.63v-.62a.63.63 0 0 0 -.63-.63h-1v-.94a.64.64 0 0 0 -.64-.62zm14.37 8.12a3.19 3.19 0 1 1 -3.19-3.12 3.16 3.16 0 0 1 3.19 3.12zm-8.94 8a3.68 3.68 0 0 1 3.72-3.62h4.06a3.68 3.68 0 0 1 3.72 3.64 1.37 1.37 0 0 1 -1.39 1.36h-8.72a1.37 1.37 0 0 1 -1.39-1.36z" fill="#3b005b"/><ellipse cx="496.84" cy="96.45" fill="#b99dc8" rx="30.84" ry="31.6"/><path d="m525 83.36c5.07 14.31-2.11 30.33-16.05 35.79a26.24 26.24 0 0 1 -34.42-16c-5.07-14.3 2.11-30.33 16.05-35.79a26.24 26.24 0 0 1 34.42 16" fill="#f9f6f9" fill-rule="evenodd"/><path d="m500.16 63.05a28.12 28.12 0 0 1 11.78 2.6 29 29 0 0 1 15.3 16.88c5.51 15.53-2.33 33-17.46 38.93a28.4 28.4 0 0 1 -27.27-3.52 1.59 1.59 0 0 1 -.34-2.21 1.57 1.57 0 0 1 2.19-.35 25.22 25.22 0 0 0 24.26 3.13c13.57-5.32 20.59-21 15.64-34.92a25.91 25.91 0 0 0 -13.63-15.07 25.13 25.13 0 0 0 -19.81-.52c-13.57 5.32-20.58 21-15.64 34.93a1.59 1.59 0 0 1 -1 2 1.57 1.57 0 0 1 -2-1c-5.51-15.54 2.33-33 17.46-38.93a28.76 28.76 0 0 1 10.49-2" fill-rule="evenodd"/><path d="m515.11 95.46a2.27 2.27 0 0 0 -3.16-.53h-.05l-6.9 5.17h-6.91a.89.89 0 0 1 -.87-.93.92.92 0 0 1 .87-.93h4.48a2 2 0 0 0 1.92-1.55 1.86 1.86 0 0 0 -1.82-2.18h-9.22a6.79 6.79 0 0 0 -4.22 1.49l-2.67 2.2h-3.18a1 1 0 0 0 -.86 1v5.59a.92.92 0 0 0 .86.94h19.85a6 6 0 0 0 3.54-1.18l7.75-5.8a2.28 2.28 0 0 0 .65-3.17zm-16.57-9.4a8.07 8.07 0 0 1 -1.54-.46l-.28-.1a1.35 1.35 0 0 0 -1.75.8 1.43 1.43 0 0 0 .83 1.79l.27.09a12.4 12.4 0 0 0 1.57.49v.72a1.38 1.38 0 1 0 2.75 0v-.61a3.17 3.17 0 0 0 2.65-2.66c.5-2.92-2.23-3.71-3.7-4.14l-.3-.1c-1.51-.44-1.42-.63-1.38-.87.06-.39.87-.58 1.84-.43a6.82 6.82 0 0 1 1.13.32 1.37 1.37 0 0 0 1.75-.85 1.41 1.41 0 0 0 -.85-1.78 10.68 10.68 0 0 0 -1.14-.33v-.65a1.38 1.38 0 1 0 -2.75 0v.61a3.4 3.4 0 0 0 -2.75 2.66c-.44 2.88 2.33 3.71 3.37 4l.38.11c1.81.53 1.78.69 1.74 1s-.88.59-1.86.42z" fill="#3b005b"/><ellipse cx="571.52" cy="121.55" fill="#b99dc8" rx="22.52" ry="22.85"/><path d="m580.33 138a19.21 19.21 0 0 1 -25.13-11.58 20.47 20.47 0 0 1 11.72-25.88 19.21 19.21 0 0 1 25.13 11.58 20.47 20.47 0 0 1 -11.72 25.88z" fill="#f9f6f9" fill-rule="evenodd"/><path d="m573.94 97.4a21 21 0 0 1 19.77 14.08 22.29 22.29 0 0 1 -12.71 28.15 20.84 20.84 0 0 1 -19.9-2.55 1.12 1.12 0 0 1 -.26-1.58 1.15 1.15 0 0 1 1.6-.25 18.59 18.59 0 0 0 17.72 2.26 20 20 0 0 0 11.42-25.25 18.79 18.79 0 0 0 -10-10.9 18.54 18.54 0 0 0 -14.47-.37 20 20 0 0 0 -11.42 25.25 1.14 1.14 0 0 1 -.69 1.46 1.13 1.13 0 0 1 -1.46-.69 22.28 22.28 0 0 1 12.75-28.15 21.08 21.08 0 0 1 7.65-1.45" fill-rule="evenodd"/><path d="m582 110.06a2.51 2.51 0 0 1 2.9 2l1.76 10a2.51 2.51 0 0 1 -2 2.92l-17.25 3a2.51 2.51 0 0 1 -2.9-2l-1.76-10a2.52 2.52 0 0 1 2-2.92l17.24-3zm-8.36 6.61a.63.63 0 0 0 .22 1.24l8.62-1.52a.63.63 0 0 0 -.22-1.24zm.88 5 8.62-1.52a.63.63 0 0 0 -.22-1.25l-8.62 1.52a.63.63 0 0 0 .22 1.25zm-5.25-5.5a.8.8 0 0 0 -.95-.64.79.79 0 0 0 -.6.92v.23a2.21 2.21 0 0 0 -.57.31 2 2 0 0 0 -.94 1.67 1.9 1.9 0 0 0 .33 1.11 1.93 1.93 0 0 0 .8.64 5.27 5.27 0 0 0 1.59.36h.09a4 4 0 0 1 1.21.26.37.37 0 0 1 .17.13.44.44 0 0 1 .06.26.43.43 0 0 1 -.25.39 2.06 2.06 0 0 1 -1.09.27 8.91 8.91 0 0 1 -1.07-.12h-.26a.76.76 0 0 0 -.88.65.73.73 0 0 0 .65.86.34.34 0 0 0 .19.07 9.74 9.74 0 0 0 1.21.15v.25a.79.79 0 0 0 .88.65.8.8 0 0 0 .67-.92v-.22c.2-.07.38-.2.56-.28a2.07 2.07 0 0 0 .63-2.85 1.93 1.93 0 0 0 -.79-.68 5.27 5.27 0 0 0 -1.67-.4h-.07a5 5 0 0 1 -1.19-.25.41.41 0 0 1 -.17-.11.33.33 0 0 1 0-.19c0-.08 0-.22.26-.38a2.37 2.37 0 0 1 1.08-.33c.18 0 .72 0 .87.06a.78.78 0 0 0 .84-.71.79.79 0 0 0 -.72-.85h-.84v-.25z" fill="#3b005b"/><ellipse cx="566.19" cy="52.16" fill="#b99dc8" rx="38.19" ry="38.9"/><path d="m581.19 80.58a33.17 33.17 0 0 1 -43.44-20.1c-6.4-17.95 2.66-38.06 20.25-44.91a33.17 33.17 0 0 1 43.44 20.1c6.4 17.95-2.66 38.06-20.25 44.91z" fill="#f9f6f9" fill-rule="evenodd"/><path d="m584.88 14.24a35.82 35.82 0 0 1 18.94 20.76c6.82 19.12-2.88 40.61-21.62 47.91a35.3 35.3 0 0 1 -33.75-4.33c-.87-.63-1.59-1.53-1-2.4s1.7-.39 2.57.24a33.49 33.49 0 0 0 31.09 4c16.89-6.51 26-27.22 19.89-44.42a33.27 33.27 0 0 0 -17.16-19c-7.77-3.55-17.88-4.13-25.93-1-16.8 6.54-25.58 27.5-19.46 44.66.36 1 .46 1.88-.56 2.24s-1.82-.47-2.19-1.48c-6.82-19.12 2.88-40.62 21.62-47.92a35.6 35.6 0 0 1 13-2.47 35.12 35.12 0 0 1 14.56 3.21z" fill-rule="evenodd"/><path d="m550.52 38.85v22.08a3.78 3.78 0 0 0 3.69 3.68h1.23v-29.44h-1.23a3.78 3.78 0 0 0 -3.69 3.68zm35.7-3.68h-1.22v29.44h1.23a3.79 3.79 0 0 0 3.7-3.68v-22.08a3.79 3.79 0 0 0 -3.71-3.68zm-6.15-3.68a3.79 3.79 0 0 0 -3.7-3.68h-12.31a3.78 3.78 0 0 0 -3.69 3.68v3.68h-2.47v29.44h24.63v-29.44h-2.46zm-16 0h12.31v3.68h-12.32zm13.53 20.24a.61.61 0 0 1 -.61.61h-4.31v4.3a.61.61 0 0 1 -.62.61h-3.69a.62.62 0 0 1 -.62-.61v-4.3h-4.31a.61.61 0 0 1 -.61-.61v-3.68a.61.61 0 0 1 .61-.61h4.31v-4.3a.62.62 0 0 1 .62-.61h3.69a.62.62 0 0 1 .62.61v4.3h4.32a.61.61 0 0 1 .61.61v3.68z" fill="#3b005b"/></svg>