<svg id="Layer_1" data-name="Layer 1" xmlns="http://www.w3.org/2000/svg" viewBox="0 0 272 238"><defs><style>.cls-2{fill:#fff}.cls-12,.cls-13,.cls-14,.cls-15,.cls-2,.cls-3,.cls-4,.cls-6{fill-rule:evenodd}.cls-3{fill:#dce4ef}.cls-4{fill:#8ba6ca}.cls-12{fill:#d59467}.cls-13{fill:#398296}.cls-14{fill:#9f5e32}.cls-15{fill:#caddff}.cls-16{fill:#fdb81e}</style></defs><path style="fill:none" d="M0 0h272v238H0z"/><path class="cls-2" d="M111.21 194.16c-2.31-.22-4-1.51-4-3.09v-57.76c0-2.15 3-3.9 6.08-3.61l85.93 16.54c2.32.22 4 1.51 4 3.1l.33 58.73c0 2.14-3 3.89-6.08 3.6Z"/><path d="M198.16 212.2h-.74l-86.28-17.51c-2.59-.25-4.4-1.73-4.4-3.59v-57.79a3.33 3.33 0 0 1 1.22-2.49 7.21 7.21 0 0 1 5.41-1.61l86 16.54c2.56.24 4.38 1.71 4.38 3.58l.32 58.73a3.37 3.37 0 0 1-1.22 2.5 7 7 0 0 1-4.69 1.64Zm-85.52-82a6.11 6.11 0 0 0-4 1.39 2.44 2.44 0 0 0-.89 1.75v57.76c0 1.31 1.48 2.4 3.52 2.59l86.26 17.51a6.29 6.29 0 0 0 4.59-1.36 2.49 2.49 0 0 0 .89-1.75l-.32-58.73c0-1.32-1.48-2.41-3.52-2.6l-86-16.54Z"/><path class="cls-3" d="m119 190.25-2.69-.29c-1.18-.13-2.12-.93-2.12-1.79v-10.86c0-.88 1-1.5 2.21-1.37l2.67.28c1.18.12 2.13.92 2.13 1.78v10.87c0 .89-1 1.51-2.22 1.38m9.54 1.17-2.69-.29c-1.19-.13-2.13-.93-2.13-1.79v-17.09c0-.88 1-1.5 2.21-1.37l2.66.28c1.19.12 2.14.92 2.14 1.78V190c0 .89-1 1.51-2.22 1.38m9.53 1.05-2.69-.29c-1.18-.13-2.13-.93-2.13-1.79v-14.07c0-.89 1-1.51 2.21-1.38l2.66.28c1.19.13 2.14.92 2.14 1.78v14.09c0 .89-1 1.51-2.22 1.38m9.53 2.44-2.69-.29c-1.18-.13-2.13-.92-2.12-1.79v-26.53c0-.88 1-1.5 2.2-1.38l2.67.29c1.18.12 2.13.91 2.13 1.78v26.55c0 .89-1 1.51-2.22 1.37m9.54 2.07-2.7-.3c-1.18-.13-2.12-.92-2.12-1.78v-33c0-.88 1-1.51 2.21-1.38l2.66.29c1.19.12 2.14.91 2.14 1.78v33c0 .89-1 1.51-2.22 1.38"/><path class="cls-4" d="M166.65 199.09 164 199c-1.18-.05-2.13-.4-2.13-.77v-16.48c0-.38 1-.65 2.21-.59l2.66.12c1.19 0 2.14.4 2.14.77v16.48c0 .39-1 .66-2.22.6"/><path class="cls-3" d="m176.19 201-2.7-.3c-1.18-.13-2.13-.92-2.12-1.78v-28c0-.88 1-1.5 2.2-1.37l2.67.28c1.18.12 2.13.92 2.13 1.78v28c0 .89-1 1.51-2.21 1.38m9.53 1.18-2.7-.29c-1.18-.13-2.12-.92-2.12-1.78v-36.36c0-.88 1-1.5 2.21-1.38l2.66.29c1.19.12 2.14.92 2.14 1.78v36.37c0 .89-1 1.51-2.22 1.37"/><path class="cls-4" d="m195.25 203.57-2.69-.3c-1.18-.13-2.13-.92-2.13-1.78v-46.67c0-.88 1-1.5 2.21-1.37l2.66.28c1.19.12 2.14.92 2.14 1.78v46.68c0 .89-1 1.51-2.22 1.38"/><path d="m75.34 147.62-12.64-2v-2.37l12.64 2Zm0 3.63-12.63-2v-2.37l12.63 2Z" style="fill:#99b9ff;fill-rule:evenodd"/><path class="cls-2" d="M109.13 115.32a2.88 2.88 0 0 1-2.39-2.86l.84-107a2.89 2.89 0 0 1 2.86-2.94 2.46 2.46 0 0 1 .54 0l57.64 10.11a2.91 2.91 0 0 1 2.38 2.9l-.84 107.05a2.9 2.9 0 0 1-2.91 2.89 2.7 2.7 0 0 1-.49 0Z"/><path class="cls-6" d="M166.64 125.17a2.38 2.38 0 0 0 2.76-1.93 2.94 2.94 0 0 0 0-.42l1.06-107.29a2.38 2.38 0 0 0-2-2.35L110.89 3.06A2.39 2.39 0 0 0 108.12 5a2.83 2.83 0 0 0 0 .41L107 112.7a2.38 2.38 0 0 0 2 2.35Zm.42 1a5.81 5.81 0 0 1-.59 0l-57.65-10.12a3.39 3.39 0 0 1-2.82-3.35l1.07-107.29a3.41 3.41 0 0 1 3.4-3.41 3.92 3.92 0 0 1 .59 0l57.65 10.12a3.39 3.39 0 0 1 2.81 3.36l-1.06 107.29a3.42 3.42 0 0 1-3.4 3.41Z"/><path d="M141.87 76.84c-14.07 0-27-11.66-29-26S120.82 25 134.89 25s27 11.66 29 26-7.89 25.87-22.02 25.84Z" style="fill:#fd9c79;fill-rule:evenodd"/><path d="m138.84 51 16.38 21.55C161.48 67.94 165 60 163.73 51a29.92 29.92 0 0 0-7-15.31Z" style="fill:#7f84ba;fill-rule:evenodd"/><g style="opacity:.75"><path d="M140.4 25.63 138.84 51l17.92-15.35a30.39 30.39 0 0 0-16.36-10" style="fill:#c94819;fill-rule:evenodd"/></g><path class="cls-2" d="M146.14 50.94a6.69 6.69 0 0 1-6.7 7.88 9.28 9.28 0 0 1-8.82-7.92 6.67 6.67 0 0 1 5.32-7.79 7 7 0 0 1 1.37-.11 9.28 9.28 0 0 1 8.83 7.92"/><path d="m164 98.16-50-6.91v-5.49l50 6.91Zm.11 10.21-50.06-6.91V96l50.06 6.91Z" style="fill:#d6d7d9;fill-rule:evenodd"/><path class="cls-12" d="M218.15 85a19.3 19.3 0 0 1-14-3.34c-6.92-4.82-11.28-8.19-11.28-8.19s0-2.65-1.5-3.76-2.35-4.89-3.51-4.86l.41 4.28s-3.51-1.71-5.31-2.75a3.3 3.3 0 0 0-3-.42s6.22 7.87 8.22 8.6 3.06 3.75 4.18 5.28l1.11 1.54s8.27 14.31 24.66 12.93Z"/><path class="cls-6" d="M180.9 66.29c2.49 3.09 6.2 7.32 7.48 7.79 1.61.58 2.6 2.36 3.48 3.92a15 15 0 0 0 .93 1.54l1.12 1.54c.08.14 8.14 13.74 23.7 12.71V85.6a20 20 0 0 1-13.75-3.52c-6.84-4.77-11.25-8.17-11.3-8.2a.52.52 0 0 1-.2-.4s0-2.42-1.28-3.36a8.1 8.1 0 0 1-1.93-2.84c-.17-.33-.41-.81-.65-1.21l.29 3a.51.51 0 0 1-.46.56.61.61 0 0 1-.27 0c-.14-.07-3.55-1.73-5.34-2.76a3.5 3.5 0 0 0-1.85-.54M216 94.92c-14.74 0-22.5-12.6-22.89-13.26L192 80.15a16.23 16.23 0 0 1-1-1.65c-.79-1.41-1.69-3-2.94-3.46-2.08-.76-7.81-8-8.45-8.76a.51.51 0 0 1 .08-.72l.09-.06a3.79 3.79 0 0 1 3.51.44c1.23.71 3.31 1.76 4.45 2.32l-.32-3.37a.5.5 0 0 1 .44-.55c.92 0 1.52 1.14 2.2 2.49a8 8 0 0 0 1.63 2.48c1.39 1 1.64 3.17 1.69 3.91.91.7 5 3.83 11.07 8A19 19 0 0 0 218 84.48a.5.5 0 0 1 .6.38v9.43a.5.5 0 0 1-.47.51c-.75.07-1.5.1-2.23.1"/><path class="cls-13" d="M213.36 83.92 217 99s7.65-1.2 8 2.12-.61 14-1 17.8-1.1 8.52 3.74 9.73 22.46-2.48 27.08-.44 6.26-.17 5.88-3.76-1.32-20-1.32-20l3.24 10.82 8.82-1s-1.95-23.68-13.66-28.21-16.86-4.73-25.61-4-14.84 2.84-18.84 1.8"/><path class="cls-6" d="M250.05 127.07a13.48 13.48 0 0 1 5 .67c1.92.84 3.38 1 4.23.34s1.11-1.84.93-3.58c-.38-3.56-1.31-19.86-1.32-20a.51.51 0 0 1 .49-.53.53.53 0 0 1 .52.36l3.1 10.38 7.89-.86c-.37-3.41-2.94-23.27-13.28-27.27-11.74-4.54-16.75-4.69-25.39-4-3.4.29-6.39.78-9 1.22-3.72.62-6.74 1.11-9.16.74l3.36 13.84c1.36-.16 5.31-.49 7.15.91a2.42 2.42 0 0 1 1 1.72c.48 4-1 17.77-1 17.91v.37c-.42 3.81-.86 7.75 3.39 8.82 2.1.52 6.82.08 11.82-.39 3.64-.35 7.35-.7 10.34-.7m7.85 2.43a8.3 8.3 0 0 1-3.25-.82c-2.42-1.07-9-.44-14.84.11-5.09.48-9.9.93-12.17.36-5.11-1.29-4.58-6.08-4.16-9.93v-.36c.42-3.82 1.42-14.44 1-17.68a1.49 1.49 0 0 0-.61-1c-1.54-1.18-5.46-.87-6.84-.65a.51.51 0 0 1-.57-.39L212.87 84a.51.51 0 0 1 .37-.62.53.53 0 0 1 .25 0c2.33.6 5.52.08 9.55-.59 2.66-.44 5.68-.94 9.12-1.23 8.6-.74 14-.58 25.84 4s13.9 27.67 14 28.65a.52.52 0 0 1-.46.55l-8.82 1a.51.51 0 0 1-.54-.37l-2-6.61c.31 5.13.8 13.22 1.06 15.59.23 2.15-.24 3.71-1.34 4.52a3.4 3.4 0 0 1-2 .59m-12.19-66a3 3 0 0 1-.9 3.91 11.61 11.61 0 0 0-3.81 4.17c-1.86 3.76.36 6.26 6.06 5.88s5.88.53 11 3.08 7.33 1.14 7.43-3.47-4.89-10.26-7.25-11.13a5.63 5.63 0 0 1-1.08-.65c-2-1.4-2.45-2.84-3.33-3.75-2.19-2.27-7.6-1.87-8.38 0a2.25 2.25 0 0 0 .26 2"/><path class="cls-6" d="M257.58 61c-1.52 1.26-2.38 3.6-1.56 4.59s3 .24 4.52-1 1.78-2.55 1-3.54-2.41-1.29-3.92 0"/><path class="cls-12" d="M256.31 71.46a1.21 1.21 0 0 0-1.18-.08c-.07-.46-.17-.92-.28-1.37.15-3.12-5.47-4.2-5.47-4.2h-.22a17.1 17.1 0 0 0-1.83 2.93 1.67 1.67 0 0 1-.51.61l-.94.68a.7.7 0 0 0-.17 1l.54.64c-1.25 3.9 1.08 4.33 1.08 4.33a8.37 8.37 0 0 0 1 .18c-.77 2.08-2.74 5.86-7 6.22a.51.51 0 0 0-.47.55.51.51 0 0 0 .17.34 15.18 15.18 0 0 0 13.17 3.1.61.61 0 0 0 .47-.71.62.62 0 0 0-.22-.35c-1.37-1.11-3.12-3.86-1.07-10.39.23-.15.44-.3.62-.44.56.4 1.52.1 2.16-.71s.73-1.86.16-2.31"/><path class="cls-6" d="M249.4 66.34a17.6 17.6 0 0 0-1.61 2.66 2.26 2.26 0 0 1-.67.8l-.94.69a.16.16 0 0 0 0 .23l.54.63a.54.54 0 0 1 .1.49 3.9 3.9 0 0 0-.07 3.07 1.24 1.24 0 0 0 .73.58 7.58 7.58 0 0 0 1 .18.52.52 0 0 1 .45.57v.11c-.84 2.29-2.93 6.18-7.45 6.56 1.93 1.67 6.17 4.28 12.72 3l.06-.06a.14.14 0 0 0 0-.09c-1.39-1.12-3.4-4-1.24-10.94a.43.43 0 0 1 .21-.28c.2-.14.41-.28.58-.42a.5.5 0 0 1 .61 0c.3.21 1 0 1.47-.61a2 2 0 0 0 .43-1 .66.66 0 0 0-.18-.57.74.74 0 0 0-.68 0 .52.52 0 0 1-.67-.3.17.17 0 0 1 0-.1c-.12-.71-.27-1.31-.27-1.32a.38.38 0 0 1 0-.15c.11-2.38-4.15-3.47-4.94-3.65m1.29 20.9a15.3 15.3 0 0 1-10-3.58 1 1 0 0 1 .59-1.79c3.6-.3 5.47-3.23 6.35-5.31l-.38-.08A2.23 2.23 0 0 1 246 75.5a4.56 4.56 0 0 1-.11-3.64l-.36-.42a1.19 1.19 0 0 1 .15-1.69h.06l.94-.69a1.18 1.18 0 0 0 .35-.42 18.63 18.63 0 0 1 1.88-3 .52.52 0 0 1 .41-.21h.31c.25 0 6 1.2 5.9 4.66 0 .13.1.42.17.8a1.47 1.47 0 0 1 1.09.3 1.66 1.66 0 0 1 .57 1.45 2.85 2.85 0 0 1-.65 1.57 2.39 2.39 0 0 1-2.51 1l-.24.17c-1.89 6.2-.22 8.71 1 9.66a1.13 1.13 0 0 1 .39 1.14 1.1 1.1 0 0 1-.86.82 18.18 18.18 0 0 1-3.6.37"/><path class="cls-6" d="M249.19 76.74a5.84 5.84 0 0 1-.93-.08.51.51 0 0 1-.43-.58.52.52 0 0 1 .59-.43c2 .3 2.74-.59 2.74-.6a.51.51 0 1 1 .8.64 3.49 3.49 0 0 1-2.77 1"/><path class="cls-12" d="m239.23 203.93.28 10.41 3.67.39 1.8-11.19Z"/><path class="cls-6" d="m240 213.87 2.74.3 1.63-10.07-4.63.31Zm3.17 1.38h-.06l-3.67-.39a.52.52 0 0 1-.46-.5l-.27-10.4a.52.52 0 0 1 .47-.53L245 203a.5.5 0 0 1 .54.46v.12l-1.82 11.19a.51.51 0 0 1-.5.43Z"/><path class="cls-12" d="m218.41 207.35-.59 8.28 4.85.4 1.73-8.68Z"/><path class="cls-6" d="m218.37 215.16 3.89.32 1.52-7.62h-4.9Zm4.3 1.38-4.85-.39a.52.52 0 0 1-.47-.55l.59-8.29a.5.5 0 0 1 .51-.47h6a.51.51 0 0 1 .51.51v.1l-1.73 8.68a.51.51 0 0 1-.5.41Z"/><path class="cls-2" d="M224 219.6a1.27 1.27 0 0 0 .55-1c0-1.21 0-3.8-.46-4.77-.65-1.29-3.33.5-3.33.5a12 12 0 0 0-2.49-2.63c-.47-.24-3.25 1.62-6.06 4.15-3.07 2.77-4.46 3.65-5.12 6a1.86 1.86 0 0 0 1.32 2.27 2.14 2.14 0 0 0 .35.06c2.82.2 8.52-.14 15.24-4.61"/><path class="cls-6" d="M218.09 212.19a22.46 22.46 0 0 0-5.57 4l-1.33 1.18c-2.14 1.89-3.12 2.75-3.64 4.61a1.33 1.33 0 0 0 .2 1.11 1.36 1.36 0 0 0 1 .58c2.74.19 8.32-.13 14.91-4.53a.74.74 0 0 0 .33-.59 13 13 0 0 0-.4-4.53.3.3 0 0 0-.21-.17 4.38 4.38 0 0 0-2.38.87.51.51 0 0 1-.7-.13 12 12 0 0 0-2.23-2.43m-8.07 12.6h-1.3a2.4 2.4 0 0 1-1.78-1 2.34 2.34 0 0 1-.34-2c.59-2.16 1.78-3.2 3.94-5.11.4-.35.85-.74 1.33-1.18.22-.19 5.4-4.84 6.63-4.22a9.77 9.77 0 0 1 2.39 2.41 4.48 4.48 0 0 1 2.8-.75 1.29 1.29 0 0 1 .86.7c.5 1 .56 3.28.51 5a1.8 1.8 0 0 1-.78 1.42 25.8 25.8 0 0 1-14.26 4.73"/><path class="cls-6" d="M211.37 222.54a14.38 14.38 0 0 1-3-.28.52.52 0 0 1-.39-.62.52.52 0 0 1 .62-.38 18.51 18.51 0 0 0 14.58-4 .52.52 0 0 1 .72.08.53.53 0 0 1-.08.73 19.9 19.9 0 0 1-12.45 4.48"/><path class="cls-2" d="M237.78 216.87v-5.7a1.72 1.72 0 0 1 2.36-.6 1.87 1.87 0 0 1 .35.28s1.44-2 4.12.5c0 0 3.78 7.05 5.45 11.24a1.73 1.73 0 0 1-.95 2.25 1.85 1.85 0 0 1-.61.13c-1.73 0-4-.06-4.95-.72-1.52-1-4.13-4.29-5.27-5.75a2.61 2.61 0 0 1-.55-1.63"/><path class="cls-6" d="m238.34 211.35-.05 5.52a2.15 2.15 0 0 0 .44 1.31c1.06 1.37 3.68 4.65 5.16 5.65.68.46 2.33.68 4.65.62a1.22 1.22 0 0 0 1.12-1.67c-1.55-3.89-5-10.35-5.39-11.12a3.14 3.14 0 0 0-2.27-1.06 1.57 1.57 0 0 0-1 .55.5.5 0 0 1-.7.12 1.27 1.27 0 0 0-1-.41 1.45 1.45 0 0 0-.85.53Zm9.53 14.14c-2.23 0-3.76-.28-4.55-.81-1.54-1.05-4-4.13-5.4-5.87a3.14 3.14 0 0 1-.65-1.95v-5.69a.54.54 0 0 1 .08-.28 2.59 2.59 0 0 1 1.66-1.09 2 2 0 0 1 1.43.37 2.48 2.48 0 0 1 1.39-.59A4.1 4.1 0 0 1 245 211a.64.64 0 0 1 .1.13c0 .07 3.81 7.12 5.47 11.29a2.29 2.29 0 0 1-.21 2.08 2.25 2.25 0 0 1-1.81 1Z"/><path class="cls-6" d="M240.53 214.43a.51.51 0 0 1-.51-.51v-3.07a.51.51 0 0 1 .36-.64.52.52 0 0 1 .64.35.48.48 0 0 1 0 .29v3.07a.51.51 0 0 1-.51.51M217 207.82s-1.38-20.91.89-39.72c1.85-15.35 7.82-36.06 9.95-43.16a3.63 3.63 0 0 1 3.41-2.59 96.38 96.38 0 0 1 13.05.55c6.62.89 9.23 0 9.23 0s4.94 5.66 4.54 16.3-11.92 55.52-11.49 66a15 15 0 0 1-8.89 1l2.08-60.48s-4.3 12.45-6.32 21a41.11 41.11 0 0 1-4.51 11.45s.12 16.17-3.58 29.58a15.51 15.51 0 0 1-8.36.08"/><path class="cls-2" d="M224.2 185.61a.51.51 0 0 1-.51-.51.52.52 0 0 1 .09-.29l3.17-4.62a.51.51 0 0 1 .84.58l-3.17 4.62a.51.51 0 0 1-.42.22m21.33-11.23a8.43 8.43 0 0 1-1.94-.22.5.5 0 0 1-.34-.62.51.51 0 0 1 .59-.35s2.93.71 4.88-.74a.51.51 0 0 1 .61.82 6.39 6.39 0 0 1-3.81 1.13m8-48.17h-24.1l10.66-26.28h24.14Z"/><path class="cls-6" d="M230.18 125.7h23l10.25-25.26h-23Zm23.38 1h-24.14a.51.51 0 0 1-.51-.51.61.61 0 0 1 0-.19l10.67-26.29a.5.5 0 0 1 .47-.32h24.14a.51.51 0 0 1 .51.51.67.67 0 0 1 0 .2L254 126.4a.51.51 0 0 1-.47.32Z"/><path class="cls-12" d="M244.44 117.93a39.76 39.76 0 0 0-6.11-3c-1.92-.52-.47 1.09.91 1.75s1.42 1.53 1.42 1.53-7.53-.24-8.37-.29.42 1.13 2.67 1.51a5.54 5.54 0 0 0 2.26 2.81c1.63.91 6.93 0 6.93 0s6.24 2.61 16.58 2.2c6.84-.27 10.19-5.78 9.75-9.7l-6.58.61s-2.74 6.19-19.46 2.57"/><path class="cls-6" d="M244.15 121.74h.19c.07 0 6.28 2.56 16.37 2.16a9.87 9.87 0 0 0 7.25-3.33 8 8 0 0 0 2-5.3l-5.8.53c-.77 1.23-4.78 5.86-19.88 2.59l-.15-.06a42.26 42.26 0 0 0-5.84-2.89 5 5 0 0 0 1.12.75c1.6.77 1.7 1.84 1.71 2a.53.53 0 0 1-.49.54l-7.15-.24a6.47 6.47 0 0 0 1.56.44.53.53 0 0 1 .4.35 5 5 0 0 0 2 2.52c1.2.68 5.16.19 6.59 0h.09m14.37 3.2a41.44 41.44 0 0 1-14.4-2.23c-1 .16-5.49.83-7.12-.08a5.89 5.89 0 0 1-2.38-2.81c-1.43-.3-3.16-1.07-3.07-1.91 0-.27.25-.59.8-.56l7.47.26a2.68 2.68 0 0 0-.77-.52c-.5-.24-2.44-1.41-2.08-2.37.25-.69 1.21-.43 1.52-.34a38.21 38.21 0 0 1 6.17 3c16 3.45 18.77-2.24 18.8-2.3a.48.48 0 0 1 .42-.3l6.59-.61a.5.5 0 0 1 .55.44 8.9 8.9 0 0 1-2.25 6.59 10.91 10.91 0 0 1-8 3.68h-2.26"/><path class="cls-14" d="M28.31 231.2h-10l3.6-7.06 8 .7Z"/><path class="cls-6" d="M19.14 230.69h8.77l1.32-5.4-7-.61Zm9.17 1h-10a.51.51 0 0 1-.52-.5.5.5 0 0 1 .06-.24l3.61-7.07a.51.51 0 0 1 .5-.27l8 .7a.51.51 0 0 1 .47.55v.08l-1.56 6.36a.5.5 0 0 1-.49.39Z"/><path class="cls-2" d="m21.11 229.82 4.43-3.36a1.29 1.29 0 0 0 .32-1.71c-1-1.57-3.68-7.49-6.85-9.63a1.88 1.88 0 0 0-2.6.38L3.09 233.33a1.67 1.67 0 0 0 .4 2.34 1.2 1.2 0 0 0 .27.16c1.16.56 3 .88 5.66-.18 4.3-1.71 9.22-4.24 10.75-5.05a2.41 2.41 0 0 0 .71-.56 1.2 1.2 0 0 1 .23-.22"/><path class="cls-6" d="M17.89 215.28a1.34 1.34 0 0 0-1.07.52L3.5 233.63a1.08 1.08 0 0 0-.18.92 1.23 1.23 0 0 0 .67.82 6.55 6.55 0 0 0 5.24-.19c4.31-1.72 9.28-4.28 10.7-5a2 2 0 0 0 .56-.44 2.2 2.2 0 0 1 .31-.3l4.43-3.36a.79.79 0 0 0 .2-1c-.28-.47-.55-1-.8-1.43-1.3-2.39-3.47-6.41-5.9-8.05a1.49 1.49 0 0 0-.84-.26M6.16 236.86a5.92 5.92 0 0 1-2.62-.57 2.21 2.21 0 0 1-1.21-1.5 2 2 0 0 1 .35-1.79L16 215.19a2.41 2.41 0 0 1 3.3-.5c2.64 1.79 4.89 5.94 6.23 8.42.31.57.58 1.07.77 1.37a1.8 1.8 0 0 1-.45 2.39l-4.43 3.36a.54.54 0 0 0-.15.15 2.85 2.85 0 0 1-.86.68c-1.43.75-6.45 3.34-10.8 5.07a9.37 9.37 0 0 1-3.46.73"/><path class="cls-2" d="m2.89 234.71-.39-.17a1.69 1.69 0 0 1-.88-2.22 2 2 0 0 1 .18-.32l13.33-17.83a1.91 1.91 0 0 1 2.6-.38l.48.34Z"/><path class="cls-6" d="M16.61 214a1.31 1.31 0 0 0-1.07.52L2.21 232.35a1.09 1.09 0 0 0-.17.91 1.25 1.25 0 0 0 .66.83l14.8-19.79h-.05a1.52 1.52 0 0 0-.85-.26M2.87 235.22h-.18l-.43-.22A2.27 2.27 0 0 1 1 233.5a2.15 2.15 0 0 1 .35-1.77l13.37-17.83a2.42 2.42 0 0 1 3.3-.49c.17.11.33.23.49.35a.55.55 0 0 1 .12.74L3.3 235a.52.52 0 0 1-.43.21m13.64-5.34a.49.49 0 0 1-.5-.45l-.44-3.58a.53.53 0 0 1 .41-.61.52.52 0 0 1 .6.41v.07l.42 3.59a.51.51 0 0 1-.42.57h-.08m-2.5 1.31a.52.52 0 0 1-.51-.46l-.49-3.58a.5.5 0 0 1 .4-.6.52.52 0 0 1 .6.42l.44 3.59a.52.52 0 0 1-.45.57"/><path class="cls-2" d="m91.24 225-7.58-.11a1.33 1.33 0 0 0-1.24.85 25.28 25.28 0 0 0-2 9.55 1.93 1.93 0 0 0 1.84 1.89l22.24.32a1.69 1.69 0 0 0 1.65-1.73 2.48 2.48 0 0 0 0-.27c-.23-1.27-1.05-2.95-3.46-4.48-3.92-2.48-8.85-5-10.4-5.75a2.46 2.46 0 0 0-1-.25"/><path class="cls-6" d="M83.64 225.4a.79.79 0 0 0-.74.52 25 25 0 0 0-2 9.34 1.4 1.4 0 0 0 1.33 1.39l22.24.33a1.11 1.11 0 0 0 .85-.4 1.25 1.25 0 0 0 .27-1 6.55 6.55 0 0 0-3.24-4.14c-3.92-2.48-8.91-5-10.35-5.72a1.89 1.89 0 0 0-.81-.19l-7.58-.11Zm20.89 12.6-22.24-.32A2.42 2.42 0 0 1 80 235.3a25.58 25.58 0 0 1 2-9.76 1.83 1.83 0 0 1 1.69-1.17l7.58.11a3 3 0 0 1 1.25.3c1.45.72 6.48 3.27 10.44 5.78 2.64 1.67 3.47 3.54 3.7 4.82a2.24 2.24 0 0 1-.5 1.86 2.11 2.11 0 0 1-1.63.76Z"/><path class="cls-2" d="M106 235a2.71 2.71 0 0 1 .09.41 1.68 1.68 0 0 1-1.35 2 1.24 1.24 0 0 1-.27 0l-22.24-.32a1.93 1.93 0 0 1-1.84-1.89v-.59Z"/><path class="cls-6" d="M81 235.19v.07a1.4 1.4 0 0 0 1.33 1.39l22.24.33a1.15 1.15 0 0 0 .85-.4 1.28 1.28 0 0 0 .27-1Zm23.53 2.81-22.24-.32A2.42 2.42 0 0 1 80 235.3v-.61a.56.56 0 0 1 .54-.53l25.58.37a.56.56 0 0 1 .5.39c0 .15.08.3.11.46a2.24 2.24 0 0 1-.5 1.86 2.1 2.1 0 0 1-1.65.76Zm-13.47-7.89a.51.51 0 0 1-.51-.51.55.55 0 0 1 .16-.38l2.29-2.09a.52.52 0 0 1 .71.75l-2.3 2.12a.52.52 0 0 1-.35.14m2.55 1.32a.51.51 0 0 1-.51-.51.52.52 0 0 1 .16-.37l2.22-2.17a.52.52 0 0 1 .73 0 .51.51 0 0 1 0 .72L94 231.28a.51.51 0 0 1-.36.15"/><path class="cls-13" d="M54.6 187.16c.21-.16 16.23-11.77 21.41-10.32 8.85 2.5 7.13 28.85 6.94 35.82-.18 6.78-29.15-14.18-30.14-16s1.73-9.36 1.79-9.52"/><path class="cls-13" d="m82.66 210.89.09.08c5.55 5 7.93 8.93 7.53 15.28s-9.3 12.8-37.86 9.57l-4.14-.27-23.22-.37v-16.67a217.63 217.63 0 0 1 25.94-.26.47.47 0 1 0 .12-.94c-7.29-1.38-16.66-3.53-19.59-6-6.14-5.16-5.49-13-4.16-18.59 3.89-16.31 28.13.72 28.3.76q3.8 2.21 7.55 4.48Z"/><path class="cls-15" d="M69.37 221.81a.5.5 0 0 1-.27-.08s-5.37-3.14-18.06-3.44a.51.51 0 0 1-.5-.52.5.5 0 0 1 .5-.5c13 .3 18.35 3.45 18.57 3.58a.53.53 0 0 1 .18.71.53.53 0 0 1-.44.25m11.7-11.69a.58.58 0 0 1-.31-.11 109.35 109.35 0 0 0-16.5-10.79.52.52 0 0 1-.18-.7.49.49 0 0 1 .64-.21 111 111 0 0 1 16.68 10.89.51.51 0 0 1 .11.7.55.55 0 0 1-.41.21"/><path class="cls-14" d="M23.55 139.66c-3.09 2.45-13.94 13.65-13.31 36.63a1.62 1.62 0 0 1-.3 1c-1 1.44-4.13 6.2-3.36 9.33.9 3.61 4.18 11.55 5.78.57a.25.25 0 0 1 .28-.23.27.27 0 0 1 .22.16c.4 1 1 2.25 1.53 2.1 1.12-.35 1-6.18.89-9.63s-.53-4.82 3.29-13c2.35-5 9.31-11.24 12.08-13.75 0 0-6.76-13.47-7.1-13.21"/><path class="cls-6" d="M23.49 140.38c-2.51 2.15-13.37 12.84-12.74 35.89a2.13 2.13 0 0 1-.39 1.29c-1 1.35-4 6-3.28 8.91s2.2 5.83 3 5.79c.11 0 1.07-.2 1.8-5.17a.77.77 0 0 1 1.47-.19 5.93 5.93 0 0 0 1 1.74c.2-.33.74-1.88.46-9v-.72c-.13-3-.22-4.82 3.38-12.47 2.31-4.93 9-11 11.9-13.64-2.17-4.33-5.51-10.82-6.52-12.38m-13.52 52.85c-2.31 0-3.9-6.29-4-6.56-.81-3.25 2.13-7.9 3.44-9.75a1.14 1.14 0 0 0 .19-.67c-.68-25.05 12.06-35.88 13.51-37l.19-.15h.26c.3.07.74.17 7.42 13.48l.18.35-.49.44C28 156 21.29 162 19 166.84c-3.48 7.42-3.41 9-3.27 12v.73c.32 8.47-.41 9.88-1.25 10.14-.6.19-1.15-.3-1.8-1.61-.59 3.53-1.41 5.14-2.63 5.2"/><path class="cls-14" d="M84.87 135.59s10.17 5.45 14.81 5c6.54-.65 13.76-20.6 14.27-22s1.91-9 3.93-11.18a24.3 24.3 0 0 0 3.57-6.59A1.27 1.27 0 0 1 123 100c.55.18 1 .71.41 2.08-.67 1.63-1.31 3.26-1.94 4.89a.43.43 0 0 0 .19.59.45.45 0 0 0 .47 0c.85-.61 1.92-1.17 2.62-.78 1.31.74 2 5.7-.11 9.18s-4.44 2.66-5.15 4.35-6.56 23.6-9 27.4c-3.46 5.45-25.83 6.07-29.46 6s3.81-18.09 3.81-18.09"/><path class="cls-6" d="M85.13 136.31c-2.34 5.77-5.44 15-4.33 16.7a.32.32 0 0 0 .28.16c5.49.16 25.89-.82 29-5.73 1.68-2.63 5.15-14.55 7.22-21.67.9-3.09 1.5-5.14 1.71-5.65a3.11 3.11 0 0 1 1.9-1.58 6.48 6.48 0 0 0 3.29-2.84 9.89 9.89 0 0 0 1-7.07 2.26 2.26 0 0 0-.73-1.39c-.36-.21-1.13.08-2.06.75a1 1 0 0 1-1.13 0 1 1 0 0 1-.31-1.14c.54-1.36 1.31-3.32 2-4.89.29-.73.24-1.06.18-1.19a.4.4 0 0 0-.28-.21.75.75 0 0 0-.9.48 25.85 25.85 0 0 1-3.67 6.75c-1.43 1.57-2.59 6.19-3.28 9-.24 1-.42 1.69-.55 2.06v.07c-1.85 5-8.39 21.6-14.67 22.23-4.2.43-12.46-3.67-14.6-4.77M82 154.21h-1a1.31 1.31 0 0 1-1.12-.63c-1.8-2.79 3.82-16.6 4.47-18.16l.22-.52.5.26c.1.06 10.07 5.37 14.51 4.92s10.27-11.9 13.81-21.57v-.06c.11-.32.29-1 .52-2 .71-2.85 1.91-7.63 3.51-9.39a22.83 22.83 0 0 0 3.47-6.44 1.76 1.76 0 0 1 2.18-1.07 1.41 1.41 0 0 1 .89.75 2.54 2.54 0 0 1-.16 2c-.63 1.57-1.26 3.14-1.87 4.71q1.88-1.29 3-.69a3.35 3.35 0 0 1 1.21 2 10.83 10.83 0 0 1-1.13 7.86 7.41 7.41 0 0 1-3.74 3.24c-.76.34-1.16.54-1.37 1s-.85 2.7-1.67 5.53c-2.23 7.64-5.59 19.18-7.34 21.94-3.37 5.3-23.17 6.22-28.93 6.22"/><path class="cls-6" d="M32 154.65a12 12 0 0 1 1.12-.74.77.77 0 0 1 1 .29.78.78 0 0 1 .09.37c.05 3.77 0 15.57-1.87 19.23s-4 7-4.62 16.25c0 .62 31.28 14.72 35.18 7a.83.83 0 0 0 .06-.58c-.34-1.13-1.5-6.1.78-15.7 1.53-6.47 4.42-12.09 9.33-19.12v-.06c.23-.4 3-5.06 10.3-6.61a.73.73 0 0 0 .43-.25 38.16 38.16 0 0 0 7.82-17.29.76.76 0 0 0-.41-.81c-2-1-9.33-4.41-14.7-5.2-6.26-.91-3.78.5-8.25-1a22 22 0 0 1-2.91-1.94c-2.62-1.92-8.41 1-13.93-1.25a3.11 3.11 0 0 0-2-.08 27 27 0 0 1-8.09 1.18c-4.33-.14-13.76 2.66-19.94 11.8-.24.36 7.47 11.4 9.45 14.29a.75.75 0 0 0 1 .21"/><path class="cls-2" d="M37.46 171.1a.51.51 0 0 1-.51-.51.5.5 0 0 1 .08-.27 34.37 34.37 0 0 0 5.15-14.42 43.78 43.78 0 0 1 7.2-19 .51.51 0 0 1 .71-.12.52.52 0 0 1 .11.72 42.7 42.7 0 0 0-7 18.55 35.34 35.34 0 0 1-5.3 14.83.5.5 0 0 1-.44.25"/><path class="cls-14" d="m62.58 128.37.1-7.31a1.16 1.16 0 0 1 .81-1.07l2.72-.82a1.34 1.34 0 0 0 1-1.32l-.08-4.06 1.19-1a.58.58 0 0 0 .1-.78l-1.88-2.46c-.37-.48-1.28-3.4-1.87-3.26 0 0-10.61-1.66-12.8 3a3.94 3.94 0 0 0 .35 3.84l1 1.45a7.52 7.52 0 0 1 .78 7l-2.69 6.53a20.56 20.56 0 0 0 9.16.55Z"/><path class="cls-6" d="M51.91 127.85a20.3 20.3 0 0 0 8.39.38l1.78-.29.09-6.89a1.64 1.64 0 0 1 1.18-1.55l2.71-.82a.84.84 0 0 0 .6-.82l-.09-4a.55.55 0 0 1 .21-.43l1.18-1a.09.09 0 0 0 0-.07L66.08 110a6.64 6.64 0 0 1-.58-1.2 10.77 10.77 0 0 0-.93-1.86c-.1 0-10.26-1.55-12.26 2.72a3.51 3.51 0 0 0 .31 3.35l1 1.45a8.12 8.12 0 0 1 1.38 5.43 8.64 8.64 0 0 1-.51 2Zm5.09 1.68a21.39 21.39 0 0 1-5.95-.85.52.52 0 0 1-.35-.64l2.7-6.52a7.72 7.72 0 0 0 .45-1.76 7.16 7.16 0 0 0-1.18-4.78l-1-1.46a4.51 4.51 0 0 1-.39-4.34c2.25-4.8 12.22-3.47 13.27-3.32.7 0 1.16.93 1.82 2.49a9.88 9.88 0 0 0 .45 1l1.88 2.46a1.08 1.08 0 0 1-.18 1.49l-1 .8.08 3.81a1.86 1.86 0 0 1-1.32 1.82l-2.72.82a.64.64 0 0 0-.45.59L63 128.4a.51.51 0 0 1-.42.5l-2.21.37a22.07 22.07 0 0 1-3.44.28Z"/><path class="cls-6" d="M58.19 113.23a6.29 6.29 0 0 0-.32-.7c-.8-1.49-1.86-1.82-1.84-2.65a1.5 1.5 0 0 1 .53-1c.92-1 2.41-.75 5.33-.73 3.62 0 4 0 4.66-.33a5.16 5.16 0 0 0 1.9-4.91A4.86 4.86 0 0 0 65.59 99a5.2 5.2 0 0 0-5.28 1.13 2.52 2.52 0 0 0-1.4-1.32c-1.73-.52-3.76 1.72-4.47 2.51a10.29 10.29 0 0 0-2.38 4.52 3.63 3.63 0 0 0-2.82.13 4.27 4.27 0 0 0-1.84 3.57c0 2.64 2.5 4.49 4.39 5.88a10 10 0 0 0 2.7 1.53l1.18-1-.7-.78a3.88 3.88 0 0 1-.87-1.49 1.41 1.41 0 0 1 .07-1.25c.4-.48 1.25-.36 1.37-.35a2.66 2.66 0 0 1 1.89 1.7l.76-.58"/><path class="cls-16" d="m174.62 185.66-9.44-33.9-9.18 18.89-9.5-9.52-9.46 21.62-10.21-7-9.84 6-.71-1.17 10.6-6.45 9.57 6.57 9.6-21.94 9.56 9.59 9.9-20.42 9.63 34.58 8.17-11.75 10-21 1.24.59-10.09 21.14-9.86 14.18Z"/><path class="cls-3" d="M118.76 181a1.36 1.36 0 1 1-1.37-1.35 1.37 1.37 0 0 1 1.35 1.35"/><path class="cls-16" d="M117.41 183.06a2 2 0 1 1 2-2 2 2 0 0 1-2 2Zm0-2.7a.68.68 0 0 0-.17 1.35h.17a.7.7 0 0 0 .47-.19.67.67 0 0 0 .2-.48.69.69 0 0 0-.67-.68Z"/><path d="M128.27 174.92a1.35 1.35 0 1 1-1.35-1.35 1.35 1.35 0 0 1 1.35 1.35" style="fill:#afcdd5;fill-rule:evenodd"/><path class="cls-3" d="M128.27 174.92a1.35 1.35 0 1 1-1.35-1.35 1.35 1.35 0 0 1 1.35 1.35Z"/><path class="cls-16" d="M126.92 177a2 2 0 1 1 2-2 2 2 0 0 1-2 2Zm0-2.7a.68.68 0 1 0 .68.68.67.67 0 0 0-.62-.72h-.06Z"/><path class="cls-15" d="M138.1 182a1.35 1.35 0 1 1-1.35-1.35 1.35 1.35 0 0 1 1.35 1.35"/><path class="cls-3" d="M138.1 181.11a1.35 1.35 0 0 1-2.7 0 1.35 1.35 0 1 1 2.7 0Z"/><path class="cls-16" d="M136.75 183.14a2 2 0 1 1 1.41-.57 2 2 0 0 1-1.41.57Zm0-2.7a.69.69 0 0 0-.68.67.72.72 0 0 0 .2.48.67.67 0 0 0 .48.2.68.68 0 1 0 .16-1.35Z"/><path class="cls-3" d="M157.17 168.86a1.35 1.35 0 0 1-2.7 0 1.35 1.35 0 1 1 2.7 0"/><path class="cls-16" d="M155.82 170.89a2 2 0 1 1 2-2 2 2 0 0 1-2 2Zm0-2.71a.68.68 0 1 0 .68.68.67.67 0 0 0-.68-.68Z"/><path class="cls-3" d="M176.24 183.52a1.36 1.36 0 1 1-1.24-1.24 1.36 1.36 0 0 1 1.24 1.24"/><path class="cls-16" d="M174.89 185.55a2 2 0 1 1 0-4.06 2 2 0 0 1 1.41 3.43 2.06 2.06 0 0 1-1.43.6Zm0-2.71a.68.68 0 0 0 0 1.36.68.68 0 0 0 0-1.36Z"/><path class="cls-15" d="M185.27 171.08a1.35 1.35 0 0 1-2.7 0 1.35 1.35 0 1 1 2.7 0"/><path class="cls-3" d="M185.27 171.08a1.35 1.35 0 0 1-2.7 0 1.35 1.35 0 1 1 2.7 0Z"/><path class="cls-16" d="M183.92 173.11a2 2 0 0 1-1.44-3.46 2 2 0 0 1 1.44-.59 2 2 0 0 1 2 2 2 2 0 0 1-.59 1.44 2 2 0 0 1-1.43.59Zm0-2.7a.68.68 0 1 0-.17 1.35.49.49 0 0 0 .17 0 .67.67 0 0 0 .48-.2.68.68 0 0 0-.47-1.15Z"/><path class="cls-2" d="M195.3 149.94a1.35 1.35 0 1 1-1.35-1.35 1.35 1.35 0 0 1 1.35 1.35"/><path class="cls-16" d="M194 152a2 2 0 1 1 2-2 2 2 0 0 1-2 2Zm0-2.7a.68.68 0 1 0 0 1.35.7.7 0 0 0 .68-.68.68.68 0 0 0-.66-.7Z"/><path class="cls-2" d="M147.63 160.07a1.35 1.35 0 1 1-2.7 0 1.35 1.35 0 1 1 2.7 0"/><path class="cls-16" d="M146.28 162.1a2 2 0 1 1 2-2 2 2 0 0 1-2 2Zm0-2.71a.68.68 0 1 0 .68.68.68.68 0 0 0-.68-.68Z"/><path class="cls-2" d="M166.7 149.6a1.35 1.35 0 1 1-1.35-1.35 1.35 1.35 0 0 1 1.35 1.35"/><path class="cls-2" d="M166.7 151.39a1.35 1.35 0 0 1-2.7 0 1.35 1.35 0 1 1 2.7 0Z"/><path class="cls-16" d="M165.35 153.42a2 2 0 0 1-1.43-3.46 2 2 0 1 1 1.43 3.41Zm0-2.7a.68.68 0 1 0 0 1.35.67.67 0 1 0 0-1.34Z"/></svg>