<svg id="Layer_1" data-name="Layer 1" xmlns="http://www.w3.org/2000/svg" width="100%" height="100%" viewBox="0 0 213 224"><defs><style>.cls-1{fill:#fff}.cls-1,.cls-10,.cls-11,.cls-13,.cls-14,.cls-2,.cls-3,.cls-9{fill-rule:evenodd}.cls-3{fill:#d6d7d9}.cls-9{fill:#0071bc}.cls-10{fill:#bbdfc7}.cls-11{fill:#2b71b8}.cls-13{fill:#fcdeb9}.cls-14{fill:#2d6878}</style></defs><path class="cls-1" d="m211.9 51.26-13.18 107.06a6.44 6.44 0 0 1-6.39 5.63h-73.84a6.42 6.42 0 0 1-6.39-7.21l13.18-107.06a6.44 6.44 0 0 1 6.39-5.63h73.84a6.42 6.42 0 0 1 6.39 7.21Z"/><path class="cls-2" d="M131.67 44.05a6.44 6.44 0 0 0-6.39 5.63L112.1 156.74a6.42 6.42 0 0 0 6.39 7.21h73.84a6.44 6.44 0 0 0 6.39-5.63L211.9 51.26a6.42 6.42 0 0 0-6.39-7.21Zm60.66 121h-73.84a7.51 7.51 0 0 1-5.62-2.53 7.42 7.42 0 0 1-1.81-5.86l13.18-107.11a7.5 7.5 0 0 1 7.43-6.55h73.84a7.51 7.51 0 0 1 5.62 2.53 7.42 7.42 0 0 1 1.81 5.86l-13.18 107.06a7.49 7.49 0 0 1-7.43 6.55Z"/><path class="cls-3" d="M185.35 116.07a2.34 2.34 0 0 0-2-2.61h-48.97a2.33 2.33 0 0 0-.3 4.65 1.51 1.51 0 0 0 .3 0H183a2.33 2.33 0 0 0 2.32-2m-22.51 11.78a2.34 2.34 0 0 0-2-2.61H132.87a2.33 2.33 0 0 0-.29 4.65H160.52a2.34 2.34 0 0 0 2.32-2m5.46 11.78a2.34 2.34 0 0 0-2-2.61 1.46 1.46 0 0 0-.29 0h-34.64a2.33 2.33 0 0 0-.3 4.65H166a2.34 2.34 0 0 0 2.32-2"/><path class="cls-1" d="M182.86 99.32h-41.15a5.61 5.61 0 0 1-5.58-6.32l3.66-28.37a5.61 5.61 0 0 1 5.58-4.9h41.16a5.62 5.62 0 0 1 5.58 6.33l-3.67 28.37a5.61 5.61 0 0 1-5.58 4.9"/><path class="cls-2" d="M145.07 60.24a4.78 4.78 0 0 0-4.72 4.15l-3.75 29.05a4.77 4.77 0 0 0 4.73 5.36h41.83a4.79 4.79 0 0 0 4.73-4.15l3.75-29.05a4.77 4.77 0 0 0-4.73-5.36Zm38.09 39.6h-41.83a5.8 5.8 0 0 1-5.77-6.54l3.75-29a5.81 5.81 0 0 1 5.76-5.06h41.84a5.8 5.8 0 0 1 5.77 6.54l-3.75 29a5.82 5.82 0 0 1-5.77 5.06Z"/><path d="m177.87 70.61-8.18 6.29a4.89 4.89 0 0 1 .6 2.74 4.7 4.7 0 0 1-2 3.83l5.66 9c.43-.16 1.09-.42 1.14-.46a16 16 0 0 0 5.69-12.31c0-3.26-.06-7-1.79-9.5l-1.14.46" style="fill:#fc7b4c;fill-rule:evenodd"/><path class="cls-1" d="m169.4 75.39.84-.38 7.55-6c-2-2.76-4.75-5.37-8.12-6.29a4.64 4.64 0 0 1-.83.38l-2.08 10.43a4.65 4.65 0 0 1 2.64 1.87"/><path class="cls-1" d="m172.12 92.75-.33-.51-5.17-8.24a6.13 6.13 0 0 1-3.14.82 5.07 5.07 0 0 1-4.89-5c0-2.6 1.67-5.07 4.35-5.07a9.79 9.79 0 0 1 1.7-.07l2.88-9.82-.67-.14a16.23 16.23 0 0 0-3.4-.36 15.48 15.48 0 1 0 0 30.94 16.2 16.2 0 0 0 8.73-2.53"/><path d="m170 74.68 8-6.9c-2.14-3-4.64-4.25-8.29-5.07l-2.11 10.43a3.62 3.62 0 0 1 2.4 1.54" style="fill:#fc5a20;fill-rule:evenodd"/><path d="m172.52 92.72-.32-.5-5.34-8.45a4.59 4.59 0 0 1-2.65.84 4.67 4.67 0 1 1 1.18-9.18L167.47 65a14.87 14.87 0 0 0-3.26-.36 15.32 15.32 0 0 0 0 30.63 15.06 15.06 0 0 0 8.35-2.51" style="fill:#545ba3;fill-rule:evenodd"/><path d="m179.15 69.63-.64.49-.64.49-7.25 5.93a4.68 4.68 0 0 1 .81 2.64 5.2 5.2 0 0 1-1.8 4.17l5.48 8.65c.83-.63 6.58-5.14 6.83-12.77a16.48 16.48 0 0 0-2.79-9.6Z" style="fill:#fdbda5;fill-rule:evenodd"/><path d="M179.21 32.78H45c-2.43 0-3.71-2.63-3.32-5l4.26-23.96A4.72 4.72 0 0 1 50.14 0h134.18c2.44 0 4 2.65 3.62 5.07L183.71 29a5 5 0 0 1-4.5 3.77" style="fill:#5b616b;fill-rule:evenodd"/><path class="cls-1" d="M35.79 32.34a4 4 0 0 1-4-4 4.46 4.46 0 0 1 .05-.63L36.1 3.82A4 4 0 0 1 40 .49h139.49a4 4 0 0 1 4 4 3.39 3.39 0 0 1 0 .64L179.17 29a4 4 0 0 1-3.91 3.33Z"/><path class="cls-2" d="M40 1a3.47 3.47 0 0 0-3.44 2.92l-4.21 23.9a3.49 3.49 0 0 0 3.44 4h139.47a3.45 3.45 0 0 0 3.43-2.92L182.93 5a3.49 3.49 0 0 0-3.44-4Zm135.26 31.82H35.79a4.45 4.45 0 0 1-4.39-5.16l4.23-23.93A4.42 4.42 0 0 1 40 0h139.49a4.45 4.45 0 0 1 4.39 5.16l-4.23 23.93a4.43 4.43 0 0 1-4.39 3.73Z"/><path class="cls-9" d="M50.43 18.55A5.37 5.37 0 1 1 58 10.94a5.37 5.37 0 0 1-7.59 7.61m8.85-8.86a7.14 7.14 0 0 0-10.11 0 7.15 7.15 0 1 0 10.1 10.12 7.16 7.16 0 0 0 0-10.12"/><path class="cls-9" d="M44.26 24.69a.92.92 0 0 1 0-1.3l4.86-4.86 1.31 1.31-4.86 4.85a.91.91 0 0 1-1.3 0"/><path class="cls-3" d="M128.43 19.74H76A4.78 4.78 0 0 1 71.25 15 4.79 4.79 0 0 1 76 10.15h52.39a4.8 4.8 0 0 1 0 9.59m20.45-.07H141a4.8 4.8 0 0 1 0-9.59h7.93a4.8 4.8 0 0 1 0 9.59m21.24 0h-7.93a4.8 4.8 0 0 1 0-9.59h7.93a4.8 4.8 0 0 1 0 9.59"/><path class="cls-1" d="M97.84 120.49h-65a5.44 5.44 0 0 1-5.4-6.09l8-66.89a5.43 5.43 0 0 1 5.4-4.8h65a5.46 5.46 0 0 1 5.41 6.1l-8 66.88a5.45 5.45 0 0 1-5.41 4.8"/><path class="cls-10" d="M68.66 61.58c-.88 0-1.59-.5-1.59-1.13s.71-1.13 1.59-1.13h35.9c.88 0 1.59.5 1.59 1.13s-.71 1.13-1.59 1.13Z"/><path class="cls-11" d="M68.07 61.58a1.14 1.14 0 0 1 0-2.26h22.64a1.14 1.14 0 0 1 0 2.26Z"/><path class="cls-10" d="M101.19 70.09H66.93c-.86 0-1.56-.51-1.56-1.13s.7-1.13 1.56-1.13h34.26c.87 0 1.56.5 1.56 1.13s-.69 1.13-1.56 1.13M63.57 99c-.41 0-.75-.51-.75-1.13s.34-1.14.75-1.14h15.75a1.2 1.2 0 0 1 1.34 1.14c0 .95-.92 1.13-1.34 1.13Zm-2 6.81c-.24 0-.43-.51-.43-1.14s.19-1.13.43-1.13H70c.24 0 1.28.15 1.28 1.13s-1 1.14-1.28 1.14Zm-.07 7.66c-.2 0-.36-.51-.36-1.14s.16-1.13.36-1.13h7c.2 0 1.17.33 1.17 1.13s-1 1.14-1.17 1.14Zm1.34-21.28c-.47 0-.85-.51-.85-1.13s.38-1.13.85-1.13h18.3a1.13 1.13 0 1 1 0 2.26ZM64 84.56a1.13 1.13 0 1 1 0-2.26h24.88a1.13 1.13 0 1 1 0 2.26Zm1.2-6.81a1.17 1.17 0 1 1 0-2.26h32.67a1.17 1.17 0 1 1 0 2.26Z"/><path class="cls-11" d="M71.88 70.09h-5.61a1.43 1.43 0 0 1-.9-1.13 1.41 1.41 0 0 1 .9-1.13h5a1.16 1.16 0 0 1 0 2.26M67.89 99h-5.64a1.14 1.14 0 0 1-1.13-1.13 1.14 1.14 0 0 1 1.13-1.14h5.64a1.14 1.14 0 0 1 0 2.27m0 6.81h-5.64a1.14 1.14 0 0 1-1.13-1.13 1.14 1.14 0 0 1 1.13-1.13h5.64a1.14 1.14 0 0 1 0 2.27M67 113.5h-5.6a1.14 1.14 0 0 1-1.13-1.13 1.14 1.14 0 0 1 1.13-1.13H67a1.14 1.14 0 0 1 0 2.27m28.67-35.76H64.81a1.13 1.13 0 0 1-.1-2.26h31a1.13 1.13 0 1 1 .1 2.26h-.1m-8.23 6.81H63.69a1.17 1.17 0 0 1 0-2.26h23.75a1.17 1.17 0 0 1 0 2.26m-9.88 7.66h-15c-.31 0-.56-.51-.56-1.13s.25-1.13.56-1.13h15c.31 0 .56.5.56 1.13s-.25 1.13-.56 1.13"/><path d="M58.18 109.87H36.43c-.45 0-.8-.71-.73-1.5l5.65-47.61c0-.64.36-1.1.72-1.1h20.27c.45 0 .8.71.73 1.49l-5.65 47.62c-.05.63-.36 1.1-.72 1.1" style="fill:#f1f1f1;fill-rule:evenodd"/><path class="cls-3" d="M103.76 54.05H44.17c-1.64 0-2.9-.75-2.68-1.6l.42-1.69c.17-.7 1.32-1.23 2.68-1.23h59.59c1.63 0 2.89.75 2.68 1.6l-.42 1.69c-.18.7-1.32 1.23-2.68 1.23"/><path class="cls-2" d="M97.84 121H66.46a.49.49 0 1 1 0-1h31.38a5 5 0 0 0 4.92-4.38l8-66.88a5 5 0 0 0-4.33-5.52H40.84a5 5 0 0 0-4.92 4.38l-3.8 32.06a.48.48 0 0 1-1-.11l3.8-32.07a5.93 5.93 0 0 1 5.88-5.23h65a5.94 5.94 0 0 1 5.93 5.94v.7l-8 66.89a5.93 5.93 0 0 1-5.89 5.22"/><path class="cls-13" d="m41.51 207-.85 9a.44.44 0 0 0 .37.5l4.46.27a.37.37 0 0 0 .38-.36l.83-8.17Z"/><path class="cls-2" d="m41.15 216 4.25.26.78-7.67-4.24-1Zm4.36 1.24-4.51-.3a.86.86 0 0 1-.6-.31 1 1 0 0 1-.22-.73l.85-9a.48.48 0 0 1 .53-.44h.06l5.2 1.24a.49.49 0 0 1 .37.52l-.83 8.17a.87.87 0 0 1-.85.8Z"/><path class="cls-14" d="M38.78 219.49a2.25 2.25 0 0 0 1.64 2.51c3.08.84 10.46.8 16.61 1.07a1.59 1.59 0 0 0 1.54-1.21c1.17-3.46-5.29-4.53-11.67-8.05a.38.38 0 0 0-.4 0l-.27.19a4.27 4.27 0 0 1-4.09 0l-1.27-.77a.61.61 0 0 0-.84.21.46.46 0 0 0-.07.16c-.3 1.06-.92 4.05-1.18 5.85Z"/><path class="cls-2" d="M40.55 213.66a.14.14 0 0 0-.13.1c-.29 1.07-.91 4.07-1.16 5.79a1.76 1.76 0 0 0 1.29 2c2.24.61 7 .75 11.62.89 1.62 0 3.3.1 4.88.17a1.11 1.11 0 0 0 1.06-.88c.64-1.9-1.66-3-5.79-4.79-1.72-.74-3.66-1.59-5.59-2.65l-.24.16a4.81 4.81 0 0 1-4.6 0l-1.27-.77h-.07Zm16.53 9.88H57c-1.57-.07-3.25-.12-4.87-.17-4.88-.15-9.5-.29-11.85-.92a2.74 2.74 0 0 1-2-3c.26-1.8.88-4.81 1.19-5.91a1.09 1.09 0 0 1 .66-.73 1.07 1.07 0 0 1 1 .08l1.27.76a3.76 3.76 0 0 0 3.58 0l.25-.17a.86.86 0 0 1 .91 0c1.92 1 3.86 1.9 5.57 2.64 4.07 1.76 7.29 3.16 6.33 6a2.08 2.08 0 0 1-2 1.54Z"/><path class="cls-1" d="M38.59 220.3a.18.18 0 0 0 0 .06c-.16 1.13.91 1.83 1.93 2.31 3 1.43 15.33.61 15.8.58.15 0 1.71 0 2.16-1a1.85 1.85 0 0 0 .11-.45 2.28 2.28 0 0 0 0-.78.38.38 0 0 0-.44-.29c-2.28.58-7.6.77-12.92.19a13.65 13.65 0 0 1-5.89-1.66.4.4 0 0 0-.52.13.5.5 0 0 0 0 .13l-.15.74"/><path class="cls-2" d="m39.18 219.8-.11.59c-.1.65.41 1.21 1.66 1.79 2.34 1.1 11.2.83 15.56.53h.07c.46 0 1.45-.13 1.71-.69a1.85 1.85 0 0 0 .06-.81c-2.25.54-7.49.78-13 .18a14.76 14.76 0 0 1-5.95-1.59Zm9.42 4.2c-3.34 0-6.8-.19-8.29-.89-.67-.32-2.45-1.15-2.21-2.82v-.09l.14-.74a.86.86 0 0 1 1-.68 1 1 0 0 1 .29.11 13.48 13.48 0 0 0 5.69 1.58c5.47.61 10.66.36 12.75-.18a.86.86 0 0 1 1 .65 2.8 2.8 0 0 1 .05.95 1.9 1.9 0 0 1-.15.59c-.57 1.22-2.27 1.26-2.61 1.25-.68.05-4.13.27-7.73.27Zm-1.26-6.93a.48.48 0 0 1-.49-.48.51.51 0 0 1 .19-.39l1.87-1.42a.49.49 0 0 1 .58.78L47.63 217a.59.59 0 0 1-.29.1m2.47 1a.48.48 0 0 1-.48-.49.47.47 0 0 1 .19-.38l1.63-1.23a.49.49 0 0 1 .68.1.48.48 0 0 1-.1.68L50.1 218a.43.43 0 0 1-.29.1m-21.56-94.32a57.81 57.81 0 0 0-4.73 14.56c-1.11 7-5.19 35.6-15.13 58.57a4.15 4.15 0 0 0 2.95 5.92c1.11.24 1.57-.15 2.53-.62a8.51 8.51 0 0 0 1.32-1S32.78 186.54 40 147.94c4.61-24.84 3.84-22.87 3.84-22.87Z"/><path class="cls-2" d="M33.19 127s-2.07 13.5 1.81 23.47c3.75 9.59 6.15 47.18 4.75 58a1.26 1.26 0 0 0 1.07 1.41 24.83 24.83 0 0 0 6.89.17 1 1 0 0 0 .8-.74c1.39-5.51 12.92-55.31 4.79-80.83Z"/><path class="cls-1" d="M37.06 163a.48.48 0 0 1-.48-.44 47.23 47.23 0 0 0-2.5-10.91 26.48 26.48 0 0 1-1.52-5.87.49.49 0 0 1 .41-.55.48.48 0 0 1 .54.41 26.35 26.35 0 0 0 1.49 5.67 48.26 48.26 0 0 1 2.56 11.17.49.49 0 0 1-.44.53"/><path class="cls-13" d="M11.32 207.19a11.82 11.82 0 0 1 2-5.33c1-1.55-1.3-3.93-2.49-4.11-2.45-.55-1.77.35-4.05 3.28l-1.7 2.07s5.77 6.46 6.25 4.09"/><path class="cls-2" d="M10.8 208.19c-1.69 0-5.06-3.61-6.09-4.77a.49.49 0 0 1 0-.63l1.7-2.07c1.11-1.42 2.71-4 2.72-4.05a.49.49 0 1 1 .83.51c-.07.11-1.64 2.67-2.79 4.14l-1.44 1.76c2.2 2.41 4.58 4.35 5.09 4.14a.4.4 0 0 0 0-.12 19.38 19.38 0 0 1 2.71-6.73.48.48 0 0 1 .66-.16.49.49 0 0 1 .16.67 18.67 18.67 0 0 0-2.58 6.41 1 1 0 0 1-.74.87 1.07 1.07 0 0 1-.25 0"/><path class="cls-14" d="m11.63 206.17-2.31-3.49A3.12 3.12 0 0 0 5 201.8a4 4 0 0 0-.46.38l-2.63 2.22a6.78 6.78 0 0 0-.35 2.51A20.63 20.63 0 0 0 3 211.84c1.23 2.79 4.63 8.4 5.84 10.37.26.41.89.82 1.33.62a5.92 5.92 0 0 0 1.6-1.15c.81-.76.54-4.33.24-6.81-.18-1.6 0-5.66 0-7.33a2.3 2.3 0 0 0-.38-1.37"/><path class="cls-2" d="M2.33 204.68a5.66 5.66 0 0 0-.33 2.15 21 21 0 0 0 1.38 4.82c1.24 2.8 4.76 8.6 5.81 10.31.17.27.58.49.72.43a5.64 5.64 0 0 0 1.46-1.06c.13-.12.74-1 .1-6.41a70.49 70.49 0 0 1 0-7.41 1.78 1.78 0 0 0-.3-1.07L8.92 203a2.63 2.63 0 0 0-4-.43Zm7.56 18.69a1.91 1.91 0 0 1-1.48-.91A118.67 118.67 0 0 1 2.54 212a21.71 21.71 0 0 1-1.46-5 7.31 7.31 0 0 1 .37-2.74v-.13l2.74-2.3a3.57 3.57 0 0 1 2.88-1 3.61 3.61 0 0 1 2.62 1.59L12 205.9a2.87 2.87 0 0 1 .46 1.65 70.44 70.44 0 0 0 0 7.26c.65 5.53.09 6.77-.39 7.23a6.74 6.74 0 0 1-1.73 1.24 1.22 1.22 0 0 1-.46.09Z"/><path class="cls-2" d="M11.91 210.64h-.13l-2.49-.68a.5.5 0 0 1-.34-.6.49.49 0 0 1 .6-.34l2.49.69a.48.48 0 0 1 .34.59.49.49 0 0 1-.47.36m-.18 2.22h-.13l-2.49-.69a.49.49 0 0 1-.33-.6.48.48 0 0 1 .58-.33l2.49.68a.47.47 0 0 1 .34.59.46.46 0 0 1-.46.36"/><path class="cls-1" d="M9.19 223a2.08 2.08 0 0 0 .71-.12 3 3 0 0 0 2.4-3.48c-.22-2.76-2.32-4.17-3.86-6-1.17-1.39-1-7.18-1.42-8.31-.66-2-3.62-2.34-5.11-.73-.94 1-1.06 3.22-1 4.85.17 3 2 9.09 4.21 12a5 5 0 0 0 4 1.76"/><path class="cls-2" d="M4.34 203.85a2.85 2.85 0 0 0-2.08.88c-.65.7-.95 2.34-.83 4.49C1.59 212 3.27 218 5.54 221a4.57 4.57 0 0 0 3.65 1.56 1.67 1.67 0 0 0 .55-.09h.07a2.54 2.54 0 0 0 2-3c-.15-2-1.33-3.18-2.59-4.47-.38-.4-.78-.81-1.14-1.24-.88-1-1.09-3.88-1.26-6.17a16 16 0 0 0-.26-2.3A2.06 2.06 0 0 0 5 203.92a3.38 3.38 0 0 0-.63-.07m4.82 19.65a5.48 5.48 0 0 1-4.41-1.94c-2.39-3.09-4.15-9.34-4.32-12.29-.08-1.41 0-4 1.09-5.2A3.87 3.87 0 0 1 5.17 203a3.06 3.06 0 0 1 2.32 2 15.27 15.27 0 0 1 .3 2.53c.14 1.92.36 4.82 1 5.61.34.41.72.81 1.1 1.19 1.32 1.37 2.68 2.77 2.86 5.08a3.49 3.49 0 0 1-2.66 4h-.06a2.88 2.88 0 0 1-.87.14"/><path class="cls-2" d="M9.19 223.5a7 7 0 0 1-.92-.06.48.48 0 0 1-.42-.54.48.48 0 0 1 .54-.42 7 7 0 0 0 .8.05 1.45 1.45 0 0 0 1.11-.45 1.09 1.09 0 0 0 .24-.88c-.36-2.6-1.76-3.95-3.38-5.51s-1.83-5.79-2-8.14a11.15 11.15 0 0 0-.16-1.19 2.18 2.18 0 0 0-1.78-1.2 1.54 1.54 0 0 0-1.64.88.48.48 0 0 1-.66.2.47.47 0 0 1-.2-.65 2.52 2.52 0 0 1 2.6-1.4A3.13 3.13 0 0 1 6 206.11a11.08 11.08 0 0 1 .14 1.37c.16 2.06.5 6.34 1.72 7.51 1.68 1.62 3.26 3.14 3.67 6.08a2.07 2.07 0 0 1-.47 1.65 2.43 2.43 0 0 1-1.84.78"/><path class="cls-13" d="M52.07 73.25c.64.22.94 1.53 1 2.2.33 2.19-.81 7.33-2.4 7.67s-1.43-.38-2.63.29c-.95.53-1.55 3-1.94 5.12-.09.52 2.6 1.36 2.65 1.49.11.29-1 1.84-6.31 1.18-5-.63-7-3.79-7.07-4 0 0 .12-.06.29-.09a4.91 4.91 0 0 0 3.08-1.68l.52-.6A27.81 27.81 0 0 0 43.17 79c1.44-2.95 4.38-7.24 8.9-5.71"/><path class="cls-2" d="M36.18 87.49a9.64 9.64 0 0 0 6.36 3.23c3.42.43 5-.11 5.54-.49h-.1c-1.53-.61-2.44-1-2.32-1.73.61-3.28 1.28-5 2.19-5.47a2 2 0 0 1 1.58-.3 2.61 2.61 0 0 0 1.18 0c1.06-.23 2.37-4.82 2-7.13-.16-1-.49-1.73-.71-1.81-4-1.36-6.74 2.22-8.32 5.46a27 27 0 0 1-3.94 5.94l-.52.61a5.34 5.34 0 0 1-3 1.77m8.67 4.36a19.12 19.12 0 0 1-2.43-.17c-5.12-.64-7.45-4-7.49-4.47s.52-.58.71-.61a4.48 4.48 0 0 0 2.77-1.51l.52-.61a26.64 26.64 0 0 0 3.8-5.73c2.48-5.08 5.85-7.2 9.5-6 .84.29 1.2 1.57 1.35 2.59.35 2.31-.76 7.79-2.77 8.22a3.47 3.47 0 0 1-1.55 0 1.11 1.11 0 0 0-.94.2c-.41.23-1 1.22-1.67 4.65a9.78 9.78 0 0 0 1.69.8c.67.28.81.33.9.57a.77.77 0 0 1-.18.77c-.26.33-1.24 1.23-4.21 1.23"/><path class="cls-2" d="M49.22 79h-.07a2.51 2.51 0 0 1-1.84-2.39c-.12-1 .19-1.8.79-2 1-.39 1.88.71 2.2 1.43a.49.49 0 0 1-.89.4c-.13-.29-.61-1.06-1-.92-.07 0-.24.38-.17 1s.43 1.46 1 1.54a.48.48 0 0 1-.06 1"/><path class="cls-2" d="M53.45 68.19c-2.12-3-4.69-4.38-7.23-4.49h-.56a8.39 8.39 0 0 0-4.54 1.54 15.34 15.34 0 0 0-2 1.66c-3.31 3-3.44 5.08-7.16 6.15-1.81.52-6.81-1.93-11.65 1.67-5.79 4.28-1.78 7.88-6.44 12.81S6 89.56 2.35 94.72c-4.36 6.12-2.5 14.2 4.35 19.52 7.2 5.59 15.93 6.48 20.76 1.71 6-6 3.75-27.91 3.75-27.91a46.89 46.89 0 0 1 6.11-.58 5.93 5.93 0 0 0 4.45-2.33 56.32 56.32 0 0 0 6-9.66c.1-.23.53-1.06 1.14-.68.4.25.77 1.81 1.18 1.68.64-.21.46-2.35 2.21-2.72 2.52-.54 2.45-3.73 1.18-5.56"/><path class="cls-13" d="M67.21 97.79c-.53 3.25-2.55 10.15-2.9 10s-2.19-3.4-2.19-3.4l-6.69 5.81s7 10.6 11.19 7.65c3-2.12 3.79-16.45 3.95-19a1.88 1.88 0 0 1 .26-.86s2.67-2.33 1.61-4.43a8.21 8.21 0 0 1-.51-1c-.07-.28 3.1-3 2.57-4.24-.29-.71-3.79 2.07-4.62 2.69a13.89 13.89 0 0 0-2 1.87c-1.67 1.87-.66 4.65-.71 4.91"/><path class="cls-2" d="M56.08 110.32c1 1.45 5 6.92 8.32 7.55a2.4 2.4 0 0 0 1.94-.38c1-.71 2.85-4 3.73-18.35v-.29a2.25 2.25 0 0 1 .33-1.09 1.3 1.3 0 0 1 .12-.14c.69-.66 2.21-2.35 1.47-3.81l-.11-.21a4.13 4.13 0 0 1-.44-.92c-.09-.34.11-.56.76-1.28a8.49 8.49 0 0 0 1.85-2.65 19.09 19.09 0 0 0-3.52 2.36l-.38.29a13.81 13.81 0 0 0-1.89 1.8c-1.21 1.36-.82 3.3-.65 4.14a1.44 1.44 0 0 1 .06.53c-.4 2.43-2.34 9.9-3.1 10.37a.5.5 0 0 1-.43.05c-.17-.05-.6-.18-2.18-3.1Zm8.92 8.57a4 4 0 0 1-.75-.07c-4.19-.8-9-8-9.19-8.32l-.24-.35 7.47-6.49.28.54c.56 1 1.26 2.24 1.68 2.84a65.82 65.82 0 0 0 2.51-9.28v-.23c-.18-.89-.65-3.25.88-5a14.19 14.19 0 0 1 2-1.94l.38-.29c2.77-2.1 3.91-2.75 4.54-2.58a.65.65 0 0 1 .44.38c.44 1.07-.7 2.47-2 3.92l-.48.54c.08.17.22.42.29.55l.12.23c1 2-.81 4.14-1.65 4.95a1.4 1.4 0 0 0-.17.59v.29c-.69 11.22-2.08 17.64-4.14 19.09a3.25 3.25 0 0 1-1.97.63Z"/><path class="cls-13" d="M14.71 134.05c-.13.36.19 1 .14 1.35-.16 1.06-1.75 2.55-2.92 3.51a4.08 4.08 0 0 0-1.48 3.09v.92a1.37 1.37 0 0 1-.55 1.38 1.07 1.07 0 0 1-1.59-.83c-.18-1.68-.48-5.15 0-6.38a9.64 9.64 0 0 1 2.26-2.72 4.45 4.45 0 0 0 1.43-3.3c0-4.34 2.4-17 5.25-25.89l7.12 3.92s-5 11.75-9.68 24.91"/><path class="cls-2" d="M17.55 105.93c-2.76 8.83-5.07 21.08-5.05 25.18a4.93 4.93 0 0 1-1.59 3.66 8.8 8.8 0 0 0-2.12 2.54c-.31.8-.3 3.09 0 6.14a.63.63 0 0 0 .35.49.51.51 0 0 0 .51 0c.23-.14.34-.46.31-.94v-1a4.55 4.55 0 0 1 1.66-3.49c1.64-1.36 2.65-2.54 2.75-3.22a2.64 2.64 0 0 0-.07-.35 2 2 0 0 1-.05-1.08c4.15-11.67 8.6-22.35 9.52-24.54ZM9.42 145a1.58 1.58 0 0 1-1.56-1.41c-.25-2.33-.45-5.37 0-6.6a9.24 9.24 0 0 1 2.38-2.9 4 4 0 0 0 1.27-2.95c0-4.28 2.33-16.84 5.28-26a.47.47 0 0 1 .61-.31.19.19 0 0 1 .08 0l7.12 3.93a.47.47 0 0 1 .21.61c0 .12-5 11.88-9.67 24.88a2.08 2.08 0 0 0 .09.54 1.87 1.87 0 0 1 .08.72c-.15 1-1.19 2.24-3.09 3.82a3.56 3.56 0 0 0-1.29 2.67v.9a1.82 1.82 0 0 1-.77 1.81 1.41 1.41 0 0 1-.77.22Z"/><path d="M29.07 88.59C36.58 86.2 50.2 87 54.05 90a27.86 27.86 0 0 1 9.22 13.16 5.41 5.41 0 0 1-.11 3.16c-1.14 3.33-4.51 11-6.49 8.94-1.82-1.89-2.61-3.2-2.46-1.68.4 4 1.1 18.53 1.1 18.53a2.5 2.5 0 0 0-2.46 2.26l-.75 7.75a.8.8 0 0 1-.89.72.74.74 0 0 1-.29-.08c-4.09-2.11-19-9.8-25-13.08a1.93 1.93 0 0 1-1-2c.71-4.1 3.09-16 2.31-18.36-.18-.54-1.47 1.68-3 3a.69.69 0 0 1-.87 0l-7.16-5.67a1.8 1.8 0 0 1-.56-2.11c1.46-3.73 5.36-13.36 13.43-15.95" style="fill:#398296;fill-rule:evenodd"/><path class="cls-2" d="M27.13 108.68a.6.6 0 0 1 .57.42c.65 2-.58 9.16-1.89 16.34-.16.88-.3 1.65-.4 2.25a1.43 1.43 0 0 0 .73 1.51c6 3.26 20.66 10.83 25 13.08a.33.33 0 0 0 .44-.14.56.56 0 0 0 0-.12l.75-7.75a3 3 0 0 1 2.43-2.65c-.12-2.5-.71-14.48-1.07-18.05 0-.33-.1-.94.37-1.14s.88.2 1.81 1.24c.32.35.68.76 1.11 1.2a.48.48 0 0 0 .5.19c1.5-.33 4-5.41 5.18-9a4.84 4.84 0 0 0 .1-2.87 27.17 27.17 0 0 0-9-12.9c-3.76-2.83-17.32-3.54-24.55-1.24-7.86 2.51-11.69 12-13.13 15.59a1.32 1.32 0 0 0 .41 1.54l7.16 5.67a.21.21 0 0 0 .26 0 16.47 16.47 0 0 0 1.86-2c.66-.79.98-1.17 1.36-1.17Zm24.16 34.6a1.25 1.25 0 0 1-.59-.14c-4.35-2.24-19-9.82-25-13.09a2.4 2.4 0 0 1-1.22-2.53c.1-.6.24-1.37.4-2.26.81-4.45 2.27-12.43 2-15.22-.13.15-.26.3-.38.46a17.68 17.68 0 0 1-2 2.13 1.19 1.19 0 0 1-1.49 0L15.88 107a2.31 2.31 0 0 1-.71-2.67c1.49-3.69 5.44-13.51 13.74-16.15 7.59-2.42 21.37-1.65 25.42 1.43A28.3 28.3 0 0 1 63.74 103a5.93 5.93 0 0 1-.12 3.44c0 .09-3.09 9-5.89 9.58a1.46 1.46 0 0 1-1.41-.47c-.39-.4-.76-.81-1.13-1.23l-.47-.51c.41 4.39 1.06 18.09 1.07 18.23a.48.48 0 0 1-.46.51 2 2 0 0 0-2 1.82l-.75 7.75a1.29 1.29 0 0 1-1.29 1.17Z"/><path d="m175 92.69-6-9.47.39-.28a4.72 4.72 0 0 0 1.59-3.76 4.21 4.21 0 0 0-.72-2.36l-.26-.38 9.32-7.53.3.44a17.13 17.13 0 0 1 2.87 9.86c-.25 7.63-5.9 12.29-7 13.15Zm-4.69-9.23 5 7.76c1.63-1.35 6-5.56 6.2-12a16 16 0 0 0-2.51-8.86l-.84.64-6.9 5.65a5.18 5.18 0 0 1 .65 2.53 5.94 5.94 0 0 1-1.62 4.28Z"/></svg>