<svg height="24" viewBox="0 0 216 146" width="24" xmlns="http://www.w3.org/2000/svg"><path d="m172.77 123.025-27.945-27.945c6.735-9.722 10.104-20.56 10.104-32.508 0-7.767-1.51-15.195-4.527-22.283-3.014-7.09-7.088-13.2-12.22-18.336s-11.243-9.207-18.33-12.22c-7.09-3.016-14.52-4.523-22.286-4.523-7.768 0-15.196 1.508-22.284 4.523-7.09 3.014-13.2 7.088-18.332 12.22-5.132 5.134-9.206 11.245-12.22 18.333-3.015 7.088-4.522 14.515-4.522 22.282 0 7.766 1.507 15.192 4.522 22.282 3.014 7.088 7.088 13.197 12.22 18.33 5.134 5.134 11.245 9.207 18.333 12.222 7.09 3.015 14.516 4.522 22.283 4.522 11.95 0 22.786-3.37 32.51-10.105l27.943 27.863c1.955 2.064 4.397 3.096 7.332 3.096 2.824 0 5.27-1.03 7.332-3.096 2.064-2.063 3.096-4.508 3.096-7.332 0-2.877-1.002-5.322-3.013-7.33zm-49.413-34.668c-7.143 7.143-15.737 10.713-25.787 10.713-10.048 0-18.643-3.57-25.786-10.713-7.144-7.143-10.714-15.737-10.714-25.787 0-10.047 3.572-18.643 10.714-25.785 7.142-7.143 15.738-10.715 25.786-10.715s18.643 3.573 25.787 10.715c7.143 7.142 10.715 15.738 10.715 25.786 0 10.05-3.573 18.647-10.715 25.79z" fill="#fff"/></svg>