<svg id="Layer_1" xmlns="http://www.w3.org/2000/svg" viewBox="0 0 540 240"><defs><style>.cls-1{fill:none}.cls-2{fill:#66aca6}.cls-3{fill:#fff}.cls-4{fill:#9355dc}.cls-5{fill:#9f5e32}.cls-6{fill:#32a386}.cls-7{fill:#addacf}.cls-8{fill:#a4caeb}.cls-9{fill:#d5bfff}.cls-10{fill:#d59467}.cls-11{fill:#caddff}.cls-12{fill:#dae9f7}.cls-13{fill:#5f3617}.cls-14{fill:#783cb9}</style></defs><path class="cls-1" d="M0 0h540v240H0z"/><path class="cls-2" d="M62 218c-13.23 0-24-10.77-24-24s10.77-24 24-24 24 10.77 24 24-10.77 24-24 24Zm0-46.08c-12.17 0-22.08 9.9-22.08 22.08s9.91 22.08 22.08 22.08 22.08-9.9 22.08-22.08-9.91-22.08-22.08-22.08Z"/><path class="cls-2" d="M79 192c-8.82 0-16-7.18-16-16s7.18-16 16-16 16 7.18 16 16-7.18 16-16 16Zm0-30.12c-7.78 0-14.12 6.33-14.12 14.12s6.33 14.12 14.12 14.12 14.12-6.33 14.12-14.12-6.33-14.12-14.12-14.12ZM434 82c-6.62 0-12-5.38-12-12s5.38-12 12-12 12 5.38 12 12-5.38 12-12 12Zm0-22.15c-5.6 0-10.15 4.55-10.15 10.15S428.4 80.15 434 80.15 444.15 75.6 444.15 70 439.6 59.85 434 59.85ZM479 79c-8.82 0-16-7.18-16-16s7.18-16 16-16 16 7.18 16 16-7.18 16-16 16Zm0-30.12c-7.78 0-14.12 6.33-14.12 14.12s6.33 14.12 14.12 14.12 14.12-6.33 14.12-14.12-6.33-14.12-14.12-14.12Z"/><path class="cls-2" d="M466 63c-11.03 0-20-8.97-20-20s8.97-20 20-20 20 8.97 20 20-8.97 20-20 20Zm0-38.1c-9.98 0-18.1 8.12-18.1 18.1s8.12 18.1 18.1 18.1 18.1-8.12 18.1-18.1-8.12-18.1-18.1-18.1ZM502 50c-5.51 0-10-4.49-10-10s4.49-10 10-10 10 4.49 10 10-4.49 10-10 10Zm0-18.18c-4.51 0-8.18 3.67-8.18 8.18s3.67 8.18 8.18 8.18 8.18-3.67 8.18-8.18-3.67-8.18-8.18-8.18Z"/><path class="cls-1" d="M108 0h324v240H108z"/><path class="cls-3" d="M349.52 74.37h32.49v60.49h-32.49z"/><path d="M382.01 135.29c-.23 0-.41-.18-.41-.41V74.4c0-.23.19-.41.41-.41s.41.18.41.41v60.48c0 .23-.18.41-.41.41Z"/><path class="cls-12" d="M196.15 67.15h88.04v67.71h-88.04z"/><path class="cls-8" d="M173.35 74.42h22.68a.2.2 0 0 0 .2-.2v-6.97a.2.2 0 0 0-.2-.2h-6.87s-.06.01-.08.02l-15.81 6.96c-.2.09-.14.39.08.39ZM349.33 74.37h35.31c.18 0 .23-.25.07-.32L368.13 67h-18.8v7.37Z"/><path d="M384.61 74.78h-15.83c-.23 0-.41-.18-.41-.41s.18-.41.41-.41h14.66l-15.39-6.54H352.4c-.23 0-.41-.19-.41-.41s.18-.41.41-.41h15.73c.06 0 .11.01.16.03l16.55 7.04c.26.11.4.38.35.66a.58.58 0 0 1-.58.47Z"/><path class="cls-8" d="M305.28 37.64h-64.16l49.27 22.35h63.26c.21 0 .27-.28.08-.37l-48.46-21.98Z"/><path d="M353.81 60.4h-2.77c-.23 0-.41-.19-.41-.41s.18-.41.41-.41h1.61L305.2 38.06h-59.54c-.23 0-.41-.18-.41-.41s.18-.41.41-.41h59.63c.06 0 .12.01.17.04l48.59 22.04c.25.11.38.38.32.64-.06.27-.29.45-.56.45Z"/><path class="cls-3" d="M290.52 60.01h-99.25l49.78-22.37 49.47 22.37z"/><path d="M290.52 60.45h-99.26a.44.44 0 0 1-.43-.35c-.04-.2.06-.41.25-.5l49.78-22.36c.12-.05.25-.05.37 0L290.7 59.6c.19.09.3.29.25.5-.04.2-.23.35-.43.35Zm-97.18-.89h95.12l-47.41-21.43-47.71 21.43Z"/><path class="cls-12" d="M284.21 67.08h65.29v67.66h-65.29z"/><path class="cls-3" d="M212.74 67.15h6.33v67.71h-6.33zM229.07 67.15h6.33v67.71h-6.33zM245.4 67.15h6.33v67.71h-6.33zM261.73 67.15h6.33v67.71h-6.33zM277.86 67.15h6.33v67.71h-6.33zM196.4 67.15h6.33v67.71h-6.33z"/><path class="cls-8" d="M294.19 67.15h6.33v67.71h-6.33zM310.52 67.15h6.33v67.71h-6.33zM326.85 67.15h6.33v67.71h-6.33zM343.18 67.15h6.33v67.71h-6.33z"/><path class="cls-8" d="M284.21 60.04h65.29v7.12h-65.29z"/><path d="M349.5 67.61h-65.29c-.25 0-.44-.2-.44-.44v-7.12c0-.25.2-.44.44-.44h65.29c.25 0 .44.2.44.44v7.12c0 .25-.2.44-.44.44Zm-64.85-.89h64.4v-6.23h-64.4v6.23Z"/><path class="cls-3" d="M261.73 134.86h22.45v15.34h-22.45z"/><path d="M284.18 150.64h-22.45c-.25 0-.44-.2-.44-.44v-15.34c0-.25.2-.44.44-.44h22.45c.25 0 .44.2.44.44v15.34c0 .25-.2.44-.44.44Zm-22.01-.89h21.57V135.3h-21.57v14.45Z"/><path class="cls-3" d="M349.48 134.86h32.54v15.29h-32.54z"/><path d="M382.02 150.59h-32.54c-.25 0-.44-.2-.44-.44v-15.29c0-.25.2-.44.44-.44h32.54c.25 0 .44.2.44.44v15.29c0 .25-.2.44-.44.44Zm-32.1-.89h31.65v-14.4h-31.65v14.4Z"/><path class="cls-3" d="M176.15 74.37h20.34v60.43h-20.34z"/><path d="M176.15 135c-.23 0-.41-.18-.41-.41V74.6c0-.23.18-.41.41-.41s.41.18.41.41v59.99c0 .23-.19.41-.41.41Z"/><g><path class="cls-3" d="M196.4 60.04h87.81v7.12H196.4z"/><path d="M284.21 67.61H196.4c-.25 0-.44-.2-.44-.44v-7.12c0-.25.2-.44.44-.44h87.81c.25 0 .44.2.44.44v7.12c0 .25-.2.44-.44.44Zm-87.36-.89h86.92v-6.23h-86.92v6.23Z"/></g><g><path class="cls-3" d="M176.16 134.89h20.33v15.3h-20.33z"/><path d="M196.5 150.63h-20.33c-.25 0-.44-.2-.44-.44v-15.3c0-.25.2-.44.44-.44h20.33c.25 0 .44.2.44.44v15.3c0 .25-.2.44-.44.44Zm-19.89-.89h19.44v-14.41h-19.44v14.41Z"/></g><g><path class="cls-3" d="M196.59 134.86h22.47v15.34h-22.47z"/><path d="M219.05 150.64h-22.47c-.25 0-.44-.2-.44-.44v-15.34c0-.25.2-.44.44-.44h22.47c.25 0 .44.2.44.44v15.34c0 .25-.2.44-.44.44Zm-22.02-.89h21.58V135.3h-21.58v14.45Z"/></g><g><path class="cls-3" d="M219.18 134.86h42.55v15.34h-42.55z"/><path d="M261.73 150.64h-42.55c-.25 0-.44-.2-.44-.44v-15.34c0-.25.2-.44.44-.44h42.55c.25 0 .44.2.44.44v15.34c0 .25-.2.44-.44.44Zm-42.11-.89h41.66V135.3h-41.66v14.45Z"/></g><path d="M188.71 74.84h-15.49a.57.57 0 0 1-.57-.47.58.58 0 0 1 .34-.66l15.98-7.03c.05-.02.11-.04.17-.04h4.06c.23 0 .41.18.41.41 0 .23-.18.41-.41.41h-3.98l-14.86 6.55h14.35c.23 0 .41.19.41.41s-.18.41-.41.41Z"/><g><path class="cls-12" d="M355.64 82.93h6.33v12.41h-6.33z"/><path class="cls-11" d="M355.64 109.2h6.33v12.41h-6.33z"/><path class="cls-12" d="M182.68 82.93h6.33v12.41h-6.33zM182.68 109.2h6.33v12.41h-6.33zM368.96 82.93h6.33v12.41h-6.33z"/><path class="cls-11" d="M368.96 109.2h6.33v12.41h-6.33z"/></g><g><path class="cls-8" d="M284.28 134.86h65.28v15.34h-65.28z"/><path d="M349.56 150.64h-65.28c-.25 0-.44-.2-.44-.44v-15.34c0-.25.2-.44.44-.44h65.28c.25 0 .44.2.44.44v15.34c0 .25-.2.44-.44.44Zm-64.83-.89h64.39V135.3h-64.39v14.45Z"/></g><g><path class="cls-8" d="M257.21 138.45h-10.5c-.25 0-.44-.2-.44-.44s.2-.44.44-.44h10.5c.25 0 .44.2.44.44s-.2.44-.44.44ZM257.21 141.52h-15.58c-.25 0-.44-.2-.44-.44s.2-.44.44-.44h15.58c.25 0 .44.2.44.44s-.2.44-.44.44ZM257.21 144.59h-20.75c-.25 0-.44-.2-.44-.44s.2-.44.44-.44h20.75c.25 0 .44.2.44.44s-.2.44-.44.44ZM257.21 147.65h-34.02c-.25 0-.44-.2-.44-.44s.2-.44.44-.44h34.02c.25 0 .44.2.44.44s-.2.44-.44.44Z"/></g><g><path d="M310.52 82.02c-.23 0-.41-.18-.41-.41V71.58c0-.23.19-.41.41-.41s.41.19.41.41v10.03c0 .23-.18.41-.41.41ZM326.85 97.44c-.23 0-.41-.19-.41-.41V71.12c0-.23.19-.41.41-.41s.41.18.41.41v25.91c0 .23-.18.41-.41.41ZM333.18 127.27c-.23 0-.41-.18-.41-.41V78.15c0-.23.19-.41.41-.41s.41.19.41.41v48.71c0 .23-.18.41-.41.41ZM284.18 132.57c-.23 0-.41-.18-.41-.41V70.19c0-.23.18-.41.41-.41s.41.18.41.41v61.97c0 .23-.19.41-.41.41ZM196.4 132.76c-.23 0-.41-.18-.41-.41v-62.6c0-.23.18-.41.41-.41s.41.18.41.41v62.6c0 .23-.18.41-.41.41ZM349.51 132.46c-.23 0-.41-.18-.41-.41V70.06c0-.23.19-.41.41-.41s.41.18.41.41v61.99c0 .23-.18.41-.41.41Z"/></g><g><path d="M145.87 157.18c-.92-.35-1.72-.96-2.22-1.81-.74-1.25-1.13-3.26.58-6.15 3.87-6.52 10.23-3.49 12.68-4.26 5.49-1.72 4.21-4.48 6.45-7.19 1.68-2.02 7.45-5.86 16.13 1.16 0 0 3.89 4.98 8.34 3.05 5.47-2.37 16.41 2.85 12.89 10.74a9.759 9.759 0 0 1-5.03 4.99c-.4.17-.84.34-1.31.5a4.25 4.25 0 0 0-2.79 3.07c-1.15 4.8-5.43 14.08-21.05 4.87a4.208 4.208 0 0 0-3.81-.24c-1.51.66-3.15 3.2-10.39 2.18-4.65-.66-6.1-5.72-7.31-8.02-.97-1.83-2.37-2.6-3.17-2.91Z"/><path class="cls-4" d="M201.22 165.28s3.03 2.99 4.81 10.86c1.77 7.88 11.71 12.9 16.83 10.44 5.12-2.46 5.28-3.72 5.28-3.72l-.41 3.97s-9 16.73-23.3 6.85c-2.94-2.03-7.06-5.19-8.17-7.72-4.29-9.76 4.95-20.68 4.95-20.68Z"/><path d="M213.35 197.25c-3.01 0-6.08-1.07-9.16-3.2-4.62-3.2-7.42-5.85-8.32-7.9-4.35-9.9 4.63-20.7 5.01-21.15.08-.09.2-.15.32-.16.13 0 .24.04.33.13.13.13 3.15 3.17 4.93 11.08.86 3.8 3.92 7.39 7.99 9.36 3.07 1.49 6.14 1.78 8.22.78 4.62-2.22 5.04-3.41 5.04-3.42v.04l.88.1-.41 3.97c0 .06-.02.11-.05.17-.18.33-4.41 8.07-11.8 9.85-.98.24-1.98.36-2.98.36Zm-12.12-31.27c-1.58 2.05-8.22 11.46-4.56 19.81.82 1.87 3.59 4.47 8.02 7.53 3.89 2.69 7.74 3.6 11.43 2.71 6.63-1.6 10.73-8.54 11.18-9.33l.25-2.4c-.78.67-2.14 1.56-4.5 2.7-2.32 1.11-5.68.82-8.99-.78-4.31-2.09-7.56-5.91-8.47-9.97-1.38-6.11-3.54-9.25-4.36-10.27Z"/><path class="cls-4" d="M204.42 190.83c-3.85-15.67 1.03-22.26-4.5-27.11-5.05-4.43-13.81-3-17.6-2.38-4.3.7-7.86 1.29-10.28 4.01-.64.72-1.1 1.48-1.41 2.28-4.63 8.68-.88 17.65 1.44 21.8.38 16.61-3.45 14.63.89 20.79 4.7 6.66 14.45 7.37 20.55 6.05 2.14-.47 12.14-1.43 14.88-10.05 1.8-5.66-1.14-3.88-3.97-15.39Z"/><path d="M190.71 197.35c-8.31 0-13.09-4.11-13.15-4.17a.453.453 0 0 1-.04-.63c.16-.18.44-.2.63-.04.08.07 8.45 7.24 22.38 2.08.23-.09.49.03.57.26.09.23-.03.49-.26.57-3.78 1.4-7.18 1.92-10.13 1.92ZM195.77 186.22c-7.25 0-11.47-4.12-13.79-7.75-2.71-4.26-3.41-8.65-3.44-8.83a.45.45 0 0 1 .37-.51c.24-.04.47.13.51.37 0 .04.71 4.41 3.33 8.52 3.48 5.44 8.52 7.87 15 7.21.25-.03.46.15.49.4.02.24-.15.46-.4.49-.71.07-1.4.11-2.07.11ZM201.35 181.03h-.07a.454.454 0 0 1-.38-.5c1.29-8.76-2.72-13.68-2.76-13.73a.446.446 0 0 1 .06-.63c.19-.16.47-.13.63.06.18.21 4.3 5.28 2.95 14.43-.03.22-.22.38-.44.38Z"/><path d="M188.18 217.27c-5.86 0-12.15-1.93-15.58-6.79-2.55-3.62-2.38-4.67-1.84-7.77.41-2.4 1.03-6.02.87-13.15-2.53-4.57-6.01-13.44-1.39-22.12.34-.87.83-1.65 1.48-2.38 2.53-2.84 6.24-3.45 10.54-4.15 3.82-.63 12.75-2.09 17.96 2.48 1.14 1 2.08 2.44 2.87 3.71.13.21.07.48-.14.61a.44.44 0 0 1-.61-.14c-.76-1.22-1.65-2.59-2.7-3.51-4.9-4.29-13.54-2.88-17.23-2.27-4.3.71-7.7 1.26-10.02 3.86-.59.66-1.02 1.37-1.33 2.15-.01.03-.03.06-.04.08-4.43 8.36-.99 16.96 1.45 21.34.04.06.05.13.06.21.17 7.29-.47 10.98-.89 13.43-.53 3.06-.65 3.79 1.69 7.11 4.3 6.1 13.43 7.32 20.09 5.87.2-.04.47-.09.79-.15 3.1-.55 11.35-2.03 13.75-9.6.94-2.97.52-3.8-.6-6.02-.78-1.54-1.85-3.65-2.93-7.43a.446.446 0 1 1 .86-.24c1.06 3.7 2.11 5.77 2.87 7.27 1.14 2.25 1.71 3.37.66 6.69-2.57 8.09-11.2 9.63-14.45 10.21-.31.06-.57.1-.76.14-1.69.37-3.54.57-5.43.57Z"/><g><path class="cls-10" d="M199.63 185.67s9.9-3.6 12.99-10.18l6.37-5.92s-.09 2.86-1.98 4.06c0 0 1.62 3.26-.77 5.51 0 0-1.8 1.43-2.87 1.45 0 0-3.14 10.28-11.61 13.34 0 0-2.38-3.61-2.13-8.26Z"/><path d="M201.76 194.38c-.15 0-.29-.07-.37-.2-.1-.15-2.46-3.79-2.2-8.53 0-.18.12-.33.29-.39.1-.04 9.76-3.62 12.74-9.95.02-.05.06-.1.1-.14l6.37-5.92a.46.46 0 0 1 .49-.08c.16.07.27.24.26.42 0 .12-.11 2.81-1.88 4.2.36.96 1.11 3.69-1.01 5.68 0 0-.02.02-.03.02-.18.14-1.65 1.29-2.81 1.51-.58 1.72-3.9 10.5-11.79 13.35-.05.02-.1.03-.15.03Zm-1.7-8.4c-.11 3.57 1.36 6.49 1.89 7.41 7.91-3.1 10.96-12.83 10.99-12.93.06-.18.22-.31.41-.31.67-.02 1.93-.83 2.59-1.34 2.11-2 .68-4.95.67-4.98-.1-.2-.03-.45.16-.57.93-.59 1.37-1.65 1.58-2.48l-5.37 4.99c-2.91 6.08-11.25 9.57-12.92 10.22Z"/></g><g><path class="cls-3" d="m227.13 176.93-19.53 22.63 9.76 1.53 20.1-21.91-10.33-2.25z"/><path d="M217.36 201.53h-.07l-9.76-1.53a.45.45 0 0 1-.35-.29.44.44 0 0 1 .08-.44l19.53-22.63c.11-.12.27-.18.43-.14l10.33 2.26c.16.03.28.15.33.3.05.15.01.32-.1.43l-20.09 21.9c-.08.09-.2.14-.33.14Zm-8.9-2.29 8.73 1.37 19.41-21.16-9.31-2.03-18.83 21.83Z"/></g><g><path class="cls-10" d="M225.76 191.99s3.29-1.29 4.66-2.89.04-7.15.04-7.15l-4.7 10.04Z"/><path d="M225.76 192.44a.444.444 0 0 1-.4-.63l4.7-10.04c.08-.17.26-.27.45-.25.19.02.34.15.39.34.14.59 1.35 5.82-.13 7.54-1.43 1.67-4.7 2.96-4.84 3.01-.05.02-.11.03-.16.03Zm4.53-9.08-3.63 7.75c1.05-.5 2.61-1.35 3.42-2.29.78-.91.53-3.61.21-5.45Z"/></g><g><path class="cls-14" d="M175.21 200.37s11.5 3.29 35.77-6.9c0 0 2.44 17.3-19.07 20.55-21.5 3.25-16.68-9.69-16.7-13.65Z"/><path class="cls-14" d="M191.35 209.08s13.71-14.11 17.69-17.63c3.97-3.52 6.72-5.8 10.54-3.83s-1.47 18.4-10.3 24.27c-8.84 5.87-14.37 3.27-14.37 3.27l-3.56-6.09Z"/><path d="M198.35 216.2c-2.24 0-3.52-.58-3.63-.63a.414.414 0 0 1-.19-.18l-3.56-6.09a.44.44 0 0 1 .07-.53c.14-.14 13.77-14.16 17.71-17.65 3.82-3.39 6.84-6.06 11.04-3.9.62.32 1.37 1.12 1.49 3.12.3 5.48-4.49 17.11-11.75 21.92-4.78 3.17-8.61 3.93-11.18 3.93Zm-3.13-1.38c.83.31 6.01 1.89 13.81-3.29 7.01-4.66 11.64-15.86 11.35-21.13-.05-.87-.26-1.99-1.01-2.37-3.49-1.8-5.97.16-10.04 3.77-3.63 3.22-15.59 15.48-17.43 17.36l3.31 5.66Z"/><path class="cls-3" d="m189.16 210.24-3.55 6.69s3.39 3.69 10.51 3.14c6.86-.52 5.71-3.77 4.3-5.03-1.41-1.26-8.61-5.08-11.25-4.8Z"/><path d="M194.69 220.57c-6.25 0-9.27-3.2-9.4-3.34a.456.456 0 0 1-.07-.51l3.55-6.69c.07-.13.2-.22.35-.23 2.89-.3 10.18 3.65 11.6 4.91.83.75 1.5 2.03 1.1 3.2-.5 1.48-2.41 2.35-5.66 2.6-.51.04-.99.06-1.46.06Zm-8.53-3.73c.85.75 4.12 3.24 9.92 2.79 2.78-.21 4.52-.92 4.89-2 .27-.79-.23-1.7-.85-2.26-1.37-1.23-8.07-4.7-10.67-4.7h-.02l-3.28 6.17Z"/><path d="M195.7 219.27c-.98 0-2.02-.1-3.03-.29-3.56-.67-4.72-1.51-4.77-1.55a.438.438 0 0 1-.09-.62c.15-.2.43-.24.62-.09 0 0 1.09.76 4.4 1.38 3.54.66 6.52.03 6.73-.96a.443.443 0 1 1 .87.17c-.27 1.33-2.31 1.94-4.73 1.94Z"/><g><path class="cls-14" d="m192.45 209.93-6.44 8.14s-18.1-4.54-25.17-11.06c-7.07-6.52-10.49-12.27-6.49-16.55 4-4.28 11.62-2.27 16.49 2.56 4.87 4.83 14.27 13.83 21.61 16.91Z"/><path d="M186.02 218.51s-.07 0-.11-.01c-.74-.19-18.29-4.64-25.36-11.16-5.48-5.06-8.21-9.16-8.33-12.54-.06-1.72.55-3.28 1.81-4.64 1.48-1.58 3.52-2.44 5.91-2.49 3.72-.08 8.02 1.86 11.22 5.03 3.38 3.35 13.65 13.53 21.47 16.82a.45.45 0 0 1 .18.69l-6.44 8.14a.44.44 0 0 1-.35.17Zm-25.88-29.95h-.18c-2.14.04-3.96.8-5.27 2.2-1.12 1.19-1.63 2.5-1.58 4 .12 3.13 2.75 7.03 8.05 11.92 6.43 5.93 22.39 10.28 24.7 10.88l5.9-7.46c-7.9-3.57-17.88-13.47-21.21-16.77-2.98-2.96-6.95-4.77-10.39-4.77Z"/></g></g><g><path class="cls-10" d="M199.29 159.25c-.29-1.96.18-7.14.09-7.02-.84 1.23-3.6-.23-6.09-.32-2.49-.1-1.65 3.63-1.65 3.63s-.73-2.53-2.28-.95c-.9.92.09 2.11 1.02 2.88-.25.29-4.74 5.11-7.48 7.97l6.09 4.61 3.05-2.84-.62-.99c-.44-.7-.48-1.59-.1-2.33l1.49-2.52c.34.41.77.89 1.17 1.16.79.55 1.78.47 2.48-.2.96-.91 1.63-1.94 1.94-2.94l.9-.15Z"/><path d="M188.98 170.51a.46.46 0 0 1-.27-.09l-6.09-4.61a.444.444 0 0 1-.17-.32c-.01-.13.03-.25.12-.34 2.43-2.54 6.09-6.47 7.17-7.63-.75-.71-1.15-1.39-1.18-2.02-.02-.44.14-.86.48-1.2.53-.54 1.07-.75 1.59-.62.16.04.3.11.43.2.04-.61.19-1.26.59-1.73.27-.32.78-.7 1.65-.67.95.04 1.94.26 2.82.46 1.3.3 2.53.58 2.89.05.11-.16.32-.24.51-.17q.34.12.26 1.58c-.09 1.57-.25 4.48-.06 5.79a.44.44 0 0 1-.37.5l-.64.11c-.36.99-1.04 1.98-1.97 2.87-.86.82-2.08.91-3.04.24-.25-.18-.54-.44-.85-.77l-1.18 1.99c-.29.57-.26 1.3.1 1.87l.62.99c.11.18.08.42-.07.56l-3.05 2.84c-.08.08-.19.12-.3.12Zm-5.42-5.11 5.39 4.08 2.51-2.34-.43-.68a2.82 2.82 0 0 1-.12-2.77l1.5-2.55a.445.445 0 0 1 .73-.06c.43.51.79.88 1.09 1.08.62.43 1.37.37 1.92-.16.9-.86 1.53-1.81 1.82-2.75.05-.16.18-.28.35-.31l.49-.08c-.13-1.5 0-3.99.1-5.54l.02-.27c-.79.23-1.87-.02-2.99-.28-.88-.2-1.78-.41-2.65-.44-.42-.02-.73.1-.94.35-.57.68-.38 2.21-.26 2.74.05.23-.09.47-.32.53a.452.452 0 0 1-.54-.31c-.1-.33-.42-1.04-.8-1.14-.24-.06-.54.17-.74.38-.16.17-.24.34-.23.54.02.45.46 1.06 1.21 1.69.09.08.15.19.16.31 0 .12-.03.24-.11.33-.23.26-4.34 4.68-7.15 7.63Z"/><g><path class="cls-3" d="m192.32 160.72.48.66-.48-.66Z"/><path d="M192.8 161.83c-.14 0-.27-.06-.36-.19l-.48-.66c-.14-.2-.1-.48.1-.62s.48-.1.62.1l.48.66c.14.2.1.48-.1.62a.42.42 0 0 1-.26.08Z"/></g></g></g><g><path class="cls-3" transform="rotate(180 365.19 173.835)" d="M312.02 167.9h106.34v11.86H312.02z"/><path d="M418.36 180.21H312.02c-.25 0-.44-.2-.44-.44v-11.86c0-.25.2-.44.44-.44h106.34c.25 0 .44.2.44.44v11.86c0 .25-.2.44-.44.44Zm-105.89-.89h105.45v-10.97H312.47v10.97Z"/><path class="cls-13" d="M344.86 201.49c-.54-.54-3.64-10.19-3.64-10.19l-6.13 4.37 6.72 9.03 3.05-3.21Z"/><path d="M341.81 205.14h-.03c-.13 0-.25-.07-.33-.18l-6.72-9.03c-.07-.1-.1-.22-.08-.33a.43.43 0 0 1 .18-.29l6.13-4.37c.12-.08.26-.1.4-.06.13.04.24.15.28.29 1.45 4.51 3.18 9.55 3.54 10.02.17.17.16.43 0 .6l-3.05 3.21c-.08.09-.2.14-.32.14Zm-6.09-9.37 6.13 8.24 2.46-2.59c-.73-1.49-2.42-6.59-3.33-9.4l-5.26 3.75Z"/><path d="m333.82 213.68 4.07-.02c2.7-.02 5.2-1.39 6.67-3.64l4.03-6.38a3.59 3.59 0 0 0-1.35-5.08c-1.68-.89-3.44-1.76-3.86-1.72-.84.08-1.18 4.04-1.18 4.04l-3.63.14s-1.79 7.46-3.37 8.3c-1.15.62-1.95 1.52-2.49 2.35-.57.87.07 2.01 1.1 2.01Z"/><path class="cls-9" d="M334.23 212.54a.45.45 0 0 1-.07-.89l5.57-.84a3.78 3.78 0 0 0 2.68-1.8l4.92-8.23c.13-.21.4-.28.61-.15.21.13.28.4.15.61l-4.92 8.23a4.673 4.673 0 0 1-3.31 2.22l-5.57.84h-.07Z"/><path class="cls-3" d="M341.1 206.35s-.08 0-.12-.02l-3.1-.85a.438.438 0 0 1-.31-.55c.06-.24.31-.38.55-.31l3.1.85c.24.06.38.31.31.55-.05.2-.23.33-.43.33ZM339.49 207.94s-.07 0-.11-.01l-2.08-.51a.455.455 0 0 1-.33-.54c.06-.24.3-.38.54-.33l2.08.51c.24.06.38.3.33.54-.05.2-.23.34-.43.34Z"/><path class="cls-13" d="m323.95 199.65-7.11 7.14-3.77-1.38 6.56-9.14 4.32 3.38z"/><path d="M316.84 207.24c-.05 0-.1 0-.15-.03l-3.77-1.38a.435.435 0 0 1-.27-.29.45.45 0 0 1 .06-.39l6.56-9.14c.07-.1.18-.16.3-.18.12-.02.24.01.34.09l4.33 3.38c.1.08.16.2.17.32 0 .13-.04.25-.13.34l-7.11 7.15c-.08.09-.2.13-.32.13Zm-3.07-2.05 2.95 1.09 6.56-6.59-3.57-2.79-5.95 8.29Z"/><path d="M319.09 205.68s.34 3.04-.24 5.73c-.31 1.43-1.6 2.44-3.07 2.44h-17.46c-1.25 0-1.81-1.56-.86-2.36 3.1-2.6 8.81-6.57 15.83-7.74l1.96 2.74 3.83-.81Z"/><path class="cls-9" d="M317.25 211.89h-18.09c-.25 0-.44-.2-.44-.44s.2-.44.44-.44h18.09c.25 0 .44.2.44.44s-.2.44-.44.44Z"/><path class="cls-3" d="M309.25 208.67c-.17 0-.34-.1-.41-.28l-.96-2.32c-.09-.23.01-.49.24-.58.23-.09.49.01.58.24l.96 2.32c.09.23-.01.49-.24.58-.06.02-.11.03-.17.03ZM306.1 209.28c-.19 0-.36-.12-.42-.31l-.69-2.1c-.08-.23.05-.48.28-.56.23-.08.48.05.56.28l.69 2.1c.08.23-.05.48-.28.56-.05.02-.09.02-.14.02Z"/><path class="cls-14" d="M361.6 149.64s-32.5-3.78-42.17 4.58c-9.67 8.37 15.26 44.35 15.26 44.35l7.88-5.85-7.48-25.43 30.05-8.53-3.54-9.12Z"/><path class="cls-14" d="M379.49 166.2c-4.72 1.5-13.17 3.44-24.98 3.27a8.823 8.823 0 0 0-7.98 4.8c-3.5 6.86-11.07 19.21-23.4 27.21l-5.89-3.17 15.03-33.84c1.37-3.09 3.94-5.49 7.11-6.65l29.79-10.92s9.24-2.58 13.77 5.66c.81 1.47 2.31-1.16 2.67.03 1.23 4.07-2.07 12.32-6.13 13.61Z"/><path class="cls-3" d="M325.49 180.21a.452.452 0 0 1-.41-.63l6.79-15.29a13 13 0 0 1 7.37-6.89l14.27-5.23c.23-.08.49.03.57.26.08.23-.03.49-.26.57l-14.27 5.23a12.155 12.155 0 0 0-6.86 6.42l-6.79 15.29c-.07.17-.24.26-.41.26ZM333.42 193.36c-.11 0-.22-.04-.31-.12a.444.444 0 0 1-.01-.63 75.48 75.48 0 0 0 3.96-4.49c.15-.19.43-.22.63-.07.19.15.22.43.07.63a73.972 73.972 0 0 1-4.01 4.55c-.09.09-.2.14-.32.14Z"/><path class="cls-3" d="M337.4 188.84c-.1 0-.2-.03-.28-.1a.454.454 0 0 1-.07-.63c.63-.77 1.25-1.58 1.85-2.39.15-.2.43-.24.62-.09.2.15.24.43.09.62-.61.82-1.24 1.63-1.88 2.42-.09.11-.22.17-.35.17Z"/><g><path class="cls-13" d="M333.6 146.52c2.19-.28 4.15.12 5.52.56 14.76-4.55 15.09-23.69 15.09-23.69s8.83-1.46 8.5 4.98c-.29 5.72-8.76 17.49-10.65 20.05h.23s-.11.04-.31.1c-.19.26-.3.4-.3.4l-.93-.05c-2.44.67-7.23 1.93-10.5 2.31-4.54.53-12.89 0-12.89 0s2.01-4.12 6.23-4.66Z"/><path d="M334.88 151.86c-3.72 0-7.31-.22-7.53-.24a.43.43 0 0 1-.36-.22.478.478 0 0 1-.02-.42c.09-.18 2.16-4.34 6.57-4.9 2.25-.29 4.25.12 5.58.54 14.15-4.48 14.64-23.04 14.64-23.23 0-.21.16-.4.37-.43.2-.03 5.01-.8 7.54 1.46 1.07.95 1.57 2.29 1.48 3.99-.28 5.52-7.71 16.15-10.44 19.89a.439.439 0 0 1-.3.57l-.17.05c-.14.19-.21.28-.21.28-.09.12-.23.18-.38.18l-.86-.05c-2.56.71-7.26 1.93-10.5 2.3-1.54.18-3.51.24-5.43.24Zm-6.76-1.08c2.12.11 8.41.39 12.08-.04 3.21-.37 7.91-1.6 10.43-2.29.05-.01.1-.02.14-.02l.7.04.16-.21s.03-.03.04-.05c0-.02.02-.04.03-.05 1.71-2.32 10.27-14.19 10.56-19.81.07-1.41-.33-2.51-1.18-3.28-1.85-1.65-5.32-1.41-6.44-1.29-.06 1.25-.38 5.34-2.02 9.9-2.57 7.14-7.19 11.92-13.37 13.83-.09.03-.18.03-.27 0-1.23-.4-3.16-.82-5.33-.54-2.99.38-4.82 2.7-5.54 3.81Z"/><path d="M381.54 106.89c-3.72-.88-5.28-.89-18.82-.4-3.31.12-7.24 4.27-7.63 7.56 1.05 3.15 5.91 18.73-2.57 30.89-1.2 1.73-2.84 3.62-5.08 5.43 1.26 1.02 3.22 2.35 5.85 3.13 4.37 1.3 6.56-.1 10.08 0 9.31.28 12.72 10.65 18.74 9.35 1.61-.35 3.73-1.6 5.73-5.8 1.13-3.48 2.14-7.57 2.7-12.2 1.52-12.53-.97-22.97-3.19-29.52-.66-2.07-1.43-7.41-5.82-8.45Z"/><path d="M351.69 126.3s2.19-17.55 8.5-19.05l-1.45 23.09-7.05-4.04Z"/><path class="cls-3" d="M393.01 125.66c.05 2.08.04 3.99-.05 5.54-.55 9.98-1.9 20.48-2.73 29.17-.17 1.84 2.75-.62 6.51-.61 1.08 0 2.13.39 2.97 1.08 1.53 1.24 4.2 3.44 3.89 3.44h-13.88c-2.19 0-4-1.72-4.1-3.91l-1.86-38.69 9.25 3.99Z"/><path d="M403.6 164.72h-13.88c-2.43 0-4.43-1.9-4.54-4.33l-1.86-38.69c0-.15.06-.3.19-.39.13-.09.29-.1.43-.04l9.25 3.99c.16.07.26.22.27.4.05 2.2.03 4.08-.05 5.57-.38 6.91-1.13 13.92-1.85 20.7-.32 2.99-.62 5.81-.87 8.49v.19c.22.04.93-.19 1.51-.38 1.16-.38 2.74-.9 4.51-.9h.05c1.17 0 2.32.42 3.25 1.18 4.23 3.42 4.18 3.55 4.05 3.92-.06.18-.25.31-.44.31Zm-19.36-42.35 1.83 37.98c.09 1.95 1.7 3.49 3.66 3.49h12.87a98.52 98.52 0 0 0-3.16-2.65 4.4 4.4 0 0 0-2.69-.98h-.04c-1.63 0-3.13.5-4.23.86-1.13.37-1.88.62-2.36.24-.25-.2-.36-.53-.32-.98.25-2.68.56-5.51.87-8.5.72-6.77 1.47-13.77 1.85-20.65.08-1.41.1-3.16.06-5.22l-8.33-3.59Zm6.44 38.26Z"/><g><path class="cls-3" d="M383.76 121.61c2.88 1.22 6.27 2.66 9.25 3.94v.11l-9.24-3.99v-.06Z"/><path d="M393.01 126.1c-.06 0-.12-.01-.18-.04l-9.25-3.99a.45.45 0 0 1-.27-.39v-.06a.44.44 0 0 1 .19-.39c.13-.09.29-.1.43-.05 3.62 1.53 6.73 2.86 9.25 3.94.16.07.27.22.27.4v.11c0 .15-.07.29-.19.38-.07.05-.16.08-.25.08Z"/></g><path d="M394.62 129.51s-.62-10.43-1.52-14.46c-1.9-8.48-12.88-8.56-12.88-8.56l1.92 21.57 12.48 1.45Z"/></g><g><path class="cls-13" d="m370.76 106.5-.37-5.27c-.25-.02-.43-.03-.48-.03-1.47-.02-1.95-.49-2.08-1.7-.08-.76-.11-1.88.26-3.28.04-.15.03-.31-.03-.45l-.25-.59c-.05-.19.01-.4.17-.53l.13-.11c.48-.39.88-.88 1.2-1.41.29-.49.79-1.42 1.14-1.58.97-.46 4.89-2.51 7.08 1.07 1.71 2.8-1.08 6.64-2.1 7.9-.25.3 1.66 6.28 1.66 6.28l2.46.59s-1.9 3.37-7.66 1.98c-4.11-.99-3.45-2.52-3.45-2.52l2.32-.34Z"/><path d="M374.55 110.15c-.81 0-1.73-.1-2.76-.35-1.99-.48-3.23-1.17-3.66-2.04-.29-.58-.12-1.04-.09-1.09.06-.14.19-.24.34-.27l1.92-.28-.32-4.48h-.07c-1.65-.02-2.35-.61-2.51-2.1-.12-1.15-.03-2.28.27-3.44.01-.06.01-.12 0-.16l-.25-.59s-.02-.04-.02-.06a.96.96 0 0 1 .32-.99l.13-.11c.42-.35.79-.78 1.1-1.3l.13-.22c.46-.78.81-1.35 1.2-1.53l.1-.05c3.46-1.67 6-1.24 7.55 1.29 1.77 2.9-.78 6.71-2.05 8.32.05.61.81 3.28 1.58 5.73l2.22.54c.14.03.25.13.3.25.06.13.05.27-.02.4-.07.12-1.49 2.54-5.39 2.54Zm-5.68-2.92s.04.11.07.17c.19.34.85 1 3.06 1.53 4 .97 6.01-.47 6.78-1.27l-1.79-.43a.46.46 0 0 1-.32-.3c-1.98-6.2-1.75-6.49-1.58-6.69 1.13-1.4 3.58-4.92 2.07-7.39-1.91-3.13-5.29-1.49-6.4-.95l-.11.05c-.19.11-.63.86-.81 1.18l-.14.23c-.36.6-.8 1.12-1.3 1.53l-.13.11s-.02.03-.02.05l.23.55c.1.23.12.49.05.74a8.506 8.506 0 0 0-.25 3.12c.1.95.36 1.29 1.64 1.3.06 0 .24.01.5.03.22.02.4.19.41.41l.37 5.27a.44.44 0 0 1-.38.47l-1.96.29Z"/><path d="M376.33 88.05c-1.06-.23-2.28-.07-2.8-.26-.83-.31-.86-1.3-2.01-1.58-1.39-.34-1.98.26-2.52 1.09-.09.14-.17.29-.24.47-.88 2.35.23 3.5.72 3.87 0 0 3.14 1.62 3.67 2.08.5.43 1.08 1.46.72 2.93-.05.19.04.39.2.48.19.11.43.06.56-.13.41-.59 1.3-1.73 1.93-1.46.8.34.55 2.73-1.21 3-.54.08-.98.64-.92 1.2.03.37.38.82.9.93.31.07.63-.05.9-.23 1.15-.73 4.38-3.83 4.78-6.62.48-3.35-3.27-5.47-4.69-5.78ZM370 101.59c-.22 0-.4-.18-.41-.4 0-.23.17-.42.4-.43.02 0 1.1-.06 1.83-.67.17-.15.43-.13.58.05.15.17.13.43-.05.58-.96.81-2.28.87-2.33.87H370Z"/></g><g><path class="cls-4" d="M351.44 198.87c.05.19-2.22 10.57-2.22 10.57l5.21-.87 1.57-8.77-4.56-.92Z"/><path class="cls-3" d="M351.99 206.04c-.32-.27-.77-.53-1.35-.55-.87-.04-1.67.51-2.03 1.31-.9 2.01-3.29 7.61-3.96 12.18-.24 1.62.98 2.93 2.88 1.87 3.11-1.74 7.44-5.72 9.7-11.61.26-.68.17-1.44-.26-2.02a9.92 9.92 0 0 0-1.37-1.54c-.52-.47-1.31-.48-1.86-.03l-.49.4c-.37.3-.89.3-1.26 0Z"/><path d="M346.24 221.68c-.53 0-.91-.19-1.15-.35-.7-.48-1.04-1.41-.89-2.42.68-4.59 3.02-10.13 4-12.3.44-.99 1.43-1.62 2.46-1.58.58.02 1.14.25 1.62.66.2.17.49.17.69 0l.49-.4c.72-.59 1.75-.58 2.44.04.48.43.97.98 1.43 1.61.52.7.63 1.62.32 2.44-2.28 5.93-6.61 10-9.9 11.84-.59.33-1.09.44-1.5.44Zm4.31-15.75c-.64 0-1.26.42-1.54 1.05-.96 2.14-3.27 7.58-3.93 12.06-.1.67.1 1.27.52 1.56.42.29 1.03.24 1.71-.14 3.15-1.76 7.31-5.67 9.5-11.38.21-.54.13-1.14-.2-1.6a9.76 9.76 0 0 0-1.31-1.48.985.985 0 0 0-1.28-.02l-.49.4c-.53.44-1.3.43-1.83-.01-.34-.28-.7-.43-1.09-.45h-.06Z"/><path d="M345.82 219.86h-.03a.44.44 0 0 1-.43-.46c0-.24.21-.42.46-.43.07 0 4.32-.12 9.53-10.41.11-.22.38-.31.6-.2.22.11.31.38.2.6-5.38 10.64-9.89 10.9-10.32 10.9ZM349.16 214.06c-.05 0-.11 0-.16-.03l-2.47-.97a.446.446 0 1 1 .33-.83l2.47.97a.446.446 0 0 1-.16.86ZM350.03 212.16c-.05 0-.11 0-.16-.03l-2.9-1.13a.446.446 0 1 1 .33-.83l2.9 1.13a.446.446 0 0 1-.16.86Z"/><path class="cls-4" d="M373.68 198.85c.04.08.33 1.3.55 3.35.38 3.42-3.45 6.59-3.45 6.59l9.07-1.22-.35-7.91-5.82-.8Z"/><g><path class="cls-3" d="M377.76 205.26c-.53-.18-.41-1-.85-1.38-.66-.58-1.48-.57-2.26-.18-1.96.99-7.3 3.82-10.67 6.95-1.19 1.1-1.07 2.9 1.07 3.29 3.5.63 9.35.28 14.77-2.86.62-.36 1.03-1.01 1.06-1.74.03-.59 0-2.55-.12-3.28-.11-.7-.72-1.2-1.42-1.2h-.63c-.47 0-.5.56-.95.41Z"/><path d="M368.22 214.64c-1.2 0-2.3-.1-3.25-.27-1.51-.27-1.97-1.13-2.11-1.61-.24-.82.07-1.75.82-2.44 3.39-3.13 8.66-5.95 10.77-7.02 1.01-.51 2.01-.42 2.75.24.29.25.4.6.49.88.06.18.11.36.19.41.02-.02.04-.04.06-.05.14-.14.37-.36.77-.37h.64c.93 0 1.71.66 1.86 1.57.13.77.15 2.76.13 3.37-.04.87-.52 1.66-1.28 2.1-4.06 2.35-8.36 3.18-11.83 3.18Zm7.51-10.78c-.32 0-.63.11-.87.23-2.08 1.05-7.27 3.82-10.57 6.88-.49.46-.71 1.05-.57 1.54.15.5.65.85 1.42.98 3.55.64 9.21.24 14.47-2.8.5-.29.81-.8.84-1.37.03-.57 0-2.49-.12-3.19a.99.99 0 0 0-.98-.83h-.63s-.05 0-.15.11c-.14.14-.44.44-.94.27-.51-.17-.66-.64-.77-.99-.06-.2-.13-.39-.23-.49-.28-.25-.59-.35-.89-.35Zm2.18.98Z"/><path d="M368.32 213.05c-2.81 0-3.91-.92-3.99-.99a.453.453 0 0 1-.04-.63c.16-.18.44-.2.62-.04.05.04 3.42 2.66 13.89-2.04.22-.1.49 0 .59.22s0 .49-.22.59c-5.04 2.26-8.52 2.88-10.85 2.88ZM370.84 209.8c-.16 0-.31-.08-.39-.23l-1.31-2.33a.455.455 0 0 1 .17-.61c.21-.12.49-.04.61.17l1.31 2.33a.455.455 0 0 1-.39.67ZM372.69 208.88c-.15 0-.3-.08-.38-.21l-1.48-2.42a.442.442 0 0 1 .15-.61c.21-.13.48-.06.61.15l1.48 2.42c.13.21.06.48-.15.61-.07.04-.15.06-.23.06Z"/></g><path d="M398.25 158.95s-31.74-1.38-35.21 1.84c-4.71 4.37-12.79 40.76-12.79 40.76l7.81 2.19s11.76-29.86 14.68-29.86 30.39-.98 30.39-.98l-4.88-13.95Z"/><path d="M404.49 157.94s4.19 12.29.85 14.53c-3.33 2.24-27.34 2.05-26.51 1.77s2.15 20.12 2.15 27.97l-7.56.29s-12.05-31.55-10.75-35.07c2.32-6.3 20.21-7.75 25.93-8.59 1.18-.17 15.89-.9 15.89-.9Z"/><path class="cls-9" d="M366.67 184.99c-.19 0-.36-.12-.42-.31-.27-.85-.54-1.68-.81-2.5-2.24-6.93-4.01-12.4-3.19-14.89 1.56-4.7 11.08-6.69 18.11-7.78.24-.04.47.13.51.37a.45.45 0 0 1-.37.51c-3.92.61-15.84 2.45-17.4 7.18-.74 2.22 1.08 7.84 3.19 14.34.26.82.53 1.65.81 2.5a.45.45 0 0 1-.29.56c-.05.01-.09.02-.14.02Z"/><g><path class="cls-3" d="M398.55 121.5s4.99-2.89 8.54 21.5c0 0-6.08 13.11-6.18 14.96-.11 1.84-16.09 1.04-16.09 1.04l-.37-27.96-3.73-.18.8-6.45c.5-1.88 2.59-3.23 3.99-3.73l13.04.82Z"/><path d="M391.98 159.62c-3.68 0-7.16-.17-7.2-.17a.44.44 0 0 1-.42-.44l-.36-27.54-3.31-.16c-.12 0-.24-.06-.32-.16a.42.42 0 0 1-.1-.34l.8-6.45s0-.04.01-.06c.58-2.19 2.96-3.57 4.27-4.04.06-.02.12-.03.18-.03l12.93.82c.26-.1.83-.22 1.59.15 2.11 1.02 5.13 5.63 7.47 21.74.01.09 0 .17-.04.25-2.43 5.24-6.07 13.5-6.14 14.79-.03.55-.09 1.57-8.53 1.63h-.83Zm-6.73-1.04c6.92.33 14.55.16 15.21-.68.16-1.93 5.33-13.16 6.17-14.96-2.38-16.29-5.34-20.1-6.9-20.91-.6-.31-.95-.14-.97-.14-.07.04-.16.06-.24.05l-12.95-.82c-1.47.55-3.2 1.82-3.62 3.37l-.74 5.94 3.25.16c.23.01.42.2.42.44l.36 27.54Z"/><path class="cls-4" d="m377.38 158.74 3.55-33.64c.24-1.57 1.08-3.01 2.4-3.89a5.16 5.16 0 0 1 1.85-.77s-.01-.65.44 2.53c.24 1.73.5 34.35.51 35.74l-8.75.02Z"/><path d="M392.59 139.88c-.07 0-.14-.02-.21-.05-4.15-2.19-4.41-8.03-4.42-8.28 0-.25.18-.45.43-.46.24-.02.45.18.46.43 0 .06.26 5.58 3.95 7.53a.445.445 0 0 1-.2.84Z"/><path class="cls-4" d="M397.56 120.64s5.14.31 7.7 4.9c2.56 4.59 6.11 14.61 5.91 18.38-.35 6.39-6.64 9.29-6.34 11.31.15.98 1.44 5.97 5.17 12.46 3.07 5.34 3.77 16.6 3.27 16.92-3.37 2.16-8.82 6.67-15.71 6.67-1.27 0-2.38-.88-2.65-2.14-1.1-5.01-4.13-19.53-5.4-33.02-1.11-11.69 4.56-28.79 4.76-30.29.47-3.62 3.3-5.19 3.3-5.19Z"/><path class="cls-5" d="M392.11 126.37c-.36-.57-.74.21-1.25.67-.71.66-.57.6-.62.54-3.29-4.25-4.97-2.7-4.97-2.7-1.33 1.15 4.22 7.55 4.72 8.19.18.22.31 1.51.41 2.83.22 3.09 1.2 9.45 2.66 12.63.82 1.79 2.3 2.31 4.03 2.17 2.38-.19 3.76-2.78 2.63-4.85-2.37-4.32-6.21-11.54-7.18-14.46-.19-.57-.29-1.16-.33-1.75-.04-.69.44-2.41-.09-3.26Z"/><path d="M396.57 151.16c-1.86 0-3.18-.82-3.92-2.45-1.59-3.46-2.5-10.11-2.7-12.78-.15-2.07-.29-2.52-.33-2.6-.05-.06-.14-.17-.26-.32-4.14-5.01-5.45-7.54-4.38-8.46.04-.04.51-.45 1.39-.38 1.2.1 2.52 1.03 3.94 2.78.07-.07.15-.14.25-.24.11-.1.22-.23.33-.35.29-.33.59-.67 1-.64.17.01.4.09.6.41.45.72.32 1.81.22 2.68-.04.32-.07.62-.06.79.04.59.14 1.14.3 1.64.97 2.92 4.9 10.27 7.15 14.39.61 1.11.61 2.44 0 3.56a3.71 3.71 0 0 1-2.99 1.95c-.19.02-.37.02-.55.02Zm-10.4-26.11c-.4 0-.59.16-.6.17-.04.03-.81.83 4.48 7.22.14.17.24.29.29.36.12.15.31.39.5 3.07.24 3.24 1.23 9.45 2.62 12.47.67 1.45 1.81 2.06 3.59 1.92.96-.08 1.81-.63 2.27-1.49.46-.85.46-1.87 0-2.71-2.27-4.15-6.22-11.55-7.21-14.54-.19-.57-.31-1.2-.35-1.86-.02-.25.02-.57.07-.94.08-.65.18-1.53-.04-2.02-.07.07-.16.17-.22.25-.12.14-.25.29-.4.42-.29.27-.44.42-.51.49-.09.09-.24.24-.48.19a.44.44 0 0 1-.3-.23c-1.66-2.14-2.84-2.69-3.53-2.76h-.17Zm4.5 2.38Zm1.04-.87Z"/><path class="cls-9" d="M400.83 143.06c-.15 0-.29-.07-.37-.2a.45.45 0 0 1 .13-.62c.28-.18 1.13-.74 1.48-1.5.91-1.94-.63-8.3-1.29-10.59a.444.444 0 0 1 .85-.25c.1.35 2.48 8.57 1.25 11.22-.46.99-1.47 1.65-1.8 1.87-.08.05-.16.07-.24.07ZM383.32 144.11c-.23 0-.43-.18-.44-.41-.44-6.31-.07-12-.06-12.06.02-.25.23-.43.47-.41.24.02.43.23.41.47 0 .06-.37 5.7.06 11.94.02.24-.17.46-.41.47h-.03ZM401.33 169.38c-4.64 0-7.05-4.33-7.08-4.38a.433.433 0 0 1 .18-.6c.22-.12.49-.04.6.18.13.24 3.22 5.73 9.26 3.3a.446.446 0 1 1 .33.83c-1.2.48-2.3.68-3.29.68Z"/></g><g><circle cx="396.61" cy="102.3" r="14.71"/><path class="cls-5" d="M390.82 107.09c-.2.12-.45.03-.54-.18-.42-1.03-1.67-2.61-3.04-2.92-1.75-.4-3.77.14-4.21 1.49-.38 1.17-.01 1.88-1.29 3.4-.12.15-.02.38.13.49l.81.68c.17.13.32.56.34.78.06.66.15 2.06.38 2.24.44.35 2.66.22 2.66.22l1.78 6.12c.07.23-.07.47-.3.53l-2.12.72s1.7 2.38 7.01 2.02c3.4-.23 5.73-1.99 5.73-1.99s-6.45-1.57-7.34-9.37c-.02-.17.05-.34.19-.44.53-.4 1.94-1.56 1.7-2.74-.26-1.25-1.2-1.45-1.88-1.04Z"/><path d="M391.36 123.17c-4.65 0-6.24-2.15-6.31-2.25a.45.45 0 0 1-.06-.39c.04-.13.15-.24.28-.28l2.12-.72h.03l-1.7-5.77c-.82.03-2.16.03-2.61-.33-.29-.23-.38-.75-.51-2.2-.01-.13-.02-.25-.03-.35-.01-.14-.11-.41-.18-.48l-.81-.68a.898.898 0 0 1-.34-.6c-.02-.19.03-.38.15-.52.8-.95.88-1.52.98-2.18.05-.33.1-.67.23-1.07.54-1.65 2.88-2.21 4.73-1.78 1.53.35 2.84 2.01 3.32 3.12.47-.25.99-.29 1.44-.09.52.23.89.75 1.04 1.46.28 1.35-1.05 2.58-1.86 3.19-.01 0-.02.02-.02.04.84 7.39 6.76 8.93 7.01 8.99.17.04.29.17.33.34s-.03.34-.17.44c-.1.08-2.48 1.84-5.97 2.08-.38.03-.75.04-1.1.04Zm-5.11-2.32c.79.62 2.64 1.63 6.15 1.39 2.12-.14 3.83-.92 4.75-1.44-1.88-.79-6.06-3.22-6.77-9.43-.04-.33.1-.65.37-.85.41-.31 1.72-1.38 1.53-2.3-.09-.43-.27-.71-.53-.83-.21-.09-.46-.06-.7.08-.21.12-.46.15-.68.07a.83.83 0 0 1-.5-.47c-.38-.94-1.54-2.38-2.72-2.66-1.66-.38-3.35.16-3.69 1.19-.11.33-.15.62-.19.92-.1.7-.21 1.43-1.08 2.51l.79.67c.31.23.47.84.49 1.07 0 .1.02.23.03.36.04.41.11 1.32.22 1.6.28.11 1.32.16 2.32.1.21-.01.4.12.45.32l1.78 6.12c.07.23.04.47-.08.68-.11.2-.3.34-.52.41l-1.42.48Zm-2.52-8.06Zm6.86-6.08Zm0 0Z"/></g></g></g><g><circle class="cls-3" cx="167.27" cy="38.52" r="22.31" transform="rotate(-62.14 167.279 38.522)"/><path d="M167.25 61.45c-5.92 0-11.52-2.24-15.82-6.35-4.43-4.23-6.95-9.93-7.09-16.05-.29-12.64 9.75-23.16 22.39-23.46 6.12-.13 11.94 2.11 16.37 6.34 4.43 4.23 6.95 9.93 7.09 16.06.14 6.12-2.11 11.94-6.34 16.37-4.23 4.43-9.93 6.95-16.06 7.09h-.54Zm.03-44.61h-.52c-11.95.28-21.45 10.23-21.17 22.18.13 5.79 2.51 11.18 6.7 15.18s9.68 6.14 15.47 5.99c5.79-.13 11.18-2.51 15.18-6.7s6.13-9.68 5.99-15.47a21.515 21.515 0 0 0-6.7-15.18c-4.06-3.88-9.36-6-14.96-6Z"/><circle class="cls-7" cx="167.27" cy="38.52" r="20.16" transform="rotate(-26.21 167.3 38.517)"/><circle class="cls-3" cx="167.27" cy="38.52" r="17.83"/><path d="M167.26 57.54c-4.91 0-9.56-1.86-13.12-5.26a18.933 18.933 0 0 1-5.88-13.32 18.86 18.86 0 0 1 5.26-13.57c3.51-3.67 8.24-5.76 13.32-5.88a19.02 19.02 0 0 1 15.96 8.02.625.625 0 0 1-1.02.72 17.762 17.762 0 0 0-14.91-7.49c-4.75.11-9.16 2.06-12.44 5.49a17.64 17.64 0 0 0-4.91 12.68c.11 4.75 2.06 9.16 5.49 12.44a17.64 17.64 0 0 0 12.68 4.91c4.75-.11 9.16-2.06 12.44-5.49a17.64 17.64 0 0 0 4.91-12.68c0-.35.27-.63.61-.64.36 0 .63.27.64.61.12 5.08-1.75 9.9-5.26 13.57a18.933 18.933 0 0 1-13.32 5.88h-.45Z"/><path class="cls-6" d="m166.13 49.17-.06-2.47c-1.75-.04-3.45-.47-4.45-1.02l.71-3.06c1.11.57 2.66 1.08 4.35 1.05 1.48-.03 2.49-.63 2.46-1.67-.02-.99-.87-1.59-2.81-2.2-2.81-.87-4.74-2.13-4.8-4.66-.05-2.29 1.52-4.12 4.29-4.74l-.06-2.47 2.55-.06.05 2.29c1.75.04 2.93.38 3.79.77l-.69 2.96c-.68-.27-1.89-.84-3.77-.8-1.69.04-2.22.78-2.2 1.51.02.86.94 1.38 3.18 2.17 3.12 1.02 4.41 2.42 4.46 4.77.05 2.32-1.54 4.33-4.52 4.92l.06 2.66-2.55.06Z"/><g><circle class="cls-3" cx="135.71" cy="75.7" r="16.88" transform="rotate(-45 135.706 75.699)"/><path d="M135.7 93.21c-9.47 0-17.27-7.59-17.49-17.1-.11-4.67 1.61-9.11 4.84-12.49 3.23-3.38 7.58-5.3 12.26-5.41 4.67-.1 9.11 1.61 12.49 4.84 3.38 3.23 5.3 7.58 5.41 12.26.11 4.67-1.61 9.11-4.84 12.49-3.23 3.38-7.58 5.3-12.26 5.41h-.41Zm.02-33.76h-.39c-4.34.1-8.38 1.89-11.38 5.03-3 3.14-4.59 7.26-4.49 11.6.21 8.96 7.68 16.09 16.63 15.88 4.34-.1 8.38-1.89 11.38-5.03 3-3.14 4.59-7.26 4.49-11.6-.1-4.34-1.89-8.38-5.03-11.38-3.05-2.91-7.02-4.5-11.22-4.5Z"/><circle class="cls-7" cx="135.71" cy="75.7" r="15.25"/><circle class="cls-3" cx="135.71" cy="75.7" r="13.49" transform="rotate(-46.46 135.7 75.696)"/><path d="M135.7 90.25c-7.87 0-14.35-6.3-14.54-14.21-.09-3.88 1.34-7.57 4.02-10.38 2.68-2.81 6.3-4.41 10.18-4.5 4.84-.11 9.4 2.18 12.21 6.13a.625.625 0 0 1-1.02.72 13.297 13.297 0 0 0-11.16-5.61c-3.55.08-6.86 1.54-9.31 4.11A13.237 13.237 0 0 0 122.4 76c.17 7.33 6.27 13.16 13.6 12.98 7.33-.17 13.15-6.27 12.98-13.6 0-.35.27-.63.61-.64.35.01.63.27.64.61.19 8.02-6.19 14.69-14.2 14.88h-.34Z"/><path class="cls-6" d="m134.85 83.76-.04-1.87c-1.32-.03-2.61-.35-3.37-.77l.54-2.32c.84.43 2.01.82 3.29.79 1.12-.03 1.88-.48 1.86-1.27-.02-.75-.66-1.21-2.13-1.67-2.12-.66-3.59-1.61-3.63-3.52-.04-1.73 1.15-3.12 3.25-3.58l-.04-1.87 1.93-.04.04 1.73c1.32.03 2.21.28 2.87.58l-.52 2.24c-.52-.2-1.43-.64-2.85-.6-1.28.03-1.68.59-1.67 1.14.02.65.71 1.05 2.4 1.64 2.36.77 3.33 1.83 3.37 3.61.04 1.75-1.17 3.28-3.42 3.73l.05 2.01-1.93.04Z"/></g></g></svg>