<svg id="Layer_1" xmlns="http://www.w3.org/2000/svg" viewBox="0 0 540 240"><defs><style>.cls-1{fill:none}.cls-2{fill:#fff}.cls-3{fill:#ffb4cf}.cls-4{fill:#fcdeb9}.cls-5{fill:#7ecced}.cls-6{fill:#a9ddf3}.cls-7{fill:#d72d79}.cls-8{fill:#caddff}.cls-9{fill:#29abe2}</style></defs><path class="cls-5" d="M10 40H8v16h118V40H10Zm114 14H10V42h114v12ZM10 68H8v16h76V68H10Zm72 14H10V70h72v12ZM10 96H8v16h104V96H10Zm100 14H10V98h100v12ZM10 124H8v16h90v-16H10Zm86 14H10v-12h86v12ZM530 100h-68v16h70v-16h-2Zm0 14h-66v-12h66v12ZM530 128h-68v16h70v-16h-2Zm0 14h-66v-12h66v12ZM530 156h-68v16h70v-16h-2Zm0 14h-66v-12h66v12ZM530 184h-82v16h84v-16h-2Zm0 14h-80v-12h80v12Z"/><path class="cls-1" d="M108 0h324v240H108z"/><path class="cls-5" d="M338.11 45.21c0-8.29-5.86-15.01-13.08-15.01-6.16 0-11.32 4.89-12.71 11.47h-.48c-10.44 0-18.9 9.26-18.9 20.68 0 .77.04 1.53.11 2.27-6.83 1.52-11.97 8.05-11.97 15.89 0 1.9.3 3.72.86 5.41-4.98 3.18-8.32 9.05-8.32 15.76 0 6.36 3 11.96 7.55 15.24-4.55 3.28-7.55 8.88-7.55 15.24 0 9.64 6.9 17.54 15.64 18.24-.04.44-.06.89-.06 1.34 0 8.2 6.14 14.84 13.72 14.84 1.6 0 3.14-.3 4.57-.85.7 7.77 7.27 13.87 15.28 13.87 8.47 0 15.34-6.83 15.34-15.24V46.35h-.04c.02-.38.04-.75.04-1.14Z"/><path d="M322.77 180c-3.96 0-7.75-1.47-10.66-4.13a15.595 15.595 0 0 1-4.98-9.58c-1.36.46-2.78.69-4.21.69-7.8 0-14.14-6.85-14.14-15.26 0-.31 0-.63.03-.96-8.79-.93-15.61-9.02-15.61-18.62 0-6.07 2.71-11.72 7.27-15.24-4.56-3.51-7.27-9.17-7.27-15.24 0-6.47 3.15-12.54 8.25-15.94-.52-1.69-.78-3.45-.78-5.24 0-7.73 5-14.49 11.93-16.21-.05-.65-.08-1.3-.08-1.95 0-11.63 8.67-21.1 19.32-21.1h.14c1.57-6.77 6.89-11.46 13.05-11.46 7.44 0 13.5 6.92 13.5 15.43 0 .3 0 .62-.03.98.02.05.03.1.03.16v117.99c0 8.64-7.07 15.66-15.76 15.66Zm-15.28-14.7c.08 0 .15.02.22.06.11.07.18.19.2.32.69 7.69 7.08 13.48 14.86 13.48 8.23 0 14.92-6.65 14.92-14.83V46.53a.378.378 0 0 1-.04-.21c.03-.42.04-.78.04-1.11 0-8.05-5.68-14.59-12.66-14.59-5.86 0-10.92 4.58-12.3 11.13a.41.41 0 0 1-.42.33h-.47c-10.19 0-18.49 9.09-18.49 20.26 0 .74.04 1.49.11 2.23.02.21-.12.4-.33.45-6.74 1.5-11.64 8.01-11.64 15.48 0 1.81.28 3.59.84 5.28.06.18-.01.38-.17.48-5.01 3.2-8.13 9.11-8.13 15.41s2.76 11.57 7.38 14.9c.11.08.17.21.17.34s-.06.26-.17.34c-4.62 3.33-7.38 8.89-7.38 14.9 0 9.31 6.7 17.14 15.26 17.82.11 0 .21.06.29.15.07.08.11.19.1.31-.04.46-.06.89-.06 1.31 0 7.95 5.97 14.42 13.3 14.42 1.51 0 3-.28 4.42-.82.05-.02.1-.03.15-.03Z"/><path d="M292.8 131.29c-.45 0-.89-.02-1.34-.06a.415.415 0 0 1-.38-.45c.02-.23.22-.4.45-.38 6.7.57 13.38-3.39 16.64-9.86a.419.419 0 0 1 .75.37c-3.19 6.33-9.54 10.37-16.11 10.37Z"/><path d="M298.72 150.12a.34.34 0 0 1-.19-.05.41.41 0 0 1-.18-.56c.43-.84.8-1.72 1.11-2.63 1.92-5.68 1.1-11.85-2.21-16.48a.416.416 0 1 1 .68-.48c3.46 4.86 4.33 11.3 2.33 17.24-.32.94-.71 1.86-1.16 2.74-.07.14-.22.23-.37.23ZM296.47 111.12h-.02a.423.423 0 0 1-.4-.44c.38-7.57 5.11-14.21 11.78-16.53.22-.08.46.04.53.26a.41.41 0 0 1-.26.53c-6.35 2.21-10.86 8.55-11.22 15.78-.01.22-.2.4-.42.4Z"/><path d="M302.67 98.05c-.07 0-.15-.02-.21-.06-5.13-3.03-8.53-8.57-9.1-14.81-.09-.99-.11-1.99-.05-2.98.01-.23.21-.41.44-.39.23.01.41.21.39.44-.05.94-.04 1.9.05 2.85.54 5.98 3.79 11.27 8.69 14.17.2.12.27.37.15.57-.08.13-.22.21-.36.21ZM324.58 92.79c-.11 0-.23-.05-.31-.13-4.78-5.17-4.78-13.58 0-18.75 4.69-5.07 4.69-13.33 0-18.41l-1.83-1.97c-.16-.17-.15-.43.02-.59s.43-.15.59.02l1.83 1.97c4.98 5.39 4.98 14.16 0 19.54-4.49 4.85-4.49 12.75 0 17.61a.414.414 0 0 1-.3.7ZM319.81 162.24c-.15 0-.3-.08-.37-.23-.1-.21-.02-.46.18-.56 6.06-3.09 9.85-10.03 9.42-17.27a.415.415 0 1 1 .83-.05c.44 7.57-3.53 14.83-9.88 18.07-.06.03-.13.05-.19.05ZM331.55 126.82c-.06 0-.12-.01-.18-.04-6.8-3.32-11.17-10.34-10.88-17.48 0-.23.2-.41.44-.4.23 0 .41.2.4.44-.28 6.81 3.9 13.52 10.41 16.7.21.1.29.35.19.56-.07.15-.22.24-.38.24Z"/><g><path class="cls-9" d="M341.33 46.35h-.04v117.99c0 8.42 6.87 15.24 15.34 15.24 8.01 0 14.58-6.09 15.28-13.87 1.43.55 2.97.85 4.57.85 7.58 0 13.72-6.64 13.72-14.84 0-.45-.02-.9-.06-1.34 8.75-.7 15.64-8.6 15.64-18.24 0-6.36-3-11.96-7.55-15.24 4.55-3.28 7.55-8.88 7.55-15.24 0-6.71-3.34-12.58-8.32-15.76.55-1.69.86-3.51.86-5.41 0-7.84-5.14-14.38-11.97-15.89.07-.75.11-1.5.11-2.27 0-11.42-8.46-20.68-18.9-20.68h-.48c-1.39-6.58-6.55-11.47-12.71-11.47-7.23 0-13.08 6.72-13.08 15.01 0 .38.02.76.04 1.14Z"/><path d="M356.63 180c-8.69 0-15.76-7.03-15.76-15.66V46.35c0-.06.01-.11.03-.16-.02-.36-.03-.68-.03-.98 0-8.51 6.06-15.43 13.5-15.43 6.16 0 11.48 4.69 13.05 11.46h.14c10.65 0 19.32 9.46 19.32 21.1 0 .64-.03 1.3-.08 1.95 6.94 1.73 11.93 8.48 11.93 16.21 0 1.79-.26 3.55-.78 5.24 5.09 3.39 8.25 9.47 8.25 15.94 0 6.07-2.71 11.72-7.27 15.24 4.56 3.51 7.27 9.17 7.27 15.24 0 9.59-6.82 17.68-15.61 18.62.02.33.03.65.03.96 0 8.41-6.34 15.26-14.14 15.26-1.43 0-2.85-.23-4.21-.69-.46 3.67-2.21 7.06-4.98 9.58a15.77 15.77 0 0 1-10.66 4.13Zm-14.92-15.99v.32c0 8.17 6.69 14.83 14.92 14.83 7.78 0 14.17-5.8 14.86-13.48.01-.13.08-.25.2-.32.11-.07.25-.08.37-.04 1.42.54 2.91.82 4.42.82 7.33 0 13.3-6.47 13.3-14.42 0-.42-.02-.84-.06-1.31a.5.5 0 0 1 .1-.31c.07-.08.17-.14.29-.15 8.56-.68 15.26-8.51 15.26-17.82 0-6-2.76-11.57-7.38-14.9-.11-.08-.17-.21-.17-.34s.06-.26.17-.34c4.62-3.33 7.38-8.89 7.38-14.9 0-6.3-3.12-12.2-8.13-15.41-.16-.1-.23-.3-.17-.48.55-1.69.84-3.47.84-5.28 0-7.47-4.89-13.99-11.64-15.48a.423.423 0 0 1-.33-.45c.07-.74.11-1.49.11-2.23 0-11.17-8.29-20.26-18.49-20.26h-.47a.42.42 0 0 1-.42-.33c-1.38-6.56-6.44-11.13-12.3-11.13-6.98 0-12.66 6.55-12.66 14.59 0 .34.01.69.04 1.11 0 .07 0 .14-.04.21V164Z"/></g><g><path class="cls-8" d="M377.38 142.9c-.22 0-.4-.17-.42-.39l-1.19-16.72c-.2-2.8-2.53-4.98-5.33-4.98h-.05l-18.25.18a.414.414 0 1 1-.01-.83l18.25-.18c3.26-.03 5.99 2.5 6.22 5.76l1.19 16.72c.02.23-.16.43-.39.45h-.03Z"/><path class="cls-2" d="M377.55 145.06a2.497 2.497 0 0 1-.35-4.98c1.37-.1 2.56.94 2.66 2.31s-.94 2.57-2.31 2.67Z"/><path class="cls-8" d="M364.53 149.25c-.22 0-.4-.17-.42-.39l-.69-9.68c-.2-2.8-2.53-4.98-5.33-4.98h-.05l-5.9.06a.414.414 0 1 1-.01-.83l5.9-.06h.06c3.23 0 5.93 2.52 6.16 5.76l.69 9.68c.02.23-.16.43-.39.45h-.03Z"/><path class="cls-2" d="M364.64 151.74a2.497 2.497 0 0 1-.35-4.98 2.497 2.497 0 0 1 .35 4.98ZM378.31 110.71l-26.16-.05c-.23 0-.42-.19-.42-.42 0-.23.19-.42.42-.42l26.16.05c.23 0 .42.19.42.42 0 .23-.19.42-.42.42Z"/><path d="M386.03 112.78a2.497 2.497 0 0 1-.35-4.98 2.497 2.497 0 0 1 .35 4.98Z"/><path class="cls-2" d="M385.85 118.27c-4.39 0-7.96-3.58-7.96-7.98s3.57-7.98 7.96-7.98 7.96 3.58 7.96 7.98-3.57 7.98-7.96 7.98Zm0-15.13c-3.93 0-7.12 3.21-7.12 7.15s3.2 7.15 7.12 7.15 7.12-3.21 7.12-7.15-3.2-7.15-7.12-7.15Z"/><g><path class="cls-8" d="M362.79 99.53h-10.64c-.23 0-.42-.19-.42-.42s.19-.42.42-.42h10.64c1.86 0 2.89-.36 4.46-2.61 2.9-4.14 10.08-16.06 10.15-16.18.12-.2.38-.26.57-.14.2.12.26.38.14.57-.07.12-7.27 12.07-10.18 16.23-1.59 2.27-2.79 2.97-5.15 2.97Z"/><ellipse class="cls-2" cx="377.75" cy="80.01" rx="2.49" ry="2.5"/></g><g><path class="cls-8" d="M353.64 82.93h-1.5c-.23 0-.42-.19-.42-.42s.19-.42.42-.42h1.5c1.86 0 2.89-.36 4.46-2.61 1.17-1.67 3.25-4.92 6.01-9.39a.422.422 0 1 1 .72.44c-2.8 4.54-4.83 7.72-6.03 9.43-1.59 2.27-2.79 2.97-5.15 2.97Z"/><ellipse class="cls-2" cx="364.46" cy="70.31" rx="2.49" ry="2.5"/></g></g><g><path class="cls-5" d="m211.37 164.18-50.25-.5c-9.09 0-16.86-5.93-18.45-14.96l-8.6-48.81c-1.02-5.81 3.4-11.15 9.26-11.15h32.79l35.26 75.42Z"/><path class="cls-5" d="M181.39 223.85h-8.27v-60.26l8.27.31v59.95z"/><path class="cls-5" d="M196.78 213.77h-37.19c-5.8 0-10.5 4.7-10.5 10.5h58.2c0-5.8-4.7-10.5-10.5-10.5Z"/><path class="cls-6" d="M147.66 127.01c-.27 0-.51-.2-.56-.47l-4.17-23.69c-.05-.31.15-.61.47-.66.31-.05.61.15.66.47l4.17 23.69c.05.31-.15.61-.47.66h-.1Z"/><g><path d="M194.93 49.41c3.3-.29 5.61 2.72 7.46 7.28 1.51 3.72.92 6.82-1.12 8.86-6.59 6.6-13.74 25.65-23.52 31.45-7.8 4.62-24.13 3.77-31.67-5.82-7.17-9.11-8.26-22.31-.15-28.25 7.29-5.34 14.09 3.81 21.83-1.15 7.63-4.89 7.51-8.95 12.03-11.34 4.85-2.56 5.78-.19 15.14-1.02Z"/><path class="cls-3" d="M241.99 194.45c-.07.29 3.29 15.68 3.29 15.68l-7.73-1.29-2.33-13.02 6.77-1.37Z"/><path class="cls-2" d="M241.18 205.08c.47-.4 1.15-.79 2.01-.82 1.3-.06 2.48.76 3.01 1.95 1.34 2.98 4.88 11.28 5.88 18.07.35 2.4-1.46 4.35-4.28 2.78-4.62-2.58-11.03-8.49-14.39-17.22-.39-1-.25-2.14.38-3 .52-.71 1.22-1.56 2.03-2.29.78-.7 1.95-.71 2.75-.04l.73.6c.55.45 1.33.44 1.87-.01Z"/><path d="M249.71 228.19c-.6 0-1.33-.16-2.18-.64-4.87-2.71-11.27-8.74-14.64-17.51-.46-1.2-.29-2.52.46-3.54.69-.94 1.4-1.74 2.11-2.38.99-.89 2.46-.91 3.5-.06l.73.6c.33.27.81.27 1.13 0 .7-.59 1.52-.92 2.35-.96 1.49-.05 2.92.85 3.56 2.29 1.45 3.21 4.92 11.43 5.92 18.22.22 1.46-.28 2.81-1.29 3.5-.33.23-.89.5-1.65.5Zm-12.48-23.61c-.36 0-.72.13-1.01.39-.65.59-1.31 1.33-1.95 2.2-.52.71-.63 1.62-.31 2.46 3.26 8.49 9.44 14.31 14.13 16.92 1.04.58 1.97.65 2.62.2.65-.45.96-1.36.81-2.39-.98-6.65-4.4-14.74-5.83-17.92-.45-1.01-1.45-1.65-2.47-1.61-.59.03-1.15.26-1.67.69-.75.63-1.84.64-2.6.02l-.73-.6c-.29-.24-.64-.36-.99-.36Zm3.95.5Z"/><path d="M250.33 225.49c-.63 0-7.27-.39-15.23-16.12a.576.576 0 0 1 .25-.77c.28-.14.63-.03.77.25 7.76 15.35 14.11 15.49 14.21 15.49.31 0 .57.25.58.56 0 .31-.24.58-.55.59h-.04ZM245.37 216.89c-.23 0-.44-.14-.53-.36-.12-.29.03-.63.32-.74l3.67-1.45c.29-.12.63.03.74.32.12.29-.03.63-.32.74l-3.67 1.45c-.07.03-.14.04-.21.04ZM244.09 214.08c-.23 0-.45-.14-.53-.37-.11-.3.03-.63.33-.74l4.3-1.67c.3-.12.63.03.74.33.11.3-.03.63-.33.74l-4.3 1.67c-.07.03-.14.04-.21.04Z"/><path class="cls-3" d="M209 194.41c-.06.12-.49 1.92-.82 4.97-.56 5.07 5.12 9.77 5.12 9.77l-13.45-1.81.51-11.74 8.64-1.19Z"/><g><path class="cls-2" d="M202.95 203.93c.79-.26.61-1.48 1.25-2.05.97-.87 2.19-.85 3.35-.26 2.9 1.46 10.83 5.67 15.83 10.3 1.77 1.64 1.58 4.3-1.59 4.87-5.2.94-13.86.42-21.92-4.24-.92-.53-1.52-1.5-1.57-2.58-.04-.88 0-3.79.18-4.87a2.119 2.119 0 0 1 2.11-1.78h.94c.7 0 .74.83 1.41.6Z"/><path d="M217.09 217.76c-5.12 0-11.49-1.23-17.5-4.7a3.704 3.704 0 0 1-1.86-3.05c-.04-.9 0-3.86.19-4.99a2.697 2.697 0 0 1 2.67-2.26h.94c.57 0 .89.33 1.09.52.05.05.12.12.14.13l.18.53-.18-.54c.15-.05.23-.29.36-.67.13-.4.29-.91.7-1.27 1.07-.96 2.53-1.09 3.99-.35 3.13 1.58 10.95 5.75 15.96 10.39 1.08 1 1.53 2.35 1.19 3.53-.2.7-.87 1.93-3.07 2.33-1.41.25-3.03.4-4.81.4Zm-16.5-13.86c-.77 0-1.42.55-1.54 1.3-.17 1.04-.21 3.91-.17 4.75.04.88.52 1.66 1.29 2.1 7.83 4.52 16.25 5.12 21.53 4.17 1.17-.21 1.94-.75 2.17-1.52.22-.76-.11-1.67-.87-2.37-4.91-4.54-12.62-8.66-15.7-10.21-.73-.37-1.8-.64-2.71.18-.17.15-.27.45-.37.76-.17.52-.38 1.17-1.09 1.41-.69.23-1.09-.17-1.31-.39-.16-.16-.2-.19-.28-.19h-.94Z"/><path d="M216.96 215.4c-3.43 0-8.59-.93-16.06-4.28-.29-.13-.42-.47-.29-.76.13-.29.47-.42.76-.29 15.66 7.01 20.65 3.05 20.7 3.01.24-.2.6-.17.81.06.2.24.18.59-.05.8-.12.1-1.74 1.45-5.86 1.45ZM213.21 210.57c-.1 0-.19-.02-.28-.07a.574.574 0 0 1-.22-.78l1.95-3.45a.574.574 0 0 1 1 .56l-1.95 3.45a.57.57 0 0 1-.5.29ZM210.46 209.2c-.1 0-.2-.03-.3-.08a.57.57 0 0 1-.19-.79l2.19-3.6a.57.57 0 0 1 .79-.19c.27.16.36.52.19.79l-2.19 3.6c-.11.18-.3.28-.49.28Z"/></g><path d="M172.55 135.22s47.08-2.04 52.23 2.74c6.98 6.48 18.98 60.46 18.98 60.46l-11.58 3.25s-17.45-44.3-21.77-44.3-45.09-1.45-45.09-1.45l7.24-20.69Z"/><path d="M163.29 133.73s-6.21 18.23-1.27 21.56c4.94 3.33 40.56 3.04 39.33 2.63-1.24-.42-3.19 29.85-3.19 41.49l11.22.43s17.87-46.81 15.95-52.03c-3.45-9.35-29.43-12.51-37.92-13.76-1.75-.26-24.11-.32-24.11-.32Z"/><path class="cls-3" d="M219.4 173.77c-.06 0-.12 0-.18-.03-.3-.1-.47-.42-.37-.72.4-1.26.8-2.5 1.2-3.71 3.13-9.66 5.83-18.01 4.73-21.33-2.34-7.07-20.06-9.81-25.89-10.71a.573.573 0 0 1-.48-.65c.05-.31.34-.53.65-.48 10.4 1.61 24.5 4.55 26.8 11.48 1.22 3.68-1.4 11.78-4.73 22.04-.39 1.21-.79 2.45-1.2 3.71-.08.24-.3.4-.55.4Z"/><g><path class="cls-2" d="M168.87 78.46s.17-3.01-1.69 28.33c0 0 1.28 24.24 1.44 26.98.16 2.73 23.87 1.55 23.87 1.55 2.8-12.3 2.5-26.4.54-41.48l4.06-.36.28-9.47c-.74-2.79-3.84-4.79-5.93-5.54-5.55-2.5-15.4-1.69-22.58 0Z"/><path d="M181.84 136.14h-1.24c-10.92-.08-12.49-1.17-12.56-2.34-.16-2.7-1.42-26.74-1.44-26.98v-.06c.78-13.14 1.2-20.25 1.43-24.06.11-1.91.18-2.99.22-3.6.01-.23.03-.42.04-.58v-.14h.02c.06-.42.2-.58.59-.56 0 0 .06 0 .12.02 6.9-1.59 16.84-2.5 22.63.09 1.94.7 5.42 2.72 6.27 5.93.01.05.02.11.02.16l-.28 9.47c0 .29-.23.53-.52.55l-3.47.31c2.11 16.56 1.9 30.01-.63 41.09-.06.25-.27.43-.53.44-.06 0-5.21.26-10.67.26Zm-14.09-29.35c.05 1.01 1.28 24.29 1.44 26.94.06.1.96 1.21 11.88 1.26 4.79.02 9.52-.17 10.95-.23 2.43-10.99 2.58-24.36.44-40.85a.567.567 0 0 1 .52-.64l3.56-.32.26-8.88c-.67-2.36-3.33-4.28-5.54-5.07-.01 0-.03-.01-.04-.02-5.49-2.47-15.07-1.59-21.8-.06-.09 1.46-.43 7.08-1.66 27.87Z"/><path class="cls-7" d="m199.27 134.98-1.03-49.97c-.35-2.34-1.17-3.28-3.13-4.58-.77-.51-2.08-1.09-3.15-1.3 0 0-.55-.31-.67 2.72-.06 1.48 1.82 17.88 2.15 31.94.24 9.84-1.23 18.44-1.13 20.33 0 .14 6.48 1.44 6.92 1l.04-.13Z"/><path d="M183.04 104.88c-.21 0-.4-.11-.51-.31a.564.564 0 0 1 .24-.77c5.52-2.91 5.9-11.16 5.9-11.24a.57.57 0 1 1 1.14.04c-.01.37-.4 8.99-6.52 12.21-.09.04-.18.07-.27.07Z"/><path class="cls-7" d="M172.88 78.04s-5.71-.66-9.39 4.36c-3.65 4.99-4.1 10.67-3.41 15.24 1.17 7.76 6.05 16.59 5.82 19-.11 1.17-1.35 9.49-6.05 16.94-3.87 6.13-3.7 19.66-2.95 20.1 5.09 2.97 13.44 8.99 23.38 9.7 1.84.13 3.34-.82 3.6-2.3 1.06-5.94 3.91-23.16 4.33-39.33.37-14-9.6-35.27-10.04-37.09-1.06-4.42-5.31-6.62-5.31-6.62Z"/><path class="cls-7" d="M178.09 115.49c4.65 10.64 12.97 13.16 26.61 14.98l-1.46 4.02c-20.38 2.54-24.22-1.49-32.46-12.28l7.31-6.73Z"/><g><path class="cls-7" d="M197.79 96.86c1.04 8.8 14.8 21.85 22.19 24.72l-4.96 3.74c-6.39.23-14.71-7.14-17.58-9.75l.35-18.71Z"/><path class="cls-4" d="M211.55 122.69c.19-.37.5-.66.89-.8.28-.1.55-.23.81-.37l3.6-1.91c.67-.33 1.64.44 2.34.67 2.11.69 6.49 2.33 6.13 3.87-.39 1.66-4.15.87-5.49.54-.31-.08-3.07.92-3.94.99-1.21.09-1.49-.22-2.08-.53-.27-.14-.57-.21-.89-.21-.5 0-.97-.21-1.28-.6-.34-.44-.4-1.03-.15-1.52l.07-.14Z"/><path d="M215.5 126.26c-.88 0-1.3-.24-1.71-.47-.08-.04-.16-.09-.24-.14-.18-.09-.38-.14-.63-.14-.69 0-1.31-.3-1.73-.82-.49-.61-.58-1.45-.22-2.14l.07-.14c.26-.51.69-.89 1.2-1.07.21-.08.45-.18.73-.34l3.6-1.91c.74-.37 1.54.04 2.18.36.22.11.44.22.61.28 7.03 2.31 6.64 3.99 6.51 4.54-.1.43-.37.79-.77 1.04-1.28.78-3.87.31-5.35-.06-.22.03-.92.24-1.43.39-.93.28-1.88.56-2.4.6-.16.01-.3.02-.44.02Zm-3.44-3.32-.07.14c-.15.29-.11.64.09.89s.51.39.85.39c.43 0 .82.09 1.16.27.1.05.19.1.28.16.4.23.65.37 1.49.31.39-.03 1.37-.32 2.16-.55 1.37-.41 1.69-.49 1.97-.42 2.13.53 3.87.61 4.54.21.18-.11.23-.23.25-.32.11-.49-1.32-1.74-5.75-3.19a5.07 5.07 0 0 1-.76-.34c-.39-.2-.93-.46-1.15-.36l-3.59 1.9c-.34.18-.62.31-.88.4-.24.09-.45.27-.57.52Z"/></g><g><path class="cls-3" d="M167.98 142.02c-1.47 0-3.08-.29-4.85-1.01a.579.579 0 0 1-.32-.75c.12-.29.45-.44.75-.32 9.04 3.65 13.65-4.58 13.84-4.93a.575.575 0 1 1 1.01.55c-.04.08-3.6 6.45-10.43 6.45ZM198.9 116.44c-.31 0-.56-.24-.57-.55l-.49-13.64a.57.57 0 1 1 1.14-.04l.49 13.64a.57.57 0 0 1-.55.59h-.02ZM191.98 135.82c-5.16 0-7.69-1.11-10.91-2.52-.81-.35-1.65-.72-2.59-1.1-2.77-1.11-4.78-2.84-6.51-5.58-.79-1.26-1.47-2.59-2.12-3.89-.57-1.13-1.16-2.3-1.82-3.4a.581.581 0 0 1 .19-.79c.27-.16.62-.08.79.19.68 1.13 1.28 2.32 1.86 3.47.64 1.27 1.3 2.58 2.07 3.79 1.59 2.53 3.43 4.11 5.97 5.12.96.39 1.81.76 2.62 1.11 4.2 1.84 6.98 3.05 15.99 2.08.78-.08 3.74-.05 4.37-.02.32.01.56.28.55.6-.01.32-.27.56-.6.55-.78-.03-3.57-.05-4.2.02-2.2.24-4.06.34-5.66.34ZM187.88 126.37c-.09 0-.18-.02-.26-.06l-3.24-1.66-.07-.08c-2.07-2.35-3.62-6.38-4.99-10.38-.1-.3.06-.63.36-.73.3-.1.63.06.73.36 1.31 3.84 2.79 7.7 4.69 9.91l3.05 1.56c.28.14.39.49.25.77-.1.2-.3.31-.51.31Z"/></g><g><path class="cls-4" d="M201.46 132.35c.19-.37.5-.66.89-.8.28-.1.55-.23.81-.37l3.6-1.91c.67-.33 1.64.44 2.34.67 2.11.69 6.49 2.33 6.13 3.87-.39 1.66-4.15.87-5.49.54-.31-.08-3.07.92-3.94.99-1.21.09-1.49-.22-2.08-.53-.27-.14-.57-.21-.89-.21-.5 0-.97-.21-1.28-.6-.34-.44-.4-1.03-.15-1.52l.07-.14Z"/><path d="M205.41 135.92c-.88 0-1.3-.24-1.71-.47-.08-.04-.16-.09-.24-.14-.18-.09-.38-.14-.63-.14-.69 0-1.31-.3-1.73-.82-.49-.61-.58-1.45-.22-2.14l.07-.14c.26-.51.69-.89 1.2-1.07.21-.08.45-.18.74-.34l3.6-1.91c.74-.36 1.54.04 2.18.36.22.11.44.22.61.28 7.03 2.31 6.64 3.99 6.51 4.54-.1.43-.37.79-.77 1.04-1.28.78-3.87.31-5.35-.06-.22.03-.92.24-1.43.39-.93.28-1.88.56-2.4.6-.16.01-.3.02-.44.02Zm-3.44-3.32-.07.14c-.15.29-.11.64.09.89s.51.39.85.39c.43 0 .82.09 1.16.27.1.05.19.1.28.16.4.23.65.37 1.49.31.39-.03 1.37-.32 2.16-.55 1.37-.41 1.69-.49 1.97-.42 2.13.53 3.87.61 4.54.21.18-.11.23-.23.25-.32.11-.49-1.32-1.74-5.75-3.19a5.07 5.07 0 0 1-.76-.34c-.39-.2-.93-.47-1.15-.36l-3.59 1.9c-.34.18-.62.31-.88.4-.24.09-.45.27-.57.52Z"/></g></g><g><path class="cls-4" d="M199.08 71.94c.5-.07.84-.55.73-1.04-.68-3.07-.42-8.32-.52-8.18-1.09 1.61-3.37-.41-6.62-.54-1.93-.08-2.68 1.07-2.96 2.01-.09.3-.5.36-.67.09-.47-.73-1.28-1.35-2.48-.15-1.33 1.33-.22 4.43.99 5.44-.29.33-4.9 5.3-8.44 9.04-.7.74-.6 1.92.21 2.54l3.14 2.39a5.87 5.87 0 0 0 6.73.26l.49-.31c.5-.32.59-1.02.18-1.46l-.95-1.01c-.77-.92-.63-2.08-.14-3.05l1.94-3.29c.45.54 1.01 1.16 1.53 1.52 1.04.72 2.32.61 3.24-.26 1.25-1.2 2.13-2.54 2.53-3.84l1.08-.15Z"/><path d="M186.01 85.3a6.43 6.43 0 0 1-3.9-1.31l-3.14-2.39c-.52-.39-.84-.99-.9-1.63-.05-.65.17-1.28.62-1.76 3.04-3.21 6.88-7.34 8.07-8.63-.76-.89-1.32-2.31-1.37-3.55-.04-.97.22-1.76.77-2.31.62-.62 1.24-.9 1.85-.83.48.05.91.31 1.29.77.38-.93 1.29-2.12 3.4-2.05 1.38.05 2.6.43 3.58.74 1.54.48 2.16.61 2.54.05.14-.21.41-.3.65-.23.43.13.43.32.43 1.51 0 1.6 0 4.93.48 7.09.09.39 0 .8-.22 1.13-.23.33-.59.55-.99.61l-.73.1c-.47 1.3-1.35 2.58-2.56 3.74-1.11 1.07-2.71 1.19-3.96.32-.33-.23-.7-.57-1.11-1.01l-1.54 2.61c-.26.51-.62 1.55.08 2.39l.93.99c.31.33.46.78.41 1.23-.06.45-.31.85-.69 1.1l-.49.31a6.44 6.44 0 0 1-3.48 1.02Zm1.82-21.27c-.3 0-.63.27-.87.51-.39.39-.45 1.01-.43 1.45.06 1.27.76 2.62 1.39 3.15a.58.58 0 0 1 .06.82c-.28.32-4.82 5.21-8.46 9.06-.22.24-.33.55-.31.87.03.33.19.62.45.81l3.14 2.39a5.316 5.316 0 0 0 6.07.24l.49-.31c.13-.08.16-.21.17-.28 0-.07 0-.2-.1-.31l-.95-1.01c-.85-1-.92-2.34-.23-3.7l1.96-3.33c.09-.16.26-.27.45-.28.18-.01.37.06.49.21.55.67 1.03 1.15 1.42 1.41.81.56 1.79.48 2.51-.21 1.18-1.13 2-2.37 2.37-3.6.06-.21.25-.37.47-.4l1.08-.15c.11-.02.18-.09.21-.13.03-.04.07-.12.04-.22-.49-2.22-.51-5.51-.51-7.2-.81.24-1.79-.06-2.81-.38-.96-.3-2.05-.64-3.28-.69-1.26-.06-2.05.47-2.39 1.6-.11.36-.41.61-.78.66a.947.947 0 0 1-.93-.42c-.16-.24-.4-.54-.67-.56h-.05Zm11.25 7.91Z"/><g><path class="cls-2" d="m190.08 73.81.62.87-.62-.87Z"/><path d="M190.7 75.25c-.18 0-.35-.08-.47-.24l-.62-.87a.574.574 0 0 1 .13-.8c.26-.18.62-.12.8.13l.62.87a.574.574 0 0 1-.46.91Z"/></g></g></g><g><path class="cls-9" d="m221.04 133.92 10.91-32.16c.65-1.01 1.79-1.62 3.02-1.62h29.09c1.32 0 2.17 1.28 1.74 2.41-.17.45-.36.89-.51 1.35l-9.86 30.07a3.223 3.223 0 0 1-3.23 3.17h-53.68c-1.78 0-3.23-1.45-3.23-3.23h25.75Z"/><path d="M252.2 137.72h-53.68c-2.1 0-3.8-1.71-3.8-3.81 0-.32.26-.57.57-.57h25.34l10.78-31.77s.04-.09.06-.13c.76-1.18 2.07-1.88 3.5-1.88h29.09c.82 0 1.55.38 2.01 1.04.44.64.54 1.44.27 2.15l-.15.39c-.13.32-.24.63-.35.94L256 134.09a3.82 3.82 0 0 1-3.8 3.63Zm-56.28-3.23a2.667 2.667 0 0 0 2.59 2.09h53.68a2.66 2.66 0 0 0 2.65-2.61c0-.08.02-.16.05-.23l9.84-30.01c.11-.34.24-.68.37-1l.15-.38c.14-.36.09-.76-.14-1.09-.24-.35-.63-.55-1.06-.55h-29.09c-1.01 0-1.94.49-2.5 1.3l-10.89 32.09a.58.58 0 0 1-.54.39h-25.11Z"/><path class="cls-6" d="M242.66 116.62c-.41 1.36.22 2.76 1.4 3.11 1.18.36 2.47-.46 2.88-1.82.41-1.36-.22-2.76-1.4-3.11-1.18-.36-2.47.46-2.88 1.82Z"/></g><path d="M305.96 136.61H176.81c-2.41 0-4.28 2.26-4 4.84l8.92 84.54h6.44l-5.58-79.34c-.1-1.4.93-2.59 2.22-2.59h110.87c1.94 0 3.48 1.78 3.33 3.88l-5.53 78.55h6.44l9.07-86.22c.2-1.95-1.21-3.65-3.02-3.65Z"/></g><path class="cls-5" d="M253.59 70.8c-1 0-1.87-.68-2.1-1.66l-.92-3.84a.651.651 0 0 0-.48-.48c-.69-.14-1.39-.32-2.07-.52-.23-.07-.48 0-.64.19l-2.62 2.94c-.68.76-1.78.94-2.66.45l-2.81-1.57a2.16 2.16 0 0 1-1.02-2.51l1.14-3.88c.05-.18 0-.37-.13-.49-.58-.51-1.14-1.07-1.68-1.65a.484.484 0 0 0-.49-.12l-3.95 1.3c-.9.3-1.86-.07-2.34-.88l-1.78-3c-.48-.81-.34-1.83.34-2.48l3.01-2.88c.14-.13.19-.32.13-.49-.25-.75-.47-1.51-.64-2.27a.45.45 0 0 0-.36-.34l-4.07-.86a1.98 1.98 0 0 1-1.58-1.93l-.05-3.49c-.01-.94.61-1.75 1.53-1.98l4.05-.98c.18-.04.32-.18.35-.36.15-.77.35-1.54.57-2.28.05-.17 0-.36-.15-.48l-3.1-2.79c-.7-.63-.87-1.64-.41-2.47l1.69-3.05a1.99 1.99 0 0 1 2.31-.95l3.85 1.14c.26.08.54 0 .71-.2.45-.51.93-1 1.44-1.48.19-.18.26-.47.18-.73l-1.19-3.67c-.32-1 .08-2.07.97-2.61l2.67-1.6c.9-.54 2.03-.38 2.75.38l2.64 2.8c.19.2.47.27.72.19.65-.22 1.32-.41 1.98-.57.26-.06.46-.27.51-.54l.79-3.77a2.21 2.21 0 0 1 2.14-1.77l3.11-.05c1.04-.02 1.95.69 2.19 1.71l.9 3.75c.06.27.27.47.53.52.66.14 1.33.31 1.99.5.25.08.53 0 .71-.21l2.56-2.87c.7-.78 1.83-.97 2.74-.46l2.72 1.53c.91.51 1.34 1.57 1.05 2.58l-1.08 3.66c-.08.28 0 .59.21.78.49.44.97.91 1.42 1.39.2.21.5.28.77.19l3.57-1.17c1.02-.34 2.12.08 2.67 1l1.55 2.61c.55.92.39 2.08-.39 2.82l-2.73 2.6c-.21.2-.29.51-.2.79.21.63.39 1.28.55 1.92.07.28.29.5.58.56l3.67.78c1.05.22 1.79 1.13 1.81 2.2l.04 3.04c.02 1.08-.7 2-1.74 2.25l-3.65.88c-.29.07-.51.3-.57.58-.13.64-.3 1.29-.48 1.92-.08.28 0 .59.23.79l2.79 2.52c.8.72.99 1.88.47 2.82l-1.47 2.64c-.53.94-1.61 1.39-2.65 1.08l-3.59-1.07c-.28-.08-.59 0-.78.22-.44.49-.9.97-1.38 1.42-.21.2-.29.51-.2.8l1.17 3.58c.33 1.03-.08 2.13-1 2.68l-2.59 1.55c-.93.56-2.09.39-2.83-.39l-2.58-2.73a.76.76 0 0 0-.78-.2c-.63.21-1.26.39-1.9.55-.28.07-.5.3-.56.59l-.79 3.78c-.21 1-1.07 1.71-2.08 1.72l-3.21.05h-.03Zm-5.74-8.05c.2 0 .41.03.61.09.64.19 1.29.36 1.94.49.81.17 1.46.8 1.65 1.61l.92 3.84c.07.3.33.5.63.5l3.21-.05c.3 0 .56-.22.62-.51l.79-3.78c.18-.86.84-1.55 1.69-1.75.59-.14 1.19-.31 1.78-.51.83-.28 1.76-.04 2.37.6l2.58 2.73c.25.26.64.32.95.13l2.59-1.55c.31-.18.45-.57.34-.91l-1.17-3.58c-.27-.84-.04-1.77.6-2.37.45-.43.88-.87 1.29-1.33.58-.65 1.5-.91 2.34-.66l3.59 1.07c.35.1.71-.05.89-.36l1.47-2.64c.18-.32.11-.71-.16-.96l-2.79-2.52c-.65-.59-.91-1.51-.67-2.35.17-.59.33-1.19.45-1.8.18-.86.84-1.54 1.7-1.75l3.65-.88c.35-.08.59-.4.58-.76l-.04-3.04a.75.75 0 0 0-.6-.74l-3.68-.78c-.86-.18-1.54-.85-1.74-1.69-.14-.6-.31-1.2-.51-1.79-.27-.83-.04-1.76.59-2.36l2.73-2.6c.26-.25.31-.64.13-.95l-1.55-2.61a.74.74 0 0 0-.89-.33l-3.57 1.17c-.84.27-1.76.04-2.36-.6-.43-.45-.87-.89-1.33-1.3-.65-.58-.9-1.5-.66-2.34l1.08-3.66a.728.728 0 0 0-.33-.83l-2.72-1.52a.705.705 0 0 0-.87.15l-2.56 2.87c-.57.64-1.47.9-2.28.65a24.1 24.1 0 0 0-1.86-.47c-.83-.17-1.5-.82-1.7-1.66l-.9-3.75c-.08-.33-.36-.53-.69-.54l-3.11.05c-.33 0-.61.24-.68.56l-.79 3.77c-.18.84-.82 1.51-1.65 1.71-.62.15-1.24.33-1.85.53-.81.27-1.71.04-2.3-.58l-2.64-2.8a.7.7 0 0 0-.87-.12l-2.67 1.6c-.29.17-.41.51-.31.83l1.19 3.67c.27.82.04 1.72-.58 2.31-.47.44-.92.91-1.34 1.38-.57.64-1.46.89-2.28.65l-3.85-1.14a.473.473 0 0 0-.55.23l-1.69 3.05c-.11.2-.07.45.1.6l3.1 2.79c.58.52.8 1.33.58 2.06-.21.7-.39 1.42-.54 2.14-.15.75-.73 1.35-1.49 1.53l-4.05.98c-.22.05-.37.25-.37.48l.05 3.49c0 .22.16.42.38.47l4.07.86c.76.16 1.36.74 1.53 1.49.16.71.37 1.42.6 2.12.25.72.04 1.54-.52 2.08l-3.02 2.88c-.17.16-.2.4-.08.6l1.78 3c.12.19.34.28.56.21l3.95-1.3c.74-.24 1.56-.04 2.08.53.5.54 1.03 1.06 1.57 1.54.57.5.8 1.31.58 2.05l-1.14 3.88c-.09.29.04.6.3.75l2.81 1.57c.26.15.59.09.79-.13l2.62-2.94c.42-.47 1.01-.72 1.61-.72Zm7-6.23c-4.94 0-9.77-2.48-12.56-6.93-2.2-3.5-2.84-7.79-1.78-11.79 1.08-4.03 3.7-7.34 7.38-9.3 6.79-3.62 15.33-1.33 19.43 5.21 2.2 3.5 2.84 7.79 1.78 11.79-1.08 4.03-3.7 7.34-7.38 9.3a14.594 14.594 0 0 1-6.87 1.71Zm-.09-28.2c-2.09 0-4.21.5-6.16 1.54-3.31 1.76-5.66 4.73-6.63 8.35-.97 3.64-.4 7.4 1.6 10.59 3.68 5.87 11.34 7.92 17.43 4.68 3.31-1.76 5.66-4.73 6.63-8.35.97-3.64.4-7.4-1.6-10.59-2.5-3.99-6.84-6.21-11.27-6.21ZM390.88 227.4c-.83 0-1.54-.56-1.73-1.37l-.76-3.17c-.05-.2-.2-.35-.4-.39-.57-.12-1.15-.26-1.71-.43a.49.49 0 0 0-.53.16l-2.16 2.43c-.56.63-1.46.78-2.2.37l-2.31-1.3a1.782 1.782 0 0 1-.84-2.07l.94-3.2c.04-.15 0-.31-.11-.4-.48-.42-.94-.88-1.39-1.36-.1-.11-.25-.14-.4-.1l-3.26 1.07c-.74.24-1.53-.05-1.93-.72l-1.47-2.47c-.4-.67-.28-1.51.28-2.04l2.49-2.38c.11-.11.16-.27.11-.41-.21-.62-.39-1.25-.53-1.87a.376.376 0 0 0-.3-.28l-3.36-.71c-.76-.16-1.3-.82-1.31-1.59l-.04-2.88c-.01-.78.51-1.45 1.26-1.63l3.34-.81a.39.39 0 0 0 .29-.29c.13-.63.29-1.27.47-1.88.04-.14 0-.3-.12-.4l-2.56-2.31c-.58-.52-.72-1.36-.34-2.03l1.4-2.52c.38-.68 1.16-1 1.91-.78l3.18.94c.21.06.44 0 .59-.16.37-.42.77-.83 1.18-1.22.16-.15.22-.39.15-.6l-.98-3.02c-.27-.82.06-1.71.8-2.15l2.21-1.32a1.81 1.81 0 0 1 2.27.31l2.18 2.31c.15.16.38.22.59.15.54-.18 1.09-.34 1.63-.47a.57.57 0 0 0 .42-.45l.65-3.11c.18-.85.9-1.45 1.77-1.46l2.57-.04c.86-.02 1.61.57 1.81 1.41l.74 3.1c.05.22.22.39.44.43.55.11 1.1.25 1.64.42.21.06.44 0 .58-.17l2.12-2.37c.58-.65 1.51-.8 2.26-.38l2.24 1.26c.75.42 1.11 1.3.86 2.13l-.89 3.02c-.07.23 0 .49.18.64.4.36.8.75 1.17 1.15.16.17.41.23.64.16l2.95-.97c.84-.28 1.75.06 2.2.83l1.28 2.15c.45.76.32 1.72-.32 2.33l-2.25 2.15c-.18.17-.24.42-.17.65.17.52.32 1.05.45 1.58.05.23.24.41.48.46l3.03.64c.87.18 1.48.93 1.49 1.82l.04 2.51c.01.89-.58 1.65-1.44 1.86l-3.01.73c-.24.06-.42.25-.47.48-.11.53-.24 1.06-.4 1.58-.07.23 0 .49.19.65l2.3 2.08c.66.59.82 1.55.39 2.33l-1.21 2.18c-.43.78-1.33 1.15-2.18.89l-2.96-.88c-.23-.07-.48 0-.64.18-.36.4-.74.8-1.14 1.17-.17.17-.24.42-.16.66l.96 2.95c.28.85-.06 1.76-.83 2.21l-2.13 1.28c-.76.46-1.72.33-2.34-.32l-2.13-2.25a.634.634 0 0 0-.65-.17c-.52.17-1.04.32-1.57.45a.64.64 0 0 0-.46.49l-.65 3.12c-.17.82-.88 1.41-1.72 1.42l-2.65.04h-.03Zm-4.73-6.64c.17 0 .34.02.5.07.52.16 1.06.29 1.6.41.67.14 1.2.66 1.36 1.33l.76 3.17c.06.24.28.41.52.41l2.65-.04c.25 0 .46-.18.51-.42l.65-3.12c.15-.71.7-1.28 1.39-1.45.49-.12.98-.26 1.46-.42.69-.23 1.45-.03 1.95.5l2.13 2.25c.21.22.53.26.78.11l2.13-1.28c.25-.15.37-.47.28-.75l-.96-2.95c-.22-.69-.03-1.46.49-1.95.37-.35.73-.72 1.06-1.1a1.89 1.89 0 0 1 1.93-.55l2.96.88c.29.08.59-.04.73-.3l1.21-2.18a.64.64 0 0 0-.13-.79l-2.3-2.08c-.54-.49-.75-1.25-.55-1.94.14-.49.27-.99.37-1.48.15-.71.7-1.27 1.4-1.44l3.01-.73c.29-.07.48-.33.48-.62l-.04-2.51c0-.3-.21-.55-.5-.61l-3.03-.64c-.71-.15-1.27-.7-1.44-1.4-.12-.49-.26-.99-.42-1.48-.23-.68-.03-1.45.49-1.95l2.25-2.15a.64.64 0 0 0 .11-.78l-1.28-2.15a.628.628 0 0 0-.73-.28l-2.95.97c-.69.23-1.45.03-1.95-.49-.35-.37-.72-.74-1.1-1.07-.53-.48-.74-1.24-.54-1.93l.89-3.02a.577.577 0 0 0-.27-.68l-2.24-1.26a.578.578 0 0 0-.71.12l-2.12 2.37c-.47.53-1.21.74-1.88.54-.51-.15-1.02-.28-1.54-.39-.69-.14-1.23-.68-1.4-1.37l-.74-3.1c-.06-.27-.3-.44-.57-.45l-2.57.04c-.27 0-.5.2-.56.47l-.65 3.11c-.14.69-.68 1.24-1.36 1.41-.51.12-1.02.27-1.53.44-.67.22-1.41.03-1.9-.48l-2.18-2.31a.577.577 0 0 0-.72-.1l-2.21 1.32a.59.59 0 0 0-.26.69l.98 3.02c.22.67.03 1.42-.48 1.9-.39.37-.76.75-1.11 1.14-.47.52-1.21.73-1.88.53l-3.18-.94a.41.41 0 0 0-.46.19l-1.4 2.52c-.09.16-.06.37.08.49l2.56 2.31c.47.43.66 1.09.48 1.7-.18.58-.33 1.17-.44 1.77-.12.62-.6 1.12-1.23 1.27l-3.34.81c-.18.04-.31.21-.3.39l.04 2.88c0 .19.13.35.31.39l3.36.71c.62.13 1.12.61 1.26 1.23.14.59.3 1.17.5 1.75.2.6.03 1.27-.43 1.71l-2.49 2.38c-.14.13-.16.33-.07.5l1.47 2.47c.1.16.28.23.46.17l3.26-1.07c.61-.2 1.28-.03 1.71.44.42.45.85.88 1.3 1.27.47.42.66 1.08.48 1.69l-.94 3.2c-.07.24.03.5.25.62l2.31 1.3c.22.12.48.08.65-.11l2.16-2.43c.34-.38.83-.6 1.33-.6Zm5.78-5.14c-4.08 0-8.06-2.05-10.36-5.71a12.355 12.355 0 0 1-1.47-9.72c.89-3.33 3.05-6.05 6.09-7.67 5.6-2.98 12.64-1.1 16.03 4.3 1.81 2.89 2.35 6.43 1.47 9.72-.89 3.33-3.05 6.05-6.09 7.67-1.8.96-3.74 1.41-5.67 1.41Zm-.07-23.27c-1.73 0-3.47.41-5.08 1.27-2.73 1.45-4.67 3.9-5.47 6.89-.8 3-.33 6.1 1.32 8.73 3.04 4.84 9.35 6.54 14.38 3.86 2.73-1.45 4.67-3.9 5.47-6.89.8-3 .33-6.1-1.32-8.73-2.06-3.29-5.64-5.13-9.3-5.13Z"/><path class="cls-1" d="M0 0h540v240H0z"/></svg>