<svg id="Layer_1" xmlns="http://www.w3.org/2000/svg" viewBox="0 0 540 240"><defs><style>.cls-1{fill:none}.cls-2{fill:#fa9441}.cls-3{fill:#008566}.cls-4{fill:#fff}.cls-5{fill:#ffbc78}.cls-6{fill:#9f5e32}.cls-7{fill:#d59467}</style></defs><path class="cls-1" d="M0 0h540v240H0z"/><path class="cls-5" d="M46 106v108H26V106h20m2-2H24v112h24V104ZM86 158v56H66v-56h20m2-2H64v60h24v-60ZM126 140v74h-20v-74h20m2-2h-24v78h24v-78ZM434 148v66h-20v-66h20m2-2h-24v70h24v-70ZM474 178v36h-20v-36h20m2-2h-24v40h24v-40ZM514 178v36h-20v-36h20m2-2h-24v40h24v-40Z"/><path class="cls-1" d="M108 0h324v240H108z"/><path d="M370.91 90.38c1.85 2.6 1.6 4.13 3.38 5.03 2.99 1.51 5.42-1.98 8.82-1.18 4.05.96 7.18 7.51 6.58 13.3-.62 5.92-5.2 11.74-9.06 11.48-3.76-.25-5.65-6.17-8.92-5.44-1.71.38-1.89 2.15-3.65 2.57-2.55.6-3.61-3.8-7.04-4.53-2.28-.48-3.47.96-5.97 1.81-6.62 2.24-16.5-1.76-17.83-7.55-.8-3.47 1.65-6.82 3.07-8.76 3.03-4.14 6.02-2.83 11.99-7.4 4.4-3.37 4.14-4.93 6.72-5.44 4.12-.81 9.22 2.32 11.93 6.12Z"/><path d="M347.51 96.35s-4.12-6.4 1.47-10.43c5.59-4.03 13.06-3.83 17.44 2.23 4.38 6.06 3.16 18.27-7.15 15.36-4.09-1.15-11.76-7.15-11.76-7.15ZM351.65 206.12a.43.43 0 0 1-.41-.29l-2.1-5.79c-.08-.22.03-.46.24-.56l5.23-2.24a.44.44 0 0 1 .61.31l1.52 7.11c.02.12 0 .24-.06.33-.06.1-.17.17-.28.19l-4.64.92h-.09Zm-1.54-5.99 1.83 5.04 3.83-.76-1.31-6.14-4.35 1.86Z"/><path class="cls-4" d="M357.01 203.2s-1.05.55-3.18 1.54-2.97-1.2-5.35-1.54c-1.59-.23-5.39 3.23-7.73 5.54-.75.74-.22 2.02.83 2.02h14.56c1.5 0 2.65-1.31 2.47-2.8-.21-1.68-.65-3.69-1.6-4.76Z"/><path d="M356.14 211.2h-14.56c-.67 0-1.25-.39-1.5-1-.25-.62-.12-1.3.36-1.77 4-3.96 6.73-5.86 8.1-5.66 1.08.15 1.86.65 2.54 1.08.92.59 1.53.97 2.56.5 2.09-.97 3.15-1.53 3.16-1.53.18-.09.4-.05.54.1.84.95 1.41 2.63 1.71 5 .1.84-.16 1.68-.71 2.31-.56.63-1.35.99-2.19.99Zm-7.83-7.57c-1.1 0-3.79 2.01-7.24 5.43-.22.22-.28.52-.16.8.12.29.37.46.68.46h14.56c.59 0 1.14-.25 1.53-.69.39-.44.57-1.03.5-1.61-.24-1.94-.68-3.4-1.28-4.26-.46.23-1.41.7-2.87 1.38-1.46.68-2.45.05-3.41-.55-.64-.41-1.3-.82-2.19-.95h-.11Z"/><path d="M357.01 208.91h-14.15c-.24 0-.44-.2-.44-.44s.2-.44.44-.44h14.15c.24 0 .44.2.44.44s-.2.44-.44.44ZM347.88 206.95c-.1 0-.2-.03-.28-.1l-2.2-1.77a.443.443 0 0 1-.07-.62c.15-.19.43-.22.62-.07l2.2 1.77c.19.15.22.43.07.62a.44.44 0 0 1-.34.16ZM357.13 200.72s-4.73.57-8.07-.08c0 0-3.37-8.16-4.76-22.53-1.39-14.37 2.4-29.48 2.4-29.48l15.45 2.8s1.43 8.02-2.86 21.08c-4.21 12.83-2.15 28.21-2.15 28.21Z"/><path class="cls-6" d="m369.2 200.13 1.83 5.04 3.83-.76-1.31-6.14-4.35 1.86Z"/><path d="M370.74 206.12a.43.43 0 0 1-.41-.29l-2.1-5.79c-.08-.22.03-.46.24-.56l5.23-2.24a.44.44 0 0 1 .61.31l1.52 7.11c.02.12 0 .24-.06.33-.06.1-.17.17-.28.19l-4.64.92h-.09Zm-1.54-5.99 1.83 5.04 3.83-.76-1.31-6.14-4.35 1.86Z"/><g><path class="cls-4" d="M376.09 203.2s-1.05.55-3.18 1.54-2.97-1.2-5.35-1.54c-1.59-.23-5.39 3.23-7.73 5.54-.75.74-.22 2.02.83 2.02h14.56c1.5 0 2.65-1.31 2.47-2.8-.21-1.68-.65-3.69-1.6-4.76Z"/><path d="M375.22 211.2h-14.56c-.67 0-1.25-.38-1.5-1s-.12-1.3.36-1.77c4-3.96 6.72-5.86 8.1-5.66 1.08.15 1.86.65 2.54 1.08.92.59 1.53.97 2.56.5 2.09-.97 3.15-1.53 3.16-1.53.18-.09.4-.05.54.1.84.95 1.41 2.63 1.71 5 .1.84-.16 1.68-.71 2.31-.56.63-1.35.99-2.19.99Zm-7.83-7.57c-1.1 0-3.79 2.01-7.24 5.43-.22.22-.28.52-.16.8.12.29.37.46.68.46h14.56c.59 0 1.14-.25 1.53-.69.39-.44.57-1.03.5-1.61-.24-1.94-.68-3.4-1.28-4.26-.46.23-1.41.71-2.87 1.38-1.46.68-2.45.05-3.41-.55-.64-.41-1.3-.82-2.19-.95h-.11Z"/><path d="M376.09 208.91h-14.15c-.24 0-.44-.2-.44-.44s.2-.44.44-.44h14.15c.24 0 .44.2.44.44s-.2.44-.44.44ZM366.97 206.95c-.1 0-.2-.03-.28-.1l-2.2-1.77a.443.443 0 0 1-.07-.62c.15-.19.43-.22.62-.07l2.2 1.77c.19.15.22.43.07.62a.44.44 0 0 1-.34.16Z"/></g><path d="M375.38 198.45s-4.42 1.78-7.81 2.03c0 0-5.38-7-10.47-20.51-5.09-13.51-5.37-29.08-5.37-29.08l15.64-1.33s3.47 7.37 2.73 21.1c-.72 13.49 5.28 27.8 5.28 27.8Z"/><path class="cls-4" d="M356.96 180.02c-.16 0-.31-.08-.39-.23-3.07-5.71-3.29-14.71-3.29-15.09 0-.24.19-.45.43-.45.25 0 .45.19.45.43 0 .09.22 9.17 3.19 14.69a.438.438 0 0 1-.39.65Z"/><path class="cls-3" d="M322.77 120.02s8.88.02 19.12-5.26c9.52-4.9 20.29-.91 23 1.31 4.52 3.7 3.16 20.8 6.7 28.95 3.54 8.14 6.3 13.81-.4 16.57s-17.14-5.44-25.26-2.85c-8.12 2.59-4.71 3.76-7.7 1.59s6.09-37.55 6.09-37.55-12.42 11.67-23.45.46l1.9-3.21Z"/><g><path class="cls-6" d="M358.89 105.12c-.11.44-.92 3.8-.21 6.27.47 1.64 2.78 3.06 2.78 3.06s-7.22 1.76-11.38.54c-4.16-1.23-3.67-1.58-3.67-1.58l3.34-1.73c1.11-.66 1.04-1.6 1.01-2.48l-.02-.5c-.55.07-2.39.24-4.03-.93-2.23-1.59-2.29-4.35-2.27-5.11.04-1.56.67-1.25 1.38-4.01.61-2.37.42-3.61 1.5-5.37.4-.65.81-1.12 1.08-1.41 1.41.15 2.85.59 4.01 1.61 1.24 1.08 1.06 1.85 2.3 2.7 1.8 1.24 3.55.56 4.05 1.57.18.37.22 1.01-.53 2.18 0 0 1.84-1.06 3.02-.27.46.31.68.79.77 1.14.32 1.33-.95 3.06-3.14 4.33Z"/><path d="M353.75 115.87c-1.35 0-2.67-.12-3.8-.45-3.87-1.14-3.95-1.58-4-1.87-.03-.19.04-.38.19-.49.02-.01.04-.02.05-.03l3.34-1.73c.82-.5.8-1.15.77-1.98v-.12c-.99.06-2.49-.07-3.86-1.05-2.37-1.69-2.48-4.63-2.46-5.48.02-.89.23-1.27.5-1.76.25-.46.56-1.03.9-2.35.2-.79.32-1.46.42-2.06.2-1.18.38-2.2 1.13-3.43.32-.53.71-1.03 1.14-1.48.09-.1.23-.15.37-.13 1.73.19 3.17.76 4.26 1.72.64.56.93 1.04 1.19 1.47.27.45.49.8 1.07 1.2.83.57 1.64.69 2.35.8.77.12 1.5.23 1.85.94.21.43.21.93 0 1.53.7-.2 1.61-.28 2.34.21.66.44.89 1.13.95 1.4.36 1.49-.89 3.33-3.18 4.72-.18.75-.79 3.68-.17 5.86.42 1.45 2.56 2.8 2.58 2.81.15.09.23.27.2.44-.03.18-.16.32-.33.36-.22.05-4.09.99-7.81.99Zm-6.57-2.36c.43.21 1.29.55 3.02 1.06 3.12.92 8.1.09 10.18-.33-.76-.6-1.81-1.6-2.13-2.72-.77-2.69.17-6.34.21-6.5.03-.11.1-.21.2-.27 1.99-1.16 3.19-2.74 2.93-3.84-.03-.14-.17-.6-.58-.88-.77-.52-2.1.03-2.55.29a.44.44 0 0 1-.59-.62c.51-.79.68-1.39.51-1.75-.14-.28-.5-.35-1.19-.46-.77-.12-1.72-.27-2.72-.95-.73-.5-1.03-.99-1.32-1.47-.25-.41-.49-.8-1.02-1.26-.91-.79-2.1-1.29-3.55-1.48-.33.36-.62.76-.88 1.17-.66 1.09-.81 1.94-1.01 3.12-.1.61-.22 1.3-.44 2.13-.37 1.43-.72 2.08-.98 2.55-.24.44-.37.69-.39 1.36-.02.75.07 3.31 2.09 4.74 1.38.98 2.92.95 3.71.85.12-.02.25.02.34.1.1.08.15.2.16.32l.02.59c.03.89.07 2.01-1.23 2.78l-2.8 1.45Z"/><path d="M351.36 109.18c-.22 0-.45-.01-.68-.04a.443.443 0 0 1-.38-.5c.03-.24.26-.41.5-.38 2.47.33 4.91-1.73 4.93-1.75.18-.16.46-.14.62.05.16.19.14.46-.05.62-.1.09-2.36 2-4.95 2Z"/></g><g><path class="cls-5" d="M321.59 204.65a5.16 5.16 0 1 1-10.32 0v-58.22a5.16 5.16 0 1 1 10.32 0v58.22Z"/><path d="M316.42 210.26a5.62 5.62 0 0 1-5.61-5.61v-58.22c0-3.09 2.52-5.61 5.61-5.61s5.61 2.52 5.61 5.61v58.22a5.62 5.62 0 0 1-5.61 5.61Zm0-68.55c-2.6 0-4.72 2.12-4.72 4.72v58.22c0 2.6 2.12 4.72 4.72 4.72s4.72-2.12 4.72-4.72v-58.22c0-2.6-2.12-4.72-4.72-4.72Z"/><rect class="cls-4" x="293.28" y="161.97" width="47.32" height="15.77" rx="6.99" ry="6.99"/><path d="M333.6 178.19h-33.34c-4.1 0-7.43-3.33-7.43-7.43v-1.79c0-4.1 3.33-7.43 7.43-7.43h33.34c4.1 0 7.43 3.33 7.43 7.43v1.79c0 4.1-3.33 7.43-7.43 7.43Zm-33.34-15.77a6.56 6.56 0 0 0-6.55 6.55v1.79a6.56 6.56 0 0 0 6.55 6.55h33.34a6.56 6.56 0 0 0 6.55-6.55v-1.79a6.56 6.56 0 0 0-6.55-6.55h-33.34Z"/><rect class="cls-3" x="285.39" y="178.46" width="63.09" height="15.77" rx="6.99" ry="6.99"/><g><rect class="cls-4" x="276.79" y="194.23" width="80.29" height="15.77" rx="6.99" ry="6.99"/><path d="M350.09 210.45h-66.31c-4.1 0-7.43-3.33-7.43-7.43v-1.79c0-4.1 3.33-7.43 7.43-7.43h66.31c4.1 0 7.43 3.33 7.43 7.43v1.79c0 4.1-3.33 7.43-7.43 7.43Zm-66.31-15.77a6.56 6.56 0 0 0-6.55 6.55v1.79a6.56 6.56 0 0 0 6.55 6.55h66.31a6.56 6.56 0 0 0 6.55-6.55v-1.79a6.56 6.56 0 0 0-6.55-6.55h-66.31Z"/></g></g><g><rect class="cls-4" x="308.88" y="117.48" width="30.66" height="14.66" rx="6.5" ry="6.5"/><path d="M333.05 132.59h-17.66c-3.83 0-6.94-3.11-6.94-6.94v-1.67c0-3.83 3.11-6.94 6.94-6.94h17.66c3.83 0 6.94 3.11 6.94 6.94v1.67c0 3.83-3.11 6.94-6.94 6.94Zm-17.66-14.66c-3.34 0-6.06 2.72-6.06 6.06v1.67c0 3.34 2.72 6.06 6.06 6.06h17.66c3.34 0 6.06-2.72 6.06-6.06v-1.67c0-3.34-2.72-6.06-6.06-6.06h-17.66Z"/><g><path class="cls-6" d="M335.54 127.56c-.24-.39-4.77-5.8-4.77-5.8l-5.92-.4s.2 1.86 3.12 3.1c2.91 1.24 2.5 3.02 4.28 4.29 1.78 1.27 5.69 2.58 5.69 2.58l-2.4-3.78Z"/><path d="M337.94 131.79s-.09 0-.14-.02c-.16-.05-3.99-1.35-5.81-2.64-.8-.57-1.19-1.23-1.58-1.87-.52-.87-1.02-1.7-2.62-2.38-3.12-1.33-3.37-3.37-3.38-3.46-.01-.13.03-.26.12-.35.09-.09.22-.14.35-.13l5.92.4c.12 0 .23.06.31.16.76.91 4.55 5.44 4.8 5.84l2.4 3.78c.1.16.09.36-.03.51a.44.44 0 0 1-.35.17Zm-12.47-9.93c.28.57.97 1.49 2.67 2.21 1.86.79 2.48 1.83 3.03 2.74.35.59.68 1.14 1.33 1.6 1.1.79 3.09 1.61 4.37 2.09l-1.71-2.69c-.18-.29-2.88-3.53-4.61-5.6l-5.08-.34Z"/><path class="cls-3" d="m335.47 125.55-1.55 5.14s7.09 4.74 19.79 3.48c12.7-1.26 17.82-12.77 15.66-16.83-2.16-4.06-5.7-1.12-11.74 4.7-8 7.71-22.16 3.5-22.16 3.5Z"/><path d="M351.92 135.12c-1.36 0-2.83-.09-4.42-.29a.439.439 0 0 1 .11-.87c14.48 1.85 18.68-6.05 18.72-6.13.11-.22.38-.3.59-.19.22.11.3.38.19.59-.16.31-3.66 6.9-15.21 6.9ZM350.06 126.73a.44.44 0 0 1-.44-.42c-.01-.24.17-.45.41-.47 1.72-.1 4.04-.75 6.75-4.88 2.81-4.28 5.01-4.46 5.11-4.47.24-.01.45.17.47.41.01.24-.17.45-.41.47-.05 0-1.92.26-4.43 4.07-2.96 4.51-5.66 5.17-7.43 5.28h-.03Z"/></g></g><g><path class="cls-4" d="M162.93 187.41s-1.95 3.01-2.8 5.13 4.99 7.94 12.43 8.48c7.44.54 6.53-2.18 3.42-4.67-3.11-2.49-7.77-7.85-7.77-7.85l-5.28-1.09Z"/><path d="M174.31 201.53c-.54 0-1.14-.02-1.78-.07-5.54-.4-10.45-3.7-12.27-6.6-.61-.98-.8-1.84-.54-2.49.85-2.13 2.76-5.08 2.84-5.2.1-.15.28-.23.46-.19l5.28 1.09c.1.02.18.07.24.14.05.05 4.66 5.36 7.71 7.8 1.37 1.09 2.89 2.68 2.37 4.02-.39 1.01-1.81 1.51-4.31 1.51Zm-11.17-13.62c-.48.77-1.92 3.1-2.6 4.8-.15.36.03.98.47 1.69 1.46 2.33 6.01 5.78 11.58 6.19 4.27.31 5.07-.51 5.21-.88.24-.63-.56-1.78-2.1-3.01-2.9-2.31-7.02-6.99-7.73-7.79l-4.84-.99Z"/><path d="M173.07 199.2c-2.55 0-6.58-1.1-11.76-6.04a.432.432 0 0 1-.01-.62c.17-.18.45-.18.62-.01 8.58 8.18 13.77 5.25 13.82 5.22.21-.12.48-.06.61.15s.06.48-.15.6c-.1.06-1.19.69-3.13.69Z"/><path class="cls-4" d="M193.3 190.67s11.23 4 11.88 8.06c.49 3.06-11.56 2.57-17.54 2.14a3.426 3.426 0 0 1-3.18-3.63c.15-2.43.53-5.61 1.52-7.5 1.76-3.38 7.32.93 7.32.93Z"/><path d="M195.65 201.64c-2.63 0-5.45-.14-8.04-.33a3.884 3.884 0 0 1-3.59-4.1c.15-2.41.53-5.7 1.57-7.68.41-.79 1.03-1.28 1.85-1.46 2.36-.52 5.59 1.83 6.08 2.2 1.02.37 11.44 4.23 12.1 8.38.08.47-.06.91-.4 1.28-1.18 1.29-5.09 1.7-9.57 1.7Zm-7.47-12.75c-.19 0-.37.02-.55.06-.56.12-.97.45-1.26 1-.96 1.84-1.33 5-1.47 7.32a2.995 2.995 0 0 0 2.77 3.16c9.34.67 15.66.26 16.9-1.09.16-.17.21-.34.18-.54-.5-3.12-8.54-6.63-11.59-7.71-.04-.02-.09-.04-.12-.07-.03-.02-2.78-2.13-4.86-2.13Z"/><path d="M193.76 199.25c-1.94 0-4.29-.11-7.16-.37a.446.446 0 0 1-.4-.48c.02-.24.24-.42.48-.4 11.09 1.01 13.95-.34 14.66-.96.27-.23.27-.4.27-.4v.03l.87-.13c.01.08.05.52-.42 1.01-.8.84-2.94 1.69-8.32 1.69ZM201.35 125.86s1.29 19.19-.27 30.94-6.95 33.32-6.95 33.32-3.81 2.19-9.45.32c0 0 1.19-28.56 1.3-39.6 0 0-8.22 30.19-16.83 38.58 0 0-3.66 1.79-7.52-.98 0 0 4.93-23.05 5.71-30.25.78-7.2 3.81-26.05 5.85-30.91 2.04-4.86 28.17-1.42 28.17-1.42Z"/><path d="M186.23 150.4c-.05 0-.11 0-.16-.03a.448.448 0 0 1-.26-.57l5.59-14.67c.06-.16.21-.27.38-.28l3.4-.25c.24-.02.45.17.47.41.02.24-.16.45-.41.47l-3.12.23-5.49 14.41a.43.43 0 0 1-.41.28Z"/><path class="cls-3" d="M205.28 134.04s-2.96-15.3-2.96-25.97c0-9.43-1.62-14.09-2.8-15.17-1.18-1.07-6.67-5.42-11.95-6.08-5.28-.66-17.22 1.32-21.69 7.2-4.47 5.88-4.17 36.13-1.64 41.07 2.52 4.93 30.54 5.44 41.06-1.05Z"/><g><path d="M179.63 80.18c-2.22.91-4.11 1.66-6.63 1.37-.43-.05-5.78-.74-6.51-4.04-.32-1.45.37-2.78.8-3.45-1.76-.26-2.95-1.77-2.82-3.27.1-1.14.96-2.16 2.16-2.57-.79-.79-2.07-2.32-2.41-4.49-.81-5.28 4.83-9.19 6.04-9.97 1.44-.92 4.81-3.1 7.9-1.71 1.44.65 2.28 1.82 2.72 2.59.45-.42 1.23-1.06 2.34-1.45 3.48-1.24 7.61.76 9.69 3.59.5.68 1.76 2.4 1.58 4.57-.15 1.79-1.19 2.66-2.48 4.61-2.35 3.56-1.33 4.38-3.14 7.28-2.62 4.2-6.93 5.97-9.26 6.93Z"/><path class="cls-7" d="M177.81 79.51c.1.49.82 5.22-1.05 7.32-1.87 2.1-3.68 2.68-3.68 2.68s8.58 2 13.2.93c4.62-1.07 4.02-2.27 4.02-2.27l-2.62-1.37a2.359 2.359 0 0 1-1.26-2.31l.05-.55c.6.12 2.59.42 4.46-.75 2.54-1.59 2.79-4.6 2.82-5.44.06-1.7-.65-1.41-1.25-4.48-.51-2.63-.23-3.97-1.28-5.97a8.89 8.89 0 0 0-1.09-1.61c-1.56.07-3.16.46-4.49 1.5-1.42 1.1-1.28 1.95-2.69 2.8-2.05 1.24-3.92.38-4.53 1.46-.23.4-.3 1.09.44 2.42 0 0-1.95-1.28-3.28-.49-.52.3-.8.82-.91 1.19-.43 1.43.84 3.4 3.14 4.93Z"/><path d="M182.93 91.21c-4.48 0-9.67-1.2-9.95-1.26a.448.448 0 0 1-.34-.41c0-.2.12-.38.31-.44.02 0 1.73-.58 3.49-2.56 1.5-1.68 1.19-5.52.98-6.77-2.41-1.66-3.65-3.73-3.17-5.32.09-.29.37-1.01 1.11-1.45.84-.5 1.85-.32 2.61-.05-.21-.69-.19-1.25.07-1.71.42-.73 1.21-.8 2.05-.88.79-.07 1.69-.16 2.64-.73.66-.4.92-.78 1.25-1.25.31-.45.66-.96 1.39-1.52 1.25-.96 2.84-1.5 4.74-1.59.14 0 .27.05.36.15.44.52.83 1.09 1.15 1.69.74 1.39.86 2.51 1 3.81.07.66.15 1.4.33 2.28.29 1.47.59 2.12.83 2.64.26.55.46.98.42 1.94-.03.94-.34 4.12-3.03 5.8-1.58.99-3.23 1.02-4.3.89v.08c-.08.78.32 1.52 1.02 1.88l2.62 1.37c.08.04.15.11.19.19.08.17.12.47-.03.8-.39.83-1.83 1.54-4.28 2.11-1.02.24-2.21.33-3.45.33Zm-8.5-1.86c2.53.5 8.32 1.46 11.75.67 2.83-.66 3.5-1.33 3.66-1.59l-2.36-1.24a2.79 2.79 0 0 1-1.49-2.74l.05-.55c.01-.12.07-.24.17-.31s.23-.1.35-.08c.87.17 2.56.3 4.14-.69 2.31-1.45 2.58-4.26 2.61-5.08.03-.75-.11-1.03-.34-1.53-.25-.53-.59-1.27-.9-2.84-.18-.91-.26-1.68-.34-2.35-.14-1.31-.25-2.25-.9-3.49-.25-.48-.55-.94-.9-1.36-1.62.11-2.97.58-4.02 1.39-.62.48-.92.91-1.21 1.32-.34.5-.7 1.01-1.52 1.51-1.12.68-2.17.78-3.01.86-.77.07-1.18.12-1.36.44-.22.39-.07 1.07.44 1.98a.44.44 0 0 1-.62.59c-.48-.31-1.92-1.01-2.81-.48-.48.28-.67.79-.72.94-.37 1.21.85 3.03 2.97 4.44.1.07.17.17.19.28.01.05.98 5.3-1.15 7.7-.98 1.1-1.94 1.8-2.66 2.22Z"/><path d="M186.11 84.4c-2.97 0-5.48-2.4-5.59-2.5a.432.432 0 0 1-.01-.62c.17-.18.45-.18.62-.01.03.02 2.57 2.45 5.31 2.24.24-.02.46.16.47.41.02.24-.16.46-.41.47-.13 0-.27.01-.4.01Z"/></g><path class="cls-3" d="M192.64 89.2s12.32 1.67 18.84 14.11c4.35 8.3 6.52 14.44 3.19 20.15-1.93 3.3-5.79 7.1-9.64 6.76l-4.63-4.08s7.27-10.9-2.38-23.04l-5.39-13.89Z"/><g><path class="cls-5" transform="rotate(180 203.01 131.55)" d="M187.91 116.44h30.21v30.21h-30.21z"/><path d="M218.12 147.1h-30.21c-.24 0-.44-.2-.44-.44v-30.21c0-.24.2-.44.44-.44h30.21c.24 0 .44.2.44.44v30.21c0 .24-.2.44-.44.44Zm-29.77-.88h29.33v-29.33h-29.33v29.33Z"/><g><path class="cls-4" transform="rotate(180 210.105 131.55)" d="M195 116.44h30.21v30.21H195z"/><path d="M225.21 147.1H195c-.24 0-.44-.2-.44-.44v-30.21c0-.24.2-.44.44-.44h30.21c.24 0 .44.2.44.44v30.21c0 .24-.2.44-.44.44Zm-29.77-.88h29.33v-29.33h-29.33v29.33Z"/></g></g><g><path class="cls-7" d="m176.14 132.96 10.41-3.86c1.33-.36 4.41 1.26 5.87 2.55.32.28.4.75.21 1.13l-.86.92-.58 1.97c-.15 1.05-2.38 1.31-3.39.99l-11.66-3.7Z"/><path d="M188.79 137.23c-.42 0-.82-.05-1.12-.15l-11.66-3.7a.452.452 0 0 1-.31-.41c0-.19.11-.36.29-.42l10.41-3.86s.03 0 .04-.01c1.54-.42 4.75 1.29 6.27 2.65.47.41.59 1.1.31 1.66a.36.36 0 0 1-.07.1l-.79.85-.55 1.84c-.05.27-.21.65-.7.95-.55.35-1.38.51-2.13.51Zm-11.29-4.3 10.43 3.32c.63.2 1.89.13 2.51-.27.18-.11.28-.24.3-.37 0-.02 0-.04.01-.06l.58-1.97a.4.4 0 0 1 .1-.18l.81-.87c.07-.2.02-.42-.13-.56-1.47-1.31-4.37-2.72-5.44-2.46l-9.19 3.4Z"/><path class="cls-3" d="M167.52 92.41s-10.18 8.32-8.76 22.68c.95 9.58 2.58 16.07 8.95 19.13 3.69 1.77 9.42 2.88 12.7.43l2.73-4.67s-13.93-6.76-12.32-22.6l-3.29-14.97Z"/><path d="M180.78 129.05c-.09 0-.17-.03-.25-.08-12.31-8.52-10.84-24.51-10.83-24.67.02-.24.24-.42.48-.39.24.02.42.24.4.48-.02.16-1.42 15.64 10.45 23.86.2.14.25.41.11.61a.45.45 0 0 1-.36.19ZM175.53 136.06c-4.37 0-7.96-1.29-10.71-3.85-7.45-6.93-6.18-20.55-6.13-21.13.02-.24.24-.42.48-.4.24.02.42.24.4.48-.01.14-1.28 13.77 5.85 20.4 3.45 3.21 8.34 4.28 14.53 3.2a.442.442 0 0 1 .15.87c-1.61.28-3.13.42-4.57.42Z"/></g><g><path class="cls-5" d="M196.87 181.2h29.35v29.35h-29.35z"/><path d="M226.23 211h-29.35c-.24 0-.44-.2-.44-.44v-29.35c0-.24.2-.44.44-.44h29.35c.24 0 .44.2.44.44v29.35c0 .24-.2.44-.44.44Zm-28.91-.88h28.47v-28.47h-28.47v28.47Z"/><path class="cls-4" d="M189.98 181.2h29.35v29.35h-29.35z"/><path d="M219.33 211h-29.35c-.24 0-.44-.2-.44-.44v-29.35c0-.24.2-.44.44-.44h29.35c.24 0 .44.2.44.44v29.35c0 .24-.2.44-.44.44Zm-28.91-.88h28.47v-28.47h-28.47v28.47Z"/><g><path class="cls-2" d="M215.74 151.46h29.35v29.35h-29.35z"/><path d="M245.09 181.25h-29.35c-.24 0-.44-.2-.44-.44v-29.35c0-.24.2-.44.44-.44h29.35c.24 0 .44.2.44.44v29.35c0 .24-.2.44-.44.44Zm-28.91-.88h28.47V151.9h-28.47v28.47Z"/><g><path class="cls-5" d="M208.85 151.46h29.35v29.35h-29.35z"/><path d="M238.2 181.25h-29.35c-.24 0-.44-.2-.44-.44v-29.35c0-.24.2-.44.44-.44h29.35c.24 0 .44.2.44.44v29.35c0 .24-.2.44-.44.44Zm-28.91-.88h28.47V151.9h-28.47v28.47Z"/></g></g><g><path class="cls-5" d="M231.37 181.2h29.35v29.35h-29.35z"/><path d="M260.72 211h-29.35c-.24 0-.44-.2-.44-.44v-29.35c0-.24.2-.44.44-.44h29.35c.24 0 .44.2.44.44v29.35c0 .24-.2.44-.44.44Zm-28.91-.88h28.47v-28.47h-28.47v28.47Z"/><g><path class="cls-2" d="M224.48 181.2h29.35v29.35h-29.35z"/><path d="M253.83 211h-29.35c-.24 0-.44-.2-.44-.44v-29.35c0-.24.2-.44.44-.44h29.35c.24 0 .44.2.44.44v29.35c0 .24-.2.44-.44.44Zm-28.91-.88h28.47v-28.47h-28.47v28.47Z"/></g></g></g></g></svg>