<svg id="Layer_1" xmlns="http://www.w3.org/2000/svg" viewBox="0 0 540 240"><defs><style>.cls-1{fill:none}.cls-2{fill:#fa9441}.cls-3{fill:#fff}.cls-4{fill:#9f5e32}.cls-5{fill:#a9ddf3}.cls-6{fill:#d59467}.cls-7{fill:#29abe2}.cls-8{fill:#2b71b8}.cls-9{fill:#398296}</style></defs><path class="cls-1" d="M0 0h540v240H0z"/><path class="cls-2" d="M36 200c-4.96 0-9-4.04-9-9s4.04-9 9-9 9 4.04 9 9-4.04 9-9 9Zm0-16c-3.86 0-7 3.14-7 7s3.14 7 7 7 7-3.14 7-7-3.14-7-7-7ZM73 200c-4.96 0-9-4.04-9-9s4.04-9 9-9 9 4.04 9 9-4.04 9-9 9Zm0-16c-3.86 0-7 3.14-7 7s3.14 7 7 7 7-3.14 7-7-3.14-7-7-7ZM101 156c-4.96 0-9-4.04-9-9s4.04-9 9-9 9 4.04 9 9-4.04 9-9 9Zm0-16c-3.86 0-7 3.14-7 7s3.14 7 7 7 7-3.14 7-7-3.14-7-7-7ZM174 180c-4.96 0-9-4.04-9-9s4.04-9 9-9 9 4.04 9 9-4.04 9-9 9Zm0-16c-3.86 0-7 3.14-7 7s3.14 7 7 7 7-3.14 7-7-3.14-7-7-7ZM214 139c-4.96 0-9-4.04-9-9s4.04-9 9-9 9 4.04 9 9-4.04 9-9 9Zm0-16c-3.86 0-7 3.14-7 7s3.14 7 7 7 7-3.14 7-7-3.14-7-7-7ZM253 149c-4.96 0-9-4.04-9-9s4.04-9 9-9 9 4.04 9 9-4.04 9-9 9Zm0-16c-3.86 0-7 3.14-7 7s3.14 7 7 7 7-3.14 7-7-3.14-7-7-7ZM318 103c-4.96 0-9-4.04-9-9s4.04-9 9-9 9 4.04 9 9-4.04 9-9 9Zm0-16c-3.86 0-7 3.14-7 7s3.14 7 7 7 7-3.14 7-7-3.14-7-7-7ZM365 123c-4.96 0-9-4.04-9-9s4.04-9 9-9 9 4.04 9 9-4.04 9-9 9Zm0-16c-3.86 0-7 3.14-7 7s3.14 7 7 7 7-3.14 7-7-3.14-7-7-7ZM385 83c-4.96 0-9-4.04-9-9s4.04-9 9-9 9 4.04 9 9-4.04 9-9 9Zm0-16c-3.86 0-7 3.14-7 7s3.14 7 7 7 7-3.14 7-7-3.14-7-7-7ZM453 133c-4.96 0-9-4.04-9-9s4.04-9 9-9 9 4.04 9 9-4.04 9-9 9Zm0-16c-3.86 0-7 3.14-7 7s3.14 7 7 7 7-3.14 7-7-3.14-7-7-7ZM508 34c-4.96 0-9-4.04-9-9s4.04-9 9-9 9 4.04 9 9-4.04 9-9 9Zm0-16c-3.86 0-7 3.14-7 7s3.14 7 7 7 7-3.14 7-7-3.14-7-7-7Z"/><path class="cls-1" d="M108 0h324v240H108z"/><path class="cls-3" d="M368.69 148.07v-9.76h-35.47v9.6c0 3.49-1.62 6.79-4.38 8.93a11.294 11.294 0 0 0-4.38 8.93v50.04c0 4.52 3.66 8.18 8.18 8.18h36.24c4.52 0 8.18-3.66 8.18-8.18v-50.2c0-3.4-1.54-6.63-4.18-8.77a11.272 11.272 0 0 1-4.18-8.77Z"/><path class="cls-5" d="M328.84 156.84a11.294 11.294 0 0 0-4.38 8.93v50.04c0 4.52 3.66 8.18 8.18 8.18h36.24c4.52 0 8.18-3.66 8.18-8.18v-50.2c0-3.4-1.54-6.63-4.18-8.77h-44.04Z"/><path class="cls-3" d="M324.4 172.77h52.32v23.94H324.4z"/><path d="M376.72 197.29H324.6a.49.49 0 0 1 0-.98h52.12a.49.49 0 0 1 0 .98Z"/><path d="M368.88 224.48h-36.24c-4.78 0-8.67-3.89-8.67-8.67v-50.04c0-3.62 1.71-7.1 4.57-9.31 2.63-2.03 4.19-5.22 4.19-8.54v-9.6c0-.27.22-.49.49-.49h35.47c.27 0 .49.22.49.49v9.76c0 3.27 1.46 6.33 4 8.39 2.78 2.25 4.37 5.58 4.37 9.15v50.2c0 4.78-3.89 8.67-8.67 8.67Zm-35.17-85.68v9.12c0 3.62-1.71 7.1-4.57 9.31a10.846 10.846 0 0 0-4.19 8.54v50.04c0 4.24 3.45 7.69 7.69 7.69h36.24c4.24 0 7.69-3.45 7.69-7.69v-50.2c0-3.27-1.46-6.33-4-8.39a11.714 11.714 0 0 1-4.37-9.15v-9.28h-34.5Z"/><rect class="cls-7" x="327.13" y="131.11" width="47.25" height="14.11" rx="7.05" ry="7.05"/><path d="M370.05 145.7h-38.6c-2.65 0-4.81-2.16-4.81-4.81v-5.46c0-2.65 2.16-4.81 4.81-4.81h38.6c2.65 0 4.81 2.16 4.81 4.81v5.46c0 2.65-2.16 4.81-4.81 4.81Zm-38.6-14.11c-2.12 0-3.84 1.72-3.84 3.84v5.46c0 2.12 1.72 3.84 3.84 3.84h38.6c2.12 0 3.84-1.72 3.84-3.84v-5.46c0-2.12-1.72-3.84-3.84-3.84h-38.6Z"/><path class="cls-7" d="m333.88 186.23 1.56-5.18h1.58l-2.4 6.88h-1.48l-2.39-6.88h1.57l1.55 5.18ZM341.2 186.52h-2.49l-.47 1.42h-1.51l2.56-6.88h1.31l2.58 6.88h-1.51l-.48-1.42Zm-2.1-1.15h1.72l-.87-2.58-.86 2.58ZM349.13 185.64c-.05.74-.33 1.32-.82 1.75-.49.43-1.14.64-1.95.64-.88 0-1.58-.3-2.08-.89-.51-.59-.76-1.41-.76-2.45v-.42c0-.66.12-1.24.35-1.75s.57-.89 1-1.16c.43-.27.94-.4 1.51-.4.79 0 1.43.21 1.92.64.49.43.77 1.02.84 1.79h-1.42c-.03-.44-.16-.77-.37-.97-.21-.2-.54-.3-.97-.3-.47 0-.83.17-1.06.51-.23.34-.36.86-.36 1.58v.52c0 .74.11 1.29.34 1.63.23.34.58.52 1.07.52.44 0 .77-.1.98-.3.22-.2.34-.51.37-.93h1.42ZM355.47 185.64c-.05.74-.33 1.32-.82 1.75-.49.43-1.14.64-1.95.64-.88 0-1.58-.3-2.08-.89s-.76-1.41-.76-2.45v-.42c0-.66.12-1.24.35-1.75s.57-.89 1-1.16c.43-.27.94-.4 1.51-.4.79 0 1.43.21 1.92.64.49.43.77 1.02.84 1.79h-1.42c-.03-.44-.16-.77-.37-.97-.21-.2-.54-.3-.97-.3-.47 0-.83.17-1.06.51-.23.34-.36.86-.36 1.58v.52c0 .74.11 1.29.34 1.63.23.34.58.52 1.07.52.44 0 .77-.1.98-.3.22-.2.34-.51.37-.93h1.42ZM357.91 187.93h-1.42v-6.88h1.42v6.88ZM364.82 187.93h-1.42l-2.76-4.53v4.53h-1.42v-6.88h1.42l2.77 4.54v-4.54h1.41v6.88ZM370.2 184.95h-2.72v1.84h3.2v1.14h-4.61v-6.88h4.6v1.15h-3.19v1.64h2.72v1.11Z"/><path class="cls-5" d="M366.13 150.96h-9.67a.49.49 0 0 1 0-.98h9.67a.49.49 0 0 1 0 .98Z"/><g><path class="cls-3" d="M371.31 164.08h-30.12a.49.49 0 0 1 0-.98h30.12a.49.49 0 0 1 0 .98ZM335.02 164.08h-5.21a.49.49 0 0 1 0-.98h5.21a.49.49 0 0 1 0 .98Z"/></g><g><path class="cls-3" d="M371.31 134.16h-31.27a.49.49 0 0 1 0-.98h31.27a.49.49 0 0 1 0 .98ZM336.18 134.16h-4.83a.49.49 0 0 1 0-.98h4.83a.49.49 0 0 1 0 .98Z"/></g><g><path d="M371.31 217.37H352.2a.49.49 0 0 1 0-.98h19.11a.49.49 0 0 1 0 .98ZM345.83 217.37h-12.16a.49.49 0 0 1 0-.98h12.16a.49.49 0 0 1 0 .98Z"/></g><g><path class="cls-7" d="M394.15 85.81h1.43v38.54h-1.43z"/><path d="M395.58 124.84a.49.49 0 0 1-.49-.49V85.81a.49.49 0 0 1 .98 0v38.54c0 .27-.22.49-.49.49Z"/><path class="cls-3" d="M392.49 127.21h4.76v5.34h-4.76z"/><path d="M397.25 133.04h-4.76a.49.49 0 0 1-.49-.49v-5.34c0-.27.22-.49.49-.49h4.76c.27 0 .49.22.49.49v5.34c0 .27-.22.49-.49.49Zm-4.27-.97h3.79v-4.37h-3.79v4.37Z"/><path class="cls-7" d="M398.53 128.05h-7.32l1.88-8.22h3.56l1.88 8.22z"/><path class="cls-3" d="M386.98 131.8h15.77v55.24h-15.77z"/><path class="cls-5" d="M386.98 131.8h15.77v33.71h-15.77z"/><path class="cls-3" d="M391.27 185.5h7.19v34.78h-7.19z"/><path class="cls-5" d="M394.89 168.65h3.57v51.05h-3.57z"/><path d="M398.46 220.77h-7.19a.49.49 0 0 1-.49-.49v-52.13c0-.27.22-.49.49-.49h7.19c.27 0 .49.22.49.49v52.13c0 .27-.22.49-.49.49Zm-6.71-.97h6.22v-51.16h-6.22v51.16Z"/><path class="cls-7" d="M386.98 165.5h15.77v3.58h-15.77z"/><path class="cls-7" d="M398.46 184.53h-7.19a.49.49 0 0 1-.49-.49v-15.9c0-.27.22-.49.49-.49h7.19c.27 0 .49.22.49.49v15.9c0 .27-.22.49-.49.49Zm-6.71-.97h6.22v-14.92h-6.22v14.92Z"/><path d="M402.75 187.52h-15.77a.49.49 0 0 1-.49-.49v-55.24c0-.27.22-.49.49-.49h15.77c.27 0 .49.22.49.49v55.24c0 .27-.22.49-.49.49Zm-15.28-.97h14.8v-54.27h-14.8v54.27Z"/><path class="cls-3" d="M382 183.97h25.74v3.33H382z"/><path d="M407.74 187.79H382a.49.49 0 0 1-.49-.49v-3.33c0-.27.22-.49.49-.49h25.74c.27 0 .49.22.49.49v3.33c0 .27-.22.49-.49.49Zm-25.26-.97h24.77v-2.36h-24.77v2.36Z"/><g><path class="cls-3" d="M386.23 219.89h17.27v3.33h-17.27z"/><path d="M403.51 223.71h-17.27a.49.49 0 0 1-.49-.49v-3.33c0-.27.22-.49.49-.49h17.27c.27 0 .49.22.49.49v3.33c0 .27-.22.49-.49.49Zm-16.79-.97h16.3v-2.36h-16.3v2.36Z"/></g><g><path d="M393.4 135.79h-3.31a.49.49 0 0 1 0-.98h3.31a.49.49 0 0 1 0 .98ZM395.26 139.72h-5.17a.49.49 0 0 1 0-.98h5.17a.49.49 0 0 1 0 .98ZM393.4 143.86h-3.31a.49.49 0 0 1 0-.98h3.31a.49.49 0 0 1 0 .98ZM395.26 147.79h-5.17a.49.49 0 0 1 0-.98h5.17a.49.49 0 0 1 0 .98ZM393.4 151.92h-3.31a.49.49 0 0 1 0-.98h3.31a.49.49 0 0 1 0 .98ZM395.26 155.85h-5.17a.49.49 0 0 1 0-.98h5.17a.49.49 0 0 1 0 .98ZM393.4 159.78h-3.31a.49.49 0 0 1 0-.98h3.31a.49.49 0 0 1 0 .98ZM395.26 163.92h-5.17a.49.49 0 0 1 0-.98h5.17a.49.49 0 0 1 0 .98ZM393.4 167.85h-3.31a.49.49 0 0 1 0-.98h3.31a.49.49 0 0 1 0 .98ZM395.26 171.98h-5.17a.49.49 0 0 1 0-.98h5.17a.49.49 0 0 1 0 .98Z"/></g></g><g><path class="cls-6" d="m160.67 200.1-1.71 12.07-4.38.02-.2-11.87 6.29-.22z"/><path d="M154.58 212.67c-.27 0-.48-.21-.49-.48l-.21-11.87c0-.27.2-.49.47-.49l6.3-.22c.15 0 .28.05.38.16.1.11.14.25.12.39l-1.71 12.07c-.03.24-.24.42-.48.42l-4.38.02Zm.29-11.88.19 10.91h3.48l1.57-11.09-5.24.18Z"/><path class="cls-3" d="M159.11 223.71c-1.72.18-4.28.26-7.69-.04-1.22-.11-2.08-1.25-1.89-2.46.53-3.27 2.01-9.05 4.35-11.7l1.15 1.65.68-1.71c.11-.18 3.01-.31 3.07.04l.18 1.67 1.65-1.85-.09 6.09c0 .67.05 1.34.19 2l.43 2.1c.26 1.27-.06 2.61-.94 3.55-.34.37-.73.63-1.09.66Z"/><path d="M155.78 224.35c-1.23 0-2.7-.06-4.41-.21-.72-.06-1.36-.41-1.81-.99-.45-.57-.64-1.32-.52-2.04.14-.86 1.45-8.53 4.46-11.95.1-.11.24-.17.39-.16.15 0 .29.08.37.21l.64.91.35-.87s.02-.05.03-.07c.36-.6 3.07-.38 3.25-.34.16.03.64.12.71.55v.03l.07.57.92-1.03c.13-.15.35-.2.54-.13.19.07.31.26.31.46l-.09 6.09c0 .64.05 1.27.18 1.9l.43 2.1c.3 1.46-.1 2.95-1.06 3.98-.45.48-.93.77-1.39.82-.81.09-1.93.16-3.38.16Zm-1.94-14.05c-2.07 2.79-3.38 8.12-3.84 10.97-.07.46.05.92.33 1.29.28.36.68.58 1.12.61 3.64.32 6.14.2 7.6.04.22-.02.5-.21.78-.51.75-.8 1.06-1.97.82-3.12l-.43-2.1a9.93 9.93 0 0 1-.2-2.11l.07-4.78-.78.88c-.13.14-.33.2-.51.14a.514.514 0 0 1-.34-.41l-.15-1.4c-.5-.08-1.76-.05-2.25.03l-.6 1.5c-.07.17-.22.28-.4.3a.486.486 0 0 1-.45-.2l-.78-1.12Z"/><path d="M155.98 222.2c-1.21 0-2.71-.09-4.4-.39a.485.485 0 0 1-.39-.56c.05-.26.3-.44.56-.39 4.21.74 7.19.15 7.22.15.26-.05.52.12.57.38.05.26-.12.52-.38.57-.08.02-1.27.25-3.19.25ZM157.38 217.57h-3.97a.49.49 0 0 1 0-.98h3.97a.49.49 0 0 1 0 .98Z"/><g><path class="cls-6" d="m192.09 201.18 1.54 14.07 5.89 1.23-.36-16.49-7.07 1.19z"/><path d="M199.52 216.97s-.07 0-.1-.01l-5.89-1.24a.467.467 0 0 1-.38-.42l-1.54-14.06a.48.48 0 0 1 .4-.53l7.07-1.19c.14-.02.28.01.39.1.11.09.17.22.18.36l.36 16.49c0 .15-.06.29-.18.38a.51.51 0 0 1-.31.11Zm-5.44-2.13 4.94 1.04-.33-15.32-6.06 1.02 1.45 13.26Z"/><path class="cls-3" d="M191.14 221.95c-.13-2.46-.13-7 1.36-9.19l4.71 1.69v-1.01c0-.33.23-.59.53-.61l2.63-.15c.98-.06 1.96.15 2.85.59 2.64 1.3 10.68 4.65 11.79 8.41.33 1.11-.54 2.22-1.69 2.25-2.64.08-9 .16-20.42-.23-.95-.03-1.72-.79-1.77-1.74Z"/><path d="M208.06 224.48c-3.51 0-8.47-.07-15.16-.3a2.318 2.318 0 0 1-2.24-2.2c-.13-2.56-.13-7.19 1.45-9.49.12-.18.36-.26.57-.18l4.06 1.45v-.32c0-.58.43-1.06.98-1.1l2.63-.15c1.06-.06 2.13.16 3.1.64.31.16.71.34 1.15.55 3.44 1.62 9.85 4.64 10.89 8.16.19.66.07 1.36-.34 1.92-.42.58-1.09.94-1.8.96-1.13.03-2.87.06-5.29.06Zm-15.34-11.13c-.89 1.62-1.29 4.7-1.08 8.57.04.71.6 1.26 1.3 1.28 11.29.39 17.62.31 20.39.23.42-.01.8-.21 1.04-.55.23-.32.3-.71.19-1.07-.92-3.1-7.3-6.11-10.37-7.56-.45-.21-.85-.4-1.17-.56-.82-.4-1.72-.59-2.61-.54l-2.63.15s-.07.05-.07.13v1.01a.488.488 0 0 1-.65.46l-4.34-1.55Z"/><path d="M206.23 222.14c-3.35 0-7.87-.15-12.81-.72a.485.485 0 0 1-.43-.54c.03-.27.27-.46.54-.43 10.02 1.17 18.31.56 18.39.55.27-.02.5.18.52.45.02.27-.18.5-.45.52-.04 0-2.26.17-5.77.17ZM204.77 218.12c-.1 0-.2-.03-.28-.09l-4.54-3.28a.483.483 0 0 1-.11-.68c.16-.22.46-.27.68-.11l4.54 3.28c.22.16.27.46.11.68-.09.13-.24.2-.39.2Z"/></g><g><path class="cls-8" d="M192.91 104.03s9.47 64.07 7.67 102.9l-2.63.26c-1.42.14-2.84.18-4.26.11l-2.5-.13c-11.22-65.75-14.07-68.86-16.25-76.1 0 0-12.51 59.77-13.04 73.98 0 0-6.08.61-8.5-.26-1.3-13.71-1.68-27.91-1.74-36.82-.19-25.5 2.24-37.09 3.57-42.59 1.22-5.05 2.53-9.15 3.49-11.92l3.2-9.16 31-.28Z"/><path d="M195.1 207.82c-.48 0-.97-.01-1.45-.04l-2.5-.13a.471.471 0 0 1-.45-.4c-9.67-56.66-13.18-66.95-15.27-73.09-.14-.4-.27-.79-.4-1.18-2.09 10.11-12.19 59.48-12.65 72.09 0 .24-.2.44-.44.47-.25.03-6.22.61-8.71-.29a.476.476 0 0 1-.32-.41c-1.39-14.66-1.69-29.39-1.74-36.86-.18-24.27 1.96-36 3.58-42.7.98-4.03 2.15-8.06 3.5-11.97l3.2-9.16a.51.51 0 0 1 .45-.33l31-.28c.23 0 .45.18.49.42.09.64 9.45 64.56 7.67 102.99-.01.24-.2.44-.44.46l-2.63.26c-.96.1-1.92.14-2.89.14Zm-3.51-1.11 2.11.11c1.39.07 2.8.04 4.19-.1l2.22-.22c1.62-36.74-6.81-96.38-7.62-101.97l-30.24.28-3.08 8.84c-1.34 3.88-2.51 7.87-3.48 11.88-1.61 6.66-3.73 18.3-3.56 42.47.05 7.41.35 21.94 1.71 36.46 2.06.58 6.24.29 7.58.18.75-14.82 12.91-73.04 13.03-73.64a.49.49 0 0 1 .46-.39c.23 0 .42.13.49.35.3.99.6 1.88.95 2.91 2.24 6.56 5.61 16.46 15.25 72.86Z"/><path d="M174.45 133.93h-.09a.49.49 0 0 1-.39-.57l.85-4.64v-.04a4.315 4.315 0 0 1 2.18-2.69c.24-.12.53-.03.66.21.12.24.03.53-.21.66-.82.42-1.43 1.17-1.68 2.06l-.85 4.62c-.04.23-.25.4-.48.4Z"/></g><g><path class="cls-8" d="M160.84 53.75s16.17-3.91 28.04-.44c11.87 3.47-1.34 54.36-1.34 54.36s-7.21 2.41-17.57 1.06c-10.36-1.36-9.12-54.98-9.12-54.98Z"/><path d="M176.33 109.63c-1.96 0-4.12-.12-6.44-.42-4.56-.6-7.54-10.17-8.87-28.45-.98-13.44-.68-26.89-.67-27.03 0-.22.16-.41.37-.46.16-.04 16.44-3.9 28.29-.44 5.19 1.52 6.58 11.28 4.12 29.02-1.8 13.03-5.1 25.81-5.13 25.94-.04.16-.16.29-.32.34-.23.08-4.58 1.5-11.35 1.5Zm-15.02-55.49c-.32 15.06.63 53.05 8.71 54.11 9.06 1.19 15.76-.56 17.11-.96.48-1.89 3.39-13.62 5.04-25.57 2.34-16.94 1.15-26.6-3.43-27.94-10.63-3.11-24.97-.18-27.42.36Z"/><path class="cls-6" d="M220.3 84.75c3.4-3.34 8.15-6.5 14.81-8.66.28-.09.5-.33.65-.59.73-1.34 3.23-5.6 5.94-6.11 3.13-.59 10.5-.82 2.62 4.46-.19.13-.09.43.14.43.88-.02 2.13.03 2.19.47.15 1.03-4.39 3.07-7.1 4.22s-4.23 1.1-9.07 7.14c-2.98 3.72-16.57 4.92-10.18-1.35Z"/><path d="M221.98 89.66c-.58 0-1.13-.04-1.61-.14-1.5-.29-2-.98-2.16-1.51-.29-.98.28-2.16 1.76-3.61 3.93-3.87 8.98-6.82 15-8.78.18-.06.31-.25.37-.36.94-1.73 3.43-5.82 6.28-6.35.24-.04 5.82-1.08 6.62.88.41.99-.54 2.28-2.98 4 1.22.05 1.8.33 1.88.88.11.73-.37 1.76-7.39 4.74-.36.15-.71.29-1.04.42-2.08.81-3.72 1.44-7.84 6.58-1.59 1.99-5.78 3.26-8.89 3.26Zm-1.33-4.57c-1.55 1.52-1.61 2.31-1.51 2.64.16.52.95.75 1.41.84 2.72.53 7.94-.75 9.56-2.77 4.28-5.34 6.03-6.02 8.25-6.88.32-.13.66-.25 1.01-.4 5.42-2.29 6.53-3.29 6.75-3.62-.19-.06-.64-.16-1.65-.13-.32 0-.6-.2-.7-.51-.1-.31.02-.63.28-.81 3.53-2.37 3.32-3.2 3.29-3.29-.26-.64-2.96-.78-5.54-.29-1.99.38-4.2 3.27-5.6 5.86-.22.41-.55.7-.92.82-5.88 1.91-10.8 4.79-14.62 8.55Z"/><path class="cls-3" d="M173.4 80.68c-1.85-10.89-6.68-23.5-9.13-28.53-1.51.24-2.65.52-4.29 1.12-2.32.86-6.02 3.45-7.66 5.31-4.85 5.51-13.79 17.42-13.81 30.24 0 1.87 1.43 3.43 3.29 3.58l9.86.82s-6.18 52.81-5.52 55.38c.66 2.57 9.17 5.92 18.57.93 1.32-.7 2.97-1.18 4.78-1.5 1.54-13.64 5.96-55.26 3.91-67.35Z"/><path d="M154.84 152.61c-2.44 0-4.56-.48-6.16-1.18-1.66-.73-2.75-1.71-3.01-2.69-.65-2.51 4.59-47.73 5.45-55.06l-9.36-.78c-2.1-.17-3.74-1.96-3.73-4.07.02-12.83 8.74-24.66 13.93-30.56 1.73-1.97 5.48-4.57 7.86-5.45 1.56-.58 2.75-.89 4.38-1.15.21-.03.42.07.51.27 2.75 5.63 7.41 18.24 9.17 28.67 2.07 12.22-2.47 54.75-3.91 67.49-.02.21-.19.39-.4.42-1.89.33-3.45.82-4.63 1.46-3.61 1.92-7.1 2.64-10.1 2.64Zm9.15-99.93c-1.4.24-2.44.52-3.84 1.04-2.22.82-5.85 3.34-7.47 5.18-5.1 5.81-13.67 17.41-13.69 29.92 0 1.61 1.24 2.97 2.84 3.1l9.86.82c.13.01.25.07.34.18.08.1.12.23.11.36-2.48 21.19-6 53.39-5.53 55.2.14.53.85 1.34 2.46 2.05 3.37 1.48 9.18 1.89 15.42-1.43 1.2-.64 2.73-1.14 4.56-1.49 1.48-13.13 5.91-54.87 3.88-66.86-1.72-10.13-6.19-22.35-8.93-28.08Z"/><path class="cls-3" d="M210.1 73.36c-4.02-7.21-7.26-12.95-16.52-18.63-1.66-1.02-4.48-2.09-6.74-2.26-1.92 4.74-5.54 13.94-7.13 21.48-1.95 9.24 1.18 58.83 1.74 74.67 5.21 1.07 8.05 1.06 8.08 1.06 2.27.02 11.05-.9 10.76-5.57l-.63-9.16a507.77 507.77 0 0 0-3.42-33.47l-1.33-15.74 7.84 4.68c4.07 2.43 8.23 4.72 14.34 3.44l10.97-4.14 2.17-.82c5.18-2.46-3.57-12.44-4.74-12.57-5.28-.62-14.89-2.07-15.4-2.98Z"/><path d="M189.61 150.17h-.08c-.31 0-3.14-.04-8.17-1.07a.49.49 0 0 1-.39-.46c-.13-3.63-.39-9.06-.7-15.33-1.02-20.82-2.55-52.27-1.03-59.46 1.72-8.13 5.81-18.24 7.15-21.56.08-.2.28-.32.49-.3 2.36.17 5.29 1.3 6.96 2.33 9.43 5.78 12.79 11.8 16.67 18.78.79.68 8.53 2 15.04 2.77 1.18.14 6.08 5.71 6.72 9.59.3 1.84-.33 3.19-1.83 3.91-.01 0-.02.01-.04.02l-13.15 4.95s-.05.02-.07.02c-6.53 1.37-11.05-1.33-14.69-3.5l-7.03-4.19 1.25 14.8c1.49 11.05 2.64 22.32 3.42 33.47l.63 9.16c.07 1.11-.31 2.1-1.11 2.96-2.44 2.57-8.12 3.13-10.05 3.13Zm-7.69-1.95c4.7.94 7.32.97 7.61.97 2.09.01 7.38-.67 9.43-2.83.62-.66.9-1.39.85-2.22l-.63-9.16c-.77-11.13-1.92-22.38-3.41-33.43l-1.34-15.76a.46.46 0 0 1 .23-.45c.15-.1.35-.1.51 0l7.84 4.68c4.43 2.64 8.27 4.57 13.95 3.39l13.09-4.93c.96-.46 1.4-1.25 1.32-2.4-.23-3.68-5.22-9.01-5.96-9.25-2.4-.28-6.17-.79-9.49-1.38-5.79-1.03-6.08-1.54-6.25-1.84-3.98-7.15-7.12-12.79-16.35-18.45-1.49-.91-4.03-1.91-6.17-2.15-1.46 3.6-5.32 13.27-6.97 21.06-1.49 7.06.04 38.44 1.05 59.21.3 6.07.55 11.33.69 14.96Zm48.31-59.31Z"/><path d="M186.65 133.19c-.16 0-.31-.08-.41-.22-2.27-3.42-3-11.22-3.03-11.55-.02-.17.06-.33.2-.44s.32-.12.47-.06c3.77 1.54 7.56 1.45 11.58-.28.25-.11.53 0 .64.26.11.25 0 .53-.26.64-4.01 1.72-7.81 1.91-11.58.57.25 2.07 1.05 7.71 2.79 10.32.15.22.09.53-.14.67a.53.53 0 0 1-.27.08ZM159.77 136.98a.49.49 0 0 1-.29-.88c5.32-3.95 6.16-11.83 6.29-14.26-4.02 1.55-7.83 1.55-11.63 0a.486.486 0 0 1-.27-.63c.1-.25.39-.37.63-.27 3.77 1.54 7.56 1.45 11.58-.28.15-.06.32-.05.46.04s.22.24.22.4c0 .44 0 10.79-6.71 15.78-.09.06-.19.1-.29.1Z"/><g><path class="cls-7" d="M192.15 78.39c-.08 0-.16-.02-.23-.06l-7.12-3.91a.48.48 0 0 1-.19-.66.48.48 0 0 1 .66-.19l7.12 3.91c.24.13.32.42.19.66-.09.16-.26.25-.43.25Z"/><path class="cls-7" d="m183.07 73.99.89-1.65 1.62 1.44-.44.8-2.07-.59z"/><path class="cls-3" d="m172.58 68.97 1.59-2.93 10.2 5.6-1.59 2.93-10.2-5.6z"/><path class="cls-5" d="m176.55 71.15 1.6-2.93 6.38 3.51-1.59 2.93-6.39-3.51z"/><path class="cls-7" d="M176.55 71.64c-.08 0-.16-.02-.23-.06a.48.48 0 0 1-.19-.66l1.59-2.93a.48.48 0 0 1 .66-.19c.24.13.32.42.19.66l-1.59 2.93c-.09.16-.26.25-.43.25Z"/><path class="cls-3" d="m168.74 65.83.73-1.34 4.55 2.5-.73 1.34-4.55-2.5z"/><path class="cls-7" d="M182.78 75.06c-.08 0-.16-.02-.23-.06l-10.2-5.6a.48.48 0 0 1-.19-.66c.13-.24.43-.32.66-.19l9.78 5.37 1.36-2.5a.48.48 0 0 1 .66-.19c.24.13.32.42.19.66l-1.59 2.93c-.06.11-.17.2-.29.23a.59.59 0 0 1-.14.02Z"/><path class="cls-3" d="m171.55 69.6 2.6-4.77 1.09.6-2.6 4.77-1.09-.6z"/><path class="cls-7" d="M172.64 70.69c-.08 0-.16-.02-.23-.06a.48.48 0 0 1-.19-.66l2.6-4.78a.48.48 0 0 1 .66-.19c.24.13.32.42.19.66l-2.6 4.78c-.09.16-.26.25-.43.25Z"/><path class="cls-3" d="m167.71 66.54 1.74-3.21 1.2.66-1.74 3.21-1.2-.66z"/><path class="cls-7" d="M168.91 67.68c-.08 0-.16-.02-.23-.06a.48.48 0 0 1-.19-.66l1.74-3.21a.48.48 0 0 1 .66-.19c.24.13.32.42.19.66l-1.74 3.21c-.09.16-.26.25-.43.25Z"/></g><g><path class="cls-6" d="M161.25 72.07c-.85 1.16-1.86 2.19-3 3.06-3.84 2.95-13 10.08-15.19 12.54-2.78 3.14-4.16 4.35-.68 10.96 5.67 10.78 20.97-20.98 20.97-20.98s5.79.25 6.39-4.9c0 0 3.01.13 4.18-.55 1.14-.66.63-2.14-.65-2.14 0 0-1.47.22-3.15.11-1.82-.11-3.46-.49-3.47-.52-.29-.86-.23-1.79.17-2.61l.71-1.28c.63-1.01-.73-1.84-1.55-.92-1.43 1.63-2.41 1.73-3.97 6.21l-.75 1.01Z"/><path d="M145.39 101.35c-1.41 0-2.56-.84-3.43-2.49-3.53-6.71-2.18-8.22.5-11.24l.25-.28c2.21-2.49 11.4-9.64 15.25-12.6 1.1-.85 2.08-1.84 2.91-2.96l.7-.95c1.24-3.54 2.14-4.41 3.17-5.41.28-.27.56-.55.87-.89.63-.71 1.52-.68 2.05-.29.56.42.68 1.15.28 1.78l-.69 1.26c-.29.61-.36 1.31-.2 1.98.51.11 1.76.35 3.11.43 1.61.1 3.03-.11 3.05-.11h.07c.83 0 1.52.5 1.72 1.24.19.7-.14 1.41-.82 1.81-1.02.59-3.08.64-4 .63-.78 4.39-5.25 4.84-6.5 4.89-1.34 2.74-11.53 23.1-18.21 23.21h-.06Zm16.26-28.99c-.88 1.19-1.92 2.25-3.1 3.16-3.83 2.94-12.96 10.05-15.12 12.48l-.25.28c-2.53 2.84-3.58 4.02-.36 10.14.71 1.35 1.56 1.99 2.61 1.97 5.33-.09 14.43-16.59 17.49-22.94.08-.18.27-.28.46-.27.22 0 5.35.16 5.88-4.47a.49.49 0 0 1 .5-.43c.8.03 3.06 0 3.91-.49.31-.18.44-.44.37-.72-.06-.23-.3-.5-.75-.52-.26.04-1.63.21-3.21.11-.99-.06-1.89-.2-2.47-.3-1.25-.22-1.34-.27-1.43-.55-.33-.98-.26-2.04.19-2.97l.72-1.31c.14-.23.13-.4-.02-.51-.18-.13-.48-.14-.73.15-.33.37-.63.67-.92.95-.95.92-1.78 1.72-2.96 5.1-.02.05-.04.09-.07.13l-.75 1.01Z"/></g></g><g><path class="cls-6" d="m181.2 52.08.53-3.79c.13-.45.53-.76.99-.78l3.46-.09a1 1 0 0 0 .93-.76l.96-3.94 1.56-.7c.12-.05.18-.2.13-.32l-1.2-2.96c-.35-1.09-.33-3.41-.89-3.43 0 0-11.23-5.41-13.5-.03-.33.78-.34 1.66-.07 2.46l.55 1.68c.55 1.69-1.69 10.86-2.46 12.26a3.79 3.79 0 0 1-1.99 1.71c-1.07.39-2.38.9-2.22 1.01 0 0 2.24 2.13 4.34 2.7 5.15 1.39 7.66.5 10.7-1.58 0 0-2.12-2.5-1.8-3.44Z"/><path d="M176.65 58.25c-1.28 0-2.74-.21-4.47-.68-2.2-.59-4.46-2.73-4.55-2.82a.55.55 0 0 1-.16-.44c.04-.31.06-.47 2.55-1.38.74-.27 1.35-.8 1.74-1.49.78-1.4 2.89-10.44 2.42-11.87l-.55-1.68c-.31-.94-.27-1.93.09-2.8.45-1.08 1.26-1.84 2.39-2.27 3.98-1.5 10.86 1.63 11.69 2.02.65.12.78 1.07.94 2.26.07.54.15 1.1.27 1.47l1.19 2.94c.15.37-.02.79-.38.95l-1.34.6-.91 3.71a1.49 1.49 0 0 1-1.38 1.13l-3.46.09c-.24 0-.45.17-.53.4l-.52 3.75s-.01.06-.02.09c-.12.35.7 1.77 1.71 2.97.09.1.13.24.11.38-.02.14-.09.26-.21.34-2.11 1.45-4.02 2.33-6.63 2.33Zm-7.88-3.79c.74.63 2.25 1.79 3.66 2.17 4.67 1.26 7.07.6 9.85-1.22-.69-.87-1.82-2.49-1.56-3.44l.52-3.76s0-.05.02-.07c.19-.65.77-1.1 1.44-1.13l3.46-.09c.22 0 .41-.17.47-.39l.96-3.94c.04-.15.14-.27.27-.33l1.35-.6-1.11-2.75v-.03c-.16-.45-.24-1.07-.32-1.66-.07-.5-.16-1.23-.28-1.46-.01 0-.03-.01-.04-.02-.07-.03-7.24-3.44-11-2.02-.89.34-1.49.9-1.84 1.74-.27.65-.29 1.4-.06 2.12l.55 1.68c.64 1.96-1.75 11.3-2.5 12.65-.49.89-1.29 1.58-2.25 1.93-.79.29-1.28.49-1.58.62Zm12.43-2.38Z"/><path d="M190.67 26.99c-2.47-.92-.1 2.66-8.57-2.93-3.37-2.23-2.82 2.71-3.7 2.13-3.24-2.13-3.12-2.06-5-2.13-1.24-.05-2.63 1.86-2.9 3.51-.35 2.19.96 6.26 1.98 10.44.52 2.17 2.41 2.94 5.59.97.34-.21-.4-2.31.49-2.83 2.32-1.36 2.19 1.76 3.86 1.31 1.6-.43 2.33-.81 4.15-1.65 2.2-1.02 4.32 2.31 6.4-.89 1.09-1.67 1.07-6.67-2.31-7.93Z"/></g><g><path class="cls-4" d="m252.12 196.53-1.59 9.8s3.69 1.72 6.45.68l1.68-10.47h-6.54Z"/><path d="M254.96 207.83c-2.32 0-4.51-1.01-4.63-1.06a.47.47 0 0 1-.27-.52l1.59-9.8c.04-.24.24-.41.48-.41h6.54a.501.501 0 0 1 .48.57l-1.68 10.47c-.03.17-.15.32-.31.38-.7.27-1.45.37-2.19.37Zm-3.89-1.8c.9.36 3.44 1.23 5.47.62l1.55-9.62h-5.56l-1.46 9Z"/><path class="cls-3" d="M250.35 204.09s-1.5.2-3.63 1.58c-.89.58-1.76 1.26-2.47 1.86a2.963 2.963 0 0 0-.77 3.5l5.24 11.42c.37.8 1.17 1.3 2.05 1.26h7.44c1.38-.04 2.72-1.6 2.43-2.95-.17-.79-.5-1.61-1.13-2.17-3.25-2.89-2.06-12.44-2.06-12.44l-7.11-2.06Z"/><path d="M258.23 224.21h-7.46c-1.06.02-2.04-.58-2.49-1.56l-5.24-11.42c-.64-1.4-.27-3.07.9-4.07.89-.76 1.74-1.39 2.52-1.9 2.2-1.42 3.77-1.64 3.83-1.65.07 0 .13 0 .2.02l7.11 2.06c.23.07.38.29.35.53-.01.09-1.12 9.33 1.9 12.01.63.56 1.06 1.38 1.28 2.43.16.75-.07 1.59-.63 2.3-.59.75-1.44 1.22-2.26 1.25Zm-7.48-.98h7.46c.52 0 1.1-.34 1.51-.86.38-.48.54-1.03.44-1.51-.18-.84-.5-1.48-.98-1.9-3.04-2.7-2.46-10.53-2.26-12.45l-6.61-1.92c-.35.07-1.63.38-3.34 1.49-.74.48-1.56 1.1-2.41 1.82-.84.71-1.11 1.92-.64 2.92l5.24 11.42c.28.62.9 1 1.59.98Z"/><path class="cls-9" d="M252.54 214.58c-.26 0-.48-.21-.49-.47 0-.27.2-.49.47-.5l3.57-.12c.27-.01.49.2.5.47 0 .27-.2.49-.47.5l-3.57.12h-.02ZM252.86 217.12c-.26 0-.48-.21-.49-.47 0-.27.2-.49.47-.5l3.57-.12c.28 0 .49.2.5.47 0 .27-.2.49-.47.5l-3.57.12h-.02Z"/><g><path class="cls-4" d="m277.69 198.07-.33 9.72s4.2 1.24 6.84-.08v-10.3l-6.51.66Z"/><path d="M281.11 208.81c-1.99 0-3.77-.51-3.89-.55a.483.483 0 0 1-.35-.48l.33-9.72c0-.24.2-.44.44-.47l6.51-.66c.14-.01.27.03.38.12.1.09.16.22.16.36v10.3c0 .18-.1.35-.27.44-1 .5-2.19.66-3.3.66Zm-3.25-1.39c1 .24 3.85.8 5.85-.02v-9.45l-5.55.56-.3 8.91Z"/><g><path class="cls-3" d="M276.94 207.26s-2.51 5.21-1.4 14.37a2.225 2.225 0 0 0 2.2 1.96h17.62c.89 0 1.61-.72 1.61-1.61v-.36c0-2.72-1.82-5.15-4.45-5.83l-.13-.03a7.175 7.175 0 0 1-4.38-3.17l-3.35-5.46-1.05.25c-2.04.49-4.11.46-6.16-.01l-.5-.11Z"/><path d="M295.36 224.07h-17.62c-1.36 0-2.51-1.03-2.68-2.39-1.12-9.2 1.34-14.42 1.45-14.64.1-.2.32-.31.54-.26l.5.11c2.03.47 4.03.48 5.95.02l1.05-.25c.21-.05.42.04.53.22l3.35 5.46a6.64 6.64 0 0 0 4.08 2.95l.14.03c2.84.73 4.82 3.32 4.82 6.3v.36a2.1 2.1 0 0 1-2.1 2.1Zm-18.13-16.25c-.51 1.3-2.13 6.16-1.21 13.75.11.87.84 1.53 1.71 1.53h17.62c.62 0 1.12-.5 1.12-1.12v-.36c0-2.53-1.68-4.74-4.09-5.36l-.13-.03a7.612 7.612 0 0 1-4.68-3.38l-3.17-5.16-.71.17c-2.07.5-4.22.49-6.38-.01l-.1-.02Z"/><path class="cls-9" d="M283.5 215.11a.49.49 0 0 1-.25-.91l3.07-1.82a.49.49 0 0 1 .5.84l-3.07 1.82c-.08.05-.16.07-.25.07ZM285.01 217.18a.49.49 0 0 1-.25-.91l3.07-1.82a.49.49 0 0 1 .5.84l-3.07 1.82c-.08.05-.16.07-.25.07Z"/></g></g><path d="M266.76 90.84c-.84 1.52-8.65 12.74-9.31 25.7-.66 12.96.56 37.97.31 43.66-.21 4.76-8.16 27.76-9.5 34.88a2.71 2.71 0 0 0 1.82 3.08c2.44.81 6.64 1.71 11.29.6 1.18-.28 2.01-1.34 2.04-2.55.19-6.74 5.5-28.99 6.54-34.21.94-4.71 3.61-25.36 4.82-34.91.05-.43.68-.39.69.04.14 9.4.42 29.5.42 35.12 0 6.1-2.92 26.46-3.96 33.48a2.72 2.72 0 0 0 2.11 3.05c2.42.51 6.3 1 10.18.14 1.21-.27 2.06-1.33 2.1-2.57.18-6.97.84-30.21 1.68-36.08.99-6.92 2.97-43 2.72-52.15-.25-9.14-4.94-19.52-4.94-19.52s-15.76-3.65-19 2.25Z"/><g><path class="cls-4" d="M240 115.51c1.61-9.54 4.66-30.28 5.68-29.13l11.96-18.35 3.93 12.13c-3.93 3.63-7.01 7.54-9.01 11.8l-7.7 20.98-1.3 7.95c-.12.71-.4 1.38-.84 1.95-2.18 2.82-4.39 4.86-6.71 4.19 2.03-3.44 3.17-7.39 3.99-11.52Z"/><path d="M236.92 127.64c-.34 0-.69-.05-1.05-.15a.51.51 0 0 1-.32-.29.5.5 0 0 1 .03-.43c1.74-2.95 2.95-6.46 3.93-11.36.32-1.87.69-4.2 1.09-6.67 3.11-19.28 3.93-22.62 4.82-22.88l11.8-18.11c.1-.16.29-.24.47-.22.19.02.34.15.4.33l3.93 12.13c.06.18 0 .38-.13.51-4.01 3.71-7.01 7.62-8.89 11.63l-7.68 20.91-1.29 7.9c-.13.8-.45 1.55-.94 2.17-1.76 2.28-3.83 4.51-6.18 4.51Zm-.15-.98c1.58.08 3.32-1.23 5.55-4.13.38-.5.64-1.1.75-1.74l1.3-7.95s.01-.06.02-.09l7.7-20.98s.01-.03.02-.04c1.91-4.05 4.9-8 8.9-11.74l-3.52-10.86-11.41 17.5c-.08.12-.2.2-.34.22-.9 1.69-2.94 14.37-4.18 22.04-.4 2.47-.77 4.81-1.09 6.68-.93 4.7-2.09 8.15-3.7 11.07Zm3.22-11.16Z"/><path class="cls-2" d="m282.38 62.5-9.12-.25a8.45 8.45 0 0 0-1.74.13c-2.04.36-4.08.82-6.05 1.45-1.28.4-2.45 1.02-3.7 1.46-1.13.4-2.25.34-3.43.68-.93.26-1.82.84-2.24 1.71-.42.87-.32 1.9-.15 2.86.64 3.67 2.06 7.19 4.13 10.28.49.73 1.34 1.52 2.12 1.11 0-.27.54-1.73.52-1.78.09.31 3.44 11.83-1.72 20.82-1.72 3.01 1.59 2.73 1.59 2.73.55 0 1.06.28 1.37.74l.79 1.2a8.054 8.054 0 0 0 5.55 3.54c5.03.76 14.23 1.64 20.85-.65a125.22 125.22 0 0 1-2.23-18.61c-.07-1.49.32-2.98 1.17-4.2a8.397 8.397 0 0 0 1.52-4.83c0-1.5-.39-2.91-1.08-4.13a9.06 9.06 0 0 1 1.94-1.92s-.9-12.54-10.09-12.33Z"/><path d="M276.73 86.1a.53.53 0 0 1-.27-.08.493.493 0 0 1-.13-.68 7.943 7.943 0 0 0 1.36-4.46c0-1.31-.32-2.61-.94-3.76a.483.483 0 0 1 .2-.66c.24-.13.53-.04.66.2a8.974 8.974 0 0 1 1.05 4.22c0 1.79-.53 3.53-1.53 5.01-.09.14-.25.21-.4.21Z"/><path class="cls-2" d="M285.83 63.27c8.22 2.26 9.32 17.25 8.19 36.22.85 3.81 1.22 12.26 1.64 20.32 0 0-6.25-1.23-5.57-1.47.68-.25-4.26-55.06-4.26-55.06Z"/><path d="M289.76 109.16h-.01c-.27 0-.48-.23-.48-.5.06-2.98-.5-6.36-1.04-9.63-.84-5.05-1.63-9.83-.24-13.16 1.51-3.16 1.24-6.78-.81-11.07a.489.489 0 0 1 .23-.65c.24-.12.53-.01.65.23 2.19 4.58 2.45 8.47.82 11.89-1.28 3.05-.51 7.69.31 12.6.55 3.31 1.12 6.74 1.05 9.81 0 .26-.22.48-.49.48Z"/><g><path class="cls-4" d="m295.15 119.78.02 1.39c.05 2.95-.84 5.83-2.56 8.24l-1.47 2.06-.38-13.38 4.38 1.69Z"/><path d="M291.15 131.95s-.09 0-.14-.02a.471.471 0 0 1-.34-.45l-.38-13.38c0-.16.07-.32.21-.41.13-.09.3-.11.46-.06l4.38 1.69c.18.07.31.25.31.45l.02 1.39c.05 3.03-.89 6.06-2.65 8.53l-1.47 2.06a.48.48 0 0 1-.4.2Zm.13-13.15.32 11.2.63-.88c1.64-2.3 2.51-5.12 2.47-7.95l-.02-1.07-3.39-1.31Z"/></g></g><g><circle cx="272.59" cy="47.68" r="9.94"/><path d="M277.72 36.24c0-.66-.33-1.24-.83-1.59-.42-.3-.78-.68-.96-1.16-.04-.11-.09-.22-.13-.33-.19-.44-.18-.94-.08-1.41.1-.46.04-.95-.21-1.39-.33-.57-.9-.91-1.51-.96-.51-.05-1.01-.2-1.41-.52-.09-.07-.18-.15-.28-.22-.36-.28-.63-.66-.75-1.1a1.937 1.937 0 0 0-2.68-1.25c-.47.22-.98.33-1.48.25-.12-.02-.23-.04-.35-.05-.46-.06-.89-.26-1.22-.59-.35-.34-.83-.56-1.36-.56-.66 0-1.24.33-1.59.83-.3.42-.68.78-1.16.96-.11.04-.22.09-.33.13-.44.19-.94.18-1.41.08-.46-.1-.95-.04-1.39.21-.57.33-.91.9-.96 1.51-.05.51-.2 1.01-.52 1.41-.07.09-.15.18-.22.28-.28.36-.66.63-1.1.75a1.937 1.937 0 0 0-1.25 2.68c.22.47.33.98.25 1.48-.02.12-.04.23-.05.35-.06.46-.26.89-.59 1.22-.34.35-.56.83-.56 1.36 0 .66.33 1.24.83 1.59.42.3.78.68.96 1.16.04.11.09.22.13.33.19.44.18.94.08 1.41-.1.46-.04.95.21 1.39.33.57.9.91 1.51.96.51.04 1.01.2 1.41.52.09.08.19.15.28.22.36.28.63.66.75 1.1.13.48.44.91.9 1.17.54.31 1.17.33 1.71.11.6-.25 1.26-.32 1.91-.23.28.04.56.06.84.07.32.63.97 1.07 1.73 1.07.92 0 1.69-.64 1.89-1.5.68-.2 1.34-.46 1.95-.77.59.39 1.38.44 2.04.06.79-.46 1.14-1.4.89-2.24.49-.51.92-1.06 1.3-1.65.71.04 1.42-.31 1.8-.96.33-.57.33-1.23.08-1.78-.22-.47-.33-.98-.25-1.48.02-.12.04-.23.05-.35.06-.46.26-.89.59-1.22.34-.35.56-.83.56-1.36Z"/><g><path class="cls-4" d="M272.85 53.33v8.59c0 1.13-2.8 2.49-1.89 2.77.78.24 4.45 2.57 9.72.06.87-.41-1.81-1.68-1.81-2.82v-3.08l-6.02-5.53Z"/><path d="M275.87 66.4c-2.23 0-3.85-.72-4.66-1.08-.17-.07-.31-.14-.39-.16-.38-.12-.48-.37-.51-.51-.1-.47.33-.85.92-1.37.43-.38 1.14-1 1.14-1.35v-8.59c0-.19.11-.37.29-.45.18-.08.38-.04.52.09l6.02 5.53c.1.09.16.22.16.36v3.08c0 .35.63.92 1.05 1.3.56.51 1 .91.93 1.4-.02.14-.11.4-.44.56-1.89.9-3.58 1.2-5.02 1.2Zm-4.4-2.03.13.06c1.2.53 4.37 1.93 8.65 0-.14-.14-.34-.33-.49-.47-.64-.58-1.37-1.24-1.37-2.02v-2.87l-5.05-4.64v7.49c0 .79-.78 1.48-1.47 2.09-.13.11-.28.25-.4.36Z"/><g><path class="cls-4" d="M280 46.77c.44.54 2.4 5.72 1.76 9.23-.31 1.73-1.9 2.95-3.66 2.87-1.62-.07-3.86-.68-5.46-3.14 0 0-2.14.22-2.75-2.06 0 0-.25-1.09.68-1.42.7-.24 1.29.4 1.53.73.08.11.22.16.36.12.2-.05.31-.26.24-.45-.47-1.24-1.67-5.39 2.95-6.57 0 0 3.11-.85 4.36.67Z"/><path d="M278.26 59.36h-.18c-1.67-.07-3.99-.68-5.69-3.13-.94-.02-2.46-.53-2.97-2.43-.12-.54-.07-1.63.99-2 .54-.19 1.1-.05 1.61.39-.31-1.05-.58-2.74.18-4.2.6-1.16 1.72-1.95 3.33-2.36.13-.04 3.42-.91 4.85.83.57.7 2.52 6.01 1.87 9.63-.34 1.89-2.04 3.27-3.98 3.27Zm-5.63-4.11c.16 0 .32.08.41.22 1.49 2.29 3.58 2.85 5.08 2.92 1.54.07 2.89-.99 3.16-2.47.62-3.39-1.3-8.38-1.66-8.84-.86-1.05-3.07-.72-3.85-.51-1.34.34-2.25.97-2.71 1.87-.76 1.47-.19 3.33.09 4.05a.825.825 0 0 1-.57 1.09.832.832 0 0 1-.87-.31c-.16-.22-.58-.7-.98-.56-.51.18-.37.82-.36.85.48 1.79 2.05 1.7 2.23 1.68h.04Z"/></g></g></g></g></g></svg>