<svg xmlns="http://www.w3.org/2000/svg" id="Layer_1" viewBox="0 0 808 400"><defs><style>.cls-1{fill:none}.cls-2{fill:#00bde3}.cls-4{fill:#fff}.cls-5{fill:#009ec1}.cls-7{fill:#52daf2}</style></defs><path d="M0 0h808v400H0z" class="cls-1"/><rect width="728" height="320" x="56" y="40" rx="16" ry="16" style="fill:#f5f6f7"/><rect width="4" height="280" y="60" rx="2" ry="2" style="fill:#71767a"/><path id="Rectangle-Copy-35" d="M4 80h528v48H4z" class="cls-5"/><path id="Rectangle-Copy-39" d="M4 176h472v48H4z" class="cls-2"/><path id="Rectangle-Copy-40" d="M4 272h440v48H4z" class="cls-7"/><g><circle cx="616" cy="176" r="54" class="cls-4"/><path d="M616 124c28.67 0 52 23.33 52 52s-23.33 52-52 52-52-23.33-52-52 23.33-52 52-52m0-4c-30.93 0-56 25.07-56 56s25.07 56 56 56 56-25.07 56-56-25.07-56-56-56Z" class="cls-2"/><g><path d="M584 144h64v64h-64z" class="cls-1"/><path d="M639.7 161.19h-11.85v-5.93c0-1.64-1.32-2.96-2.96-2.96h-17.78c-1.64 0-2.96 1.32-2.96 2.96v5.93H592.3c-1.64 0-2.96 1.32-2.96 2.96v34.07c0 .81.67 1.48 1.48 1.48h50.37c.81 0 1.48-.67 1.48-1.48v-34.07c0-1.64-1.32-2.96-2.96-2.96Zm-35.56 31.48c0 .61-.5 1.11-1.11 1.11h-3.7c-.61 0-1.11-.5-1.11-1.11v-3.7c0-.61.5-1.11 1.11-1.11h3.7c.61 0 1.11.5 1.11 1.11v3.7Zm0-11.85c0 .61-.5 1.11-1.11 1.11h-3.7c-.61 0-1.11-.5-1.11-1.11v-3.7c0-.61.5-1.11 1.11-1.11h3.7c.61 0 1.11.5 1.11 1.11v3.7Zm14.81 11.85c0 .61-.5 1.11-1.11 1.11h-3.7c-.61 0-1.11-.5-1.11-1.11v-3.7c0-.61.5-1.11 1.11-1.11h3.7c.61 0 1.11.5 1.11 1.11v3.7Zm0-11.85c0 .61-.5 1.11-1.11 1.11h-3.7c-.61 0-1.11-.5-1.11-1.11v-3.7c0-.61.5-1.11 1.11-1.11h3.7c.61 0 1.11.5 1.11 1.11v3.7Zm1.48-15.74c0 .31-.25.56-.56.56h-2.41v2.41c0 .31-.25.56-.56.56h-1.85a.56.56 0 0 1-.56-.56v-2.41h-2.41a.56.56 0 0 1-.56-.56v-1.85c0-.31.25-.56.56-.56h2.41v-2.41c0-.31.25-.56.56-.56h1.85c.31 0 .56.25.56.56v2.41h2.41c.31 0 .56.25.56.56v1.85Zm13.33 27.59c0 .61-.5 1.11-1.11 1.11h-3.7c-.61 0-1.11-.5-1.11-1.11v-3.7c0-.61.5-1.11 1.11-1.11h3.7c.61 0 1.11.5 1.11 1.11v3.7Zm0-11.85c0 .61-.5 1.11-1.11 1.11h-3.7c-.61 0-1.11-.5-1.11-1.11v-3.7c0-.61.5-1.11 1.11-1.11h3.7c.61 0 1.11.5 1.11 1.11v3.7Z" class="cls-2"/></g></g><g><circle cx="744" cy="88" r="62" class="cls-4"/><path d="M744 28c33.08 0 60 26.92 60 60s-26.92 60-60 60-60-26.92-60-60 26.92-60 60-60m0-4c-35.35 0-64 28.65-64 64s28.65 64 64 64 64-28.65 64-64-28.65-64-64-64Z" class="cls-5"/><g><path d="M700 44h88v88h-88z" class="cls-1"/><path d="m777 84.33-14.67-1.83-5.5-1.83h-2.75l-13.39-16.96h4.53c1.34 0 2.44-.3 2.44-.69s-1.11-.69-2.44-.69h-13.14v1.38h1.83V82.5h-5.5l-7.64-9.17h-3.97l-1.22 1.22v7.94h.92v1.83h5.5v.31l-7.33.92v4.89l7.33.92v.31h-5.5v1.83h-.92v7.94l1.22 1.22h3.97l7.64-9.17h5.5v18.79h-1.83v1.38h13.14c1.34 0 2.44-.3 2.44-.69s-1.11-.69-2.44-.69h-4.53l13.39-16.96h2.75l5.5-1.83L777 91.66c11-2.44 11-3.05 11-3.67s0-1.22-11-3.67Z" class="cls-5"/></g></g><g><circle cx="704" cy="324" r="54" class="cls-4"/><path d="M704 272c28.67 0 52 23.33 52 52s-23.33 52-52 52-52-23.33-52-52 23.33-52 52-52m0-4c-30.93 0-56 25.07-56 56s25.07 56 56 56 56-25.07 56-56-25.07-56-56-56Z" class="cls-7"/><g><path d="M676 296h56v56h-56z" class="cls-1"/><path d="M726.94 310.61c-.2-.82-1.23-1.1-1.83-.5l-6.78 6.78-6.19-1.03-1.03-6.19 6.78-6.78c.6-.6.31-1.63-.52-1.84-4.32-1.07-9.07.08-12.45 3.46-3.61 3.61-4.61 8.85-3.1 13.42l-19.45 19.45a5.83 5.83 0 0 0 0 8.25 5.83 5.83 0 0 0 8.25 0l19.43-19.43c4.57 1.52 9.8.52 13.43-3.12 3.38-3.38 4.53-8.14 3.46-12.46Zm-40.44 33.08a2.19 2.19 0 1 1-.001-4.379 2.19 2.19 0 0 1 .001 4.379Z" class="cls-7"/></g></g></svg>