<svg xmlns="http://www.w3.org/2000/svg" id="Layer_1" viewBox="0 0 808 400"><defs><style>.cls-3{fill:#168092}.cls-4{fill:#449dac}.cls-5{fill:#99deea}.cls-6{fill:#2a646d}.cls-7{fill:#2c4a4e}.cls-8{fill:#5dc0d1}</style></defs><path d="M0 0h808v400H0z" style="fill:none"/><rect width="728" height="320" x="40" y="40" rx="16" ry="16" style="fill:#f5f6f7"/><path d="m365.62 371.29-.51 1.05-4.41.11-.92-2.31a.4.4 0 0 0-.23-.23l-2.81-1.27.77-1.05 1.7 1.6c.11.1.26.14.4.1l2.09-.54 3.92 2.54ZM357.76 373.74l.4.55-.99.53-.62-.53 1.21-.55zM355.34 365.11l-1.22 1.08-7.28-.23.81-1.23 7.69.38zM353.82 369.38l.46 1.32-.98.63-1.16-1.74-.2-.59 1.88.38zM341.5 361.01l.35 1.31-2.11.29-1.41-1.17a.435.435 0 0 0-.52-.02l-1.8 1.23-.71-2.02-.57-2.13 1.72-.05c.12 0 .23-.06.31-.15l1.03-1.2 1.32 2.42c.03.07.09.12.15.16l2.24 1.33ZM318.78 349.13l-.31 3.28-3.37 1.06-1.77-1.66-.1-1.51 2-1.28 3.55.11zM308.26 351.71l.17.19-.64 1.69-1.48.86-.13-.25 2.08-2.49zM283.06 384.86l.34 1.58-.62.13-1.2-1.37h-.02l-1.77-1.87-1.07-2.44.11-1.1 1.98 1.27.59 1.87s.05.11.08.15l1.58 1.78ZM280.66 377.99l1.39 1.53-.22.35-1.73-1.43.56-.45zM276.29 371.42l-.76 1.5s-.02.06-.03.08l-.13.47-.6-3.39 1.52 1.34ZM274.36 376.13l.16 1.69-.98-1.15s-.06-.06-.09-.08l-1.72-1.09.72-.97 1 .16.91 1.44ZM272.85 370.69l-.13 1.58-.89.22-1.45-1.85.75-.99 1.72 1.04z" class="cls-5"/><g><path d="m183.34 369.59.13.81-.44.98-1.58-.62-.47-.86 2.36-.31zM171.09 347.92l.06.13-1.49 1.29-1.11-.87 2.54-.55zM188.31 317.97l1.36 3.95-1.91-.34-1.21-2.76a.397.397 0 0 0-.25-.24l-2.17-.73 1.42-2.09.74 1.83c.05.15.2.26.36.27l1.66.11ZM188.86 339.21l.71 1.78-2.35.28-.71-1.87 2.35-.19zM171.2 371.57l.6.76-2.45 1.94-.61-.23.64-.15c.15-.03.25-.13.3-.26l.51-1.28c0-.05.03-.1.03-.15v-.52l.98-.11ZM166.37 372.67l-3.38 1.84-.61-.24 3.92-1.66.07.06zM122.35 359.47l.47 1.24-.27.08-.2-1.32zM132.36 365l-.3.82-.55-.35.11-.06c.14-.06.22-.19.24-.33l.06-.46.44.38ZM134.47 366.23l-.15.24-.23.01.09-.25h.29zM136.2 367.45l-.14.44-.62-.13.51-.42.25.11zM144.29 370.22l-1.03.51-1.93-.52-.36-.32 1.73.43c.07.02.14.02.21 0l1.15-.31.23.21ZM222.37 362.41l-.74.39-.79.33-.2-.23 1-1.02.73.53zM221.3 365.86l-1.27.86-4.39 2.63-.03-.82a.43.43 0 0 0-.38-.42l-.9-.1-.19-1.28 1.84-.88.98.86c.23.2.58.11.68-.18l.42-1.14s.02-.12 0-.17l-.04-.61 3.27 1.25ZM175.73 371.58l.02.15-.48.31-.21-.18a.47.47 0 0 0-.44-.08l-.72.29-.33-.32.07-.1.85.11c.05.01.09.01.13 0l1.11-.18ZM186.42 369.91l.03.34-.55.39-.51-.69v-.12l1.03.08zM179.56 371.24l-.6.66-.37-.53.2-.71.77.58zM170.83 354.21l-.16.26-.93-.31.24-.39.85.44zM174.45 330.81l-.74.74-.73-1.33.43-1.09.05.6c0 .11.05.21.13.29l.86.79Z" class="cls-5"/></g><g><path d="m684 46.87 4.66 7.08-1.71 2.33-1.72.09c-.17 0-.33.12-.38.3l-.45 1.4-1.76-.14a.417.417 0 0 0-.39.65l.92 1.45-1.27.18c-.2.03-.35.19-.36.39l-.05.66-2.18-1.02a.428.428 0 0 0-.6.46l.23 1.36-1.84-.73a.43.43 0 0 0-.49.12l-1.39 1.61-1.78-2.32c-.25-.34-.78-.15-.77.26l.17 8.68-2-1.11a.433.433 0 0 0-.6.21l-1.74 4.02c-.04.11-.04.24.01.36l.95 1.89-.49-.02-1.07-1.9a.415.415 0 0 0-.6-.15l-1.84 1.18c-.2.13-.25.4-.12.6l1.26 1.89-2.48 2.31c-.29.28-.06.78.35.74l1.07-.12-.21 1.1-1.77.56c-.2.06-.33.27-.29.48l.33 2.16-1.6 1.65-1.44-.65-10.01-27.04 2.15-.93c.17-.07.27-.24.26-.42l-.16-3.07 1.65-1.32c.14-.11.2-.31.13-.48l-.68-1.87.78-2.33c.03-.07.03-.17.01-.24l-2.07-7.64 4.58-12.62 1.54 1.41c.1.08.24.12.37.1l1.83-.37c.07-.02.14-.05.2-.1l1.66-1.5 8.06 2.09 6.5 17.34c.06.15.19.25.36.27l6.28.71Z" class="cls-5"/><path d="m647.11 65.75.9 1.74-.34 1.99-2.41 2.29c-.1.1-.15.23-.13.37l.51 3.81-.9 6.41v.12l.59 4.26.32 2.18.03 2.66-7.28 1.71-2.54-9.38c-.08-.32-.5-.42-.73-.17l-.39.43-1.6-5.77.08-4.41s0-.1-.01-.15l-2.34-7.53 16.08-4.41.11 3.67c0 .06.02.12.05.18Z" class="cls-8"/><path d="m661.41 86.2-.34.42-1.2-.1h-.08c-.08 0-.15.04-.22.09l-1.68 1.28c-.07.06-.12.14-.15.23l-.19.66-11.03 2.6-.02-2.5s0-.04-.01-.06l-.32-2.19-.57-4.21.89-6.41s.01-.07 0-.11l-.49-3.66 2.37-2.24c.06-.06.11-.14.12-.24l.39-2.26a.42.42 0 0 0-.04-.27l-.92-1.79-.13-4.1-.12-2 .54-.78 1.54-.43 10.07 27.22c.04.11.12.19.22.24l1.37.61Z" class="cls-5"/><path d="m673.54 97.45.7 3.05-.55-.34c-.12-.09-.29-.09-.43-.02l-4.67 2.58-1.02-1.72a.43.43 0 0 0-.71-.04l-2.63 3.37-.98-2.03a.385.385 0 0 0-.24-.21l-1.86-.68-1.48-2.6a.408.408 0 0 0-.39-.22c-.04 0-.07 0-.1.02l-3.71 1.08h-.04l-16.56 3.73-.34-9.28 19.46-4.59c.15-.03.27-.15.32-.29l.22-.77 1.43-1.11 1.01.1.68 1.39c.04.1.11.17.21.21l1.37.59-2.41 4.24c-.1.17-.07.37.07.51l.97.97c.13.13.34.16.5.07l.85-.45 1.37.22 1.62 1.96.06.89c0 .1.04.19.11.27l1.62 1.74s.1.09.16.11l1.87.72c.13.04.26.03.38-.05l2.97-1.8c.2-.12.27-.38.15-.58l-1.25-2.17 1.27 1.13Z" class="cls-3"/><path d="m662.56 102.83 1.02 2.13-1.24.67-.82-1.85a.433.433 0 0 0-.64-.18l-.64.45c-.14.11-.2.26-.18.42l.42 2.46-2.46 1.55-1.95-8.07 3.02-.89 1.39 2.45c.06.08.13.15.23.18l1.85.68Z" class="cls-5"/><path d="m655.24 100.62 2 8.27-10.43 3.98s-.08.04-.12.07l-3.54 2.91-2.67 1.68-.19-.79.91-1.41c.06-.1.08-.21.06-.32l-2.29-10.74 16.27-3.65Z" class="cls-8"/><path d="m638.05 104.04 2.34 10.98-.92 1.4c-.06.1-.07.21-.05.33l.32 1.36-.98 1.3s0 .02-.01.03l-.34-.94-.09-.25a.42.42 0 0 0-.28-.27l-8.55-2.55h-.04l-2.99-1.21-.94-2.38a.497.497 0 0 0-.13-.19l-3.93-3.1a.366.366 0 0 0-.28-.09c-.02 0-.05 0-.07.01l-41.16 8.13-.34-1.92 7.27-8.82c.11-.13.13-.31.05-.47l-1.19-2.2s-.02-.04-.04-.05l-1.37-1.71v-1.82l10.26-2.98 2.89.97c.08.01.16.02.24 0l5.66-1.37c.07-.02.13-.04.18-.09l5.67-4.93c.14-.13.18-.33.11-.5l-1.49-3.48.67-1.57c.08-.21 0-.45-.2-.55l-1.77-.89 8.62-13.36 2.59-.95 12.28-3.37 2.33 7.5-.09 4.4s.01.09.02.13l1.82 6.58c.1.32.5.41.73.17l.38-.43 2.44 8.98.37 10.09s.01.05.01.08ZM639.02 154.42l-.17.65-6.34 1.08-5.01-17.49.48-.71 1.39 1.79-.34.72c-.1.21 0 .47.21.57l.93.41-.08.4c-.02.13.02.27.11.38l2.35 2.44.89 2.83c.02.07.07.15.14.21l1.24.96.46 1.31c.04.13.15.23.29.27l2.22.58.28.6-.68.13c-.33.06-.47.44-.26.69l.45.53-.98.73c-.31.24-.16.75.24.77l2.18.15Z" class="cls-7"/><path d="m638.1 125.38.7.83-.21 6.8-3.72 9.6-.18-.11.35-1.73a.429.429 0 0 0-.45-.51l-2.43.17-2-1.09-1.69-2.16 1.37-2.42 2.49-1.96c.1-.09.16-.2.17-.34v-2.38a.37.37 0 0 0-.15-.3l-3.69-3.44.17-6.71 1.38-1.81c.09-.11.11-.25.07-.38l-.3-.97 7.38 2.2-2.45 6.51c-.11.31.14.62.46.57l2.73-.37Z" class="cls-7"/><path d="m634 186.93 1.27 3.2-.72 1.54-4.86.31c-.34.02-.52.43-.3.69l.58.71c.08.1.2.16.33.16l2.86.06.11 1.03-2.28 1.35s-.02.02-.03.02l-.62.44-2.46-2.28a.45.45 0 0 0-.35-.11l-.96.13c-.27.03-.44.3-.36.55l.45 1.44-2.26-.25a.391.391 0 0 0-.35.13l-1.43 1.55c-.23.26-.09.65.23.71l2.33.46h.13l4.01-.48-.57 1.16-1.77.83-2.74-.91c-.39-.14-.73.31-.49.65l1.16 1.61a.4.4 0 0 0 .24.17l2.92.71c.14.03.28 0 .38-.09l3.12-2.76.83.56-.58 2.29-4 .92s-.06.01-.09.02l-3.24 1.47-2.67.51a.36.36 0 0 0-.21.11l-2.85 2.71c-.26.26-.1.72.28.74l1.48.08-1.58 1.72c-.1.1-.14.26-.1.41l.21.71-1.58 2.35c-.05.1-.07.2-.07.3l.36 2.64-2.66-2.79c-.29-.32-.81-.04-.73.38l.58 2.61-2.54-.41a.43.43 0 0 0-.46.25l-.64 1.4-1.3.54-13.69-10.7c-.1-.07-.21-.11-.33-.08l-10.13 1.53-6.01-3.23a.45.45 0 0 0-.25-.05l-13.37 1.16c-.06.01-.11.02-.15.04l-6.46 3.2-.29.03-14.59 1.43 4.29-3.38 4.39-1.59s.08-.04.13-.07l8.2-6.78 6-4.45s.07-.07.1-.12l.87-1.35 2.46-1.83s.08-.07.1-.13l2-3.39 59.02-9.51 2.28 4.09-2.41-2.73a.424.424 0 0 0-.62-.03l-.84.85c-.14.14-.16.36-.06.53l1.35 2.13-.67.51-2.75-1.01a.43.43 0 0 0-.54.22l-.51 1.17c-.08.15-.05.33.06.46l.31.33-3.32 1.45c-.16.06-.26.22-.26.39v1.74c0 .3.3.51.58.4l4.71-1.81s.06-.02.08-.03l1.41-.9.53 2.68c.03.2.2.34.4.35l1.42.06c.25.01.46-.19.45-.44l-.12-3.3.22-.09Z" class="cls-4"/><path d="m631.96 176.7.12 2.38-59.1 9.52-.34.04-21.08 2.29 4.76-4.23c.06-.06.11-.14.13-.22l.33-1.52 7.49-6.58c.07-.07.11-.15.13-.25l.43-2.61 5.03 3.62c.19.14.47.09.61-.11l2.69-4.13 2.2 1.34c.18.1.4.06.55-.09l1.7-1.87h4.1c.2 0 .38-.13.42-.33l1.07-4.72 2.59-2.6 3.13-1.34c.16-.07.27-.23.25-.41l-.15-3.09 3.93.88c.17.04.35-.03.44-.17l2.91-4.26 2.88-2.71c.05-.05.09-.11.12-.17l.93-2.62 1.6-.4c.09-.02.17-.07.22-.14l3.52-4.16 1.58.41 1.53 2.49c.05.09.13.16.23.19l3.23 1.06 1.71 2.33-1.19 2.62c-.05.09-.05.19-.03.29l.72 2.52c.04.17.19.29.38.31l2.27.19 5.26 1.65 1.9 1.32.07 3.14c0 .12.06.23.15.31l.66.58-2.96.14c-.43.01-.56.58-.19.8l3.7 2.06-.08 1.1c-.01.1.03.19.08.27l1.57 2.19-2.77-1.36s-.04-.02-.06-.02l-3.93-1.19a.411.411 0 0 0-.31.03l-3.02 1.46c-.39.19-.28.78.16.81l4.83.35 5.67 3.42c.11.07.24.09.36.05l2.51-.87 1.6.5c.17.05.35 0 .46-.14l.3-.35Z" class="cls-3"/><path d="M631.64 130.27v1.98l-2.4 1.89s-.07.07-.1.12l-1.55 2.73-.8 1.2-49.56 8.04-.21-1.58-3.8-25.87 5.62-3.53.35 1.94c.04.23.27.39.5.34l41.39-8.19 3.68 2.92.97 2.45c.04.11.12.19.23.24l3.02 1.2.05.14.37 1.2-1.32 1.73c-.06.08-.1.16-.1.25l-.18 7.04c0 .12.05.24.14.32l3.7 3.44Z" class="cls-6"/><path d="m626.73 139.06.86 3h-.05a.443.443 0 0 0-.22-.25l-1.16-.58a.455.455 0 0 0-.2-.05c-.12.01-.23.06-.3.15l-.98 1.1a.58.58 0 0 0-.1.21l-.18 1.1-1.26 1.39v.02l-1.24 1.46h-1.22c-.37 0-.56.43-.33.7l1.24 1.48-.21.47c-.1.21 0 .47.23.56l1.2.51-1.27 1.9c-.08.13-.09.31-.01.45l.31.58-.17 1.22c-.01.07 0 .14.03.21l1.09 2.84c.02.05.05.1.09.14l1.29 1.45-.22.25-1.7-1.53a.426.426 0 0 0-.68.16l-.33.84c-.06.18 0 .39.15.49l2.52 1.88c.07.05.14.08.23.08l.75.06.29.82c.03.07.06.12.1.17l.41.4-.47.09-.2-.61a.432.432 0 0 0-.68-.2l-.78.64-1.87-1.31s-.07-.04-.11-.05l-5.37-1.68s-.06 0-.09-.02l-2.03-.17-.59-2.08 1.23-2.7a.42.42 0 0 0-.05-.43l-1.93-2.65a.417.417 0 0 0-.22-.15l-3.2-1.05-1.54-2.52a.458.458 0 0 0-.26-.19l-1.82-.47-1.33-2.42a.436.436 0 0 0-.41-.23l-7.3.52c-.08 0-.17.04-.22.09l-4.4 3.3c-.05.03-.09.08-.12.14l-2.07 4.01-.88.44-.81-7.72 38.56-6.26Z" class="cls-3"/><path d="m595.94 209.27 13.4 10.47-4.28 5.11c-.05.06-.09.14-.1.21l-.45 2.85-2.26 3.8-1.72-1.34c-.25-.2-.64-.06-.69.26l-.61 3.69-6 5.47-1.02-.44a.448.448 0 0 0-.28-.01l-3.84 1.1c-.35.1-.43.55-.14.76l2.62 1.86-5.03.8-2.05-2.52-.16-.2-3.28-4.65s-.03-.04-.05-.06l-21.43-21.8 1.48-2.85 6.33-3.13 13.17-1.14 6.03 3.24c.08.04.17.05.26.04l10.1-1.52ZM604.91 147.5l-3.42 4.04-1.7.43c-.13.03-.25.14-.29.27l-.98 2.74-2.84 2.67-.07.07-2.76 4.05-4.19-.94a.434.434 0 0 0-.52.44l.16 3.35-2.92 1.26c-.05.02-.1.05-.13.1l-2.74 2.73c-.06.06-.1.14-.12.21l-1.02 4.51h-3.95c-.12 0-.24.05-.32.14l-1.59 1.75-2.26-1.37a.419.419 0 0 0-.57.14l-2.68 4.1-5.21-3.76h-.01l-2.94-3.04-.17-2.94 1.05-2.54v-.02s.04-.08.04-.13l.17-2.04 1.54-1.53a.42.42 0 0 0 .12-.25l.33-3.05 2.5-.32a.46.46 0 0 0 .37-.35l.77-4.27 1.98-.32c.14-.03.25-.11.31-.23l3.86-7.45 1.54-.64.2 1.47c.03.23.25.4.49.36l10.39-1.69.87 8.29c.03.3.35.47.61.34l1.55-.78c.09-.04.15-.11.19-.18l2.09-4.05 4.21-3.16 6.91-.49 1.15 2.08Z" class="cls-4"/><path d="m603.7 317.99.26 5.93-1.93 1.81c-.06.06-.11.13-.13.22l-1.16 5.56c-.02.09 0 .18.03.27l.77 1.64-3.88 3.3-4.68-.34.4-1.04 1.46-1.22c.26-.22.18-.63-.14-.73l-2.57-.82 1.96-1.96a.44.44 0 0 0 .13-.36l-.27-2.07c0-.19-.17-.34-.37-.37l-5.18-.61-3.26-7.79a.425.425 0 0 0-.57-.22l-4.98 2.25-.86-3.05 2.87.32c.25.03.48-.18.47-.44l-.13-4.14a.424.424 0 0 0-.52-.4l-5.65 1.23-2.23-3.65v-2.23l2.77-1.82a.4.4 0 0 0 .2-.39l-.52-4.79c-.03-.31-.38-.48-.65-.31l-2.45 1.55c-.14.08-.21.24-.2.4l.05.68-1.91-1.21.13-4.14.9-8.77c0-.09-.02-.19-.07-.28l-2.58-3.88a.439.439 0 0 0-.56-.14l-2.23 1.18-.91-3.61a.409.409 0 0 0-.22-.29l-2.88-1.43-.11-1.57a.426.426 0 0 0-.36-.39l-4.25-.74-.58-2.06a.409.409 0 0 0-.28-.29l-3.1-1.04a.427.427 0 0 0-.39.08l-5.37 4.21-7.51 2.59-3.47-5.13 1.44-.28c.3-.05.44-.41.27-.66l-1.95-2.72c-.16-.24-.52-.23-.69 0l-1.59 2.27-2.11-1.22a.442.442 0 0 0-.25-.06l-3.95.31 1.22-1.56c.21-.27.04-.66-.3-.69l-3.23-.26c-.09 0-.16.01-.23.05l-4.26 2.07c-.38.19-.28.76.16.81l3.08.23v.52l-4.98.76.66-3.81c.08-.39-.39-.66-.69-.4l-3.64 3.1-.78-7.67 27.06-1.76 1.29 2.58c.07.15.23.25.4.24l30.39-1.15 1.16 1.73c.19.29.64.24.76-.09l1.58-4.48 5.02.22 1.24 6.9s.01.07.02.1l5.04 11.72-.9.7c-.19.15-.22.43-.06.62l4.61 5.41-1.47.09c-.32.01-.5.36-.34.64l6.7 11.74 2.97 6.42 1.54 4.51s.01.02.01.03l1.51 3.54Z" class="cls-7"/><path d="m586.8 246.06.6.9-2.28 3.14c-.05.07-.09.16-.09.24l-.06 2.32-2.14 1.43a.41.41 0 0 0-.19.33l-.26 4.86-.89 3.45c-.03.11-.02.23.04.32l.92 1.66-4.92-.23a.42.42 0 0 0-.42.29l-1.4 3.97-.82-1.22a.408.408 0 0 0-.37-.19l-30.36 1.15-1.27-2.54-1.27-9.28 2.06-8.71c.02-.11.01-.22-.05-.31l-4.37-7.57-5.56-25.45 9.67-1.11 15.61-1.53-1.32 2.53c-.08.16-.05.36.08.5l21.64 22 3.18 4.5v4.63c0 .26.24.46.49.43l3.75-.51Z" class="cls-6"/><path d="m572.38 119 3.74 25.44-1.88.79c-.09.04-.17.11-.22.2l-3.83 7.39-2.07.33c-.18.03-.32.17-.35.34l-.77 4.27-2.52.32c-.2.03-.35.19-.37.38l-.35 3.23-1.54 1.54c-.07.08-.11.17-.12.27l-.15 1.78-2.75-.16-3.74-2.76a.42.42 0 0 0-.42-.04l-2.19.96-4.82-.53-2.21-1.24s-.07-.03-.12-.04l-9.68-2.13-3.91-31.96 15.92-1.89h.02l3.86.86-1.86 1.18a.43.43 0 0 0 .18.79l2.37.27c.11.01.23-.02.31-.08l3.26-2.54 3.03-1.56 1.78.33c.11.03.22 0 .31-.04l9.13-5.7h1.96Z" class="cls-3"/><path d="m572.23 189.54-1.64 2.77-2.45 1.82s-.08.07-.1.11l-.87 1.35-5.94 4.42s-.02 0-.02.01l-8.15 6.74-4.38 1.59a.4.4 0 0 0-.13.07l-5.38 4.24-10.01 1.16h-.04l-28.76 1.55h-19.6l.74-2.65 3.72-7.2c.03-.06.05-.12.05-.19v-3.32l.83-4.03 14.29-1.14c.34-.03.51-.42.31-.69l-.81-1.05 46.38-3.18h.05l21.91-2.38Z" class="cls-5"/><path d="m564.07 174.91-.49 2.94-7.46 6.56c-.07.06-.12.15-.14.23l-.34 1.51-5.54 4.93-47.06 3.22c-.34.02-.53.42-.31.69l.81 1.05-13.3 1.06.15-1.31 2.61-.11c.12-.01.24-.07.31-.16l1.42-1.68c.11-.12.13-.29.06-.44l-.95-2.26 1.57-2.79 4.62.73c.14.02.29-.03.39-.14l2.33-2.72c.03-.05.06-.1.08-.16l1.59-5.65 2.28-.12c.18-.01.34-.13.39-.31l.45-1.56 2.76-.7 3.63 1c.11.04.23.02.33-.03l1.73-.99 3.53-.38c.16 0 .3-.12.35-.27l1.36-3.39 3.05 2.04c.18.12.42.09.56-.08l5.05-5.81c.05-.07.09-.15.1-.24l.23-2.5 4.99-2.99c.11-.06.18-.17.2-.3l.57-3.55 9.48 2.06 2.23 1.25s.11.04.17.05l5.02.55c.08.01.15 0 .22-.03l2.06-.9 3.63 2.67c.07.05.15.09.24.09l2.69.15-.87 2.09c-.03.06-.04.13-.04.19l.19 3.2c.01.1.05.2.12.28l2.95 3.03Z" class="cls-8"/><path d="m552.42 106.89 1.06 3.9-.86 2.42h-1.34a.42.42 0 0 0-.42.36l-1.27 7.24-1.79 3.85-15.74 1.87v-.82c0-.24-.22-.44-.46-.42l-20.05 1.6 3.86-4.48c.06-.06.1-.14.11-.24l1.28-12.78c0-.1-.02-.21-.07-.29l-3.88-5.75-.53-4.59 1.36-5.59c.01-.05.01-.1 0-.15l-.5-3.62 3.56-3.03s.04-.04.06-.07l2.96-3.69-.07 3.78c-.01.24.19.44.43.44h1.64c.2 0 .38-.14.42-.33l.64-2.74c.01-.06.02-.11.01-.16l-.42-2.75 3.15-2.04c.16-.1.23-.29.18-.48l-.74-2.64 2.52-1.91 2.76 2.09s.08.05.12.06l3.93 1.28s.06.02.09.02l3.55.35 2.39 3.62-.88.22a.43.43 0 0 0-.31.53l2.08 6.85-1.13 5.88-2.53 1.02c-.12.04-.21.15-.25.29l-.91 3.65c-.05.2.05.41.24.49l2.74 1.2c.16.06.35.03.47-.09l2.92-2.83c.1-.1.14-.22.13-.35l-.14-1.64 1.01.18c.12.02.23-.01.32-.07l2.48-1.71 1.73.52 2.91 5.64 1.17 5.89s.01.01.01.02Z" class="cls-6"/><path d="m538.5 240.44 4.3 7.47-2.03 8.63s-.01.1 0 .16l1.23 8.97-27.33 1.78c-.24.02-.42.24-.39.48l.86 8.56-4.01 1.26 1.14-1.02a.49.49 0 0 0 .13-.43l-2.59-9.95c-.11-.47-.79-.42-.84.06l-1 9.18-2.44.86-.87-18.91 1.29-39.02c0-.06-.02-.12-.03-.18l-.93-2.15 27.86-1.5 5.6 25.62s.02.09.05.13Z" class="cls-8"/><path d="m531.2 127.06 4 32.64-.6 3.75-5.01 2.99c-.11.08-.19.19-.2.33l-.25 2.59-4.7 5.42-3.17-2.12a.435.435 0 0 0-.64.2l-1.46 3.64-3.36.36c-.06 0-.11.02-.16.05l-1.66.95-3.58-.99a.375.375 0 0 0-.21 0l-3.11.79c-.14.03-.26.15-.3.29l-.43 1.52-1.71.08 1.93-7.97 1.93-6.58s.03-.1.02-.15l-2.79-36.37 1.93.86c.12.06.27.05.39-.01l2.63-1.5 20.51-1.64v.88Z" class="cls-4"/><path d="m532.34 70.03-7.08.46c-.2.01-.37.18-.4.38l-.16 1.74-1.28-1.46a.533.533 0 0 0-.2-.13l-5.3-1.55a.477.477 0 0 0-.31.03l-7.1 3.36c-.1.04-.18.13-.22.23l-1.61 4.08-.41-2.7a.432.432 0 0 0-.61-.32l-3.75 1.81c-.07.04-.13.09-.18.16l-2.84 4.66s-.05.1-.06.15l-.69 4.14-4.32-8.53a.436.436 0 0 0-.19-.19l-12.02-5.82a.538.538 0 0 0-.22-.04l-4.1.25-3.86-3.17 1.18-2.26 10.33-4.07c.16-.07.26-.23.26-.4V58.5l8.17-4.56.69 1.45-5.64 3.8c-.12.09-.2.23-.19.38l.26 5.16c.02.39.48.55.73.28l1.86-1.96 6.95 3.59c.06.04.13.05.2.05l3.66-.12 3.66 1.51c.26.1.54-.05.59-.32l.35-1.99 5.19-2.72 7.42-1.79-.11 3.05c0 .18.1.35.27.42l1.68.64c.08.03.15.04.24.02l3.78-.73 5.38 5.37ZM504.84 127.91l2.83 36.92-1.91 6.52h-.01l-2.06 8.54-1.66 5.84-2.1 2.46-4.68-.73a.431.431 0 0 0-.44.21l-1.6 2.86-3.08-1.76-1.25-6.66a.384.384 0 0 0-.13-.22l-7.77-7.4 1.53-2.82a.43.43 0 0 0 .04-.27l-.64-3.88a.47.47 0 0 0-.25-.33l-4.59-2.02-7.71-7.98-.75-7.63 3.44-7.9s.03-.11.03-.16l.13-3.97 8.29-8.55c.11-.11.15-.3.08-.46l-.78-1.81s-.04-.08-.06-.11l-5.22-5.92 25.96-.86 4.35 8.09Z" class="cls-6"/><path d="m505.92 82.34-.04 1.02-4.24 10.66c-.03.06-.04.11-.04.16v1.61l-3.08 10.42c-.02.07-.02.15 0 .21l2.3 10-.44 2.55-26.46.88h-.17l-4.35-3.62.62-5.2c0-.08-.01-.16-.05-.23l-1.33-2.73-.38-4.09a.442.442 0 0 0-.27-.36l-1.97-.81-.11-1.57c0-.16-.12-.3-.26-.37l-2.9-1.25-3.33-4.35a.422.422 0 0 0-.34-.17h-1.51l-4.66-4.78 1.88-5.62c.02-.08.02-.16.01-.24l-1.46-5.82 2.69-.44c.1-.03.19-.08.25-.16l2.22-2.74c.06-.07.09-.15.09-.25l.39-7.15 11.05-3.87 1.25.96-1.06 2.81c-.1.29.12.59.43.57l4.1-.25 4.14 3.39c.08.07.19.1.29.09l4.15-.25 11.79 5.71 4.73 9.34.02.03-2.35 4.57-2.19 3.6c-.07.12-.08.25-.03.38l.51 1.42c.14.36.65.37.8.02l1.65-3.81 4.2-4.33s.05-.06.07-.09l3.39-5.85Z" class="cls-3"/><path d="m504.07 216.23 1.02 2.37-1.29 38.93v.03l.89 19.08-7.45.12c-.07 0-.13.02-.19.04l-3.27 1.76-3.22-5.13-.25-4.79a.423.423 0 0 0-.46-.41l-19.47 1.37 7.23-17.45a.43.43 0 0 0 .02-.25l-1.66-8.69 1.01-4.05c.02-.07.02-.14 0-.21l-1.51-5.78 8.98-16.94h19.62Z" class="cls-8"/><path d="m497.01 291.32-3.87 2.06-1.18-3.04a.463.463 0 0 0-.18-.21l-3.74-2.26c-.32-.2-.71.08-.65.44l.65 3.74-2.29.55-1.83-2.9a.418.418 0 0 0-.76.09l-1.25 3.81-3.98-1.2-.66-1.38a.403.403 0 0 0-.33-.24l-3.24-.39 1.11-2.2a.425.425 0 0 0-.32-.61l-3.26-.51-.59-3.34a.427.427 0 0 0-.46-.36l-6.49.64c-.36.04-.51.48-.26.74l2.94 2.86-4.33.15-7.71-1.98-1.71-1.37-.25-2.48c-.05-.47-.72-.53-.84-.07l-.94 3.4-4.73 1.06 1.36-3.56s.03-.1.03-.15v-8.82l.9-3.78c.03-.12 0-.24-.05-.34l-1.69-2.57-1.08-6.31s-.03-.08-.04-.12l-3.16-6.39.09-10.36 32.96-.3 1.59 8.32-7.45 17.97c-.11.3.11.61.43.6l19.73-1.4.23 4.48c0 .07.03.14.07.2l2.83 4.51-4.71-1.71a.582.582 0 0 0-.19-.03l-4.9.4c-.09 0-.16.03-.22.07l-3.17 2.26c-.28.21-.21.66.13.76l3.37 1 1.35 1.46c.11.14.31.18.46.12l4.58-1.79 1.66.04-1.54.77c-.14.08-.23.22-.23.39v1.74c0 .24.2.43.44.42l2.78-.13c.1 0 .18-.03.26-.09l1.98-1.64.08 2.2-2.44.57a.43.43 0 0 0-.31.53l1.16 3.95c.04.12.13.22.25.27l3.61 1.46ZM493.03 191.41l.88 2.08-1.13 1.34-2.79.12c-.21 0-.38.17-.4.38l-.26 2.16-.83 4.07-4.09.22-.96-4.68a.412.412 0 0 0-.43-.34l-46.59 1.03.13-5.83-.73-27.07c0-.1-.05-.19-.1-.27l-3.12-3.62 1.91-4.34a.44.44 0 0 0-.13-.5l-5.01-4.11-1.49-5.36 36.11-.51 3.77 3.52.75 7.72c0 .1.05.19.12.25l7.89 8.15s.08.07.13.09l4.44 1.98.58 3.5-1.61 2.98c-.09.17-.06.37.08.51l7.91 7.53 1.27 6.71c.02.12.1.23.21.29l3.49 2Z" class="cls-4"/><path d="M488.42 202.41v2.81l-3.7 7.15s-.03.05-.03.08l-.9 3.2-9.15 17.26c-.05.1-.06.21-.04.31l1.53 5.84-.93 3.71-32.96.3.12-5.95c0-.17-.1-.33-.27-.39l-3.37-1.33-2.28-36.76 46.25-1.02.96 4.69c.04.21.22.35.44.34l4.33-.24Z" class="cls-8"/><path d="M479.74 48.07 466.56 56c-.06.03-.1.08-.13.14l-2.55 4.07-4.21 2.17c-.11.05-.18.15-.22.27l-1.21 4.49-.09.34s-.01.06-.01.08l-.39 7.31-2.03 2.51-2.97.49c-.25.04-.41.29-.34.53l1.53 6.14-1.92 5.76c-.05.15-.02.32.1.44l4.96 5.09c.08.08.19.12.31.12h1.48l3.27 4.28s.1.1.17.13l2.77 1.2.11 1.57c0 .16.1.31.25.37l1.99.81.33 3.46-48.07-.14V84.27l-.52-8.46v-.02l-1.18-15.41v-.06l-2.87-14.18V44.24l-1.15-4.2.79-2.96 15.5.12 6.69 3.99s.1.06.17.06l4.01.39 9.76 2.6c.13.04.27 0 .38-.08l1.74-1.41 1.06 1.45-.35 2.3c-.05.26.15.5.41.5h3.46l5.56 1.67c.05.03.12.03.18.02l12.06-1.55 4.36.93Z" class="cls-3"/><path d="m479.05 127.12.64 1.48-8.21 8.45c-.07.08-.12.18-.12.28l-.13 4.06-3.21 7.38-3.57-3.33a.385.385 0 0 0-.29-.12l-36.64.52-3.01-3.37-.37-7.21s-.01-.09-.03-.12l-2.58-7.35-1.84-7.22-.39-4.3.13-4.67c0-.08-.01-.15-.06-.23l-1.7-2.97 1.57.08h.03l48.69.14 1.19 2.43-.63 5.31c-.01.14.04.28.15.38l4.61 3.83.05.05 5.72 6.5Z" class="cls-5"/><path d="m445.65 267.49 1.63 2.5-.87 3.66V282.53l-1.55 4.05-9.22 3.43v-4.3c0-.31-.33-.52-.61-.37l-4.01 2.06a.44.44 0 0 0-.21.52l1.55 4.78c.06.17.22.29.41.29h1.42l-.76 1.76-1.95-.65a.383.383 0 0 0-.33.03l-8.53 4.39h-.01l-8.14 4.4s-.04.02-.07.04l-7 5.6-5.55.38c-.47.03-.55.7-.1.84l2.89.92-.67 5.29-3.46-.46a.429.429 0 0 0-.46.57l1.16 3.23 4.23 12.68-.51 2.65-4.64-2.78a.38.38 0 0 0-.23-.06l-9.13.12-5.27-5.02-4.05-5.71-1.67-9.21a.42.42 0 0 0-.16-.25l-3.92-3.04-6.55-14.26s-.03-.05-.05-.08l-6.72-8.66a.51.51 0 0 0-.21-.15l-16.03-5.03a.417.417 0 0 0-.42.1l-4.13 3.87s-.07.08-.1.12l-3.28 6.8-13.93-9.08-4.22-13.81c-.02-.05-.05-.1-.08-.15l-14.61-17.3.41-2.38 36.96 3.97c.24.02.45-.15.47-.39l4.88-57.6 30.18 2.63-1.14 25.06c0 .21.12.39.33.43l7.82 1.79 10.28 6.05c.13.08.29.08.42 0l2.02-1.11 3.65 4.38c.1.11.25.17.41.14l7.04-1.38 1.65 1.42c.19.17.49.11.63-.1l1-1.55 4.41 1.04.69 1.61c.07.18.28.29.47.26l12.75-2.3 6.06 4.04c.17.1.38.09.53-.04l.96-.85 3.1 1.21-.13 6.08-.09 10.88c0 .07.01.13.04.19l3.17 6.43 1.09 6.34c.01.05.03.11.07.16Z" class="cls-7"/><path d="m435.56 198.25 2.32 37.27-.77.68-5.93-3.96a.41.41 0 0 0-.31-.06l-12.59 2.27-.64-1.51a.415.415 0 0 0-.29-.24l-4.92-1.16a.424.424 0 0 0-.46.18l-.89 1.4-1.44-1.23a.42.42 0 0 0-.36-.1l-6.98 1.37-3.73-4.45a.414.414 0 0 0-.53-.1l-2.11 1.17-10.13-5.95s-.08-.04-.12-.05l-7.54-1.73 1.15-25.1a.43.43 0 0 0-.39-.45l-30.59-2.67.44-5.22 10.01.9c.24.03.45-.17.46-.41v-.17l76.47 3.43-.13 5.85v.04ZM434.97 165.07l.72 26.44-76.4-3.43 3.57-37.73 66 2.37 4.74 3.9-1.88 4.28a.44.44 0 0 0 .07.45l3.18 3.72Z" class="cls-5"/><path d="m426.95 146.48 1.48 5.37-65.49-2.34 1.05-12.17a.418.418 0 0 0-.38-.46l-19.59-1.92 2.81-24.56 39.44 2.65 8.43 3.24h.02l9 3c.1.03.19.03.27 0l5.87-1.9 9.04 3.51 1.81 7.1s.01.03.02.04l2.56 7.32.38 7.3c.01.1.04.19.11.26l3.17 3.55Z" class="cls-8"/><path d="M418.84 84.31v23.3l-1.9-.1c-.34-.03-.56.34-.39.63l2.02 3.56-.12 4.58v.05l.33 3.62-8.76-3.41a.412.412 0 0 0-.29-.01l-5.87 1.92-8.86-2.96-8.48-3.26s-.08-.03-.13-.03l-39.46-2.64 2.91-25.47 1.52-12.13 66.98 4.26.5 8.09ZM417.15 60.47l1.13 14.88-66.82-4.24 4.6-37.79 57.82 3.72-.77 2.89c-.02.07-.02.15 0 .23l1.16 4.25v1.85l2.87 14.21ZM382.97 390.62l-3.49 2.08-5.16 1.55c-.08.02-.16.07-.21.14l-3.7 4.54-2.79-2.9-.25-5.91c0-.07-.03-.14-.06-.2l-1.63-2.75-.11-1.45 3.02-1.81c.13-.08.21-.22.2-.37l-.11-4.26 9.72 5.87 2.53 3.92c.03.05.06.09.11.12l1.93 1.43ZM363.11 137.69l-1.06 12.18v.04l-3.65 38.53v.03h-.01v.15l-9.98-.9-60.17-8.09 7.5-50.2 47.75 6.34h.05l19.57 1.92ZM355.22 33.21l-4.66 38.24-1.51 12.11-62.5-9.08a.424.424 0 0 0-.48.34l-1.11 6.07-2.34.1-1.43-1.55a.437.437 0 0 0-.24-.13l-5.75-.91-7.24-1.03-4.56-7.07-2.2-11.54a.42.42 0 0 0-.6-.3l-2.27 1.08.78-4.88 2.46-5.57c.03-.08.04-.18.02-.26l-1.04-4.7s-.02-.05-.02-.08l-1.04-2.31-1.29-5.84s-.03-.09-.05-.13l-6.17-9.88 3.23-10.3 100.02 17.62Z" class="cls-5"/><path d="m348.94 84.41-5.77 50.45-47.73-6.34-18.89-3.57 2.4-11.96v-.02l6.78-31.58v-.02l1.11-5.99 62.1 9.03zM347.9 188.5l-.48 5.68v.03l-4.88 57.56-36.91-3.96a.421.421 0 0 0-.46.35l-.45 2.56-18.33-2.91a.424.424 0 0 0-.48.34l-1.08 5.03-7.45-1.16 10.73-71.54 59.79 8.02Z" class="cls-5"/><path d="m294.89 129.29-7.5 50.21-51.59-9.28 14.52-63.06 27.71 6.06-2.4 11.99c-.05.23.1.46.34.5l18.92 3.58ZM284.56 374.54l4.28 8.74-2.91-.94-4.12-6.98s-.02-.03-.03-.04L273 363.99a.419.419 0 0 0-.73.1l-1.18 3.05-4.08.49-3.69-4.74s-.08-.09-.13-.11l-7.67-4.56s-.07-.05-.1-.05l-9.41-2.54-7.43-6.33c-.23-.21-.6-.09-.68.21l-1.59 5.44-9.8 3.16 2.16-7.64a.422.422 0 0 0-.27-.51l-2.37-.92a.42.42 0 0 0-.45.09l-5.29 4.93a.47.47 0 0 0-.14.28l-.35 4.01-9.83 7.15-18.14 5.08-3.1-.13 3.01-2.73 12.18-4.91a.27.27 0 0 0 .15-.11l6.4-7.13c.3-.32-.04-.82-.46-.68l-5.54 1.91-3.66-4.88a.422.422 0 0 0-.41-.16l-4.11.63 1.49-5.95c.04-.2-.04-.39-.21-.48l-4.61-2.56 1.7-4.6c.04-.11.03-.23-.02-.34l-2.75-5.48 5.58-3.11 3.25 3.24c.23.23.61.13.7-.17l1.03-3.07 7.82-2.14c.18-.04.3-.19.31-.38l.55-6.75c.03-.3-.26-.54-.54-.45l-4.22 1.23-6.03-3.27-.17-3.6s-.02-.11-.04-.16l-1.42-2.99 9.3-1.99 1 3.99c.04.15.17.28.34.31l3.84.73c.3.06.57-.22.49-.53l-1.1-4.2a.38.38 0 0 0-.08-.17l-1.73-2.07v-4.05c0-.07-.02-.14-.06-.19l-2.11-4.08 5.13-1.16s.09-.03.14-.06l6.32-4.16 12.32-2.32 4.59 4.24s.03.03.05.04l5.48 3.84.12.06 12.05 3.46 4.63 1.89-3.45 50.87c-.02.2.11.37.29.44l6.27 1.97 3.94 5.18c.12.16.32.21.5.15l5.21-2.09 12.37 13.08Z" class="cls-5"/><path d="m287.26 180.34-10.73 71.55-21.86-3.29-39.22-22.49 1.61-2.55 3.42-.49c.26-.04.43-.32.33-.58l-2.14-5.66 2.37-5.98 5.53-7.07a.42.42 0 0 0 .06-.39l-2.78-8.76.08-.17 1.13-2.25a.46.46 0 0 0 .04-.28l-1.14-5.58 2.32-7.32 4.15.34 2.22 2.22c.23.24.64.12.72-.21l2.23-10.33 51.66 9.29Z" class="cls-4"/><path d="m284.78 81.75-6.58 30.63-55.03-12.01 11.82-38.74 4.67-2.87a.42.42 0 0 0 .15-.56l-4.34-8.51 11.63-36.2 7.26 1.92-3.26 10.4c-.04.13-.02.25.05.36l6.22 9.99 1.29 5.8s.01.06.03.08l1.02 2.32 1.01 4.51-2.42 5.49s-.03.07-.04.1l-.92 5.75c-.05.34.3.6.61.45l2.51-1.19 2.12 11.07c0 .06.02.11.05.15l4.7 7.32c.07.1.18.16.3.19l7.44 1.04 5.59.89 1.47 1.59c.09.09.21.14.34.13l2.31-.1Z" class="cls-5"/><path d="m249.48 106.98-14.62 63.48v.02l-2.16 9.95-1.78-1.77a.397.397 0 0 0-.26-.12l-4.65-.39c-.2-.02-.39.11-.44.3l-2.46 7.75c-.02.07-.03.14-.01.22l1.13 5.54-.89 1.78-41.47-62.89 2.48-4.95c.09-.17.04-.39-.12-.51l-1.19-.99 9.78-31.32 29.7 8.01h.02l.09.02 26.85 5.87Z" class="cls-8"/><path d="m246.27 13.28-11.55 35.93-17.89-4.7s-.07-.02-.09-.02l-21.53-.73-10.93-4.48v-4.62l-.56-2.21a.442.442 0 0 0-.22-.28l-6.83-3.5-.06-.03-2.81-1 .47-4.5.3-.05v3.56c0 .4.51.57.76.25l2.41-3.14c.07-.1.1-.22.08-.34l-.38-1.85a.36.36 0 0 0-.11-.21l-1.48-1.49 3.06-9.72c.02-.06.03-.12.01-.19l-.54-3.45.47-5 7.12 6.62c.05.04.11.08.18.1l8.3 2.12-1.78 10.87c-.08.46.54.7.78.29l3.73-6.22 2.12.33c.28.04.54-.2.49-.49l-.73-4.75.54-6.04s0-.1-.01-.15l-.9-3.16 47.58 12.25Z" class="cls-6"/><path d="m234.7 50.08 4.17 8.16-4.46 2.75c-.09.06-.16.14-.19.24l-11.88 38.93-29.69-8.01-39.38-12.46v-6.7c0-.06-.01-.12-.04-.17l-1.63-3.76 3.35-.64c.12-.02.22-.1.28-.2l8.86-14.58s.04-.05.05-.08l4.4-12.12 5.31-6.59c.06-.08.1-.17.1-.27l-.02-4.35 9.5 4.8v4.54c0 .17.1.33.26.39l11.26 4.62c.06.02.1.03.16.03l21.55.73 18.04 4.74Z" class="cls-3"/><path d="m223 194.8 2.76 8.64-5.43 6.92s-.04.08-.05.11l-2.46 6.21c-.04.09-.04.21 0 .31l2.01 5.31-3.05.43-26.57-2.8v-1.68c0-.22-.18-.41-.4-.42l-1.61-.1 2.11-5.39a.42.42 0 0 0-.07-.43l-4.26-5.27.73-3.29a.419.419 0 0 0-.41-.51l-6.84-.12 1.8-3.81c.08-.17.03-.4-.14-.51l-12.4-9.44s-.09-.05-.14-.07l-8.47-2.52-1.43-3.34.9-10.88a.437.437 0 0 0-.09-.31l-3.7-4.6-3.97-10.72-.12-3.17c0-.14-.09-.26-.2-.34l-2.1-1.28 1.38-10.87.99-1.39 2.38 1.47c.3.19.69-.06.64-.42l-.58-4.71 7.82-.5c.5-.03.53-.76.03-.84l-8.01-1.17c-.09 0-.19 0-.27.05l-4.09 2.23-2.01-.78-1.03-1.54 2.47-2.6a.41.41 0 0 0 .07-.48l-4.52-9.17a.422.422 0 0 0-.26-.23l-2.37-.69 2.8-2.59c.07-.06.11-.15.13-.23l1.55-8.02c0-.07 0-.16-.02-.22l-3.14-8.55 5.26-5.89c.05-.05.09-.13.1-.21l.64-3.95 2.55-5.51c.05-.1.05-.21.02-.32l-1.27-3.35 2.19-.8L192 92.84l-9.86 31.59c-.05.16 0 .34.13.46l1.16.94-2.43 4.86c-.07.14-.06.3.02.43L223 194.8Z" class="cls-7"/><path d="m638.77 155.94.02 3.57-.28-.62a.43.43 0 0 0-.8.04l-.91 3.05-4.6 2.07.44-1.09a.422.422 0 0 0-.28-.56l-.28-.09.13-.86a.422.422 0 0 0-.45-.49l-.72.04-.05-1.5c0-.21-.15-.37-.35-.41l-1.42-.26a.436.436 0 0 0-.46.23l-.43.8-2-1.38.38-1.45c.03-.11.01-.22-.05-.32l-.29-.49 1.07.04c.41 0 .6-.5.29-.76l-2.75-2.26v-.26l.98.05c.27.01.49-.25.43-.52l-.31-1.43.25-2.51c.03-.2-.09-.38-.27-.45l-1.22-.43.91-2.5 1.29-.83c.13-.08.2-.21.2-.36v-.71l.3-.97c.03-.08.03-.17 0-.25h.05l4.21 14.68c.05.21.26.34.48.31l6.49-1.12Z" class="cls-3"/><path d="M656.95 113.56v.05l-10.35 7.8-.22-.18 4.04-3.05c.31-.23.17-.74-.23-.77l-1.09-.09c-.09 0-.18.02-.26.07l-9.78 6.22-.86-.8.5-2.6.07 1.21c.02.33.37.51.64.36l9.14-5.31s.02-.01.03-.02l3.89-2.76-.06.28-1.09 1.1c-.28.29-.05.76.35.72l1.64-.18c.06 0 .12-.03.17-.05l3.47-2Z" class="cls-7"/></g><g><path d="M145.33 370c.22.2.18.56-.09.7l-1.74.87c-.1.04-.2.05-.31.03l-2.19-.59a.425.425 0 0 1-.17-.1l-.86-.77a.404.404 0 0 1-.12-.47l.18-.5c.05-.17.2-.27.38-.28.04 0 .08 0 .12.01l2.27.57 1.26-.34c.15-.04.29 0 .4.1l.87.77Zm-2.07.73 1.03-.51-.23-.21-1.15.31c-.07.02-.14.02-.21 0l-1.73-.43.36.32 1.93.52ZM134.97 367.04l.65-.53a.46.46 0 0 1 .24-.1c.08 0 .14.01.21.04l.84.39c.2.1.29.31.23.52l-.39 1.17c-.07.2-.28.31-.49.27l-1.88-.38a.431.431 0 0 1-.18-.75l.48-.38h-.07l-1.07.1c-.3.03-.53-.26-.45-.55l.36-1.16c.05-.16.19-.28.36-.31h1.43c.35 0 .55.38.37.66l-.64 1.01Zm1.09.85.14-.44-.25-.11-.51.42.62.13Zm-1.74-1.42.15-.24h-.29l-.09.25h.23ZM133.13 364.55c.14.11.19.3.13.46l-.59 1.62a.42.42 0 0 1-.63.21l-1.62-1.06c-.27-.19-.25-.6.04-.75l.58-.28.13-1.04c.03-.2.19-.35.39-.37h.05c.1.01.19.04.26.11l1.26 1.1Zm-1.07 1.27.3-.82-.44-.38-.06.46c-.02.14-.1.27-.24.33l-.11.06.55.35ZM126.81 358.67c.2.1.29.34.21.55l-.49 1.16c-.12.28-.49.35-.71.13l-.7-.74a.404.404 0 0 1-.11-.4l.22-.9a.436.436 0 0 1 .61-.29l.97.49Zm-.82.77.08-.19-.14-.07-.03.17.09.09ZM123.78 360.85c.09.23-.04.5-.28.56l-1.19.33c-.25.06-.5-.1-.53-.35l-.33-2.06s0-.11.01-.16l.32-1.37c.04-.19.2-.32.38-.34.19-.01.37.11.44.28l1.18 3.11Zm-.96-.14-.47-1.24.2 1.32.27-.08ZM121.18 353.72c.29.02.48.33.35.61l-.36.77c-.07.15-.22.25-.38.25l-1.31.05a.46.46 0 0 1-.38-.19l-.64-.97a.42.42 0 0 1 .34-.65h.04l2.34.13Zm-1.5.81.49-.02-.52-.02.03.04ZM213.59 370.35l-.31.46-.65.16-.1-.17 1.06-.45zM209.58 373.58l.04.23-.41.71-1.14.06-.02-.14 1.53-.86z"/><path d="m126.07 359.25-.08.19-.09-.09.03-.17.14.07zM689.54 53.73c.1.15.09.34-.01.48l-2.01 2.74c-.08.11-.2.17-.33.17l-1.62.09-.45 1.45c-.07.19-.25.31-.45.29l-1.24-.11.81 1.29c.17.26.01.61-.29.65l-1.59.22-.06.94c-.02.3-.34.48-.6.36l-2.01-.94.23 1.3c.06.33-.27.59-.58.47l-2.27-.89-1.55 1.78c-.17.2-.49.2-.66-.02l-1.31-1.71.16 8.11c0 .33-.34.54-.63.38l-2.24-1.23-1.47 3.4 1.19 2.39c.15.29-.09.63-.41.61l-1.46-.09c-.15 0-.28-.09-.34-.21l-.97-1.71-1.09.7 1.22 1.84c.12.18.09.4-.06.55l-1.8 1.68.37-.04c.28-.04.52.22.47.5l-.37 1.92c-.03.15-.14.28-.29.33l-1.66.52.31 2.02c0 .14-.03.27-.12.36l-1.93 1.99c.18-.22.1-.54-.16-.66l-.27-.12 1.6-1.65-.33-2.16c-.04-.21.09-.42.29-.48l1.77-.56.21-1.1-1.07.12c-.41.04-.64-.46-.35-.74l2.48-2.31-1.26-1.89c-.13-.2-.08-.47.12-.6l1.84-1.18c.2-.14.48-.07.6.15l1.07 1.9.49.02-.95-1.89a.499.499 0 0 1-.01-.36l1.74-4.02c.1-.23.38-.33.6-.21l2 1.11-.17-8.68c-.01-.41.52-.6.77-.26l1.78 2.32 1.39-1.61a.43.43 0 0 1 .49-.12l1.84.73-.23-1.36c-.06-.34.29-.6.6-.46l2.18 1.02.05-.66c.01-.2.16-.36.36-.39l1.27-.18-.92-1.45c-.2-.3.04-.69.39-.65l1.76.14.45-1.4c.05-.18.21-.3.38-.3l1.72-.09 1.71-2.33-4.66-7.08-6.28-.71a.429.429 0 0 1-.36-.27l-6.5-17.34-8.06-2.09-1.66 1.5c-.06.05-.13.08-.2.1l-1.83.37a.489.489 0 0 1-.37-.1l-1.54-1.41-4.58 12.62 2.07 7.64c.02.07.02.17-.01.24l-.78 2.33.68 1.87c.07.17.01.37-.13.48l-1.65 1.32.16 3.07c.01.18-.09.35-.26.42l-2.15.93-.14-.38a.425.425 0 0 0-.5-.27l2.19-.94-.17-3c-.01-.14.05-.27.16-.35l1.59-1.27-.63-1.73a.365.365 0 0 1 0-.29l.78-2.34-2.07-7.64a.424.424 0 0 1 .01-.25l4.85-13.35c.1-.28.46-.37.68-.17l1.85 1.68 1.5-.3 1.75-1.56c.07-.07.17-.11.27-.11.04 0 .08 0 .12.01l8.49 2.19c.14.04.25.14.3.27l6.49 17.29 6.23.72c.12 0 .24.08.31.18l4.93 7.5ZM675.31 101.32a.43.43 0 0 1-.65.46l-1.21-.77-4.82 2.66c-.2.11-.45.03-.57-.16l-.91-1.53-2.67 3.42c.1-.12.12-.3.05-.44l-.3-.63 2.63-3.37a.43.43 0 0 1 .71.04l1.02 1.72 4.67-2.58c.14-.07.31-.07.43.02l.55.34-.7-3.05-1.27-1.13 1.25 2.17c.12.2.05.46-.15.58l-2.97 1.8a.43.43 0 0 1-.38.05l-1.87-.72a.355.355 0 0 1-.16-.11l-1.62-1.74a.405.405 0 0 1-.11-.27l-.06-.89-1.62-1.96-1.37-.22-.85.45c-.16.09-.37.06-.5-.07l-.97-.97a.41.41 0 0 1-.07-.51l2.41-4.24-1.37-.59a.362.362 0 0 1-.21-.21l-.68-1.39-1.01-.1-1.43 1.11-.22.77c-.05.14-.17.26-.32.29l-19.46 4.59v-.35s0-.06-.02-.1l-.11-.39 7.28-1.72v.44h.85v-.64l11.02-2.6.19-.66c.03-.09.08-.17.15-.23l1.68-1.28c.07-.05.14-.08.22-.09h.08l1.2.1-.15.18.67.54.17-.21.59 1.23 1.66.71c.23.1.33.38.21.61l-2.5 4.36.52.52.69-.37c.08-.04.17-.06.26-.05l1.69.26c.1.02.2.08.25.16l1.82 2.19c.05.07.09.15.1.25l.05.88 1.45 1.56 1.58.6 2.44-1.49-1.2-2.08-1.28-.47a.433.433 0 0 1-.17-.69l.85-.9c.15-.18.41-.18.59-.03l2.84 2.52a.4.4 0 0 1 .14.22l.97 4.2Zm-4.33-5.9.45.17-.32-.3-.13.13Z"/><path d="M664.53 104.96c.07.14.05.32-.05.44h-.01l-.66-.53.42-.54.3.63Z"/><path d="m663.81 104.87.66.53s-.07.08-.12.11l-2.01 1.1c-.23.11-.49.02-.6-.2l-.78-1.79.4 2.45c.04.18-.05.35-.19.44l-3.16 1.99c.13-.1.19-.27.15-.44l-.14-.58 2.46-1.55-.42-2.46c-.02-.16.04-.31.18-.42l.64-.45c.22-.15.53-.07.64.18l.82 1.85 1.24-.67-1.02-2.13-1.85-.68c-.1-.03-.17-.1-.23-.18l-1.39-2.45-3.02.89-.1-.4a.436.436 0 0 0-.4-.33c-.04 0-.06 0-.1.01l3.71-1.08s.06-.02.1-.02c.16-.01.31.07.39.22l1.48 2.6 1.86.68c.11.03.19.11.24.21l.98 2.03-.42.54ZM662.27 85.65c.26.12.34.44.16.66l-.02.02-.62-.59.21-.21.27.12Z"/><path d="m662.41 86.33-.65.8-.12-.25a.45.45 0 0 0-.34-.24l-.23-.02.34-.42-1.37-.61a.433.433 0 0 1-.22-.24l-10.07-27.22-1.54.43-.54.78.12 1.99c-.02-.24-.21-.42-.45-.4-.04 0-.06 0-.09.01l-.33.09-.11-1.79a.41.41 0 0 1 .07-.26l.71-1.04c.06-.08.14-.14.24-.16l2.07-.59-.06.03.34.78.37-.16 10.01 27.04 1.44.65-.21.21.62.59Z"/><path d="m661.64 86.88.12.25-.17.21-.67-.54.15-.18.23.02c.15.02.27.11.34.24ZM658.16 109.06c.04.17-.02.34-.15.44l-.03.02s-.07.04-.11.05a.432.432 0 0 1-.54-.31l-.09-.37-2-8.27-.1-.41.42-.1-.13-.41h.04s.06-.02.1-.02c.19.01.35.14.4.33l.1.4 1.95 8.07.14.58Z"/><path d="m657.87 109.57-10.69 4.08-3.51 2.88s-.03.01-.04.02l-3.12 1.96.03-.05c.08-.1.11-.23.08-.35l-.14-.58 2.67-1.68 3.54-2.91s.08-.05.12-.07l10.43-3.98.09.37c.06.24.31.38.54.31ZM655.43 99.7l.13.41-.42.1.1.41-16.27 3.65-.08-.38-.02-.47 16.56-3.72zM650.41 57.46l.14.38-.37.16-.34-.78.06-.03s.04-.01.06-.01c.2-.01.37.09.44.28ZM648.84 67.23c.04.08.06.18.04.27l-.39 2.26c0 .1-.06.18-.12.24L646 72.24l.49 3.66s.01.08 0 .11l-.89 6.41.57 4.21.32 2.19s.01.03.01.06l.02 2.5-.84.2-.03-2.66-.32-2.18-.59-4.26v-.12l.9-6.41-.51-3.81a.43.43 0 0 1 .13-.37l2.41-2.29.34-1.99-.9-1.74a.407.407 0 0 1-.05-.18l-.11-3.67-16.08 4.41-.13-.42a.442.442 0 0 0-.42-.3c-.03 0-.07.01-.1.02l16.7-4.58.02.35.85-.05.13 4.11.92 1.79Z"/><path d="m647.79 61.33-.85.05-.02-.35.33-.09s.05-.01.09-.01c.24-.02.43.16.45.4ZM646.52 91.38l.01.64h-.85v-.44l.84-.2zM640.62 118.11c.03.12 0 .25-.08.35l-.03.05-.09.05-.45-.71.51-.32.14.58ZM639.59 153.6c.27.02.45.28.38.54l-.35 1.38v-.07h-.85v.49l-6.49 1.12c-.22.03-.43-.1-.48-.31l-4.21-14.69-.86-3 .38-.06c.11-.01.22-.08.29-.18l.1-.16 5.01 17.49 6.34-1.08.17-.65-2.18-.15c-.4-.02-.55-.53-.24-.77l.98-.73-.45-.53a.424.424 0 0 1 .26-.69l.68-.13-.28-.6-2.22-.58a.415.415 0 0 1-.29-.27l-.46-1.31-1.24-.96a.458.458 0 0 1-.14-.21l-.89-2.83-2.35-2.44a.49.49 0 0 1-.11-.38l.08-.4-.93-.41c-.21-.1-.31-.36-.21-.57l.34-.72.16.2c.05.05.09.09.14.11l.4.22-.08.16.84.37c.17.08.27.27.24.46l-.1.52 2.28 2.35s.07.11.1.18l.87 2.79 1.22.97c.06.05.11.12.13.19l.43 1.2 2.2.59c.13.03.24.12.29.23l.59 1.29c.12.25-.03.55-.31.6l-.51.09.25.3c.16.19.14.48-.06.62l-.42.31 1.56.11Z"/><path d="M639.56 125.79c.08.08.11.18.1.29l-.22 7.03s-.01.1-.03.15l-3.93 10.14c-.1.25-.4.35-.62.21l-.87-.55a.431.431 0 0 1-.19-.45l.3-1.45-2 .14c-.09 0-.16-.02-.24-.05l-1.79-.98.19-.41-.77-.37-.12.25-1.39-1.79.33-.5.02-.02.14-.25 1.69 2.16 2 1.09 2.43-.17c.28-.02.51.24.45.51l-.35 1.73.18.11 3.72-9.6.21-6.8-.7-.83-2.73.37a.424.424 0 0 1-.46-.57l2.45-6.51.23.07.31.88-1.94 5.19 2.26-.31c.15-.02.29.04.38.14l.96 1.15ZM639.62 155.52l.03 6.06c0 .47-.64.6-.82.17l-.63-1.46-.64 2.12c-.03.12-.12.22-.23.27l-5.75 2.59c-.36.16-.72-.2-.58-.55l.67-1.64-.2-.06a.429.429 0 0 1-.3-.47l.12-.71-.64.04c-.24 0-.44-.18-.45-.42l-.06-1.59-.77-.14-.5.95c-.12.22-.4.3-.62.16l-2.65-1.81a.344.344 0 0 1-.13-.16.445.445 0 0 1-.04-.3l.41-1.58-.62-1a.43.43 0 0 1 .38-.65h.61l-1.93-1.57a.427.427 0 0 1-.15-.33v-.9c0-.25.2-.45.44-.43l.87.03-.21-.94s-.01-.08-.01-.13l.23-2.26-1.3-.46a.439.439 0 0 1-.26-.55l1.1-3.04c.03-.08.09-.16.17-.21l1.23-.78v-.54s0-.09.02-.13l.21-.68-.55-.28-.66.76-.18 1.11c-.02.07-.05.16-.11.22l-1.35 1.48-1.34 1.6c-.09.1-.21.16-.34.15h-.5l.83.99c.11.12.13.3.06.45l-.14.31 1.28.54c.25.11.33.41.19.63l-1.41 2.11.26.49c.05.07.07.16.05.26l-.17 1.25 1.02 2.67 1.5 1.68s.06.08.08.13c.06.15.03.32-.09.44l-.77.84s-.07.07-.11.09l.14.11.91.05c.18.02.32.13.38.29l.36 1.01.9.9c.23.24.11.65-.22.72l-1.62.32a.43.43 0 0 1-.49-.28l-.13-.38-.39.32v-.21l-.86.02v.21l-1.89-1.32-5.26-1.65-2.27-.19c-.19-.02-.34-.14-.38-.31l-.72-2.52c-.02-.1-.02-.2.03-.29l1.19-2.62-1.71-2.33-3.23-1.06c-.1-.03-.18-.1-.23-.19l-1.53-2.49-1.58-.41.18-.21-.65-.55-.19.22-1.15-2.08-6.91.49-4.21 3.16-2.09 4.05c-.04.07-.1.14-.19.18l-1.55.78a.425.425 0 0 1-.61-.34l-.87-8.29.84-.13.81 7.72.88-.44 2.07-4.01c.03-.06.07-.11.12-.14l4.4-3.3c.05-.05.14-.08.22-.09l7.3-.52c.17-.01.33.08.41.23l1.33 2.42 1.82.47c.11.03.2.1.26.19l1.54 2.52 3.2 1.05c.09.02.16.08.22.15l1.93 2.65c.1.13.11.29.05.43l-1.23 2.7.59 2.08 2.03.17s.07.01.09.02l5.37 1.68s.08.03.11.05l1.87 1.31.78-.64c.24-.19.59-.08.68.2l.2.61.47-.09-.41-.4s-.07-.1-.1-.17l-.29-.82-.75-.06c-.09 0-.16-.03-.23-.08l-2.52-1.88c-.16-.1-.21-.31-.15-.49l.33-.84c.1-.27.46-.36.68-.16l1.7 1.53.22-.25-1.29-1.45s-.07-.09-.09-.14l-1.09-2.84c-.03-.07-.04-.14-.03-.21l.17-1.22-.31-.58a.452.452 0 0 1 .01-.45l1.27-1.9-1.2-.51a.414.414 0 0 1-.23-.56l.21-.47-1.24-1.48c-.23-.27-.04-.7.33-.7h1.22l1.23-1.46v-.02l1.27-1.39.18-1.1a.58.58 0 0 1 .1-.21l.98-1.1c.07-.09.18-.14.3-.15.07 0 .14.02.2.05l1.16.58c.11.06.19.15.22.26.03.08.03.17 0 .25l-.3.97v.71c0 .15-.07.28-.2.36l-1.29.83-.91 2.5 1.22.43c.18.07.3.25.27.45l-.25 2.51.31 1.43c.06.27-.16.53-.43.52l-.98-.05v.26l2.75 2.26c.31.26.12.76-.29.76l-1.07-.04.29.49c.06.1.08.21.05.32l-.38 1.45 2 1.38.43-.8c.09-.17.27-.26.46-.23l1.42.26c.2.04.34.2.35.41l.05 1.5.72-.04c.28-.02.5.23.45.49l-.13.86.28.09c.25.07.37.34.28.56l-.44 1.09 4.6-2.07.91-3.05c.12-.37.64-.4.8-.04l.28.62-.02-3.57.49-.08c.17-.02.3-.15.35-.3v-.04Z"/><path d="M639.62 155.45v.11c-.06.15-.19.28-.36.3l-.49.08v-.49h.85ZM638.89 103.89l.08.38-.41.09-.19-.83.5-.11.02.47zM638.52 93.79v.35l-.32.08-.2-.83.4-.09.11.39s.01.07.01.1ZM638.32 118.25l.09.25-.1.04-.79-.3-.16.43-7.38-2.2-.24-.77a.51.51 0 0 0-.25-.27l8.55 2.55c.13.04.23.13.28.27Z"/><path d="m638.31 118.54-.41 1.08-.31-.88-.23-.07.16-.43.79.3zM637.29 187.08c.23.45-.35.87-.7.5l-4.75-5.41-.29.28 1.37 2.16c.12.19.08.44-.09.57l-1.17.9c-.11.09-.26.12-.41.07l-2.59-.96-.24.54.51.57c.21.22.13.57-.14.68l-3.62 1.57v.85l4.1-1.58 1.9-1.2c.26-.16.59-.02.65.27l.59 2.97.61.03-.11-3.16c0-.18.11-.35.29-.41l.9-.33c.21-.07.46.04.54.25l1.49 3.75c.04.11.04.22-.01.33l-.91 1.94c-.06.14-.2.24-.36.25l-3.27.2 1.96.04c.22.01.39.17.42.38l.19 1.68c.02.17-.06.33-.21.42l-2.5 1.47-.89.64c-.07.06-.16.08-.26.08.17.12.23.34.14.54l-.97 2a.43.43 0 0 1-.2.2l-2.07.97c-.1.04-.22.04-.32 0l-1.66-.55.3.42 2.55.62 3.19-2.82c.15-.14.35-.15.52-.04l1.35.9c.15.1.23.29.18.46l-.71 2.85a.45.45 0 0 1-.32.32l-4.22.95-3.26 1.46s-.06.03-.09.04l-2.59.49-2.04 1.95 1.41.07c.36.02.52.45.29.72l-2.05 2.22.2.66c.04.13.01.25-.05.36l-1.6 2.39.5 3.78c.06.41-.45.66-.73.35l-2.51-2.64.39 1.74c.07.3-.18.56-.48.51l-2.85-.46-.58 1.25c-.04.1-.12.17-.21.21l-1.6.68.07-.08-.65-.55-.28.34-13.4-10.47-10.1 1.52c-.09 0-.18 0-.26-.04l-6.03-3.24-13.17 1.14-6.33 3.13.06-.12-.76-.39-.02-.19.29-.03 6.46-3.2s.09-.03.15-.04l13.37-1.16c.08-.01.17.01.25.05l6.01 3.23 10.13-1.53c.12-.03.23.01.33.08l13.69 10.7 1.3-.54.64-1.4a.43.43 0 0 1 .46-.25l2.54.41-.58-2.61c-.08-.42.44-.7.73-.38l2.66 2.79-.36-2.64c0-.1.02-.2.07-.3l1.58-2.35-.21-.71c-.04-.15 0-.31.1-.41l1.58-1.72-1.48-.08c-.38-.02-.54-.48-.28-.74l2.85-2.71c.06-.06.13-.1.21-.11l2.67-.51 3.24-1.47s.06-.02.09-.02l4-.92.58-2.29-.83-.56-3.12 2.76c-.1.09-.24.12-.38.09l-2.92-.71a.4.4 0 0 1-.24-.17l-1.16-1.61c-.24-.34.1-.79.49-.65l2.74.91 1.77-.83.57-1.16-4.01.48h-.13l-2.33-.46a.427.427 0 0 1-.23-.71l1.43-1.55c.09-.1.22-.15.35-.13l2.26.25-.45-1.44c-.08-.25.09-.52.36-.55l.96-.13c.13-.02.25.03.35.11l2.46 2.28.62-.44s.02-.01.03-.02l2.28-1.35-.11-1.03-2.86-.06c-.13 0-.25-.06-.33-.16l-.58-.71c-.22-.26-.04-.67.3-.69l4.86-.31.72-1.54-1.27-3.2-.22.09.12 3.3c0 .25-.2.45-.45.44l-1.42-.06a.417.417 0 0 1-.4-.35l-.53-2.68-1.41.9s-.05.02-.08.03l-4.71 1.81c-.28.11-.59-.1-.58-.4v-1.74c0-.17.1-.33.26-.39l3.32-1.45-.31-.33a.411.411 0 0 1-.06-.46l.51-1.17c.09-.2.33-.3.54-.22l2.75 1.01.67-.51-1.35-2.13c-.1-.17-.08-.39.06-.53l.84-.85c.17-.17.46-.16.62.03l2.41 2.73-2.28-4.09.3-.05c.2-.04.36-.23.35-.44v-.12l4.34 7.78Zm-7.3 10.26h.07s-.03-.02-.05-.04l-2.57-2.37-.26.03.49 1.58c.1.3-.14.59-.45.56l-2.69-.3-.77.82 1.52.29 4.71-.57Z"/><path d="M632.95 179.42c.01.21-.15.4-.35.44l-.3.05-.15-.27.75-.42.04.08v.12Z"/><path d="m632.94 179.3-.04-.08-.75.42.15.27-59.02 9.51.11-.18-.73-.43-.02-.17.34-.04 59.1-9.52-.12-2.38-.3.35c-.11.14-.29.19-.46.14l-1.6-.5-2.51.87a.42.42 0 0 1-.36-.05l-5.67-3.42-4.83-.35c-.44-.03-.55-.62-.16-.81l3.02-1.46c.09-.05.2-.06.31-.03l3.93 1.19s.04 0 .06.02l2.77 1.36-1.57-2.19a.43.43 0 0 1-.08-.27l.08-1.1-3.7-2.06c-.37-.22-.24-.79.19-.8l2.96-.14-.66-.58a.459.459 0 0 1-.15-.31l-.07-3.14.18.13c.15.11.36.1.51-.02l.16-.13.07 2.95 1.33 1.15c.28.26.11.74-.27.75l-2.52.12 2.62 1.46c.14.08.22.24.22.4l-.08 1.22 2.46 3.45c.26.35-.13.81-.53.62l-4.27-2.09-3.73-1.12-1.44.69 3.36.25c.06.01.13.03.18.06l5.59 3.37 2.46-.85c.08-.03.18-.03.27 0l1.46.46.82-.97c.26-.29.74-.13.75.26l.18 3.72ZM632.5 130.08v2.38c-.01.14-.07.25-.17.34l-2.49 1.96-1.37 2.42-.18-.23-.67.53.36.47-.48.71-.05-.19-.82.23.1.36-38.56 6.26-.04-.4-.85.08.05.45-10.39 1.69a.424.424 0 0 1-.49-.36l-.2-1.47.51-.21c.18-.07.29-.26.26-.45l.21 1.58 49.56-8.04.8-1.2 1.55-2.73a.4.4 0 0 1 .1-.12l2.4-1.89v-1.98l-3.7-3.44a.431.431 0 0 1-.14-.32l.18-7.04c0-.09.04-.17.1-.25l1.32-1.73-.37-1.2.17-.05.78.23.3.97c.04.13.02.27-.07.38l-1.38 1.81-.17 6.71 3.69 3.44c.1.07.15.19.15.3ZM630.74 65.89l.13.42-.43.12-.22-.82s.07-.02.1-.02c.19 0 .36.12.42.3ZM630.26 139.86l-.19.41-.4-.22c-.05-.02-.09-.06-.14-.11l-.16-.2.12-.25.77.37ZM629.74 115.7l.24.77-.78-.23.25-.82h.04c.11.06.2.16.25.28Z"/><path d="m626.46 114.22 2.99 1.2-.25.82-.17.05-.05-.14-3.02-1.2a.417.417 0 0 1-.23-.24l-.97-2.45-3.68-2.92-41.39 8.19a.424.424 0 0 1-.5-.34l-.35-1.94-5.62 3.53-.04-.28a.43.43 0 0 0-.42-.36h-.12l6.22-3.91-.03.04.66.56.12-.15.34 1.92 41.16-8.13s.05-.01.07-.01c.1 0 .2.02.28.09l3.93 3.1c.06.06.1.11.13.19l.94 2.38ZM628.29 136.95l.18.23-.14.25-.02.02-.33.5-.36-.47.67-.53ZM627.45 138.47l.05.19-.1.16c-.07.1-.18.17-.29.18l-.38.06-.1-.36.82-.23ZM624.01 163.19v.21l-.16.13a.42.42 0 0 1-.51.02l-.18-.13v-.21l.85-.02ZM610.27 219.95l-.07.08-.09.04a.4.4 0 0 1-.42-.06l-.35-.27.28-.34.65.55Z"/><path d="m610.2 220.03-4.42 5.28-.43 2.81-.06.15-2.56 4.29a.43.43 0 0 1-.63.13l-1.53-1.2-.53 3.12c-.01.1-.06.18-.12.25l-6.31 5.75c-.13.12-.31.15-.46.08l-1.14-.49-2.84.81 2.75 1.96c.3.22.2.7-.18.76l-6.31 1.01c-.15.03-.3-.03-.4-.15l-1.62-2v-1.19l.08-.06 2.05 2.52 5.03-.8-2.62-1.86a.428.428 0 0 1 .14-.76l3.84-1.1c.09-.03.19-.02.28.01l1.02.44 6-5.47.61-3.69c.05-.32.44-.46.69-.26l1.72 1.34 2.26-3.8.45-2.85c.01-.07.05-.15.1-.21l4.28-5.11.35.27c.11.1.28.12.42.06l.09-.04ZM605.75 147.83l-.18.21-.26-.07a.45.45 0 0 1-.26-.21l-.14-.26.19-.22.65.55Z"/><path d="m605.57 148.04-3.52 4.16c-.05.07-.13.12-.22.14l-1.6.4-.93 2.62c-.03.06-.07.12-.12.17l-2.88 2.71-2.91 4.26c-.09.14-.27.21-.44.17l-3.93-.88.15 3.09c.02.18-.09.34-.25.41l-3.13 1.34-2.59 2.6-1.07 4.72a.42.42 0 0 1-.42.33h-4.1l-1.7 1.87c-.15.15-.37.19-.55.09l-2.2-1.34-2.69 4.13c-.14.2-.42.25-.61.11l-5.03-3.62-.43 2.61c-.02.1-.06.18-.13.25l-7.49 6.58-.33 1.52c-.02.08-.07.16-.13.22l-4.76 4.23 21.08-2.29.02.17-.43.73-21.91 2.38h-.02l-.05-.85h-.15l5.54-4.92.34-1.51c.02-.08.07-.17.14-.23l7.46-6.56.49-2.94.16.16.6-.59-.04-.05 5.21 3.76 2.68-4.1c.12-.2.37-.25.57-.14l2.26 1.37 1.59-1.75c.08-.09.2-.14.32-.14h3.95l1.02-4.51c.02-.07.06-.15.12-.21l2.74-2.73s.08-.08.13-.1l2.92-1.26-.16-3.35c-.01-.28.25-.5.52-.44l4.19.94 2.76-4.05s.04-.05.07-.07l2.84-2.67.98-2.74c.04-.13.16-.24.29-.27l1.7-.43 3.42-4.04.14.26c.06.1.15.18.26.21l.26.07ZM604.81 324.08c0 .13-.04.25-.13.33l-1.97 1.84-1.1 5.29.84 1.81c.08.18.04.39-.11.51l-4.27 3.62c-.08.07-.19.11-.31.1l-5.42-.39a.427.427 0 0 1-.37-.58l.65-1.68c.02-.07.06-.12.12-.18l.95-.79-2.48-.8a.42.42 0 0 1-.18-.7l2.31-2.31-.19-1.53-5.1-.61a.405.405 0 0 1-.34-.25l-3.19-7.61-5.03 2.27a.417.417 0 0 1-.58-.27l-1.17-4.14a.42.42 0 0 1 .46-.53l3 .33-.1-3.14-5.44 1.19a.418.418 0 0 1-.45-.19l-2.46-4.01a.428.428 0 0 1-.06-.22v-2.59c0-.14.07-.28.19-.36l2.75-1.79-.41-3.84-1.66 1.04.11 1.29c.03.36-.36.59-.66.41l-2.84-1.82a.427.427 0 0 1-.2-.37l.13-4.4s0-.01.01-.03l.88-8.64-2.28-3.42-2.38 1.24a.427.427 0 0 1-.61-.28l-.99-3.93-2.92-1.47a.422.422 0 0 1-.24-.35l-.11-1.48-4.18-.72a.42.42 0 0 1-.35-.3l-.58-2.11-2.67-.89-5.25 4.12s-.07.05-.12.07l-7.89 2.72a.432.432 0 0 1-.49-.17l-4-5.95c-.18-.25-.04-.6.27-.66l1.41-.26-1.2-1.67-1.46 2.08a.43.43 0 0 1-.57.13l-2.33-1.35-4.78.37c-.37.03-.6-.4-.38-.69l1.33-1.69-2.33-.2-2.73 1.33 1.9.14c.23.02.41.2.41.43v1.29c0 .21-.17.39-.37.42l-5.94.91a.434.434 0 0 1-.49-.5l.57-3.23-3.36 2.85c-.05.04-.1.07-.15.08l-.25-.81-.34.1-.86-8.56c-.03-.24.15-.46.39-.48l27.33-1.78.06.46s.02.09.04.13l.13.26-27.06 1.76.78 7.67 3.64-3.1c.3-.26.77.01.69.4l-.66 3.81 4.98-.76v-.52l-3.08-.23c-.44-.05-.54-.62-.16-.81l4.26-2.07c.07-.04.14-.05.23-.05l3.23.26c.34.03.51.42.3.69l-1.22 1.56 3.95-.31c.09-.01.17.02.25.06l2.11 1.22 1.59-2.27c.17-.23.53-.24.69 0l1.95 2.72c.17.25.03.61-.27.66l-1.44.28 3.47 5.13 7.51-2.59 5.37-4.21c.11-.09.26-.12.39-.08l3.1 1.04c.14.04.25.16.28.29l.58 2.06 4.25.74c.2.03.34.19.36.39l.11 1.57 2.88 1.43c.11.06.2.16.22.29l.91 3.61 2.23-1.18c.2-.1.43-.04.56.14l2.58 3.88c.05.09.08.19.07.28l-.9 8.77-.13 4.14 1.91 1.21-.05-.68c-.01-.16.06-.32.2-.4l2.45-1.55c.27-.17.62 0 .65.31l.52 4.79a.4.4 0 0 1-.2.39l-2.77 1.82v2.23l2.23 3.65 5.65-1.23c.26-.06.51.13.52.4l.13 4.14c.01.26-.22.47-.47.44l-2.87-.32.86 3.05 4.98-2.25c.22-.1.48 0 .57.22l3.26 7.79 5.18.61c.2.03.36.18.37.37l.27 2.07a.44.44 0 0 1-.13.36l-1.96 1.96 2.57.82c.32.1.4.51.14.73l-1.46 1.22-.4 1.04 4.68.34 3.88-3.3-.77-1.64c-.03-.09-.05-.18-.03-.27l1.16-5.56c.02-.09.07-.16.13-.22l1.93-1.81-.26-5.93-1.51-3.54-.01-.03-1.54-4.51-2.97-6.42-6.7-11.74c-.16-.28.02-.63.34-.64l1.47-.09-4.61-5.41a.433.433 0 0 1 .06-.62l.9-.7-5.04-11.72s-.02-.06-.02-.1l-1.24-6.9.34.02c.26.02.45-.2.45-.43l1.28 7.12 5.15 11.98c.07.17.02.38-.14.5l-.81.63 4.89 5.73c.23.28.05.69-.3.71l-1.64.09 6.37 11.16.03.03 2.97 6.47.02.04 1.54 4.5 1.54 3.61c.02.05.04.1.04.15l.25 6.2Z"/><path d="M588.28 246.74c.1.14.1.34 0 .48l-2.38 3.27-.07 2.41c0 .14-.08.27-.19.34l-2.15 1.44-.25 4.7s0 .06-.01.08l-.87 3.32 1.22 2.18s.04.09.04.13l-.84.15.06.33-5.02-.22-1.58 4.48a.43.43 0 0 1-.76.09l-1.16-1.73-30.39 1.15a.42.42 0 0 1-.4-.24l-1.29-2.58.28-.02-.05-.86-.46.03-1.23-8.97c-.01-.06 0-.11 0-.16l2.03-8.63-4.3-7.47s-.04-.09-.05-.13l-5.6-25.62.35-.02-.04-.85 10.01-1.16-.11.09c-.34.25-.13.81.31.76l-9.67 1.11 5.56 25.45 4.37 7.57c.06.09.07.2.05.31l-2.06 8.71 1.27 9.28 1.27 2.54 30.36-1.15c.15-.01.28.06.37.19l.82 1.22 1.4-3.97c.06-.18.23-.3.42-.29l4.92.23-.92-1.66a.395.395 0 0 1-.04-.32l.89-3.45.26-4.86a.41.41 0 0 1 .19-.33l2.14-1.43.06-2.32c0-.08.04-.17.09-.24l2.28-3.14-.6-.9-3.75.51a.442.442 0 0 1-.49-.43v-4.63l.09.13v.02l.75.93v3.07l3.55-.48c.16-.02.32.05.41.18l.91 1.38ZM588.13 144.92l.04.4-.84.13-.05-.45.85-.08z"/><path d="M583.61 265.09v.07c0 .23-.18.45-.44.43l-.34-.02-.06-.33.84-.15ZM583.33 241.14l.16.2-.08.06h-.85v.11l-3.18-4.5-21.64-22a.445.445 0 0 1-.08-.5l1.32-2.53.8-.08c.05-.01.1-.03.15-.06l.12-.06-1.48 2.85 21.43 21.8s.04.04.05.06l3.28 4.65Z"/><path d="M583.41 241.4v1.19l-.75-.93v-.02l-.09-.13v-.11h.85ZM579.58 114.48l.03.2-.12.15-.66-.56.03-.04.07-.04c.26-.17.59-.02.65.29ZM577.02 144.65c.03.19-.08.38-.26.45l-.51.21-.08-.54.85-.12Z"/><path d="m577.02 144.64-.85.13.08.54-1.54.64-3.86 7.45c-.06.12-.17.2-.31.23l-1.98.32-.77 4.27a.46.46 0 0 1-.37.35l-2.5.32-.33 3.05a.42.42 0 0 1-.12.25l-1.54 1.53-.17 2.04c0 .05-.01.09-.03.13l-.78-.32-.23.55-2.69-.15c-.09 0-.17-.04-.24-.09l-3.63-2.67-2.06.9c-.07.03-.14.04-.22.03l-5.02-.55a.845.845 0 0 1-.17-.05l-2.23-1.25-9.48-2.06.07-.46s.01-.08.01-.12l-.04-.31 9.68 2.13c.05 0 .09.03.12.04l2.21 1.24 4.82.53 2.19-.96c.14-.06.3-.05.42.04l3.74 2.76 2.75.16.15-1.78c.01-.1.05-.19.12-.27l1.54-1.54.35-3.23c.02-.19.17-.35.37-.38l2.52-.32.77-4.27c.03-.17.17-.31.35-.34l2.07-.33 3.83-7.39c.05-.09.13-.16.22-.2l1.88-.79-3.74-25.44h-1.96l-9.13 5.7c-.09.04-.2.07-.31.04l-1.78-.33-3.03 1.56-3.26 2.54c-.08.06-.2.09-.31.08l-2.37-.27a.43.43 0 0 1-.18-.79l1.86-1.18-3.86-.86h.08c.15-.03.28-.12.34-.25l.23-.48 4.41.98c.37.08.45.57.14.77l-1.72 1.1 1 .11 3.15-2.45s.05-.03.06-.04l3.2-1.65c.09-.04.19-.05.28-.04l1.75.34 9.1-5.67a.34.34 0 0 1 .22-.07h2.35l-.11.07.46.72.23-.15 3.8 25.86ZM573.39 189.24l-.11.18-.18.03h-.02l-.85.09.43-.73.73.43Z"/><path d="m573.28 189.42-2 3.39c-.02.06-.06.1-.1.13l-2.46 1.83-.87 1.35c-.03.05-.06.08-.1.12l-6 4.45-8.2 6.78c-.05.03-.09.05-.13.07l-4.39 1.59-4.29 3.38 14.59-1.43.02.19-.37.71-15.61 1.53-.09-.86h-.11l5.38-4.23a.4.4 0 0 1 .13-.07l4.38-1.59 8.15-6.74s.01-.01.02-.01l5.94-4.42.87-1.35s.06-.08.1-.11l2.45-1.82 1.64-2.77.85-.09h.02l.18-.03ZM573.18 118.5l.04.28-.23.15-.46-.72.11-.07h.12c.21 0 .39.16.42.36ZM564.79 174.43l.04.05-.6.59-.16-.16.04-.21c.05-.31.42-.46.67-.27h.01Z"/><path d="m561.84 171.39 2.94 3.04a.424.424 0 0 0-.67.27l-.04.21-2.95-3.03a.503.503 0 0 1-.12-.28l-.19-3.2c0-.06 0-.13.04-.19l.87-2.09.59.03c.18.02.34-.09.41-.24l-1.05 2.54.17 2.94Z"/><path d="M562.73 165.89v.02c-.08.15-.24.26-.42.24l-.59-.03.23-.55.78.32ZM560.11 211.66l-.06.12-.12.06c-.05.03-.1.05-.15.06l-.8.08.37-.71.76.39ZM554.34 110.69c.02.08.02.17-.01.25l-1 2.84a.44.44 0 0 1-.4.29h-1.29l-1.22 6.95-.03.1-1.69 3.64-.53-.12-.09.85h-.05l-15.92 1.89-.05-.4v-.45l15.74-1.87 1.79-3.85 1.27-7.24a.42.42 0 0 1 .42-.36h1.34l.86-2.42-1.06-3.9s0-.02-.01-.02l-1.17-5.89-2.91-5.64-1.73-.52-2.48 1.71c-.09.06-.2.09-.32.07l-1.01-.18.14 1.64a.43.43 0 0 1-.13.35l-2.92 2.83c-.12.12-.31.15-.47.09l-2.74-1.2a.42.42 0 0 1-.24-.49l.91-3.65c.04-.14.13-.25.25-.29l2.53-1.02 1.13-5.88-2.08-6.85a.43.43 0 0 1 .31-.53l.88-.22-2.39-3.62-3.55-.35s-.05 0-.09-.02l-3.93-1.28s-.08-.03-.12-.06l-2.76-2.09-2.52 1.91.74 2.64c.05.19-.02.38-.18.48l-3.15 2.04.42 2.75c.01.05 0 .1-.01.16l-.64 2.74a.43.43 0 0 1-.42.33h-1.64c-.24 0-.44-.2-.43-.44l.07-3.78-2.96 3.69s-.04.04-.06.07l-3.56 3.03.5 3.62s.01.1 0 .15l-1.36 5.59.53 4.59 3.88 5.75c.05.08.07.19.07.29l-1.28 12.78c-.01.1-.05.18-.11.24l-3.86 4.48-1.03.08c-.06 0-.11.03-.17.05l-.05.03 4.38-5.09 1.25-12.51-3.84-5.72a.341.341 0 0 1-.07-.19l-.56-4.75c0-.05 0-.1.01-.15l1.36-5.58-.54-3.76a.41.41 0 0 1 .15-.39l3.71-3.17 3.72-4.63c.26-.32.77-.13.76.28l-.08 4.59h.88l.54-2.33-.44-2.94c-.03-.17.04-.33.18-.42l3.12-2.03-.73-2.61c-.05-.18 0-.35.15-.46l1.27-.96 1.75-1.33c.06-.05.15-.08.23-.08.1 0 .2.02.28.08l2.96 2.25 3.82 1.23 3.69.37c.13 0 .25.08.32.19l2.83 4.29c.17.25.03.58-.25.65l-1.03.26 1.97 6.51c.03.07.03.14.02.21l-1.19 6.22c-.03.14-.13.26-.26.31l-2.55 1.01-.77 3.1 2.15.92 2.58-2.48-.17-1.99a.42.42 0 0 1 .5-.46l1.38.24 2.51-1.73c.11-.08.24-.09.36-.06l2.11.64c.11.04.2.11.25.21l3.02 5.85.03.12 1.19 5.92 1.09 4.01ZM550.25 191.07l.05.85h-.03c-.38 0-.58-.47-.28-.74l.11-.1h.15Z"/><path d="m550.27 191.92-46.38 3.18.81 1.05c.2.27.03.66-.31.69l-14.29 1.14.07-.33-.84-.16.26-2.16a.42.42 0 0 1 .4-.38l2.79-.12 1.13-1.34-.88-2.08.13.07c.2.12.47.05.58-.16l.1-.18.95 2.26c.07.15.05.32-.06.44l-1.42 1.68c-.07.09-.19.15-.31.16l-2.61.11-.15 1.31 13.3-1.06-.81-1.05c-.22-.27-.03-.67.31-.69l47.06-3.22-.11.1c-.3.27-.1.74.28.74ZM548.7 124.76l-.23.48c-.06.13-.19.22-.34.24h-.05l.09-.84.53.12ZM543.28 212.65l.09.86c-.44.05-.65-.51-.31-.76l.11-.09h.11ZM542.46 265.64l.05.86-.28.02-.13-.26s-.03-.08-.04-.13l-.06-.46.46-.03ZM536.02 159.34l.04.31s0 .09-.01.12l-.07.46-.44-.1.19-.85.29.06Z"/><path d="m532.11 127.38 3.91 31.96-.29-.06-.19.85.44.1-.57 3.55c-.02.13-.09.24-.2.3l-4.99 2.99-.23 2.5c0 .09-.05.17-.1.24l-5.05 5.81a.42.42 0 0 1-.56.08l-3.05-2.04-1.36 3.39a.4.4 0 0 1-.35.27l-3.53.38-1.73.99c-.1.05-.22.07-.33.03l-3.63-1-2.76.7-.45 1.56c-.05.18-.21.3-.39.31l-2.28.12.09-.3.14-.57 1.71-.08.43-1.52c.04-.14.16-.26.3-.29l3.11-.79c.07-.01.15-.01.21 0l3.58.99 1.66-.95s.1-.05.16-.05l3.36-.36 1.46-3.64c.1-.25.41-.35.64-.2l3.17 2.12 4.7-5.42.25-2.59c.01-.14.09-.25.2-.33l5.01-2.99.6-3.75-4-32.64v-.88l-20.51 1.64-2.63 1.5c-.12.06-.27.07-.39.01l-1.93-.86-.05-.72a.48.48 0 0 0-.05-.17l-.07-.13 2.26 1.01 2.47-1.41-.06.07.64.55.67-.78 20.05-1.6c.24-.02.46.18.46.42v.82l-.48.06.1.84.43-.05ZM535.29 69.85c.5.07.49.8-.02.85l-9.59.62-.21 2.35c-.01.12-.07.22-.15.29-.17.13-.44.14-.61-.05l-1.85-2.1-5.03-1.47-6.81 3.22-2.13 5.4c-.16.41-.75.33-.82-.09l-.56-3.7-3.11 1.5-2.74 4.48-.88 5.27c0-.06-.02-.13-.05-.19l-.59-1.16.69-4.14s.03-.11.06-.15l2.84-4.66c.05-.07.11-.12.18-.16l3.75-1.81c.26-.12.57.04.61.32l.41 2.7 1.61-4.08c.04-.1.12-.19.22-.23l7.1-3.36c.1-.05.21-.05.31-.03l5.3 1.55c.08.03.14.07.2.13l1.28 1.46.16-1.74c.03-.2.2-.37.4-.38l7.08-.46-5.38-5.37-3.78.73c-.09.02-.16.01-.24-.02l-1.68-.64a.434.434 0 0 1-.27-.42l.11-3.05-7.42 1.79-5.19 2.72-.35 1.99c-.05.27-.33.42-.59.32l-3.66-1.51-3.66.12c-.07 0-.14-.01-.2-.05l-6.95-3.59-1.86 1.96c-.25.27-.71.11-.73-.28l-.26-5.16c-.01-.15.07-.29.19-.38l5.64-3.8-.69-1.45-8.17 4.56v2.34c0 .17-.1.33-.26.4l-10.33 4.07-1.18 2.26-.27-.22a.446.446 0 0 0-.3-.09h-.24l1.31-2.49c.05-.09.13-.16.23-.2l10.19-4.02v-2.3c0-.15.09-.3.22-.37l8.79-4.91c.07-.04.14-.06.22-.06.16.01.31.1.37.25l1.04 2.2c.08.19.02.41-.15.53l-5.74 3.87.19 3.93 1.39-1.47c.12-.14.33-.17.5-.08l7.14 3.69 3.64-.12c.06 0 .11.01.17.03l3.26 1.35.29-1.67c.03-.14.1-.25.23-.31l5.42-2.85.1-.03 8.01-1.94c.28-.06.55.15.53.43l-.12 3.31 1.29.5 3.88-.76c.15-.02.29.02.39.12l5.71 5.72 2.17.24ZM533.16 213.82l.04.85-.35.02-.08-.35c-.06-.25.11-.48.35-.52h.04Z"/><path d="m504.36 215.37 28.76-1.55c-.24.04-.41.27-.35.52l.08.35-27.86 1.5.93 2.15c.01.06.03.12.03.18l-1.29 39.02.87 18.91 2.44-.86 1-9.18c.05-.48.73-.53.84-.06l2.59 9.95a.49.49 0 0 1-.13.43l-1.14 1.02 4.01-1.26.04.36c.02.28.3.44.55.35s-6.2 1.94-6.2 1.94c-.44.14-.76-.42-.42-.73l2.4-2.15-1.94-7.44-.78 7.12c-.02.16-.13.3-.28.36l-3.24 1.16c-.05.02-.08.03-.13.03l-.02-.86h-.43l-.89-19.07v-.03l1.29-38.93-1.02-2.37h.29v-.86ZM532.06 126.98l.05.4-.43.05-.1-.84.48-.06v.45z"/><path d="m515.48 276.39.25.81a.407.407 0 0 1-.55-.35l-.04-.36.34-.1ZM511.55 126.89l-.67.78-.64-.55.06-.07.05-.03c.06-.02.11-.05.17-.05l1.03-.08ZM508.53 164.84s0 .1-.02.15l-1.93 6.58-1.93 7.97-.58.03.05.86.3-.02-1.59 5.65c-.02.06-.05.11-.08.16l-2.33 2.72c-.1.11-.25.16-.39.14l-4.62-.73-1.57 2.79-.08-.19-.78.33.05.13-3.49-2a.416.416 0 0 1-.21-.29l-1.27-6.71-7.91-7.53a.427.427 0 0 1-.08-.51l1.61-2.98-.58-3.5-4.44-1.98s-.1-.05-.13-.09l-7.89-8.15a.372.372 0 0 1-.12-.25l-.75-7.72.11.11c.22.2.57.12.68-.14l.05-.11.75 7.63 7.71 7.98 4.59 2.02c.13.06.22.19.25.33l.64 3.88c.02.09 0 .18-.04.27l-1.53 2.82 7.77 7.4c.07.05.11.14.13.22l1.25 6.66 3.08 1.76 1.6-2.86c.09-.15.26-.24.44-.21l4.68.73 2.1-2.46 1.66-5.84 2.06-8.53h.01l1.91-6.53-2.83-36.92-4.35-8.09h.26c.2 0 .38-.17.41-.36l.02-.14 4.39 8.13-.14-.06-.16.82v-.85l-.1.85.57.26 2.79 36.37Z"/><path d="m501.11 119.18-.75.41.12.23-25.96.86-.6-.68v-.15l26.46-.88.44-2.55-2.3-10a.375.375 0 0 1 0-.21l3.08-10.42v-1.61s.01-.1.04-.16l4.24-10.66.04-1.02-3.39 5.85s-.04.06-.07.09l-4.2 4.33-1.65 3.81c-.15.35-.66.34-.8-.02l-.51-1.42a.425.425 0 0 1 .03-.38l2.19-3.6 2.35-4.57-.02-.03.08-.04.84.14s-.02.08-.04.12l-2.42 4.71 3.51-3.61 4.24-7.33c.21-.38.81-.21.79.24l-.13 2.84s-.01.1-.03.14l-4.24 10.65V95.98l-3.07 10.36 2.3 9.98s.02.11.01.17l-.5 2.83-.07-.14Zm-4.86-24.09.53-1.23-.61 1.02.08.21ZM505.69 127.75l.05.72-.57-.26.1-.85v.85l.16-.82.14.06.07.13c.03.05.04.11.05.17ZM505.12 276.63l.02.86h-.01c-.21 0-.41-.18-.42-.41l-.02-.44h.43Z"/><path d="m505.13 277.49-7.77.12-3.52 1.89c-.11.06-.24.07-.35.02l.29-.8-.05-.02.05-.14 3.27-1.76c.06-.02.12-.04.19-.04l7.45-.12.02.44c.01.23.21.41.42.41ZM504.65 179.54l-.14.56v.01l-.09.3-.3.02-.05-.86.58-.03zM504.36 215.37v.86h-.29l-.11-.26c-.11-.28.08-.59.37-.6h.03Z"/><path d="M484.76 215.37h19.57c-.29.01-.48.32-.37.6l.11.26h-19.62l.13-.24-.76-.4-.03.06.9-3.2s.02-.05.03-.08l3.7-7.15v-2.81l.45-.02-.05-.85-.32.02.83-4.07v.03c-.03.27.19.5.46.48l.31-.02-.83 4.03v3.32c0 .07-.02.13-.05.19l-3.72 7.2-.74 2.65ZM501.11 119.18l.07.14-.02.14c-.03.19-.21.35-.41.35h-.26l-.12-.23.75-.41ZM500.78 86.42v.08l-.85-.14.21-1.29.59 1.16c.03.06.05.13.05.19Z"/><path d="m500.14 85.07-.21 1.29-.08.04-4.73-9.34-11.79-5.71-4.15.25c-.1.01-.21-.02-.29-.09l-4.14-3.39-4.1.25a.427.427 0 0 1-.43-.57l1.06-2.81-1.25-.96-11.05 3.87v-.25l.21-.73 10.78-3.77s.08-.03.12-.03c.1 0 .2.03.28.09l1.68 1.3c.14.11.2.31.14.48l-.93 2.49 3.36-.21-.11.22.76.4.16-.32 3.86 3.17 4.1-.25c.08 0 .15.01.22.04l12.02 5.82c.08.04.15.11.19.19l4.32 8.53ZM498.18 290.88c.34.13.37.6.04.77l-5.1 2.72c-.23.11-.5.01-.6-.23l-1.3-3.35-2.82-1.71.55 3.22c.03.22-.1.43-.33.49l-2.97.71a.424.424 0 0 1-.46-.19l-1.51-2.39-1.08 3.34c-.08.22-.31.34-.53.27l-4.57-1.36a.43.43 0 0 1-.27-.24l-.62-1.33-3.61-.43a.433.433 0 0 1-.33-.62l1.11-2.22-2.99-.45a.448.448 0 0 1-.36-.35l-.56-3.27-5.18.51 2.99 2.93c.27.26.09.71-.27.73l-5.4.18s-.08 0-.12-.01l-7.86-2.01a.653.653 0 0 1-.17-.08l-1.91-1.55a.448.448 0 0 1-.16-.3l-.04-.38-.41 1.46c-.04.15-.15.27-.31.3l-5.7 1.27-.3-.8-.18.07 1.55-4.05V273.65l.87-3.66-1.63-2.5s-.06-.11-.07-.16l-1.09-6.34-3.17-6.43a.406.406 0 0 1-.04-.19l.09-10.88.86.02v-.44l32.97-.3-.08.32c-.02.06-.02.13 0 .18l.07.35-32.96.3-.09 10.36 3.16 6.39s.03.08.04.12l1.08 6.31 1.69 2.57c.06.1.08.22.05.34l-.9 3.78v8.82s-.01.1-.03.15l-1.36 3.56 4.73-1.06.94-3.4c.12-.46.79-.4.84.07l.25 2.48 1.71 1.37 7.71 1.98 4.33-.15-2.94-2.86c-.25-.26-.1-.7.26-.74l6.49-.64c.22-.02.42.13.46.36l.59 3.34 3.26.51c.29.05.45.35.32.61l-1.11 2.2 3.24.39c.15.02.28.11.33.24l.66 1.38 3.98 1.2 1.25-3.81c.11-.35.57-.4.76-.09l1.83 2.9 2.29-.55-.65-3.74c-.06-.36.33-.64.65-.44l3.74 2.26c.08.05.14.12.18.21l1.18 3.04 3.87-2.06-3.61-1.46a.445.445 0 0 1-.25-.27l-1.16-3.95a.43.43 0 0 1 .31-.53l2.44-.57-.08-2.2-1.98 1.64a.41.41 0 0 1-.26.09l-2.78.13a.42.42 0 0 1-.44-.42v-1.74c0-.17.09-.31.23-.39l1.54-.77-1.66-.04-4.58 1.79c-.15.06-.35.02-.46-.12l-1.35-1.46-3.37-1c-.34-.1-.41-.55-.13-.76l3.17-2.26c.06-.04.13-.07.22-.07l4.9-.4c.07 0 .13.01.19.03l4.71 1.71.66 1.05c.04.06.09.11.15.15l-5.73-2.08-4.7.38-2.36 1.68 2.65.79a.4.4 0 0 1 .19.11l1.23 1.35 4.38-1.71c.05-.02.11-.03.16-.03l3.49.07c.45.01.58.6.19.81l-2.87 1.42v1.04l2.19-.1 2.54-2.1c.26-.23.68-.05.7.3l.12 3.43c.01.2-.12.39-.32.43l-2.34.54.98 3.31 4.26 1.74ZM493.76 190.95l.08.19-.1.18c-.11.21-.38.28-.58.16l-.13-.07-.05-.13.78-.33Z"/><path d="m490.56 273.43 3.22 5.13-.05.14-1.12-.4-2.83-4.51a.372.372 0 0 1-.07-.2l-.23-4.48-19.73 1.4c-.32.01-.54-.3-.43-.6l7.45-17.97-1.59-8.32h.36v-.85h-.34l.93-3.71-1.53-5.84c-.02-.1-.01-.21.04-.31l9.15-17.26v.03c-.08.27.12.55.4.55h.26l-8.98 16.94 1.51 5.78c.02.07.02.14 0 .21l-1.01 4.05 1.66 8.69c.02.08.01.17-.02.25l-7.23 17.45 19.47-1.37c.24-.02.45.16.46.41l.25 4.79Z"/><path d="m493.78 278.72-.29.8-.07-.02a.536.536 0 0 1-.15-.15l-.66-1.05 1.12.4.05.02ZM490.17 197.65l-.07.33-.31.02a.431.431 0 0 1-.46-.48v-.03l.84.16ZM488.82 201.54l.05.85-.45.02v-.44s0-.06.01-.09l.07-.32.32-.02Z"/><path d="m488.5 201.56-.07.32s-.01.06-.01.09v.44l-4.33.24c-.22.01-.4-.13-.44-.34l-.96-4.69-46.25 1.02 2.28 36.76 3.37 1.33c.17.06.28.22.27.39l-.12 5.95h-.45c-.23 0-.42.19-.42.42l.13-6.08-3.1-1.21.2-.18-.57-.64-.15.14-2.32-37.27v-.04l.86.02v-.44l46.6-1.03c.21-.01.39.13.43.34l.96 4.68 4.09-.22ZM484.58 215.99l-.13.24h-.26c-.28 0-.48-.28-.41-.55v-.03l.04-.06.76.4ZM480.98 47.46c.37.08.46.59.12.78l-14 8.43-2.57 4.09c-.04.07-.09.13-.16.16l-4.14 2.14-1.04 3.86-.77.27-.18-.05 1.21-4.49c.04-.12.11-.22.22-.27l4.21-2.17 2.55-4.07c.03-.06.07-.11.13-.14l13.18-7.93-4.36-.93-12.06 1.55c-.06.01-.13.01-.18-.02L457.58 47h-3.46a.42.42 0 0 1-.41-.5l.35-2.3-1.06-1.45-1.74 1.41c-.11.08-.25.12-.38.08l-9.76-2.6-4.01-.39c-.07 0-.12-.03-.17-.06l-6.69-3.99-15.5-.12.09-.32c.08-.26-.1-.52-.38-.53h-.03l15.93.12c.08 0 .15.03.22.06l6.71 4 3.95.38h.07l9.58 2.56 1.91-1.56c.2-.15.48-.12.62.08l1.44 1.95c.06.1.1.21.07.33l-.31 1.98h3.03s.09 0 .12.02l5.53 1.67 12.05-1.55c.05 0 .1 0 .14.01l5.49 1.17ZM480.58 128.52c.07.16.03.35-.08.46l-8.29 8.55-.13 3.97s-.01.11-.03.16l-3.44 7.9v-.1l-.86.08.02.16-3.77-3.52-36.11.51-.15-.54-.82.23.03.1-3.17-3.55a.41.41 0 0 1-.11-.26l-.38-7.3-2.56-7.32-.02-.04-1.81-7.1.21.08c.3.12.6-.11.58-.42l1.84 7.22 2.58 7.35.03.12.37 7.21 3.01 3.37 36.64-.52c.11 0 .22.04.29.12l3.57 3.33 3.21-7.38.13-4.06c0-.1.05-.2.12-.28l8.21-8.45-.64-1.48-5.72-6.5c.07.06.17.09.28.09l.91-.03 5.22 5.92s.05.07.06.11l.78 1.81ZM475.53 242.77v.85h-.35l-.07-.35a.543.543 0 0 1 0-.18l.08-.32h.33ZM475.43 67.57l-.16.32-.76-.4.11-.22h.24c.11-.02.22.02.3.08l.27.22Z"/><path d="m473.92 120 .6.68-.91.03c-.11 0-.21-.03-.28-.09l-.05-.05.64-.57ZM473.92 119.85v.15l-.64.57-4.61-3.83a.464.464 0 0 1-.15-.38l.63-5.31-1.19-2.43h.26c.25 0 .45-.22.43-.47v-.08l1.32 2.73c.04.07.06.15.05.23l-.62 5.2 4.35 3.63h.17Z"/><path d="M468.65 108.15c.02.25-.18.47-.43.47h-.26l-.12-.24.77-.38.03.07v.08Z"/><path d="m468.64 108.07-.03-.07-.77.38.12.24-48.69-.14c.23 0 .42-.18.42-.42v-.43l48.07.14-.33-3.46-1.99-.81a.402.402 0 0 1-.25-.37l-.11-1.57-2.77-1.2a.453.453 0 0 1-.17-.13l-3.27-4.28h-1.48a.43.43 0 0 1-.31-.12l-4.96-5.09a.426.426 0 0 1-.1-.44l1.92-5.76-1.53-6.14c-.07-.24.09-.49.34-.53l2.97-.49 2.03-2.51.39-7.31s0-.06.01-.08l.09-.34.18.05.28.81.28-.1-.39 7.15c0 .1-.03.18-.09.25l-2.22 2.74c-.06.08-.15.13-.25.16l-2.69.44 1.46 5.82c.01.08.01.16-.01.24l-1.88 5.62 4.66 4.78h1.51c.13 0 .26.06.34.17l3.33 4.35 2.9 1.25c.14.07.25.21.26.37l.11 1.57 1.97.81c.15.06.25.2.27.36l.38 4.09ZM468.6 149.46v.1l-.04.11c-.11.26-.46.34-.68.14l-.11-.11-.02-.16.85-.08Z"/><path d="m459.19 66.92-.2.73-.01.25-.28.1-.28-.81.77-.27zM445.03 286.51l.3.8h-.06a.415.415 0 0 1-.49-.56l.07-.17.18-.07Z"/><path d="m445.33 287.31-9.97 3.72a.43.43 0 0 1-.58-.4v-4.22l-3.06 1.59 1.35 4.14h1.76c.3 0 .5.31.39.59l-1.17 2.72c-.08.2-.32.3-.53.23l-2.15-.71-8.37 4.3-8.1 4.38-7.08 5.66c-.07.06-.15.09-.23.09l-3.46.24 1.1.35c.19.06.32.26.29.46l-.77 6.08c-.04.24-.25.4-.49.37l-3.17-.42.92 2.57 4.27 12.8c.02.07.03.14.01.22l-.64 3.35c-.06.3-.38.45-.64.29l-5.07-3.04-9.18.13c-.11 0-.22-.04-.3-.12l-5.42-5.17s-.05-.04-.06-.06l-4.14-5.82a.374.374 0 0 1-.07-.16l-1.65-9.15-3.88-3s-.1-.1-.13-.16l-6.57-14.3-6.61-8.52-15.66-4.92-3.88 3.64-3.47 7.18a.42.42 0 0 1-.61.17l-14.48-9.44a.467.467 0 0 1-.18-.23l-4.23-13.88-14.57-17.25.15.02.13-.85-.41-.06.45-2.56c.03-.22.24-.37.46-.35l36.91 3.96 4.88-57.56c0 .22.17.41.39.43l.43.04-4.88 57.6c-.02.24-.23.41-.47.39l-36.96-3.97-.41 2.38 14.61 17.3s.06.1.08.15l4.22 13.81 13.93 9.08 3.28-6.8s.06-.08.1-.12l4.13-3.87c.12-.11.28-.15.42-.1l16.03 5.03c.08.03.15.08.21.15l6.72 8.66s.03.05.05.08l6.55 14.26 3.92 3.04c.08.06.14.15.16.25l1.67 9.21 4.05 5.71 5.27 5.02 9.13-.12c.08-.01.16.02.23.06l4.64 2.78.51-2.65-4.23-12.68-1.16-3.23c-.11-.3.14-.61.46-.57l3.46.46.67-5.29-2.89-.92c-.45-.14-.37-.81.1-.84l5.55-.38 7-5.6s.04-.03.07-.04l8.14-4.4h.01l8.53-4.39c.1-.06.22-.07.33-.03l1.95.65.76-1.76h-1.42c-.19 0-.35-.12-.41-.29l-1.55-4.78a.44.44 0 0 1 .21-.52l4.01-2.06c.28-.15.61.06.61.37v4.3l9.22-3.43-.07.17c-.13.32.16.65.49.57h.06ZM442.24 243.07v.44l-.87-.02c0-.23.19-.42.42-.42h.45ZM438.03 235.38l.57.64-.2.18-.24-.1a.424.424 0 0 1-.27-.38v-.2l.14-.14Z"/><path d="m438.16 236.1.24.1-.96.85c-.15.13-.36.14-.53.04l-6.06-4.04-12.75 2.3c-.19.03-.4-.08-.47-.26l-.69-1.61-4.41-1.04-1 1.55c-.14.21-.44.27-.63.1l-1.65-1.42-7.04 1.38a.44.44 0 0 1-.41-.14l-3.65-4.38-2.02 1.11c-.13.08-.29.08-.42 0l-10.28-6.05-7.82-1.79a.404.404 0 0 1-.33-.43l1.14-25.06-30.18-2.63.04-.43-.86-.07.48-5.68.41.06.43.05-.44 5.22 30.59 2.67c.23.02.4.22.39.45l-1.15 25.1 7.54 1.73s.08.03.12.05l10.13 5.95 2.11-1.17c.18-.1.41-.06.53.1l3.73 4.45 6.98-1.37c.13-.02.27 0 .36.1l1.44 1.23.89-1.4c.1-.15.29-.23.46-.18l4.92 1.16c.13.03.24.12.29.24l.64 1.51 12.59-2.27c.11-.02.23 0 .31.06l5.93 3.96.77-.68v.2c.02.17.12.32.28.38ZM436.56 191.95l-.13 5.84h-.45c-.23 0-.41.18-.42.42l.13-5.85.42.02.04-.85-.46-.02-.72-26.44-3.18-3.72a.44.44 0 0 1-.07-.45l1.88-4.28-4.74-3.9h.13l.03-.85-.59-.02-1.48-5.37.06.07c.08.09.2.15.32.15h.56l1.49 5.35 5.01 4.11c.15.13.2.33.13.5l-1.91 4.34 3.12 3.62c.05.08.1.17.1.27l.73 27.06Z"/><path d="M436.43 197.79v.44l-.87-.02c0-.24.19-.41.42-.41h.45ZM436.15 191.53l-.04.85-.42-.02.01-.4-.01-.45.46.02z"/><path d="M435.69 191.51V192.36l-76.46-3.43.02-.44-.85-.02v-.03l3.65-38.53c0 .23.18.42.41.43h.4l-3.57 37.74 76.4 3.43ZM429.02 151.87l-.03.85h-.13l-.12-.1a.453.453 0 0 1-.15-.21l-.16-.56.59.02Z"/><path d="m428.74 152.62.12.1-66-2.37.04-.39-.85-.09 1.06-12.18-19.57-1.92c.22 0 .4-.16.43-.37l.05-.44 19.59 1.92c.23.02.41.23.38.46l-1.05 12.17 65.49 2.34.16.56c.03.08.08.16.15.21ZM427.74 146.15l.15.54h-.56a.398.398 0 0 1-.32-.14l-.06-.07-.03-.1.82-.23ZM419.69 120.57a.42.42 0 0 1-.58.42l-.21-.08-.05-.21.82-.21.02.07ZM419.69 107.63v.43c0 .24-.19.42-.42.42v-.85h.42Z"/><path d="M419.69 84.3v23.33h-.42v.85h-.03l-1.57-.08 1.7 2.97c.05.08.06.15.06.23l-.13 4.67.39 4.29-.02-.07-.82.21.05.21-9.04-3.51-5.87 1.9c-.08.03-.17.03-.27 0l-9-3h-.02l-8.43-3.24-39.44-2.65.1-.84 39.46 2.64c.05 0 .09 0 .13.03l8.48 3.26 8.86 2.96 5.87-1.92c.1-.03.2-.03.29.01l8.76 3.41-.33-3.62v-.05l.12-4.58-2.02-3.56c-.17-.29.05-.66.39-.63l1.9.1v-23.3l-.5-8.09.38.02c.24.01.45-.18.45-.43l.52 8.46v.03Z"/><path d="M419.17 75.79v.02c0 .25-.21.44-.45.43l-.38-.02-.02-.38.85-.05Z"/><path d="m419.17 75.78-.85.06.02.38-66.98-4.26.05-.4.05-.45 66.82 4.24-1.13-14.88-2.87-14.21v-1.85l-1.16-4.25a.448.448 0 0 1 0-.23l.77-2.89-57.82-3.72.05-.41a.446.446 0 0 0-.34-.47l58.66 3.79v.85h.32l-.79 2.96 1.15 4.2V46.14l2.87 14.18v.06l1.18 15.4Z"/><path d="M414.46 36.23c.28.01.46.27.38.53l-.09.32h-.32v-.85h.03ZM383.99 390.31c.12.09.19.22.18.36-.01.15-.09.28-.21.35l-4.14 2.45-5.13 1.56-3.92 4.81c-.08.1-.19.15-.32.16-.12 0-.23-.05-.31-.13l-3.24-3.36a.442.442 0 0 1-.12-.28l-.25-5.97-1.63-2.74a.414.414 0 0 1-.05-.19l-.14-1.81c0-.16.07-.31.21-.4l3.02-1.81-.13-4.79c0-.16.08-.3.22-.38.13-.08.3-.08.43 0l10.47 6.33c.06.04.11.08.14.14l2.55 3.94 2.38 1.76Zm-4.51 2.39 3.49-2.08-1.93-1.43a.318.318 0 0 1-.11-.12l-2.53-3.92-9.72-5.87.11 4.26c.01.15-.07.29-.2.37l-3.02 1.81.11 1.45 1.63 2.75c.03.06.05.13.06.2l.25 5.91 2.79 2.9 3.7-4.54c.05-.07.13-.12.21-.14l5.16-1.55ZM366.4 370.78c.18.12.24.35.15.54l-.78 1.62a.43.43 0 0 1-.37.25l-4.98.12h-.01c-.17 0-.33-.11-.39-.27l-.97-2.42-3.14-1.42a.4.4 0 0 1-.24-.28.422.422 0 0 1 .07-.36l1.36-1.87c.07-.1.18-.16.31-.17.12-.02.24.03.33.11l1.88 1.77 2.05-.52a.41.41 0 0 1 .34.05l4.39 2.85Zm-1.29 1.56.51-1.05-3.92-2.54-2.09.54c-.14.04-.29 0-.4-.1l-1.7-1.6-.77 1.05 2.81 1.27a.4.4 0 0 1 .23.23l.92 2.31 4.41-.11ZM362.9 149.96l-.04.39h-.4a.446.446 0 0 1-.41-.44v-.04l.85.09ZM359.25 188.49l-.02.44-.44-.02c-.23-.02-.4-.2-.39-.44l.85.02Z"/><path d="M359.23 188.93v.17c-.02.24-.23.44-.47.41l-10.01-.9.04-.43-.86-.08-.03.4-59.79-8.02.06-.42a.442.442 0 0 0-.09-.34l.16-.09 60.17 8.09 9.98.9v-.15h.01c-.01.24.16.42.39.44l.44.02ZM359.14 374.18c.07.1.1.23.07.35s-.1.22-.21.28l-1.68.9c-.06.04-.13.05-.2.05-.1 0-.2-.03-.28-.1l-1.36-1.16a.419.419 0 0 1-.14-.38c.02-.15.11-.27.24-.33l2.14-.97c.18-.08.4-.03.52.14l.9 1.22Zm-.98.11-.4-.55-1.21.55.62.53.99-.53ZM356.81 364.6c.06.16 0 .35-.12.46l-2.14 1.88c-.07.07-.17.11-.28.11h-.01l-8.2-.26c-.16-.01-.3-.1-.37-.23a.438.438 0 0 1 .02-.43l1.36-2.08c.08-.12.24-.17.38-.19l8.98.45c.17.01.32.13.38.29Zm-2.69 1.59 1.22-1.08-7.69-.38-.81 1.23 7.28.23ZM355.77 32.44c.21.05.36.25.34.47l-.05.41-.4-.03.05-.85h.06Z"/><path d="m356.06 33.32-4.6 37.79-.45-.03-.05.85.4.03-1.52 12.13-.85-.1-.05.42-62.1-9.03-1.11 5.99a.42.42 0 0 0-.43-.5l-.34.02 1.11-6.07c.04-.22.26-.38.48-.34l62.5 9.08 1.51-12.11 4.66-38.24L255.2 15.59l.11-.36a.438.438 0 0 0-.3-.54l100.75 17.75h-.05l-.05.85.4.03ZM355.19 370.74c.07.19 0 .39-.17.5l-1.61 1.03a.39.39 0 0 1-.23.07c-.14 0-.27-.06-.35-.19l-1.43-2.13s-.04-.07-.05-.1l-.45-1.36c-.05-.14-.02-.3.09-.42.1-.11.25-.15.4-.13l2.85.58c.14.03.26.14.31.28l.64 1.87Zm-.91-.04-.46-1.32-1.88-.38.2.59 1.16 1.74.98-.63Z"/><path d="m351.46 71.11-.05.45-.05.4-.4-.03.05-.85.45.03zM349.84 84.09l-2.91 25.47-.42-.03-.05.85.37.02-2.81 24.56-.43-.04-.09.85h-.01l-47.75-6.34.06-.41-.85-.14-.06.41-18.92-3.58a.417.417 0 0 1-.34-.5l2.4-11.99.4.09c.24.05.45-.09.52-.32l-2.4 11.96 18.89 3.57 47.73 6.34 5.77-50.45.42.06c.23.03.45-.14.48-.38Z"/><path d="m348.99 83.99.85.1c-.03.24-.25.41-.48.38l-.42-.06.05-.42ZM348.79 188.18l-.04.43-.43-.04-.01-.01-.41-.06.03-.4.86.08zM348.28 194.25l-.04.43-.43-.04a.434.434 0 0 1-.39-.43v-.03l.86.07ZM346.93 109.56l-.1.84-.37-.02.05-.85.42.03zM344.02 134.96l-.05.44c-.03.21-.21.37-.43.37h-.04l.09-.85.43.04ZM342.8 362.56c.03.12.01.24-.06.35-.07.1-.17.17-.3.18l-2.77.4a.472.472 0 0 1-.34-.1l-1.3-1.08-1.99 1.36c-.08.05-.16.08-.25.08-.04 0-.09-.01-.13-.02a.406.406 0 0 1-.27-.27l-.9-2.58-.73-2.69a.422.422 0 0 1 .07-.36c.08-.11.2-.17.33-.18l2.08-.05 1.3-1.53c.09-.11.23-.15.37-.15.14.02.26.1.33.22l1.56 2.87 2.29 1.36c.09.05.16.15.19.26l.52 1.93Zm-.95-.24-.35-1.31-2.24-1.33a.386.386 0 0 1-.15-.16l-1.32-2.42-1.03 1.2a.42.42 0 0 1-.31.15l-1.72.05.57 2.13.71 2.02 1.8-1.23c.16-.11.37-.1.52.02l1.41 1.17 2.11-.29ZM319.57 348.44c.08.09.12.2.11.32l-.39 4.01c-.02.17-.13.31-.3.36l-3.87 1.23c-.05.01-.09.02-.13.02-.11 0-.21-.04-.3-.12l-2.07-1.94a.517.517 0 0 1-.13-.28l-.13-1.94a.44.44 0 0 1 .19-.39l2.33-1.48c.07-.05.15-.08.24-.07l4.14.13c.12 0 .23.06.31.15Zm-1.1 3.97.31-3.28-3.55-.11-2 1.28.1 1.51 1.77 1.66 3.37-1.06ZM309.24 351.54c.1.12.13.28.07.43l-.77 2.07c-.04.09-.1.17-.19.22l-2 1.15c-.07.04-.14.06-.22.06-.04 0-.08 0-.12-.02a.45.45 0 0 1-.26-.21l-.46-.9a.445.445 0 0 1 .06-.47l2.58-3.1a.422.422 0 0 1 .66 0l.65.77Zm-.81.36-.17-.19-2.08 2.49.13.25 1.48-.86.64-1.69ZM305.13 250.78l-.13.85-.15-.02-.11-.13a.395.395 0 0 1-.09-.35l.07-.41.41.06Z"/><path d="m304.74 251.48.11.13-18.19-2.89-1.08 5.03c-.04.23-.26.37-.48.34l-8.27-1.3.13-.84-.43-.06 10.73-71.55.16-.06c.07.07.16.12.27.14l.42.06-10.73 71.54 7.45 1.16 1.08-5.03c.04-.23.26-.37.48-.34l18.33 2.91-.07.41c-.03.13 0 .26.09.35ZM295.8 129.02l-.06.41-.43-.06h-.02l-.4-.08.06-.41.85.14Z"/><path d="m295.74 129.43-7.5 50.2-.16.09a.473.473 0 0 0-.26-.14l-.43-.08 7.5-50.21.4.08h.02l.43.06ZM290.05 383.8c.17.34-.16.71-.52.6l-4.02-1.29c-.1-.03-.18-.1-.23-.19l-4.19-7.1-8.3-10.72-1 2.58c-.06.16-.2.26-.35.28l-4.57.55c-.15.02-.3-.05-.39-.17l-3.79-4.87-7.56-4.5-9.44-2.54c-.06-.02-.12-.04-.17-.08l-6.99-5.98-1.46 5.03c-.04.14-.14.25-.28.3l-10.78 3.47c-.33.11-.64-.2-.54-.53l2.26-8.02-1.76-.69-4.98 4.65-.35 4.04c-.01.11-.08.23-.18.31l-10.04 7.3c-.05.04-.1.05-.15.07l-18.28 5.11s-.08.03-.13.02l-4.2-.18c-.39-.01-.55-.49-.27-.74l3.84-3.47s.08-.07.13-.09l12.15-4.9 5.23-5.82-4.29 1.47c-.17.07-.37.01-.48-.14l-3.68-4.92-4.51.7c-.3.04-.55-.24-.47-.53l1.56-6.27-4.65-2.57a.436.436 0 0 1-.19-.53l1.77-4.76-2.85-5.69c-.1-.2-.02-.45.18-.55l6.21-3.48c.17-.1.38-.06.51.07l2.99 2.99.87-2.64c.04-.13.15-.24.29-.27l7.76-2.12.47-5.84-3.79 1.1c-.1.03-.23.03-.33-.03l-6.39-3.48a.412.412 0 0 1-.23-.35l-.17-3.76-1.61-3.39c-.12-.25.02-.54.29-.6l10.24-2.2c.22-.05.45.09.51.32l1.03 4.12 2.9.55-.91-3.45-1.76-2.12a.478.478 0 0 1-.1-.28v-4.09l-2.32-4.48a.41.41 0 0 1 .28-.61l5.59-1.27 6.33-4.16c.05-.03.1-.06.16-.06l12.61-2.38s.04 0 .06-.01c.11 0 .22.04.3.12l4.74 4.37 5.4 3.78 12 3.44s.02.02.04.02l4.93 2.02c.18.07.28.23.27.42l-3.45 50.84 6.08 1.91c.08.02.15.08.2.15l3.83 5.04 5.18-2.07c.16-.07.35-.02.47.1L285.22 374s.06.07.07.11l4.76 9.69Zm-1.21-.52-4.28-8.74-12.37-13.08-5.21 2.09c-.18.06-.38.01-.5-.15l-3.94-5.18-6.27-1.97c-.18-.07-.31-.24-.29-.44l3.45-50.87-4.63-1.89-12.05-3.46s-.08-.03-.12-.06l-5.48-3.84s-.04-.02-.05-.04l-4.59-4.24-12.32 2.32-6.32 4.16c-.05.03-.09.05-.14.06l-5.13 1.16 2.11 4.08s.06.12.06.19v4.05l1.73 2.07s.07.11.08.17l1.1 4.2c.08.31-.19.59-.49.53l-3.84-.73a.433.433 0 0 1-.34-.31l-1-3.99-9.3 1.99 1.42 2.99s.03.11.04.16l.17 3.6 6.03 3.27 4.22-1.23c.28-.09.57.15.54.45l-.55 6.75c-.01.19-.13.34-.31.38l-7.82 2.14-1.03 3.07c-.09.3-.47.4-.7.17l-3.25-3.24-5.58 3.11 2.75 5.48c.05.11.06.23.02.34l-1.7 4.6 4.61 2.56c.17.09.25.28.21.48l-1.49 5.95 4.11-.63c.16-.03.32.04.41.16l3.66 4.88 5.54-1.91c.42-.14.76.36.46.68l-6.4 7.13a.27.27 0 0 1-.15.11l-12.18 4.91-3.01 2.73 3.1.13 18.14-5.08 9.83-7.15.35-4.01c0-.1.06-.2.14-.28l5.29-4.93a.42.42 0 0 1 .45-.09l2.37.92c.21.07.33.3.27.51l-2.16 7.64 9.8-3.16 1.59-5.44c.08-.3.45-.42.68-.21l7.43 6.33 9.41 2.54s.06.02.1.05l7.67 4.56s.1.07.13.11l3.69 4.74 4.08-.49 1.18-3.05c.12-.31.53-.37.73-.1l8.78 11.33s.02.02.03.04l4.12 6.98 2.91.94Z"/><path d="M288.08 179.72c.07.09.11.21.09.34l-.06.42-.42-.06a.502.502 0 0 1-.27-.14.466.466 0 0 1-.09-.35l.06-.43.43.08c.1.02.2.07.26.14Z"/><path d="m287.42 180.28-.16.06-51.66-9.29.09-.39-.83-.19 14.62-63.49.84.18-14.52 63.06 51.59 9.28-.06.43c-.02.13.02.26.09.35ZM285.3 80.87c.27 0 .48.23.43.5s-.83-.15-.83-.15l.06-.33.34-.02Z"/><path d="m285.73 81.38-6.78 31.59-.84-.16-.08.41-27.71-6.06.09-.4-.83-.2-.1.42-26.85-5.87c.18 0 .35-.12.41-.3l.13-.44 55.03 12.01 6.58-30.63-2.31.1a.43.43 0 0 1-.34-.13l-1.47-1.59-5.59-.89-7.44-1.04a.505.505 0 0 1-.3-.19l-4.7-7.32s-.05-.09-.05-.15l-2.12-11.07-2.51 1.19a.429.429 0 0 1-.61-.45l.92-5.75s.02-.06.04-.1l2.42-5.49-1.01-4.51-1.02-2.32s-.03-.05-.03-.08l-1.29-5.8-6.22-9.99a.415.415 0 0 1-.05-.36l3.26-10.4-7.26-1.92.12-.38a.43.43 0 0 0-.29-.55l8.04 2.12-.14.85.37.06-3.23 10.3 6.17 9.88s.04.09.05.13l1.29 5.84 1.04 2.31s0 .05.02.08l1.04 4.7c.02.08.01.18-.02.26l-2.46 5.57-.78 4.88 2.27-1.08c.25-.12.55.02.6.3l2.2 11.54 4.56 7.07 7.24 1.03 5.75.91c.09.02.18.06.24.13l1.43 1.55 2.34-.1-.06.33.83.16ZM284.33 386.68a.43.43 0 0 1-.33.5l-1.29.29c-.14.02-.3-.03-.4-.14l-1.36-1.55-1.83-1.92s-.06-.07-.08-.11l-1.15-2.61a.732.732 0 0 1-.03-.22l.18-1.91c.03-.22.2-.38.42-.39.08 0 .17.03.24.07l1.61 1.03-1.17-.95c-.21-.17-.2-.5 0-.66l1.31-1.04c.06-.06.15-.09.23-.09.13-.01.26.04.34.14l1.88 2.07c.12.14.14.35.04.51l-.64 1.03c-.13.22-.44.27-.64.1l-.05-.04.57 1.79 1.59 1.81c.05.05.08.11.1.19l.46 2.1Zm-.93-.24-.34-1.58-1.58-1.78s-.07-.1-.08-.15l-.59-1.87-1.98-1.27-.11 1.1 1.07 2.44 1.77 1.87h.02l1.2 1.37.62-.13Zm-1.35-6.92-1.39-1.53-.56.45 1.73 1.43.22-.35ZM279.93 375.79a.43.43 0 0 1-.37.62l-.72.03.22.21c.17.16.18.43.02.61l-.88.9c-.06.06-.15.1-.24.12l-1.61.26c-.27.04-.51-.17-.49-.43l.09-2.66c.01-.2.15-.36.35-.4l2.65-.48s.05-.02.08-.02c.16.01.31.09.38.23l.52 1.01Zm-1.07-.21-.07-.12-.86.16.93-.04Zm-1.17 1.87.47-.48-.65-.62a.414.414 0 0 1 .07-.67l-.79.14-.06 1.79.96-.16Z"/><path d="M278.95 112.97v.02a.44.44 0 0 1-.52.32l-.4-.09.08-.41.84.16ZM277.11 371.01c.14.13.18.34.1.51l-.9 1.75-.39 1.54a.43.43 0 0 1-.61.28l-.37-.18a.457.457 0 0 1-.23-.31l-1-5.57a.42.42 0 0 1 .39-.5c.11-.01.22.02.32.1l2.69 2.38Zm-1.58 1.91.76-1.5-1.52-1.34.6 3.39.13-.47s.02-.06.03-.08ZM276.96 251.95l-.13.84a.413.413 0 0 1-.36-.48l.06-.42.43.06Z"/><path d="m276.83 252.79-22.36-3.36a.442.442 0 0 1-.15-.05l-39.68-22.74c-.2-.13-.28-.39-.15-.6l1.57-2.52.69.07.09-.85h-.06l3.05-.44-2.01-5.31a.415.415 0 0 1 0-.31l2.46-6.21s.03-.08.05-.11l5.43-6.92-2.76-8.64.03.04.72-.47.18.09-.08.17 2.78 8.76c.05.13.02.28-.06.39l-5.53 7.07-2.37 5.98 2.14 5.66c.1.26-.07.54-.33.58l-3.42.49-1.61 2.55 39.22 22.49 21.86 3.29-.06.42c-.04.23.12.45.36.48ZM275.52 379.1c.04.41-.49.64-.75.31l-1.83-2.14-2.06-1.28a.439.439 0 0 1-.11-.62l1.14-1.55a.4.4 0 0 1 .33-.18h.08l1.47.24c.11 0 .22.09.29.19l1.05 1.69s.06.12.06.18l.33 3.16Zm-1-1.28-.16-1.69-.91-1.44-1-.16-.72.97 1.72 1.09s.06.05.09.08l.98 1.15ZM273.53 370.1c.13.08.22.23.2.4l-.18 2.14c-.01.19-.15.34-.32.38l-1.46.36a.394.394 0 0 1-.44-.15l-1.83-2.32a.422.422 0 0 1-.01-.53l1.2-1.55c.07-.1.19-.16.31-.17.09-.01.17.02.24.06l2.29 1.38Zm-.81 2.17.13-1.58-1.72-1.04-.75.99 1.45 1.85.89-.22ZM255.01 14.69c.23.07.37.31.3.54l-.11.36-.37-.06.14-.85h.04ZM250.41 106.76l-.09.4-.84-.18.1-.42.83.2zM246.93 12.56c.23.07.37.31.29.55l-.12.38-.39-.1.22-.83Z"/><path d="m247.1 13.49-11.63 36.2-.09-.17-.76.4.08.16-18.04-4.74-21.55-.73c-.06 0-.1-.01-.16-.03l-11.26-4.62a.414.414 0 0 1-.26-.39v-4.54l.24.12.38-.76-.84-.42-.28-1.13-6.63-3.41-3.11-1.09a.433.433 0 0 1-.28-.45l.55-5.17c.02-.19.17-.35.35-.38l1.11-.18c.26-.04.5.16.5.42v2.8l1.52-1.99-.31-1.52-1.56-1.57a.414.414 0 0 1-.11-.43l3.11-9.87-.54-3.42v-.1l.55-5.91c.03-.35.46-.52.71-.28l7.68 7.13 8.57 2.19c.22.06.35.27.32.48l-1.49 9.07 2.73-4.55c.09-.15.26-.24.43-.21l1.82.28-.64-4.22s-.01-.06-.01-.11l.55-6-1.08-3.81c-.08-.26.11-.52.38-.54.04 0 .09 0 .13.01l48.75 12.55-.22.83.39.1Zm-12.38 35.72 11.55-35.93-47.58-12.25.9 3.16s.02.1.01.15l-.54 6.04.73 4.75c.05.29-.21.53-.49.49l-2.12-.33-3.73 6.22c-.24.41-.86.17-.78-.29l1.78-10.87-8.3-2.12a.524.524 0 0 1-.18-.1l-7.12-6.62-.47 5 .54 3.45c.02.07.01.13-.01.19l-3.06 9.72 1.48 1.49c.06.06.1.13.11.21l.38 1.85c.02.12 0 .24-.08.34l-2.41 3.14c-.25.32-.76.15-.76-.25v-3.56l-.3.05-.47 4.5 2.81 1s.04.01.06.03l6.83 3.5c.11.06.19.16.22.28l.56 2.21v4.62l10.93 4.48 21.53.73s.06.01.09.02l17.89 4.7Z"/><path d="M239.81 58.2c.11.2.04.44-.15.56l-4.67 2.87-11.82 38.74-.45-.1-.18.82h-.02l-29.7-8.01.12-.4-.81-.25-.13.41-39.15-12.39.14-.05-.3-.8-.27.1v-6.62l-1.82-4.17c-.1-.26.04-.54.31-.59l3.69-.7 8.74-14.39 4.43-12.15s.03-.08.06-.12l5.26-6.53-.02-4.9c0-.23.18-.41.42-.42.07-.01.14 0 .2.04l9.52 4.82.22.85v.21l-9.5-4.8.02 4.35c0 .1-.04.19-.1.27l-5.31 6.59-4.4 12.12s-.03.05-.05.08l-8.86 14.58c-.06.1-.16.18-.28.2l-3.35.64 1.63 3.76s.04.11.04.17v6.7l39.38 12.46 29.69 8.01 11.88-38.93c.03-.1.1-.18.19-.24l4.46-2.75-4.17-8.16.19.05c.22.06.45-.06.52-.27l.06-.17 4.34 8.51ZM235.69 170.66l-.09.39-.4-.07a.426.426 0 0 1-.34-.5s.83.18.83.18Z"/><path d="m235.6 171.05-2.23 10.33c-.08.33-.49.45-.72.21l-2.22-2.22-4.15-.34-2.32 7.32 1.14 5.58c.02.09 0 .19-.04.28l-1.13 2.25-.18-.09-.41-.63.89-1.78-1.13-5.54a.407.407 0 0 1 .01-.22l2.46-7.75c.05-.19.24-.32.44-.3l4.65.39c.1 0 .2.05.26.12l1.78 1.77 2.16-9.95c-.04.24.11.46.34.5l.4.07ZM235.47 49.69l-.06.17c-.07.21-.3.33-.52.27l-.19-.05-.08-.16.76-.4.09.17Z"/><path d="m223.34 193.74.41.63-.72.47-.03-.04-.02-.07c-.03-.1-.03-.22.02-.32l.34-.67ZM223.43 362.11c.26.19.23.58-.05.73l-1.37.73s-.02.01-.03.02l-1.1.45c-.18.07-.38.02-.49-.12l-.65-.77a.442.442 0 0 1 .03-.58l1.51-1.55c.06-.08.16-.12.27-.13.1 0 .2.02.28.08l1.6 1.14Zm-1.8.69.74-.39-.73-.53-1 1.02.2.23.79-.33Z"/><path d="m223.34 193.74-.34.67c-.05.1-.05.22-.02.32l.02.07-41.98-63.68a.44.44 0 0 1-.02-.43l2.43-4.86-1.16-.94c-.13-.12-.18-.3-.13-.46L192 92.84l.4.13h.02l.4.11-9.78 31.32 1.19.99c.16.12.21.34.12.51l-2.48 4.95 41.47 62.89ZM223.17 100.37l-.13.44c-.06.18-.23.3-.41.3l-.09-.02.18-.82.45.1ZM222.37 365.35c.33.12.38.56.09.75l-1.97 1.33-5.03 3.02a.426.426 0 0 1-.65-.35l-.03-1.18-.87-.09a.435.435 0 0 1-.37-.37l-.28-1.92c-.02-.18.08-.37.24-.44l2.38-1.14c.15-.08.34-.05.47.06l.72.64.16-.47-.08-1.19c-.02-.25.17-.45.41-.46.06 0 .11 0 .17.02l4.65 1.79Zm-2.34 1.37 1.27-.86-3.27-1.25.04.61c.01.05 0 .12 0 .17l-.42 1.14a.42.42 0 0 1-.68.18l-.98-.86-1.84.88.19 1.28.9.1c.22.03.37.2.38.42l.03.82 4.39-2.63ZM216.84 222.74l-.09.85-.69-.07.37-.59c.07-.1.18-.17.31-.19h.1Z"/><path d="M216.78 222.73h-.04c-.13.03-.24.1-.31.2l-.37.59-26.32-2.77a.44.44 0 0 1-.38-.43v-1.67l-1.8-.1a.423.423 0 0 1-.37-.58l2.23-5.71-4.23-5.24a.401.401 0 0 1-.09-.36l.66-2.98-6.97-.12a.434.434 0 0 1-.38-.61l1.92-4.09-12.06-9.17-8.59-2.56a.42.42 0 0 1-.27-.25l-1.56-3.61a.761.761 0 0 1-.03-.21l.89-10.81-3.63-4.52s-.05-.08-.07-.12l-4.02-10.86s-.02-.09-.02-.13l-.12-3-2.13-1.3a.437.437 0 0 1-.2-.42l1.42-11.25c0-.07.04-.14.08-.19l1.29-1.81c.13-.18.38-.23.57-.11l1.96 1.21-.54-4.29c-.03-.24.15-.46.4-.48l4.14-.26-3.77-.55-4.15 2.26c-.11.06-.24.07-.35.02l-2.33-.9a.4.4 0 0 1-.2-.16l-1.29-1.94a.437.437 0 0 1 .04-.54l2.51-2.62-4.31-8.74-2.92-.85c-.32-.1-.41-.5-.17-.73l3.25-3 1.51-7.76-3.19-8.68a.422.422 0 0 1 .08-.43l5.34-5.98.64-3.88s.01-.08.03-.12l2.5-5.39-1.35-3.59c-.08-.21.03-.46.25-.55l2.46-.89v.3c0 .18.11.35.29.41l.14.04-2.19.8 1.27 3.35c.03.11.03.22-.02.32l-2.55 5.51-.64 3.95c-.01.08-.05.16-.1.21l-5.26 5.89 3.14 8.55c.02.06.03.15.02.22l-1.55 8.02c-.02.08-.06.17-.13.23l-2.8 2.59 2.37.69c.11.03.21.12.26.23l4.52 9.17c.09.16.05.35-.07.48l-2.47 2.6 1.03 1.54 2.01.78 4.09-2.23c.08-.05.18-.06.27-.05l8.01 1.17c.5.08.47.81-.03.84l-7.82.5.58 4.71c.05.36-.34.61-.64.42l-2.38-1.47-.99 1.39-1.38 10.87 2.1 1.28c.11.08.19.2.2.34l.12 3.17 3.97 10.72 3.7 4.6c.07.09.1.2.09.31l-.9 10.88 1.43 3.34 8.47 2.52c.05.02.1.04.14.07l12.4 9.44c.17.11.22.34.14.51l-1.8 3.81 6.84.12c.27 0 .47.25.41.51l-.73 3.29 4.26 5.27c.1.12.13.28.07.43l-2.11 5.39 1.61.1c.22.01.4.2.4.42v1.68l26.57 2.8ZM214.45 370.15c.09.14.09.31 0 .45l-.55.82c-.06.09-.15.15-.25.18l-1.09.27a.418.418 0 0 1-.47-.18l-.55-.87a.423.423 0 0 1 .2-.62l1.87-.78c.05-.02.09-.02.14-.02.16-.02.31.06.4.2l.31.55Zm-1.17.66.31-.46-1.06.45.1.17.65-.16ZM210.49 373.8c.02.1 0 .21-.05.3l-.59 1.05a.44.44 0 0 1-.35.21l-1.79.09a.444.444 0 0 1-.45-.38l-.08-.82c-.03-.17.06-.33.22-.42l2.28-1.28a.438.438 0 0 1 .63.3l.18.95Zm-.87.01-.04-.23-1.53.86.02.14 1.14-.06.41-.71ZM192.94 92.68l-.12.4-.4-.11h-.02l-.4-.13.13-.41.81.25zM190.71 322.34c.1.31-.16.61-.48.55l-2.84-.51a.395.395 0 0 1-.32-.25l-1.22-2.8-2.53-.84a.432.432 0 0 1-.22-.65l2.19-3.22c.09-.12.21-.2.35-.2.18 0 .34.11.41.27l.93 2.34 1.68.1c.16.02.31.14.36.3l1.69 4.91Zm-1.04-.42-1.36-3.95-1.66-.11a.413.413 0 0 1-.36-.27l-.74-1.83-1.42 2.09 2.17.73c.11.04.21.12.25.24l1.21 2.76 1.91.34ZM190.58 341.19c.1.26-.08.55-.35.58l-3.23.39a.43.43 0 0 1-.45-.28l-1.04-2.71c-.1-.27.09-.55.37-.58l3.23-.26h.03c.18 0 .33.11.4.27l1.04 2.59Zm-1.01-.2-.71-1.78-2.35.19.71 1.87 2.35-.28ZM184.13 369.05l.21 1.35c0 .07-.01.16-.05.23l-.65 1.46c-.09.21-.32.31-.54.23l-2.11-.81a.452.452 0 0 1-.23-.2l-.83-1.56c-.14-.25.02-.58.33-.62l3.38-.44h.03c.22-.03.42.13.46.36Zm-.66 1.35-.13-.81-2.36.31.47.86 1.58.62.44-.98ZM184.05 34.39l-.38.76-.24-.12v-.21l-.22-.85.84.42zM172.73 372.13c.14.19.11.45-.08.6l-2.97 2.36c-.11.09-.26.11-.4.06l-2.15-.8c-.39-.14-.37-.71.04-.81l1.8-.43.39-1v-.8c0-.22.17-.41.38-.43l1.6-.18c.15-.02.3.04.38.16l1.01 1.27Zm-.93.2-.6-.76-.98.11v.52l-.03.15-.51 1.28c-.05.13-.15.23-.3.26l-.64.15.61.23 2.45-1.94ZM172.07 347.97c.08.18.04.38-.11.51l-2.01 1.74c-.15.13-.37.14-.54.01l-2.1-1.64a.423.423 0 0 1 .17-.75l3.75-.83s.03-.01.05-.01h.04c.17 0 .31.1.38.24l.37.73Zm-.92.08-.06-.13-2.54.55 1.11.87 1.49-1.29ZM167.38 372.45c.22.2.17.55-.08.68l-4.07 2.22c-.11.07-.24.08-.36.03l-1.76-.71a.426.426 0 0 1-.01-.79l5.11-2.17c.05-.02.1-.03.15-.03.12-.01.23.03.31.11l.71.66Zm-4.39 2.06 3.38-1.84-.07-.06-3.92 1.66.61.24ZM156.76 373.93c.34.08.44.51.18.74l-.93.78a.4.4 0 0 1-.3.09l-1.12-.06a.427.427 0 0 1-.39-.52l.25-1.14c.04-.19.2-.32.39-.34.04-.01.08 0 .13.01l1.79.44Zm-1.17.76.15-.14-.55-.12-.05.22.45.04Z"/><path d="m152.69 79.6.3.8-.14.05-.14-.04a.43.43 0 0 1-.29-.41v-.3l.27-.1ZM150.18 373.51c.01.21-.13.38-.34.43l-.83.19a.418.418 0 0 1-.52-.39l-.06-1.16c-.02-.24.17-.45.41-.45.04 0 .09 0 .13.02l.87.26c.18.05.3.21.3.39l.04.71ZM145.44 372.21l.43.52h.09l-.4-.52h-.12Zm1.68.64c.21.27.03.66-.31.68l-1.1.07a.393.393 0 0 1-.35-.16l-1.17-1.38c-.23-.29-.04-.7.33-.7h1.26a.4.4 0 0 1 .34.16l1 1.33ZM138.95 367.29c.14.12.19.32.12.49l-.16.39c-.07.16-.23.27-.4.26h-.85a.42.42 0 0 1-.41-.5l.2-1.07c.03-.19.18-.34.37-.35h.04c.1 0 .2.03.28.1l.81.68ZM657.81 112.81v1.01c0 .14-.07.26-.17.34l-10.78 8.13c-.16.12-.38.12-.53-.01l-.92-.72a.427.427 0 0 1 .02-.68l2.6-1.97-8.79 5.59c-.16.11-.38.09-.52-.04l-1.28-1.19a.44.44 0 0 1-.13-.39l.62-3.18-.03-.08.41-1.08.1-.04.34.94s.01-.02.01-.03l.98-1.3-.32-1.36a.468.468 0 0 1 .05-.33l.92-1.4-2.34-10.98s-.01-.05-.01-.08l-.37-10.09-2.44-8.98-.38.43c-.23.24-.63.15-.73-.17l-1.82-6.58s-.02-.09-.02-.13l.09-4.4-2.33-7.5-12.28 3.37-2.59.95-8.62 13.36 1.77.89c.2.1.28.34.2.55l-.67 1.57 1.49 3.48c.07.17.03.37-.11.5l-5.67 4.93c-.05.05-.11.07-.18.09l-5.66 1.37c-.08.02-.16.01-.24 0l-2.89-.97-10.26 2.98v1.82l1.37 1.71s.03.04.04.05l1.19 2.2c.08.16.06.34-.05.47l-7.27 8.82-.03-.2c-.06-.31-.39-.46-.65-.29l-.07.04 7.18-8.69-1.03-1.9-1.44-1.8a.432.432 0 0 1-.09-.26v-2.29c0-.19.13-.36.31-.41l10.69-3.11a.46.46 0 0 1 .26 0l2.89.97 5.45-1.32 5.36-4.67-1.44-3.37a.382.382 0 0 1 0-.33l.58-1.37-1.84-.92c-.22-.1-.31-.4-.17-.61l8.96-13.89a.41.41 0 0 1 .2-.17l2.75-1s.02-.01.03-.02l12.71-3.47.22.82.43-.12 2.34 7.53s.01.1.01.15l-.08 4.41 1.6 5.77.39-.43c.23-.25.65-.15.73.17l2.54 9.38-.4.1.2.83.33-.08.34 9.28-.5.11.19.83.41-.09 2.29 10.74c.02.11 0 .22-.06.32l-.91 1.41.19.79-.51.32.45.71.09-.05-.97 1.29.04.88 8.53-4.94 4.73-3.37c.31-.21.74.05.67.43l-.28 1.47c-.01.08-.05.15-.12.22l-.32.33.34-.05 4.04-2.32c.28-.17.64.04.64.36Zm-.86.8v-.05l-3.47 2c-.05.02-.11.05-.17.05l-1.64.18c-.4.04-.63-.43-.35-.72l1.09-1.1.06-.28-3.89 2.76s-.02.02-.03.02l-9.14 5.31a.434.434 0 0 1-.64-.36l-.07-1.21-.5 2.6.86.8 9.78-6.22c.08-.05.17-.07.26-.07l1.09.09c.4.03.54.54.23.77l-4.04 3.05.22.18 10.35-7.8ZM175.36 330.48c.17.16.18.45 0 .62l-1.46 1.46c-.2.2-.55.15-.68-.1l-1.1-2.01a.413.413 0 0 1-.02-.36l1.19-3.02c.05-.14.19-.25.35-.26h.05c.22 0 .41.17.42.39l.17 2.3 1.07.98Zm-1.65 1.07.74-.74-.86-.79a.41.41 0 0 1-.13-.29l-.05-.6-.43 1.09.73 1.33ZM171.63 353.66c.22.12.3.39.17.61l-.58.94c-.11.16-.32.24-.5.18l-1.75-.59a.421.421 0 0 1-.23-.62l.71-1.2c.08-.12.21-.2.36-.2.07 0 .14.01.21.05l1.61.83Zm-.96.81.16-.26-.85-.44-.24.39.93.31ZM187.32 370.41c.02.15-.05.29-.17.39l-1.08.78a.43.43 0 0 1-.6-.09l-.85-1.14a.393.393 0 0 1-.08-.25v-.74c0-.23.18-.42.41-.42h.04l1.87.15c.2.02.37.19.39.4l.07.92Zm-.87-.16-.03-.34-1.03-.08v.12l.51.69.55-.39ZM180.44 370.84c.2.15.22.43.06.63l-1.27 1.41a.43.43 0 0 1-.67-.05l-.78-1.13a.424.424 0 0 1-.06-.36l.41-1.52c.06-.18.21-.31.4-.32.1 0 .2.03.28.1l1.63 1.24Zm-1.48 1.06.6-.66-.77-.58-.2.71.37.53ZM176.63 371.87c.03.17-.05.34-.19.43l-.98.62c-.16.1-.37.1-.51-.03l-.26-.22-.75.28a.42.42 0 0 1-.45-.09l-.75-.75a.412.412 0 0 1-.07-.53l.39-.62c.09-.15.25-.23.42-.2l1.07.15 1.47-.25h.03c.22-.02.43.14.46.35l.12.86Zm-.88-.14-.02-.15-1.11.18s-.08.01-.13 0l-.85-.11-.07.1.33.32.72-.29a.47.47 0 0 1 .44.08l.21.18.48-.31ZM159.58 374.51l-.02 1.17c-.01.26-.26.46-.52.41l-1.17-.25s-.03-.02-.05-.02l-.58-.22a.42.42 0 0 1-.21-.64l.43-.64c.08-.11.2-.18.34-.19l1.33-.06c.25 0 .45.2.45.44Zm-.87.63v-.2l-.66.03h-.01l.05.03.62.14Z"/></g></svg>